<svg width="731" height="54" viewBox="0 0 731 54" fill="none" xmlns="http://www.w3.org/2000/svg">
<rect width="731" height="53" fill="#242424"/>
<mask id="mask0_222:503" style="mask-type:alpha" maskUnits="userSpaceOnUse" x="0" y="0" width="248" height="16">
<path fill-rule="evenodd" clip-rule="evenodd" d="M0.582031 0.169922H247.208V15.8977H0.582031V0.169922Z" fill="white"/>
</mask>
<g mask="url(#mask0_222:503)">
<path fill-rule="evenodd" clip-rule="evenodd" d="M241.562 0.818653C224.219 1.84865 204.724 -3.06535 184.203 -8.23635C158.561 -14.6973 132.045 -21.3823 105.083 -18.2873C78.1723 -15.1893 52.8943 -5.82535 30.5913 2.43565C12.1793 9.25565 -3.72766 15.1477 -16.3167 15.8947C-16.3347 15.8957 -16.3507 15.8967 -16.3697 15.8977L-16.4307 14.8487C-16.4137 14.8477 -16.3957 14.8467 -16.3787 14.8457C-3.91166 14.1067 11.9393 8.23465 30.2893 1.43765C52.6363 -6.84035 77.9653 -16.2223 104.975 -19.3323C132.088 -22.4373 158.679 -15.7413 184.394 -9.26135C207.091 -3.54135 228.529 1.85965 247.078 -0.786348L247.208 0.255653C245.353 0.519653 243.47 0.705652 241.562 0.818653Z" fill="#00B0C7"/>
</g>
<mask id="mask1_222:503" style="mask-type:alpha" maskUnits="userSpaceOnUse" x="0" y="0" width="233" height="27">
<path fill-rule="evenodd" clip-rule="evenodd" d="M0.582031 0.169922H232.926V26.6901H0.582031V0.169922Z" fill="white"/>
</mask>
<g mask="url(#mask1_222:503)">
<path fill-rule="evenodd" clip-rule="evenodd" d="M227.278 11.611C209.934 12.641 190.44 7.72799 169.918 2.55599C144.276 -3.906 117.763 -10.591 90.7992 -7.496C63.8892 -4.395 38.6122 4.967 16.3102 13.228C-2.10284 20.048 -18.0108 25.94 -30.6008 26.687C-30.6188 26.688 -30.6348 26.689 -30.6538 26.69L-30.7148 25.641C-30.6978 25.64 -30.6798 25.639 -30.6628 25.638C-18.1958 24.898 -2.34384 19.027 16.0082 12.229C38.3542 3.95199 63.6822 -5.429 90.6912 -8.541C117.806 -11.654 144.394 -4.949 170.108 1.531C192.807 7.252 214.252 12.651 232.796 10.006L232.926 11.047C231.071 11.312 229.186 11.497 227.278 11.611Z" fill="#00B0C7"/>
</g>
<mask id="mask2_222:503" style="mask-type:alpha" maskUnits="userSpaceOnUse" x="0" y="1" width="219" height="37">
<path fill-rule="evenodd" clip-rule="evenodd" d="M0.582031 1.46875H218.639V37.4838H0.582031V1.46875Z" fill="white"/>
</mask>
<g mask="url(#mask2_222:503)">
<path fill-rule="evenodd" clip-rule="evenodd" d="M212.994 22.4038C195.652 23.4338 176.157 18.5208 155.636 13.3498C129.994 6.88783 103.485 0.203832 76.514 3.29783C49.606 6.39783 24.33 15.7598 2.029 24.0208C-16.385 30.8408 -32.292 36.7328 -44.882 37.4798C-44.901 37.4818 -44.92 37.4828 -44.939 37.4838L-45 36.4348C-44.982 36.4338 -44.963 36.4328 -44.944 36.4308C-32.477 35.6918 -16.625 29.8198 1.727 23.0228C24.072 14.7458 49.399 5.36483 76.407 2.25283C103.514 -0.854168 130.111 5.84383 155.827 12.3248C178.523 18.0438 199.961 23.4458 218.509 20.7988L218.639 21.8408C216.785 22.1058 214.902 22.2908 212.994 22.4038Z" fill="#00B0C7"/>
</g>
<mask id="mask3_222:503" style="mask-type:alpha" maskUnits="userSpaceOnUse" x="0" y="10" width="235" height="37">
<path fill-rule="evenodd" clip-rule="evenodd" d="M0.582031 10.4971H234.102V46.5104H0.582031V10.4971Z" fill="white"/>
</mask>
<g mask="url(#mask3_222:503)">
<path fill-rule="evenodd" clip-rule="evenodd" d="M228.453 31.4314C211.109 32.4604 191.614 27.5484 171.094 22.3764C145.452 15.9154 118.94 9.23245 91.9749 12.3254C65.0659 15.4244 39.7899 24.7874 17.4889 33.0484C-0.923063 39.8684 -16.8301 45.7594 -29.4191 46.5064C-29.4391 46.5084 -29.4581 46.5094 -29.4781 46.5104L-29.5391 45.4614C-29.5201 45.4604 -29.5001 45.4594 -29.4811 45.4574C-17.0151 44.7184 -1.16306 38.8474 17.1869 32.0494C39.5329 23.7724 64.8589 14.3914 91.8679 11.2804C118.979 8.17545 145.57 14.8714 171.284 21.3514C193.982 27.0724 215.423 32.4704 233.972 29.8264L234.102 30.8674C232.246 31.1324 230.363 31.3184 228.453 31.4314Z" fill="#00B0C7"/>
</g>
<mask id="mask4_222:503" style="mask-type:alpha" maskUnits="userSpaceOnUse" x="0" y="19" width="250" height="35">
<path fill-rule="evenodd" clip-rule="evenodd" d="M0.582031 19.5239H249.56V53.17H0.582031V19.5239Z" fill="white"/>
</mask>
<g mask="url(#mask4_222:503)">
<path fill-rule="evenodd" clip-rule="evenodd" d="M243.91 40.4574C226.568 41.4874 207.075 36.5744 186.555 31.4034C160.914 24.9404 134.399 18.2554 107.436 21.3524C80.5279 24.4514 55.2509 33.8144 32.9509 42.0744C14.5379 48.8944 -1.3691 54.7864 -13.9591 55.5334C-13.9791 55.5344 -13.9981 55.5354 -14.0171 55.5364L-14.0791 54.4874C-14.0601 54.4864 -14.0401 54.4854 -14.0211 54.4844C-1.5541 53.7444 14.2979 47.8734 32.6489 41.0754C54.9939 32.7994 80.3209 23.4184 107.328 20.3074C134.432 17.2024 161.031 23.8974 186.746 30.3784C209.444 36.0984 230.884 41.4954 249.43 38.8524L249.56 39.8934C247.704 40.1594 245.82 40.3444 243.91 40.4574Z" fill="#00B0C7"/>
</g>
<mask id="mask5_222:503" style="mask-type:alpha" maskUnits="userSpaceOnUse" x="218" y="0" width="265" height="22">
<path fill-rule="evenodd" clip-rule="evenodd" d="M218.389 0.169922H482.075V21.8538H218.389V0.169922Z" fill="white"/>
</mask>
<g mask="url(#mask5_222:503)">
<path fill-rule="evenodd" clip-rule="evenodd" d="M476.429 6.77079C459.085 7.80079 439.581 2.88779 419.05 -2.28221C393.395 -8.74321 366.87 -15.4262 339.903 -12.3322C312.995 -9.23221 287.719 0.129787 265.418 8.39079C247.004 15.2108 231.097 21.1028 218.507 21.8498C218.487 21.8518 218.469 21.8528 218.45 21.8538L218.389 20.8048C218.407 20.8038 218.426 20.8018 218.445 20.8008C230.912 20.0618 246.764 14.1888 265.116 7.39279C287.461 -0.884214 312.788 -10.2652 339.796 -13.3772C366.91 -16.4892 393.513 -9.78621 419.241 -3.30721C441.949 2.41179 463.396 7.81479 481.946 5.16679L482.075 6.20779C480.221 6.47279 478.337 6.65779 476.429 6.77079Z" fill="#00B0C7"/>
</g>
<mask id="mask6_222:503" style="mask-type:alpha" maskUnits="userSpaceOnUse" x="233" y="0" width="265" height="31">
<path fill-rule="evenodd" clip-rule="evenodd" d="M233.849 0.169922H497.537V30.8806H233.849V0.169922Z" fill="white"/>
</mask>
<g mask="url(#mask6_222:503)">
<path fill-rule="evenodd" clip-rule="evenodd" d="M491.888 15.7986C474.542 16.8276 455.037 11.9156 434.507 6.7446C408.853 0.283602 382.331 -6.3954 355.363 -3.3044C328.454 -0.205398 303.178 9.1576 280.877 17.4186C262.465 24.2376 246.558 30.1296 233.969 30.8766C233.949 30.8786 233.93 30.8796 233.91 30.8806L233.849 29.8316C233.868 29.8306 233.887 29.8296 233.906 29.8276C246.373 29.0886 262.225 23.2166 280.575 16.4196C302.92 8.1426 328.247 -1.2384 355.255 -4.3494C382.368 -7.4584 408.97 -0.759398 434.697 5.7206C457.407 11.4406 478.851 16.8426 497.407 14.1936L497.537 15.2346C495.681 15.4996 493.797 15.6856 491.888 15.7986Z" fill="#00B0C7"/>
</g>
<path fill-rule="evenodd" clip-rule="evenodd" d="M506.365 24.9246C489.068 25.9531 469.621 21.0442 449.15 15.8765C423.562 9.4163 397.106 2.73821 370.198 5.82986C343.36 8.92852 318.15 18.2864 295.907 26.5429C277.543 33.3599 261.677 39.2493 249.119 39.996C249.099 39.997 249.081 39.998 249.061 40L249 38.9515C249.019 38.9495 249.038 38.9485 249.057 38.9475C261.491 38.2078 277.302 32.3393 295.605 25.5453C317.892 17.2719 343.153 7.89497 370.09 4.78632C397.149 1.67367 423.679 8.37476 449.339 14.8519C471.984 20.5675 493.375 25.9621 511.87 23.3193L512 24.3608C510.149 24.6257 508.269 24.8116 506.365 24.9246Z" fill="#00B0C7"/>
<path fill-rule="evenodd" clip-rule="evenodd" d="M522.368 33.9239C505.07 34.9534 485.629 30.0447 465.162 24.8771C439.576 18.417 413.112 11.7381 386.197 14.8297C359.356 17.9272 334.143 27.286 311.898 35.5442C293.535 42.36 277.671 48.2503 265.115 48.997C265.096 48.998 265.08 48.999 265.062 49L265 47.9515C265.018 47.9505 265.035 47.9495 265.053 47.9485C277.486 47.2088 293.296 41.3395 311.597 34.5466C333.887 26.2724 359.149 16.8937 386.09 13.7851C413.157 10.6756 439.692 17.3745 465.352 23.8525C487.989 29.5679 509.369 34.9654 527.871 32.3196L528 33.3612C526.151 33.626 524.27 33.811 522.368 33.9239Z" fill="#00B0C7"/>
<mask id="mask7_222:503" style="mask-type:alpha" maskUnits="userSpaceOnUse" x="249" y="23" width="265" height="31">
<path fill-rule="evenodd" clip-rule="evenodd" d="M249.485 23.7139H513.171V53.1699H249.485V23.7139Z" fill="white"/>
</mask>
<g mask="url(#mask7_222:503)">
<path fill-rule="evenodd" clip-rule="evenodd" d="M507.526 44.6473C490.183 45.6773 470.683 40.7643 450.158 35.5943C424.503 29.1323 397.971 22.4503 370.999 25.5433C344.091 28.6433 318.814 38.0053 296.513 46.2663C278.099 53.0873 262.192 58.9793 249.602 59.7263C249.583 59.7273 249.565 59.7283 249.546 59.7303L249.485 58.6813C249.503 58.6793 249.522 58.6783 249.539 58.6773C262.007 57.9383 277.859 52.0653 296.211 45.2683C318.557 36.9913 343.883 27.6093 370.891 24.4983C398.017 21.3903 424.621 28.0893 450.348 34.5693C473.05 40.2893 494.49 45.6893 513.042 43.0423L513.171 44.0843C511.317 44.3493 509.434 44.5343 507.526 44.6473Z" fill="#00B0C7"/>
</g>
<mask id="mask8_222:503" style="mask-type:alpha" maskUnits="userSpaceOnUse" x="511" y="0" width="220" height="25">
<path fill-rule="evenodd" clip-rule="evenodd" d="M511.744 0.169922H730.583V24.2741H511.744V0.169922Z" fill="white"/>
</mask>
<g mask="url(#mask8_222:503)">
<path fill-rule="evenodd" clip-rule="evenodd" d="M769.733 9.19504C752.391 10.224 732.898 5.31204 712.378 0.140041C686.736 -6.32196 660.224 -13.005 633.257 -9.90996C606.349 -6.81096 581.073 2.55104 558.772 10.811C540.359 17.632 524.453 23.523 511.863 24.27C511.843 24.271 511.824 24.273 511.804 24.274L511.744 23.225C511.763 23.223 511.782 23.222 511.801 23.221C524.267 22.482 540.119 16.61 558.47 9.81304C580.815 1.53704 606.141 -7.84396 633.15 -10.955C660.259 -14.061 686.853 -7.36496 712.568 -0.884958C735.266 4.83604 756.71 10.233 775.253 7.58904L775.383 8.63104C773.527 8.89604 771.642 9.08104 769.733 9.19504Z" fill="#00B0C7"/>
</g>
<mask id="mask9_222:503" style="mask-type:alpha" maskUnits="userSpaceOnUse" x="527" y="0" width="204" height="34">
<path fill-rule="evenodd" clip-rule="evenodd" d="M527.204 0.169922H730.583V33.3039H527.204V0.169922Z" fill="white"/>
</mask>
<g mask="url(#mask9_222:503)">
<path fill-rule="evenodd" clip-rule="evenodd" d="M785.199 18.2251C767.853 19.2551 748.359 14.3411 727.836 9.17012C702.196 2.70812 675.693 -3.97088 648.72 -0.881884C621.807 2.21712 596.528 11.5801 574.225 19.8421C555.814 26.6621 539.907 32.5541 527.318 33.3011C527.3 33.3021 527.284 33.3031 527.265 33.3041L527.204 32.2551C527.221 32.2541 527.239 32.2531 527.256 32.2521C539.722 31.5121 555.573 25.6411 573.923 18.8441C596.27 10.5661 621.6 1.18312 648.612 -1.92688C675.724 -5.02988 702.314 1.66512 728.027 8.14412C750.726 13.8641 772.16 19.2641 790.718 16.6191L790.847 17.6611C788.992 17.9261 787.107 18.1111 785.199 18.2251Z" fill="#00B0C7"/>
</g>
<mask id="mask10_222:503" style="mask-type:alpha" maskUnits="userSpaceOnUse" x="512" y="8" width="219" height="37">
<path fill-rule="evenodd" clip-rule="evenodd" d="M512.92 8.08203H730.583V44.0973H512.92V8.08203Z" fill="white"/>
</mask>
<g mask="url(#mask10_222:503)">
<path fill-rule="evenodd" clip-rule="evenodd" d="M770.914 29.0173C753.571 30.0473 734.076 25.1343 713.555 19.9623C687.913 13.5003 661.4 6.81133 634.434 9.91033C607.525 13.0103 582.249 22.3733 559.947 30.6333C541.533 37.4543 525.626 43.3463 513.036 44.0933C513.018 44.0943 513 44.0963 512.981 44.0973L512.92 43.0483C512.937 43.0473 512.956 43.0453 512.974 43.0443C525.441 42.3053 541.292 36.4333 559.645 29.6353C581.991 21.3583 607.318 11.9773 634.326 8.86533C661.44 5.76033 688.031 12.4573 713.745 18.9373C736.443 24.6573 757.881 30.0593 776.43 27.4123L776.559 28.4543C774.704 28.7193 772.822 28.9043 770.914 29.0173Z" fill="#00B0C7"/>
</g>
<mask id="mask11_222:503" style="mask-type:alpha" maskUnits="userSpaceOnUse" x="498" y="18" width="233" height="36">
<path fill-rule="evenodd" clip-rule="evenodd" d="M498.636 18.875H730.583V53.17H498.636V18.875Z" fill="white"/>
</mask>
<g mask="url(#mask11_222:503)">
<path fill-rule="evenodd" clip-rule="evenodd" d="M756.63 39.808C739.286 40.838 719.793 35.925 699.271 30.754C673.628 24.291 647.107 17.612 620.15 20.704C593.242 23.803 567.966 33.165 545.665 41.425C527.252 48.245 511.346 54.137 498.755 54.884C498.736 54.885 498.717 54.886 498.697 54.887L498.636 53.838C498.655 53.837 498.674 53.836 498.693 53.835C511.16 53.095 527.012 47.224 545.362 40.427C567.708 32.15 593.034 22.769 620.042 19.658C647.151 16.554 673.747 23.249 699.461 29.729C722.159 35.448 743.599 40.851 762.148 38.203L762.277 39.244C760.422 39.509 758.538 39.694 756.63 39.808Z" fill="#00B0C7"/>
</g>
<path d="M442.126 29.118C441.844 29.442 441.496 29.7 441.082 29.892C440.668 30.078 440.191 30.171 439.651 30.171C439.159 30.171 438.703 30.09 438.283 29.928C437.869 29.766 437.509 29.538 437.203 29.244C436.897 28.944 436.657 28.587 436.483 28.173C436.309 27.759 436.222 27.303 436.222 26.805C436.222 26.295 436.309 25.833 436.483 25.419C436.663 25.005 436.909 24.654 437.221 24.366C437.533 24.072 437.899 23.847 438.319 23.691C438.739 23.535 439.192 23.457 439.678 23.457C440.128 23.457 440.569 23.538 441.001 23.7C441.439 23.856 441.793 24.087 442.063 24.393L441.019 25.437C440.875 25.239 440.686 25.092 440.452 24.996C440.218 24.9 439.978 24.852 439.732 24.852C439.462 24.852 439.213 24.903 438.985 25.005C438.763 25.101 438.571 25.236 438.409 25.41C438.247 25.584 438.121 25.791 438.031 26.031C437.941 26.265 437.896 26.523 437.896 26.805C437.896 27.093 437.941 27.357 438.031 27.597C438.121 27.837 438.244 28.044 438.4 28.218C438.562 28.386 438.754 28.518 438.976 28.614C439.198 28.71 439.441 28.758 439.705 28.758C440.011 28.758 440.278 28.698 440.506 28.578C440.734 28.458 440.917 28.302 441.055 28.11L442.126 29.118ZM447.351 27.741C447.351 28.107 447.285 28.44 447.153 28.74C447.021 29.034 446.841 29.286 446.613 29.496C446.385 29.7 446.121 29.859 445.821 29.973C445.521 30.087 445.2 30.144 444.858 30.144C444.522 30.144 444.201 30.087 443.895 29.973C443.595 29.859 443.331 29.7 443.103 29.496C442.881 29.286 442.704 29.034 442.572 28.74C442.44 28.44 442.374 28.107 442.374 27.741C442.374 27.375 442.44 27.045 442.572 26.751C442.704 26.457 442.881 26.208 443.103 26.004C443.331 25.8 443.595 25.644 443.895 25.536C444.201 25.428 444.522 25.374 444.858 25.374C445.2 25.374 445.521 25.428 445.821 25.536C446.121 25.644 446.385 25.8 446.613 26.004C446.841 26.208 447.021 26.457 447.153 26.751C447.285 27.045 447.351 27.375 447.351 27.741ZM445.929 27.741C445.929 27.597 445.905 27.456 445.857 27.318C445.809 27.18 445.74 27.06 445.65 26.958C445.56 26.85 445.449 26.763 445.317 26.697C445.185 26.631 445.032 26.598 444.858 26.598C444.684 26.598 444.531 26.631 444.399 26.697C444.267 26.763 444.156 26.85 444.066 26.958C443.982 27.06 443.916 27.18 443.868 27.318C443.826 27.456 443.805 27.597 443.805 27.741C443.805 27.885 443.826 28.026 443.868 28.164C443.916 28.302 443.985 28.428 444.075 28.542C444.165 28.65 444.276 28.737 444.408 28.803C444.54 28.869 444.693 28.902 444.867 28.902C445.041 28.902 445.194 28.869 445.326 28.803C445.458 28.737 445.569 28.65 445.659 28.542C445.749 28.428 445.815 28.302 445.857 28.164C445.905 28.026 445.929 27.885 445.929 27.741ZM451.229 30V27.552C451.229 27.426 451.217 27.306 451.193 27.192C451.175 27.078 451.142 26.979 451.094 26.895C451.046 26.805 450.977 26.736 450.887 26.688C450.803 26.634 450.695 26.607 450.563 26.607C450.431 26.607 450.314 26.634 450.212 26.688C450.116 26.736 450.035 26.805 449.969 26.895C449.903 26.985 449.852 27.09 449.816 27.21C449.786 27.324 449.771 27.444 449.771 27.57V30H448.286V25.518H449.717V26.139H449.735C449.789 26.043 449.858 25.95 449.942 25.86C450.032 25.764 450.134 25.683 450.248 25.617C450.368 25.551 450.497 25.497 450.635 25.455C450.773 25.413 450.92 25.392 451.076 25.392C451.376 25.392 451.631 25.446 451.841 25.554C452.051 25.662 452.219 25.803 452.345 25.977C452.477 26.145 452.57 26.34 452.624 26.562C452.684 26.784 452.714 27.006 452.714 27.228V30H451.229ZM455.434 26.625V28.335C455.434 28.545 455.473 28.704 455.551 28.812C455.635 28.914 455.782 28.965 455.992 28.965C456.064 28.965 456.139 28.959 456.217 28.947C456.301 28.935 456.37 28.917 456.424 28.893L456.442 29.973C456.34 30.009 456.211 30.039 456.055 30.063C455.899 30.093 455.743 30.108 455.587 30.108C455.287 30.108 455.035 30.072 454.831 30C454.627 29.922 454.462 29.814 454.336 29.676C454.216 29.532 454.129 29.364 454.075 29.172C454.021 28.974 453.994 28.755 453.994 28.515V26.625H453.274V25.518H453.985V24.339H455.434V25.518H456.487V26.625H455.434ZM460.087 26.724C460.021 26.706 459.955 26.694 459.889 26.688C459.829 26.682 459.769 26.679 459.709 26.679C459.511 26.679 459.343 26.715 459.205 26.787C459.073 26.859 458.965 26.946 458.881 27.048C458.803 27.15 458.746 27.261 458.71 27.381C458.674 27.501 458.656 27.606 458.656 27.696V30H457.18V25.518H458.602V26.166H458.62C458.734 25.938 458.896 25.752 459.106 25.608C459.316 25.464 459.559 25.392 459.835 25.392C459.895 25.392 459.952 25.395 460.006 25.401C460.066 25.407 460.114 25.416 460.15 25.428L460.087 26.724ZM463.254 28.047H463.065C462.903 28.047 462.738 28.056 462.57 28.074C462.408 28.086 462.261 28.113 462.129 28.155C462.003 28.197 461.898 28.26 461.814 28.344C461.73 28.422 461.688 28.527 461.688 28.659C461.688 28.743 461.706 28.815 461.742 28.875C461.784 28.935 461.835 28.983 461.895 29.019C461.955 29.055 462.024 29.082 462.102 29.1C462.18 29.112 462.255 29.118 462.327 29.118C462.627 29.118 462.855 29.037 463.011 28.875C463.173 28.707 463.254 28.482 463.254 28.2V28.047ZM460.545 26.13C460.809 25.878 461.115 25.689 461.463 25.563C461.817 25.437 462.177 25.374 462.543 25.374C462.921 25.374 463.239 25.422 463.497 25.518C463.761 25.608 463.974 25.752 464.136 25.95C464.298 26.142 464.415 26.388 464.487 26.688C464.565 26.982 464.604 27.333 464.604 27.741V30H463.254V29.523H463.227C463.113 29.709 462.939 29.853 462.705 29.955C462.477 30.057 462.228 30.108 461.958 30.108C461.778 30.108 461.592 30.084 461.4 30.036C461.208 29.988 461.031 29.91 460.869 29.802C460.713 29.694 460.584 29.55 460.482 29.37C460.38 29.19 460.329 28.968 460.329 28.704C460.329 28.38 460.416 28.119 460.59 27.921C460.77 27.723 460.998 27.57 461.274 27.462C461.556 27.354 461.868 27.282 462.21 27.246C462.552 27.21 462.885 27.192 463.209 27.192V27.12C463.209 26.898 463.131 26.736 462.975 26.634C462.819 26.526 462.627 26.472 462.399 26.472C462.189 26.472 461.985 26.517 461.787 26.607C461.595 26.697 461.43 26.805 461.292 26.931L460.545 26.13ZM468.793 26.967C468.709 26.859 468.595 26.772 468.451 26.706C468.307 26.64 468.16 26.607 468.01 26.607C467.854 26.607 467.713 26.64 467.587 26.706C467.461 26.766 467.353 26.85 467.263 26.958C467.173 27.06 467.101 27.18 467.047 27.318C466.999 27.456 466.975 27.603 466.975 27.759C466.975 27.915 466.999 28.062 467.047 28.2C467.095 28.338 467.164 28.461 467.254 28.569C467.35 28.671 467.461 28.752 467.587 28.812C467.719 28.872 467.866 28.902 468.028 28.902C468.178 28.902 468.325 28.875 468.469 28.821C468.619 28.761 468.739 28.677 468.829 28.569L469.648 29.568C469.462 29.748 469.222 29.889 468.928 29.991C468.634 30.093 468.322 30.144 467.992 30.144C467.638 30.144 467.308 30.09 467.002 29.982C466.696 29.874 466.429 29.718 466.201 29.514C465.979 29.304 465.802 29.052 465.67 28.758C465.544 28.464 465.481 28.131 465.481 27.759C465.481 27.393 465.544 27.063 465.67 26.769C465.802 26.475 465.979 26.226 466.201 26.022C466.429 25.812 466.696 25.653 467.002 25.545C467.308 25.431 467.635 25.374 467.983 25.374C468.145 25.374 468.304 25.389 468.46 25.419C468.622 25.449 468.775 25.491 468.919 25.545C469.069 25.593 469.204 25.656 469.324 25.734C469.45 25.806 469.558 25.887 469.648 25.977L468.793 26.967ZM471.834 26.625V28.335C471.834 28.545 471.873 28.704 471.951 28.812C472.035 28.914 472.182 28.965 472.392 28.965C472.464 28.965 472.539 28.959 472.617 28.947C472.701 28.935 472.77 28.917 472.824 28.893L472.842 29.973C472.74 30.009 472.611 30.039 472.455 30.063C472.299 30.093 472.143 30.108 471.987 30.108C471.687 30.108 471.435 30.072 471.231 30C471.027 29.922 470.862 29.814 470.736 29.676C470.616 29.532 470.529 29.364 470.475 29.172C470.421 28.974 470.394 28.755 470.394 28.515V26.625H469.674V25.518H470.385V24.339H471.834V25.518H472.887V26.625H471.834ZM479.278 25.284C479.146 25.116 478.972 24.984 478.756 24.888C478.546 24.786 478.342 24.735 478.144 24.735C478.042 24.735 477.937 24.744 477.829 24.762C477.727 24.78 477.634 24.816 477.55 24.87C477.466 24.918 477.394 24.984 477.334 25.068C477.28 25.146 477.253 25.248 477.253 25.374C477.253 25.482 477.274 25.572 477.316 25.644C477.364 25.716 477.43 25.779 477.514 25.833C477.604 25.887 477.709 25.938 477.829 25.986C477.949 26.028 478.084 26.073 478.234 26.121C478.45 26.193 478.675 26.274 478.909 26.364C479.143 26.448 479.356 26.562 479.548 26.706C479.74 26.85 479.899 27.03 480.025 27.246C480.151 27.456 480.214 27.72 480.214 28.038C480.214 28.404 480.145 28.722 480.007 28.992C479.875 29.256 479.695 29.475 479.467 29.649C479.239 29.823 478.978 29.952 478.684 30.036C478.39 30.12 478.087 30.162 477.775 30.162C477.319 30.162 476.878 30.084 476.452 29.928C476.026 29.766 475.672 29.538 475.39 29.244L476.398 28.218C476.554 28.41 476.758 28.572 477.01 28.704C477.268 28.83 477.523 28.893 477.775 28.893C477.889 28.893 478 28.881 478.108 28.857C478.216 28.833 478.309 28.794 478.387 28.74C478.471 28.686 478.537 28.614 478.585 28.524C478.633 28.434 478.657 28.326 478.657 28.2C478.657 28.08 478.627 27.978 478.567 27.894C478.507 27.81 478.42 27.735 478.306 27.669C478.198 27.597 478.06 27.534 477.892 27.48C477.73 27.42 477.544 27.357 477.334 27.291C477.13 27.225 476.929 27.147 476.731 27.057C476.539 26.967 476.365 26.853 476.209 26.715C476.059 26.571 475.936 26.4 475.84 26.202C475.75 25.998 475.705 25.752 475.705 25.464C475.705 25.11 475.777 24.807 475.921 24.555C476.065 24.303 476.254 24.096 476.488 23.934C476.722 23.772 476.986 23.655 477.28 23.583C477.574 23.505 477.871 23.466 478.171 23.466C478.531 23.466 478.897 23.532 479.269 23.664C479.647 23.796 479.977 23.991 480.259 24.249L479.278 25.284ZM482.698 26.625V28.335C482.698 28.545 482.737 28.704 482.815 28.812C482.899 28.914 483.046 28.965 483.256 28.965C483.328 28.965 483.403 28.959 483.481 28.947C483.565 28.935 483.634 28.917 483.688 28.893L483.706 29.973C483.604 30.009 483.475 30.039 483.319 30.063C483.163 30.093 483.007 30.108 482.851 30.108C482.551 30.108 482.299 30.072 482.095 30C481.891 29.922 481.726 29.814 481.6 29.676C481.48 29.532 481.393 29.364 481.339 29.172C481.285 28.974 481.258 28.755 481.258 28.515V26.625H480.538V25.518H481.249V24.339H482.698V25.518H483.751V26.625H482.698ZM487.09 28.047H486.901C486.739 28.047 486.574 28.056 486.406 28.074C486.244 28.086 486.097 28.113 485.965 28.155C485.839 28.197 485.734 28.26 485.65 28.344C485.566 28.422 485.524 28.527 485.524 28.659C485.524 28.743 485.542 28.815 485.578 28.875C485.62 28.935 485.671 28.983 485.731 29.019C485.791 29.055 485.86 29.082 485.938 29.1C486.016 29.112 486.091 29.118 486.163 29.118C486.463 29.118 486.691 29.037 486.847 28.875C487.009 28.707 487.09 28.482 487.09 28.2V28.047ZM484.381 26.13C484.645 25.878 484.951 25.689 485.299 25.563C485.653 25.437 486.013 25.374 486.379 25.374C486.757 25.374 487.075 25.422 487.333 25.518C487.597 25.608 487.81 25.752 487.972 25.95C488.134 26.142 488.251 26.388 488.323 26.688C488.401 26.982 488.44 27.333 488.44 27.741V30H487.09V29.523H487.063C486.949 29.709 486.775 29.853 486.541 29.955C486.313 30.057 486.064 30.108 485.794 30.108C485.614 30.108 485.428 30.084 485.236 30.036C485.044 29.988 484.867 29.91 484.705 29.802C484.549 29.694 484.42 29.55 484.318 29.37C484.216 29.19 484.165 28.968 484.165 28.704C484.165 28.38 484.252 28.119 484.426 27.921C484.606 27.723 484.834 27.57 485.11 27.462C485.392 27.354 485.704 27.282 486.046 27.246C486.388 27.21 486.721 27.192 487.045 27.192V27.12C487.045 26.898 486.967 26.736 486.811 26.634C486.655 26.526 486.463 26.472 486.235 26.472C486.025 26.472 485.821 26.517 485.623 26.607C485.431 26.697 485.266 26.805 485.128 26.931L484.381 26.13ZM491.056 26.625V28.335C491.056 28.545 491.095 28.704 491.173 28.812C491.257 28.914 491.404 28.965 491.614 28.965C491.686 28.965 491.761 28.959 491.839 28.947C491.923 28.935 491.992 28.917 492.046 28.893L492.064 29.973C491.962 30.009 491.833 30.039 491.677 30.063C491.521 30.093 491.365 30.108 491.209 30.108C490.909 30.108 490.657 30.072 490.453 30C490.249 29.922 490.084 29.814 489.958 29.676C489.838 29.532 489.751 29.364 489.697 29.172C489.643 28.974 489.616 28.755 489.616 28.515V26.625H488.896V25.518H489.607V24.339H491.056V25.518H492.109V26.625H491.056ZM495.755 30V29.379H495.737C495.683 29.481 495.611 29.577 495.521 29.667C495.437 29.757 495.335 29.835 495.215 29.901C495.101 29.967 494.972 30.021 494.828 30.063C494.69 30.105 494.543 30.126 494.387 30.126C494.087 30.126 493.832 30.072 493.622 29.964C493.418 29.856 493.25 29.718 493.118 29.55C492.992 29.376 492.899 29.181 492.839 28.965C492.785 28.743 492.758 28.518 492.758 28.29V25.518H494.243V27.948C494.243 28.074 494.252 28.194 494.27 28.308C494.288 28.422 494.321 28.524 494.369 28.614C494.423 28.704 494.492 28.776 494.576 28.83C494.66 28.878 494.771 28.902 494.909 28.902C495.167 28.902 495.362 28.806 495.494 28.614C495.632 28.422 495.701 28.197 495.701 27.939V25.518H497.177V30H495.755ZM500.968 26.841C500.848 26.727 500.707 26.631 500.545 26.553C500.383 26.475 500.212 26.436 500.032 26.436C499.894 26.436 499.765 26.463 499.645 26.517C499.531 26.571 499.474 26.664 499.474 26.796C499.474 26.922 499.537 27.012 499.663 27.066C499.795 27.12 500.005 27.18 500.293 27.246C500.461 27.282 500.629 27.333 500.797 27.399C500.971 27.465 501.127 27.552 501.265 27.66C501.403 27.768 501.514 27.9 501.598 28.056C501.682 28.212 501.724 28.398 501.724 28.614C501.724 28.896 501.667 29.136 501.553 29.334C501.439 29.526 501.289 29.682 501.103 29.802C500.923 29.922 500.719 30.009 500.491 30.063C500.263 30.117 500.035 30.144 499.807 30.144C499.441 30.144 499.081 30.087 498.727 29.973C498.379 29.853 498.088 29.679 497.854 29.451L498.682 28.578C498.814 28.722 498.976 28.842 499.168 28.938C499.36 29.034 499.564 29.082 499.78 29.082C499.9 29.082 500.017 29.055 500.131 29.001C500.251 28.941 500.311 28.839 500.311 28.695C500.311 28.557 500.239 28.455 500.095 28.389C499.951 28.323 499.726 28.254 499.42 28.182C499.264 28.146 499.108 28.098 498.952 28.038C498.796 27.978 498.655 27.897 498.529 27.795C498.409 27.693 498.31 27.567 498.232 27.417C498.154 27.267 498.115 27.087 498.115 26.877C498.115 26.607 498.172 26.379 498.286 26.193C498.4 26.001 498.547 25.845 498.727 25.725C498.907 25.605 499.105 25.518 499.321 25.464C499.543 25.404 499.762 25.374 499.978 25.374C500.314 25.374 500.641 25.428 500.959 25.536C501.283 25.638 501.556 25.794 501.778 26.004L500.968 26.841Z" fill="white"/>
<path fill-rule="evenodd" clip-rule="evenodd" d="M31 26L17 33V19L31 26Z" fill="white"/>
<path d="M46.082 22.198V25.264H51.836V28.225H46.082V34H42.533V19.132H52.319V22.198H46.082ZM54.6326 34V19.132H58.2446V34H54.6326ZM70.7682 34L64.7832 24.277H64.7202L64.8042 34H61.3182V19.132H65.4132L71.3772 28.834H71.4402L71.3562 19.132H74.8422V34H70.7682ZM87.989 34L86.834 31.081H81.08L79.988 34H76.082L82.319 19.132H85.805L91.979 34H87.989ZM83.999 23.101L82.109 28.204H85.847L83.999 23.101ZM102.658 34L96.6728 24.277H96.6098L96.6938 34H93.2078V19.132H97.3028L103.267 28.834H103.33L103.246 19.132H106.732V34H102.658ZM122.882 31.942C122.224 32.698 121.412 33.3 120.446 33.748C119.48 34.182 118.367 34.399 117.107 34.399C115.959 34.399 114.895 34.21 113.915 33.832C112.949 33.454 112.109 32.922 111.395 32.236C110.681 31.536 110.121 30.703 109.715 29.737C109.309 28.771 109.106 27.707 109.106 26.545C109.106 25.355 109.309 24.277 109.715 23.311C110.135 22.345 110.709 21.526 111.437 20.854C112.165 20.168 113.019 19.643 113.999 19.279C114.979 18.915 116.036 18.733 117.17 18.733C118.22 18.733 119.249 18.922 120.257 19.3C121.279 19.664 122.105 20.203 122.735 20.917L120.299 23.353C119.963 22.891 119.522 22.548 118.976 22.324C118.43 22.1 117.87 21.988 117.296 21.988C116.666 21.988 116.085 22.107 115.553 22.345C115.035 22.569 114.587 22.884 114.209 23.29C113.831 23.696 113.537 24.179 113.327 24.739C113.117 25.285 113.012 25.887 113.012 26.545C113.012 27.217 113.117 27.833 113.327 28.393C113.537 28.953 113.824 29.436 114.188 29.842C114.566 30.234 115.014 30.542 115.532 30.766C116.05 30.99 116.617 31.102 117.233 31.102C117.947 31.102 118.57 30.962 119.102 30.682C119.634 30.402 120.061 30.038 120.383 29.59L122.882 31.942ZM124.421 34V19.132H128.033V34H124.421ZM140.556 34L134.571 24.277H134.508L134.592 34H131.106V19.132H135.201L141.165 28.834H141.228L141.144 19.132H144.63V34H140.556ZM160.906 33.097C160.178 33.475 159.324 33.783 158.344 34.021C157.378 34.259 156.321 34.378 155.173 34.378C153.983 34.378 152.884 34.189 151.876 33.811C150.882 33.433 150.021 32.901 149.293 32.215C148.579 31.529 148.019 30.71 147.613 29.758C147.207 28.792 147.004 27.721 147.004 26.545C147.004 25.355 147.207 24.277 147.613 23.311C148.033 22.345 148.607 21.526 149.335 20.854C150.063 20.168 150.917 19.643 151.897 19.279C152.877 18.915 153.934 18.733 155.068 18.733C156.244 18.733 157.336 18.915 158.344 19.279C159.352 19.629 160.171 20.105 160.801 20.707L158.533 23.29C158.183 22.884 157.721 22.555 157.147 22.303C156.573 22.037 155.922 21.904 155.194 21.904C154.564 21.904 153.983 22.023 153.451 22.261C152.919 22.485 152.457 22.807 152.065 23.227C151.673 23.633 151.365 24.123 151.141 24.697C150.931 25.257 150.826 25.873 150.826 26.545C150.826 27.231 150.924 27.861 151.12 28.435C151.316 29.009 151.603 29.506 151.981 29.926C152.373 30.332 152.849 30.654 153.409 30.892C153.983 31.116 154.634 31.228 155.362 31.228C155.782 31.228 156.181 31.2 156.559 31.144C156.937 31.074 157.287 30.969 157.609 30.829V28.12H154.774V25.222H160.906V33.097ZM182.17 31.942C181.512 32.698 180.7 33.3 179.734 33.748C178.768 34.182 177.655 34.399 176.395 34.399C175.247 34.399 174.183 34.21 173.203 33.832C172.237 33.454 171.397 32.922 170.683 32.236C169.969 31.536 169.409 30.703 169.003 29.737C168.597 28.771 168.394 27.707 168.394 26.545C168.394 25.355 168.597 24.277 169.003 23.311C169.423 22.345 169.997 21.526 170.725 20.854C171.453 20.168 172.307 19.643 173.287 19.279C174.267 18.915 175.324 18.733 176.458 18.733C177.508 18.733 178.537 18.922 179.545 19.3C180.567 19.664 181.393 20.203 182.023 20.917L179.587 23.353C179.251 22.891 178.81 22.548 178.264 22.324C177.718 22.1 177.158 21.988 176.584 21.988C175.954 21.988 175.373 22.107 174.841 22.345C174.323 22.569 173.875 22.884 173.497 23.29C173.119 23.696 172.825 24.179 172.615 24.739C172.405 25.285 172.3 25.887 172.3 26.545C172.3 27.217 172.405 27.833 172.615 28.393C172.825 28.953 173.112 29.436 173.476 29.842C173.854 30.234 174.302 30.542 174.82 30.766C175.338 30.99 175.905 31.102 176.521 31.102C177.235 31.102 177.858 30.962 178.39 30.682C178.922 30.402 179.349 30.038 179.671 29.59L182.17 31.942ZM198.961 26.503C198.961 27.679 198.758 28.757 198.352 29.737C197.946 30.703 197.379 31.536 196.651 32.236C195.937 32.922 195.083 33.454 194.089 33.832C193.095 34.21 192.017 34.399 190.855 34.399C189.693 34.399 188.615 34.21 187.621 33.832C186.641 33.454 185.787 32.922 185.059 32.236C184.345 31.536 183.785 30.703 183.379 29.737C182.973 28.757 182.77 27.679 182.77 26.503C182.77 25.313 182.973 24.242 183.379 23.29C183.785 22.324 184.345 21.505 185.059 20.833C185.787 20.161 186.641 19.643 187.621 19.279C188.615 18.915 189.693 18.733 190.855 18.733C192.017 18.733 193.095 18.915 194.089 19.279C195.083 19.643 195.937 20.161 196.651 20.833C197.379 21.505 197.946 22.324 198.352 23.29C198.758 24.242 198.961 25.313 198.961 26.503ZM195.118 26.503C195.118 25.859 195.013 25.257 194.803 24.697C194.593 24.137 194.299 23.661 193.921 23.269C193.557 22.863 193.109 22.548 192.577 22.324C192.059 22.086 191.485 21.967 190.855 21.967C190.225 21.967 189.651 22.086 189.133 22.324C188.615 22.548 188.167 22.863 187.789 23.269C187.411 23.661 187.117 24.137 186.907 24.697C186.711 25.257 186.613 25.859 186.613 26.503C186.613 27.175 186.718 27.798 186.928 28.372C187.138 28.932 187.425 29.415 187.789 29.821C188.167 30.227 188.615 30.549 189.133 30.787C189.651 31.011 190.225 31.123 190.855 31.123C191.485 31.123 192.059 31.011 192.577 30.787C193.095 30.549 193.543 30.227 193.921 29.821C194.299 29.415 194.593 28.932 194.803 28.372C195.013 27.798 195.118 27.175 195.118 26.503ZM210.775 34L204.79 24.277H204.727L204.811 34H201.325V19.132H205.42L211.384 28.834H211.447L211.363 19.132H214.849V34H210.775ZM224.279 22.198V34H220.688V22.198H216.488V19.132H228.479V22.198H224.279ZM238.077 34L234.864 28.099H233.646V34H230.118V19.132H235.788C236.502 19.132 237.195 19.209 237.867 19.363C238.553 19.503 239.162 19.748 239.694 20.098C240.24 20.448 240.674 20.91 240.996 21.484C241.318 22.058 241.479 22.772 241.479 23.626C241.479 24.634 241.206 25.481 240.66 26.167C240.114 26.853 239.358 27.343 238.392 27.637L242.277 34H238.077ZM237.93 23.689C237.93 23.339 237.853 23.059 237.699 22.849C237.559 22.625 237.37 22.457 237.132 22.345C236.908 22.219 236.649 22.135 236.355 22.093C236.075 22.051 235.802 22.03 235.536 22.03H233.625V25.495H235.326C235.62 25.495 235.921 25.474 236.229 25.432C236.537 25.376 236.817 25.285 237.069 25.159C237.321 25.033 237.524 24.851 237.678 24.613C237.846 24.375 237.93 24.067 237.93 23.689ZM254.123 34L252.968 31.081H247.214L246.122 34H242.216L248.453 19.132H251.939L258.113 34H254.123ZM250.133 23.101L248.243 28.204H251.981L250.133 23.101ZM272.055 31.942C271.397 32.698 270.585 33.3 269.619 33.748C268.653 34.182 267.54 34.399 266.28 34.399C265.132 34.399 264.068 34.21 263.088 33.832C262.122 33.454 261.282 32.922 260.568 32.236C259.854 31.536 259.294 30.703 258.888 29.737C258.482 28.771 258.279 27.707 258.279 26.545C258.279 25.355 258.482 24.277 258.888 23.311C259.308 22.345 259.882 21.526 260.61 20.854C261.338 20.168 262.192 19.643 263.172 19.279C264.152 18.915 265.209 18.733 266.343 18.733C267.393 18.733 268.422 18.922 269.43 19.3C270.452 19.664 271.278 20.203 271.908 20.917L269.472 23.353C269.136 22.891 268.695 22.548 268.149 22.324C267.603 22.1 267.043 21.988 266.469 21.988C265.839 21.988 265.258 22.107 264.726 22.345C264.208 22.569 263.76 22.884 263.382 23.29C263.004 23.696 262.71 24.179 262.5 24.739C262.29 25.285 262.185 25.887 262.185 26.545C262.185 27.217 262.29 27.833 262.5 28.393C262.71 28.953 262.997 29.436 263.361 29.842C263.739 30.234 264.187 30.542 264.705 30.766C265.223 30.99 265.79 31.102 266.406 31.102C267.12 31.102 267.743 30.962 268.275 30.682C268.807 30.402 269.234 30.038 269.556 29.59L272.055 31.942ZM279.834 22.198V34H276.243V22.198H272.043V19.132H284.034V22.198H279.834Z" fill="white"/>
<rect x="510" y="19" width="203" height="15" rx="7.5" fill="#676767" fill-opacity="0.692367"/>
<mask id="mask12_222:503" style="mask-type:alpha" maskUnits="userSpaceOnUse" x="510" y="19" width="203" height="15">
<rect x="510" y="19" width="203" height="15" rx="7.5" fill="white"/>
</mask>
<g mask="url(#mask12_222:503)">
</g>
<path d="M645.5 12.5V41.5" stroke="white" stroke-dasharray="5 3"/>
<path d="M577.5 12.5V41.5" stroke="white" stroke-dasharray="5 3"/>
</svg>
