<svg width="731" height="92" viewBox="0 0 731 92" fill="none" xmlns="http://www.w3.org/2000/svg">
<mask id="mask0_2_334" style="mask-type:alpha" maskUnits="userSpaceOnUse" x="0" y="0" width="731" height="92">
<path fill-rule="evenodd" clip-rule="evenodd" d="M0 0H731V92H0V0Z" fill="white"/>
</mask>
<g mask="url(#mask0_2_334)">
<path fill-rule="evenodd" clip-rule="evenodd" d="M0.0126427 89.0204V0H731V55.7038V60.5376C714.527 60.8839 696.144 56.2311 676.851 51.3448C651.136 44.8322 624.545 38.1036 597.431 41.2229C570.421 44.3494 545.094 53.778 522.747 62.0965C504.396 68.9275 488.545 74.8279 476.079 75.572C476.062 75.5728 476.043 75.5736 476.026 75.5751L476.027 75.5855C457.498 78.2029 436.1 72.7894 413.441 67.0542C387.714 60.5432 361.117 53.8146 333.997 56.9339C306.987 60.0604 281.659 69.489 259.312 77.8074C240.961 84.6385 225.111 90.5396 212.645 91.2829C212.626 91.2837 212.608 91.2853 212.59 91.2861L212.591 91.2964C194.069 93.9138 172.676 88.5003 150.028 82.7643C124.312 76.2509 97.7233 69.5168 70.6095 72.6417C45.2285 75.5799 21.333 84.0818 0 92L0.0126427 89.0204Z" fill="#242424"/>
</g>
<g opacity="0.46">
<mask id="mask1_2_334" style="mask-type:alpha" maskUnits="userSpaceOnUse" x="0" y="0" width="731" height="92">
<path fill-rule="evenodd" clip-rule="evenodd" d="M0.337157 0.431641V89.0096L0.326172 91.9746C21.629 84.0956 45.4914 75.6356 70.8377 72.7126V72.7126C97.9157 69.6026 124.468 76.3036 150.148 82.7846V82.7846C172.765 88.4916 194.129 93.8786 212.626 91.2736V91.2736V91.2636C212.643 91.2626 212.662 91.2616 212.68 91.2606V91.2606C225.129 90.5206 240.957 84.6496 259.283 77.8526V77.8526C281.598 69.5746 306.893 60.1936 333.867 57.0826V57.0826C360.949 53.9786 387.509 60.6736 413.201 67.1526V67.1526C435.829 72.8586 457.199 78.2456 475.702 75.6406V75.6406L475.701 75.6316C475.718 75.6296 475.737 75.6286 475.755 75.6276V75.6276C488.204 74.8876 504.033 69.0166 522.359 62.2196V62.2196C544.674 53.9416 569.968 44.5606 596.941 41.4496V41.4496C624.017 38.3456 650.573 45.0416 676.252 51.5216V51.5216C695.518 56.3836 713.876 61.0136 730.327 60.6686V60.6686V55.8586V0.431641" fill="white"/>
</mask>
<g mask="url(#mask1_2_334)">
<path fill-rule="evenodd" clip-rule="evenodd" d="M246.51 1.02424C229.188 2.05424 209.721 -2.85976 189.228 -8.03076C163.621 -14.4918 137.14 -21.1748 110.217 -18.0808C83.343 -14.9828 58.1005 -5.61976 35.829 2.64124C17.4422 9.46224 1.55788 15.3532 -11.0139 16.1002C-11.0329 16.1012 -11.0509 16.1022 -11.0698 16.1032L-11.1318 15.0542C-11.1138 15.0532 -11.0938 15.0522 -11.0758 15.0512C1.37413 14.3112 17.2025 8.44024 35.5274 1.64324C57.8439 -6.63476 83.1363 -16.0158 110.109 -19.1258C137.181 -22.2358 163.739 -15.5358 189.418 -9.05576C212.084 -3.33576 233.496 2.06224 252.02 -0.580759L252.15 0.461241C250.298 0.725241 248.416 0.91124 246.51 1.02424" fill="#00B0C7"/>
</g>
<mask id="mask2_2_334" style="mask-type:alpha" maskUnits="userSpaceOnUse" x="0" y="0" width="731" height="92">
<path fill-rule="evenodd" clip-rule="evenodd" d="M0.337157 0.431641V89.0096L0.326172 91.9746C21.629 84.0956 45.4914 75.6356 70.8377 72.7126V72.7126C97.9157 69.6026 124.468 76.3036 150.148 82.7846V82.7846C172.765 88.4916 194.129 93.8786 212.626 91.2736V91.2736V91.2636C212.643 91.2626 212.662 91.2616 212.68 91.2606V91.2606C225.129 90.5206 240.957 84.6496 259.283 77.8526V77.8526C281.598 69.5746 306.893 60.1936 333.867 57.0826V57.0826C360.949 53.9786 387.509 60.6736 413.201 67.1526V67.1526C435.829 72.8586 457.199 78.2456 475.702 75.6406V75.6406L475.701 75.6316C475.718 75.6296 475.737 75.6286 475.755 75.6276V75.6276C488.204 74.8876 504.033 69.0166 522.359 62.2196V62.2196C544.674 53.9416 569.968 44.5606 596.941 41.4496V41.4496C624.017 38.3456 650.573 45.0416 676.252 51.5216V51.5216C695.518 56.3836 713.876 61.0136 730.327 60.6686V60.6686V55.8586V0.431641" fill="white"/>
</mask>
<g mask="url(#mask2_2_334)">
<path fill-rule="evenodd" clip-rule="evenodd" d="M232.244 11.8181C214.925 12.8481 195.456 7.93514 174.963 2.76414C149.356 -3.69786 122.877 -10.3829 95.9514 -7.28786C69.0771 -4.18886 43.8337 5.17414 21.5611 13.4361C3.17428 20.2561 -12.711 26.1471 -25.2818 26.8941C-25.3008 26.8961 -25.3167 26.8971 -25.3357 26.8981L-25.3966 25.8491C-25.3797 25.8481 -25.3617 25.8471 -25.3447 25.8451C-12.8947 25.1061 2.9346 19.2341 21.2595 12.4371C43.576 4.15914 68.8704 -5.22286 95.8435 -8.33286C122.919 -11.4379 149.474 -4.74186 175.154 1.73814C197.82 7.45814 219.229 12.8591 237.752 10.2131L237.882 11.2551C236.03 11.5201 234.149 11.7051 232.244 11.8181" fill="#00B0C7"/>
</g>
<mask id="mask3_2_334" style="mask-type:alpha" maskUnits="userSpaceOnUse" x="0" y="0" width="731" height="92">
<path fill-rule="evenodd" clip-rule="evenodd" d="M0.337157 0.431641V89.0096L0.326172 91.9746C21.629 84.0956 45.4914 75.6356 70.8377 72.7126V72.7126C97.9157 69.6026 124.468 76.3036 150.148 82.7846V82.7846C172.765 88.4916 194.129 93.8786 212.626 91.2736V91.2736V91.2636C212.643 91.2626 212.662 91.2616 212.68 91.2606V91.2606C225.129 90.5206 240.957 84.6496 259.283 77.8526V77.8526C281.598 69.5746 306.893 60.1936 333.867 57.0826V57.0826C360.949 53.9786 387.509 60.6736 413.201 67.1526V67.1526C435.829 72.8586 457.199 78.2456 475.702 75.6406V75.6406L475.701 75.6316C475.718 75.6296 475.737 75.6286 475.755 75.6276V75.6276C488.204 74.8876 504.033 69.0166 522.359 62.2196V62.2196C544.674 53.9416 569.968 44.5606 596.941 41.4496V41.4496C624.017 38.3456 650.573 45.0416 676.252 51.5216V51.5216C695.518 56.3836 713.876 61.0136 730.327 60.6686V60.6686V55.8586V0.431641" fill="white"/>
</mask>
<g mask="url(#mask3_2_334)">
<path fill-rule="evenodd" clip-rule="evenodd" d="M217.979 22.6106C200.659 23.6406 181.192 18.7276 160.698 13.5556C135.091 7.09464 108.614 0.40964 81.6868 3.50464C54.8135 6.60464 29.5711 15.9666 7.29953 24.2276C-11.0883 31.0476 -26.9746 36.9396 -39.5474 37.6866C-39.5654 37.6876 -39.5813 37.6886 -39.6003 37.6896L-39.6612 36.6406C-39.6442 36.6396 -39.6263 36.6386 -39.6093 36.6376C-27.1593 35.8986 -11.329 30.0266 6.99795 23.2296C29.3134 14.9516 54.6068 5.57064 81.5789 2.45864C108.657 -0.65436 135.209 6.05064 160.888 12.5306C183.555 18.2516 204.971 23.6516 223.49 21.0056L223.62 22.0476C221.767 22.3116 219.885 22.4966 217.979 22.6106" fill="#00B0C7"/>
</g>
<mask id="mask4_2_334" style="mask-type:alpha" maskUnits="userSpaceOnUse" x="0" y="0" width="731" height="92">
<path fill-rule="evenodd" clip-rule="evenodd" d="M0.337157 0.431641V89.0096L0.326172 91.9746C21.629 84.0956 45.4914 75.6356 70.8377 72.7126V72.7126C97.9157 69.6026 124.468 76.3036 150.148 82.7846V82.7846C172.765 88.4916 194.129 93.8786 212.626 91.2736V91.2736V91.2636C212.643 91.2626 212.662 91.2616 212.68 91.2606V91.2606C225.129 90.5206 240.957 84.6496 259.283 77.8526V77.8526C281.598 69.5746 306.893 60.1936 333.867 57.0826V57.0826C360.949 53.9786 387.509 60.6736 413.201 67.1526V67.1526C435.829 72.8586 457.199 78.2456 475.702 75.6406V75.6406L475.701 75.6316C475.718 75.6296 475.737 75.6286 475.755 75.6276V75.6276C488.204 74.8876 504.033 69.0166 522.359 62.2196V62.2196C544.674 53.9416 569.968 44.5606 596.941 41.4496V41.4496C624.017 38.3456 650.573 45.0416 676.252 51.5216V51.5216C695.518 56.3836 713.876 61.0136 730.327 60.6686V60.6686V55.8586V0.431641" fill="white"/>
</mask>
<g mask="url(#mask4_2_334)">
<path fill-rule="evenodd" clip-rule="evenodd" d="M203.715 33.4036C186.397 34.4326 166.928 29.5196 146.435 24.3486C120.829 17.8876 94.3557 11.2036 67.4226 14.2976C40.5503 17.3976 15.3089 26.7596 -6.96167 35.0196C-25.3495 41.8406 -41.2358 47.7326 -53.8086 48.4796C-53.8276 48.4806 -53.8465 48.4816 -53.8655 48.4836L-53.9264 47.4346C-53.9084 47.4326 -53.8895 47.4316 -53.8705 47.4306C-41.4205 46.6916 -25.5902 40.8196 -7.26326 34.0216C15.0512 25.7446 40.3436 16.3636 67.3147 13.2526C94.3847 10.1456 120.945 16.8436 146.626 23.3246C169.291 29.0436 190.7 34.4446 209.223 31.7986L209.352 32.8406C207.501 33.1046 205.621 33.2906 203.715 33.4036" fill="#00B0C7"/>
</g>
<mask id="mask5_2_334" style="mask-type:alpha" maskUnits="userSpaceOnUse" x="0" y="0" width="731" height="92">
<path fill-rule="evenodd" clip-rule="evenodd" d="M0.337157 0.431641V89.0096L0.326172 91.9746C21.629 84.0956 45.4914 75.6356 70.8377 72.7126V72.7126C97.9157 69.6026 124.468 76.3036 150.148 82.7846V82.7846C172.765 88.4916 194.129 93.8786 212.626 91.2736V91.2736V91.2636C212.643 91.2626 212.662 91.2616 212.68 91.2606V91.2606C225.129 90.5206 240.957 84.6496 259.283 77.8526V77.8526C281.598 69.5746 306.893 60.1936 333.867 57.0826V57.0826C360.949 53.9786 387.509 60.6736 413.201 67.1526V67.1526C435.829 72.8586 457.199 78.2456 475.702 75.6406V75.6406L475.701 75.6316C475.718 75.6296 475.737 75.6286 475.755 75.6276V75.6276C488.204 74.8876 504.033 69.0166 522.359 62.2196V62.2196C544.674 53.9416 569.968 44.5606 596.941 41.4496V41.4496C624.017 38.3456 650.573 45.0416 676.252 51.5216V51.5216C695.518 56.3836 713.876 61.0136 730.327 60.6686V60.6686V55.8586V0.431641" fill="white"/>
</mask>
<g mask="url(#mask5_2_334)">
<path fill-rule="evenodd" clip-rule="evenodd" d="M219.153 42.4309C201.832 43.4599 182.364 38.5479 161.872 33.3759C136.266 26.9159 109.789 20.2329 82.861 23.3259C55.9887 26.4239 30.7473 35.7869 8.47672 44.0479C-9.91012 50.8679 -25.7954 56.7599 -38.3672 57.5069C-38.3872 57.5079 -38.4061 57.5089 -38.4261 57.5099L-38.487 56.4609C-38.4681 56.4599 -38.4481 56.4589 -38.4291 56.4579C-25.9801 55.7179 -10.1498 49.8469 8.17514 43.0489C30.4906 34.7719 55.782 25.3909 82.7541 22.2799C109.828 19.1749 136.383 25.8709 162.062 32.3509C184.729 38.0719 206.14 43.4699 224.664 40.8259L224.794 41.8669C222.94 42.1329 221.06 42.3179 219.153 42.4309" fill="#00B0C7"/>
</g>
<mask id="mask6_2_334" style="mask-type:alpha" maskUnits="userSpaceOnUse" x="0" y="0" width="731" height="92">
<path fill-rule="evenodd" clip-rule="evenodd" d="M0.337157 0.431641V89.0096L0.326172 91.9746C21.629 84.0956 45.4914 75.6356 70.8377 72.7126V72.7126C97.9157 69.6026 124.468 76.3036 150.148 82.7846V82.7846C172.765 88.4916 194.129 93.8786 212.626 91.2736V91.2736V91.2636C212.643 91.2626 212.662 91.2616 212.68 91.2606V91.2606C225.129 90.5206 240.957 84.6496 259.283 77.8526V77.8526C281.598 69.5746 306.893 60.1936 333.867 57.0826V57.0826C360.949 53.9786 387.509 60.6736 413.201 67.1526V67.1526C435.829 72.8586 457.199 78.2456 475.702 75.6406V75.6406L475.701 75.6316C475.718 75.6296 475.737 75.6286 475.755 75.6276V75.6276C488.204 74.8876 504.033 69.0166 522.359 62.2196V62.2196C544.674 53.9416 569.968 44.5606 596.941 41.4496V41.4496C624.017 38.3456 650.573 45.0416 676.252 51.5216V51.5216C695.518 56.3836 713.876 61.0136 730.327 60.6686V60.6686V55.8586V0.431641" fill="white"/>
</mask>
<g mask="url(#mask6_2_334)">
<path fill-rule="evenodd" clip-rule="evenodd" d="M234.588 51.4573C217.27 52.4873 197.804 47.5743 177.312 42.4023C151.706 35.9403 125.227 29.2543 98.3008 32.3523C71.4296 35.4513 46.1881 44.8133 23.9176 53.0733C5.52975 59.8933 -10.3555 65.7853 -22.9283 66.5323C-22.9483 66.5343 -22.9663 66.5353 -22.9862 66.5363L-23.0482 65.4873C-23.0292 65.4863 -23.0092 65.4843 -22.9902 65.4833C-10.5403 64.7443 5.29008 58.8723 23.616 52.0753C45.9305 43.7983 71.2229 34.4183 98.193 31.3073C125.26 28.2013 151.824 34.8973 177.502 41.3783C200.169 47.0983 221.58 52.4943 240.101 49.8523L240.231 50.8933C238.377 51.1583 236.496 51.3443 234.588 51.4573" fill="#00B0C7"/>
</g>
<mask id="mask7_2_334" style="mask-type:alpha" maskUnits="userSpaceOnUse" x="0" y="0" width="731" height="92">
<path fill-rule="evenodd" clip-rule="evenodd" d="M0.337157 0.431641V89.0096L0.326172 91.9746C21.629 84.0956 45.4914 75.6356 70.8377 72.7126V72.7126C97.9157 69.6026 124.468 76.3036 150.148 82.7846V82.7846C172.765 88.4916 194.129 93.8786 212.626 91.2736V91.2736V91.2636C212.643 91.2626 212.662 91.2616 212.68 91.2606V91.2606C225.129 90.5206 240.957 84.6496 259.283 77.8526V77.8526C281.598 69.5746 306.893 60.1936 333.867 57.0826V57.0826C360.949 53.9786 387.509 60.6736 413.201 67.1526V67.1526C435.829 72.8586 457.199 78.2456 475.702 75.6406V75.6406L475.701 75.6316C475.718 75.6296 475.737 75.6286 475.755 75.6276V75.6276C488.204 74.8876 504.033 69.0166 522.359 62.2196V62.2196C544.674 53.9416 569.968 44.5606 596.941 41.4496V41.4496C624.017 38.3456 650.573 45.0416 676.252 51.5216V51.5216C695.518 56.3836 713.876 61.0136 730.327 60.6686V60.6686V55.8586V0.431641" fill="white"/>
</mask>
<g mask="url(#mask7_2_334)">
<path fill-rule="evenodd" clip-rule="evenodd" d="M250.034 60.4871C232.712 61.5171 213.244 56.6031 192.749 51.4321C167.144 44.9701 140.661 38.2861 113.741 41.3801C86.8659 44.4791 61.6214 53.8421 39.3489 62.1041C20.963 68.9241 5.07877 74.8161 -7.49304 75.5631C-7.51201 75.5641 -7.52799 75.5651 -7.54596 75.5661L-7.60788 74.5171C-7.5899 74.5161 -7.57293 74.5151 -7.55495 74.5141C4.89402 73.7741 20.7234 67.9031 39.0473 61.1061C61.3648 52.8281 86.6582 43.4461 113.633 40.3351C140.71 37.2221 167.262 43.9271 192.94 50.4061C215.608 56.1271 237.016 61.5301 255.544 58.8821L255.674 59.9231C253.821 60.1881 251.94 60.3731 250.034 60.4871" fill="#00B0C7"/>
</g>
<mask id="mask8_2_334" style="mask-type:alpha" maskUnits="userSpaceOnUse" x="0" y="0" width="731" height="92">
<path fill-rule="evenodd" clip-rule="evenodd" d="M0.337157 0.431641V89.0096L0.326172 91.9746C21.629 84.0956 45.4914 75.6356 70.8377 72.7126V72.7126C97.9157 69.6026 124.468 76.3036 150.148 82.7846V82.7846C172.765 88.4916 194.129 93.8786 212.626 91.2736V91.2736V91.2636C212.643 91.2626 212.662 91.2616 212.68 91.2606V91.2606C225.129 90.5206 240.957 84.6496 259.283 77.8526V77.8526C281.598 69.5746 306.893 60.1936 333.867 57.0826V57.0826C360.949 53.9786 387.509 60.6736 413.201 67.1526V67.1526C435.829 72.8586 457.199 78.2456 475.702 75.6406V75.6406L475.701 75.6316C475.718 75.6296 475.737 75.6286 475.755 75.6276V75.6276C488.204 74.8876 504.033 69.0166 522.359 62.2196V62.2196C544.674 53.9416 569.968 44.5606 596.941 41.4496V41.4496C624.017 38.3456 650.573 45.0416 676.252 51.5216V51.5216C695.518 56.3836 713.876 61.0136 730.327 60.6686V60.6686V55.8586V0.431641" fill="white"/>
</mask>
<g mask="url(#mask8_2_334)">
<path fill-rule="evenodd" clip-rule="evenodd" d="M235.768 71.2796C218.448 72.3096 198.98 67.3966 178.487 62.2246C152.88 55.7626 126.4 49.0766 99.4751 52.1726C72.6029 55.2726 47.3614 64.6356 25.0909 72.8956C6.70205 79.7166 -9.18422 85.6086 -21.757 86.3566C-21.775 86.3576 -21.793 86.3586 -21.8119 86.3596L-21.8729 85.3106C-21.8559 85.3096 -21.8369 85.3086 -21.8189 85.3076C-9.36897 84.5676 6.46137 78.6956 24.7893 71.8976C47.1048 63.6206 72.3962 54.2396 99.3673 51.1276C126.439 48.0216 152.998 54.7196 178.678 61.1996C201.344 66.9196 222.752 72.3216 241.276 69.6756L241.406 70.7166C239.554 70.9816 237.673 71.1666 235.768 71.2796" fill="#00B0C7"/>
</g>
<mask id="mask9_2_334" style="mask-type:alpha" maskUnits="userSpaceOnUse" x="0" y="0" width="731" height="92">
<path fill-rule="evenodd" clip-rule="evenodd" d="M0.337157 0.431641V89.0096L0.326172 91.9746C21.629 84.0956 45.4914 75.6356 70.8377 72.7126V72.7126C97.9157 69.6026 124.468 76.3036 150.148 82.7846V82.7846C172.765 88.4916 194.129 93.8786 212.626 91.2736V91.2736V91.2636C212.643 91.2626 212.662 91.2616 212.68 91.2606V91.2606C225.129 90.5206 240.957 84.6496 259.283 77.8526V77.8526C281.598 69.5746 306.893 60.1936 333.867 57.0826V57.0826C360.949 53.9786 387.509 60.6736 413.201 67.1526V67.1526C435.829 72.8586 457.199 78.2456 475.702 75.6406V75.6406L475.701 75.6316C475.718 75.6296 475.737 75.6286 475.755 75.6276V75.6276C488.204 74.8876 504.033 69.0166 522.359 62.2196V62.2196C544.674 53.9416 569.968 44.5606 596.941 41.4496V41.4496C624.017 38.3456 650.573 45.0416 676.252 51.5216V51.5216C695.518 56.3836 713.876 61.0136 730.327 60.6686V60.6686V55.8586V0.431641" fill="white"/>
</mask>
<g mask="url(#mask9_2_334)">
<path fill-rule="evenodd" clip-rule="evenodd" d="M221.503 82.0706C204.184 83.0996 184.716 78.1866 164.223 73.0156C138.616 66.5546 112.14 59.8716 85.2104 62.9656C58.3381 66.0646 33.0967 75.4266 10.8261 83.6876C-7.56073 90.5076 -23.446 96.3986 -36.0178 97.1456C-36.0378 97.1476 -36.0567 97.1486 -36.0767 97.1496L-36.1376 96.1006C-23.6737 95.4196 -7.82836 89.4966 10.5245 82.6886C32.839 74.4126 58.1314 65.0316 85.1035 61.9206C112.17 58.8116 138.733 65.5106 164.413 71.9916C187.08 77.7106 208.495 83.1126 227.013 80.4646L227.143 81.5066C225.291 81.7716 223.408 81.9566 221.503 82.0706" fill="#00B0C7"/>
</g>
<mask id="mask10_2_334" style="mask-type:alpha" maskUnits="userSpaceOnUse" x="0" y="0" width="731" height="92">
<path fill-rule="evenodd" clip-rule="evenodd" d="M0.337157 0.431641V89.0096L0.326172 91.9746C21.629 84.0956 45.4914 75.6356 70.8377 72.7126V72.7126C97.9157 69.6026 124.468 76.3036 150.148 82.7846V82.7846C172.765 88.4916 194.129 93.8786 212.626 91.2736V91.2736V91.2636C212.643 91.2626 212.662 91.2616 212.68 91.2606V91.2606C225.129 90.5206 240.957 84.6496 259.283 77.8526V77.8526C281.598 69.5746 306.893 60.1936 333.867 57.0826V57.0826C360.949 53.9786 387.509 60.6736 413.201 67.1526V67.1526C435.829 72.8586 457.199 78.2456 475.702 75.6406V75.6406L475.701 75.6316C475.718 75.6296 475.737 75.6286 475.755 75.6276V75.6276C488.204 74.8876 504.033 69.0166 522.359 62.2196V62.2196C544.674 53.9416 569.968 44.5606 596.941 41.4496V41.4496C624.017 38.3456 650.573 45.0416 676.252 51.5216V51.5216C695.518 56.3836 713.876 61.0136 730.327 60.6686V60.6686V55.8586V0.431641" fill="white"/>
</mask>
<g mask="url(#mask10_2_334)">
<path fill-rule="evenodd" clip-rule="evenodd" d="M207.236 92.8635C189.917 93.8925 170.45 88.9805 149.958 83.8095C124.351 77.3475 97.8721 70.6675 70.946 73.7575C44.0717 76.8565 18.8283 86.2195 -3.44326 94.4805C-21.8581 101.312 -37.7563 107.259 -50.3421 107.943L-50.403 106.894C-50.385 106.893 -50.3661 106.892 -50.3491 106.891C-37.8991 106.151 -22.0708 100.28 -3.74584 93.4825C18.5706 85.2045 43.865 75.8235 70.8381 72.7125C97.9151 69.6025 124.468 76.3035 150.149 82.7845C172.815 88.5045 194.222 93.9035 212.747 91.2585L212.877 92.2995C211.023 92.5655 209.142 92.7505 207.236 92.8635" fill="#00B0C7"/>
</g>
<mask id="mask11_2_334" style="mask-type:alpha" maskUnits="userSpaceOnUse" x="0" y="0" width="731" height="92">
<path fill-rule="evenodd" clip-rule="evenodd" d="M0.337157 0.431641V89.0096L0.326172 91.9746C21.629 84.0956 45.4914 75.6356 70.8377 72.7126V72.7126C97.9157 69.6026 124.468 76.3036 150.148 82.7846V82.7846C172.765 88.4916 194.129 93.8786 212.626 91.2736V91.2736V91.2636C212.643 91.2626 212.662 91.2616 212.68 91.2606V91.2606C225.129 90.5206 240.957 84.6496 259.283 77.8526V77.8526C281.598 69.5746 306.893 60.1936 333.867 57.0826V57.0826C360.949 53.9786 387.509 60.6736 413.201 67.1526V67.1526C435.829 72.8586 457.199 78.2456 475.702 75.6406V75.6406L475.701 75.6316C475.718 75.6296 475.737 75.6286 475.755 75.6276V75.6276C488.204 74.8876 504.033 69.0166 522.359 62.2196V62.2196C544.674 53.9416 569.968 44.5606 596.941 41.4496V41.4496C624.017 38.3456 650.573 45.0416 676.252 51.5216V51.5216C695.518 56.3836 713.876 61.0136 730.327 60.6686V60.6686V55.8586V0.431641" fill="white"/>
</mask>
<g mask="url(#mask11_2_334)">
<path fill-rule="evenodd" clip-rule="evenodd" d="M222.676 101.89C205.357 102.919 185.889 98.0074 165.397 92.8364C139.789 86.3744 113.305 79.6954 86.3847 82.7864C59.5114 85.8844 34.2689 95.2474 11.9974 103.508C-6.38944 110.328 -22.2737 116.219 -34.8455 116.966C-34.8645 116.967 -34.8835 116.968 -34.9024 116.969L-34.9633 115.92C-34.9454 115.919 -34.9254 115.918 -34.9074 115.917C-22.4585 115.177 -6.62911 109.306 11.6958 102.509C34.0113 94.2324 59.3047 84.8514 86.2778 81.7404C113.347 78.6344 139.907 85.3314 165.586 91.8114C188.253 97.5304 209.663 102.929 228.188 100.285L228.317 101.327C226.464 101.592 224.584 101.777 222.676 101.89" fill="#00B0C7"/>
</g>
<mask id="mask12_2_334" style="mask-type:alpha" maskUnits="userSpaceOnUse" x="0" y="0" width="731" height="92">
<path fill-rule="evenodd" clip-rule="evenodd" d="M0.337157 0.431641V89.0096L0.326172 91.9746C21.629 84.0956 45.4914 75.6356 70.8377 72.7126V72.7126C97.9157 69.6026 124.468 76.3036 150.148 82.7846V82.7846C172.765 88.4916 194.129 93.8786 212.626 91.2736V91.2736V91.2636C212.643 91.2626 212.662 91.2616 212.68 91.2606V91.2606C225.129 90.5206 240.957 84.6496 259.283 77.8526V77.8526C281.598 69.5746 306.893 60.1936 333.867 57.0826V57.0826C360.949 53.9786 387.509 60.6736 413.201 67.1526V67.1526C435.829 72.8586 457.199 78.2456 475.702 75.6406V75.6406L475.701 75.6316C475.718 75.6296 475.737 75.6286 475.755 75.6276V75.6276C488.204 74.8876 504.033 69.0166 522.359 62.2196V62.2196C544.674 53.9416 569.968 44.5606 596.941 41.4496V41.4496C624.017 38.3456 650.573 45.0416 676.252 51.5216V51.5216C695.518 56.3836 713.876 61.0136 730.327 60.6686V60.6686V55.8586V0.431641" fill="white"/>
</mask>
<g mask="url(#mask12_2_334)">
<path fill-rule="evenodd" clip-rule="evenodd" d="M238.119 110.92C220.799 111.95 201.332 107.037 180.838 101.865C155.23 95.4027 128.75 88.7217 101.824 91.8127C74.9498 94.9107 49.7053 104.275 27.4328 112.538C9.04694 119.358 -6.83733 125.25 -19.4091 125.997C-19.4281 125.998 -19.4441 125.999 -19.4631 126L-19.524 124.951C-19.506 124.95 -19.489 124.949 -19.472 124.948C-7.02307 124.208 8.80627 118.337 27.1312 111.539C49.4477 103.261 74.7421 93.8777 101.717 90.7677C128.791 87.6617 155.349 94.3597 181.028 100.84C203.694 106.56 225.104 111.967 243.625 109.315L243.755 110.358C241.904 110.622 240.023 110.807 238.119 110.92" fill="#00B0C7"/>
</g>
<mask id="mask13_2_334" style="mask-type:alpha" maskUnits="userSpaceOnUse" x="0" y="0" width="731" height="92">
<path fill-rule="evenodd" clip-rule="evenodd" d="M0.337157 0.431641V89.0096L0.326172 91.9746C21.629 84.0956 45.4914 75.6356 70.8377 72.7126V72.7126C97.9157 69.6026 124.468 76.3036 150.148 82.7846V82.7846C172.765 88.4916 194.129 93.8786 212.626 91.2736V91.2736V91.2636C212.643 91.2626 212.662 91.2616 212.68 91.2606V91.2606C225.129 90.5206 240.957 84.6496 259.283 77.8526V77.8526C281.598 69.5746 306.893 60.1936 333.867 57.0826V57.0826C360.949 53.9786 387.509 60.6736 413.201 67.1526V67.1526C435.829 72.8586 457.199 78.2456 475.702 75.6406V75.6406L475.701 75.6316C475.718 75.6296 475.737 75.6286 475.755 75.6276V75.6276C488.204 74.8876 504.033 69.0166 522.359 62.2196V62.2196C544.674 53.9416 569.968 44.5606 596.941 41.4496V41.4496C624.017 38.3456 650.573 45.0416 676.252 51.5216V51.5216C695.518 56.3836 713.876 61.0136 730.327 60.6686V60.6686V55.8586V0.431641" fill="white"/>
</mask>
<g mask="url(#mask13_2_334)">
<path fill-rule="evenodd" clip-rule="evenodd" d="M509.586 -14.6086C492.268 -13.5786 472.802 -18.4906 452.311 -23.6596C426.691 -30.1226 400.199 -36.8026 373.245 -33.7116C346.371 -30.6126 321.129 -21.2496 298.857 -12.9886C280.47 -6.16856 264.586 -0.27656 252.014 0.47044C251.995 0.47144 251.977 0.472442 251.958 0.473442L251.896 -0.575558C251.914 -0.576558 251.934 -0.57756 251.952 -0.57856C264.402 -1.31856 280.231 -7.18956 298.556 -13.9866C320.871 -22.2646 346.164 -31.6456 373.138 -34.7556C400.243 -37.8636 426.808 -31.1656 452.501 -24.6846C475.165 -18.9666 496.573 -13.5666 515.096 -16.2136L515.225 -15.1716C513.374 -14.9076 511.49 -14.7216 509.586 -14.6086" fill="#00B0C7"/>
</g>
<mask id="mask14_2_334" style="mask-type:alpha" maskUnits="userSpaceOnUse" x="0" y="0" width="731" height="92">
<path fill-rule="evenodd" clip-rule="evenodd" d="M0.337157 0.431641V89.0096L0.326172 91.9746C21.629 84.0956 45.4914 75.6356 70.8377 72.7126V72.7126C97.9157 69.6026 124.468 76.3036 150.148 82.7846V82.7846C172.765 88.4916 194.129 93.8786 212.626 91.2736V91.2736V91.2636C212.643 91.2626 212.662 91.2616 212.68 91.2606V91.2606C225.129 90.5206 240.957 84.6496 259.283 77.8526V77.8526C281.598 69.5746 306.893 60.1936 333.867 57.0826V57.0826C360.949 53.9786 387.509 60.6736 413.201 67.1526V67.1526C435.829 72.8586 457.199 78.2456 475.702 75.6406V75.6406L475.701 75.6316C475.718 75.6296 475.737 75.6286 475.755 75.6276V75.6276C488.204 74.8876 504.033 69.0166 522.359 62.2196V62.2196C544.674 53.9416 569.968 44.5606 596.941 41.4496V41.4496C624.017 38.3456 650.573 45.0416 676.252 51.5216V51.5216C695.518 56.3836 713.876 61.0136 730.327 60.6686V60.6686V55.8586V0.431641" fill="white"/>
</mask>
<g mask="url(#mask14_2_334)">
<path fill-rule="evenodd" clip-rule="evenodd" d="M495.319 -3.81466C478 -2.78466 458.527 -7.69666 438.03 -12.8667C412.41 -19.3287 385.915 -26.0097 358.979 -22.9187C332.105 -19.8197 306.862 -10.4557 284.59 -2.19466C266.203 4.62534 250.318 10.5173 237.746 11.2643C237.727 11.2663 237.711 11.2673 237.692 11.2683L237.631 10.2193C237.649 10.2183 237.666 10.2163 237.683 10.2153C250.133 9.47634 265.962 3.60434 284.288 -3.19266C306.604 -11.4707 331.898 -20.8527 358.871 -23.9627C385.964 -27.0667 412.528 -20.3717 438.22 -13.8917C460.891 -8.17266 482.302 -2.77366 500.828 -5.41966L500.957 -4.37766C499.106 -4.11266 497.224 -3.92766 495.319 -3.81466" fill="#00B0C7"/>
</g>
<mask id="mask15_2_334" style="mask-type:alpha" maskUnits="userSpaceOnUse" x="0" y="0" width="731" height="92">
<path fill-rule="evenodd" clip-rule="evenodd" d="M0.337157 0.431641V89.0096L0.326172 91.9746C21.629 84.0956 45.4914 75.6356 70.8377 72.7126V72.7126C97.9157 69.6026 124.468 76.3036 150.148 82.7846V82.7846C172.765 88.4916 194.129 93.8786 212.626 91.2736V91.2736V91.2636C212.643 91.2626 212.662 91.2616 212.68 91.2606V91.2606C225.129 90.5206 240.957 84.6496 259.283 77.8526V77.8526C281.598 69.5746 306.893 60.1936 333.867 57.0826V57.0826C360.949 53.9786 387.509 60.6736 413.201 67.1526V67.1526C435.829 72.8586 457.199 78.2456 475.702 75.6406V75.6406L475.701 75.6316C475.718 75.6296 475.737 75.6286 475.755 75.6276V75.6276C488.204 74.8876 504.033 69.0166 522.359 62.2196V62.2196C544.674 53.9416 569.968 44.5606 596.941 41.4496V41.4496C624.017 38.3456 650.573 45.0416 676.252 51.5216V51.5216C695.518 56.3836 713.876 61.0136 730.327 60.6686V60.6686V55.8586V0.431641" fill="white"/>
</mask>
<g mask="url(#mask15_2_334)">
<path fill-rule="evenodd" clip-rule="evenodd" d="M481.054 6.97834C463.732 8.00834 444.254 3.09534 423.751 -2.07566C398.131 -8.53666 371.638 -15.2187 344.715 -12.1257C317.841 -9.02466 292.599 0.336342 270.327 8.59734C251.94 15.4173 236.053 21.3103 223.481 22.0573C223.463 22.0583 223.447 22.0593 223.428 22.0603L223.367 21.0113C223.385 21.0103 223.402 21.0093 223.419 21.0083C235.869 20.2683 251.7 14.3963 270.026 7.59934C292.341 -0.677658 317.635 -10.0587 344.607 -13.1707C371.683 -16.2777 398.249 -9.57966 423.94 -3.10066C446.618 2.61834 468.033 8.01634 486.565 5.37234L486.694 6.41434C484.842 6.67934 482.961 6.86434 481.054 6.97834" fill="#00B0C7"/>
</g>
<mask id="mask16_2_334" style="mask-type:alpha" maskUnits="userSpaceOnUse" x="0" y="0" width="731" height="92">
<path fill-rule="evenodd" clip-rule="evenodd" d="M0.337157 0.431641V89.0096L0.326172 91.9746C21.629 84.0956 45.4914 75.6356 70.8377 72.7126V72.7126C97.9157 69.6026 124.468 76.3036 150.148 82.7846V82.7846C172.765 88.4916 194.129 93.8786 212.626 91.2736V91.2736V91.2636C212.643 91.2626 212.662 91.2616 212.68 91.2606V91.2606C225.129 90.5206 240.957 84.6496 259.283 77.8526V77.8526C281.598 69.5746 306.893 60.1936 333.867 57.0826V57.0826C360.949 53.9786 387.509 60.6736 413.201 67.1526V67.1526C435.829 72.8586 457.199 78.2456 475.702 75.6406V75.6406L475.701 75.6316C475.718 75.6296 475.737 75.6286 475.755 75.6276V75.6276C488.204 74.8876 504.033 69.0166 522.359 62.2196V62.2196C544.674 53.9416 569.968 44.5606 596.941 41.4496V41.4496C624.017 38.3456 650.573 45.0416 676.252 51.5216V51.5216C695.518 56.3836 713.876 61.0136 730.327 60.6686V60.6686V55.8586V0.431641" fill="white"/>
</mask>
<g mask="url(#mask16_2_334)">
<path fill-rule="evenodd" clip-rule="evenodd" d="M466.79 17.7708C449.469 18.8008 429.992 13.8878 409.489 8.71784C383.869 2.25684 357.38 -4.42616 330.45 -1.33316C303.579 1.76784 278.337 11.1298 256.067 19.3898C237.678 26.2108 221.793 32.1028 209.22 32.8498C209.2 32.8508 209.182 32.8518 209.163 32.8538L209.101 31.8038C209.12 31.8028 209.139 31.8018 209.158 31.8008C221.608 31.0608 237.438 25.1888 255.765 18.3918C278.08 10.1148 303.372 0.733841 330.343 -2.37716C357.42 -5.48916 383.987 1.21284 409.679 7.69184C432.356 13.4118 453.774 18.8148 472.299 16.1658L472.428 17.2078C470.576 17.4728 468.695 17.6578 466.79 17.7708" fill="#00B0C7"/>
</g>
<mask id="mask17_2_334" style="mask-type:alpha" maskUnits="userSpaceOnUse" x="0" y="0" width="731" height="92">
<path fill-rule="evenodd" clip-rule="evenodd" d="M0.337157 0.431641V89.0096L0.326172 91.9746C21.629 84.0956 45.4914 75.6356 70.8377 72.7126V72.7126C97.9157 69.6026 124.468 76.3036 150.148 82.7846V82.7846C172.765 88.4916 194.129 93.8786 212.626 91.2736V91.2736V91.2636C212.643 91.2626 212.662 91.2616 212.68 91.2606V91.2606C225.129 90.5206 240.957 84.6496 259.283 77.8526V77.8526C281.598 69.5746 306.893 60.1936 333.867 57.0826V57.0826C360.949 53.9786 387.509 60.6736 413.201 67.1526V67.1526C435.829 72.8586 457.199 78.2456 475.702 75.6406V75.6406L475.701 75.6316C475.718 75.6296 475.737 75.6286 475.755 75.6276V75.6276C488.204 74.8876 504.033 69.0166 522.359 62.2196V62.2196C544.674 53.9416 569.968 44.5606 596.941 41.4496V41.4496C624.017 38.3456 650.573 45.0416 676.252 51.5216V51.5216C695.518 56.3836 713.876 61.0136 730.327 60.6686V60.6686V55.8586V0.431641" fill="white"/>
</mask>
<g mask="url(#mask17_2_334)">
<path fill-rule="evenodd" clip-rule="evenodd" d="M482.228 26.7986C464.905 27.8276 445.427 22.9156 424.925 17.7446C399.306 11.2836 372.82 4.60464 345.889 7.69564C319.017 10.7946 293.776 20.1576 271.505 28.4176C253.118 35.2376 237.233 41.1296 224.661 41.8766C224.641 41.8776 224.622 41.8786 224.602 41.8806L224.541 40.8316C224.56 40.8296 224.579 40.8286 224.598 40.8276C237.048 40.0886 252.878 34.2166 271.203 27.4196C293.518 19.1426 318.81 9.76164 345.781 6.65064C372.857 3.54164 399.423 10.2406 425.115 16.7196C447.794 22.4406 469.209 27.8426 487.74 25.1926L487.869 26.2346C486.016 26.4996 484.134 26.6856 482.228 26.7986" fill="#00B0C7"/>
</g>
<mask id="mask18_2_334" style="mask-type:alpha" maskUnits="userSpaceOnUse" x="0" y="0" width="731" height="92">
<path fill-rule="evenodd" clip-rule="evenodd" d="M0.337157 0.431641V89.0096L0.326172 91.9746C21.629 84.0956 45.4914 75.6356 70.8377 72.7126V72.7126C97.9157 69.6026 124.468 76.3036 150.148 82.7846V82.7846C172.765 88.4916 194.129 93.8786 212.626 91.2736V91.2736V91.2636C212.643 91.2626 212.662 91.2616 212.68 91.2606V91.2606C225.129 90.5206 240.957 84.6496 259.283 77.8526V77.8526C281.598 69.5746 306.893 60.1936 333.867 57.0826V57.0826C360.949 53.9786 387.509 60.6736 413.201 67.1526V67.1526C435.829 72.8586 457.199 78.2456 475.702 75.6406V75.6406L475.701 75.6316C475.718 75.6296 475.737 75.6286 475.755 75.6276V75.6276C488.204 74.8876 504.033 69.0166 522.359 62.2196V62.2196C544.674 53.9416 569.968 44.5606 596.941 41.4496V41.4496C624.017 38.3456 650.573 45.0416 676.252 51.5216V51.5216C695.518 56.3836 713.876 61.0136 730.327 60.6686V60.6686V55.8586V0.431641" fill="white"/>
</mask>
<g mask="url(#mask18_2_334)">
<path fill-rule="evenodd" clip-rule="evenodd" d="M497.664 35.8245C480.346 36.8545 460.874 31.9425 440.378 26.7725C414.759 20.3105 388.27 13.6295 361.329 16.7225C334.457 19.8215 309.216 29.1835 286.945 37.4435C268.559 44.2635 252.672 50.1555 240.099 50.9025C240.079 50.9035 240.062 50.9055 240.042 50.9065L239.98 49.8575C240 49.8565 240.019 49.8545 240.038 49.8535C252.488 49.1145 268.318 43.2425 286.644 36.4455C308.958 28.1685 334.25 18.7885 361.221 15.6775C388.313 12.5635 414.876 19.2675 440.568 25.7475C463.241 31.4655 484.658 36.8625 503.177 34.2195L503.306 35.2605C501.453 35.5265 499.571 35.7115 497.664 35.8245" fill="#00B0C7"/>
</g>
<mask id="mask19_2_334" style="mask-type:alpha" maskUnits="userSpaceOnUse" x="0" y="0" width="731" height="92">
<path fill-rule="evenodd" clip-rule="evenodd" d="M0.337157 0.431641V89.0096L0.326172 91.9746C21.629 84.0956 45.4914 75.6356 70.8377 72.7126V72.7126C97.9157 69.6026 124.468 76.3036 150.148 82.7846V82.7846C172.765 88.4916 194.129 93.8786 212.626 91.2736V91.2736V91.2636C212.643 91.2626 212.662 91.2616 212.68 91.2606V91.2606C225.129 90.5206 240.957 84.6496 259.283 77.8526V77.8526C281.598 69.5746 306.893 60.1936 333.867 57.0826V57.0826C360.949 53.9786 387.509 60.6736 413.201 67.1526V67.1526C435.829 72.8586 457.199 78.2456 475.702 75.6406V75.6406L475.701 75.6316C475.718 75.6296 475.737 75.6286 475.755 75.6276V75.6276C488.204 74.8876 504.033 69.0166 522.359 62.2196V62.2196C544.674 53.9416 569.968 44.5606 596.941 41.4496V41.4496C624.017 38.3456 650.573 45.0416 676.252 51.5216V51.5216C695.518 56.3836 713.876 61.0136 730.327 60.6686V60.6686V55.8586V0.431641" fill="white"/>
</mask>
<g mask="url(#mask19_2_334)">
<path fill-rule="evenodd" clip-rule="evenodd" d="M513.11 44.8538C495.79 45.8838 476.325 40.9728 455.832 35.8028C430.213 29.3398 403.717 22.6578 376.769 25.7498C349.894 28.8488 324.65 38.2128 302.377 46.4748C283.991 53.2938 268.107 59.1858 255.535 59.9328C255.516 59.9338 255.5 59.9348 255.481 59.9368L255.42 58.8878C255.438 58.8858 255.455 58.8848 255.473 58.8838C267.921 58.1448 283.751 52.2728 302.075 45.4768C324.393 37.1978 349.687 27.8158 376.661 24.7058C403.762 21.5948 430.331 28.2968 456.023 34.7778C478.688 40.4958 500.095 45.8958 518.62 43.2488L518.749 44.2908C516.898 44.5548 515.014 44.7408 513.11 44.8538" fill="#00B0C7"/>
</g>
<mask id="mask20_2_334" style="mask-type:alpha" maskUnits="userSpaceOnUse" x="0" y="0" width="731" height="92">
<path fill-rule="evenodd" clip-rule="evenodd" d="M0.337157 0.431641V89.0096L0.326172 91.9746C21.629 84.0956 45.4914 75.6356 70.8377 72.7126V72.7126C97.9157 69.6026 124.468 76.3036 150.148 82.7846V82.7846C172.765 88.4916 194.129 93.8786 212.626 91.2736V91.2736V91.2636C212.643 91.2626 212.662 91.2616 212.68 91.2606V91.2606C225.129 90.5206 240.957 84.6496 259.283 77.8526V77.8526C281.598 69.5746 306.893 60.1936 333.867 57.0826V57.0826C360.949 53.9786 387.509 60.6736 413.201 67.1526V67.1526C435.829 72.8586 457.199 78.2456 475.702 75.6406V75.6406L475.701 75.6316C475.718 75.6296 475.737 75.6286 475.755 75.6276V75.6276C488.204 74.8876 504.033 69.0166 522.359 62.2196V62.2196C544.674 53.9416 569.968 44.5606 596.941 41.4496V41.4496C624.017 38.3456 650.573 45.0416 676.252 51.5216V51.5216C695.518 56.3836 713.876 61.0136 730.327 60.6686V60.6686V55.8586V0.431641" fill="white"/>
</mask>
<g mask="url(#mask20_2_334)">
<path fill-rule="evenodd" clip-rule="evenodd" d="M498.843 55.6467C481.524 56.6767 462.051 51.7647 441.554 46.5947C415.934 40.1317 389.438 33.4497 362.503 36.5427C335.632 39.6427 310.389 49.0057 288.119 57.2657C269.73 64.0867 253.845 69.9787 241.272 70.7257C241.253 70.7277 241.235 70.7287 241.216 70.7297L241.155 69.6807C241.173 69.6797 241.192 69.6787 241.209 69.6767C253.66 68.9377 269.489 63.0657 287.817 56.2677C310.133 47.9907 335.424 38.6097 362.395 35.4977C389.484 32.3897 416.052 39.0887 441.744 45.5697C464.415 51.2887 485.825 56.6887 504.352 54.0427L504.481 55.0837C502.629 55.3487 500.749 55.5337 498.843 55.6467" fill="#00B0C7"/>
</g>
<mask id="mask21_2_334" style="mask-type:alpha" maskUnits="userSpaceOnUse" x="0" y="0" width="731" height="92">
<path fill-rule="evenodd" clip-rule="evenodd" d="M0.337157 0.431641V89.0096L0.326172 91.9746C21.629 84.0956 45.4914 75.6356 70.8377 72.7126V72.7126C97.9157 69.6026 124.468 76.3036 150.148 82.7846V82.7846C172.765 88.4916 194.129 93.8786 212.626 91.2736V91.2736V91.2636C212.643 91.2626 212.662 91.2616 212.68 91.2606V91.2606C225.129 90.5206 240.957 84.6496 259.283 77.8526V77.8526C281.598 69.5746 306.893 60.1936 333.867 57.0826V57.0826C360.949 53.9786 387.509 60.6736 413.201 67.1526V67.1526C435.829 72.8586 457.199 78.2456 475.702 75.6406V75.6406L475.701 75.6316C475.718 75.6296 475.737 75.6286 475.755 75.6276V75.6276C488.204 74.8876 504.033 69.0166 522.359 62.2196V62.2196C544.674 53.9416 569.968 44.5606 596.941 41.4496V41.4496C624.017 38.3456 650.573 45.0416 676.252 51.5216V51.5216C695.518 56.3836 713.876 61.0136 730.327 60.6686V60.6686V55.8586V0.431641" fill="white"/>
</mask>
<g mask="url(#mask21_2_334)">
<path fill-rule="evenodd" clip-rule="evenodd" d="M484.578 66.4378C467.257 67.4678 447.779 62.5548 427.275 57.3848C401.656 50.9238 375.168 44.2438 348.238 47.3358C321.366 50.4348 296.125 59.7968 273.854 68.0578C255.467 74.8768 239.582 80.7688 227.01 81.5158C226.99 81.5178 226.971 81.5188 226.951 81.5198L226.89 80.4708C239.356 79.7898 255.2 73.8668 273.553 67.0588C295.867 58.7828 321.159 49.4018 348.13 46.2908C375.201 43.1848 401.774 49.8798 427.466 56.3588C450.143 62.0778 471.561 67.4778 490.088 64.8328L490.218 65.8738C488.366 66.1388 486.483 66.3238 484.578 66.4378" fill="#00B0C7"/>
</g>
<mask id="mask22_2_334" style="mask-type:alpha" maskUnits="userSpaceOnUse" x="0" y="0" width="731" height="92">
<path fill-rule="evenodd" clip-rule="evenodd" d="M0.337157 0.431641V89.0096L0.326172 91.9746C21.629 84.0956 45.4914 75.6356 70.8377 72.7126V72.7126C97.9157 69.6026 124.468 76.3036 150.148 82.7846V82.7846C172.765 88.4916 194.129 93.8786 212.626 91.2736V91.2736V91.2636C212.643 91.2626 212.662 91.2616 212.68 91.2606V91.2606C225.129 90.5206 240.957 84.6496 259.283 77.8526V77.8526C281.598 69.5746 306.893 60.1936 333.867 57.0826V57.0826C360.949 53.9786 387.509 60.6736 413.201 67.1526V67.1526C435.829 72.8586 457.199 78.2456 475.702 75.6406V75.6406L475.701 75.6316C475.718 75.6296 475.737 75.6286 475.755 75.6276V75.6276C488.204 74.8876 504.033 69.0166 522.359 62.2196V62.2196C544.674 53.9416 569.968 44.5606 596.941 41.4496V41.4496C624.017 38.3456 650.573 45.0416 676.252 51.5216V51.5216C695.518 56.3836 713.876 61.0136 730.327 60.6686V60.6686V55.8586V0.431641" fill="white"/>
</mask>
<g mask="url(#mask22_2_334)">
<path fill-rule="evenodd" clip-rule="evenodd" d="M470.31 77.2307C452.991 78.2597 433.514 73.3477 413.011 68.1777C387.392 61.7167 360.897 55.0367 333.974 58.1277C307.1 61.2267 281.856 70.5897 259.585 78.8507C241.197 85.6707 225.314 91.5627 212.742 92.3097C212.723 92.3107 212.705 92.3117 212.686 92.3127L212.625 91.2637C212.643 91.2627 212.662 91.2617 212.68 91.2607C225.129 90.5207 240.957 84.6497 259.283 77.8527C281.599 69.5747 306.893 60.1937 333.866 57.0827C360.948 53.9797 387.51 60.6737 413.202 67.1527C435.879 72.8717 457.292 78.2717 475.822 75.6257L475.952 76.6677C474.098 76.9327 472.218 77.1177 470.31 77.2307" fill="#00B0C7"/>
</g>
<mask id="mask23_2_334" style="mask-type:alpha" maskUnits="userSpaceOnUse" x="0" y="0" width="731" height="92">
<path fill-rule="evenodd" clip-rule="evenodd" d="M0.337157 0.431641V89.0096L0.326172 91.9746C21.629 84.0956 45.4914 75.6356 70.8377 72.7126V72.7126C97.9157 69.6026 124.468 76.3036 150.148 82.7846V82.7846C172.765 88.4916 194.129 93.8786 212.626 91.2736V91.2736V91.2636C212.643 91.2626 212.662 91.2616 212.68 91.2606V91.2606C225.129 90.5206 240.957 84.6496 259.283 77.8526V77.8526C281.598 69.5746 306.893 60.1936 333.867 57.0826V57.0826C360.949 53.9786 387.509 60.6736 413.201 67.1526V67.1526C435.829 72.8586 457.199 78.2456 475.702 75.6406V75.6406L475.701 75.6316C475.718 75.6296 475.737 75.6286 475.755 75.6276V75.6276C488.204 74.8876 504.033 69.0166 522.359 62.2196V62.2196C544.674 53.9416 569.968 44.5606 596.941 41.4496V41.4496C624.017 38.3456 650.573 45.0416 676.252 51.5216V51.5216C695.518 56.3836 713.876 61.0136 730.327 60.6686V60.6686V55.8586V0.431641" fill="white"/>
</mask>
<g mask="url(#mask23_2_334)">
<path fill-rule="evenodd" clip-rule="evenodd" d="M485.751 86.2581C468.429 87.2871 448.952 82.3751 428.449 77.2051C402.831 70.7441 376.341 64.0641 349.413 67.1561C322.54 70.2541 297.296 79.6171 275.026 87.8781C256.639 94.6971 240.755 100.589 228.183 101.336C228.164 101.337 228.145 101.339 228.126 101.34L228.065 100.291C228.083 100.29 228.102 100.288 228.121 100.287C240.57 99.5481 256.399 93.6761 274.724 86.8801C297.04 78.6021 322.332 69.2211 349.305 66.1111C376.376 63.0061 402.948 69.7001 428.64 76.1791C451.318 81.9001 472.732 87.3001 491.263 84.6521L491.393 85.6941C489.539 85.9591 487.658 86.1451 485.751 86.2581" fill="#00B0C7"/>
</g>
<mask id="mask24_2_334" style="mask-type:alpha" maskUnits="userSpaceOnUse" x="0" y="0" width="731" height="92">
<path fill-rule="evenodd" clip-rule="evenodd" d="M0.337157 0.431641V89.0096L0.326172 91.9746C21.629 84.0956 45.4914 75.6356 70.8377 72.7126V72.7126C97.9157 69.6026 124.468 76.3036 150.148 82.7846V82.7846C172.765 88.4916 194.129 93.8786 212.626 91.2736V91.2736V91.2636C212.643 91.2626 212.662 91.2616 212.68 91.2606V91.2606C225.129 90.5206 240.957 84.6496 259.283 77.8526V77.8526C281.598 69.5746 306.893 60.1936 333.867 57.0826V57.0826C360.949 53.9786 387.509 60.6736 413.201 67.1526V67.1526C435.829 72.8586 457.199 78.2456 475.702 75.6406V75.6406L475.701 75.6316C475.718 75.6296 475.737 75.6286 475.755 75.6276V75.6276C488.204 74.8876 504.033 69.0166 522.359 62.2196V62.2196C544.674 53.9416 569.968 44.5606 596.941 41.4496V41.4496C624.017 38.3456 650.573 45.0416 676.252 51.5216V51.5216C695.518 56.3836 713.876 61.0136 730.327 60.6686V60.6686V55.8586V0.431641" fill="white"/>
</mask>
<g mask="url(#mask24_2_334)">
<path fill-rule="evenodd" clip-rule="evenodd" d="M501.194 95.2869C483.874 96.3169 464.403 91.4049 443.904 86.2349C418.284 79.7729 391.79 73.0889 364.852 76.1829C337.978 79.2809 312.733 88.6449 290.461 96.9079C272.075 103.727 256.191 109.62 243.619 110.367C243.6 110.368 243.584 110.369 243.565 110.37L243.504 109.321C243.522 109.32 243.539 109.319 243.557 109.318C256.006 108.578 271.835 102.707 290.159 95.9089C312.477 87.6309 337.771 78.2479 364.744 75.1379C391.833 72.0309 418.402 78.7289 444.094 85.2099C466.765 90.9279 488.172 96.3309 506.701 93.6819L506.83 94.7249C504.979 94.9889 503.098 95.1739 501.194 95.2869" fill="#00B0C7"/>
</g>
<mask id="mask25_2_334" style="mask-type:alpha" maskUnits="userSpaceOnUse" x="0" y="0" width="731" height="92">
<path fill-rule="evenodd" clip-rule="evenodd" d="M0.337157 0.431641V89.0096L0.326172 91.9746C21.629 84.0956 45.4914 75.6356 70.8377 72.7126V72.7126C97.9157 69.6026 124.468 76.3036 150.148 82.7846V82.7846C172.765 88.4916 194.129 93.8786 212.626 91.2736V91.2736V91.2636C212.643 91.2626 212.662 91.2616 212.68 91.2606V91.2606C225.129 90.5206 240.957 84.6496 259.283 77.8526V77.8526C281.598 69.5746 306.893 60.1936 333.867 57.0826V57.0826C360.949 53.9786 387.509 60.6736 413.201 67.1526V67.1526C435.829 72.8586 457.199 78.2456 475.702 75.6406V75.6406L475.701 75.6316C475.718 75.6296 475.737 75.6286 475.755 75.6276V75.6276C488.204 74.8876 504.033 69.0166 522.359 62.2196V62.2196C544.674 53.9416 569.968 44.5606 596.941 41.4496V41.4496C624.017 38.3456 650.573 45.0416 676.252 51.5216V51.5216C695.518 56.3836 713.876 61.0136 730.327 60.6686V60.6686V55.8586V0.431641" fill="white"/>
</mask>
<g mask="url(#mask25_2_334)">
<path fill-rule="evenodd" clip-rule="evenodd" d="M744.083 -8.65156C726.763 -7.62256 707.294 -12.5356 686.801 -17.7076C661.195 -24.1686 634.72 -30.8576 607.79 -27.7586C580.916 -24.6576 555.674 -15.2966 533.403 -7.03556C515.015 -0.214562 499.128 5.67744 486.556 6.42444C486.537 6.42544 486.521 6.42644 486.504 6.42744L486.442 5.37844L486.494 5.37544C498.944 4.63544 514.774 -1.23656 533.101 -8.03356C555.416 -16.3106 580.71 -25.6916 607.682 -28.8036C634.755 -31.9076 661.311 -25.2116 686.991 -18.7316C709.658 -13.0116 731.07 -7.60956 749.594 -10.2576L749.722 -9.21556C747.87 -8.95056 745.989 -8.76556 744.083 -8.65156" fill="#00B0C7"/>
</g>
<mask id="mask26_2_334" style="mask-type:alpha" maskUnits="userSpaceOnUse" x="0" y="0" width="731" height="92">
<path fill-rule="evenodd" clip-rule="evenodd" d="M0.337157 0.431641V89.0096L0.326172 91.9746C21.629 84.0956 45.4914 75.6356 70.8377 72.7126V72.7126C97.9157 69.6026 124.468 76.3036 150.148 82.7846V82.7846C172.765 88.4916 194.129 93.8786 212.626 91.2736V91.2736V91.2636C212.643 91.2626 212.662 91.2616 212.68 91.2606V91.2606C225.129 90.5206 240.957 84.6496 259.283 77.8526V77.8526C281.598 69.5746 306.893 60.1936 333.867 57.0826V57.0826C360.949 53.9786 387.509 60.6736 413.201 67.1526V67.1526C435.829 72.8586 457.199 78.2456 475.702 75.6406V75.6406L475.701 75.6316C475.718 75.6296 475.737 75.6286 475.755 75.6276V75.6276C488.204 74.8876 504.033 69.0166 522.359 62.2196V62.2196C544.674 53.9416 569.968 44.5606 596.941 41.4496V41.4496C624.017 38.3456 650.573 45.0416 676.252 51.5216V51.5216C695.518 56.3836 713.876 61.0136 730.327 60.6686V60.6686V55.8586V0.431641" fill="white"/>
</mask>
<g mask="url(#mask26_2_334)">
<path fill-rule="evenodd" clip-rule="evenodd" d="M729.819 2.14094C712.5 3.16994 693.032 -1.74306 672.539 -6.91306C646.931 -13.3761 620.447 -20.0561 593.525 -16.9651C566.654 -13.8651 541.412 -4.50306 519.143 3.75794C500.753 10.5779 484.868 16.4699 472.295 17.2169C472.276 17.2179 472.258 17.2189 472.238 17.2209L472.177 16.1719C472.195 16.1699 472.214 16.1689 472.233 16.1679C484.683 15.4289 500.513 9.55694 518.84 2.75994C541.155 -5.51706 566.447 -14.8991 593.417 -18.0101C620.493 -21.1161 647.05 -14.4191 672.729 -7.93806C695.396 -2.21806 716.804 3.18594 735.327 0.53594L735.456 1.57794C733.604 1.84294 731.724 2.02794 729.819 2.14094" fill="#00B0C7"/>
</g>
<mask id="mask27_2_334" style="mask-type:alpha" maskUnits="userSpaceOnUse" x="0" y="0" width="731" height="92">
<path fill-rule="evenodd" clip-rule="evenodd" d="M0.337157 0.431641V89.0096L0.326172 91.9746C21.629 84.0956 45.4914 75.6356 70.8377 72.7126V72.7126C97.9157 69.6026 124.468 76.3036 150.148 82.7846V82.7846C172.765 88.4916 194.129 93.8786 212.626 91.2736V91.2736V91.2636C212.643 91.2626 212.662 91.2616 212.68 91.2606V91.2606C225.129 90.5206 240.957 84.6496 259.283 77.8526V77.8526C281.598 69.5746 306.893 60.1936 333.867 57.0826V57.0826C360.949 53.9786 387.509 60.6736 413.201 67.1526V67.1526C435.829 72.8586 457.199 78.2456 475.702 75.6406V75.6406L475.701 75.6316C475.718 75.6296 475.737 75.6286 475.755 75.6276V75.6276C488.204 74.8876 504.033 69.0166 522.359 62.2196V62.2196C544.674 53.9416 569.968 44.5606 596.941 41.4496V41.4496C624.017 38.3456 650.573 45.0416 676.252 51.5216V51.5216C695.518 56.3836 713.876 61.0136 730.327 60.6686V60.6686V55.8586V0.431641" fill="white"/>
</mask>
<g mask="url(#mask27_2_334)">
<path fill-rule="evenodd" clip-rule="evenodd" d="M745.256 11.1687C727.937 12.1977 708.468 7.28474 687.975 2.11374C662.368 -4.34726 635.889 -11.0333 608.963 -7.93726C582.093 -4.83826 556.851 4.52374 534.58 12.7847C516.193 19.6047 500.309 25.4967 487.735 26.2437C487.715 26.2447 487.696 26.2467 487.676 26.2477L487.616 25.1987C487.635 25.1977 487.654 25.1957 487.673 25.1947C500.123 24.4557 515.954 18.5847 534.279 11.7867C556.594 3.50974 581.885 -5.87126 608.857 -8.98226C635.93 -12.0883 662.486 -5.39126 688.165 1.08874C710.834 6.80874 732.239 12.2057 750.767 9.56274L750.897 10.6047C749.044 10.8697 747.162 11.0557 745.256 11.1687" fill="#00B0C7"/>
</g>
<mask id="mask28_2_334" style="mask-type:alpha" maskUnits="userSpaceOnUse" x="0" y="0" width="731" height="92">
<path fill-rule="evenodd" clip-rule="evenodd" d="M0.337157 0.431641V89.0096L0.326172 91.9746C21.629 84.0956 45.4914 75.6356 70.8377 72.7126V72.7126C97.9157 69.6026 124.468 76.3036 150.148 82.7846V82.7846C172.765 88.4916 194.129 93.8786 212.626 91.2736V91.2736V91.2636C212.643 91.2626 212.662 91.2616 212.68 91.2606V91.2606C225.129 90.5206 240.957 84.6496 259.283 77.8526V77.8526C281.598 69.5746 306.893 60.1936 333.867 57.0826V57.0826C360.949 53.9786 387.509 60.6736 413.201 67.1526V67.1526C435.829 72.8586 457.199 78.2456 475.702 75.6406V75.6406L475.701 75.6316C475.718 75.6296 475.737 75.6286 475.755 75.6276V75.6276C488.204 74.8876 504.033 69.0166 522.359 62.2196V62.2196C544.674 53.9416 569.968 44.5606 596.941 41.4496V41.4496C624.017 38.3456 650.573 45.0416 676.252 51.5216V51.5216C695.518 56.3836 713.876 61.0136 730.327 60.6686V60.6686V55.8586V0.431641" fill="white"/>
</mask>
<g mask="url(#mask28_2_334)">
<path fill-rule="evenodd" clip-rule="evenodd" d="M760.692 20.1946C743.374 21.2246 723.908 16.3116 703.415 11.1396C677.809 4.67864 651.333 -2.00536 624.403 1.08964C597.532 4.18864 572.29 13.5506 550.02 21.8106C531.632 28.6316 515.747 34.5226 503.175 35.2696C503.155 35.2716 503.136 35.2726 503.116 35.2736L503.056 34.2246C503.075 34.2236 503.094 34.2226 503.113 34.2206C515.562 33.4816 531.392 27.6106 549.718 20.8126C572.032 12.5366 597.324 3.15564 624.296 0.0446398C651.368 -3.06136 677.926 3.63464 703.605 10.1156C726.272 15.8356 747.687 21.2326 766.205 18.5896L766.334 19.6306C764.481 19.8956 762.599 20.0816 760.692 20.1946" fill="#00B0C7"/>
</g>
<mask id="mask29_2_334" style="mask-type:alpha" maskUnits="userSpaceOnUse" x="0" y="0" width="731" height="92">
<path fill-rule="evenodd" clip-rule="evenodd" d="M0.337157 0.431641V89.0096L0.326172 91.9746C21.629 84.0956 45.4914 75.6356 70.8377 72.7126V72.7126C97.9157 69.6026 124.468 76.3036 150.148 82.7846V82.7846C172.765 88.4916 194.129 93.8786 212.626 91.2736V91.2736V91.2636C212.643 91.2626 212.662 91.2616 212.68 91.2606V91.2606C225.129 90.5206 240.957 84.6496 259.283 77.8526V77.8526C281.598 69.5746 306.893 60.1936 333.867 57.0826V57.0826C360.949 53.9786 387.509 60.6736 413.201 67.1526V67.1526C435.829 72.8586 457.199 78.2456 475.702 75.6406V75.6406L475.701 75.6316C475.718 75.6296 475.737 75.6286 475.755 75.6276V75.6276C488.204 74.8876 504.033 69.0166 522.359 62.2196V62.2196C544.674 53.9416 569.968 44.5606 596.941 41.4496V41.4496C624.017 38.3456 650.573 45.0416 676.252 51.5216V51.5216C695.518 56.3836 713.876 61.0136 730.327 60.6686V60.6686V55.8586V0.431641" fill="white"/>
</mask>
<g mask="url(#mask29_2_334)">
<path fill-rule="evenodd" clip-rule="evenodd" d="M776.137 29.2244C758.815 30.2544 739.347 25.3404 718.852 20.1694C693.248 13.7074 666.781 7.02844 639.844 10.1174C612.968 13.2164 587.724 22.5794 565.451 30.8414C547.065 37.6614 531.18 43.5534 518.608 44.3004C518.59 44.3014 518.574 44.3024 518.555 44.3034L518.495 43.2544C518.512 43.2534 518.53 43.2524 518.546 43.2514C530.995 42.5124 546.825 36.6404 565.15 29.8434C587.466 21.5654 612.762 12.1834 639.737 9.07244C666.812 5.96944 693.365 12.6644 719.043 19.1434C741.711 24.8634 763.116 30.2644 781.648 27.6194L781.777 28.6604C779.925 28.9254 778.043 29.1104 776.137 29.2244" fill="#00B0C7"/>
</g>
<mask id="mask30_2_334" style="mask-type:alpha" maskUnits="userSpaceOnUse" x="0" y="0" width="731" height="92">
<path fill-rule="evenodd" clip-rule="evenodd" d="M0.337157 0.431641V89.0096L0.326172 91.9746C21.629 84.0956 45.4914 75.6356 70.8377 72.7126V72.7126C97.9157 69.6026 124.468 76.3036 150.148 82.7846V82.7846C172.765 88.4916 194.129 93.8786 212.626 91.2736V91.2736V91.2636C212.643 91.2626 212.662 91.2616 212.68 91.2606V91.2606C225.129 90.5206 240.957 84.6496 259.283 77.8526V77.8526C281.598 69.5746 306.893 60.1936 333.867 57.0826V57.0826C360.949 53.9786 387.509 60.6736 413.201 67.1526V67.1526C435.829 72.8586 457.199 78.2456 475.702 75.6406V75.6406L475.701 75.6316C475.718 75.6296 475.737 75.6286 475.755 75.6276V75.6276C488.204 74.8876 504.033 69.0166 522.359 62.2196V62.2196C544.674 53.9416 569.968 44.5606 596.941 41.4496V41.4496C624.017 38.3456 650.573 45.0416 676.252 51.5216V51.5216C695.518 56.3836 713.876 61.0136 730.327 60.6686V60.6686V55.8586V0.431641" fill="white"/>
</mask>
<g mask="url(#mask30_2_334)">
<path fill-rule="evenodd" clip-rule="evenodd" d="M761.872 40.0169C744.552 41.0469 725.084 36.1339 704.591 30.9619C678.984 24.4999 652.507 17.8109 625.578 20.9099C598.706 24.0099 573.464 33.3729 551.193 41.6329C532.804 48.4549 516.919 54.3469 504.346 55.0939C504.328 55.0949 504.31 55.0959 504.291 55.0969L504.23 54.0479C504.247 54.0469 504.266 54.0459 504.284 54.0449C516.734 53.3049 532.563 47.4329 550.891 40.6349C573.207 32.3579 598.499 22.9769 625.47 19.8649C652.547 16.7599 679.102 23.4569 704.781 29.9369C727.447 35.6569 748.856 41.0589 767.38 38.4129L767.509 39.4539C765.656 39.7189 763.777 39.9039 761.872 40.0169" fill="#00B0C7"/>
</g>
<mask id="mask31_2_334" style="mask-type:alpha" maskUnits="userSpaceOnUse" x="0" y="0" width="731" height="92">
<path fill-rule="evenodd" clip-rule="evenodd" d="M0.337157 0.431641V89.0096L0.326172 91.9746C21.629 84.0956 45.4914 75.6356 70.8377 72.7126V72.7126C97.9157 69.6026 124.468 76.3036 150.148 82.7846V82.7846C172.765 88.4916 194.129 93.8786 212.626 91.2736V91.2736V91.2636C212.643 91.2626 212.662 91.2616 212.68 91.2606V91.2606C225.129 90.5206 240.957 84.6496 259.283 77.8526V77.8526C281.598 69.5746 306.893 60.1936 333.867 57.0826V57.0826C360.949 53.9786 387.509 60.6736 413.201 67.1526V67.1526C435.829 72.8586 457.199 78.2456 475.702 75.6406V75.6406L475.701 75.6316C475.718 75.6296 475.737 75.6286 475.755 75.6276V75.6276C488.204 74.8876 504.033 69.0166 522.359 62.2196V62.2196C544.674 53.9416 569.968 44.5606 596.941 41.4496V41.4496C624.017 38.3456 650.573 45.0416 676.252 51.5216V51.5216C695.518 56.3836 713.876 61.0136 730.327 60.6686V60.6686V55.8586V0.431641" fill="white"/>
</mask>
<g mask="url(#mask31_2_334)">
<path fill-rule="evenodd" clip-rule="evenodd" d="M747.607 50.8079C730.287 51.8369 710.82 46.9239 690.326 41.7529C664.719 35.2909 638.233 28.6119 611.313 31.7029C584.442 34.8019 559.201 44.1639 536.93 52.4239C518.542 59.2449 502.658 65.1359 490.085 65.8829C490.065 65.8849 490.046 65.8859 490.026 65.8869L489.965 64.8379C489.984 64.8369 490.003 64.8359 490.022 64.8339C502.472 64.0949 518.303 58.2239 536.627 51.4259C558.943 43.1499 584.234 33.7689 611.205 30.6579C638.277 27.5529 664.837 34.2489 690.516 40.7289C713.184 46.4479 734.594 51.8509 753.117 49.2029L753.246 50.2439C751.394 50.5089 749.512 50.6939 747.607 50.8079" fill="#00B0C7"/>
</g>
<mask id="mask32_2_334" style="mask-type:alpha" maskUnits="userSpaceOnUse" x="0" y="0" width="731" height="92">
<path fill-rule="evenodd" clip-rule="evenodd" d="M0.337157 0.431641V89.0096L0.326172 91.9746C21.629 84.0956 45.4914 75.6356 70.8377 72.7126V72.7126C97.9157 69.6026 124.468 76.3036 150.148 82.7846V82.7846C172.765 88.4916 194.129 93.8786 212.626 91.2736V91.2736V91.2636C212.643 91.2626 212.662 91.2616 212.68 91.2606V91.2606C225.129 90.5206 240.957 84.6496 259.283 77.8526V77.8526C281.598 69.5746 306.893 60.1936 333.867 57.0826V57.0826C360.949 53.9786 387.509 60.6736 413.201 67.1526V67.1526C435.829 72.8586 457.199 78.2456 475.702 75.6406V75.6406L475.701 75.6316C475.718 75.6296 475.737 75.6286 475.755 75.6276V75.6276C488.204 74.8876 504.033 69.0166 522.359 62.2196V62.2196C544.674 53.9416 569.968 44.5606 596.941 41.4496V41.4496C624.017 38.3456 650.573 45.0416 676.252 51.5216V51.5216C695.518 56.3836 713.876 61.0136 730.327 60.6686V60.6686V55.8586V0.431641" fill="white"/>
</mask>
<g mask="url(#mask32_2_334)">
<path fill-rule="evenodd" clip-rule="evenodd" d="M733.339 61.6008C716.021 62.6298 696.554 57.7178 676.062 52.5468C650.453 46.0838 623.969 39.3988 597.048 42.4958C570.175 45.5938 544.932 54.9568 522.66 63.2178C504.272 70.0388 488.389 75.9298 475.816 76.6768C475.798 76.6778 475.78 76.6788 475.761 76.6798L475.701 75.6308C475.718 75.6298 475.737 75.6288 475.754 75.6278C488.204 74.8878 504.032 69.0168 522.358 62.2198C544.675 53.9418 569.968 44.5608 596.941 41.4498C624.016 38.3458 650.573 45.0418 676.252 51.5218C698.918 57.2418 720.324 62.6398 738.85 59.9958L738.98 61.0368C737.126 61.3028 735.246 61.4878 733.339 61.6008" fill="#00B0C7"/>
</g>
<mask id="mask33_2_334" style="mask-type:alpha" maskUnits="userSpaceOnUse" x="0" y="0" width="731" height="92">
<path fill-rule="evenodd" clip-rule="evenodd" d="M0.337157 0.431641V89.0096L0.326172 91.9746C21.629 84.0956 45.4914 75.6356 70.8377 72.7126V72.7126C97.9157 69.6026 124.468 76.3036 150.148 82.7846V82.7846C172.765 88.4916 194.129 93.8786 212.626 91.2736V91.2736V91.2636C212.643 91.2626 212.662 91.2616 212.68 91.2606V91.2606C225.129 90.5206 240.957 84.6496 259.283 77.8526V77.8526C281.598 69.5746 306.893 60.1936 333.867 57.0826V57.0826C360.949 53.9786 387.509 60.6736 413.201 67.1526V67.1526C435.829 72.8586 457.199 78.2456 475.702 75.6406V75.6406L475.701 75.6316C475.718 75.6296 475.737 75.6286 475.755 75.6276V75.6276C488.204 74.8876 504.033 69.0166 522.359 62.2196V62.2196C544.674 53.9416 569.968 44.5606 596.941 41.4496V41.4496C624.017 38.3456 650.573 45.0416 676.252 51.5216V51.5216C695.518 56.3836 713.876 61.0136 730.327 60.6686V60.6686V55.8586V0.431641" fill="white"/>
</mask>
<g mask="url(#mask33_2_334)">
<path fill-rule="evenodd" clip-rule="evenodd" d="M748.78 70.6282C731.46 71.6572 711.992 66.7442 691.5 61.5732C665.893 55.1112 639.408 48.4322 612.487 51.5232C585.615 54.6222 560.372 63.9842 538.101 72.2452C519.714 79.0652 503.83 84.9562 491.258 85.7032C491.239 85.7052 491.22 85.7062 491.2 85.7072L491.14 84.6582C491.158 84.6572 491.177 84.6552 491.195 84.6542C503.645 83.9152 519.473 78.0442 537.799 71.2462C560.115 62.9692 585.408 53.5882 612.38 50.4782C639.465 47.3712 666.012 54.0682 691.69 60.5492C714.357 66.2682 735.772 71.6682 754.291 69.0222L754.421 70.0642C752.567 70.3292 750.686 70.5152 748.78 70.6282" fill="#00B0C7"/>
</g>
<mask id="mask34_2_334" style="mask-type:alpha" maskUnits="userSpaceOnUse" x="0" y="0" width="731" height="92">
<path fill-rule="evenodd" clip-rule="evenodd" d="M0.337157 0.431641V89.0096L0.326172 91.9746C21.629 84.0956 45.4914 75.6356 70.8377 72.7126V72.7126C97.9157 69.6026 124.468 76.3036 150.148 82.7846V82.7846C172.765 88.4916 194.129 93.8786 212.626 91.2736V91.2736V91.2636C212.643 91.2626 212.662 91.2616 212.68 91.2606V91.2606C225.129 90.5206 240.957 84.6496 259.283 77.8526V77.8526C281.598 69.5746 306.893 60.1936 333.867 57.0826V57.0826C360.949 53.9786 387.509 60.6736 413.201 67.1526V67.1526C435.829 72.8586 457.199 78.2456 475.702 75.6406V75.6406L475.701 75.6316C475.718 75.6296 475.737 75.6286 475.755 75.6276V75.6276C488.204 74.8876 504.033 69.0166 522.359 62.2196V62.2196C544.674 53.9416 569.968 44.5606 596.941 41.4496V41.4496C624.017 38.3456 650.573 45.0416 676.252 51.5216V51.5216C695.518 56.3836 713.876 61.0136 730.327 60.6686V60.6686V55.8586V0.431641" fill="white"/>
</mask>
<g mask="url(#mask34_2_334)">
<path fill-rule="evenodd" clip-rule="evenodd" d="M764.221 79.657C746.902 80.687 727.435 75.774 706.941 70.602C681.333 64.14 654.853 57.459 627.927 60.55C601.052 63.648 575.807 73.012 553.535 81.275C535.149 88.095 519.265 93.987 506.693 94.734C506.675 94.735 506.659 94.736 506.641 94.737L506.579 93.688C506.597 93.687 506.614 93.686 506.631 93.685C519.08 92.945 534.909 87.074 553.233 80.277C575.55 71.998 600.845 62.615 627.819 59.505C654.897 56.402 681.451 63.098 707.131 69.577C729.797 75.297 751.2 80.702 769.729 78.052L769.858 79.095C768.007 79.359 766.126 79.544 764.221 79.657" fill="#00B0C7"/>
</g>
</g>
</svg>
