<svg width="731" height="54" viewBox="0 0 731 54" fill="none" xmlns="http://www.w3.org/2000/svg">
<rect y="0.281052" width="731" height="53" fill="#242424"/>
<g opacity="0.456408">
<mask id="mask0_2_417" style="mask-type:alpha" maskUnits="userSpaceOnUse" x="0" y="0" width="262" height="6">
<path fill-rule="evenodd" clip-rule="evenodd" d="M0.582001 0.45105H261.495V5.38535H0.582001V0.45105Z" fill="white"/>
</mask>
<g mask="url(#mask0_2_417)">
<path fill-rule="evenodd" clip-rule="evenodd" d="M255.847 -9.69465C238.502 -8.66465 219.008 -13.5776 198.487 -18.7496C172.845 -25.2106 146.328 -31.8936 119.368 -28.7996C92.4574 -25.7006 67.1804 -16.3386 44.8784 -8.07765C26.4664 -1.25665 10.5614 4.63435 -2.02861 5.38135C-2.04761 5.38235 -2.06561 5.38435 -2.08461 5.38535L-2.14661 4.33635C-2.12861 4.33535 -2.10861 4.33335 -2.09061 4.33235C10.3764 3.59335 26.2264 -2.27765 44.5764 -9.07565C66.9234 -17.3526 92.2504 -26.7346 119.26 -29.8446C146.369 -32.9546 172.963 -26.2546 198.677 -19.7746C221.374 -14.0536 242.815 -8.65665 261.365 -11.2996L261.495 -10.2576C259.64 -9.99265 257.756 -9.80765 255.847 -9.69465" fill="#00B0C7"/>
</g>
<mask id="mask1_2_417" style="mask-type:alpha" maskUnits="userSpaceOnUse" x="0" y="0" width="248" height="17">
<path fill-rule="evenodd" clip-rule="evenodd" d="M0.582001 0.45105H247.208V16.1789H0.582001V0.45105Z" fill="white"/>
</mask>
<g mask="url(#mask1_2_417)">
<path fill-rule="evenodd" clip-rule="evenodd" d="M241.562 1.09984C224.219 2.12984 204.724 -2.78416 184.203 -7.95516C158.561 -14.4162 132.045 -21.1012 105.083 -18.0062C78.1721 -14.9082 52.8941 -5.54416 30.5911 2.71684C12.1791 9.53684 -3.72791 15.4288 -16.3169 16.1758C-16.3349 16.1768 -16.3509 16.1778 -16.3699 16.1788L-16.4309 15.1298C-16.4139 15.1288 -16.3959 15.1278 -16.3789 15.1268C-3.91191 14.3878 11.9391 8.51584 30.2891 1.71884C52.6361 -6.55916 77.9651 -15.9412 104.975 -19.0512C132.088 -22.1562 158.679 -15.4602 184.394 -8.98016C207.091 -3.26016 228.529 2.14084 247.078 -0.505159L247.208 0.536842C245.353 0.800842 243.47 0.986842 241.562 1.09984" fill="#00B0C7"/>
</g>
<mask id="mask2_2_417" style="mask-type:alpha" maskUnits="userSpaceOnUse" x="0" y="0" width="233" height="27">
<path fill-rule="evenodd" clip-rule="evenodd" d="M0.582001 0.45105H232.926V26.9713H0.582001V0.45105Z" fill="white"/>
</mask>
<g mask="url(#mask2_2_417)">
<path fill-rule="evenodd" clip-rule="evenodd" d="M227.278 11.8922C209.934 12.9222 190.44 8.00924 169.918 2.83724C144.276 -3.62475 117.763 -10.3098 90.7989 -7.21475C63.8889 -4.11375 38.6119 5.24825 16.3099 13.5092C-2.10309 20.3292 -18.0111 26.2212 -30.6011 26.9682C-30.6191 26.9692 -30.6351 26.9702 -30.6541 26.9712L-30.7151 25.9222C-30.6981 25.9212 -30.6801 25.9202 -30.6631 25.9192C-18.1961 25.1792 -2.34409 19.3082 16.0079 12.5102C38.3539 4.23324 63.6819 -5.14775 90.6909 -8.25975C117.806 -11.3728 144.394 -4.66775 170.108 1.81225C192.807 7.53325 214.252 12.9322 232.796 10.2872L232.926 11.3282C231.071 11.5932 229.186 11.7782 227.278 11.8922" fill="#00B0C7"/>
</g>
<mask id="mask3_2_417" style="mask-type:alpha" maskUnits="userSpaceOnUse" x="0" y="1" width="219" height="37">
<path fill-rule="evenodd" clip-rule="evenodd" d="M0.582001 1.74966H218.639V37.7647H0.582001V1.74966Z" fill="white"/>
</mask>
<g mask="url(#mask3_2_417)">
<path fill-rule="evenodd" clip-rule="evenodd" d="M212.994 22.6847C195.652 23.7147 176.157 18.8017 155.636 13.6307C129.994 7.16875 103.485 0.484746 76.5143 3.57875C49.6063 6.67875 24.3303 16.0407 2.0293 24.3017C-16.3847 31.1217 -32.2917 37.0137 -44.8817 37.7607C-44.9007 37.7627 -44.9197 37.7637 -44.9387 37.7647L-44.9997 36.7157C-44.9817 36.7147 -44.9627 36.7137 -44.9437 36.7117C-32.4767 35.9727 -16.6247 30.1007 1.72731 23.3037C24.0723 15.0267 49.3993 5.64575 76.4073 2.53375C103.514 -0.573254 130.111 6.12475 155.827 12.6057C178.523 18.3247 199.961 23.7267 218.509 21.0797L218.639 22.1217C216.785 22.3867 214.902 22.5717 212.994 22.6847" fill="#00B0C7"/>
</g>
<mask id="mask4_2_417" style="mask-type:alpha" maskUnits="userSpaceOnUse" x="0" y="10" width="235" height="37">
<path fill-rule="evenodd" clip-rule="evenodd" d="M0.582001 10.7782H234.102V46.7915H0.582001V10.7782Z" fill="white"/>
</mask>
<g mask="url(#mask4_2_417)">
<path fill-rule="evenodd" clip-rule="evenodd" d="M228.453 31.7125C211.109 32.7415 191.614 27.8295 171.094 22.6575C145.452 16.1965 118.94 9.51354 91.9748 12.6065C65.0658 15.7055 39.7898 25.0685 17.4888 33.3295C-0.923185 40.1495 -16.8302 46.0405 -29.4192 46.7875C-29.4392 46.7895 -29.4582 46.7905 -29.4782 46.7915L-29.5392 45.7425C-29.5202 45.7415 -29.5002 45.7405 -29.4812 45.7385C-17.0152 44.9995 -1.16318 39.1285 17.1868 32.3305C39.5328 24.0535 64.8588 14.6725 91.8678 11.5615C118.979 8.45654 145.57 15.1525 171.284 21.6325C193.982 27.3535 215.423 32.7515 233.972 30.1075L234.102 31.1485C232.246 31.4135 230.363 31.5995 228.453 31.7125" fill="#00B0C7"/>
</g>
<mask id="mask5_2_417" style="mask-type:alpha" maskUnits="userSpaceOnUse" x="0" y="19" width="250" height="35">
<path fill-rule="evenodd" clip-rule="evenodd" d="M0.582001 19.805H249.56V53.451H0.582001V19.805Z" fill="white"/>
</mask>
<g mask="url(#mask5_2_417)">
<path fill-rule="evenodd" clip-rule="evenodd" d="M243.91 40.7384C226.568 41.7684 207.075 36.8554 186.555 31.6844C160.914 25.2214 134.399 18.5364 107.436 21.6334C80.5277 24.7324 55.2507 34.0954 32.9507 42.3554C14.5377 49.1754 -1.3693 55.0674 -13.9593 55.8144C-13.9793 55.8154 -13.9983 55.8164 -14.0173 55.8174L-14.0793 54.7684C-14.0603 54.7674 -14.0403 54.7664 -14.0213 54.7654C-1.5543 54.0254 14.2977 48.1544 32.6487 41.3564C54.9937 33.0804 80.3207 23.6994 107.328 20.5884C134.432 17.4834 161.031 24.1784 186.746 30.6594C209.444 36.3794 230.884 41.7764 249.43 39.1334L249.56 40.1744C247.704 40.4404 245.82 40.6254 243.91 40.7384" fill="#00B0C7"/>
</g>
<mask id="mask6_2_417" style="mask-type:alpha" maskUnits="userSpaceOnUse" x="1" y="28" width="265" height="26">
<path fill-rule="evenodd" clip-rule="evenodd" d="M1.3821 28.8301H265.024V53.4511H1.3821V28.8301Z" fill="white"/>
</mask>
<g mask="url(#mask6_2_417)">
<path fill-rule="evenodd" clip-rule="evenodd" d="M259.376 49.7683C242.031 50.7983 222.536 45.8843 202.013 40.7133C176.373 34.2513 149.854 27.5683 122.897 30.6623C95.9851 33.7603 70.7061 43.1243 48.4031 51.3853C29.9921 58.2053 14.0861 64.0973 1.4971 64.8443C1.4781 64.8453 1.4621 64.8463 1.4431 64.8473L1.3821 63.7983C1.4001 63.7973 1.4171 63.7963 1.4351 63.7953C13.9011 63.0563 29.7521 57.1853 48.1011 50.3873C70.4491 42.1093 95.7771 32.7273 122.789 29.6163C149.903 26.5033 176.491 33.2083 202.204 39.6883C224.903 45.4083 246.341 50.8113 264.894 48.1633L265.024 49.2053C263.169 49.4693 261.285 49.6543 259.376 49.7683" fill="#00B0C7"/>
</g>
<mask id="mask7_2_417" style="mask-type:alpha" maskUnits="userSpaceOnUse" x="0" y="39" width="251" height="15">
<path fill-rule="evenodd" clip-rule="evenodd" d="M0.582001 39.6252H250.737V53.4511H0.582001V39.6252Z" fill="white"/>
</mask>
<g mask="url(#mask7_2_417)">
<path fill-rule="evenodd" clip-rule="evenodd" d="M245.091 60.5613C227.748 61.5913 208.253 56.6783 187.732 51.5063C162.09 45.0443 135.574 38.3583 108.612 41.4543C81.7026 44.5543 56.4266 53.9163 34.1256 62.1773C15.7116 68.9983 -0.195405 74.8903 -12.7864 75.6373C-12.8044 75.6383 -12.8224 75.6403 -12.8414 75.6413L-12.9024 74.5923C-12.8854 74.5913 -12.8664 74.5892 -12.8484 74.5882C-0.381405 73.8492 15.4706 67.9773 33.8236 61.1793C56.1696 52.9023 81.4966 43.5203 108.504 40.4093C135.613 37.3023 162.208 44.0013 187.923 50.4813C210.62 56.2013 232.058 61.6033 250.607 58.9563L250.737 59.9983C248.882 60.2633 246.999 60.4483 245.091 60.5613" fill="#00B0C7"/>
</g>
<mask id="mask8_2_417" style="mask-type:alpha" maskUnits="userSpaceOnUse" x="0" y="50" width="237" height="4">
<path fill-rule="evenodd" clip-rule="evenodd" d="M0.582001 50.417H236.454V53.4511H0.582001V50.417Z" fill="white"/>
</mask>
<g mask="url(#mask8_2_417)">
<path fill-rule="evenodd" clip-rule="evenodd" d="M230.806 71.3518C213.462 72.3818 193.969 67.4688 173.448 62.2978C147.806 55.8358 121.293 49.1538 94.3273 52.2468C67.4183 55.3458 42.1423 64.7088 19.8413 72.9688C1.42929 79.7888 -14.4777 85.6808 -27.0667 86.4278C-27.0867 86.4288 -27.1057 86.4298 -27.1257 86.4308L-27.1867 85.3818C-14.7057 84.7008 1.16129 78.7778 19.5393 71.9708C41.8843 63.6938 67.2113 54.3128 94.2193 51.2018C121.324 48.0928 147.923 54.7928 173.638 61.2728C196.336 66.9918 217.779 72.3938 236.324 69.7468L236.454 70.7878C234.599 71.0528 232.714 71.2378 230.806 71.3518" fill="#00B0C7"/>
</g>
<mask id="mask9_2_417" style="mask-type:alpha" maskUnits="userSpaceOnUse" x="245" y="0" width="265" height="1">
<path fill-rule="evenodd" clip-rule="evenodd" d="M245.957 0.45105H509.643V0.54895H245.957V0.45105Z" fill="white"/>
</mask>
<g mask="url(#mask9_2_417)">
<path fill-rule="evenodd" clip-rule="evenodd" d="M503.997 -14.533C486.655 -13.503 467.155 -18.415 446.63 -23.585C420.975 -30.047 394.444 -36.729 367.471 -33.637C340.56 -30.538 315.282 -21.174 292.98 -12.913C274.568 -6.09305 258.661 -0.201048 246.072 0.545952C246.053 0.546952 246.037 0.547954 246.018 0.548954L245.957 -0.500046C245.975 -0.501046 245.992 -0.502048 246.009 -0.503048C258.476 -1.24205 274.327 -7.11405 292.677 -13.911C315.024 -22.189 340.353 -31.571 367.363 -34.681C394.493 -37.785 421.093 -31.09 446.82 -24.61C469.522 -18.892 490.962 -13.492 509.514 -16.138L509.643 -15.096C507.789 -14.832 505.905 -14.646 503.997 -14.533" fill="#00B0C7"/>
</g>
<mask id="mask10_2_417" style="mask-type:alpha" maskUnits="userSpaceOnUse" x="232" y="0" width="265" height="12">
<path fill-rule="evenodd" clip-rule="evenodd" d="M232.673 0.45105H496.361V11.3414H232.673V0.45105Z" fill="white"/>
</mask>
<g mask="url(#mask10_2_417)">
<path fill-rule="evenodd" clip-rule="evenodd" d="M490.713 -3.74054C473.367 -2.71054 453.863 -7.62354 433.331 -12.7945C407.677 -19.2545 381.147 -25.9375 354.187 -22.8445C327.277 -19.7435 302 -10.3815 279.698 -2.12154C261.285 4.69846 245.377 10.5915 232.788 11.3385C232.769 11.3395 232.753 11.3405 232.734 11.3415L232.673 10.2925C232.691 10.2915 232.708 10.2905 232.726 10.2895C245.192 9.54946 261.045 3.67746 279.396 -3.11954C301.742 -11.3965 327.07 -20.7775 354.079 -23.8895C381.193 -26.9955 407.795 -20.2985 433.521 -13.8195C456.23 -8.10054 477.674 -2.70154 496.232 -5.34554L496.361 -4.30454C494.506 -4.03954 492.622 -3.85454 490.713 -3.74054" fill="#00B0C7"/>
</g>
<mask id="mask11_2_417" style="mask-type:alpha" maskUnits="userSpaceOnUse" x="218" y="0" width="265" height="23">
<path fill-rule="evenodd" clip-rule="evenodd" d="M218.388 0.45105H482.074V22.135H218.388V0.45105Z" fill="white"/>
</mask>
<g mask="url(#mask11_2_417)">
<path fill-rule="evenodd" clip-rule="evenodd" d="M476.428 7.05194C459.084 8.08194 439.58 3.16895 419.049 -2.00105C393.394 -8.46205 366.869 -15.1451 339.902 -12.0511C312.994 -8.95105 287.718 0.410946 265.417 8.67195C247.003 15.4919 231.096 21.3839 218.506 22.1309C218.486 22.1329 218.468 22.1339 218.449 22.1349L218.388 21.0859C218.406 21.0849 218.425 21.0829 218.444 21.0819C230.911 20.3429 246.763 14.4699 265.115 7.67394C287.46 -0.603056 312.787 -9.98405 339.795 -13.0961C366.909 -16.2081 393.512 -9.50505 419.24 -3.02605C441.948 2.69295 463.395 8.09594 481.945 5.44794L482.074 6.48895C480.22 6.75394 478.336 6.93894 476.428 7.05194" fill="#00B0C7"/>
</g>
<mask id="mask12_2_417" style="mask-type:alpha" maskUnits="userSpaceOnUse" x="233" y="0" width="265" height="32">
<path fill-rule="evenodd" clip-rule="evenodd" d="M233.849 0.45105H497.537V31.1617H233.849V0.45105Z" fill="white"/>
</mask>
<g mask="url(#mask12_2_417)">
<path fill-rule="evenodd" clip-rule="evenodd" d="M491.888 16.0797C474.542 17.1087 455.037 12.1967 434.507 7.02575C408.853 0.564745 382.331 -6.11425 355.363 -3.02325C328.454 0.0757453 303.178 9.43875 280.877 17.6997C262.465 24.5187 246.558 30.4107 233.969 31.1577C233.949 31.1597 233.93 31.1607 233.91 31.1617L233.849 30.1127C233.868 30.1117 233.887 30.1107 233.906 30.1087C246.373 29.3697 262.225 23.4977 280.575 16.7007C302.92 8.42374 328.247 -0.957255 355.255 -4.06825C382.368 -7.17725 408.97 -0.478255 434.697 6.00175C457.407 11.7217 478.851 17.1237 497.407 14.4747L497.537 15.5157C495.681 15.7807 493.797 15.9667 491.888 16.0797" fill="#00B0C7"/>
</g>
<path fill-rule="evenodd" clip-rule="evenodd" d="M506.365 25.2056C489.068 26.2342 469.621 21.3253 449.15 16.1575C423.562 9.69736 397.106 3.01926 370.198 6.11092C343.36 9.20957 318.15 18.5675 295.907 26.8239C277.543 33.6409 261.677 39.5304 249.119 40.2771C249.099 40.2781 249.081 40.2791 249.061 40.2811L249 39.2325C249.019 39.2305 249.038 39.2295 249.057 39.2285C261.491 38.4888 277.302 32.6204 295.605 25.8263C317.892 17.5529 343.153 8.17602 370.09 5.06737C397.149 1.95472 423.679 8.65581 449.339 15.133C471.984 20.8485 493.375 26.2432 511.87 23.6003L512 24.6419C510.149 24.9067 508.269 25.0927 506.365 25.2056" fill="#00B0C7"/>
<path fill-rule="evenodd" clip-rule="evenodd" d="M522.368 34.205C505.07 35.2345 485.629 30.3257 465.162 25.1581C439.576 18.6981 413.112 12.0191 386.197 15.1107C359.356 18.2083 334.143 27.567 311.898 35.8252C293.535 42.6411 277.671 48.5314 265.115 49.2781C265.096 49.2791 265.08 49.2801 265.062 49.2811L265 48.2325C265.018 48.2315 265.035 48.2305 265.053 48.2295C277.486 47.4899 293.296 41.6206 311.597 34.8277C333.887 26.5535 359.149 17.1748 386.09 14.0662C413.157 10.9566 439.692 17.6556 465.352 24.1336C487.989 29.849 509.369 35.2465 527.871 32.6007L528 33.6422C526.151 33.9071 524.27 34.092 522.368 34.205" fill="#00B0C7"/>
<mask id="mask13_2_417" style="mask-type:alpha" maskUnits="userSpaceOnUse" x="249" y="23" width="265" height="31">
<path fill-rule="evenodd" clip-rule="evenodd" d="M249.485 23.995H513.171V53.4511H249.485V23.995Z" fill="white"/>
</mask>
<g mask="url(#mask13_2_417)">
<path fill-rule="evenodd" clip-rule="evenodd" d="M507.526 44.9285C490.183 45.9585 470.683 41.0455 450.158 35.8755C424.503 29.4135 397.971 22.7315 370.999 25.8245C344.091 28.9245 318.814 38.2865 296.513 46.5475C278.099 53.3685 262.192 59.2605 249.602 60.0075C249.583 60.0085 249.565 60.0095 249.546 60.0115L249.485 58.9625C249.503 58.9605 249.522 58.9595 249.539 58.9585C262.007 58.2195 277.859 52.3465 296.211 45.5495C318.557 37.2725 343.883 27.8905 370.891 24.7795C398.017 21.6715 424.621 28.3705 450.348 34.8505C473.05 40.5705 494.49 45.9705 513.042 43.3235L513.171 44.3655C511.317 44.6305 509.434 44.8155 507.526 44.9285" fill="#00B0C7"/>
</g>
<mask id="mask14_2_417" style="mask-type:alpha" maskUnits="userSpaceOnUse" x="235" y="34" width="264" height="20">
<path fill-rule="evenodd" clip-rule="evenodd" d="M235.201 34.7881H498.889V53.451H235.201V34.7881Z" fill="white"/>
</mask>
<g mask="url(#mask14_2_417)">
<path fill-rule="evenodd" clip-rule="evenodd" d="M493.241 55.7189C475.896 56.7489 456.392 51.8359 435.861 46.6659C410.206 40.2059 383.682 33.5259 356.715 36.6169C329.806 39.7159 304.53 49.0789 282.229 57.3389C263.817 64.1589 247.91 70.0509 235.321 70.7979C235.301 70.7989 235.282 70.7999 235.262 70.8009L235.201 69.7519C247.684 69.0709 263.549 63.1479 281.927 56.3409C304.272 48.0639 329.599 38.6829 356.607 35.5719C383.715 32.4659 410.324 39.1619 436.051 45.6409C458.759 51.3589 480.206 56.7589 498.76 54.1139L498.889 55.1559C497.034 55.4199 495.149 55.6049 493.241 55.7189" fill="#00B0C7"/>
</g>
<mask id="mask15_2_417" style="mask-type:alpha" maskUnits="userSpaceOnUse" x="221" y="45" width="265" height="9">
<path fill-rule="evenodd" clip-rule="evenodd" d="M221.916 45.5818H485.603V53.4511H221.916V45.5818Z" fill="white"/>
</mask>
<g mask="url(#mask15_2_417)">
<path fill-rule="evenodd" clip-rule="evenodd" d="M479.954 66.5125C462.611 67.5415 443.107 62.6295 422.576 57.4595C396.922 50.9975 370.391 44.3185 343.431 47.4095C316.52 50.5085 291.242 59.8705 268.94 68.1325C250.527 74.9525 234.622 80.8435 222.033 81.5905C222.014 81.5925 221.996 81.5935 221.977 81.5945L221.916 80.5455C221.934 80.5445 221.953 80.5435 221.971 80.5415C234.437 79.8025 250.287 73.9305 268.638 67.1345C290.985 58.8565 316.313 49.4745 343.323 46.3645C370.443 43.2615 397.04 49.9555 422.767 56.4335C445.475 62.1535 466.918 67.5525 485.474 64.9075L485.603 65.9485C483.747 66.2135 481.864 66.3995 479.954 66.5125" fill="#00B0C7"/>
</g>
<mask id="mask16_2_417" style="mask-type:alpha" maskUnits="userSpaceOnUse" x="480" y="0" width="251" height="7">
<path fill-rule="evenodd" clip-rule="evenodd" d="M480.823 0.45105H730.583V6.50205H480.823V0.45105Z" fill="white"/>
</mask>
<g mask="url(#mask16_2_417)">
<path fill-rule="evenodd" clip-rule="evenodd" d="M738.817 -8.57795C721.475 -7.54795 701.98 -12.461 681.459 -17.632C655.816 -24.094 629.296 -30.775 602.337 -27.684C575.429 -24.584 550.153 -15.222 527.853 -6.96095C509.438 -0.140951 493.531 5.75105 480.941 6.49805C480.922 6.50005 480.904 6.50105 480.884 6.50205L480.823 5.45305C480.841 5.45205 480.86 5.45105 480.879 5.44905C493.346 4.71005 509.198 -1.16195 527.55 -7.95895C549.895 -16.236 575.222 -25.617 602.229 -28.729C629.342 -31.834 655.935 -25.138 681.649 -18.657C704.346 -12.937 725.785 -7.53295 744.333 -10.182L744.462 -9.14095C742.608 -8.87595 740.725 -8.69095 738.817 -8.57795" fill="#00B0C7"/>
</g>
<mask id="mask17_2_417" style="mask-type:alpha" maskUnits="userSpaceOnUse" x="496" y="0" width="235" height="16">
<path fill-rule="evenodd" clip-rule="evenodd" d="M496.284 0.45105H730.583V15.5289H496.284V0.45105Z" fill="white"/>
</mask>
<g mask="url(#mask17_2_417)">
<path fill-rule="evenodd" clip-rule="evenodd" d="M754.276 0.449945C736.933 1.47895 717.438 -3.43305 696.917 -8.60505C671.275 -15.0661 644.758 -21.7511 617.797 -18.6561C590.889 -15.5571 565.612 -6.19405 543.312 2.06695C524.9 8.88695 508.994 14.7779 496.403 15.5249C496.383 15.5269 496.364 15.5279 496.344 15.5289L496.284 14.4799C496.303 14.4789 496.322 14.4779 496.341 14.4759C508.808 13.7369 524.66 7.86595 543.01 1.06795C565.355 -7.20905 590.682 -16.5901 617.69 -19.7011C644.8 -22.8071 671.393 -16.1091 697.107 -9.63005C719.806 -3.90905 741.241 1.48695 759.795 -1.15505L759.925 -0.114054C758.069 0.150946 756.185 0.336945 754.276 0.449945" fill="#00B0C7"/>
</g>
<mask id="mask18_2_417" style="mask-type:alpha" maskUnits="userSpaceOnUse" x="511" y="0" width="220" height="25">
<path fill-rule="evenodd" clip-rule="evenodd" d="M511.744 0.45105H730.583V24.5553H511.744V0.45105Z" fill="white"/>
</mask>
<g mask="url(#mask18_2_417)">
<path fill-rule="evenodd" clip-rule="evenodd" d="M769.733 9.47625C752.391 10.5052 732.898 5.59325 712.378 0.421246C686.736 -6.04075 660.224 -12.7238 633.257 -9.62875C606.349 -6.52975 581.073 2.83224 558.772 11.0922C540.359 17.9132 524.453 23.8042 511.863 24.5512C511.843 24.5522 511.824 24.5542 511.804 24.5552L511.744 23.5062C511.763 23.5042 511.782 23.5032 511.801 23.5022C524.267 22.7632 540.119 16.8912 558.47 10.0942C580.815 1.81825 606.141 -7.56275 633.15 -10.6738C660.259 -13.7798 686.853 -7.08375 712.568 -0.603754C735.266 5.11725 756.71 10.5142 775.253 7.87025L775.383 8.91225C773.527 9.17725 771.642 9.36225 769.733 9.47625" fill="#00B0C7"/>
</g>
<mask id="mask19_2_417" style="mask-type:alpha" maskUnits="userSpaceOnUse" x="527" y="0" width="204" height="34">
<path fill-rule="evenodd" clip-rule="evenodd" d="M527.204 0.45105H730.583V33.585H527.204V0.45105Z" fill="white"/>
</mask>
<g mask="url(#mask19_2_417)">
<path fill-rule="evenodd" clip-rule="evenodd" d="M785.199 18.506C767.853 19.536 748.359 14.622 727.836 9.45105C702.196 2.98905 675.693 -3.68995 648.72 -0.600955C621.807 2.49805 596.528 11.861 574.225 20.123C555.814 26.943 539.907 32.835 527.318 33.582C527.3 33.583 527.284 33.584 527.265 33.585L527.204 32.536C527.221 32.535 527.239 32.534 527.256 32.533C539.722 31.793 555.573 25.922 573.923 19.125C596.27 10.847 621.6 1.46405 648.612 -1.64595C675.724 -4.74895 702.314 1.94604 728.027 8.42505C750.726 14.145 772.16 19.545 790.718 16.9L790.847 17.942C788.992 18.207 787.107 18.392 785.199 18.506" fill="#00B0C7"/>
</g>
<mask id="mask20_2_417" style="mask-type:alpha" maskUnits="userSpaceOnUse" x="512" y="8" width="219" height="37">
<path fill-rule="evenodd" clip-rule="evenodd" d="M512.92 8.36325H730.583V44.3785H512.92V8.36325Z" fill="white"/>
</mask>
<g mask="url(#mask20_2_417)">
<path fill-rule="evenodd" clip-rule="evenodd" d="M770.914 29.2985C753.571 30.3285 734.076 25.4155 713.555 20.2435C687.913 13.7815 661.4 7.09255 634.434 10.1915C607.525 13.2915 582.249 22.6545 559.947 30.9145C541.533 37.7355 525.626 43.6275 513.036 44.3745C513.018 44.3755 513 44.3775 512.981 44.3785L512.92 43.3295C512.937 43.3285 512.956 43.3265 512.974 43.3255C525.441 42.5865 541.292 36.7145 559.645 29.9165C581.991 21.6395 607.318 12.2585 634.326 9.14655C661.44 6.04155 688.031 12.7385 713.745 19.2185C736.443 24.9385 757.881 30.3405 776.43 27.6935L776.559 28.7355C774.704 29.0005 772.822 29.1855 770.914 29.2985" fill="#00B0C7"/>
</g>
<mask id="mask21_2_417" style="mask-type:alpha" maskUnits="userSpaceOnUse" x="498" y="19" width="233" height="35">
<path fill-rule="evenodd" clip-rule="evenodd" d="M498.636 19.156H730.583V53.4511H498.636V19.156Z" fill="white"/>
</mask>
<g mask="url(#mask21_2_417)">
<path fill-rule="evenodd" clip-rule="evenodd" d="M756.63 40.0891C739.286 41.1191 719.793 36.2061 699.271 31.0351C673.628 24.5721 647.107 17.8931 620.15 20.9851C593.242 24.0841 567.966 33.4461 545.665 41.7061C527.252 48.5261 511.346 54.4181 498.755 55.1651C498.736 55.1661 498.717 55.1671 498.697 55.1681L498.636 54.1191C498.655 54.1181 498.674 54.1171 498.693 54.1161C511.16 53.3761 527.012 47.5051 545.362 40.7081C567.708 32.4311 593.034 23.0501 620.042 19.9391C647.151 16.8351 673.747 23.5301 699.461 30.0101C722.159 35.7291 743.599 41.1321 762.148 38.4841L762.277 39.5251C760.422 39.7901 758.538 39.9751 756.63 40.0891" fill="#00B0C7"/>
</g>
<mask id="mask22_2_417" style="mask-type:alpha" maskUnits="userSpaceOnUse" x="484" y="29" width="247" height="25">
<path fill-rule="evenodd" clip-rule="evenodd" d="M484.352 29.9486H730.583V53.451H484.352V29.9486Z" fill="white"/>
</mask>
<g mask="url(#mask22_2_417)">
<path fill-rule="evenodd" clip-rule="evenodd" d="M742.342 50.8825C725.001 51.9115 705.507 46.9985 684.987 41.8275C659.343 35.3655 632.823 28.6805 605.865 31.7765C578.955 34.8755 553.678 44.2375 531.375 52.4995C512.962 59.3195 497.057 65.2115 484.468 65.9585C484.449 65.9595 484.431 65.9605 484.412 65.9615L484.352 64.9125C484.369 64.9115 484.388 64.9105 484.405 64.9095C496.872 64.1695 512.722 58.2985 531.073 51.5015C553.42 43.2235 578.748 33.8415 605.758 30.7315C632.87 27.6275 659.463 34.3235 685.177 40.8035C707.874 46.5225 729.31 51.9215 747.861 49.2775L747.991 50.3185C746.135 50.5835 744.252 50.7695 742.342 50.8825" fill="#00B0C7"/>
</g>
<mask id="mask23_2_417" style="mask-type:alpha" maskUnits="userSpaceOnUse" x="499" y="38" width="232" height="16">
<path fill-rule="evenodd" clip-rule="evenodd" d="M499.812 38.9753H730.583V53.4511H499.812V38.9753Z" fill="white"/>
</mask>
<g mask="url(#mask23_2_417)">
<path fill-rule="evenodd" clip-rule="evenodd" d="M757.804 59.9094C740.461 60.9384 720.966 56.0264 700.446 50.8554C674.804 44.3924 648.283 37.7134 621.325 40.8054C594.416 43.9034 569.139 53.2664 546.837 61.5264C528.425 68.3464 512.519 74.2384 499.929 74.9854C499.91 74.9864 499.892 74.9874 499.872 74.9884L499.812 73.9394C499.83 73.9384 499.849 73.9374 499.867 73.9364C512.334 73.1964 528.184 67.3254 546.535 60.5284C568.881 52.2514 594.209 42.8704 621.218 39.7594C648.34 36.6524 674.923 43.3504 700.636 49.8304C723.334 55.5504 744.779 60.9494 763.323 58.3044L763.453 59.3454C761.597 59.6104 759.713 59.7964 757.804 59.9094" fill="#00B0C7"/>
</g>
<mask id="mask24_2_417" style="mask-type:alpha" maskUnits="userSpaceOnUse" x="515" y="48" width="216" height="6">
<path fill-rule="evenodd" clip-rule="evenodd" d="M515.272 48.004H730.583V53.4511H515.272V48.004Z" fill="white"/>
</mask>
<g mask="url(#mask24_2_417)">
<path fill-rule="evenodd" clip-rule="evenodd" d="M773.267 68.9382C755.924 69.9682 736.43 65.0562 715.908 59.8842C690.265 53.4212 663.749 46.7412 636.786 49.8322C609.874 52.9302 584.595 62.2942 562.292 70.5562C543.881 77.3762 527.975 83.2682 515.386 84.0152C515.368 84.0162 515.352 84.0172 515.334 84.0182L515.272 82.9692C515.29 82.9682 515.307 82.9671 515.324 82.9661C527.79 82.2271 543.641 76.3551 561.99 69.5581C584.337 61.2791 609.667 51.8962 636.678 48.7862C663.793 45.6842 690.383 52.3792 716.098 58.8582C738.795 64.5782 760.228 69.9832 778.782 67.3332L778.911 68.3762C777.058 68.6402 775.174 68.8252 773.267 68.9382" fill="#00B0C7"/>
</g>
</g>
</svg>
