<svg width="731" height="92" viewBox="0 0 731 92" fill="none" xmlns="http://www.w3.org/2000/svg">
<mask id="mask0_279:502" style="mask-type:alpha" maskUnits="userSpaceOnUse" x="0" y="0" width="731" height="92">
<path fill-rule="evenodd" clip-rule="evenodd" d="M0 0H731V92H0V0Z" fill="white"/>
</mask>
<g mask="url(#mask0_279:502)">
<path fill-rule="evenodd" clip-rule="evenodd" d="M0.0126427 89.0204V0H731V55.7038V60.5376C714.527 60.8839 696.144 56.2311 676.851 51.3448C651.136 44.8322 624.544 38.1036 597.431 41.2229C570.421 44.3494 545.094 53.778 522.747 62.0965C504.396 68.9275 488.545 74.8279 476.079 75.572C476.062 75.5728 476.043 75.5736 476.026 75.5751L476.027 75.5855C457.498 78.2029 436.1 72.7894 413.441 67.0542C387.714 60.5432 361.117 53.8146 333.997 56.9339C306.987 60.0604 281.659 69.489 259.312 77.8074C240.961 84.6385 225.111 90.5396 212.645 91.2829C212.626 91.2837 212.607 91.2853 212.59 91.2861L212.591 91.2964C194.069 93.9138 172.676 88.5003 150.028 82.7643C124.312 76.2509 97.7233 69.5168 70.6095 72.6417C45.2285 75.5799 21.333 84.0818 0 92L0.0126427 89.0204Z" fill="#242424"/>
</g>
<mask id="mask1_279:502" style="mask-type:alpha" maskUnits="userSpaceOnUse" x="0" y="0" width="731" height="92">
<path fill-rule="evenodd" clip-rule="evenodd" d="M0.337157 0.432129V89.0101L0.326172 91.9751C21.629 84.0961 45.4914 75.6361 70.8377 72.7131C97.9157 69.6031 124.468 76.3041 150.148 82.7851C172.765 88.4921 194.129 93.8791 212.626 91.2741V91.2641C212.643 91.2631 212.662 91.2621 212.68 91.2611C225.129 90.5211 240.957 84.6501 259.283 77.8531C281.598 69.5751 306.893 60.1941 333.867 57.0831C360.949 53.9791 387.509 60.6741 413.201 67.1531C435.829 72.8591 457.199 78.2461 475.702 75.6411L475.701 75.6321C475.718 75.6301 475.737 75.6291 475.755 75.6281C488.204 74.8881 504.033 69.0171 522.359 62.2201C544.674 53.9421 569.968 44.5611 596.941 41.4501C624.017 38.3461 650.573 45.0421 676.252 51.5221C695.518 56.3841 713.876 61.0141 730.327 60.6691V55.8591V0.432129" fill="white"/>
</mask>
<g mask="url(#mask1_279:502)">
<path fill-rule="evenodd" clip-rule="evenodd" d="M246.51 1.02459C229.188 2.05459 209.721 -2.85941 189.228 -8.03041C163.621 -14.4914 137.14 -21.1744 110.217 -18.0804C83.3429 -14.9824 58.1005 -5.61941 35.8289 2.64159C17.4421 9.46259 1.55781 15.3536 -11.014 16.1006C-11.033 16.1016 -11.0509 16.1026 -11.0699 16.1036L-11.1318 15.0546C-11.1139 15.0536 -11.0939 15.0526 -11.0759 15.0516C1.37406 14.3116 17.2024 8.44059 35.5273 1.64359C57.8438 -6.63441 83.1362 -16.0154 110.109 -19.1254C137.181 -22.2354 163.739 -15.5354 189.418 -9.05541C212.084 -3.33541 233.496 2.06259 252.02 -0.580408L252.15 0.461592C250.298 0.725592 248.416 0.911591 246.51 1.02459Z" fill="#00B0C7"/>
</g>
<mask id="mask2_279:502" style="mask-type:alpha" maskUnits="userSpaceOnUse" x="0" y="0" width="731" height="92">
<path fill-rule="evenodd" clip-rule="evenodd" d="M0.337157 0.432129V89.0101L0.326172 91.9751C21.629 84.0961 45.4914 75.6361 70.8377 72.7131C97.9157 69.6031 124.468 76.3041 150.148 82.7851C172.765 88.4921 194.129 93.8791 212.626 91.2741V91.2641C212.643 91.2631 212.662 91.2621 212.68 91.2611C225.129 90.5211 240.957 84.6501 259.283 77.8531C281.598 69.5751 306.893 60.1941 333.867 57.0831C360.949 53.9791 387.509 60.6741 413.201 67.1531C435.829 72.8591 457.199 78.2461 475.702 75.6411L475.701 75.6321C475.718 75.6301 475.737 75.6291 475.755 75.6281C488.204 74.8881 504.033 69.0171 522.359 62.2201C544.674 53.9421 569.968 44.5611 596.941 41.4501C624.017 38.3461 650.573 45.0421 676.252 51.5221C695.518 56.3841 713.876 61.0141 730.327 60.6691V55.8591V0.432129" fill="white"/>
</mask>
<g mask="url(#mask2_279:502)">
<path fill-rule="evenodd" clip-rule="evenodd" d="M232.244 11.8187C214.925 12.8487 195.456 7.93565 174.963 2.76465C149.356 -3.69735 122.877 -10.3823 95.9515 -7.28735C69.0773 -4.18835 43.8338 5.17465 21.5613 13.4367C3.17443 20.2567 -12.7108 26.1477 -25.2816 26.8947C-25.3006 26.8967 -25.3166 26.8977 -25.3356 26.8987L-25.3965 25.8497C-25.3795 25.8487 -25.3615 25.8477 -25.3446 25.8457C-12.8946 25.1067 2.93476 19.2347 21.2597 12.4377C43.5762 4.15965 68.8706 -5.22235 95.8437 -8.33235C122.92 -11.4373 149.474 -4.74135 175.154 1.73865C197.82 7.45865 219.229 12.8597 237.753 10.2137L237.882 11.2557C236.03 11.5207 234.149 11.7057 232.244 11.8187Z" fill="#00B0C7"/>
</g>
<mask id="mask3_279:502" style="mask-type:alpha" maskUnits="userSpaceOnUse" x="0" y="0" width="731" height="92">
<path fill-rule="evenodd" clip-rule="evenodd" d="M0.337157 0.432129V89.0101L0.326172 91.9751C21.629 84.0961 45.4914 75.6361 70.8377 72.7131C97.9157 69.6031 124.468 76.3041 150.148 82.7851C172.765 88.4921 194.129 93.8791 212.626 91.2741V91.2641C212.643 91.2631 212.662 91.2621 212.68 91.2611C225.129 90.5211 240.957 84.6501 259.283 77.8531C281.598 69.5751 306.893 60.1941 333.867 57.0831C360.949 53.9791 387.509 60.6741 413.201 67.1531C435.829 72.8591 457.199 78.2461 475.702 75.6411L475.701 75.6321C475.718 75.6301 475.737 75.6291 475.755 75.6281C488.204 74.8881 504.033 69.0171 522.359 62.2201C544.674 53.9421 569.968 44.5611 596.941 41.4501C624.017 38.3461 650.573 45.0421 676.252 51.5221C695.518 56.3841 713.876 61.0141 730.327 60.6691V55.8591V0.432129" fill="white"/>
</mask>
<g mask="url(#mask3_279:502)">
<path fill-rule="evenodd" clip-rule="evenodd" d="M217.979 22.611C200.659 23.641 181.192 18.728 160.698 13.556C135.091 7.095 108.614 0.409995 81.6869 3.50499C54.8136 6.60499 29.5712 15.967 7.29963 24.228C-11.0882 31.048 -26.9745 36.94 -39.5473 37.687C-39.5653 37.688 -39.5812 37.689 -39.6002 37.69L-39.6611 36.641C-39.6442 36.64 -39.6262 36.639 -39.6092 36.638C-27.1592 35.899 -11.3289 30.027 6.99804 23.23C29.3135 14.952 54.6069 5.571 81.579 2.459C108.657 -0.654005 135.209 6.051 160.889 12.531C183.556 18.252 204.971 23.652 223.49 21.006L223.62 22.048C221.767 22.312 219.885 22.497 217.979 22.611Z" fill="#00B0C7"/>
</g>
<mask id="mask4_279:502" style="mask-type:alpha" maskUnits="userSpaceOnUse" x="0" y="0" width="731" height="92">
<path fill-rule="evenodd" clip-rule="evenodd" d="M0.337157 0.432129V89.0101L0.326172 91.9751C21.629 84.0961 45.4914 75.6361 70.8377 72.7131C97.9157 69.6031 124.468 76.3041 150.148 82.7851C172.765 88.4921 194.129 93.8791 212.626 91.2741V91.2641C212.643 91.2631 212.662 91.2621 212.68 91.2611C225.129 90.5211 240.957 84.6501 259.283 77.8531C281.598 69.5751 306.893 60.1941 333.867 57.0831C360.949 53.9791 387.509 60.6741 413.201 67.1531C435.829 72.8591 457.199 78.2461 475.702 75.6411L475.701 75.6321C475.718 75.6301 475.737 75.6291 475.755 75.6281C488.204 74.8881 504.033 69.0171 522.359 62.2201C544.674 53.9421 569.968 44.5611 596.941 41.4501C624.017 38.3461 650.573 45.0421 676.252 51.5221C695.518 56.3841 713.876 61.0141 730.327 60.6691V55.8591V0.432129" fill="white"/>
</mask>
<g mask="url(#mask4_279:502)">
<path fill-rule="evenodd" clip-rule="evenodd" d="M203.716 33.4038C186.397 34.4328 166.929 29.5198 146.436 24.3488C120.829 17.8878 94.3564 11.2038 67.4232 14.2978C40.551 17.3978 15.3095 26.7598 -6.96103 35.0198C-25.3489 41.8408 -41.2351 47.7328 -53.8079 48.4798C-53.8269 48.4808 -53.8459 48.4818 -53.8649 48.4838L-53.9258 47.4348C-53.9078 47.4328 -53.8888 47.4318 -53.8699 47.4308C-41.4199 46.6918 -25.5895 40.8198 -7.26262 34.0218C15.0519 25.7448 40.3443 16.3638 67.3154 13.2528C94.3853 10.1458 120.946 16.8438 146.627 23.3248C169.292 29.0438 190.701 34.4448 209.223 31.7988L209.353 32.8408C207.502 33.1048 205.621 33.2908 203.716 33.4038Z" fill="#00B0C7"/>
</g>
<mask id="mask5_279:502" style="mask-type:alpha" maskUnits="userSpaceOnUse" x="0" y="0" width="731" height="92">
<path fill-rule="evenodd" clip-rule="evenodd" d="M0.337157 0.432129V89.0101L0.326172 91.9751C21.629 84.0961 45.4914 75.6361 70.8377 72.7131C97.9157 69.6031 124.468 76.3041 150.148 82.7851C172.765 88.4921 194.129 93.8791 212.626 91.2741V91.2641C212.643 91.2631 212.662 91.2621 212.68 91.2611C225.129 90.5211 240.957 84.6501 259.283 77.8531C281.598 69.5751 306.893 60.1941 333.867 57.0831C360.949 53.9791 387.509 60.6741 413.201 67.1531C435.829 72.8591 457.199 78.2461 475.702 75.6411L475.701 75.6321C475.718 75.6301 475.737 75.6291 475.755 75.6281C488.204 74.8881 504.033 69.0171 522.359 62.2201C544.674 53.9421 569.968 44.5611 596.941 41.4501C624.017 38.3461 650.573 45.0421 676.252 51.5221C695.518 56.3841 713.876 61.0141 730.327 60.6691V55.8591V0.432129" fill="white"/>
</mask>
<g mask="url(#mask5_279:502)">
<path fill-rule="evenodd" clip-rule="evenodd" d="M219.153 42.4314C201.833 43.4604 182.365 38.5484 161.873 33.3764C136.267 26.9164 109.79 20.2334 82.8617 23.3264C55.9894 26.4244 30.748 35.7874 8.47742 44.0484C-9.90942 50.8684 -25.7947 56.7604 -38.3665 57.5074C-38.3865 57.5084 -38.4054 57.5094 -38.4254 57.5104L-38.4863 56.4614C-38.4674 56.4604 -38.4474 56.4594 -38.4284 56.4584C-25.9794 55.7184 -10.1491 49.8474 8.17584 43.0494C30.4913 34.7724 55.7827 25.3914 82.7548 22.2804C109.829 19.1754 136.383 25.8714 162.062 32.3514C184.729 38.0724 206.141 43.4704 224.665 40.8264L224.794 41.8674C222.941 42.1334 221.061 42.3184 219.153 42.4314Z" fill="#00B0C7"/>
</g>
<mask id="mask6_279:502" style="mask-type:alpha" maskUnits="userSpaceOnUse" x="0" y="0" width="731" height="92">
<path fill-rule="evenodd" clip-rule="evenodd" d="M0.337157 0.432129V89.0101L0.326172 91.9751C21.629 84.0961 45.4914 75.6361 70.8377 72.7131C97.9157 69.6031 124.468 76.3041 150.148 82.7851C172.765 88.4921 194.129 93.8791 212.626 91.2741V91.2641C212.643 91.2631 212.662 91.2621 212.68 91.2611C225.129 90.5211 240.957 84.6501 259.283 77.8531C281.598 69.5751 306.893 60.1941 333.867 57.0831C360.949 53.9791 387.509 60.6741 413.201 67.1531C435.829 72.8591 457.199 78.2461 475.702 75.6411L475.701 75.6321C475.718 75.6301 475.737 75.6291 475.755 75.6281C488.204 74.8881 504.033 69.0171 522.359 62.2201C544.674 53.9421 569.968 44.5611 596.941 41.4501C624.017 38.3461 650.573 45.0421 676.252 51.5221C695.518 56.3841 713.876 61.0141 730.327 60.6691V55.8591V0.432129" fill="white"/>
</mask>
<g mask="url(#mask6_279:502)">
<path fill-rule="evenodd" clip-rule="evenodd" d="M234.589 51.4577C217.27 52.4877 197.804 47.5747 177.312 42.4027C151.706 35.9407 125.227 29.2547 98.3011 32.3527C71.4299 35.4517 46.1884 44.8137 23.9179 53.0737C5.53005 59.8937 -10.3552 65.7857 -22.928 66.5327C-22.948 66.5347 -22.966 66.5357 -22.9859 66.5367L-23.0479 65.4877C-23.0289 65.4867 -23.0089 65.4847 -22.9899 65.4837C-10.54 64.7447 5.29038 58.8727 23.6163 52.0757C45.9308 43.7987 71.2232 34.4187 98.1933 31.3077C125.26 28.2017 151.824 34.8977 177.503 41.3787C200.17 47.0987 221.581 52.4947 240.101 49.8527L240.231 50.8937C238.378 51.1587 236.496 51.3447 234.589 51.4577Z" fill="#00B0C7"/>
</g>
<mask id="mask7_279:502" style="mask-type:alpha" maskUnits="userSpaceOnUse" x="0" y="0" width="731" height="92">
<path fill-rule="evenodd" clip-rule="evenodd" d="M0.337157 0.432129V89.0101L0.326172 91.9751C21.629 84.0961 45.4914 75.6361 70.8377 72.7131C97.9157 69.6031 124.468 76.3041 150.148 82.7851C172.765 88.4921 194.129 93.8791 212.626 91.2741V91.2641C212.643 91.2631 212.662 91.2621 212.68 91.2611C225.129 90.5211 240.957 84.6501 259.283 77.8531C281.598 69.5751 306.893 60.1941 333.867 57.0831C360.949 53.9791 387.509 60.6741 413.201 67.1531C435.829 72.8591 457.199 78.2461 475.702 75.6411L475.701 75.6321C475.718 75.6301 475.737 75.6291 475.755 75.6281C488.204 74.8881 504.033 69.0171 522.359 62.2201C544.674 53.9421 569.968 44.5611 596.941 41.4501C624.017 38.3461 650.573 45.0421 676.252 51.5221C695.518 56.3841 713.876 61.0141 730.327 60.6691V55.8591V0.432129" fill="white"/>
</mask>
<g mask="url(#mask7_279:502)">
<path fill-rule="evenodd" clip-rule="evenodd" d="M250.034 60.4875C232.713 61.5175 213.244 56.6035 192.749 51.4325C167.145 44.9705 140.662 38.2865 113.742 41.3805C86.8663 44.4795 61.6219 53.8425 39.3493 62.1045C20.9635 68.9245 5.07922 74.8165 -7.49258 75.5635C-7.51155 75.5645 -7.52753 75.5655 -7.54551 75.5665L-7.60742 74.5175C-7.58945 74.5165 -7.57247 74.5155 -7.55449 74.5145C4.89448 73.7745 20.7238 67.9035 39.0478 61.1065C61.3652 52.8285 86.6586 43.4465 113.634 40.3355C140.711 37.2225 167.262 43.9275 192.94 50.4065C215.608 56.1275 237.017 61.5305 255.545 58.8825L255.674 59.9235C253.822 60.1885 251.941 60.3735 250.034 60.4875Z" fill="#00B0C7"/>
</g>
<mask id="mask8_279:502" style="mask-type:alpha" maskUnits="userSpaceOnUse" x="0" y="0" width="731" height="92">
<path fill-rule="evenodd" clip-rule="evenodd" d="M0.337157 0.432129V89.0101L0.326172 91.9751C21.629 84.0961 45.4914 75.6361 70.8377 72.7131C97.9157 69.6031 124.468 76.3041 150.148 82.7851C172.765 88.4921 194.129 93.8791 212.626 91.2741V91.2641C212.643 91.2631 212.662 91.2621 212.68 91.2611C225.129 90.5211 240.957 84.6501 259.283 77.8531C281.598 69.5751 306.893 60.1941 333.867 57.0831C360.949 53.9791 387.509 60.6741 413.201 67.1531C435.829 72.8591 457.199 78.2461 475.702 75.6411L475.701 75.6321C475.718 75.6301 475.737 75.6291 475.755 75.6281C488.204 74.8881 504.033 69.0171 522.359 62.2201C544.674 53.9421 569.968 44.5611 596.941 41.4501C624.017 38.3461 650.573 45.0421 676.252 51.5221C695.518 56.3841 713.876 61.0141 730.327 60.6691V55.8591V0.432129" fill="white"/>
</mask>
<g mask="url(#mask8_279:502)">
<path fill-rule="evenodd" clip-rule="evenodd" d="M235.768 71.2799C218.449 72.3099 198.981 67.3969 178.488 62.2249C152.881 55.7629 126.401 49.0769 99.4759 52.1729C72.6037 55.2729 47.3622 64.6359 25.0917 72.8959C6.70284 79.7169 -9.18343 85.6089 -21.7562 86.3569C-21.7742 86.3579 -21.7922 86.3589 -21.8112 86.3599L-21.8721 85.3109C-21.8551 85.3099 -21.8361 85.3089 -21.8181 85.3079C-9.36818 84.5679 6.46217 78.6959 24.7901 71.8979C47.1056 63.6209 72.397 54.2399 99.3681 51.1279C126.44 48.0219 152.999 54.7199 178.679 61.1999C201.345 66.9199 222.753 72.3219 241.277 69.6759L241.407 70.7169C239.554 70.9819 237.674 71.1669 235.768 71.2799Z" fill="#00B0C7"/>
</g>
<mask id="mask9_279:502" style="mask-type:alpha" maskUnits="userSpaceOnUse" x="0" y="0" width="731" height="92">
<path fill-rule="evenodd" clip-rule="evenodd" d="M0.337157 0.432129V89.0101L0.326172 91.9751C21.629 84.0961 45.4914 75.6361 70.8377 72.7131C97.9157 69.6031 124.468 76.3041 150.148 82.7851C172.765 88.4921 194.129 93.8791 212.626 91.2741V91.2641C212.643 91.2631 212.662 91.2621 212.68 91.2611C225.129 90.5211 240.957 84.6501 259.283 77.8531C281.598 69.5751 306.893 60.1941 333.867 57.0831C360.949 53.9791 387.509 60.6741 413.201 67.1531C435.829 72.8591 457.199 78.2461 475.702 75.6411L475.701 75.6321C475.718 75.6301 475.737 75.6291 475.755 75.6281C488.204 74.8881 504.033 69.0171 522.359 62.2201C544.674 53.9421 569.968 44.5611 596.941 41.4501C624.017 38.3461 650.573 45.0421 676.252 51.5221C695.518 56.3841 713.876 61.0141 730.327 60.6691V55.8591V0.432129" fill="white"/>
</mask>
<g mask="url(#mask9_279:502)">
<path fill-rule="evenodd" clip-rule="evenodd" d="M221.503 82.0711C204.184 83.1001 184.716 78.1871 164.223 73.0161C138.616 66.5551 112.139 59.8721 85.2103 62.9661C58.3381 66.0651 33.0966 75.4271 10.8261 83.6881C-7.56079 90.5081 -23.4461 96.3991 -36.0179 97.1461C-36.0378 97.1481 -36.0568 97.1491 -36.0768 97.1501L-36.1377 96.1011C-23.6737 95.4201 -7.82842 89.4971 10.5245 82.6891C32.8389 74.4131 58.1313 65.0321 85.1034 61.9211C112.17 58.8121 138.733 65.5111 164.413 71.9921C187.08 77.7111 208.495 83.1131 227.013 80.4651L227.143 81.5071C225.291 81.7721 223.408 81.9571 221.503 82.0711Z" fill="#00B0C7"/>
</g>
<!-- <mask id="mask10_279:502" style="mask-type:alpha" maskUnits="userSpaceOnUse" x="0" y="0" width="731" height="92">
<path fill-rule="evenodd" clip-rule="evenodd" d="M0.337157 0.432129V89.0101L0.326172 91.9751C21.629 84.0961 45.4914 75.6361 70.8377 72.7131C97.9157 69.6031 124.468 76.3041 150.148 82.7851C172.765 88.4921 194.129 93.8791 212.626 91.2741V91.2641C212.643 91.2631 212.662 91.2621 212.68 91.2611C225.129 90.5211 240.957 84.6501 259.283 77.8531C281.598 69.5751 306.893 60.1941 333.867 57.0831C360.949 53.9791 387.509 60.6741 413.201 67.1531C435.829 72.8591 457.199 78.2461 475.702 75.6411L475.701 75.6321C475.718 75.6301 475.737 75.6291 475.755 75.6281C488.204 74.8881 504.033 69.0171 522.359 62.2201C544.674 53.9421 569.968 44.5611 596.941 41.4501C624.017 38.3461 650.573 45.0421 676.252 51.5221C695.518 56.3841 713.876 61.0141 730.327 60.6691V55.8591V0.432129" fill="white"/>
</mask>
<g mask="url(#mask10_279:502)">
<path fill-rule="evenodd" clip-rule="evenodd" d="M207.236 92.8639C189.918 93.8929 170.451 88.9809 149.959 83.8099C124.352 77.3479 97.8728 70.6679 70.9467 73.7579C44.0724 76.8569 18.8289 86.2199 -3.44258 94.4809C-21.8574 101.312 -37.7556 107.259 -50.3414 107.943L-50.4023 106.894C-50.3844 106.893 -50.3654 106.892 -50.3484 106.891C-37.8984 106.151 -22.0701 100.28 -3.74517 93.4829C18.5713 85.2049 43.8657 75.8239 70.8388 72.7129C97.9158 69.6029 124.468 76.3039 150.149 82.7849C172.815 88.5049 194.223 93.9039 212.748 91.2589L212.878 92.2999C211.024 92.5659 209.143 92.7509 207.236 92.8639Z" fill="#00B0C7"/>
</g>
<mask id="mask11_279:502" style="mask-type:alpha" maskUnits="userSpaceOnUse" x="0" y="0" width="731" height="92">
<path fill-rule="evenodd" clip-rule="evenodd" d="M0.337157 0.432129V89.0101L0.326172 91.9751C21.629 84.0961 45.4914 75.6361 70.8377 72.7131C97.9157 69.6031 124.468 76.3041 150.148 82.7851C172.765 88.4921 194.129 93.8791 212.626 91.2741V91.2641C212.643 91.2631 212.662 91.2621 212.68 91.2611C225.129 90.5211 240.957 84.6501 259.283 77.8531C281.598 69.5751 306.893 60.1941 333.867 57.0831C360.949 53.9791 387.509 60.6741 413.201 67.1531C435.829 72.8591 457.199 78.2461 475.702 75.6411L475.701 75.6321C475.718 75.6301 475.737 75.6291 475.755 75.6281C488.204 74.8881 504.033 69.0171 522.359 62.2201C544.674 53.9421 569.968 44.5611 596.941 41.4501C624.017 38.3461 650.573 45.0421 676.252 51.5221C695.518 56.3841 713.876 61.0141 730.327 60.6691V55.8591V0.432129" fill="white"/>
</mask>
<g mask="url(#mask11_279:502)">
<path fill-rule="evenodd" clip-rule="evenodd" d="M222.677 101.891C205.357 102.92 185.889 98.0078 165.397 92.8368C139.789 86.3748 113.305 79.6958 86.3851 82.7868C59.5119 85.8848 34.2694 95.2478 11.9979 103.509C-6.38898 110.329 -22.2732 116.22 -34.8451 116.967C-34.864 116.968 -34.883 116.969 -34.902 116.97L-34.9629 115.921C-34.9449 115.92 -34.9249 115.919 -34.907 115.918C-22.458 115.178 -6.62865 109.307 11.6963 102.51C34.0118 94.2328 59.3052 84.8518 86.2783 81.7408C113.347 78.6348 139.908 85.3318 165.587 91.8118C188.254 97.5308 209.663 102.93 228.188 100.286L228.318 101.328C226.464 101.593 224.584 101.778 222.677 101.891Z" fill="#00B0C7"/>
</g>
<mask id="mask12_279:502" style="mask-type:alpha" maskUnits="userSpaceOnUse" x="0" y="0" width="731" height="92">
<path fill-rule="evenodd" clip-rule="evenodd" d="M0.337157 0.432129V89.0101L0.326172 91.9751C21.629 84.0961 45.4914 75.6361 70.8377 72.7131C97.9157 69.6031 124.468 76.3041 150.148 82.7851C172.765 88.4921 194.129 93.8791 212.626 91.2741V91.2641C212.643 91.2631 212.662 91.2621 212.68 91.2611C225.129 90.5211 240.957 84.6501 259.283 77.8531C281.598 69.5751 306.893 60.1941 333.867 57.0831C360.949 53.9791 387.509 60.6741 413.201 67.1531C435.829 72.8591 457.199 78.2461 475.702 75.6411L475.701 75.6321C475.718 75.6301 475.737 75.6291 475.755 75.6281C488.204 74.8881 504.033 69.0171 522.359 62.2201C544.674 53.9421 569.968 44.5611 596.941 41.4501C624.017 38.3461 650.573 45.0421 676.252 51.5221C695.518 56.3841 713.876 61.0141 730.327 60.6691V55.8591V0.432129" fill="white"/>
</mask>
<g mask="url(#mask12_279:502)">
<path fill-rule="evenodd" clip-rule="evenodd" d="M238.119 110.92C220.8 111.95 201.332 107.037 180.838 101.865C155.23 95.403 128.751 88.722 101.825 91.813C74.9503 94.911 49.7059 104.275 27.4333 112.538C9.04748 119.358 -6.83679 125.25 -19.4086 125.997C-19.4276 125.998 -19.4435 125.999 -19.4625 126L-19.5234 124.951C-19.5055 124.95 -19.4885 124.949 -19.4715 124.948C-7.02254 124.208 8.80681 118.337 27.1317 111.539C49.4482 103.261 74.7426 93.878 101.718 90.768C128.792 87.662 155.349 94.36 181.028 100.84C203.694 106.56 225.105 111.967 243.626 109.315L243.755 110.358C241.905 110.622 240.023 110.807 238.119 110.92Z" fill="#00B0C7"/>
</g>
<mask id="mask13_279:502" style="mask-type:alpha" maskUnits="userSpaceOnUse" x="0" y="0" width="731" height="92">
<path fill-rule="evenodd" clip-rule="evenodd" d="M0.337157 0.432129V89.0101L0.326172 91.9751C21.629 84.0961 45.4914 75.6361 70.8377 72.7131C97.9157 69.6031 124.468 76.3041 150.148 82.7851C172.765 88.4921 194.129 93.8791 212.626 91.2741V91.2641C212.643 91.2631 212.662 91.2621 212.68 91.2611C225.129 90.5211 240.957 84.6501 259.283 77.8531C281.598 69.5751 306.893 60.1941 333.867 57.0831C360.949 53.9791 387.509 60.6741 413.201 67.1531C435.829 72.8591 457.199 78.2461 475.702 75.6411L475.701 75.6321C475.718 75.6301 475.737 75.6291 475.755 75.6281C488.204 74.8881 504.033 69.0171 522.359 62.2201C544.674 53.9421 569.968 44.5611 596.941 41.4501C624.017 38.3461 650.573 45.0421 676.252 51.5221C695.518 56.3841 713.876 61.0141 730.327 60.6691V55.8591V0.432129" fill="white"/>
</mask> -->
<g mask="url(#mask13_279:502)">
<path fill-rule="evenodd" clip-rule="evenodd" d="M481.055 6.9785C463.732 8.0085 444.255 3.0955 423.751 -2.0755C398.131 -8.5365 371.638 -15.2185 344.715 -12.1255C317.842 -9.0245 292.599 0.336502 270.328 8.5975C251.94 15.4175 236.054 21.3105 223.482 22.0575C223.463 22.0585 223.447 22.0595 223.428 22.0605L223.367 21.0115C223.385 21.0105 223.402 21.0095 223.419 21.0085C235.869 20.2685 251.7 14.3965 270.026 7.5995C292.342 -0.677498 317.635 -10.0585 344.607 -13.1705C371.683 -16.2775 398.25 -9.5795 423.941 -3.1005C446.619 2.6185 468.033 8.0165 486.565 5.3725L486.695 6.4145C484.842 6.6795 482.961 6.8645 481.055 6.9785Z" fill="#00B0C7"/>
</g>
<mask id="mask14_279:502" style="mask-type:alpha" maskUnits="userSpaceOnUse" x="0" y="0" width="731" height="92">
<path fill-rule="evenodd" clip-rule="evenodd" d="M0.337157 0.432129V89.0101L0.326172 91.9751C21.629 84.0961 45.4914 75.6361 70.8377 72.7131C97.9157 69.6031 124.468 76.3041 150.148 82.7851C172.765 88.4921 194.129 93.8791 212.626 91.2741V91.2641C212.643 91.2631 212.662 91.2621 212.68 91.2611C225.129 90.5211 240.957 84.6501 259.283 77.8531C281.598 69.5751 306.893 60.1941 333.867 57.0831C360.949 53.9791 387.509 60.6741 413.201 67.1531C435.829 72.8591 457.199 78.2461 475.702 75.6411L475.701 75.6321C475.718 75.6301 475.737 75.6291 475.755 75.6281C488.204 74.8881 504.033 69.0171 522.359 62.2201C544.674 53.9421 569.968 44.5611 596.941 41.4501C624.017 38.3461 650.573 45.0421 676.252 51.5221C695.518 56.3841 713.876 61.0141 730.327 60.6691V55.8591V0.432129" fill="white"/>
</mask>
<g mask="url(#mask14_279:502)">
<path fill-rule="evenodd" clip-rule="evenodd" d="M466.79 17.7714C449.47 18.8014 429.992 13.8884 409.489 8.71836C383.869 2.25736 357.381 -4.42564 330.451 -1.33264C303.579 1.76836 278.338 11.1304 256.067 19.3904C237.678 26.2114 221.793 32.1034 209.22 32.8504C209.2 32.8514 209.182 32.8524 209.163 32.8544L209.102 31.8044C209.121 31.8034 209.14 31.8024 209.158 31.8014C221.608 31.0614 237.439 25.1894 255.766 18.3924C278.08 10.1154 303.373 0.734356 330.344 -2.37664C357.421 -5.48864 383.987 1.21336 409.679 7.69236C432.356 13.4124 453.775 18.8154 472.299 16.1664L472.428 17.2084C470.577 17.4734 468.695 17.6584 466.79 17.7714Z" fill="#00B0C7"/>
</g>
<mask id="mask15_279:502" style="mask-type:alpha" maskUnits="userSpaceOnUse" x="0" y="0" width="731" height="92">
<path fill-rule="evenodd" clip-rule="evenodd" d="M0.337157 0.432129V89.0101L0.326172 91.9751C21.629 84.0961 45.4914 75.6361 70.8377 72.7131C97.9157 69.6031 124.468 76.3041 150.148 82.7851C172.765 88.4921 194.129 93.8791 212.626 91.2741V91.2641C212.643 91.2631 212.662 91.2621 212.68 91.2611C225.129 90.5211 240.957 84.6501 259.283 77.8531C281.598 69.5751 306.893 60.1941 333.867 57.0831C360.949 53.9791 387.509 60.6741 413.201 67.1531C435.829 72.8591 457.199 78.2461 475.702 75.6411L475.701 75.6321C475.718 75.6301 475.737 75.6291 475.755 75.6281C488.204 74.8881 504.033 69.0171 522.359 62.2201C544.674 53.9421 569.968 44.5611 596.941 41.4501C624.017 38.3461 650.573 45.0421 676.252 51.5221C695.518 56.3841 713.876 61.0141 730.327 60.6691V55.8591V0.432129" fill="white"/>
</mask>
<g mask="url(#mask15_279:502)">
<path fill-rule="evenodd" clip-rule="evenodd" d="M482.228 26.7991C464.906 27.8281 445.428 22.9161 424.926 17.7451C399.307 11.2841 372.821 4.6051 345.89 7.6961C319.018 10.7951 293.776 20.1581 271.506 28.4181C253.119 35.2381 237.234 41.1301 224.662 41.8771C224.642 41.8781 224.623 41.8791 224.603 41.8811L224.542 40.8321C224.561 40.8301 224.58 40.8291 224.599 40.8281C237.049 40.0891 252.879 34.2171 271.204 27.4201C293.519 19.1431 318.811 9.7621 345.782 6.6511C372.858 3.5421 399.424 10.2411 425.116 16.7201C447.795 22.4411 469.209 27.8431 487.741 25.1931L487.87 26.2351C486.016 26.5001 484.135 26.6861 482.228 26.7991Z" fill="#00B0C7"/>
</g>
<mask id="mask16_279:502" style="mask-type:alpha" maskUnits="userSpaceOnUse" x="0" y="0" width="731" height="92">
<path fill-rule="evenodd" clip-rule="evenodd" d="M0.337157 0.432129V89.0101L0.326172 91.9751C21.629 84.0961 45.4914 75.6361 70.8377 72.7131C97.9157 69.6031 124.468 76.3041 150.148 82.7851C172.765 88.4921 194.129 93.8791 212.626 91.2741V91.2641C212.643 91.2631 212.662 91.2621 212.68 91.2611C225.129 90.5211 240.957 84.6501 259.283 77.8531C281.598 69.5751 306.893 60.1941 333.867 57.0831C360.949 53.9791 387.509 60.6741 413.201 67.1531C435.829 72.8591 457.199 78.2461 475.702 75.6411L475.701 75.6321C475.718 75.6301 475.737 75.6291 475.755 75.6281C488.204 74.8881 504.033 69.0171 522.359 62.2201C544.674 53.9421 569.968 44.5611 596.941 41.4501C624.017 38.3461 650.573 45.0421 676.252 51.5221C695.518 56.3841 713.876 61.0141 730.327 60.6691V55.8591V0.432129" fill="white"/>
</mask>
<g mask="url(#mask16_279:502)">
<path fill-rule="evenodd" clip-rule="evenodd" d="M497.665 35.8248C480.347 36.8548 460.875 31.9428 440.379 26.7728C414.759 20.3108 388.271 13.6298 361.329 16.7228C334.458 19.8218 309.217 29.1838 286.946 37.4438C268.559 44.2638 252.673 50.1558 240.1 50.9028C240.08 50.9038 240.062 50.9058 240.042 50.9068L239.98 49.8578C240 49.8568 240.019 49.8548 240.038 49.8538C252.488 49.1148 268.319 43.2428 286.645 36.4458C308.959 28.1688 334.251 18.7888 361.222 15.6778C388.314 12.5638 414.877 19.2678 440.569 25.7478C463.242 31.4658 484.659 36.8628 503.177 34.2198L503.307 35.2608C501.454 35.5268 499.571 35.7118 497.665 35.8248Z" fill="#00B0C7"/>
</g>
<mask id="mask17_279:502" style="mask-type:alpha" maskUnits="userSpaceOnUse" x="0" y="0" width="731" height="92">
<path fill-rule="evenodd" clip-rule="evenodd" d="M0.337157 0.432129V89.0101L0.326172 91.9751C21.629 84.0961 45.4914 75.6361 70.8377 72.7131C97.9157 69.6031 124.468 76.3041 150.148 82.7851C172.765 88.4921 194.129 93.8791 212.626 91.2741V91.2641C212.643 91.2631 212.662 91.2621 212.68 91.2611C225.129 90.5211 240.957 84.6501 259.283 77.8531C281.598 69.5751 306.893 60.1941 333.867 57.0831C360.949 53.9791 387.509 60.6741 413.201 67.1531C435.829 72.8591 457.199 78.2461 475.702 75.6411L475.701 75.6321C475.718 75.6301 475.737 75.6291 475.755 75.6281C488.204 74.8881 504.033 69.0171 522.359 62.2201C544.674 53.9421 569.968 44.5611 596.941 41.4501C624.017 38.3461 650.573 45.0421 676.252 51.5221C695.518 56.3841 713.876 61.0141 730.327 60.6691V55.8591V0.432129" fill="white"/>
</mask>
<g mask="url(#mask17_279:502)">
<path fill-rule="evenodd" clip-rule="evenodd" d="M513.11 44.8544C495.791 45.8844 476.326 40.9734 455.833 35.8034C430.214 29.3404 403.718 22.6584 376.77 25.7504C349.895 28.8494 324.65 38.2134 302.378 46.4754C283.992 53.2944 268.108 59.1864 255.536 59.9334C255.517 59.9344 255.501 59.9354 255.482 59.9374L255.421 58.8884C255.439 58.8864 255.456 58.8854 255.474 58.8844C267.922 58.1454 283.751 52.2734 302.076 45.4774C324.394 37.1984 349.688 27.8164 376.662 24.7064C403.763 21.5954 430.332 28.2974 456.023 34.7784C478.688 40.4964 500.095 45.8964 518.621 43.2494L518.75 44.2914C516.898 44.5554 515.015 44.7414 513.11 44.8544Z" fill="#00B0C7"/>
</g>
<mask id="mask18_279:502" style="mask-type:alpha" maskUnits="userSpaceOnUse" x="0" y="0" width="731" height="92">
<path fill-rule="evenodd" clip-rule="evenodd" d="M0.337157 0.432129V89.0101L0.326172 91.9751C21.629 84.0961 45.4914 75.6361 70.8377 72.7131C97.9157 69.6031 124.468 76.3041 150.148 82.7851C172.765 88.4921 194.129 93.8791 212.626 91.2741V91.2641C212.643 91.2631 212.662 91.2621 212.68 91.2611C225.129 90.5211 240.957 84.6501 259.283 77.8531C281.598 69.5751 306.893 60.1941 333.867 57.0831C360.949 53.9791 387.509 60.6741 413.201 67.1531C435.829 72.8591 457.199 78.2461 475.702 75.6411L475.701 75.6321C475.718 75.6301 475.737 75.6291 475.755 75.6281C488.204 74.8881 504.033 69.0171 522.359 62.2201C544.674 53.9421 569.968 44.5611 596.941 41.4501C624.017 38.3461 650.573 45.0421 676.252 51.5221C695.518 56.3841 713.876 61.0141 730.327 60.6691V55.8591V0.432129" fill="white"/>
</mask>
<g mask="url(#mask18_279:502)">
<path fill-rule="evenodd" clip-rule="evenodd" d="M498.844 55.6473C481.524 56.6773 462.051 51.7653 441.554 46.5953C415.934 40.1323 389.438 33.4503 362.503 36.5433C335.632 39.6433 310.39 49.0063 288.119 57.2663C269.73 64.0873 253.845 69.9793 241.272 70.7263C241.253 70.7283 241.235 70.7293 241.216 70.7303L241.155 69.6813C241.173 69.6803 241.192 69.6793 241.209 69.6773C253.66 68.9383 269.49 63.0663 287.817 56.2683C310.133 47.9913 335.424 38.6103 362.395 35.4983C389.484 32.3903 416.052 39.0893 441.744 45.5703C464.415 51.2893 485.826 56.6893 504.352 54.0433L504.481 55.0843C502.63 55.3493 500.749 55.5343 498.844 55.6473Z" fill="#00B0C7"/>
</g>
<mask id="mask19_279:502" style="mask-type:alpha" maskUnits="userSpaceOnUse" x="0" y="0" width="731" height="92">
<path fill-rule="evenodd" clip-rule="evenodd" d="M0.337157 0.432129V89.0101L0.326172 91.9751C21.629 84.0961 45.4914 75.6361 70.8377 72.7131C97.9157 69.6031 124.468 76.3041 150.148 82.7851C172.765 88.4921 194.129 93.8791 212.626 91.2741V91.2641C212.643 91.2631 212.662 91.2621 212.68 91.2611C225.129 90.5211 240.957 84.6501 259.283 77.8531C281.598 69.5751 306.893 60.1941 333.867 57.0831C360.949 53.9791 387.509 60.6741 413.201 67.1531C435.829 72.8591 457.199 78.2461 475.702 75.6411L475.701 75.6321C475.718 75.6301 475.737 75.6291 475.755 75.6281C488.204 74.8881 504.033 69.0171 522.359 62.2201C544.674 53.9421 569.968 44.5611 596.941 41.4501C624.017 38.3461 650.573 45.0421 676.252 51.5221C695.518 56.3841 713.876 61.0141 730.327 60.6691V55.8591V0.432129" fill="white"/>
</mask>
<g mask="url(#mask19_279:502)">
<path fill-rule="evenodd" clip-rule="evenodd" d="M484.578 66.4382C467.257 67.4682 447.779 62.5552 427.275 57.3852C401.657 50.9242 375.169 44.2442 348.239 47.3362C321.366 50.4352 296.125 59.7972 273.854 68.0582C255.468 74.8772 239.582 80.7692 227.01 81.5162C226.99 81.5182 226.972 81.5192 226.952 81.5202L226.891 80.4712C239.357 79.7902 255.2 73.8672 273.553 67.0592C295.867 58.7832 321.16 49.4022 348.131 46.2912C375.202 43.1852 401.774 49.8802 427.466 56.3592C450.143 62.0782 471.561 67.4782 490.089 64.8332L490.218 65.8742C488.366 66.1392 486.484 66.3242 484.578 66.4382Z" fill="#00B0C7"/>
</g>
<!-- <mask id="mask20_279:502" style="mask-type:alpha" maskUnits="userSpaceOnUse" x="0" y="0" width="731" height="92">
<path fill-rule="evenodd" clip-rule="evenodd" d="M0.337157 0.432129V89.0101L0.326172 91.9751C21.629 84.0961 45.4914 75.6361 70.8377 72.7131C97.9157 69.6031 124.468 76.3041 150.148 82.7851C172.765 88.4921 194.129 93.8791 212.626 91.2741V91.2641C212.643 91.2631 212.662 91.2621 212.68 91.2611C225.129 90.5211 240.957 84.6501 259.283 77.8531C281.598 69.5751 306.893 60.1941 333.867 57.0831C360.949 53.9791 387.509 60.6741 413.201 67.1531C435.829 72.8591 457.199 78.2461 475.702 75.6411L475.701 75.6321C475.718 75.6301 475.737 75.6291 475.755 75.6281C488.204 74.8881 504.033 69.0171 522.359 62.2201C544.674 53.9421 569.968 44.5611 596.941 41.4501C624.017 38.3461 650.573 45.0421 676.252 51.5221C695.518 56.3841 713.876 61.0141 730.327 60.6691V55.8591V0.432129" fill="white"/>
</mask>
<g mask="url(#mask20_279:502)">
<path fill-rule="evenodd" clip-rule="evenodd" d="M470.31 77.231C452.991 78.26 433.514 73.348 413.011 68.178C387.392 61.717 360.897 55.037 333.974 58.128C307.1 61.227 281.856 70.59 259.585 78.851C241.197 85.671 225.314 91.563 212.742 92.31C212.723 92.311 212.705 92.312 212.686 92.313L212.625 91.264C212.643 91.263 212.662 91.262 212.68 91.261C225.129 90.521 240.957 84.65 259.283 77.853C281.599 69.575 306.893 60.194 333.866 57.083C360.948 53.98 387.51 60.674 413.202 67.153C435.879 72.872 457.292 78.272 475.822 75.626L475.952 76.668C474.098 76.933 472.218 77.118 470.31 77.231Z" fill="#00B0C7"/>
</g>
<mask id="mask21_279:502" style="mask-type:alpha" maskUnits="userSpaceOnUse" x="0" y="0" width="731" height="92">
<path fill-rule="evenodd" clip-rule="evenodd" d="M0.337157 0.432129V89.0101L0.326172 91.9751C21.629 84.0961 45.4914 75.6361 70.8377 72.7131C97.9157 69.6031 124.468 76.3041 150.148 82.7851C172.765 88.4921 194.129 93.8791 212.626 91.2741V91.2641C212.643 91.2631 212.662 91.2621 212.68 91.2611C225.129 90.5211 240.957 84.6501 259.283 77.8531C281.598 69.5751 306.893 60.1941 333.867 57.0831C360.949 53.9791 387.509 60.6741 413.201 67.1531C435.829 72.8591 457.199 78.2461 475.702 75.6411L475.701 75.6321C475.718 75.6301 475.737 75.6291 475.755 75.6281C488.204 74.8881 504.033 69.0171 522.359 62.2201C544.674 53.9421 569.968 44.5611 596.941 41.4501C624.017 38.3461 650.573 45.0421 676.252 51.5221C695.518 56.3841 713.876 61.0141 730.327 60.6691V55.8591V0.432129" fill="white"/>
</mask>
<g mask="url(#mask21_279:502)">
<path fill-rule="evenodd" clip-rule="evenodd" d="M485.751 86.2587C468.43 87.2877 448.952 82.3757 428.449 77.2057C402.831 70.7447 376.342 64.0647 349.413 67.1567C322.54 70.2547 297.297 79.6177 275.026 87.8787C256.639 94.6977 240.755 100.59 228.183 101.337C228.164 101.338 228.145 101.34 228.126 101.341L228.065 100.292C228.083 100.291 228.102 100.289 228.121 100.288C240.57 99.5487 256.4 93.6767 274.725 86.8807C297.04 78.6027 322.332 69.2217 349.306 66.1117C376.377 63.0067 402.948 69.7007 428.64 76.1797C451.318 81.9007 472.733 87.3007 491.263 84.6527L491.393 85.6947C489.54 85.9597 487.658 86.1457 485.751 86.2587Z" fill="#00B0C7"/>
</g> -->
<!-- <mask id="mask22_279:502" style="mask-type:alpha" maskUnits="userSpaceOnUse" x="0" y="0" width="731" height="92">
<path fill-rule="evenodd" clip-rule="evenodd" d="M0.337157 0.432129V89.0101L0.326172 91.9751C21.629 84.0961 45.4914 75.6361 70.8377 72.7131C97.9157 69.6031 124.468 76.3041 150.148 82.7851C172.765 88.4921 194.129 93.8791 212.626 91.2741V91.2641C212.643 91.2631 212.662 91.2621 212.68 91.2611C225.129 90.5211 240.957 84.6501 259.283 77.8531C281.598 69.5751 306.893 60.1941 333.867 57.0831C360.949 53.9791 387.509 60.6741 413.201 67.1531C435.829 72.8591 457.199 78.2461 475.702 75.6411L475.701 75.6321C475.718 75.6301 475.737 75.6291 475.755 75.6281C488.204 74.8881 504.033 69.0171 522.359 62.2201C544.674 53.9421 569.968 44.5611 596.941 41.4501C624.017 38.3461 650.573 45.0421 676.252 51.5221C695.518 56.3841 713.876 61.0141 730.327 60.6691V55.8591V0.432129" fill="white"/>
</mask>
<g mask="url(#mask22_279:502)">
<path fill-rule="evenodd" clip-rule="evenodd" d="M501.194 95.2871C483.874 96.3171 464.403 91.4051 443.904 86.2351C418.284 79.7731 391.79 73.0891 364.852 76.1831C337.978 79.2811 312.733 88.6451 290.461 96.9081C272.075 103.727 256.191 109.62 243.619 110.367C243.6 110.368 243.584 110.369 243.565 110.37L243.504 109.321C243.522 109.32 243.539 109.319 243.557 109.318C256.006 108.578 271.835 102.707 290.159 95.9091C312.477 87.6311 337.771 78.2481 364.744 75.1381C391.833 72.0311 418.402 78.7291 444.094 85.2101C466.765 90.9281 488.172 96.3311 506.701 93.6821L506.83 94.7251C504.979 94.9891 503.098 95.1741 501.194 95.2871Z" fill="#00B0C7"/>
</g>
<mask id="mask23_279:502" style="mask-type:alpha" maskUnits="userSpaceOnUse" x="0" y="0" width="731" height="92">
<path fill-rule="evenodd" clip-rule="evenodd" d="M0.337157 0.432129V89.0101L0.326172 91.9751C21.629 84.0961 45.4914 75.6361 70.8377 72.7131C97.9157 69.6031 124.468 76.3041 150.148 82.7851C172.765 88.4921 194.129 93.8791 212.626 91.2741V91.2641C212.643 91.2631 212.662 91.2621 212.68 91.2611C225.129 90.5211 240.957 84.6501 259.283 77.8531C281.598 69.5751 306.893 60.1941 333.867 57.0831C360.949 53.9791 387.509 60.6741 413.201 67.1531C435.829 72.8591 457.199 78.2461 475.702 75.6411L475.701 75.6321C475.718 75.6301 475.737 75.6291 475.755 75.6281C488.204 74.8881 504.033 69.0171 522.359 62.2201C544.674 53.9421 569.968 44.5611 596.941 41.4501C624.017 38.3461 650.573 45.0421 676.252 51.5221C695.518 56.3841 713.876 61.0141 730.327 60.6691V55.8591V0.432129" fill="white"/>
</mask>
<g mask="url(#mask23_279:502)">
<path fill-rule="evenodd" clip-rule="evenodd" d="M729.819 2.14127C712.501 3.17027 693.033 -1.74273 672.54 -6.91273C646.932 -13.3757 620.448 -20.0557 593.526 -16.9647C566.654 -13.8647 541.413 -4.50273 519.143 3.75827C500.754 10.5783 484.868 16.4703 472.296 17.2173C472.277 17.2183 472.259 17.2193 472.239 17.2213L472.178 16.1723C472.196 16.1703 472.215 16.1693 472.234 16.1683C484.684 15.4293 500.514 9.55727 518.841 2.76027C541.155 -5.51673 566.448 -14.8987 593.418 -18.0097C620.494 -21.1157 647.051 -14.4187 672.729 -7.93773C695.396 -2.21773 716.805 3.18627 735.328 0.536268L735.457 1.57827C733.605 1.84327 731.725 2.02827 729.819 2.14127Z" fill="#00B0C7"/>
</g> -->
<mask id="mask24_279:502" style="mask-type:alpha" maskUnits="userSpaceOnUse" x="0" y="0" width="731" height="92">
<path fill-rule="evenodd" clip-rule="evenodd" d="M0.337157 0.432129V89.0101L0.326172 91.9751C21.629 84.0961 45.4914 75.6361 70.8377 72.7131C97.9157 69.6031 124.468 76.3041 150.148 82.7851C172.765 88.4921 194.129 93.8791 212.626 91.2741V91.2641C212.643 91.2631 212.662 91.2621 212.68 91.2611C225.129 90.5211 240.957 84.6501 259.283 77.8531C281.598 69.5751 306.893 60.1941 333.867 57.0831C360.949 53.9791 387.509 60.6741 413.201 67.1531C435.829 72.8591 457.199 78.2461 475.702 75.6411L475.701 75.6321C475.718 75.6301 475.737 75.6291 475.755 75.6281C488.204 74.8881 504.033 69.0171 522.359 62.2201C544.674 53.9421 569.968 44.5611 596.941 41.4501C624.017 38.3461 650.573 45.0421 676.252 51.5221C695.518 56.3841 713.876 61.0141 730.327 60.6691V55.8591V0.432129" fill="white"/>
</mask>
<g mask="url(#mask24_279:502)">
<path fill-rule="evenodd" clip-rule="evenodd" d="M745.257 11.1691C727.937 12.1981 708.469 7.28511 687.976 2.11411C662.369 -4.34689 635.889 -11.0329 608.964 -7.93689C582.094 -4.83789 556.851 4.52411 534.581 12.7851C516.194 19.6051 500.31 25.4971 487.736 26.2441C487.716 26.2451 487.697 26.2471 487.677 26.2481L487.617 25.1991C487.636 25.1981 487.655 25.1961 487.674 25.1951C500.124 24.4561 515.954 18.5851 534.279 11.7871C556.595 3.51011 581.886 -5.87089 608.857 -8.98189C635.93 -12.0879 662.487 -5.39089 688.166 1.08911C710.835 6.80911 732.24 12.2061 750.768 9.56311L750.898 10.6051C749.045 10.8701 747.163 11.0561 745.257 11.1691Z" fill="#00B0C7"/>
</g>
<mask id="mask25_279:502" style="mask-type:alpha" maskUnits="userSpaceOnUse" x="0" y="0" width="731" height="92">
<path fill-rule="evenodd" clip-rule="evenodd" d="M0.337157 0.432129V89.0101L0.326172 91.9751C21.629 84.0961 45.4914 75.6361 70.8377 72.7131C97.9157 69.6031 124.468 76.3041 150.148 82.7851C172.765 88.4921 194.129 93.8791 212.626 91.2741V91.2641C212.643 91.2631 212.662 91.2621 212.68 91.2611C225.129 90.5211 240.957 84.6501 259.283 77.8531C281.598 69.5751 306.893 60.1941 333.867 57.0831C360.949 53.9791 387.509 60.6741 413.201 67.1531C435.829 72.8591 457.199 78.2461 475.702 75.6411L475.701 75.6321C475.718 75.6301 475.737 75.6291 475.755 75.6281C488.204 74.8881 504.033 69.0171 522.359 62.2201C544.674 53.9421 569.968 44.5611 596.941 41.4501C624.017 38.3461 650.573 45.0421 676.252 51.5221C695.518 56.3841 713.876 61.0141 730.327 60.6691V55.8591V0.432129" fill="white"/>
</mask>
<g mask="url(#mask25_279:502)">
<path fill-rule="evenodd" clip-rule="evenodd" d="M760.693 20.195C743.375 21.225 723.909 16.312 703.416 11.14C677.81 4.67904 651.334 -2.00496 624.404 1.09004C597.532 4.18904 572.291 13.551 550.02 21.811C531.633 28.632 515.748 34.523 503.175 35.27C503.156 35.272 503.137 35.273 503.117 35.274L503.057 34.225C503.076 34.224 503.095 34.223 503.114 34.221C515.563 33.482 531.393 27.611 549.719 20.813C572.033 12.537 597.325 3.15604 624.297 0.0450365C651.369 -3.06096 677.926 3.63504 703.606 10.116C726.273 15.836 747.688 21.233 766.206 18.59L766.334 19.631C764.482 19.896 762.6 20.082 760.693 20.195Z" fill="#00B0C7"/>
</g>
<mask id="mask26_279:502" style="mask-type:alpha" maskUnits="userSpaceOnUse" x="0" y="0" width="731" height="92">
<path fill-rule="evenodd" clip-rule="evenodd" d="M0.337157 0.432129V89.0101L0.326172 91.9751C21.629 84.0961 45.4914 75.6361 70.8377 72.7131C97.9157 69.6031 124.468 76.3041 150.148 82.7851C172.765 88.4921 194.129 93.8791 212.626 91.2741V91.2641C212.643 91.2631 212.662 91.2621 212.68 91.2611C225.129 90.5211 240.957 84.6501 259.283 77.8531C281.598 69.5751 306.893 60.1941 333.867 57.0831C360.949 53.9791 387.509 60.6741 413.201 67.1531C435.829 72.8591 457.199 78.2461 475.702 75.6411L475.701 75.6321C475.718 75.6301 475.737 75.6291 475.755 75.6281C488.204 74.8881 504.033 69.0171 522.359 62.2201C544.674 53.9421 569.968 44.5611 596.941 41.4501C624.017 38.3461 650.573 45.0421 676.252 51.5221C695.518 56.3841 713.876 61.0141 730.327 60.6691V55.8591V0.432129" fill="white"/>
</mask>
<g mask="url(#mask26_279:502)">
<path fill-rule="evenodd" clip-rule="evenodd" d="M776.138 29.2246C758.815 30.2546 739.348 25.3406 718.853 20.1696C693.248 13.7076 666.781 7.02863 639.844 10.1176C612.969 13.2166 587.724 22.5796 565.452 30.8416C547.066 37.6616 531.181 43.5536 518.609 44.3006C518.591 44.3016 518.575 44.3026 518.556 44.3036L518.495 43.2546C518.512 43.2536 518.53 43.2526 518.547 43.2516C530.996 42.5126 546.825 36.6406 565.15 29.8436C587.467 21.5656 612.762 12.1836 639.737 9.07263C666.812 5.96963 693.366 12.6646 719.044 19.1436C741.712 24.8636 763.116 30.2646 781.648 27.6196L781.778 28.6606C779.925 28.9256 778.043 29.1106 776.138 29.2246Z" fill="#00B0C7"/>
</g>
<mask id="mask27_279:502" style="mask-type:alpha" maskUnits="userSpaceOnUse" x="0" y="0" width="731" height="92">
<path fill-rule="evenodd" clip-rule="evenodd" d="M0.337157 0.432129V89.0101L0.326172 91.9751C21.629 84.0961 45.4914 75.6361 70.8377 72.7131C97.9157 69.6031 124.468 76.3041 150.148 82.7851C172.765 88.4921 194.129 93.8791 212.626 91.2741V91.2641C212.643 91.2631 212.662 91.2621 212.68 91.2611C225.129 90.5211 240.957 84.6501 259.283 77.8531C281.598 69.5751 306.893 60.1941 333.867 57.0831C360.949 53.9791 387.509 60.6741 413.201 67.1531C435.829 72.8591 457.199 78.2461 475.702 75.6411L475.701 75.6321C475.718 75.6301 475.737 75.6291 475.755 75.6281C488.204 74.8881 504.033 69.0171 522.359 62.2201C544.674 53.9421 569.968 44.5611 596.941 41.4501C624.017 38.3461 650.573 45.0421 676.252 51.5221C695.518 56.3841 713.876 61.0141 730.327 60.6691V55.8591V0.432129" fill="white"/>
</mask>
<g mask="url(#mask27_279:502)">
<path fill-rule="evenodd" clip-rule="evenodd" d="M761.872 40.0173C744.553 41.0473 725.084 36.1343 704.591 30.9623C678.984 24.5003 652.508 17.8113 625.578 20.9103C598.706 24.0103 573.465 33.3733 551.193 41.6333C532.804 48.4553 516.919 54.3473 504.346 55.0943C504.328 55.0953 504.31 55.0963 504.291 55.0973L504.23 54.0483C504.247 54.0473 504.266 54.0463 504.284 54.0453C516.734 53.3053 532.564 47.4333 550.892 40.6353C573.207 32.3583 598.5 22.9773 625.471 19.8653C652.548 16.7603 679.102 23.4573 704.781 29.9373C727.447 35.6573 748.857 41.0593 767.38 38.4133L767.509 39.4543C765.657 39.7193 763.777 39.9043 761.872 40.0173Z" fill="#00B0C7"/>
</g>
<mask id="mask28_279:502" style="mask-type:alpha" maskUnits="userSpaceOnUse" x="0" y="0" width="731" height="92">
<path fill-rule="evenodd" clip-rule="evenodd" d="M0.337157 0.432129V89.0101L0.326172 91.9751C21.629 84.0961 45.4914 75.6361 70.8377 72.7131C97.9157 69.6031 124.468 76.3041 150.148 82.7851C172.765 88.4921 194.129 93.8791 212.626 91.2741V91.2641C212.643 91.2631 212.662 91.2621 212.68 91.2611C225.129 90.5211 240.957 84.6501 259.283 77.8531C281.598 69.5751 306.893 60.1941 333.867 57.0831C360.949 53.9791 387.509 60.6741 413.201 67.1531C435.829 72.8591 457.199 78.2461 475.702 75.6411L475.701 75.6321C475.718 75.6301 475.737 75.6291 475.755 75.6281C488.204 74.8881 504.033 69.0171 522.359 62.2201C544.674 53.9421 569.968 44.5611 596.941 41.4501C624.017 38.3461 650.573 45.0421 676.252 51.5221C695.518 56.3841 713.876 61.0141 730.327 60.6691V55.8591V0.432129" fill="white"/>
</mask>
<g mask="url(#mask28_279:502)">
<path fill-rule="evenodd" clip-rule="evenodd" d="M747.607 50.8084C730.287 51.8374 710.821 46.9244 690.327 41.7534C664.72 35.2914 638.234 28.6124 611.314 31.7034C584.443 34.8024 559.201 44.1644 536.931 52.4244C518.543 59.2454 502.658 65.1364 490.086 65.8834C490.066 65.8854 490.047 65.8864 490.027 65.8874L489.966 64.8384C489.985 64.8374 490.004 64.8364 490.023 64.8344C502.473 64.0954 518.303 58.2244 536.628 51.4264C558.943 43.1504 584.235 33.7694 611.206 30.6584C638.278 27.5534 664.838 34.2494 690.516 40.7294C713.184 46.4484 734.594 51.8514 753.118 49.2034L753.247 50.2444C751.394 50.5094 749.513 50.6944 747.607 50.8084Z" fill="#00B0C7"/>
</g>
<mask id="mask29_279:502" style="mask-type:alpha" maskUnits="userSpaceOnUse" x="0" y="0" width="731" height="92">
<path fill-rule="evenodd" clip-rule="evenodd" d="M0.337157 0.432129V89.0101L0.326172 91.9751C21.629 84.0961 45.4914 75.6361 70.8377 72.7131C97.9157 69.6031 124.468 76.3041 150.148 82.7851C172.765 88.4921 194.129 93.8791 212.626 91.2741V91.2641C212.643 91.2631 212.662 91.2621 212.68 91.2611C225.129 90.5211 240.957 84.6501 259.283 77.8531C281.598 69.5751 306.893 60.1941 333.867 57.0831C360.949 53.9791 387.509 60.6741 413.201 67.1531C435.829 72.8591 457.199 78.2461 475.702 75.6411L475.701 75.6321C475.718 75.6301 475.737 75.6291 475.755 75.6281C488.204 74.8881 504.033 69.0171 522.359 62.2201C544.674 53.9421 569.968 44.5611 596.941 41.4501C624.017 38.3461 650.573 45.0421 676.252 51.5221C695.518 56.3841 713.876 61.0141 730.327 60.6691V55.8591V0.432129" fill="white"/>
</mask>
<g mask="url(#mask29_279:502)">
<path fill-rule="evenodd" clip-rule="evenodd" d="M733.339 61.6014C716.021 62.6304 696.554 57.7184 676.062 52.5474C650.453 46.0844 623.969 39.3994 597.048 42.4964C570.175 45.5944 544.932 54.9574 522.66 63.2184C504.272 70.0394 488.389 75.9304 475.816 76.6774C475.798 76.6784 475.78 76.6794 475.761 76.6804L475.701 75.6314C475.718 75.6304 475.737 75.6294 475.754 75.6284C488.204 74.8884 504.032 69.0174 522.358 62.2204C544.675 53.9424 569.968 44.5614 596.941 41.4504C624.016 38.3464 650.573 45.0424 676.252 51.5224C698.918 57.2424 720.325 62.6404 738.85 59.9964L738.98 61.0374C737.127 61.3034 735.246 61.4884 733.339 61.6014Z" fill="#00B0C7"/>
</g>
<mask id="mask30_279:502" style="mask-type:alpha" maskUnits="userSpaceOnUse" x="0" y="0" width="731" height="92">
<path fill-rule="evenodd" clip-rule="evenodd" d="M0.337157 0.432129V89.0101L0.326172 91.9751C21.629 84.0961 45.4914 75.6361 70.8377 72.7131C97.9157 69.6031 124.468 76.3041 150.148 82.7851C172.765 88.4921 194.129 93.8791 212.626 91.2741V91.2641C212.643 91.2631 212.662 91.2621 212.68 91.2611C225.129 90.5211 240.957 84.6501 259.283 77.8531C281.598 69.5751 306.893 60.1941 333.867 57.0831C360.949 53.9791 387.509 60.6741 413.201 67.1531C435.829 72.8591 457.199 78.2461 475.702 75.6411L475.701 75.6321C475.718 75.6301 475.737 75.6291 475.755 75.6281C488.204 74.8881 504.033 69.0171 522.359 62.2201C544.674 53.9421 569.968 44.5611 596.941 41.4501C624.017 38.3461 650.573 45.0421 676.252 51.5221C695.518 56.3841 713.876 61.0141 730.327 60.6691V55.8591V0.432129" fill="white"/>
</mask>
<!-- <g mask="url(#mask30_279:502)">
<path fill-rule="evenodd" clip-rule="evenodd" d="M748.78 70.6285C731.461 71.6575 711.993 66.7445 691.501 61.5735C665.894 55.1115 639.409 48.4325 612.488 51.5235C585.615 54.6225 560.373 63.9845 538.101 72.2455C519.715 79.0655 503.83 84.9565 491.258 85.7035C491.239 85.7055 491.221 85.7065 491.201 85.7075L491.141 84.6585C491.159 84.6575 491.178 84.6555 491.196 84.6545C503.646 83.9155 519.474 78.0445 537.8 71.2465C560.115 62.9695 585.409 53.5885 612.381 50.4785C639.466 47.3715 666.012 54.0685 691.69 60.5495C714.357 66.2685 735.773 71.6685 754.292 69.0225L754.421 70.0645C752.568 70.3295 750.687 70.5155 748.78 70.6285Z" fill="#00B0C7"/>
</g>
<mask id="mask31_279:502" style="mask-type:alpha" maskUnits="userSpaceOnUse" x="0" y="0" width="731" height="92">
<path fill-rule="evenodd" clip-rule="evenodd" d="M0.337157 0.432129V89.0101L0.326172 91.9751C21.629 84.0961 45.4914 75.6361 70.8377 72.7131C97.9157 69.6031 124.468 76.3041 150.148 82.7851C172.765 88.4921 194.129 93.8791 212.626 91.2741V91.2641C212.643 91.2631 212.662 91.2621 212.68 91.2611C225.129 90.5211 240.957 84.6501 259.283 77.8531C281.598 69.5751 306.893 60.1941 333.867 57.0831C360.949 53.9791 387.509 60.6741 413.201 67.1531C435.829 72.8591 457.199 78.2461 475.702 75.6411L475.701 75.6321C475.718 75.6301 475.737 75.6291 475.755 75.6281C488.204 74.8881 504.033 69.0171 522.359 62.2201C544.674 53.9421 569.968 44.5611 596.941 41.4501C624.017 38.3461 650.573 45.0421 676.252 51.5221C695.518 56.3841 713.876 61.0141 730.327 60.6691V55.8591V0.432129" fill="white"/>
</mask>
<g mask="url(#mask31_279:502)">
<path fill-rule="evenodd" clip-rule="evenodd" d="M764.222 79.6572C746.902 80.6872 727.435 75.7742 706.941 70.6022C681.333 64.1402 654.853 57.4592 627.927 60.5502C601.052 63.6482 575.807 73.0122 553.535 81.2752C535.149 88.0952 519.265 93.9872 506.693 94.7342C506.675 94.7352 506.659 94.7362 506.641 94.7372L506.579 93.6882C506.597 93.6872 506.614 93.6862 506.631 93.6852C519.08 92.9452 534.909 87.0742 553.233 80.2772C575.55 71.9982 600.845 62.6152 627.819 59.5052C654.897 56.4022 681.451 63.0982 707.131 69.5772C729.797 75.2972 751.2 80.7022 769.729 78.0522L769.858 79.0952C768.007 79.3592 766.126 79.5442 764.222 79.6572Z" fill="#00B0C7"/>
</g> -->
</svg>
