<svg width="15" height="20" viewBox="0 0 15 20" fill="none" xmlns="http://www.w3.org/2000/svg">
<mask id="mask0_0:1302" style="mask-type:alpha" maskUnits="userSpaceOnUse" x="0" y="0" width="15" height="20">
<path fill-rule="evenodd" clip-rule="evenodd" d="M0 0H15V20H0V0Z" fill="white"/>
</mask>
<g mask="url(#mask0_0:1302)">
<path fill-rule="evenodd" clip-rule="evenodd" d="M7.49998 10.7554C5.6425 10.7554 4.13647 9.26439 4.13647 7.42536C4.13647 5.58633 5.6425 4.09696 7.49998 4.09696C9.3575 4.09696 10.8618 5.58633 10.8618 7.42536C10.8618 9.26439 9.3575 10.7554 7.49998 10.7554ZM13.6573 3.18653C12.3029 1.2601 10.0505 0 7.49998 0C4.9478 0 2.69547 1.26176 1.34103 3.18819C0.494746 4.39053 0 5.85021 0 7.42536C0 10.5492 1.94744 13.2228 4.70626 14.318C6.15058 17.4567 7.49998 20 7.49998 20C7.49998 20 8.84774 17.4583 10.2904 14.3196C13.0509 13.2244 15 10.5508 15 7.42536C15 5.85021 14.5036 4.38891 13.6573 3.18653Z" fill="white"/>
</g>
</svg>
