<svg width="265" height="43" viewBox="0 0 265 43" fill="none" xmlns="http://www.w3.org/2000/svg">
<path fill-rule="evenodd" clip-rule="evenodd" d="M258.63 27.808C241.286 28.838 221.793 23.925 201.271 18.754C175.628 12.291 149.107 5.61202 122.15 8.70402C95.2417 11.803 69.9657 21.165 47.6647 29.425C29.2517 36.245 13.3457 42.137 0.754742 42.884C0.735742 42.885 0.716742 42.886 0.696742 42.887L0.635742 41.838C0.654742 41.837 0.673742 41.836 0.692742 41.835C13.1597 41.095 29.0117 35.224 47.3617 28.427C69.7077 20.15 95.0337 10.769 122.042 7.65802C149.151 4.55402 175.747 11.249 201.461 17.729C224.159 23.448 245.599 28.851 264.148 26.203L264.277 27.244C262.422 27.509 260.538 27.694 258.63 27.808Z" fill="#00B0C7"/>
<rect x="12" y="7" width="203" height="15" rx="7.5" fill="#676767" fill-opacity="0.692367"/>
<mask id="mask0_277:501" style="mask-type:alpha" maskUnits="userSpaceOnUse" x="12" y="7" width="203" height="15">
<rect x="12" y="7" width="203" height="15" rx="7.5" fill="white"/>
</mask>
<g mask="url(#mask0_277:501)">
</g>
<path d="M147.5 0.5V29.5" stroke="white" stroke-dasharray="5 3"/>
<path d="M79.5 0.5V29.5" stroke="white" stroke-dasharray="5 3"/>
</svg>
