<svg width="887" height="105" viewBox="0 0 887 105" fill="none" xmlns="http://www.w3.org/2000/svg">
<g clip-path="url(#clip0_1_269)">
<path d="M886.64 0H0V104.36H886.64V0Z" fill="#00B0C7"/>
<g opacity="0.3">
<g opacity="0.8">
<path d="M262.23 5.30005C241.07 7.23005 217.06 1.97005 191.78 -3.54995C160.2 -10.46 127.54 -17.6 94.7 -12.78C61.9299 -7.95995 31.4 4.46005 4.45996 15.41C-17.78 24.46 -36.99 32.27 -52.35 33.67C-52.37 33.67 -52.4 33.6701 -52.42 33.68L-52.54 32.4001C-52.52 32.4001 -52.49 32.4 -52.47 32.39C-37.26 31 -18.12 23.22 4.04996 14.2C31.05 3.23005 61.64 -9.21995 94.53 -14.06C127.54 -18.9 160.3 -11.74 191.98 -4.80995C219.94 1.30005 246.35 7.07005 268.92 3.13005L269.12 4.40005C266.86 4.79005 264.56 5.09005 262.23 5.30005Z" fill="#242424"/>
<path d="M281.47 15.73C260.31 17.66 236.3 12.41 211.02 6.88005C179.43 -0.029952 146.77 -7.16995 113.94 -2.34995C81.1697 2.48005 50.6397 14.89 23.7097 25.85C1.42973 34.91 -17.7603 42.73 -33.1703 44.11L-33.2803 42.83C-33.2603 42.83 -33.2403 42.83 -33.2103 42.82C-18.0003 41.43 1.13972 33.65 23.3097 24.63C50.2897 13.66 80.8797 1.22005 113.77 -3.61995C146.79 -8.45995 179.54 -1.29995 211.22 5.62005C239.18 11.73 265.58 17.51 288.16 13.56L288.36 14.83C286.1 15.22 283.8 15.52 281.47 15.73Z" fill="#242424"/>
<path d="M300.72 26.17C279.56 28.1 255.55 22.85 230.27 17.32C198.68 10.41 166.02 3.27004 133.19 8.09004C100.42 12.92 69.8902 25.33 42.9602 36.29C20.7102 45.33 1.5002 53.14 -13.8598 54.54C-13.8798 54.54 -13.9098 54.54 -13.9298 54.55L-14.0498 53.27C-14.0298 53.27 -13.9998 53.27 -13.9798 53.26C1.2302 51.87 20.3702 44.09 42.5402 35.07C69.5302 24.09 100.12 11.65 133.01 6.81004C166.03 1.97004 198.78 9.13004 230.46 16.05C258.42 22.16 284.83 27.94 307.4 23.99L307.6 25.26C305.35 25.66 303.05 25.96 300.72 26.17Z" fill="#242424"/>
<path d="M283.68 39.91C262.52 41.84 238.51 36.59 213.23 31.06C181.64 24.15 148.99 17.01 116.14 21.83C83.3699 26.66 52.8399 39.07 25.8999 50.03C3.66992 59.07 -15.5401 66.89 -30.9001 68.29C-30.9201 68.29 -30.9401 68.29 -30.9701 68.3L-31.0801 67.02C-31.0601 67.02 -31.0401 67.02 -31.0101 67.01C-15.8001 65.62 3.33992 57.84 25.5099 48.82C52.4999 37.84 83.0899 25.4 115.98 20.56C149 15.72 181.75 22.88 213.43 29.8C241.39 35.92 267.8 41.69 290.37 37.74L290.57 39.01C288.3 39.4 286.01 39.7 283.68 39.91Z" fill="#242424"/>
<path d="M266.64 53.65C245.48 55.58 221.47 50.32 196.19 44.8C164.6 37.89 131.93 30.75 99.1101 35.57C66.3401 40.4 35.8101 52.81 8.87012 63.77C-13.3699 72.82 -32.5799 80.63 -47.9399 82.03C-47.9599 82.03 -47.9899 82.03 -48.0099 82.04L-48.1299 80.76C-48.1099 80.76 -48.0799 80.76 -48.0599 80.75C-32.8499 79.36 -13.7099 71.58 8.46012 62.56C35.4501 51.58 66.0401 39.14 98.9301 34.3C131.95 29.45 164.7 36.62 196.38 43.54C224.34 49.65 250.75 55.43 273.32 51.48L273.52 52.75C271.26 53.14 268.97 53.44 266.64 53.65Z" fill="#242424"/>
<path d="M249.59 67.39C228.44 69.32 204.42 64.07 179.14 58.54C147.55 51.63 114.89 44.49 82.0598 49.31C49.2898 54.14 18.7598 66.55 -8.17015 77.51C-30.4101 86.56 -49.6202 94.37 -64.9802 95.77C-65.0002 95.77 -65.0302 95.77 -65.0502 95.78L-65.1602 94.5C-65.1402 94.5 -65.1101 94.49 -65.0901 94.49C-49.8801 93.1 -30.7402 85.32 -8.57015 76.3C18.4099 65.32 48.9998 52.88 81.8898 48.04C114.9 43.2 147.66 50.36 179.34 57.29C207.3 63.4 233.71 69.18 256.28 65.23L256.48 66.5C254.22 66.88 251.92 67.18 249.59 67.39Z" fill="#242424"/>
<path d="M268.84 77.83C247.68 79.76 223.67 74.51 198.39 68.98C166.8 62.07 134.13 54.93 101.31 59.75C68.5403 64.57 38.0003 76.99 11.0703 87.94C-11.1697 96.99 -30.3797 104.8 -45.7397 106.2C-45.7597 106.2 -45.7897 106.2 -45.8097 106.21L-45.9297 104.93C-45.9097 104.93 -45.8797 104.93 -45.8597 104.92C-30.6497 103.53 -11.5097 95.75 10.6603 86.73C37.6503 75.75 68.2403 63.31 101.13 58.47C134.15 53.63 166.9 60.79 198.58 67.71C226.54 73.82 252.96 79.6 275.52 75.65L275.72 76.92C273.46 77.32 271.17 77.62 268.84 77.83Z" fill="#242424"/>
<path d="M288.08 88.27C266.92 90.2 242.91 84.95 217.63 79.42C186.04 72.51 153.38 65.37 120.55 70.19C87.7796 75.02 57.2496 87.43 30.3096 98.39C8.06957 107.44 -11.1404 115.25 -26.5004 116.65C-26.5204 116.65 -26.5404 116.65 -26.5704 116.66L-26.6904 115.38C-26.6704 115.38 -26.6504 115.38 -26.6304 115.37C-11.4204 113.98 7.71957 106.2 29.8896 97.18C56.8796 86.2 87.4696 73.76 120.37 68.92C153.39 64.08 186.14 71.24 217.82 78.17C245.78 84.28 272.19 90.06 294.76 86.11L294.96 87.38C292.7 87.76 290.41 88.06 288.08 88.27Z" fill="#242424"/>
<path d="M307.33 98.7C286.17 100.63 262.16 95.38 236.88 89.85C205.29 82.94 172.63 75.8 139.8 80.62C107.03 85.45 76.5003 97.86 49.5603 108.82C27.3203 117.87 8.11031 125.68 -7.24969 127.08C-7.26969 127.08 -7.29969 127.08 -7.31969 127.09L-7.42969 125.81C-7.40969 125.81 -7.37969 125.81 -7.35969 125.8C7.85031 124.41 26.9903 116.63 49.1603 107.61C76.1503 96.63 106.74 84.19 139.63 79.34C172.65 74.5 205.4 81.66 237.08 88.58C265.04 94.69 291.45 100.47 314.02 96.52L314.22 97.79C311.95 98.19 309.66 98.49 307.33 98.7Z" fill="#242424"/>
<path d="M290.28 112.44C269.12 114.37 245.11 109.12 219.83 103.59C188.24 96.68 155.58 89.54 122.75 94.36C89.9795 99.18 59.4495 111.6 32.5095 122.56C10.2695 131.6 -8.94047 139.42 -24.3005 140.82C-24.3205 140.82 -24.3405 140.82 -24.3705 140.83L-24.4805 139.55C-24.4605 139.55 -24.4405 139.55 -24.4105 139.54C-9.20047 138.15 9.93953 130.37 32.1095 121.35C59.0995 110.37 89.6895 97.93 122.58 93.09C155.6 88.24 188.35 95.41 220.03 102.33C247.99 108.44 274.4 114.22 296.96 110.27L297.16 111.54C294.91 111.93 292.61 112.23 290.28 112.44Z" fill="#242424"/>
<path d="M273.239 126.19C252.079 128.12 228.069 122.87 202.789 117.34C171.199 110.43 138.549 103.29 105.709 108.11C72.9395 112.94 42.4095 125.35 15.4795 136.31C-6.76051 145.36 -25.9705 153.17 -41.3305 154.57C-41.3505 154.57 -41.3805 154.57 -41.4005 154.58L-41.5205 153.3C-41.5005 153.3 -41.4705 153.29 -41.4505 153.29C-26.2405 151.9 -7.10051 144.12 15.0695 135.1C42.0595 124.12 72.6495 111.68 105.539 106.84C138.549 102 171.31 109.16 202.99 116.08C230.949 122.19 257.359 127.97 279.929 124.02L280.129 125.29C277.869 125.67 275.569 125.97 273.239 126.19Z" fill="#242424"/>
<path d="M583.59 -23.97C562.43 -22.04 538.4 -27.29 513.11 -32.82C481.51 -39.73 448.83 -46.87 416 -42.05C383.23 -37.22 352.7 -24.81 325.76 -13.85C303.52 -4.79997 284.31 3.01003 268.95 4.41003C268.93 4.41003 268.9 4.41003 268.88 4.42003L268.76 3.14003C268.78 3.14003 268.81 3.14003 268.83 3.13003C284.04 1.74003 303.18 -6.03997 325.35 -15.06C352.34 -26.04 382.93 -38.48 415.82 -43.33C448.83 -48.17 481.61 -41.01 513.3 -34.09C541.28 -27.98 567.69 -22.21 590.27 -26.15L590.47 -24.88C588.21 -24.48 585.91 -24.18 583.59 -23.97Z" fill="#242424"/>
<path d="M602.83 -13.53C581.67 -11.6 557.66 -16.85 532.37 -22.38C500.77 -29.29 468.09 -36.43 435.24 -31.61C402.47 -26.78 371.94 -14.37 345.01 -3.40996C322.77 5.64004 303.56 13.45 288.2 14.85C288.18 14.85 288.15 14.85 288.13 14.86L288.02 13.58C288.04 13.58 288.07 13.58 288.09 13.57C303.3 12.18 322.44 4.40004 344.61 -4.61996C371.6 -15.6 402.19 -28.04 435.08 -32.88C468.12 -37.72 500.88 -30.56 532.57 -23.64C560.54 -17.53 586.95 -11.75 609.52 -15.7L609.72 -14.43C607.45 -14.05 605.15 -13.75 602.83 -13.53Z" fill="#242424"/>
<path d="M622.07 -3.09999C600.91 -1.16999 576.9 -6.41999 551.63 -11.95C520.03 -18.86 487.35 -26.01 454.48 -21.18C421.71 -16.35 391.18 -3.93999 364.24 7.02001C342 16.06 322.79 23.88 307.43 25.28C307.4 25.28 307.38 25.28 307.36 25.29L307.25 24.01C307.27 24.01 307.3 24.01 307.32 24C322.53 22.61 341.67 14.83 363.84 5.81001C390.83 -5.16999 421.42 -17.61 454.31 -22.45C487.36 -27.3 520.13 -20.14 551.82 -13.21C579.78 -7.09999 606.18 -1.32999 628.75 -5.27999L628.95 -4.00999C626.7 -3.60999 624.4 -3.30999 622.07 -3.09999Z" fill="#242424"/>
<path d="M605.03 10.64C583.87 12.57 559.86 7.32001 534.57 1.79001C502.97 -5.11999 470.29 -12.26 437.44 -7.43999C404.67 -2.60999 374.14 9.80001 347.21 20.76C324.97 29.81 305.76 37.62 290.4 39.02C290.38 39.02 290.35 39.02 290.33 39.03L290.21 37.75C290.23 37.75 290.26 37.74 290.28 37.74C305.49 36.35 324.63 28.57 346.8 19.55C373.79 8.57001 404.38 -3.86999 437.27 -8.70999C470.31 -13.56 503.07 -6.38999 534.77 0.53001C562.74 6.64001 589.15 12.42 611.72 8.47001L611.92 9.74001C609.65 10.13 607.36 10.43 605.03 10.64Z" fill="#242424"/>
<path d="M587.99 24.39C566.83 26.32 542.8 21.07 517.51 15.54C485.91 8.63001 453.23 1.49001 420.4 6.31001C387.63 11.14 357.1 23.55 330.17 34.51C307.93 43.56 288.72 51.37 273.36 52.77C273.34 52.77 273.31 52.78 273.29 52.78L273.17 51.5C273.19 51.5 273.22 51.5 273.24 51.49C288.45 50.1 307.59 42.32 329.76 33.3C356.75 22.32 387.34 9.88001 420.23 5.04001C453.25 0.19001 486.01 7.36001 517.71 14.28C545.68 20.39 572.1 26.17 594.68 22.22L594.88 23.49C592.61 23.87 590.32 24.17 587.99 24.39Z" fill="#242424"/>
<path d="M570.94 38.13C549.78 40.06 525.76 34.81 500.47 29.28C468.87 22.37 436.19 15.23 403.36 20.05C370.59 24.88 340.06 37.29 313.13 48.25C290.89 57.3 271.68 65.11 256.32 66.51C256.3 66.51 256.27 66.51 256.25 66.52L256.13 65.24C256.15 65.24 256.18 65.24 256.2 65.23C271.41 63.84 290.55 56.06 312.72 47.04C339.71 36.06 370.3 23.62 403.19 18.78C436.2 13.94 468.97 21.1 500.67 28.02C528.65 34.13 555.07 39.9 577.64 35.96L577.84 37.23C575.57 37.62 573.27 37.91 570.94 38.13Z" fill="#242424"/>
<path d="M590.189 48.56C569.029 50.49 544.999 45.24 519.709 39.71C488.109 32.8 455.429 25.66 422.599 30.48C389.829 35.31 359.299 47.72 332.359 58.68C310.119 67.73 290.909 75.54 275.549 76.94C275.529 76.94 275.499 76.95 275.479 76.95L275.359 75.67C275.379 75.67 275.409 75.67 275.429 75.66C290.639 74.27 309.779 66.49 331.949 57.47C358.939 46.49 389.529 34.05 422.419 29.21C455.439 24.37 488.209 31.53 519.899 38.45C547.869 44.56 574.289 50.34 596.869 46.39L597.069 47.66C594.819 48.05 592.519 48.35 590.189 48.56Z" fill="#242424"/>
<path d="M609.439 59C588.279 60.93 564.259 55.68 538.979 50.15C507.379 43.24 474.699 36.1 441.849 40.92C409.079 45.75 378.549 58.16 351.609 69.12C329.369 78.17 310.159 85.98 294.799 87.38C294.779 87.38 294.759 87.38 294.729 87.39L294.609 86.11C294.629 86.11 294.649 86.11 294.669 86.1C309.879 84.71 329.019 76.93 351.189 67.91C378.179 56.93 408.769 44.49 441.659 39.65C474.699 34.81 507.459 41.97 539.159 48.89C567.129 55 593.539 60.78 616.109 56.83L616.309 58.1C614.059 58.49 611.759 58.79 609.439 59Z" fill="#242424"/>
<path d="M628.68 69.44C607.52 71.37 583.51 66.12 558.23 60.59C526.63 53.68 493.95 46.54 461.08 51.36C428.31 56.19 397.78 68.6 370.84 79.56C348.6 88.61 329.39 96.42 314.03 97.82C314.01 97.82 313.98 97.83 313.96 97.83L313.84 96.55C313.86 96.55 313.89 96.55 313.91 96.54C329.12 95.15 348.26 87.37 370.43 78.35C397.42 67.37 428.01 54.93 460.9 50.09C493.95 45.24 526.72 52.4 558.42 59.33C586.38 65.44 612.78 71.22 635.35 67.26L635.55 68.53C633.31 68.92 631.01 69.22 628.68 69.44Z" fill="#242424"/>
<path d="M611.63 83.18C590.48 85.11 566.46 79.86 541.17 74.33C509.57 67.42 476.89 60.28 444.04 65.1C411.27 69.93 380.74 82.34 353.8 93.3C331.56 102.34 312.35 110.16 296.99 111.56C296.97 111.56 296.95 111.56 296.92 111.57L296.81 110.29C296.83 110.29 296.85 110.29 296.88 110.28C312.09 108.89 331.23 101.11 353.4 92.09C380.39 81.11 410.98 68.67 443.87 63.83C476.9 58.98 509.67 66.14 541.37 73.07C569.34 79.18 595.75 84.95 618.32 81.01L618.52 82.28C616.26 82.67 613.96 82.97 611.63 83.18Z" fill="#242424"/>
<path d="M594.59 96.92C573.43 98.85 549.4 93.6 524.11 88.07C492.51 81.16 459.83 74.02 427 78.84C394.23 83.67 363.7 96.08 336.77 107.04C314.53 116.09 295.32 123.9 279.96 125.3C279.94 125.3 279.91 125.3 279.89 125.31L279.77 124.03C279.79 124.03 279.82 124.03 279.84 124.02C295.05 122.63 314.19 114.85 336.36 105.83C363.35 94.85 393.94 82.41 426.83 77.57C459.84 72.73 492.61 79.88 524.31 86.81C552.29 92.92 578.7 98.69 601.28 94.74L601.48 96.01C599.22 96.41 596.92 96.71 594.59 96.92Z" fill="#242424"/>
<path d="M577.56 110.66C556.4 112.59 532.38 107.34 507.09 101.81C475.49 94.9 442.8 87.75 409.97 92.58C377.2 97.41 346.67 109.82 319.73 120.78C297.49 129.83 278.28 137.64 262.92 139.04C262.9 139.04 262.88 139.04 262.86 139.05L262.75 137.77C262.77 137.77 262.79 137.77 262.81 137.76C278.02 136.38 297.16 128.59 319.33 119.57C346.32 108.59 376.92 96.15 409.81 91.3C442.83 86.46 475.6 93.62 507.29 100.54C535.26 106.65 561.68 112.43 584.25 108.48L584.45 109.75C582.18 110.15 579.88 110.45 577.56 110.66Z" fill="#242424"/>
<path d="M596.8 121.1C575.64 123.03 551.61 117.78 526.32 112.25C494.72 105.34 462.03 98.2 429.21 103.02C396.44 107.85 365.91 120.26 338.97 131.22C316.73 140.26 297.52 148.08 282.16 149.48C282.14 149.48 282.12 149.48 282.1 149.49L281.99 148.21C282.01 148.21 282.03 148.21 282.05 148.2C297.26 146.81 316.4 139.03 338.57 130.01C365.56 119.03 396.15 106.59 429.05 101.74C462.07 96.89 494.84 104.06 526.53 110.98C554.5 117.09 580.93 122.87 603.5 118.92L603.7 120.19C601.42 120.59 599.13 120.89 596.8 121.1Z" fill="#242424"/>
<path d="M926.33 -18.62C905.17 -16.69 881.16 -21.94 855.88 -27.47C824.29 -34.38 791.62 -41.52 758.79 -36.7C726.02 -31.87 695.49 -19.46 668.55 -8.49999C646.31 0.540012 627.1 8.36001 611.74 9.76001C611.72 9.76001 611.7 9.76001 611.67 9.77001L611.56 8.49001C611.58 8.49001 611.6 8.49001 611.63 8.48001C626.84 7.09001 645.98 -0.689987 668.15 -9.70999C695.14 -20.69 725.73 -33.13 758.62 -37.97C791.64 -42.81 824.39 -35.65 856.07 -28.73C884.03 -22.61 910.44 -16.84 933.01 -20.79L933.21 -19.52C930.95 -19.13 928.65 -18.83 926.33 -18.62Z" fill="#242424"/>
<path d="M909.28 -4.88C888.12 -2.95 864.11 -8.21 838.83 -13.73C807.24 -20.64 774.59 -27.79 741.75 -22.96C708.98 -18.13 678.45 -5.72 651.52 5.24C629.28 14.29 610.07 22.1 594.71 23.5C594.69 23.5 594.66 23.5 594.64 23.51L594.53 22.23C594.55 22.23 594.57 22.23 594.6 22.22C609.81 20.83 628.95 13.05 651.12 4.03C678.11 -6.95 708.7 -19.39 741.59 -24.23C774.6 -29.07 807.36 -21.91 839.04 -14.98C867 -8.87 893.39 -3.08999 915.98 -7.04L916.18 -5.77C913.91 -5.39 911.61 -5.08999 909.28 -4.88Z" fill="#242424"/>
<path d="M892.24 8.85999C871.08 10.79 847.07 5.54 821.79 0.00999451C790.2 -6.90001 757.55 -14.05 724.71 -9.22001C691.94 -4.39001 661.41 8.01999 634.48 18.98C612.24 28.03 593.03 35.84 577.67 37.24C577.65 37.24 577.62 37.24 577.6 37.25L577.49 35.97C577.51 35.97 577.54 35.96 577.56 35.96C592.77 34.57 611.91 26.79 634.08 17.77C661.07 6.79 691.66 -5.65 724.55 -10.49C757.56 -15.33 790.32 -8.17001 822 -1.24001C849.96 4.87999 876.38 10.64 898.94 6.7L899.14 7.96999C896.87 8.34999 894.57 8.65 892.24 8.85999Z" fill="#242424"/>
<path d="M911.49 19.3C890.329 21.23 866.319 15.98 841.039 10.45C809.449 3.54004 776.78 -3.59996 743.96 1.22004C711.19 6.05004 680.659 18.46 653.719 29.42C631.479 38.47 612.269 46.28 596.909 47.68C596.889 47.68 596.87 47.68 596.84 47.69L596.729 46.41C596.749 46.41 596.769 46.41 596.799 46.4C612.009 45.01 631.15 37.23 653.32 28.21C680.31 17.23 710.899 4.79004 743.789 -0.0499556C776.809 -4.89996 809.56 2.27004 841.24 9.19004C869.199 15.3 895.609 21.08 918.18 17.13L918.38 18.4C916.11 18.79 913.819 19.09 911.49 19.3Z" fill="#242424"/>
<path d="M930.73 29.74C909.57 31.67 885.56 26.42 860.28 20.89C828.69 13.98 796.02 6.84 763.19 11.66C730.42 16.49 699.89 28.9 672.95 39.86C650.71 48.9 631.5 56.72 616.14 58.12C616.12 58.12 616.1 58.12 616.08 58.13L615.96 56.85C615.98 56.85 616 56.85 616.02 56.84C631.23 55.45 650.37 47.67 672.54 38.65C699.53 27.67 730.12 15.23 763.01 10.39C796.03 5.55 828.78 12.71 860.46 19.64C888.42 25.75 914.83 31.53 937.4 27.58L937.6 28.85C935.35 29.23 933.06 29.53 930.73 29.74Z" fill="#242424"/>
<path d="M949.98 40.17C928.82 42.1 904.8 36.85 879.53 31.32C847.94 24.41 815.27 17.27 782.45 22.09C749.68 26.92 719.15 39.33 692.21 50.29C669.97 59.34 650.76 67.15 635.4 68.55C635.38 68.55 635.36 68.55 635.33 68.56L635.22 67.28C635.24 67.28 635.26 67.28 635.29 67.27C650.5 65.88 669.64 58.1 691.81 49.08C718.8 38.1 749.39 25.66 782.28 20.81C815.3 15.96 848.05 23.13 879.73 30.05C907.69 36.16 934.11 41.94 956.67 37.99L956.87 39.26C954.6 39.66 952.31 39.96 949.98 40.17Z" fill="#242424"/>
<path d="M932.93 53.92C911.78 55.85 887.76 50.6 862.48 45.07C830.89 38.16 798.24 31.02 765.4 35.84C732.63 40.67 702.1 53.08 675.16 64.04C652.92 73.08 633.71 80.9 618.35 82.3C618.33 82.3 618.31 82.3 618.28 82.31L618.17 81.03C618.19 81.03 618.21 81.03 618.24 81.02C633.45 79.63 652.59 71.85 674.76 62.83C701.75 51.85 732.34 39.41 765.23 34.57C798.24 29.72 831 36.89 862.68 43.81C890.64 49.92 917.04 55.7 939.62 51.75L939.82 53.02C937.55 53.4 935.26 53.7 932.93 53.92Z" fill="#242424"/>
<path d="M915.89 67.66C894.73 69.59 870.72 64.34 845.44 58.81C813.85 51.9 781.19 44.76 748.36 49.58C715.59 54.41 685.06 66.82 658.13 77.78C635.89 86.83 616.68 94.64 601.32 96.04C601.3 96.04 601.27 96.04 601.25 96.05L601.14 94.77C601.16 94.77 601.19 94.76 601.21 94.76C616.42 93.37 635.57 85.59 657.73 76.57C684.72 65.59 715.31 53.15 748.2 48.31C781.21 43.47 813.97 50.63 845.65 57.55C873.61 63.66 900 69.43 922.59 65.49L922.79 66.76C920.51 67.14 918.22 67.44 915.89 67.66Z" fill="#242424"/>
<path d="M898.85 81.4C877.69 83.33 853.68 78.08 828.4 72.55C796.81 65.64 764.14 58.5 731.31 63.32C698.54 68.15 668.01 80.56 641.07 91.52C618.83 100.56 599.62 108.38 584.26 109.78C584.24 109.78 584.22 109.78 584.2 109.79L584.08 108.51C584.1 108.51 584.12 108.51 584.14 108.5C599.35 107.11 618.49 99.33 640.66 90.31C667.65 79.33 698.25 66.89 731.14 62.04C764.16 57.2 796.92 64.36 828.6 71.29C856.56 77.4 882.97 83.18 905.53 79.23L905.73 80.5C903.48 80.89 901.18 81.19 898.85 81.4Z" fill="#242424"/>
<path d="M918.1 91.83C896.94 93.76 872.93 88.51 847.65 82.98C816.06 76.07 783.4 68.92 750.57 73.75C717.8 78.58 687.27 90.99 660.33 101.95C638.09 110.99 618.88 118.81 603.52 120.21C603.5 120.21 603.48 120.21 603.46 120.22L603.34 118.94C603.36 118.94 603.38 118.94 603.4 118.93C618.61 117.54 637.75 109.76 659.92 100.74C686.91 89.76 717.51 77.32 750.39 72.48C783.4 67.64 816.16 74.8 847.84 81.73C875.8 87.84 902.21 93.62 924.78 89.67L924.98 90.94C922.72 91.32 920.42 91.62 918.1 91.83Z" fill="#242424"/>
<path d="M937.34 102.27C916.18 104.2 892.17 98.95 866.89 93.42C835.3 86.51 802.64 79.36 769.8 84.19C737.03 89.02 706.5 101.43 679.57 112.39C657.33 121.44 638.12 129.25 622.76 130.65C622.74 130.65 622.72 130.65 622.69 130.66L622.58 129.38C622.6 129.38 622.63 129.38 622.65 129.37C637.86 127.98 657 120.2 679.17 111.18C706.16 100.2 736.75 87.76 769.64 82.91C802.66 78.07 835.41 85.23 867.09 92.16C895.05 98.27 921.45 104.05 944.03 100.1L944.23 101.37C941.96 101.76 939.67 102.06 937.34 102.27Z" fill="#242424"/>
<path d="M956.58 112.71C935.42 114.64 911.41 109.39 886.13 103.86C854.54 96.95 821.87 89.81 789.05 94.63C756.28 99.46 725.75 111.87 698.81 122.83C676.57 131.87 657.36 139.69 642 141.09C641.98 141.09 641.96 141.09 641.93 141.1L641.81 139.82C641.83 139.82 641.86 139.82 641.88 139.81C657.09 138.42 676.23 130.64 698.4 121.62C725.39 110.64 755.98 98.2 788.87 93.36C821.89 88.52 854.64 95.68 886.32 102.6C914.28 108.71 940.69 114.49 963.26 110.54L963.46 111.81C961.2 112.2 958.91 112.5 956.58 112.71Z" fill="#242424"/>
</g>
</g>
</g>
<defs>
<clipPath id="clip0_1_269">
<rect width="886.64" height="104.36" fill="white"/>
</clipPath>
</defs>
</svg>
