<svg width="1228" height="162" viewBox="0 0 1228 162" fill="none" xmlns="http://www.w3.org/2000/svg">
<g clip-path="url(#clip0_1_167)">
<path d="M1228 78.21C1211.55 75.42 1194.36 71.2 1176.72 66.87C1134.36 56.46 1090.56 45.71 1046.13 51.07C1001.78 56.45 960.19 72.14 923.49 85.98C893.29 97.37 867.19 107.21 846.47 108.62C843.41 109.08 840.3 109.4 837.16 109.61C808.57 111.48 776.36 103.57 742.46 95.25C700.08 84.85 656.26 74.09 611.8 79.45C567.45 84.83 525.85 100.52 489.16 114.36C458.96 125.75 432.86 135.59 412.14 137C409.08 137.46 405.97 137.78 402.83 137.99C374.24 139.86 342.04 131.95 308.14 123.62C265.78 113.22 221.99 102.46 177.55 107.82C133.2 113.2 91.61 128.89 54.91 142.73C34.64 150.38 16.21 157.33 0.0200195 161.5V153.39V0H1228.02V66.75V78.21H1228Z" fill="#242424"/>
<g opacity="0.5">
<g opacity="0.5">
<path d="M368.7 -7.46C340.1 -5.6 307.9 -13.51 274 -21.83C231.64 -32.23 187.84 -43 143.41 -37.63C99.06 -32.26 57.46 -16.56 20.76 -2.72C-9.53998 8.71 -35.72 18.58 -56.47 19.94C-56.5 19.94 -56.53 19.94 -56.56 19.95L-56.67 18.22C-56.64 18.22 -56.61 18.22 -56.58 18.21C-36.04 16.87 -9.94999 7.03 20.25 -4.36C57.02 -18.23 98.71 -33.95 143.22 -39.35C187.92 -44.74 231.83 -33.96 274.31 -23.52C311.8 -14.31 347.22 -5.61 377.78 -10.16L378 -8.44C374.95 -8 371.84 -7.67 368.7 -7.46Z" fill="#00B0C7"/>
<path d="M394.28 7.27C365.69 9.14 333.48 1.23 299.59 -7.1C257.24 -17.5 213.44 -28.26 169 -22.9C124.65 -17.52 83.05 -1.83 46.34 12.02C16.04 23.45 -10.14 33.32 -30.9 34.68C-30.93 34.68 -30.96 34.68 -30.99 34.68L-31.1 32.95C-31.07 32.95 -31.04 32.95 -31.01 32.94C-10.46 31.6 15.63 21.76 45.83 10.37C82.61 -3.5 124.29 -19.23 168.8 -24.62C213.49 -30.01 257.41 -19.22 299.89 -8.79C337.38 0.420001 372.79 9.12 403.36 4.57L403.58 6.29C400.53 6.74 397.43 7.07 394.28 7.27Z" fill="#00B0C7"/>
<path d="M419.88 22.01C391.28 23.88 359.08 15.97 325.18 7.64C282.83 -2.76 239.02 -13.52 194.59 -8.16C150.24 -2.78 108.64 12.91 71.94 26.75C41.64 38.18 15.46 48.06 -5.3 49.41C-5.33 49.41 -5.36 49.41 -5.39 49.42L-5.5 47.69C-5.47 47.69 -5.44 47.69 -5.41 47.68C15.14 46.34 41.23 36.5 71.43 25.11C108.2 11.24 149.88 -4.48 194.4 -9.88C239.09 -15.27 283.01 -4.49 325.48 5.95C362.97 15.16 398.39 23.86 428.96 19.31L429.19 21.03C426.13 21.48 423.02 21.8 419.88 22.01Z" fill="#00B0C7"/>
<path d="M396.42 39.95C367.83 41.82 335.63 33.91 301.73 25.58C259.37 15.18 215.58 4.41 171.14 9.78C126.79 15.16 85.19 30.85 48.49 44.69C18.18 56.12 -8.00001 66 -28.75 67.35C-28.78 67.35 -28.81 67.35 -28.84 67.36L-28.95 65.63C-28.92 65.63 -28.89 65.63 -28.86 65.62C-8.31001 64.28 17.78 54.44 47.98 43.05C84.75 29.18 126.44 13.46 170.95 8.06C215.64 2.66 259.56 13.45 302.04 23.89C339.53 33.1 374.95 41.79 405.51 37.25L405.73 38.97C402.67 39.42 399.56 39.74 396.42 39.95Z" fill="#00B0C7"/>
<path d="M372.96 57.89C344.36 59.76 312.17 51.85 278.27 43.52C235.92 33.12 192.12 22.36 147.68 27.72C103.33 33.1 61.73 48.79 25.03 62.63C-5.26997 74.06 -31.45 83.93 -52.2 85.29C-52.23 85.29 -52.27 85.29 -52.3 85.3L-52.41 83.57C-52.38 83.57 -52.35 83.57 -52.31 83.56C-31.76 82.22 -5.66997 72.38 24.53 60.99C61.3 47.12 102.98 31.4 147.49 26C192.17 20.61 236.1 31.39 278.57 41.83C316.06 51.04 351.48 59.73 382.05 55.19L382.27 56.91C379.22 57.36 376.11 57.68 372.96 57.89Z" fill="#00B0C7"/>
<path d="M349.52 75.83C320.93 77.7 288.73 69.79 254.83 61.46C212.47 51.05 168.67 40.3 124.23 45.66C79.87 51.04 38.27 66.73 1.57001 80.58C-28.73 92.01 -54.91 101.88 -75.66 103.24C-75.69 103.24 -75.72 103.24 -75.75 103.25L-75.86 101.52C-75.83 101.52 -75.8 101.52 -75.78 101.52C-55.23 100.18 -29.14 90.34 1.06001 78.95C37.84 65.08 79.52 49.35 124.04 43.96C168.74 38.57 212.65 49.36 255.13 59.79C292.62 69 328.03 77.7 358.59 73.15L358.81 74.87C355.77 75.3 352.66 75.63 349.52 75.83Z" fill="#00B0C7"/>
<path d="M375.1 90.57C346.5 92.44 314.3 84.53 280.4 76.2C238.05 65.8 194.25 55.03 149.81 60.4C105.46 65.78 63.86 81.47 27.15 95.31C-3.14997 106.74 -29.33 116.61 -50.09 117.97C-50.12 117.97 -50.15 117.97 -50.17 117.98L-50.28 116.25C-50.25 116.25 -50.22 116.25 -50.2 116.25C-29.65 114.91 -3.55997 105.07 26.64 93.68C63.42 79.81 105.1 64.08 149.62 58.69C194.31 53.29 238.23 64.09 280.71 74.52C318.2 83.73 353.63 92.43 384.18 87.88L384.4 89.6C381.35 90.04 378.25 90.37 375.1 90.57Z" fill="#00B0C7"/>
<path d="M400.69 105.31C372.09 107.18 339.9 99.27 306 90.94C263.64 80.53 219.84 69.77 175.4 75.14C131.05 80.52 89.46 96.21 52.76 110.05C22.46 121.48 -3.71999 131.36 -24.48 132.71C-24.51 132.71 -24.54 132.72 -24.57 132.72L-24.68 130.99C-24.65 130.99 -24.62 130.99 -24.59 130.98C-4.02999 129.64 22.05 119.8 52.26 108.4C89.03 94.53 130.71 78.81 175.22 73.41C219.9 68.02 263.83 78.81 306.31 89.24C343.8 98.45 379.21 107.15 409.78 102.6L410 104.32C406.94 104.78 403.84 105.11 400.69 105.31Z" fill="#00B0C7"/>
<path d="M426.28 120.04C397.68 121.91 365.48 114 331.58 105.67C289.23 95.27 245.44 84.5 200.99 89.87C156.64 95.25 115.04 110.94 78.34 124.78C48.04 136.21 21.86 146.08 1.10002 147.44C1.07002 147.44 1.04002 147.44 1.01002 147.45L0.900024 145.72C0.930024 145.72 0.960024 145.72 0.990024 145.71C21.54 144.37 47.63 134.53 77.83 123.14C114.6 109.27 156.28 93.55 200.8 88.15C245.48 82.76 289.41 93.54 331.88 103.98C369.37 113.19 404.79 121.89 435.36 117.34L435.58 119.06C432.53 119.51 429.43 119.84 426.28 120.04Z" fill="#00B0C7"/>
<path d="M402.82 137.99C374.23 139.86 342.03 131.95 308.13 123.62C265.77 113.22 221.98 102.46 177.54 107.82C133.19 113.2 91.59 128.89 54.9 142.73C24.6 154.16 -1.57999 164.03 -22.34 165.39C-22.37 165.39 -22.4 165.39 -22.44 165.4L-22.55 163.67C-2.04999 162.34 24.14 152.5 54.39 141.09C91.16 127.22 132.84 111.5 177.35 106.1C222.04 100.71 265.96 111.49 308.43 121.93C345.92 131.14 381.34 139.83 411.9 135.29L412.12 137.01C409.07 137.46 405.96 137.78 402.82 137.99Z" fill="#00B0C7"/>
<path d="M828.62 -21.1C800.03 -19.23 767.82 -27.14 733.91 -35.46C691.53 -45.86 647.71 -56.62 603.25 -51.26C558.9 -45.89 517.3 -30.2 480.6 -16.36C450.3 -4.93 424.12 4.94 403.36 6.3C403.33 6.3 403.3 6.3 403.27 6.31L403.16 4.58C403.19 4.58 403.22 4.58 403.25 4.57C423.81 3.23 449.89 -6.61 480.09 -18C516.87 -31.87 558.55 -47.6 603.06 -52.99C647.78 -58.38 691.71 -47.6 734.21 -37.16C771.71 -27.95 807.12 -19.26 837.69 -23.81L837.91 -22.09C834.87 -21.63 831.76 -21.31 828.62 -21.1Z" fill="#00B0C7"/>
<path d="M854.21 -6.37C825.62 -4.5 793.42 -12.41 759.53 -20.73C717.15 -31.14 673.33 -41.9 628.85 -36.53C584.5 -31.15 542.9 -15.46 506.2 -1.62C475.9 9.81 449.72 19.68 428.97 21.04C428.94 21.04 428.91 21.04 428.88 21.05L428.77 19.32C428.8 19.32 428.83 19.32 428.86 19.31C449.41 17.97 475.5 8.13 505.7 -3.26C542.47 -17.13 584.15 -32.85 628.67 -38.25C673.41 -43.65 717.35 -32.86 759.84 -22.42C797.33 -13.21 832.73 -4.52 863.3 -9.07L863.52 -7.35C860.46 -6.9 857.36 -6.57 854.21 -6.37Z" fill="#00B0C7"/>
<path d="M830.75 11.57C802.16 13.44 769.95 5.53 736.05 -2.79C693.67 -13.19 649.86 -23.95 605.39 -18.59C561.04 -13.21 519.44 2.48 482.74 16.32C452.44 27.75 426.26 37.62 405.51 38.98C405.48 38.98 405.45 38.98 405.42 38.99L405.31 37.26C405.34 37.26 405.37 37.26 405.4 37.25C425.95 35.91 452.04 26.07 482.24 14.68C519.02 0.810004 560.7 -14.91 605.21 -20.31C649.92 -25.72 693.86 -14.92 736.36 -4.48C773.86 4.73 809.27 13.42 839.84 8.88L840.06 10.6C837 11.04 833.9 11.37 830.75 11.57Z" fill="#00B0C7"/>
<path d="M807.3 29.51C778.7 31.38 746.48 23.47 712.57 15.14C670.19 4.74 626.38 -6.02 581.94 -0.65C537.59 4.73 495.99 20.42 459.29 34.26C428.99 45.69 402.81 55.56 382.06 56.92C382.03 56.92 382 56.92 381.96 56.93L381.85 55.2C381.88 55.2 381.91 55.2 381.95 55.19C402.5 53.85 428.59 44.01 458.79 32.62C495.56 18.75 537.24 3.03 581.76 -2.37C626.44 -7.76 670.39 3.02 712.88 13.46C750.39 22.67 785.82 31.36 816.39 26.82L816.61 28.54C813.55 28.98 810.44 29.31 807.3 29.51Z" fill="#00B0C7"/>
<path d="M783.85 47.46C755.25 49.33 723.04 41.42 689.12 33.09C646.74 22.69 602.91 11.92 558.48 17.29C514.12 22.67 472.52 38.36 435.82 52.2C405.52 63.63 379.34 73.5 358.59 74.86C358.56 74.86 358.53 74.86 358.5 74.87L358.39 73.14C358.42 73.14 358.45 73.14 358.47 73.13C379.02 71.79 405.11 61.95 435.31 50.56C472.09 36.69 513.77 20.96 558.29 15.57C602.98 10.18 646.93 20.96 689.42 31.4C726.93 40.61 762.35 49.31 792.92 44.76L793.14 46.48C790.1 46.93 787 47.25 783.85 47.46Z" fill="#00B0C7"/>
<path d="M809.44 62.19C780.84 64.06 748.62 56.15 714.71 47.82C672.33 37.42 628.51 26.65 584.07 32.02C539.72 37.4 498.12 53.09 461.41 66.93C431.11 78.36 404.93 88.23 384.17 89.59C384.14 89.59 384.11 89.59 384.09 89.6L383.98 87.87C384.01 87.87 384.04 87.87 384.06 87.86C404.61 86.52 430.7 76.68 460.9 65.29C497.68 51.42 539.36 35.69 583.88 30.3C628.57 24.9 672.51 35.69 715.01 46.13C752.52 55.34 787.96 64.04 818.52 59.49L818.74 61.21C815.69 61.66 812.58 61.99 809.44 62.19Z" fill="#00B0C7"/>
<path d="M835.03 76.93C806.43 78.8 774.23 70.89 740.32 62.56C697.94 52.16 654.12 41.39 609.66 46.76C565.31 52.14 523.72 67.83 487.02 81.67C456.72 93.1 430.54 102.97 409.78 104.33C409.75 104.33 409.72 104.33 409.69 104.34L409.58 102.61C409.61 102.61 409.64 102.61 409.67 102.6C430.23 101.26 456.31 91.42 486.51 80.02C523.28 66.15 564.96 50.43 609.47 45.03C654.17 39.64 698.12 50.43 740.62 60.86C778.12 70.07 813.53 78.76 844.1 74.22L844.32 75.94C841.28 76.4 838.17 76.73 835.03 76.93Z" fill="#00B0C7"/>
<path d="M860.61 91.67C832.02 93.54 799.82 85.63 765.93 77.31C723.56 66.9 679.73 56.14 635.25 61.51C590.9 66.88 549.3 82.57 512.6 96.42C482.3 107.85 456.12 117.72 435.37 119.08C435.34 119.08 435.31 119.08 435.28 119.09L435.17 117.36C435.2 117.36 435.23 117.36 435.26 117.35C455.81 116.01 481.9 106.17 512.1 94.78C548.87 80.91 590.55 65.19 635.07 59.79C679.81 54.4 723.75 65.18 766.24 75.62C803.73 84.83 839.15 93.52 869.71 88.97L869.93 90.69C866.87 91.14 863.76 91.46 860.61 91.67Z" fill="#00B0C7"/>
<path d="M837.15 109.61C808.56 111.48 776.35 103.57 742.45 95.25C700.07 84.85 656.25 74.09 611.8 79.45C567.45 84.83 525.85 100.52 489.16 114.36C458.86 125.79 432.68 135.66 411.92 137.02C411.89 137.02 411.86 137.02 411.82 137.03L411.71 135.3C432.23 133.97 458.4 124.13 488.65 112.72C525.42 98.85 567.1 83.13 611.61 77.73C656.31 72.34 700.26 83.12 742.76 93.56C780.26 102.77 815.67 111.46 846.25 106.91L846.47 108.63C843.41 109.08 840.3 109.4 837.15 109.61Z" fill="#00B0C7"/>
<path d="M1265.01 -16.8C1236.42 -14.93 1204.22 -22.84 1170.32 -31.17C1127.97 -41.57 1084.18 -52.34 1039.72 -46.97C995.37 -41.59 953.77 -25.9 917.07 -12.06C886.77 -0.629997 860.59 9.24 839.84 10.6C839.81 10.6 839.78 10.6 839.75 10.61L839.64 8.88C839.67 8.88 839.7 8.88 839.73 8.87C860.28 7.53 886.37 -2.31 916.57 -13.7C953.34 -27.57 995.03 -43.29 1039.54 -48.69C1084.22 -54.09 1128.15 -43.3 1170.63 -32.86C1208.12 -23.65 1243.53 -14.96 1274.1 -19.5L1274.32 -17.78C1271.26 -17.33 1268.15 -17 1265.01 -16.8Z" fill="#00B0C7"/>
<path d="M1241.55 1.14C1212.96 3.01 1180.76 -4.9 1146.86 -13.23C1104.5 -23.63 1060.71 -34.39 1016.27 -29.03C971.92 -23.65 930.33 -7.96 893.63 5.88C863.33 17.31 837.15 27.18 816.39 28.54C816.36 28.54 816.33 28.54 816.29 28.55L816.18 26.82C816.21 26.82 816.24 26.82 816.27 26.81C836.82 25.47 862.91 15.63 893.11 4.24C929.88 -9.63 971.56 -25.35 1016.08 -30.75C1060.76 -36.13 1104.69 -25.36 1147.16 -14.92C1184.65 -5.71 1220.04 2.98 1250.64 -1.56L1250.86 0.16C1247.81 0.61 1244.7 0.939999 1241.55 1.14Z" fill="#00B0C7"/>
<path d="M1218.11 19.09C1189.52 20.96 1157.32 13.05 1123.42 4.72C1081.06 -5.69 1037.25 -16.44 992.82 -11.08C948.47 -5.7 906.86 9.99 870.16 23.83C839.86 35.26 813.68 45.13 792.93 46.49C792.9 46.49 792.88 46.49 792.85 46.5L792.74 44.77C792.77 44.77 792.8 44.77 792.83 44.77C813.38 43.43 839.47 33.59 869.67 22.2C906.45 8.33 948.13 -7.4 992.65 -12.79C1037.34 -18.17 1081.26 -7.39 1123.74 3.04C1161.23 12.25 1196.64 20.95 1227.2 16.4L1227.42 18.12C1224.36 18.56 1221.25 18.88 1218.11 19.09Z" fill="#00B0C7"/>
<path d="M1243.7 33.82C1215.11 35.69 1182.9 27.78 1149 19.45C1106.64 9.05 1062.84 -1.72 1018.41 3.65C974.06 9.03 932.46 24.72 895.75 38.56C865.45 49.99 839.27 59.86 818.51 61.22C818.48 61.22 818.45 61.22 818.43 61.23L818.32 59.5C818.35 59.5 818.38 59.5 818.4 59.5C838.95 58.16 865.04 48.32 895.24 36.92C932.02 23.05 973.7 7.33 1018.21 1.93C1062.89 -3.46 1106.82 7.33 1149.3 17.76C1186.79 26.97 1222.21 35.67 1252.77 31.12L1252.99 32.84C1249.95 33.29 1246.84 33.62 1243.7 33.82Z" fill="#00B0C7"/>
<path d="M1269.28 48.56C1240.69 50.43 1208.49 42.52 1174.59 34.19C1132.23 23.78 1088.43 13.02 1043.99 18.39C999.64 23.77 958.05 39.46 921.34 53.3C891.04 64.73 864.86 74.6 844.1 75.96C844.07 75.96 844.04 75.96 844.01 75.97L843.9 74.24C843.93 74.24 843.96 74.24 843.99 74.23C864.55 72.89 890.63 63.05 920.83 51.65C957.6 37.78 999.28 22.06 1043.79 16.66C1088.48 11.27 1132.4 22.06 1174.88 32.49C1212.37 41.7 1247.77 50.4 1278.35 45.85L1278.57 47.57C1275.53 48.03 1272.43 48.36 1269.28 48.56Z" fill="#00B0C7"/>
<path d="M1294.87 63.3C1266.27 65.17 1234.07 57.26 1200.18 48.93C1157.83 38.52 1114.02 27.77 1069.59 33.13C1025.24 38.51 983.64 54.2 946.94 68.04C916.64 79.47 890.46 89.34 869.71 90.7C869.68 90.7 869.65 90.7 869.62 90.71L869.51 88.98C869.54 88.98 869.57 88.98 869.6 88.97C890.15 87.63 916.24 77.79 946.44 66.4C983.21 52.53 1024.89 36.81 1069.41 31.41C1114.11 26.03 1158.02 36.8 1200.49 47.24C1237.98 56.45 1273.39 65.15 1303.97 60.6L1304.19 62.32C1301.12 62.77 1298.02 63.09 1294.87 63.3Z" fill="#00B0C7"/>
<path d="M1271.41 81.24C1242.82 83.11 1210.62 75.2 1176.72 66.87C1134.36 56.46 1090.56 45.71 1046.13 51.07C1001.78 56.45 960.19 72.14 923.48 85.98C893.18 97.41 867 107.28 846.25 108.64C846.22 108.64 846.19 108.64 846.15 108.65L846.04 106.92C846.07 106.92 846.1 106.92 846.13 106.91C866.68 105.57 892.77 95.73 922.97 84.34C959.74 70.47 1001.42 54.75 1045.94 49.35C1090.64 43.96 1134.55 54.74 1177.02 65.18C1214.51 74.39 1249.91 83.08 1280.49 78.54L1280.71 80.26C1277.66 80.71 1274.56 81.03 1271.41 81.24Z" fill="#00B0C7"/>
</g>
</g>
</g>
<defs>
<clipPath id="clip0_1_167">
<rect width="1228" height="161.5" fill="white"/>
</clipPath>
</defs>
</svg>
