<svg width="1228" height="76" viewBox="0 0 1228 76" fill="none" xmlns="http://www.w3.org/2000/svg">
<g clip-path="url(#clip0_1_140)">
<path d="M1228 0H0V75.48H1228V0Z" fill="#242424"/>
<g opacity="0.3">
<path d="M373.29 10.66C344.69 12.53 312.49 4.62 278.6 -3.71C236.25 -14.11 192.45 -24.87 148.01 -19.51C103.65 -14.13 62.06 1.56 25.35 15.41C-4.95002 26.84 -31.13 36.71 -51.89 38.07C-51.92 38.07 -51.95 38.07 -51.98 38.08L-52.09 36.35C-52.06 36.35 -52.03 36.35 -52 36.34C-31.45 35 -5.36003 25.16 24.84 13.77C61.62 -0.11 103.3 -15.83 147.82 -21.23C192.5 -26.62 236.43 -15.83 278.9 -5.4C316.39 3.81 351.8 12.5 382.38 7.96L382.6 9.68C379.54 10.13 376.44 10.46 373.29 10.66Z" fill="#00B0C7"/>
<path d="M398.88 25.4C370.29 27.27 338.09 19.36 304.19 11.03C261.84 0.619993 218.04 -10.13 173.6 -4.77001C129.24 0.609993 87.65 16.3 50.95 30.14C20.6 41.59 -5.54999 51.47 -26.38 52.81L-26.49 51.08C-26.46 51.08 -26.43 51.08 -26.4 51.07C-5.84999 49.73 20.24 39.89 50.44 28.5C87.21 14.63 128.89 -1.10001 173.41 -6.49001C218.1 -11.88 262.02 -1.10001 304.49 9.33999C341.98 18.55 377.39 27.25 407.96 22.7L408.19 24.42C405.13 24.87 402.02 25.19 398.88 25.4Z" fill="#00B0C7"/>
<path d="M424.47 40.13C395.87 42 363.67 34.09 329.77 25.76C287.42 15.36 243.62 4.59999 199.18 9.96999C154.83 15.35 113.23 31.04 76.53 44.88C46.23 56.31 20.06 66.18 -0.700034 67.54C-0.730034 67.54 -0.760034 67.54 -0.800034 67.55L-0.910034 65.82C-0.880034 65.82 -0.850034 65.82 -0.820034 65.81C19.73 64.47 45.82 54.63 76.02 43.24C112.8 29.36 154.48 13.64 199 8.23999C243.69 2.85999 287.61 13.63 330.08 24.07C367.57 33.28 402.98 41.97 433.56 37.43L433.79 39.15C430.72 39.6 427.62 39.93 424.47 40.13Z" fill="#00B0C7"/>
<path d="M401.01 58.08C372.42 59.95 340.22 52.04 306.32 43.71C263.97 33.3 220.17 22.55 175.73 27.91C131.38 33.29 89.78 48.98 53.08 62.82C22.78 74.25 -3.39998 84.13 -24.16 85.48C-24.19 85.48 -24.22 85.48 -24.25 85.49L-24.36 83.76C-24.33 83.76 -24.3 83.76 -24.27 83.75C-3.71999 82.41 22.37 72.57 52.57 61.17C89.34 47.3 131.03 31.58 175.54 26.18C220.23 20.79 264.15 31.58 306.62 42.01C344.11 51.22 379.52 59.92 410.09 55.37L410.31 57.09C407.26 57.55 404.16 57.87 401.01 58.08Z" fill="#00B0C7"/>
<path d="M377.56 76.02C348.97 77.89 316.76 69.98 282.87 61.65C240.52 51.25 196.71 40.48 152.28 45.85C107.93 51.23 66.33 66.92 29.63 80.76C-0.669987 92.19 -26.85 102.06 -47.6 103.42C-47.63 103.42 -47.66 103.42 -47.69 103.43L-47.8 101.7C-47.77 101.7 -47.74 101.7 -47.71 101.69C-27.16 100.35 -1.06999 90.51 29.13 79.12C65.9 65.25 107.58 49.53 152.1 44.13C196.79 38.73 240.71 49.52 283.18 59.96C320.67 69.17 356.09 77.86 386.65 73.32L386.87 75.04C383.81 75.49 380.71 75.81 377.56 76.02Z" fill="#00B0C7"/>
<path d="M354.1 93.96C325.51 95.83 293.31 87.92 259.41 79.59C217.05 69.19 173.25 58.42 128.82 63.79C84.47 69.17 42.88 84.86 6.17999 98.7C-24.12 110.13 -50.3 120 -71.06 121.36C-71.09 121.36 -71.12 121.36 -71.15 121.37L-71.26 119.64C-71.23 119.64 -71.2 119.64 -71.17 119.63C-50.62 118.29 -24.53 108.45 5.66999 97.06C42.44 83.19 84.12 67.47 128.64 62.07C173.32 56.68 217.25 67.47 259.72 77.9C297.21 87.11 332.63 95.8 363.19 91.26L363.41 92.98C360.36 93.43 357.25 93.75 354.1 93.96Z" fill="#00B0C7"/>
<path d="M807.62 -17.71C779.02 -15.84 746.8 -23.75 712.89 -32.08C670.51 -42.48 626.7 -53.24 582.26 -47.88C537.91 -42.5 496.31 -26.81 459.61 -12.97C429.31 -1.54 403.13 8.32999 382.38 9.68999C382.35 9.68999 382.32 9.68999 382.29 9.68999L382.18 7.96C382.21 7.96 382.24 7.95999 382.27 7.94999C402.82 6.60999 428.91 -3.23001 459.11 -14.62C495.88 -28.49 537.56 -44.21 582.08 -49.61C626.76 -55 670.71 -44.21 713.2 -33.78C750.71 -24.57 786.14 -15.88 816.71 -20.42L816.93 -18.7C813.88 -18.24 810.77 -17.92 807.62 -17.71Z" fill="#00B0C7"/>
<path d="M833.21 -2.98C804.62 -1.11 772.41 -9.02 738.51 -17.34C696.13 -27.74 652.31 -38.5 607.85 -33.14C563.5 -27.77 521.9 -12.07 485.2 1.77C454.9 13.2 428.72 23.07 407.96 24.43C407.93 24.43 407.9 24.43 407.87 24.44L407.76 22.71C407.79 22.71 407.82 22.71 407.85 22.7C428.4 21.36 454.49 11.52 484.69 0.129997C521.46 -13.74 563.14 -29.46 607.66 -34.86C652.38 -40.25 696.31 -29.47 738.81 -19.03C776.31 -9.82 811.72 -1.12 842.3 -5.68L842.52 -3.96C839.47 -3.51 836.36 -3.19 833.21 -2.98Z" fill="#00B0C7"/>
<path d="M858.8 11.76C830.21 13.63 798.01 5.71999 764.12 -2.60001C721.75 -13.01 677.92 -23.77 633.44 -18.4C589.09 -13.02 547.49 2.66999 510.79 16.51C480.49 27.94 454.31 37.81 433.56 39.17C433.53 39.17 433.5 39.17 433.46 39.18L433.35 37.45C433.38 37.45 433.41 37.45 433.44 37.44C453.99 36.1 480.08 26.26 510.28 14.87C547.05 0.999988 588.73 -14.72 633.25 -20.12C677.99 -25.51 721.93 -14.73 764.42 -4.29001C801.91 4.91999 837.32 13.61 867.88 9.05999L868.1 10.78C865.06 11.23 861.95 11.55 858.8 11.76Z" fill="#00B0C7"/>
<path d="M835.35 29.7C806.76 31.57 774.55 23.66 740.65 15.34C698.27 4.92998 654.45 -5.83002 609.99 -0.460019C565.64 4.91998 524.04 20.61 487.34 34.45C457.04 45.88 430.86 55.75 410.1 57.11C410.07 57.11 410.04 57.11 410.01 57.12L409.9 55.39C409.93 55.39 409.96 55.39 409.99 55.38C430.54 54.04 456.63 44.2 486.83 32.81C523.6 18.93 565.28 3.20998 609.8 -2.19002C654.52 -7.58002 698.45 3.19998 740.95 13.64C778.45 22.85 813.86 31.54 844.43 26.99L844.65 28.71C841.6 29.17 838.49 29.49 835.35 29.7Z" fill="#00B0C7"/>
<path d="M811.89 47.64C783.29 49.51 751.07 41.6 717.16 33.27C674.78 22.87 630.96 12.11 586.53 17.47C542.18 22.85 500.58 38.54 463.88 52.38C433.58 63.81 407.4 73.68 386.64 75.04C386.61 75.04 386.58 75.04 386.55 75.05L386.44 73.32C386.47 73.32 386.5 73.32 386.53 73.31C407.08 71.97 433.17 62.13 463.37 50.74C500.14 36.87 541.82 21.15 586.34 15.75C631.03 10.35 674.97 21.14 717.46 31.58C754.97 40.79 790.39 49.49 820.97 44.94L821.19 46.66C818.15 47.11 815.04 47.44 811.89 47.64Z" fill="#00B0C7"/>
<path d="M788.44 65.58C759.84 67.45 727.63 59.54 693.72 51.21C651.34 40.81 607.53 30.05 563.09 35.41C518.74 40.79 477.14 56.48 440.44 70.32C410.14 81.75 383.96 91.62 363.2 92.98C363.17 92.98 363.14 92.98 363.11 92.99L363 91.26C363.03 91.26 363.06 91.26 363.09 91.25C383.64 89.91 409.73 80.07 439.93 68.68C476.7 54.81 518.38 39.09 562.9 33.69C607.57 28.3 651.53 39.08 694.02 49.52C731.53 58.73 766.96 67.42 797.53 62.88L797.75 64.6C794.69 65.05 791.58 65.38 788.44 65.58Z" fill="#00B0C7"/>
<path d="M814.03 80.32C785.43 82.19 753.22 74.28 719.3 65.95C676.92 55.55 633.1 44.79 588.67 50.15C544.32 55.53 502.72 71.22 466.02 85.06C435.72 96.49 409.54 106.36 388.79 107.72C388.76 107.72 388.73 107.72 388.7 107.72L388.59 105.99C388.62 105.99 388.65 105.99 388.68 105.98C409.23 104.64 435.32 94.8 465.52 83.41C502.29 69.54 543.98 53.82 588.49 48.42C633.18 43.04 677.12 53.81 719.62 64.25C757.13 73.46 792.56 82.16 823.13 77.61L823.35 79.33C820.28 79.79 817.18 80.11 814.03 80.32Z" fill="#00B0C7"/>
<path d="M839.62 95.06C811.03 96.93 778.82 89.02 744.91 80.7C702.53 70.3 658.71 59.54 614.25 64.9C569.9 70.27 528.3 85.96 491.6 99.81C461.3 111.24 435.12 121.11 414.36 122.47C414.33 122.47 414.3 122.47 414.27 122.48L414.16 120.75C414.19 120.75 414.22 120.75 414.25 120.74C434.8 119.4 460.89 109.56 491.09 98.17C527.87 84.3 569.55 68.57 614.06 63.18C658.78 57.79 702.71 68.57 745.21 79.01C782.71 88.22 818.12 96.91 848.69 92.36L848.91 94.08C845.87 94.53 842.76 94.85 839.62 95.06Z" fill="#00B0C7"/>
<path d="M1293.06 -16.61C1264.46 -14.74 1232.26 -22.65 1198.36 -30.98C1156.01 -41.39 1112.2 -52.14 1067.77 -46.78C1023.42 -41.4 981.82 -25.71 945.12 -11.87C914.82 -0.440002 888.64 9.43 867.89 10.79C867.86 10.79 867.83 10.79 867.79 10.8L867.68 9.07C867.71 9.07 867.74 9.07 867.77 9.06C888.32 7.72 914.41 -2.12 944.61 -13.51C981.38 -27.38 1023.06 -43.1 1067.58 -48.5C1112.27 -53.9 1156.19 -43.11 1198.66 -32.67C1236.15 -23.46 1271.58 -14.76 1302.14 -19.31L1302.36 -17.59C1299.31 -17.15 1296.21 -16.82 1293.06 -16.61Z" fill="#00B0C7"/>
<path d="M1269.6 1.32999C1241.01 3.19999 1208.81 -4.71001 1174.91 -13.04C1132.55 -23.45 1088.75 -34.21 1044.32 -28.84C999.97 -23.46 958.37 -7.77001 921.67 6.06999C891.37 17.5 865.19 27.37 844.43 28.73C844.4 28.73 844.37 28.73 844.34 28.74L844.23 27.01C844.26 27.01 844.29 27.01 844.32 27C864.87 25.66 890.96 15.82 921.16 4.41999C957.94 -9.45001 999.62 -25.17 1044.13 -30.57C1088.82 -35.95 1132.74 -25.17 1175.22 -14.74C1212.71 -5.53001 1248.12 3.16999 1278.69 -1.38001L1278.91 0.339993C1275.86 0.799993 1272.75 1.11999 1269.6 1.32999Z" fill="#00B0C7"/>
<path d="M1246.15 19.27C1217.56 21.14 1185.35 13.23 1151.46 4.90001C1109.11 -5.49999 1065.32 -16.27 1020.87 -10.9C976.52 -5.51999 934.92 10.17 898.22 24.01C867.92 35.44 841.74 45.31 820.98 46.67C820.95 46.67 820.92 46.67 820.89 46.68L820.78 44.95C820.81 44.95 820.84 44.95 820.87 44.94C841.42 43.6 867.51 33.76 897.71 22.37C934.48 8.50001 976.16 -7.21999 1020.68 -12.62C1065.36 -18 1109.29 -7.22999 1151.76 3.21001C1189.25 12.42 1224.64 21.12 1255.24 16.57L1255.46 18.29C1252.4 18.74 1249.3 19.06 1246.15 19.27Z" fill="#00B0C7"/>
<path d="M1222.69 37.21C1194.1 39.08 1161.9 31.17 1128 22.84C1085.65 12.43 1041.86 1.65999 997.41 7.03999C953.06 12.42 911.46 28.11 874.76 41.95C844.46 53.38 818.28 63.25 797.52 64.61C797.49 64.61 797.46 64.61 797.42 64.62L797.31 62.89C797.34 62.89 797.37 62.89 797.4 62.88C817.96 61.54 844.04 51.7 874.24 40.31C911.01 26.44 952.69 10.72 997.21 5.31999C1041.89 -0.0700128 1085.82 10.72 1128.29 21.15C1165.78 30.36 1201.2 39.05 1231.76 34.51L1231.98 36.23C1228.95 36.68 1225.84 37 1222.69 37.21Z" fill="#00B0C7"/>
<path d="M1248.29 51.95C1219.69 53.82 1187.49 45.91 1153.6 37.58C1111.25 27.18 1067.44 16.41 1023.01 21.78C978.66 27.16 937.06 42.85 900.36 56.69C870.06 68.12 843.88 77.99 823.12 79.35C823.09 79.35 823.06 79.35 823.03 79.36L822.92 77.63C822.95 77.63 822.98 77.63 823.01 77.62C843.56 76.28 869.65 66.44 899.85 55.05C936.62 41.18 978.31 25.46 1022.82 20.06C1067.52 14.66 1111.43 25.45 1153.91 35.89C1191.4 45.1 1226.82 53.8 1257.38 49.25L1257.6 50.97C1254.54 51.42 1251.44 51.74 1248.29 51.95Z" fill="#00B0C7"/>
<path d="M1273.88 66.69C1245.29 68.56 1213.09 60.65 1179.19 52.32C1136.83 41.92 1093.03 31.15 1048.6 36.52C1004.25 41.9 962.65 57.59 925.94 71.43C895.64 82.86 869.46 92.73 848.71 94.09C848.68 94.09 848.65 94.09 848.62 94.09L848.51 92.36C848.54 92.36 848.57 92.36 848.6 92.36C869.15 91.02 895.24 81.18 925.44 69.78C962.21 55.91 1003.9 40.18 1048.42 34.79C1093.11 29.41 1137.03 40.19 1179.51 50.62C1217 59.83 1252.41 68.53 1282.98 63.98L1283.2 65.7C1280.13 66.16 1277.02 66.48 1273.88 66.69Z" fill="#00B0C7"/>
<path d="M1299.47 81.42C1270.87 83.29 1238.67 75.38 1204.77 67.05C1162.41 56.65 1118.61 45.88 1074.18 51.25C1029.83 56.63 988.23 72.32 951.53 86.16C921.23 97.59 895.05 107.46 874.3 108.82C874.27 108.82 874.24 108.82 874.21 108.83L874.1 107.1C874.13 107.1 874.16 107.1 874.19 107.09C894.74 105.75 920.83 95.91 951.03 84.52C987.8 70.65 1029.48 54.93 1074 49.53C1118.7 44.13 1162.61 54.92 1205.08 65.36C1242.57 74.57 1277.99 83.26 1308.56 78.72L1308.78 80.44C1305.72 80.89 1302.62 81.21 1299.47 81.42Z" fill="#00B0C7"/>
</g>
</g>
<defs>
<clipPath id="clip0_1_140">
<rect width="1228" height="75.48" fill="white"/>
</clipPath>
</defs>
</svg>
