<svg width="160" height="48" viewBox="0 0 160 48" fill="none" xmlns="http://www.w3.org/2000/svg">
<rect y="6" width="160" height="35" rx="17.5" fill="#00B0C7"/>
<path d="M74.314 30V17.256H82.882V19.866H77.284V22.26H82.576V24.726H77.284V27.372H83.206V30H74.314ZM96.3336 30V25.104C96.3336 24.852 96.3156 24.612 96.2796 24.384C96.2436 24.144 96.1776 23.94 96.0816 23.772C95.9856 23.604 95.8536 23.472 95.6856 23.376C95.5296 23.268 95.3196 23.214 95.0556 23.214C94.8036 23.214 94.5816 23.268 94.3896 23.376C94.2096 23.484 94.0536 23.628 93.9216 23.808C93.8016 23.988 93.7116 24.198 93.6516 24.438C93.5916 24.666 93.5616 24.906 93.5616 25.158V30H90.6096V24.888C90.6096 24.372 90.5076 23.964 90.3036 23.664C90.0996 23.364 89.7756 23.214 89.3316 23.214C88.8636 23.214 88.4976 23.4 88.2336 23.772C87.9816 24.144 87.8556 24.6 87.8556 25.14V30H84.8856V21.036H87.7476V22.278H87.7836C87.8916 22.086 88.0236 21.9 88.1796 21.72C88.3476 21.54 88.5456 21.384 88.7736 21.252C89.0016 21.108 89.2536 20.994 89.5296 20.91C89.8176 20.826 90.1296 20.784 90.4656 20.784C91.1136 20.784 91.6596 20.916 92.1036 21.18C92.5596 21.444 92.9136 21.822 93.1656 22.314C93.4656 21.846 93.8496 21.474 94.3176 21.198C94.7856 20.922 95.3556 20.784 96.0276 20.784C96.6396 20.784 97.1496 20.898 97.5576 21.126C97.9776 21.342 98.3136 21.63 98.5656 21.99C98.8176 22.338 98.9976 22.734 99.1056 23.178C99.2256 23.61 99.2856 24.036 99.2856 24.456V30H96.3336ZM106.607 26.094H106.229C105.905 26.094 105.575 26.112 105.239 26.148C104.915 26.172 104.621 26.226 104.357 26.31C104.105 26.394 103.895 26.52 103.727 26.688C103.559 26.844 103.475 27.054 103.475 27.318C103.475 27.486 103.511 27.63 103.583 27.75C103.667 27.87 103.769 27.966 103.889 28.038C104.009 28.11 104.147 28.164 104.303 28.2C104.459 28.224 104.609 28.236 104.753 28.236C105.353 28.236 105.809 28.074 106.121 27.75C106.445 27.414 106.607 26.964 106.607 26.4V26.094ZM101.189 22.26C101.717 21.756 102.329 21.378 103.025 21.126C103.733 20.874 104.453 20.748 105.185 20.748C105.941 20.748 106.577 20.844 107.093 21.036C107.621 21.216 108.047 21.504 108.371 21.9C108.695 22.284 108.929 22.776 109.073 23.376C109.229 23.964 109.307 24.666 109.307 25.482V30H106.607V29.046H106.553C106.325 29.418 105.977 29.706 105.509 29.91C105.053 30.114 104.555 30.216 104.015 30.216C103.655 30.216 103.283 30.168 102.899 30.072C102.515 29.976 102.161 29.82 101.837 29.604C101.525 29.388 101.267 29.1 101.063 28.74C100.859 28.38 100.757 27.936 100.757 27.408C100.757 26.76 100.931 26.238 101.279 25.842C101.639 25.446 102.095 25.14 102.647 24.924C103.211 24.708 103.835 24.564 104.519 24.492C105.203 24.42 105.869 24.384 106.517 24.384V24.24C106.517 23.796 106.361 23.472 106.049 23.268C105.737 23.052 105.353 22.944 104.897 22.944C104.477 22.944 104.069 23.034 103.673 23.214C103.289 23.394 102.959 23.61 102.683 23.862L101.189 22.26ZM114.514 18.174C114.514 18.402 114.466 18.618 114.37 18.822C114.286 19.014 114.166 19.182 114.01 19.326C113.866 19.47 113.686 19.584 113.47 19.668C113.266 19.752 113.05 19.794 112.822 19.794C112.342 19.794 111.94 19.638 111.616 19.326C111.292 19.002 111.13 18.618 111.13 18.174C111.13 17.958 111.172 17.754 111.256 17.562C111.34 17.358 111.46 17.184 111.616 17.04C111.772 16.896 111.952 16.782 112.156 16.698C112.36 16.602 112.582 16.554 112.822 16.554C113.05 16.554 113.266 16.596 113.47 16.68C113.686 16.764 113.866 16.878 114.01 17.022C114.166 17.166 114.286 17.34 114.37 17.544C114.466 17.736 114.514 17.946 114.514 18.174ZM111.346 30V21.036H114.298V30H111.346ZM116.472 30V16.392H119.46V30H116.472Z" fill="white"/>
<path fill-rule="evenodd" clip-rule="evenodd" d="M40 33.112H65.784V14H40V33.112ZM42.539 15.4H63.245L52.893 24.619L42.539 15.4ZM56.191 23.557L64.384 16.26V30.851L56.191 23.557ZM41.4 16.26L49.594 23.557L41.4 30.851V16.26ZM55.139 24.494L63.245 31.712H42.539L50.646 24.494L52.893 26.493L55.139 24.494Z" fill="#FEFEFE"/>
</svg>
