<svg width="229" height="155" viewBox="0 0 229 155" fill="none" xmlns="http://www.w3.org/2000/svg">
<mask id="mask0_309:513" style="mask-type:alpha" maskUnits="userSpaceOnUse" x="0" y="0" width="225" height="124">
<path fill-rule="evenodd" clip-rule="evenodd" d="M0 0.660645H224.725V123.538H0V0.660645Z" fill="white"/>
</mask>
<g mask="url(#mask0_309:513)">
<path fill-rule="evenodd" clip-rule="evenodd" d="M332.612 80.6713C347.068 81.6842 345.576 78.3388 336.321 72.881C332.781 71.3765 329.317 70.7418 325.93 70.9334C314.675 72.3113 314.02 75.0107 321.475 78.7229C324.736 80.197 328.445 80.8526 332.612 80.6713M204.912 0.68354C212.655 0.122505 222.083 9.81185 232.22 36.4111L236.835 45.6175C259.124 47.9111 269.684 46.482 305.884 54.7059C337.064 64.5071 362.205 61.4297 368.993 80.6713C372.399 82.0657 374.433 84.2162 372.702 88.4608C347.906 101.688 345.976 98.8473 310.338 109.235C289.286 146.745 271.731 152.727 258.366 147.534C251.685 146.233 253.476 128.421 256.882 117.024C201.147 122.987 152.238 116.986 111.365 96.9032L51.2279 74.18C30.4393 79.3758 17.0748 95.6016 0 87.8113C8.90965 87.8113 20.7877 67.0383 28.9564 66.3931C30.0006 63.7085 27.1642 60.638 25.9845 58.6011C31.9222 58.034 37.8608 58.5716 43.8038 59.8992C61.3355 51.9172 80.3684 47.9501 101.713 50.1621C129.182 52.173 160.368 50.6399 194.518 46.267C205.654 25.4957 207.132 15.959 204.912 0.68354" fill="#00B0C7"/>
</g>
<mask id="mask1_309:513" style="mask-type:alpha" maskUnits="userSpaceOnUse" x="149" y="0" width="2" height="155">
<path fill-rule="evenodd" clip-rule="evenodd" d="M149.398 0.470215H150.398V155H149.398V0.470215Z" fill="white"/>
</mask>
<g mask="url(#mask1_309:513)">
<path d="M149.898 0.469727V155" stroke="#303030" stroke-width="1.3" stroke-dasharray="17 10"/>
</g>
<mask id="mask2_309:513" style="mask-type:alpha" maskUnits="userSpaceOnUse" x="74" y="0" width="2" height="155">
<path fill-rule="evenodd" clip-rule="evenodd" d="M74.7754 0.470215H75.7754V155H74.7754V0.470215Z" fill="white"/>
</mask>
<g mask="url(#mask2_309:513)">
<path d="M75.2754 0.469727V155" stroke="black" stroke-width="1.3" stroke-dasharray="17 10"/>
</g>
</svg>
