<svg width="150" height="155" viewBox="0 0 150 155" fill="none" xmlns="http://www.w3.org/2000/svg">
<mask id="mask0_308:509" style="mask-type:alpha" maskUnits="userSpaceOnUse" x="0" y="45" width="150" height="68">
<path fill-rule="evenodd" clip-rule="evenodd" d="M0 45H150V113H0V45Z" fill="white"/>
</mask>
<g mask="url(#mask0_308:509)">
<path fill-rule="evenodd" clip-rule="evenodd" d="M334.989 80.8265C349.549 81.8505 348.046 78.4701 338.725 72.9576C335.16 71.4369 331.67 70.7957 328.26 70.9893C316.924 72.3812 316.265 75.1081 323.773 78.8581C327.057 80.3473 330.793 81.0095 334.989 80.8265M206.376 0.0230617C214.175 -0.542818 223.67 9.24444 233.88 36.115L238.527 45.4152C260.977 47.7321 271.611 46.2885 308.07 54.5963C339.472 64.4974 364.794 61.3886 371.63 80.8264C375.061 82.235 377.109 84.4074 375.366 88.6953C350.392 102.057 348.449 99.1877 312.557 109.681C291.353 147.574 273.673 153.617 260.213 148.371C253.484 147.056 255.288 129.063 258.718 117.55C202.585 123.573 153.326 117.512 112.161 97.2238L51.594 74.2689C30.6569 79.5177 17.1968 95.909 0 88.0401C8.97333 88.0401 20.9354 67.0544 29.1633 66.4027C30.215 63.6906 27.3583 60.5888 26.1702 58.5311C32.1504 57.9583 38.1314 58.5014 44.1169 59.8434C61.7739 51.7791 80.9429 47.7716 102.44 50.0062C130.105 52.0375 161.514 50.4888 195.908 46.0713C207.124 25.0882 208.613 15.4542 206.376 0.0230617" fill="#00B0C7"/>
</g>
<mask id="mask1_308:509" style="mask-type:alpha" maskUnits="userSpaceOnUse" x="74" y="0" width="2" height="155">
<path fill-rule="evenodd" clip-rule="evenodd" d="M74.7754 0.470215H75.7754V155H74.7754V0.470215Z" fill="white"/>
</mask>
<g mask="url(#mask1_308:509)">
<path d="M75.2754 0.469727V155" stroke="black" stroke-width="1.3" stroke-dasharray="17 10"/>
</g>
</svg>
