<svg width="303" height="155" viewBox="0 0 303 155" fill="none" xmlns="http://www.w3.org/2000/svg">
<mask id="mask0_309:516" style="mask-type:alpha" maskUnits="userSpaceOnUse" x="0" y="0" width="299" height="149">
<path fill-rule="evenodd" clip-rule="evenodd" d="M0 0H299V149H0V0Z" fill="white"/>
</mask>
<g mask="url(#mask0_309:516)">
<path fill-rule="evenodd" clip-rule="evenodd" d="M333.207 80.2876C347.69 81.3048 346.194 77.9469 336.923 72.4712C333.377 70.9606 329.906 70.3237 326.514 70.516C315.238 71.8986 314.582 74.6074 322.051 78.3324C325.317 79.8116 329.033 80.4695 333.207 80.2876M205.278 0.022908C213.036 -0.539199 222.48 9.18282 232.636 35.8742L237.259 45.1124C259.588 47.4139 270.167 45.9799 306.431 54.2323C337.667 64.0674 362.853 60.9793 369.654 80.2876C373.066 81.6868 375.103 83.8447 373.369 88.104C348.528 101.377 346.596 98.5265 310.894 108.95C289.804 146.59 272.217 152.593 258.829 147.382C252.135 146.076 253.93 128.202 257.342 116.766C201.508 122.749 152.511 116.729 111.564 96.5757L51.3196 73.7738C30.4938 78.9876 17.1054 95.2696 0 87.4532C8.9256 87.4532 20.8241 66.6073 29.0082 65.96C30.0543 63.266 27.2128 60.1849 26.031 58.1409C31.9794 57.5719 37.9286 58.1114 43.8822 59.4444C61.4453 51.4339 80.5123 47.4531 101.895 49.6728C129.413 51.6906 160.655 50.1522 194.866 45.7641C206.023 24.9209 207.503 15.3512 205.278 0.022908" fill="#00B0C7"/>
</g>
<mask id="mask1_309:516" style="mask-type:alpha" maskUnits="userSpaceOnUse" x="149" y="0" width="2" height="155">
<path fill-rule="evenodd" clip-rule="evenodd" d="M149.398 0.470215H150.398V155H149.398V0.470215Z" fill="white"/>
</mask>
<g mask="url(#mask1_309:516)">
<path d="M149.898 0.469727V155" stroke="#303030" stroke-width="1.3" stroke-dasharray="17 10"/>
</g>
<mask id="mask2_309:516" style="mask-type:alpha" maskUnits="userSpaceOnUse" x="224" y="0" width="2" height="155">
<path fill-rule="evenodd" clip-rule="evenodd" d="M224.023 0.470215H225.023V155H224.023V0.470215Z" fill="white"/>
</mask>
<g mask="url(#mask2_309:516)">
<path d="M224.523 0.469727V155" stroke="#303030" stroke-width="1.3" stroke-dasharray="17 10"/>
</g>
<mask id="mask3_309:516" style="mask-type:alpha" maskUnits="userSpaceOnUse" x="74" y="0" width="2" height="155">
<path fill-rule="evenodd" clip-rule="evenodd" d="M74.7734 0.470215H75.7734V155H74.7734V0.470215Z" fill="white"/>
</mask>
<g mask="url(#mask3_309:516)">
<path d="M75.2734 0.469727V155" stroke="black" stroke-width="1.3" stroke-dasharray="17 10"/>
</g>
</svg>
