<svg width="75" height="91" viewBox="0 0 75 91" fill="none" xmlns="http://www.w3.org/2000/svg">
<path fill-rule="evenodd" clip-rule="evenodd" d="M334.098 63.2876C348.619 64.3048 347.12 60.9469 337.824 55.4712C334.268 53.9606 330.788 53.3237 327.387 53.516C316.081 54.8986 315.423 57.6074 322.912 61.3324C326.187 62.8116 329.913 63.4695 334.098 63.2876M205.827 -16.9771C213.606 -17.5392 223.075 -7.81718 233.258 18.8742L237.893 28.1124C260.282 30.4139 270.889 28.9799 307.251 37.2323C338.569 47.0674 363.823 43.9793 370.642 63.2876C374.064 64.6868 376.106 66.8447 374.367 71.104C349.46 84.3771 347.522 81.5265 311.725 91.9498C290.579 129.59 272.945 135.593 259.521 130.382C252.809 129.076 254.609 111.202 258.03 99.7663C202.046 105.749 152.918 99.7288 111.862 79.5757L51.4568 56.7738C30.5753 61.9876 17.1511 78.2696 0 70.4532C8.94947 70.4532 20.8798 49.6073 29.0858 48.96C30.1347 46.266 27.2856 43.1849 26.1006 41.1409C32.0649 40.5719 38.03 41.1114 43.9995 42.4444C61.6096 34.4339 80.7276 30.4531 102.168 32.6728C129.759 34.6906 161.084 33.1522 195.387 28.7641C206.573 7.92094 208.058 -1.6488 205.827 -16.9771" fill="#00B0C7"/>
</svg>
