<svg width="887" height="169" viewBox="0 0 887 169" fill="none" xmlns="http://www.w3.org/2000/svg">
<g clip-path="url(#clip0_1_363)">
<path d="M886.64 91.28C874.14 89.54 861.04 86.67 847.59 83.73C816.02 76.82 783.36 69.68 750.55 74.5C717.79 79.32 687.28 91.74 660.35 102.69C638.2 111.7 619.06 119.48 603.73 120.92C601.47 121.32 599.18 121.61 596.85 121.83C575.7 123.76 551.68 118.51 526.4 112.98C494.81 106.08 462.14 98.93 429.33 103.75C396.57 108.58 366.06 120.99 339.13 131.94C316.98 140.95 297.84 148.73 282.51 150.17C280.25 150.57 277.96 150.86 275.63 151.08C254.48 153.01 230.48 147.76 205.21 142.23C173.64 135.33 140.99 128.18 108.17 133C75.4098 137.83 44.8898 150.24 17.9698 161.19C11.7398 163.72 5.73977 166.16 0.00976562 168.39V160.04V0.719971H886.65V76.74V91.28H886.64Z" fill="#242424"/>
<g opacity="0.3">
<path d="M262.42 6.07996C241.27 8.00996 217.27 2.75996 192 -2.77004C160.43 -9.67004 127.78 -16.81 94.9603 -12C62.2103 -7.17004 31.6903 5.23996 4.76028 16.19C-17.4697 25.23 -36.6797 33.04 -52.0297 34.44C-52.0497 34.44 -52.0797 34.44 -52.0997 34.45L-52.2197 33.17C-52.1997 33.17 -52.1697 33.17 -52.1497 33.16C-36.9497 31.78 -17.8097 23.99 4.34027 14.98C31.3303 4.00996 61.9103 -8.43004 94.7903 -13.27C127.79 -18.11 160.53 -10.95 192.19 -4.03004C220.14 2.07996 246.54 7.84996 269.1 3.90996L269.3 5.17996C267.04 5.56996 264.75 5.86996 262.42 6.07996Z" fill="#00B0C7"/>
<path d="M281.661 16.51C260.511 18.44 236.51 13.19 211.241 7.65996C179.661 0.759955 147.01 -6.38005 114.201 -1.56005C81.4405 3.25996 50.9305 15.67 24.0005 26.62C1.74051 35.68 -17.4495 43.49 -32.8595 44.88L-32.9795 43.6C-32.9595 43.6 -32.9295 43.6 -32.9095 43.59C-17.7095 42.21 1.43051 34.42 23.5905 25.41C50.5705 14.44 81.1505 1.99996 114.021 -2.84004C147.021 -7.68005 179.76 -0.520045 211.43 6.39995C239.38 12.51 265.771 18.28 288.331 14.33L288.531 15.6C286.281 16 283.981 16.3 281.661 16.51Z" fill="#00B0C7"/>
<path d="M300.9 26.9399C279.75 28.8699 255.75 23.6199 230.48 18.0899C198.91 11.1899 166.25 4.04995 133.44 8.85995C100.69 13.6799 70.1698 26.0999 43.2398 37.0499C21.0098 46.0999 1.79977 53.91 -13.5502 55.2999C-13.5702 55.2999 -13.6002 55.2999 -13.6202 55.3099L-13.7402 54.0299C-13.7202 54.0299 -13.6902 54.0299 -13.6702 54.0199C1.52977 52.6399 20.6698 44.8499 42.8198 35.8399C69.7998 24.8699 100.38 12.4299 133.25 7.58995C166.25 2.74995 198.99 9.90995 230.66 16.8299C258.61 22.9399 285.01 28.7099 307.57 24.7599L307.77 26.0299C305.52 26.4299 303.22 26.7299 300.9 26.9399Z" fill="#00B0C7"/>
<path d="M283.86 40.6799C262.71 42.6099 238.71 37.3599 213.44 31.8299C181.87 24.9299 149.22 17.7899 116.4 22.5999C83.6505 27.4199 53.1305 39.8399 26.2005 50.7899C3.97047 59.8299 -15.2395 67.6399 -30.5895 69.0399C-30.6095 69.0399 -30.6295 69.0399 -30.6595 69.0499L-30.7695 67.7699C-30.7495 67.7699 -30.7295 67.7699 -30.6995 67.7599C-15.4995 66.3699 3.64047 58.5899 25.7905 49.5799C52.7705 38.6099 83.3505 26.1699 116.22 21.3299C149.22 16.4899 181.96 23.6499 213.63 30.5699C241.58 36.6799 267.97 42.4499 290.53 38.4999L290.73 39.7699C288.48 40.1699 286.19 40.4699 283.86 40.6799Z" fill="#00B0C7"/>
<path d="M266.83 54.42C245.68 56.35 221.68 51.1 196.41 45.57C164.84 38.67 132.18 31.52 99.3704 36.34C66.6204 41.16 36.1004 53.58 9.17043 64.53C-13.0596 73.57 -32.2596 81.38 -47.6196 82.78C-47.6396 82.78 -47.6696 82.78 -47.6896 82.79L-47.8096 81.51C-47.7896 81.51 -47.7596 81.51 -47.7396 81.5C-32.5396 80.12 -13.3996 72.33 8.75043 63.32C35.7304 52.35 66.3104 39.91 99.1804 35.07C132.18 30.22 164.92 37.39 196.59 44.31C224.54 50.42 250.94 56.19 273.5 52.24L273.7 53.51C271.45 53.91 269.15 54.2 266.83 54.42Z" fill="#00B0C7"/>
<path d="M249.79 68.15C228.64 70.08 204.64 64.83 179.37 59.3C147.8 52.4 115.14 45.25 82.3302 50.07C49.5802 54.89 19.0602 67.31 -7.86985 78.26C-30.0998 87.3 -49.2998 95.11 -64.6498 96.51C-64.6698 96.51 -64.6998 96.51 -64.7198 96.52L-64.8398 95.24C-64.8198 95.24 -64.7898 95.24 -64.7698 95.23C-49.5698 93.84 -30.4298 86.06 -8.26985 77.05C18.7001 66.08 49.2802 53.64 82.1602 48.8C115.16 43.96 147.9 51.12 179.57 58.04C207.52 64.15 233.92 69.92 256.48 65.97L256.68 67.24C254.41 67.64 252.12 67.94 249.79 68.15Z" fill="#00B0C7"/>
<path d="M269.03 78.58C247.88 80.51 223.88 75.26 198.61 69.73C167.04 62.83 134.38 55.68 101.57 60.5C68.8104 65.32 38.3004 77.74 11.3704 88.69C-10.8596 97.73 -30.0596 105.54 -45.4096 106.94C-45.4296 106.94 -45.4596 106.94 -45.4796 106.95L-45.5996 105.67C-45.5796 105.67 -45.5496 105.67 -45.5296 105.66C-30.3296 104.28 -11.1896 96.49 10.9604 87.48C37.9404 76.51 68.5204 64.07 101.4 59.23C134.41 54.39 167.14 61.55 198.81 68.47C226.76 74.58 253.17 80.35 275.72 76.4L275.92 77.67C273.65 78.07 271.35 78.37 269.03 78.58Z" fill="#00B0C7"/>
<path d="M288.26 89.02C267.11 90.95 243.11 85.7 217.84 80.17C186.26 73.26 153.62 66.13 120.8 70.94C88.0501 75.76 57.5301 88.18 30.6001 99.13C8.37012 108.17 -10.8399 115.98 -26.1899 117.38C-26.2099 117.38 -26.2299 117.38 -26.2599 117.39L-26.3799 116.11C-26.3599 116.11 -26.3399 116.11 -26.3199 116.1C-11.1199 114.72 8.02011 106.93 30.1801 97.92C57.1601 86.95 87.7401 74.51 120.62 69.67C153.62 64.83 186.36 71.99 218.03 78.91C245.98 85.02 272.38 90.79 294.93 86.85L295.13 88.12C292.88 88.51 290.59 88.8 288.26 89.02Z" fill="#00B0C7"/>
<path d="M307.5 99.45C286.35 101.38 262.35 96.13 237.08 90.6C205.51 83.7 172.85 76.56 140.04 81.37C107.29 86.19 76.7701 98.61 49.8401 109.56C27.6101 118.6 8.41012 126.41 -6.94988 127.81C-6.96988 127.81 -6.99988 127.81 -7.01988 127.82L-7.12988 126.54C-7.10988 126.54 -7.08988 126.54 -7.05988 126.53C8.14012 125.15 27.2801 117.36 49.4301 108.35C76.4101 97.38 106.99 84.94 139.86 80.1C172.86 75.26 205.6 82.42 237.27 89.34C265.22 95.45 291.62 101.22 314.18 97.28L314.38 98.55C312.12 98.94 309.83 99.24 307.5 99.45Z" fill="#00B0C7"/>
<path d="M290.46 113.18C269.31 115.11 245.31 109.86 220.04 104.33C188.47 97.43 155.82 90.28 123 95.1C90.2501 99.92 59.7301 112.34 32.8001 123.29C10.5701 132.33 -8.62992 140.14 -23.9899 141.54C-24.0099 141.54 -24.0299 141.54 -24.0599 141.55L-24.1699 140.27C-24.1499 140.27 -24.1299 140.27 -24.0999 140.26C-8.89992 138.88 10.2401 131.09 32.4001 122.08C59.3801 111.11 89.9601 98.67 122.83 93.83C155.84 88.99 188.58 96.15 220.24 103.07C248.19 109.18 274.59 114.95 297.14 111L297.34 112.27C295.08 112.67 292.79 112.97 290.46 113.18Z" fill="#00B0C7"/>
<path d="M273.43 126.92C252.28 128.85 228.28 123.6 203.01 118.07C171.44 111.17 138.79 104.03 105.97 108.84C73.22 113.66 42.7 126.08 15.77 137.03C-6.45996 146.07 -25.66 153.88 -41.02 155.28C-41.04 155.28 -41.07 155.28 -41.09 155.29L-41.21 154.01C-41.19 154.01 -41.16 154.01 -41.14 154C-25.94 152.61 -6.79996 144.83 15.35 135.82C42.33 124.85 72.91 112.41 105.78 107.57C138.77 102.73 171.52 109.89 203.18 116.81C231.13 122.92 257.53 128.69 280.09 124.74L280.29 126.01C278.05 126.41 275.75 126.71 273.43 126.92Z" fill="#00B0C7"/>
<path d="M256.401 140.66C235.251 142.59 211.25 137.34 185.98 131.81C154.4 124.9 121.751 117.76 88.9305 122.58C56.1705 127.4 25.6505 139.82 -1.27949 150.77C-23.5095 159.81 -42.7095 167.62 -58.0595 169.02C-58.0795 169.02 -58.0995 169.02 -58.1195 169.03L-58.2295 167.75C-58.2095 167.75 -58.1895 167.75 -58.1695 167.74C-42.9695 166.36 -23.8295 158.57 -1.67949 149.56C25.3005 138.58 55.8805 126.15 88.7605 121.3C121.771 116.46 154.51 123.62 186.171 130.54C214.121 136.65 240.511 142.42 263.071 138.48L263.271 139.75C261.021 140.14 258.721 140.44 256.401 140.66Z" fill="#00B0C7"/>
<path d="M275.63 151.09C254.48 153.02 230.48 147.77 205.21 142.24C173.64 135.34 140.99 128.19 108.17 133.01C75.4098 137.83 44.8898 150.25 17.9698 161.2C-4.26023 170.24 -23.4702 178.05 -38.8202 179.45C-38.8402 179.45 -38.8602 179.45 -38.8802 179.46L-38.9902 178.18C-38.9702 178.18 -38.9502 178.18 -38.9302 178.17C-23.7302 176.79 -4.59023 169 17.5698 159.99C44.5498 149.02 75.1298 136.58 108.01 131.74C141.01 126.89 173.75 134.06 205.42 140.98C233.37 147.09 259.77 152.87 282.33 148.92L282.53 150.19C280.25 150.58 277.96 150.88 275.63 151.09Z" fill="#00B0C7"/>
<path d="M583.64 -23.17C562.49 -21.24 538.47 -26.49 513.19 -32.02C481.6 -38.92 448.94 -46.06 416.12 -41.25C383.37 -36.42 352.85 -24.01 325.92 -13.06C303.69 -4.02003 284.48 3.78996 269.13 5.18996C269.11 5.18996 269.08 5.19996 269.06 5.19996L268.94 3.91996C268.96 3.91996 268.99 3.91996 269.01 3.90997C284.21 2.51997 303.35 -5.26004 325.51 -14.27C352.49 -25.24 383.07 -37.68 415.94 -42.52C448.94 -47.36 481.7 -40.2 513.38 -33.28C541.34 -27.17 567.75 -21.4 590.32 -25.35L590.52 -24.08C588.26 -23.68 585.97 -23.39 583.64 -23.17Z" fill="#00B0C7"/>
<path d="M602.87 -12.74C581.72 -10.81 557.72 -16.06 532.44 -21.59C500.85 -28.49 468.18 -35.63 435.35 -30.81C402.6 -25.99 372.08 -13.57 345.16 -2.62004C322.93 6.41996 303.72 14.23 288.37 15.63C288.35 15.63 288.32 15.63 288.3 15.64L288.19 14.36C288.21 14.36 288.24 14.35 288.26 14.35C303.46 12.97 322.6 5.17996 344.76 -3.83004C371.74 -14.8 402.32 -27.24 435.19 -32.08C468.21 -36.92 500.97 -29.76 532.64 -22.84C560.59 -16.73 586.99 -10.96 609.56 -14.91L609.76 -13.64C607.5 -13.25 605.2 -12.96 602.87 -12.74Z" fill="#00B0C7"/>
<path d="M622.11 -2.31006C600.96 -0.380056 576.96 -5.63006 551.69 -11.1501C520.1 -18.0601 487.43 -25.2001 454.58 -20.3801C421.83 -15.5601 391.31 -3.14006 364.38 7.80994C342.15 16.8499 322.95 24.6599 307.59 26.0599C307.57 26.0599 307.54 26.0599 307.52 26.0699L307.41 24.7899C307.43 24.7899 307.46 24.7899 307.48 24.7799C322.68 23.3999 341.82 15.6099 363.97 6.59995C390.95 -4.37006 421.53 -16.8101 454.4 -21.6501C487.44 -26.4901 520.19 -19.3401 551.87 -12.4101C579.82 -6.30006 606.21 -0.530054 628.77 -4.48005L628.97 -3.21006C626.74 -2.82006 624.44 -2.52006 622.11 -2.31006Z" fill="#00B0C7"/>
<path d="M605.08 11.4299C583.93 13.3599 559.92 8.10994 534.65 2.57994C503.06 -4.32006 470.4 -11.4701 437.56 -6.65006C404.81 -1.83006 374.29 10.5899 347.36 21.5399C325.13 30.5799 305.92 38.3899 290.57 39.7899C290.55 39.7899 290.52 39.7899 290.5 39.7999L290.38 38.5199C290.4 38.5199 290.43 38.5199 290.45 38.5099C305.65 37.1299 324.79 29.3399 346.95 20.3299C373.93 9.35994 404.51 -3.08006 437.38 -7.92006C470.4 -12.7601 503.16 -5.60006 534.84 1.31994C562.79 7.42994 589.19 13.1999 611.75 9.24994L611.95 10.5199C609.7 10.9199 607.4 11.2099 605.08 11.4299Z" fill="#00B0C7"/>
<path d="M588.04 25.16C566.89 27.09 542.87 21.84 517.59 16.31C486 9.40998 453.33 2.26998 420.52 7.07998C387.77 11.9 357.25 24.32 330.32 35.27C308.09 44.31 288.89 52.12 273.53 53.52C273.51 53.52 273.48 53.53 273.46 53.53L273.34 52.25C273.36 52.25 273.39 52.25 273.41 52.24C288.61 50.86 307.75 43.07 329.9 34.06C356.9 23.1 387.48 10.66 420.35 5.81998C453.35 0.969978 486.11 8.13998 517.79 15.06C545.75 21.17 572.16 26.94 594.73 22.99L594.93 24.26C592.66 24.65 590.37 24.95 588.04 25.16Z" fill="#00B0C7"/>
<path d="M571.001 38.9C549.851 40.83 525.841 35.58 500.561 30.05C468.971 23.15 436.311 16.01 403.491 20.82C370.741 25.64 340.221 38.06 313.291 49.01C291.061 58.05 271.851 65.86 256.501 67.26C256.481 67.26 256.451 67.26 256.431 67.27L256.311 65.99C256.331 65.99 256.361 65.99 256.381 65.98C271.581 64.6 290.721 56.81 312.881 47.8C339.861 36.83 370.441 24.39 403.311 19.55C436.301 14.71 469.071 21.87 500.751 28.79C528.711 34.9 555.131 40.67 577.681 36.72L577.881 37.99C575.631 38.39 573.331 38.68 571.001 38.9Z" fill="#00B0C7"/>
<path d="M590.24 49.33C569.09 51.26 545.07 46.01 519.79 40.48C488.2 33.58 455.53 26.44 422.72 31.25C389.96 36.07 359.45 48.49 332.52 59.44C310.29 68.48 291.09 76.29 275.73 77.69C275.71 77.69 275.69 77.7 275.66 77.7L275.55 76.42C275.57 76.42 275.59 76.42 275.62 76.41C290.82 75.02 309.96 67.24 332.12 58.23C359.1 47.26 389.68 34.82 422.55 29.98C455.55 25.15 488.31 32.3 519.99 39.22C547.95 45.33 574.36 51.1 596.92 47.15L597.12 48.42C594.87 48.82 592.57 49.12 590.24 49.33Z" fill="#00B0C7"/>
<path d="M609.48 59.76C588.33 61.69 564.32 56.44 539.05 50.91C507.46 44.01 474.79 36.87 441.96 41.68C409.21 46.5 378.69 58.92 351.76 69.87C329.53 78.91 310.32 86.72 294.97 88.12C294.95 88.12 294.93 88.12 294.9 88.13L294.79 86.85C294.81 86.85 294.83 86.85 294.85 86.84C310.05 85.45 329.19 77.67 351.35 68.66C378.33 57.69 408.91 45.25 441.78 40.41C474.8 35.57 507.56 42.73 539.24 49.65C567.19 55.76 593.59 61.53 616.15 57.58L616.35 58.85C614.1 59.25 611.81 59.55 609.48 59.76Z" fill="#00B0C7"/>
<path d="M628.72 70.1899C607.57 72.1199 583.57 66.8699 558.3 61.3499C526.71 54.4399 494.04 47.2999 461.19 52.1199C428.43 56.9399 397.92 69.3599 370.99 80.3099C348.76 89.3499 329.56 97.1599 314.2 98.5599C314.18 98.5599 314.15 98.5699 314.13 98.5699L314.01 97.2899C314.03 97.2899 314.06 97.2899 314.08 97.2799C329.28 95.8999 348.42 88.1099 370.57 79.0999C397.55 68.1299 428.13 55.6899 461 50.8499C494.04 46.0099 526.79 53.1599 558.47 60.0899C586.42 66.1999 612.81 71.9699 635.37 68.0199L635.57 69.2899C633.34 69.6799 631.05 69.9799 628.72 70.1899Z" fill="#00B0C7"/>
<path d="M611.68 83.93C590.53 85.86 566.53 80.61 541.25 75.08C509.66 68.17 477 61.04 444.16 65.85C411.41 70.67 380.89 83.08 353.96 94.04C331.73 103.08 312.53 110.89 297.17 112.29C297.15 112.29 297.13 112.29 297.1 112.3L296.99 111.02C297.01 111.02 297.03 111.02 297.06 111.01C312.26 109.63 331.4 101.84 353.55 92.83C380.53 81.86 411.11 69.42 443.98 64.58C477 59.73 509.76 66.89 541.44 73.82C569.39 79.93 595.79 85.7 618.35 81.75L618.55 83.02C616.3 83.42 614.01 83.72 611.68 83.93Z" fill="#00B0C7"/>
<path d="M594.64 97.66C573.49 99.59 549.47 94.34 524.19 88.81C492.6 81.91 459.94 74.76 427.12 79.59C394.37 84.41 363.85 96.83 336.93 107.78C314.7 116.82 295.5 124.63 280.14 126.03C280.12 126.03 280.09 126.03 280.07 126.04L279.95 124.76C279.97 124.76 280 124.76 280.02 124.75C295.22 123.37 314.36 115.58 336.51 106.57C363.49 95.6 394.07 83.16 426.94 78.32C459.94 73.48 492.7 80.64 524.37 87.56C552.34 93.67 578.74 99.44 601.31 95.49L601.51 96.76C599.27 97.15 596.97 97.45 594.64 97.66Z" fill="#00B0C7"/>
<path d="M577.62 111.4C556.47 113.33 532.46 108.08 507.17 102.55C475.58 95.65 442.91 88.5 410.09 93.32C377.33 98.14 346.81 110.56 319.88 121.51C297.65 130.55 278.45 138.36 263.1 139.76C263.08 139.76 263.06 139.76 263.04 139.77L262.92 138.49C262.94 138.49 262.96 138.49 262.98 138.48C278.18 137.1 297.32 129.31 319.47 120.3C346.45 109.32 377.03 96.89 409.91 92.04C442.92 87.2 475.67 94.36 507.35 101.28C535.31 107.39 561.71 113.16 584.28 109.21L584.48 110.48C582.24 110.89 579.94 111.19 577.62 111.4Z" fill="#00B0C7"/>
<path d="M596.85 121.83C575.7 123.76 551.68 118.51 526.4 112.98C494.81 106.08 462.14 98.93 429.33 103.75C396.57 108.58 366.05 120.99 339.13 131.94C316.9 140.98 297.69 148.79 282.34 150.19C282.32 150.19 282.3 150.19 282.28 150.2L282.17 148.92C282.19 148.92 282.21 148.92 282.23 148.91C297.43 147.53 316.57 139.74 338.73 130.73C365.71 119.76 396.29 107.32 429.17 102.48C462.17 97.63 494.93 104.8 526.61 111.72C554.57 117.83 580.99 123.61 603.54 119.65L603.74 120.92C601.47 121.32 599.18 121.62 596.85 121.83Z" fill="#00B0C7"/>
<path d="M926.24 -17.82C905.09 -15.89 881.09 -21.14 855.82 -26.67C824.24 -33.58 791.59 -40.72 758.78 -35.9C726.03 -31.08 695.51 -18.66 668.58 -7.71C646.35 1.33 627.15 9.14 611.79 10.54C611.77 10.54 611.75 10.54 611.72 10.55L611.61 9.27C611.63 9.27 611.65 9.27 611.68 9.26C626.88 7.88 646.02 0.0899963 668.17 -8.92C695.15 -19.89 725.73 -32.33 758.6 -37.17C791.61 -42.01 824.35 -34.85 856.01 -27.93C883.96 -21.82 910.35 -16.04 932.91 -20L933.11 -18.73C930.86 -18.33 928.56 -18.04 926.24 -17.82Z" fill="#00B0C7"/>
<path d="M909.2 -4.09001C888.05 -2.16001 864.05 -7.41001 838.78 -12.94C807.21 -19.84 774.56 -26.99 741.74 -22.17C708.99 -17.35 678.47 -4.93001 651.54 6.01999C629.31 15.06 610.11 22.87 594.75 24.27C594.73 24.27 594.71 24.27 594.68 24.28L594.57 23C594.59 23 594.62 23 594.64 22.99C609.84 21.61 628.98 13.82 651.13 4.80999C678.11 -6.16001 708.69 -18.6 741.56 -23.44C774.56 -28.27 807.3 -21.12 838.97 -14.2C866.92 -8.09001 893.3 -2.32001 915.88 -6.27001L916.08 -5.00001C913.82 -4.60001 911.53 -4.30001 909.2 -4.09001Z" fill="#00B0C7"/>
<path d="M892.16 9.64997C871.01 11.58 847.01 6.32997 821.74 0.79997C790.17 -6.10003 757.52 -13.25 724.7 -8.43003C691.95 -3.61003 661.43 8.80997 634.5 19.76C612.27 28.8 593.06 36.61 577.71 38.01C577.69 38.01 577.66 38.01 577.64 38.02L577.53 36.74C577.55 36.74 577.58 36.74 577.6 36.73C592.8 35.34 611.94 27.56 634.1 18.55C661.08 7.57997 691.66 -4.86003 724.53 -9.70003C757.53 -14.54 790.27 -7.38003 821.94 -0.460031C849.89 5.64997 876.29 11.42 898.85 7.46997L899.05 8.73997C896.79 9.13997 894.49 9.42997 892.16 9.64997Z" fill="#00B0C7"/>
<path d="M911.41 20.08C890.26 22.01 866.26 16.76 840.99 11.23C809.42 4.32995 776.76 -2.82005 743.95 1.99995C711.2 6.81995 680.68 19.24 653.75 30.19C631.52 39.2299 612.32 47.04 596.96 48.44C596.94 48.44 596.92 48.45 596.89 48.45L596.78 47.17C596.8 47.17 596.82 47.16 596.85 47.16C612.05 45.77 631.19 37.99 653.35 28.98C680.33 18.01 710.91 5.56995 743.78 0.729952C776.79 -4.12005 809.52 3.04995 841.19 9.96995C869.14 16.08 895.54 21.85 918.1 17.9L918.3 19.17C916.03 19.57 913.73 19.87 911.41 20.08Z" fill="#00B0C7"/>
<path d="M930.64 30.51C909.49 32.44 885.49 27.19 860.22 21.66C828.65 14.76 795.99 7.60997 763.18 12.43C730.43 17.25 699.91 29.67 672.98 40.62C650.75 49.66 631.54 57.47 616.19 58.87C616.17 58.87 616.15 58.87 616.13 58.88L616.01 57.6C616.03 57.6 616.05 57.6 616.07 57.59C631.27 56.21 650.41 48.42 672.56 39.41C699.54 28.44 730.12 16 763 11.16C796.01 6.32997 828.75 13.48 860.41 20.4C888.36 26.51 914.75 32.28 937.31 28.34L937.51 29.61C935.26 30 932.97 30.3 930.64 30.51Z" fill="#00B0C7"/>
<path d="M949.88 40.94C928.73 42.87 904.72 37.62 879.46 32.09C847.89 25.19 815.23 18.04 782.42 22.86C749.66 27.68 719.15 40.1 692.22 51.05C669.99 60.09 650.79 67.9 635.44 69.3C635.42 69.3 635.39 69.3 635.37 69.31L635.26 68.03C635.28 68.03 635.3 68.02 635.33 68.02C650.53 66.64 669.67 58.85 691.83 49.84C718.81 38.87 749.39 26.43 782.26 21.59C815.27 16.74 848 23.91 879.67 30.83C907.6 36.95 934 42.72 956.56 38.77L956.76 40.04C954.5 40.43 952.21 40.73 949.88 40.94Z" fill="#00B0C7"/>
<path d="M932.84 54.68C911.69 56.61 887.69 51.36 862.42 45.83C830.85 38.93 798.2 31.78 765.38 36.6C732.62 41.42 702.11 53.84 675.18 64.79C652.95 73.83 633.75 81.64 618.39 83.04C618.37 83.04 618.35 83.04 618.32 83.05L618.21 81.77C618.23 81.77 618.25 81.77 618.28 81.76C633.48 80.38 652.62 72.59 674.77 63.58C701.75 52.61 732.33 40.17 765.21 35.33C798.21 30.48 830.95 37.65 862.62 44.57C890.57 50.68 916.96 56.45 939.52 52.5L939.72 53.77C937.46 54.17 935.17 54.47 932.84 54.68Z" fill="#00B0C7"/>
<path d="M915.8 68.41C894.65 70.34 870.65 65.09 845.38 59.56C813.81 52.66 781.16 45.52 748.34 50.33C715.59 55.15 685.07 67.57 658.15 78.52C635.92 87.56 616.72 95.37 601.36 96.77C601.34 96.77 601.31 96.77 601.29 96.78L601.18 95.5C601.2 95.5 601.23 95.5 601.25 95.49C616.45 94.1 635.59 86.32 657.75 77.31C684.73 66.34 715.31 53.9 748.18 49.06C781.18 44.22 813.92 51.38 845.59 58.3C873.54 64.41 899.92 70.18 922.5 66.23L922.7 67.5C920.43 67.9 918.13 68.2 915.8 68.41Z" fill="#00B0C7"/>
<path d="M898.781 82.15C877.631 84.08 853.631 78.83 828.361 73.3C796.781 66.39 764.131 59.26 731.311 64.07C698.551 68.89 668.031 81.31 641.111 92.26C618.881 101.3 599.681 109.11 584.321 110.51C584.301 110.51 584.281 110.51 584.261 110.52L584.141 109.24C584.161 109.24 584.181 109.24 584.201 109.23C599.401 107.85 618.541 100.06 640.691 91.05C667.671 80.07 698.251 67.64 731.131 62.79C764.131 57.96 796.881 65.11 828.541 72.03C856.491 78.14 882.881 83.91 905.441 79.97L905.641 81.24C903.391 81.64 901.101 81.94 898.781 82.15Z" fill="#00B0C7"/>
<path d="M918.011 92.58C896.861 94.51 872.861 89.26 847.591 83.73C816.021 76.83 783.361 69.68 750.551 74.5C717.791 79.32 687.271 91.74 660.351 102.69C638.121 111.73 618.911 119.54 603.561 120.94C603.541 120.94 603.521 120.94 603.501 120.95L603.391 119.67C603.411 119.67 603.431 119.67 603.451 119.66C618.651 118.28 637.791 110.49 659.951 101.48C686.931 90.51 717.511 78.07 750.391 73.23C783.391 68.39 816.131 75.55 847.801 82.47C875.751 88.58 902.151 94.35 924.711 90.41L924.911 91.68C922.631 92.07 920.341 92.37 918.011 92.58Z" fill="#00B0C7"/>
</g>
</g>
<defs>
<clipPath id="clip0_1_363">
<rect width="886.64" height="167.68" fill="white" transform="translate(0 0.719971)"/>
</clipPath>
</defs>
</svg>
