<svg width="887" height="90" viewBox="0 0 887 90" fill="none" xmlns="http://www.w3.org/2000/svg">
<rect width="887" height="104" fill="#00B0C7"/>
<mask id="mask0_1252_1537" style="mask-type:alpha" maskUnits="userSpaceOnUse" x="0" y="0" width="887" height="104">
<rect width="887" height="104" fill="#00B0C7"/>
</mask>
<g mask="url(#mask0_1252_1537)">
<g opacity="0.56">
<path d="M984.71 -38.8544C962.205 -37.5037 936.886 -44.0493 910.162 -51.0106C876.906 -59.7381 842.445 -68.6734 807.381 -64.5175C772.418 -60.3615 739.565 -47.7897 710.629 -36.6725C686.718 -27.5294 666.021 -19.633 649.745 -18.594H649.644L649.64 -18.6527C647.392 -18.1662 645.049 -17.9676 642.612 -17.8667C620.106 -16.5161 594.788 -23.0617 568.164 -30.0229C534.808 -38.7505 500.347 -47.6858 465.283 -43.5298C430.32 -39.3738 397.466 -26.8021 368.531 -15.6848C344.668 -6.56035 324.007 1.32244 307.746 2.38717L307.747 2.3936C305.522 2.79384 303.11 3.00138 300.781 3.20178L300.513 3.22482C278.008 4.5755 252.69 -1.97016 225.965 -8.9314C192.71 -17.6589 158.249 -26.5943 123.185 -22.4383C88.2215 -18.2823 55.368 -5.71054 26.4328 5.40668C2.52113 14.5498 -18.1756 22.4462 -34.4516 23.4852H-34.5521L-34.6525 22.0305H-34.5521C-18.3765 20.9915 2.2197 13.1991 26.031 4.056C55.0666 -7.06122 87.9201 -19.633 122.984 -23.8929C158.148 -28.0488 192.71 -19.1135 226.166 -10.386C255.566 -2.7073 283.462 4.55685 307.454 1.05646L307.446 0.939018H307.546C323.722 -0.099968 344.318 -7.8924 368.129 -17.0355C397.165 -28.1527 430.018 -40.7246 465.082 -44.9844C500.347 -49.1404 534.908 -40.2051 568.264 -31.4775C597.661 -23.7996 625.555 -16.5361 649.545 -20.0341L649.544 -20.0486H649.644C665.82 -21.0876 686.416 -28.88 710.228 -38.0232C739.263 -49.1404 772.117 -61.7122 807.281 -65.972C842.546 -70.128 877.007 -61.1927 910.463 -52.4651C939.901 -44.7766 967.831 -37.5037 991.843 -41.0362L992.044 -39.6856C989.633 -39.1661 987.222 -38.9583 984.71 -38.8544Z" fill="#232323"/>
<path d="M207.378 5.51057C234.103 12.4718 259.421 19.0175 281.926 17.6668C284.236 17.5673 286.638 17.277 288.956 16.8875L288.959 16.9395H289.06C305.336 15.9005 326.033 8.00416 349.944 -1.13896C378.879 -12.2562 411.733 -24.828 446.696 -28.9839C481.66 -33.1399 516.121 -24.2046 549.477 -15.477C576.201 -8.51579 601.52 -1.97017 624.025 -3.32085C626.431 -3.42037 628.744 -3.71053 631.054 -4.10003L631.058 -4.04813H631.158C647.434 -5.08712 668.131 -12.9835 692.043 -22.1266C720.978 -33.2438 753.831 -45.8156 788.795 -49.9716C823.858 -54.1275 858.319 -45.1922 891.575 -36.4647C918.3 -29.5034 943.618 -22.9578 966.123 -24.3085C968.635 -24.5163 971.046 -24.7241 973.457 -25.1397L973.256 -26.4904C949.244 -22.9578 921.314 -30.2307 891.876 -37.9193C858.42 -46.6468 823.959 -55.5821 788.694 -51.4262C753.53 -47.1663 720.676 -34.5945 691.641 -23.4773C667.829 -14.3342 647.233 -6.54174 631.058 -5.50275H630.957L630.959 -5.47373C606.992 -2.01032 579.134 -9.26434 549.778 -16.9317C516.422 -25.6592 481.861 -34.5945 446.596 -30.4385C411.432 -26.1787 378.578 -13.6069 349.542 -2.48964C325.731 6.65349 305.135 14.4459 288.959 15.4849H288.859L288.861 15.5139C264.893 18.9773 237.036 11.7233 207.68 4.056C174.223 -4.67154 139.762 -13.6069 104.498 -9.4509C69.3333 -5.19103 36.4798 7.38076 7.44412 18.498C-16.3671 27.6411 -36.9633 35.4336 -53.1389 36.4725H-53.2394L-53.1389 37.9271H-53.0385C-36.7624 36.8881 -16.0657 28.9918 7.846 19.8487C36.7812 8.73147 69.6347 -3.84035 104.598 -7.99632C139.662 -12.1523 174.123 -3.21695 207.378 5.51057Z" fill="#232323"/>
<path d="M263.34 32.2127C240.835 33.5634 215.516 27.0177 188.791 20.0565C155.536 11.3289 121.075 2.3936 86.0112 6.54957C51.0479 10.7055 18.1944 23.2774 -10.7408 34.3946C-34.6525 43.5377 -55.3492 51.434 -71.6253 52.473H-71.7258L-71.8262 51.0184H-71.7258C-55.5502 49.9794 -34.954 42.187 -11.1427 33.0439C17.8929 21.9266 50.7464 9.35486 85.8103 5.09499C121.075 0.939026 155.536 9.87435 188.992 18.6019C218.43 26.2904 246.36 33.5634 270.372 30.0308H270.473C286.649 28.9918 307.245 21.1994 331.056 12.0562C360.092 0.939034 392.945 -11.6328 428.009 -15.8927C463.274 -20.0486 497.735 -11.1133 531.191 -2.38577L531.452 -2.31798C560.815 5.32506 588.483 12.5269 612.48 9.07101L612.471 8.93927H612.571C628.747 7.90028 649.343 0.107819 673.154 -9.03531C702.19 -20.1525 735.044 -32.7243 770.107 -36.9842C805.272 -41.1401 839.833 -32.2048 873.289 -23.4773C902.727 -15.7887 930.657 -8.51581 954.67 -12.0484L954.871 -10.6977C952.56 -10.1782 950.048 -9.97039 947.637 -9.86649C925.132 -8.5158 899.813 -15.0615 873.089 -22.0227C839.833 -30.7502 805.372 -39.6856 770.308 -35.5296C735.345 -31.3736 702.491 -18.8018 673.556 -7.6846C649.742 1.4213 629.117 9.29054 612.871 10.3808L612.873 10.3939C610.554 10.7935 608.143 11.0009 605.817 11.201L605.539 11.225C583.033 12.5757 557.715 6.03009 530.99 -0.931152C497.634 -9.65868 463.173 -18.594 428.21 -14.438C393.247 -10.2821 360.393 2.28971 331.458 13.4069C307.546 22.55 286.85 30.4464 270.574 31.4854H270.473L270.467 31.4004C268.189 31.8034 265.813 32.0081 263.34 32.2127Z" fill="#232323"/>
<path d="M170.305 34.4984C197.03 41.4597 222.348 48.0053 244.853 46.6547C247.193 46.5538 249.628 46.2573 251.882 45.8601L251.886 45.9273H251.987C268.263 44.8884 288.959 36.992 312.871 27.8489C341.806 16.7317 374.66 4.1599 409.623 0.00393677C444.587 -4.15203 479.048 4.78329 512.403 13.5108C539.128 20.4721 564.447 27.0177 586.952 25.667C589.358 25.5675 591.671 25.2773 593.981 24.8878L593.985 24.9397H594.085C610.361 23.9007 631.058 16.0044 654.969 6.86128C683.905 -4.25593 716.758 -16.8277 751.721 -20.9837C786.785 -25.1397 821.146 -16.2043 854.502 -7.47682C881.227 -0.515572 906.545 6.03008 929.05 4.6794C931.562 4.57549 933.973 4.26378 936.284 3.84818L936.083 2.49751C912.071 6.03008 884.14 -1.24287 854.703 -8.9314C821.246 -17.6589 786.785 -26.5943 751.521 -22.4383C716.457 -18.1784 683.603 -5.60664 654.568 5.51057C630.756 14.6537 610.16 22.4462 593.985 23.4852H593.884L593.886 23.514C569.89 26.9675 542.225 19.7663 512.865 12.1241L512.604 12.0562C479.148 3.32871 444.687 -5.60662 409.422 -1.45065C374.358 2.80922 341.505 15.381 312.469 26.4982C288.658 35.6413 268.062 43.4338 251.886 44.4728H251.786L251.787 44.4873C227.797 47.9853 199.903 40.7218 170.506 33.0439C137.05 24.3163 102.488 15.381 67.324 19.537C32.2601 23.7968 -0.593323 36.3686 -29.629 47.4858C-53.4402 56.629 -74.0365 64.4214 -90.212 65.4604H-90.3125L-90.212 66.915H-90.1116C-73.8003 65.8801 -53.3028 58.0424 -29.5126 48.9457L-29.2271 48.8365C-0.291916 37.7193 32.5616 25.1475 67.5249 20.9916C102.589 16.8356 137.05 25.7709 170.305 34.4984Z" fill="#232323"/>
<path d="M264.847 58.8109C242.342 60.1616 217.023 53.6159 190.298 46.6547C157.043 37.9271 122.582 28.9918 87.5182 33.1478C52.5549 37.3037 19.7014 49.8755 -9.2338 60.9927C-33.1455 70.1359 -53.8422 78.0322 -70.1183 79.0712H-70.2187L-70.3192 77.6166H-70.2187C-54.0432 76.5776 -33.4469 68.7852 -9.63568 59.6421C19.4 48.5248 52.2535 35.9531 87.3173 31.7971C122.482 27.6411 157.043 36.5764 190.499 45.304C219.937 52.9925 247.867 60.2655 271.88 56.7329L271.893 56.8245L271.88 56.629H271.98C288.156 55.59 308.752 47.7975 332.563 38.6544C361.599 27.5372 394.452 14.9654 429.516 10.8094C464.781 6.65347 499.242 15.5888 532.698 24.3163L532.959 24.3841C562.322 32.0272 589.99 39.229 613.987 35.7731L613.978 35.6413H614.078C630.254 34.6023 650.85 26.8099 674.661 17.6668C703.697 6.54958 736.551 -6.02224 771.615 -10.1782C806.779 -14.3342 841.34 -5.39884 874.797 3.32869C904.234 11.0172 932.165 18.2902 956.177 14.7576L956.378 16.1083C954.067 16.42 951.656 16.6278 949.144 16.8356C926.639 18.1863 901.32 11.6406 874.596 4.6794C841.34 -4.04813 806.879 -12.9835 771.815 -8.8275C736.852 -4.67153 703.998 7.90025 675.063 19.0175C651.249 28.1234 630.624 35.9926 614.378 37.0829L614.38 37.0959C611.969 37.4076 609.557 37.6154 607.046 37.8232C584.54 39.1739 559.222 32.6283 532.497 25.667C499.141 16.9395 464.68 8.00415 429.717 12.1601C394.754 16.3161 361.9 28.8879 332.965 40.0051C309.053 49.1482 288.357 57.0446 272.081 58.0836C269.77 58.3953 267.358 58.6031 264.847 58.8109Z" fill="#232323"/>
<path d="M210.493 58.8109C237.117 65.7721 262.436 72.3177 284.941 70.9671C287.452 70.7593 289.864 70.5515 292.275 70.2398L292.259 70.1304C308.522 69.0696 329.188 61.1848 353.059 52.0574C381.994 40.9402 414.848 28.3684 449.811 24.2124C484.774 20.0565 519.235 28.9918 552.591 37.7193C579.316 44.6806 604.634 51.2262 627.14 49.8755C629.551 49.7716 632.062 49.5638 634.373 49.1482C650.649 48.1092 671.346 40.2129 695.258 31.0698C724.193 19.9526 757.046 7.38078 792.01 3.22482C827.074 -0.931152 861.535 8.00418 894.79 16.7317C921.414 23.693 946.733 30.2386 969.238 28.8879C971.649 28.784 974.161 28.5762 976.572 28.1606L976.371 26.8099C952.359 30.3425 924.428 23.0695 894.991 15.381C861.535 6.65347 826.973 -2.28186 791.809 1.87411C756.745 6.03008 723.892 18.6019 694.856 29.7191C671.045 38.8622 650.448 46.6547 634.273 47.6936H634.172L634.186 47.8884L634.172 47.7976C610.231 51.3197 582.494 44.1 553.053 36.4366L552.792 36.3686C519.436 27.6411 484.875 18.7058 449.61 22.8618C414.546 27.0177 381.693 39.5895 352.657 50.7067C328.846 59.8498 308.25 67.6423 292.074 68.6813H291.974L291.989 68.9016C267.996 72.4044 240.096 65.1396 210.694 57.4602C177.238 48.7326 142.676 39.7973 107.512 43.9533C72.4479 48.1092 39.5944 60.6811 10.5588 71.7983C-13.2525 80.9414 -33.8487 88.7338 -50.0243 89.7728H-50.1247L-50.0243 91.2274H-49.9238C-33.6478 90.1884 -12.9511 82.2921 10.9607 73.1489C39.8958 62.0317 72.7493 49.4599 107.713 45.304C142.776 41.148 177.237 50.0833 210.493 58.8109Z" fill="#232323"/>
<path d="M305.034 83.0194C282.529 84.3701 257.211 77.8244 230.486 70.8631C197.231 62.1356 162.77 53.2003 127.706 57.3563C92.7426 61.5122 59.8892 74.084 30.954 85.2012C7.04225 94.3444 -13.6544 102.241 -29.9305 103.28H-30.031L-30.1314 101.825H-30.031C-13.8554 100.786 6.74084 92.9937 30.5521 83.8505C59.5877 72.7333 92.4412 60.1615 127.606 55.9017C162.87 51.7457 197.331 60.681 230.788 69.4086C260.225 77.0971 288.156 84.3701 312.168 80.8375H312.268C328.444 79.7985 349.04 72.0061 372.852 62.8629C401.887 51.7457 434.741 39.1739 469.905 34.9141C505.17 30.7581 539.731 39.6934 573.087 48.421C602.403 56.0777 630.224 63.3222 654.169 59.8932L654.166 59.8499H654.266C670.442 58.8109 691.038 51.0184 714.849 41.8753C743.885 30.7581 776.738 18.1863 811.903 13.9264C847.067 9.77045 881.628 18.7058 915.085 27.4333C944.522 35.1218 972.453 42.3948 996.465 38.8622L996.666 40.2129C994.255 40.6285 991.743 40.9402 989.332 41.0441C966.827 42.3948 941.508 35.8491 914.783 28.8879C881.528 20.1604 847.067 11.225 812.003 15.381C777.04 19.537 744.186 32.1088 715.251 43.226C691.339 52.3691 670.643 60.2655 654.367 61.3044H654.266L654.264 61.2666C651.887 61.649 649.515 61.9334 647.233 62.0317C624.728 63.3824 599.41 56.8368 572.786 49.8755C539.43 41.148 504.969 32.2127 470.005 36.3686C435.042 40.5246 402.189 53.0964 373.253 64.2136C349.342 73.3567 328.645 81.2531 312.369 82.2921H312.268L312.263 82.2064C309.887 82.6129 307.509 82.917 305.034 83.0194Z" fill="#232323"/>
<path d="M211.899 85.409C238.624 92.3703 263.943 98.9159 286.448 97.5653C288.888 97.3634 291.234 97.1615 293.576 96.769L293.581 96.8379H293.682C309.958 95.799 330.654 87.9026 354.566 78.7595C383.501 67.6423 416.355 55.0705 451.318 50.9145C486.281 46.7586 520.742 55.6939 554.098 64.4214C580.823 71.3827 606.141 77.9283 628.646 76.5776C631.084 76.376 633.427 76.1743 635.675 75.7828L635.679 75.8503H635.78C652.056 74.8113 672.753 66.915 696.664 57.7719C725.599 46.6547 758.453 34.0829 793.416 29.9269C828.48 25.7709 862.941 34.7062 896.197 43.4338C922.921 50.395 948.24 56.9407 970.745 55.59C973.257 55.3822 975.668 55.1744 977.979 54.7588L977.778 53.4081C953.766 56.9407 925.835 49.6677 896.397 41.9792C862.941 33.2517 828.48 24.3163 793.215 28.4723C758.152 32.7322 725.298 45.304 696.262 56.4212C672.451 65.5643 651.855 73.3568 635.679 74.3958H635.579L635.58 74.4103C611.59 77.9082 583.696 70.6448 554.299 62.9668C520.943 54.2393 486.382 45.304 451.117 49.4599C416.053 53.7198 383.2 66.2916 354.164 77.4088C330.353 86.552 309.757 94.3444 293.581 95.3834H293.481L293.482 95.398C269.492 98.8959 241.598 91.6324 212.201 83.9545C178.745 75.2269 144.183 66.2916 109.019 70.4476C73.955 74.7074 41.1015 87.2792 12.0658 98.3964C-11.7454 107.54 -32.3417 115.332 -48.5172 116.371H-48.6177L-48.5172 117.826H-48.4168C-32.1407 116.787 -11.444 108.89 12.3672 99.7471C41.3024 88.6299 74.1559 76.0581 109.119 71.9021C144.183 67.7462 178.644 76.6815 211.899 85.409Z" fill="#232323"/>
<path d="M267.961 112.007C245.456 113.358 220.138 106.812 193.413 99.851C160.158 91.1235 125.697 82.1882 90.6329 86.3442C55.6695 90.5001 22.816 103.072 -6.11915 114.189C-30.0309 123.332 -50.7276 131.229 -67.0036 132.268H-67.1041L-67.2045 130.813C-51.093 129.882 -30.5956 122.044 -6.80467 112.947L-6.52103 112.838C22.5146 101.721 55.3681 89.1494 90.4319 84.9935C125.596 80.8375 160.158 89.7728 193.614 98.5004C223.014 106.179 250.91 113.443 274.902 109.943L274.894 109.825C291.005 108.894 311.503 101.056 335.293 91.9593L335.577 91.8508C364.613 80.7336 397.466 68.1618 432.53 64.0058C467.695 59.8499 502.256 68.7852 535.712 77.5127L535.973 77.5805C565.336 85.2236 593.004 92.4254 617.001 88.9695L616.992 88.8377H617.093C633.268 87.7987 653.864 80.0063 677.676 70.8631C706.711 59.7459 739.565 47.1742 774.629 43.0182C809.793 38.8622 844.354 47.7975 877.811 56.5251C907.248 64.2136 935.179 71.4866 959.191 67.954L959.392 69.3047C957.081 69.6164 954.67 69.9281 952.158 70.032C929.653 71.3827 904.335 64.837 877.61 57.8758C844.354 49.1482 809.893 40.2129 774.829 44.3689C739.866 48.5248 707.013 61.0966 678.077 72.2139C654.263 81.3198 633.638 89.189 617.392 90.2793L617.394 90.2923C614.983 90.604 612.571 90.9157 610.06 91.0196C587.555 92.3703 562.236 85.8246 535.511 78.8634C502.156 70.1359 467.695 61.2005 432.731 65.3565C397.768 69.5125 364.914 82.0843 335.979 93.2015C312.116 102.326 291.455 110.209 275.194 111.274L275.195 111.28C272.884 111.592 270.373 111.903 267.961 112.007Z" fill="#232323"/>
<path d="M174.927 114.397C201.551 121.358 226.869 127.904 249.375 126.553C251.784 126.354 254.102 126.154 256.504 125.771L256.508 125.826H256.608C272.884 124.787 293.581 116.89 317.493 107.747C346.428 96.6302 379.282 84.0583 414.245 79.9024C449.208 75.7464 483.669 84.6818 517.025 93.4093C543.75 100.371 569.068 106.916 591.573 105.566L591.863 105.541C594.087 105.349 596.393 105.151 598.703 104.784L598.707 104.838H598.807C615.083 103.799 635.78 95.9028 659.692 86.7597C688.627 75.6425 721.48 63.0707 756.444 58.9147C791.508 54.7588 825.868 63.6941 859.224 72.4216C885.848 79.3829 911.167 85.9285 933.672 84.5779L933.95 84.5539C936.276 84.3538 938.687 84.1463 941.006 83.7467L940.805 82.396C916.793 85.9286 888.862 78.6556 859.425 70.9671C825.969 62.2395 791.508 53.3042 756.243 57.4602C721.179 61.72 688.326 74.2918 659.29 85.409C635.479 94.5522 614.882 102.345 598.707 103.384H598.606L598.608 103.412C574.612 106.866 546.947 99.6647 517.587 92.0224L517.326 91.9547C483.87 83.2271 449.409 74.2918 414.144 78.4478C378.98 82.7077 346.127 95.2795 317.091 106.397C293.28 115.54 272.684 123.332 256.508 124.371H256.407L256.409 124.4C232.442 127.864 204.585 120.61 175.228 112.942C141.772 104.215 107.311 95.2795 72.0461 99.4354C36.8819 103.695 4.02836 116.267 -25.0073 127.384C-48.8185 136.527 -69.4148 144.32 -85.5903 145.359H-85.6908L-85.5903 146.813C-69.6759 145.905 -49.7764 138.324 -26.6297 129.506L-24.6054 128.735C4.32977 117.618 37.1833 105.046 72.1466 100.89C107.21 96.7341 141.671 105.669 174.927 114.397Z" fill="#232323"/>
<path d="M269.468 138.709C246.963 140.06 221.645 133.514 194.92 126.553C161.665 117.826 127.204 108.89 92.1399 113.046C57.1766 117.202 24.3231 129.774 -4.61211 140.891C-28.4234 150.034 -49.12 157.931 -65.4966 158.866H-65.597L-65.6975 157.411H-65.597C-49.4215 156.372 -28.8252 148.58 -5.01398 139.437C24.0217 128.319 56.8752 115.748 91.939 111.592C127.103 107.436 161.665 116.371 195.121 125.099C224.559 132.787 252.489 140.06 276.501 136.527L276.515 136.619L276.501 136.424H276.602C292.777 135.385 313.374 127.592 337.185 118.449C366.221 107.332 399.074 94.76 434.138 90.604C469.302 86.448 503.864 95.3833 537.32 104.111L537.58 104.179C566.943 111.822 594.611 119.024 618.609 115.568L618.6 115.436H618.7C634.876 114.397 655.472 106.605 679.283 97.4614C708.319 86.3442 741.172 73.7723 776.236 69.6164C811.501 65.4604 845.962 74.3957 879.418 83.1232C908.856 90.8118 936.786 98.0847 960.798 94.5522L960.999 95.9029C958.689 96.3185 956.177 96.5262 953.766 96.6301C931.26 97.9808 905.942 91.4352 879.217 84.474C845.962 75.7465 811.501 66.8111 776.437 70.9671C741.474 75.123 708.62 87.6949 679.685 98.8121C655.871 107.918 635.245 115.787 619 116.877L619.002 116.89C616.59 117.306 614.078 117.514 611.667 117.618C589.162 118.968 563.844 112.423 537.119 105.462C503.763 96.734 469.302 87.7987 434.339 91.9547C399.375 96.1106 366.522 108.682 337.587 119.8C313.675 128.943 292.978 136.839 276.702 137.878C274.391 138.294 271.98 138.501 269.468 138.709Z" fill="#232323"/>
<path d="M215.014 138.605C241.739 145.567 267.057 152.112 289.562 150.762C291.968 150.662 294.282 150.372 296.592 149.982L296.595 150.034H296.696C312.972 148.995 333.668 141.099 357.58 131.956C386.515 120.839 419.369 108.267 454.332 104.111C489.295 99.9549 523.756 108.89 557.112 117.618C583.837 124.579 609.155 131.125 631.661 129.774C634.066 129.674 636.38 129.384 638.69 128.995L638.693 129.047H638.794C655.07 128.008 675.767 120.111 699.678 110.968C728.614 99.8511 761.467 87.2792 796.43 83.1232C831.494 78.9673 865.855 87.9026 899.211 96.6301C925.935 103.591 951.254 110.137 973.759 108.786C976.271 108.682 978.682 108.371 981.093 107.955L980.892 106.604C956.79 110.136 928.974 102.87 899.55 95.1856L899.512 95.1756C866.056 86.448 831.595 77.5127 796.33 81.6687C761.166 85.9285 728.312 98.5003 699.276 109.618C675.465 118.761 654.869 126.553 638.693 127.592H638.593L638.595 127.621C614.627 131.085 586.77 123.831 557.414 116.163C524.058 107.436 489.496 98.5004 454.232 102.656C419.067 106.916 386.214 119.488 357.178 130.605C333.367 139.748 312.771 147.541 296.595 148.58H296.495L296.497 148.609C272.529 152.072 244.672 144.818 215.315 137.151C181.859 128.423 147.298 119.488 112.133 123.644C76.969 127.904 44.1156 140.476 15.0799 151.593C-8.73136 160.736 -29.3276 168.528 -45.5032 169.567H-45.6036L-45.5032 171.022H-45.4027C-29.1266 169.983 -8.42995 162.087 15.4818 152.943C44.417 141.826 77.2704 129.255 112.234 125.099C147.298 120.943 181.658 129.878 215.014 138.605Z" fill="#232323"/>
</g>
</g>
</svg>
