<svg width="1440" height="116" viewBox="0 0 1440 116" fill="none" xmlns="http://www.w3.org/2000/svg">
<path fill-rule="evenodd" clip-rule="evenodd" d="M1439.98 3.75683V116L0 116V45.7648V39.67C32.451 39.2334 68.6628 45.0999 106.669 51.2608C157.324 59.4724 209.707 67.9563 263.117 64.0232C316.325 60.0812 366.217 48.1929 410.238 37.7044C446.388 29.0914 477.612 21.6518 502.17 20.7136C502.204 20.7126 502.24 20.7116 502.274 20.7096L502.273 20.6966C538.772 17.3963 580.924 24.2221 625.561 31.4534C676.241 39.6629 728.635 48.1468 782.058 44.2138C835.265 40.2717 885.159 28.3835 929.18 17.895C965.33 9.28193 996.553 1.84136 1021.11 0.90416C1021.15 0.90316 1021.18 0.901154 1021.22 0.900154L1021.22 0.887138C1057.7 -2.4131 1099.85 4.41267 1144.46 11.645C1195.12 19.8575 1247.49 28.3484 1300.91 24.4084C1350.9 20.7036 1397.98 9.98383 1440 0L1439.98 3.75683Z" fill="#242424"/>
</svg>
