<svg width="887" height="120" viewBox="0 0 887 120" fill="none" xmlns="http://www.w3.org/2000/svg">
<path d="M0.000244141 116.063V0H887V72.6791V78.9637C867.007 79.3692 844.668 73.3886 821.296 67.0026C790.134 58.4879 757.845 49.7705 724.9 53.8251C692.142 57.8797 661.355 70.1449 634.323 81.0924C612.077 90.0126 592.835 97.7163 577.723 98.6286C577.723 98.6286 577.723 98.6286 577.63 98.6286C555.103 102.075 529.197 94.9795 501.695 87.4784C470.439 78.9637 438.244 70.2463 405.298 74.3009C372.54 78.3555 341.753 90.6207 314.627 101.568C292.382 110.488 273.14 118.192 258.028 119.104C258.028 119.104 258.028 119.104 257.934 119.104C235.501 122.551 209.501 115.455 181.999 107.954C150.837 99.4396 118.548 90.7221 85.6028 94.7767C54.8159 98.5273 25.8124 109.576 0.000244141 119.915V116.063Z" fill="#00B0C7"/>
<mask id="mask0_1168_1370" style="mask-type:alpha" maskUnits="userSpaceOnUse" x="0" y="0" width="887" height="120">
<path d="M0 116.063V0H887V72.6791V78.9637C867.007 79.3692 844.668 73.3886 821.296 67.0026C790.134 58.4879 757.845 49.7705 724.899 53.8251C692.141 57.8797 661.355 70.1449 634.322 81.0924C612.077 90.0126 592.835 97.7163 577.723 98.6286C577.723 98.6286 577.723 98.6286 577.629 98.6286C555.102 102.075 529.196 94.9795 501.695 87.4784C470.438 78.9637 438.244 70.2463 405.298 74.3009C372.54 78.3555 341.753 90.6207 314.627 101.568C292.381 110.488 273.14 118.192 258.028 119.104C258.028 119.104 258.028 119.104 257.934 119.104C235.501 122.551 209.501 115.455 181.999 107.954C150.837 99.4396 118.548 90.7221 85.6025 94.7767C54.8157 98.5273 25.8122 109.576 0 119.915V116.063Z" fill="#242424"/>
</mask>
<g mask="url(#mask0_1168_1370)">
<g opacity="0.56">
<path d="M938.343 -40.2424C917.317 -38.9247 893.664 -45.3107 868.697 -52.1022C837.628 -60.6169 805.434 -69.3343 772.675 -65.2797C740.011 -61.2251 709.318 -48.9599 682.286 -38.1138C659.947 -29.1936 640.611 -21.4898 625.405 -20.4762H625.312L625.308 -20.5334C623.207 -20.0588 621.018 -19.865 618.741 -19.7666C597.716 -18.4489 574.063 -24.8349 549.189 -31.6264C518.027 -40.1411 485.832 -48.8585 453.074 -44.8039C420.41 -40.7493 389.717 -28.4841 362.684 -17.6379C340.391 -8.73595 321.088 -1.04539 305.897 -0.00662994L305.898 -0.000350952C303.819 0.390121 301.565 0.592606 299.39 0.788116L299.14 0.810593C278.114 2.12834 254.461 -4.2577 229.494 -11.0492C198.425 -19.5639 166.23 -28.2813 133.472 -24.2267C100.808 -20.1721 70.1153 -7.90687 43.0829 2.93924C20.7437 11.8594 1.40802 19.5632 -13.7977 20.5769H-13.8916L-13.9854 19.1577H-13.8916C1.22029 18.1441 20.4621 10.5417 42.7075 1.62151C69.8337 -9.22461 100.527 -21.4898 133.285 -25.6458C166.137 -29.7004 198.425 -20.983 229.681 -12.4683C257.148 -4.97686 283.21 2.11015 305.624 -1.30489L305.616 -1.41946H305.71C320.822 -2.43311 340.064 -10.0355 362.309 -18.9557C389.435 -29.8018 420.128 -42.067 452.886 -46.223C485.832 -50.2776 518.121 -41.5602 549.283 -33.0455C576.747 -25.5548 602.806 -18.4685 625.219 -21.8811L625.218 -21.8953H625.312C640.423 -22.909 659.665 -30.5114 681.911 -39.4315C709.037 -50.2776 739.73 -62.5428 772.582 -66.6988C805.527 -70.7534 837.722 -62.036 868.978 -53.5213C896.48 -46.0203 922.574 -38.9247 945.007 -42.3711L945.195 -41.0534C942.942 -40.5465 940.689 -40.3438 938.343 -40.2424Z" fill="#232323"/>
<path d="M212.129 3.04061C237.097 9.8321 260.75 16.2181 281.775 14.9004C283.933 14.8033 286.177 14.5201 288.342 14.1401L288.345 14.1908H288.439C303.645 13.1772 322.981 5.47339 345.32 -3.44678C372.352 -14.2929 403.045 -26.5581 435.709 -30.6127C468.374 -34.6673 500.568 -25.9499 531.731 -17.4352C556.698 -10.6437 580.351 -4.25771 601.377 -5.57545C603.624 -5.67255 605.786 -5.95563 607.944 -6.33564L607.947 -6.285H608.041C623.247 -7.29865 642.582 -15.0025 664.921 -23.9226C691.954 -34.7687 722.647 -47.0339 755.311 -51.0886C788.069 -55.1432 820.264 -46.4257 851.332 -37.911C876.3 -31.1196 899.953 -24.7335 920.978 -26.0513C923.325 -26.254 925.577 -26.4567 927.83 -26.8622L927.642 -28.1799C905.209 -24.7335 879.116 -31.8291 851.614 -39.3302C820.358 -47.8448 788.163 -56.5623 755.217 -52.5077C722.365 -48.3517 691.672 -36.0865 664.546 -25.2404C642.301 -16.3202 623.059 -8.71779 607.947 -7.70414H607.853L607.855 -7.67584C585.464 -4.29689 559.438 -11.374 532.012 -18.8543C500.85 -27.369 468.561 -36.0865 435.616 -32.0319C402.764 -27.8759 372.071 -15.6106 344.944 -4.76451C322.699 4.15565 303.457 11.758 288.345 12.7717H288.252L288.253 12.8C265.862 16.179 239.836 9.10184 212.411 1.62151C181.155 -6.8932 148.96 -15.6106 116.014 -11.556C83.1622 -7.40003 52.4692 4.86519 25.3429 15.7113C3.09754 24.6315 -16.1443 32.2339 -31.2561 33.2475H-31.35L-31.2561 34.6667H-31.1622C-15.9565 33.653 3.37913 25.9492 25.7184 17.0291C52.7508 6.18296 83.4438 -6.08228 116.108 -10.1369C148.866 -14.1915 181.061 -5.47409 212.129 3.04061Z" fill="#232323"/>
<path d="M264.41 29.0916C243.385 30.4093 219.732 24.0233 194.765 17.2318C163.696 8.71708 131.501 -0.000350952 98.7433 4.05427C66.0792 8.10889 35.3862 20.3741 8.35384 31.2202C-13.9854 40.1404 -33.3211 47.8442 -48.5268 48.8578H-48.6207L-48.7145 47.4387H-48.6207C-33.5088 46.4251 -14.267 38.8226 7.97839 29.9025C35.1046 19.0564 65.7976 6.79114 98.5556 2.63515C131.501 -1.41946 163.696 7.29797 194.952 15.8127C222.454 23.3137 248.548 30.4093 270.981 26.9629H271.075C286.187 25.9492 305.428 18.3468 327.674 9.42666C354.8 -1.41946 385.493 -13.6847 418.251 -17.8407C451.197 -21.8953 483.392 -13.1779 514.648 -4.66317L514.891 -4.59703C542.323 2.85962 568.172 9.88587 590.591 6.51423L590.583 6.3857H590.676C605.788 5.37204 625.03 -2.23039 647.275 -11.1506C674.402 -21.9967 705.095 -34.2619 737.853 -38.4179C770.705 -42.4725 802.993 -33.7551 834.249 -25.2404C861.751 -17.7393 887.845 -10.6437 910.278 -14.0901L910.466 -12.7724C908.307 -12.2656 905.96 -12.0628 903.708 -11.9615C882.682 -10.6437 859.029 -17.0298 834.062 -23.8212C802.993 -32.3359 770.798 -41.0534 738.04 -36.9988C705.376 -32.9441 674.683 -20.6789 647.651 -9.83279C625.403 -0.948944 606.133 6.7284 590.956 7.79209L590.958 7.8048C588.792 8.19468 586.539 8.39709 584.366 8.59232L584.106 8.61572C563.081 9.93346 539.427 3.54745 514.46 -3.24403C483.298 -11.7587 451.103 -20.4762 418.439 -16.4215C385.775 -12.3669 355.082 -0.101715 328.049 10.7444C305.71 19.6646 286.374 27.3683 271.169 28.382H271.075L271.069 28.2991C268.941 28.6923 266.721 28.8919 264.41 29.0916Z" fill="#232323"/>
<path d="M177.494 31.3216C202.461 38.1131 226.115 44.4991 247.14 43.1814C249.326 43.083 251.6 42.7937 253.706 42.4062L253.71 42.4718H253.804C269.01 41.4581 288.346 33.7543 310.685 24.8342C337.717 13.9881 368.41 1.72288 401.074 -2.33174C433.738 -6.38637 465.933 2.33106 497.096 10.8458C522.063 17.6373 545.716 24.0233 566.742 22.7055C568.989 22.6084 571.151 22.3253 573.309 21.9453L573.312 21.996H573.406C588.611 20.9823 607.947 13.2785 630.286 4.35838C657.319 -6.48773 688.012 -18.753 720.676 -22.8076C753.434 -26.8622 785.535 -18.1448 816.697 -9.63008C841.664 -2.83858 865.318 3.54745 886.343 2.22971C888.69 2.12833 890.942 1.82422 893.101 1.41876L892.913 0.101021C870.48 3.54744 844.387 -3.54814 816.885 -11.0492C785.629 -19.5639 753.434 -28.2813 720.488 -24.2267C687.73 -20.0707 657.037 -7.8055 629.911 3.04061C607.665 11.9608 588.424 19.5632 573.312 20.5769H573.218L573.22 20.605C550.802 23.9743 524.956 16.9487 497.527 9.49281L497.283 9.42666C466.027 0.911957 433.832 -7.80548 400.887 -3.75086C368.129 0.405128 337.436 12.6703 310.309 23.5165C288.064 32.4366 268.822 40.039 253.71 41.0527H253.616L253.617 41.0669C231.205 44.4795 205.145 37.3932 177.682 29.9025C146.426 21.3878 114.137 12.6703 81.285 16.725C48.527 20.8809 17.834 33.1461 -9.29221 43.9923C-31.5376 52.9124 -50.7794 60.5149 -65.8912 61.5285H-65.9851L-65.8912 62.9476H-65.7974C-50.5587 61.938 -31.4092 54.2914 -9.1835 45.4165L-8.91675 45.31C18.1156 34.4639 48.8086 22.1987 81.4728 18.1441C114.231 14.0894 146.426 22.8069 177.494 31.3216Z" fill="#232323"/>
<path d="M265.818 55.0411C244.793 56.3589 221.14 49.9728 196.173 43.1814C165.104 34.6666 132.909 25.9492 100.151 30.0038C67.4872 34.0585 36.7942 46.3237 9.76178 57.1698C-12.5775 66.0899 -31.9131 73.7937 -47.1189 74.8074H-47.2127L-47.3066 73.3883H-47.2127C-32.1009 72.3746 -12.8591 64.7722 9.38632 55.852C36.5126 45.0059 67.2056 32.7407 99.9636 28.6861C132.815 24.6315 165.104 33.3489 196.36 41.8636C223.862 49.3647 249.956 56.4602 272.389 53.0138L272.402 53.1032L272.389 52.9124H272.483C287.595 51.8988 306.836 44.2964 329.082 35.3762C356.208 24.5301 386.901 12.2649 419.659 8.21026C452.605 4.15564 484.8 12.8731 516.056 21.3878L516.299 21.4539C543.731 28.9106 569.58 35.9368 591.999 32.5652L591.99 32.4366H592.084C607.196 31.423 626.438 23.8205 648.683 14.9004C675.81 4.05428 706.503 -8.21096 739.261 -12.2656C772.112 -16.3202 804.401 -7.60277 835.657 0.911934C863.159 8.41297 889.253 15.5086 911.686 12.0621L911.874 13.3799C909.715 13.684 907.462 13.8867 905.116 14.0894C884.09 15.4072 860.437 9.02119 835.47 2.22971C804.401 -6.285 772.206 -15.0024 739.448 -10.9478C706.784 -6.8932 676.091 5.37202 649.059 16.2181C626.811 25.102 607.541 32.7793 592.364 33.843L592.366 33.8557C590.113 34.1598 587.861 34.3625 585.514 34.5653C564.489 35.883 540.835 29.497 515.868 22.7055C484.706 14.1908 452.511 5.47338 419.847 9.528C387.183 13.5826 356.49 25.8479 329.457 36.694C307.118 45.6141 287.782 53.3179 272.577 54.3316C270.418 54.6356 268.165 54.8384 265.818 55.0411Z" fill="#232323"/>
<path d="M215.039 55.0411C239.913 61.8326 263.566 68.2186 284.591 66.9009C286.938 66.6981 289.19 66.4954 291.443 66.1913L291.428 66.0847C306.622 65.0497 325.929 57.3572 348.23 48.4524C375.262 37.6063 405.955 25.341 438.619 21.2864C471.283 17.2318 503.478 25.9492 534.641 34.4639C559.608 41.2554 583.261 47.6414 604.286 46.3237C606.539 46.2223 608.886 46.0196 611.044 45.6141C626.25 44.6005 645.586 36.8967 667.925 27.9765C694.958 17.1304 725.651 4.86521 758.315 0.810593C791.073 -3.24403 823.268 5.4734 854.336 13.9881C879.21 20.7796 902.863 27.1656 923.888 25.8478C926.141 25.7465 928.487 25.5438 930.74 25.1383L930.552 23.8205C908.119 27.267 882.025 20.1714 854.524 12.6703C823.268 4.15563 790.979 -4.5618 758.127 -0.507179C725.369 3.54744 694.676 15.8127 667.55 26.6588C645.304 35.5789 626.063 43.1814 610.951 44.195H610.857L610.869 44.385L610.857 44.2964C588.49 47.7326 562.577 40.689 535.072 33.2125L534.828 33.1462C503.666 24.6315 471.377 15.914 438.432 19.9687C405.674 24.0233 374.981 36.2885 347.854 47.1346C325.609 56.0548 306.367 63.6572 291.255 64.6709H291.161L291.176 64.8857C268.76 68.3032 242.696 61.2155 215.227 53.7234C183.971 45.2087 151.682 36.4912 118.83 40.5458C86.072 44.6005 55.379 56.8657 28.2528 67.7118C6.00736 76.632 -13.2344 84.2344 -28.3463 85.248H-28.4401L-28.3463 86.6672H-28.2524C-13.0467 85.6535 6.28896 77.9497 28.6282 69.0296C55.6606 58.1834 86.3536 45.9182 119.018 41.8636C151.776 37.809 183.971 46.5264 215.039 55.0411Z" fill="#232323"/>
<path d="M303.363 78.6593C282.338 79.977 258.685 73.591 233.717 66.7995C202.649 58.2848 170.454 49.5674 137.696 53.622C105.032 57.6766 74.3391 69.9418 47.3067 80.7879C24.9675 89.7081 5.63183 97.4119 -9.57388 98.4255H-9.66775L-9.76161 97.0064H-9.66775C5.4441 95.9927 24.6859 88.3904 46.9313 79.4702C74.0575 68.6241 104.751 56.3589 137.602 52.2029C170.548 48.1483 202.743 56.8657 233.999 65.3804C261.501 72.8814 287.595 79.977 310.028 76.5306H310.122C325.234 75.517 344.475 67.9145 366.721 58.9944C393.847 48.1483 424.54 35.883 457.392 31.7271C490.338 27.6724 522.626 36.3899 553.789 44.9046C581.176 52.3746 607.168 59.4424 629.538 56.097L629.535 56.0548H629.629C644.741 55.0411 663.983 47.4387 686.228 38.5185C713.355 27.6724 744.048 15.4072 776.899 11.2512C809.751 7.1966 842.04 15.914 873.296 24.4287C900.798 31.9298 926.892 39.0254 949.325 35.5789L949.512 36.8967C947.26 37.3021 944.913 37.6062 942.661 37.7076C921.635 39.0254 897.982 32.6393 873.015 25.8478C841.946 17.3331 809.751 8.61572 776.993 12.6703C744.329 16.725 713.636 28.9902 686.604 39.8363C664.265 48.7565 644.929 56.4602 629.723 57.4739H629.629L629.627 57.4369C627.407 57.81 625.191 58.0875 623.059 58.1834C602.034 59.5012 578.38 53.1152 553.507 46.3237C522.345 37.809 490.15 29.0916 457.486 33.1462C424.822 37.2008 394.129 49.466 367.096 60.3121C344.757 69.2323 325.421 76.9361 310.216 77.9497H310.122L310.116 77.8661C307.897 78.2627 305.676 78.5594 303.363 78.6593Z" fill="#232323"/>
<path d="M216.353 80.9907C241.32 87.7822 264.974 94.1682 285.999 92.8504C288.279 92.6535 290.47 92.4565 292.659 92.0736L292.663 92.1409H292.757C307.963 91.1272 327.298 83.4234 349.638 74.5033C376.67 63.6572 407.363 51.392 440.027 47.3373C472.691 43.2827 504.886 52.0002 536.048 60.5149C561.016 67.3063 584.669 73.6924 605.694 72.3746C607.971 72.1779 610.16 71.9812 612.26 71.5992L612.265 71.6651H612.359C627.564 70.6514 646.9 62.9476 669.239 54.0275C696.272 43.1814 726.965 30.9161 759.629 26.8615C792.387 22.8069 824.582 31.5243 855.65 40.039C880.617 46.8305 904.271 53.2165 925.296 51.8988C927.643 51.6961 929.895 51.4933 932.054 51.0878L931.866 49.7701C909.433 53.2165 883.339 46.1209 855.838 38.6199C824.582 30.1052 792.387 21.3878 759.441 25.4424C726.683 29.5984 695.99 41.8636 668.864 52.7097C646.618 61.6299 627.377 69.2323 612.265 70.2459H612.171L612.172 70.2602C589.76 73.6728 563.7 66.5864 536.236 59.0957C505.074 50.581 472.785 41.8636 439.84 45.9182C407.082 50.0742 376.388 62.3394 349.262 73.1855C327.017 82.1057 307.775 89.7081 292.663 90.7218H292.569L292.57 90.736C270.158 94.1486 244.098 87.0623 216.635 79.5716C185.378 71.0569 153.09 62.3394 120.238 66.394C87.4799 70.55 56.7869 82.8152 29.6607 93.6613C7.41531 102.581 -11.8265 110.184 -26.9383 111.198H-27.0322L-26.9383 112.617H-26.8445C-11.6388 111.603 7.69689 103.899 29.9423 94.9791C56.9747 84.133 87.6677 71.8678 120.332 67.8132C153.09 63.7585 185.285 72.476 216.353 80.9907Z" fill="#232323"/>
<path d="M268.728 106.94C247.703 108.258 224.05 101.872 199.082 95.0805C168.014 86.5658 135.819 77.8484 103.061 81.903C70.397 85.9576 39.704 98.2228 12.6716 109.069C-9.66766 117.989 -29.0033 125.693 -44.209 126.707H-44.3029L-44.3968 125.287C-29.3447 124.379 -10.1953 116.732 12.0312 107.857L12.2962 107.751C39.4224 96.9051 70.1154 84.6399 102.873 80.5852C135.725 76.5306 168.014 85.248 199.27 93.7628C226.737 101.254 252.799 108.341 275.212 104.926L275.205 104.812C290.257 103.903 309.406 96.2564 331.633 87.3812L331.898 87.2753C359.024 76.4292 389.717 64.164 422.475 60.1094C455.327 56.0548 487.615 64.7722 518.872 73.2869L519.115 73.3531C546.547 80.8097 572.396 87.8359 594.815 84.4643L594.806 84.3357H594.9C610.012 83.3221 629.254 75.7197 651.499 66.7995C678.626 55.9534 709.318 43.6882 742.076 39.6336C774.928 35.5789 807.217 44.2964 838.473 52.8111C865.975 60.3121 892.069 67.4077 914.502 63.9613L914.69 65.279C912.531 65.5831 910.278 65.8872 907.931 65.9886C886.906 67.3063 863.253 60.9203 838.285 54.1288C807.217 45.6141 775.022 36.8967 742.264 40.9513C709.6 45.0059 678.907 57.2712 651.875 68.1173C629.626 77.0011 610.357 84.6785 595.18 85.7421L595.182 85.7549C592.929 86.059 590.676 86.3631 588.33 86.4644C567.305 87.7822 543.651 81.3961 518.684 74.6046C487.522 66.0899 455.327 57.3725 422.663 61.4271C389.999 65.4818 359.306 77.747 332.273 88.5931C309.979 97.4951 290.677 105.186 275.486 106.224L275.486 106.231C273.328 106.535 270.981 106.839 268.728 106.94Z" fill="#232323"/>
<path d="M181.812 109.272C206.685 116.063 230.339 122.449 251.364 121.131C253.615 120.937 255.78 120.742 258.025 120.369L258.028 120.422H258.122C273.328 119.408 292.663 111.704 315.003 102.784C342.035 91.9381 372.728 79.6729 405.392 75.6183C438.056 71.5637 470.251 80.2811 501.413 88.7958C526.381 95.5873 550.034 101.973 571.059 100.656L571.329 100.631C573.408 100.445 575.562 100.251 577.72 99.893L577.724 99.946H577.817C593.023 98.9324 612.359 91.2286 634.698 82.3084C661.73 71.4623 692.423 59.1971 725.088 55.1425C757.846 51.0878 789.946 59.8053 821.109 68.32C845.982 75.1115 869.636 81.4975 890.661 80.1797L890.921 80.1564C893.094 79.9612 895.347 79.7587 897.513 79.3688L897.325 78.0511C874.892 81.4975 848.798 74.4019 821.297 66.9009C790.04 58.3862 757.846 49.6687 724.9 53.7234C692.142 57.8793 661.449 70.1446 634.323 80.9907C612.077 89.9108 592.835 97.5132 577.724 98.5269H577.63L577.632 98.5551C555.214 101.924 529.367 94.8987 501.938 87.4427L501.695 87.3767C470.439 78.862 438.244 70.1446 405.298 74.1992C372.446 78.3552 341.753 90.6204 314.627 101.467C292.382 110.387 273.14 117.989 258.028 119.003H257.934L257.936 119.031C235.545 122.41 209.519 115.333 182.093 107.853C150.837 99.3378 118.642 90.6204 85.6967 94.675C52.8448 98.831 22.1518 111.096 -4.97445 121.942C-27.2198 130.863 -46.4616 138.465 -61.5735 139.479H-61.6673L-61.5735 140.898C-46.7056 140.011 -28.1147 132.615 -6.49012 124.012L-4.59899 123.26C22.4334 112.414 53.1264 100.149 85.7905 96.0941C118.549 92.0395 150.743 100.757 181.812 109.272Z" fill="#232323"/>
<path d="M270.136 132.991C249.111 134.309 225.458 127.923 200.49 121.131C169.422 112.617 137.227 103.899 104.469 107.954C71.8049 112.009 41.1119 124.274 14.0795 135.12C-8.16586 144.04 -27.5015 151.744 -42.8011 152.656H-42.895L-42.9888 151.237H-42.895C-27.7831 150.223 -8.54131 142.621 13.7041 133.701C40.8303 122.855 71.5233 110.589 104.281 106.535C137.133 102.48 169.422 111.198 200.678 119.712C228.18 127.213 254.273 134.309 276.707 130.862L276.719 130.951L276.707 130.761H276.801C291.912 129.747 311.154 122.145 333.4 113.225C360.526 102.379 391.219 90.1136 423.977 86.0589C456.829 82.0043 489.117 90.7217 520.373 99.2365L520.617 99.3026C548.049 106.759 573.897 113.785 596.317 110.414L596.308 110.285H596.402C611.514 109.272 630.756 101.669 653.001 92.7491C680.127 81.903 710.82 69.6377 743.578 65.5831C776.524 61.5285 808.719 70.2459 839.975 78.7606C867.477 86.2617 893.57 93.3572 916.004 89.9108L916.191 91.2286C914.033 91.6341 911.686 91.8367 909.433 91.9381C888.408 93.2559 864.755 86.8699 839.787 80.0784C808.719 71.5637 776.524 62.8463 743.766 66.9009C711.102 70.9555 680.409 83.2207 653.377 94.0668C631.128 102.951 611.859 110.628 596.682 111.692L596.684 111.704C594.431 112.11 592.084 112.313 589.832 112.414C568.807 113.732 545.153 107.346 520.186 100.554C489.023 92.0395 456.829 83.3221 424.165 87.3767C391.5 91.4313 360.807 103.697 333.775 114.543C311.436 123.463 292.1 131.167 276.894 132.18C274.736 132.586 272.483 132.788 270.136 132.991Z" fill="#232323"/>
<path d="M219.263 132.89C244.23 139.681 267.884 146.067 288.909 144.75C291.156 144.652 293.318 144.369 295.476 143.989L295.479 144.04H295.573C310.779 143.026 330.114 135.323 352.454 126.402C379.486 115.556 410.179 103.291 442.843 99.2365C475.507 95.1818 507.702 103.899 538.864 112.414C563.832 119.205 587.485 125.591 608.51 124.274C610.758 124.177 612.919 123.894 615.077 123.514L615.081 123.564H615.174C630.38 122.551 649.716 114.847 672.055 105.927C699.087 95.0805 729.781 82.8152 762.445 78.7606C795.203 74.706 827.304 83.4234 858.466 91.9381C883.433 98.7296 907.087 105.116 928.112 103.798C930.458 103.697 932.711 103.392 934.964 102.987L934.776 101.669C912.259 105.114 886.272 98.0262 858.783 90.5288L858.747 90.519C827.491 82.0043 795.296 73.2869 762.351 77.3415C729.499 81.4975 698.806 93.7627 671.68 104.609C649.434 113.529 630.193 121.131 615.081 122.145H614.987L614.989 122.173C592.597 125.552 566.572 118.475 539.146 110.995C507.984 102.48 475.695 93.7628 442.749 97.8174C409.897 101.973 379.204 114.239 352.078 125.085C329.833 134.005 310.591 141.607 295.479 142.621H295.385L295.387 142.649C272.996 146.028 246.97 138.951 219.544 131.471C188.288 122.956 156 114.239 123.148 118.293C90.2958 122.449 59.6028 134.714 32.4766 145.56C10.2312 154.481 -9.01062 162.083 -24.1225 163.097H-24.2163L-24.1225 164.516H-24.0286C-8.82289 163.502 10.5128 155.798 32.852 146.878C59.8844 136.032 90.5774 123.767 123.242 119.712C156 115.658 188.1 124.375 219.263 132.89Z" fill="#232323"/>
</g>
</g>
</svg>
