<svg width="31" height="28" viewBox="0 0 31 28" fill="none" xmlns="http://www.w3.org/2000/svg">
<mask id="mask0_0:3931" style="mask-type:alpha" maskUnits="userSpaceOnUse" x="0" y="11" width="31" height="17">
<path fill-rule="evenodd" clip-rule="evenodd" d="M0 11.6411H30.515V27.4838H0V11.6411Z" fill="white"/>
</mask>
<g mask="url(#mask0_0:3931)">
<path fill-rule="evenodd" clip-rule="evenodd" d="M9.058 21.227L5.849 18.017C7.719 15.932 9.061 15.462 10.453 15.462C12.085 15.462 12.863 15.621 14.255 16.555L14.491 16.713H18.093C18.561 16.713 19.097 16.902 19.331 17.671H13.402V19.542H21.321V18.607C21.321 18.076 21.239 17.637 21.126 17.238C21.852 16.69 23.808 15.212 25.233 14.143C26.167 13.443 26.942 13.328 27.751 13.807L19.872 21.227H9.058ZM30.515 13.775L29.833 13.093C27.595 10.856 25.484 11.615 24.11 12.645C22.783 13.641 20.993 14.993 20.165 15.619C19.506 15.043 18.696 14.842 18.093 14.842H15.055C13.401 13.783 12.227 13.591 10.453 13.591C8.291 13.591 6.481 14.537 4.523 16.691L3.28 15.448L0 18.728L1.324 20.052L3.28 18.096L9.388 24.205L7.432 26.16L8.757 27.484L12.035 24.205L10.929 23.098H20.614L30.515 13.775Z" fill="#FEFEFE"/>
</g>
<mask id="mask1_0:3931" style="mask-type:alpha" maskUnits="userSpaceOnUse" x="10" y="0" width="14" height="13">
<path fill-rule="evenodd" clip-rule="evenodd" d="M10.9395 0H23.9275V12.9882H10.9395V0Z" fill="white"/>
</mask>
<g mask="url(#mask1_0:3931)">
<path fill-rule="evenodd" clip-rule="evenodd" d="M17.4335 3.26902C19.2115 3.26902 20.6585 4.71502 20.6585 6.49402C20.6585 8.27202 19.2115 9.71802 17.4335 9.71802C15.6555 9.71802 14.2085 8.27202 14.2085 6.49402C14.2085 4.71502 15.6555 3.26902 17.4335 3.26902ZM12.8945 9.47202L12.0615 10.305L13.6215 11.866L14.4545 11.033C15.0165 11.403 15.6495 11.673 16.3295 11.814V12.988H18.5375V11.814C19.2175 11.673 19.8505 11.403 20.4125 11.033L21.2455 11.866L22.8055 10.305L21.9725 9.47202C22.3425 8.91102 22.6125 8.27802 22.7535 7.59802H23.9275V5.38902H22.7535C22.6125 4.70902 22.3425 4.07702 21.9725 3.51502L22.8055 2.68202L21.2455 1.12202L20.4125 1.95402C19.8505 1.58502 19.2175 1.31402 18.5375 1.17302V-0.000976562H16.3295V1.17302C15.6495 1.31402 15.0165 1.58502 14.4545 1.95402L13.6215 1.12202L12.0615 2.68202L12.8945 3.51502C12.5245 4.07702 12.2545 4.70902 12.1135 5.38902H10.9395V7.59802H12.1135C12.2545 8.27802 12.5245 8.91102 12.8945 9.47202Z" fill="#FEFEFE"/>
</g>
</svg>
