<svg width="31" height="28" viewBox="0 0 31 28" fill="none" xmlns="http://www.w3.org/2000/svg">
<mask id="mask0_0:2659" style="mask-type:alpha" maskUnits="userSpaceOnUse" x="0" y="11" width="31" height="17">
<path fill-rule="evenodd" clip-rule="evenodd" d="M0 11.4839H30.515V27.3277H0V11.4839Z" fill="white"/>
</mask>
<g mask="url(#mask0_0:2659)">
<path fill-rule="evenodd" clip-rule="evenodd" d="M9.058 21.0709L5.849 17.8609C7.719 15.7749 9.061 15.3049 10.453 15.3049C12.084 15.3049 12.862 15.4639 14.255 16.3989L14.491 16.5569H18.093C18.561 16.5569 19.097 16.7459 19.331 17.5149H13.403V19.3859H21.321V18.4509C21.321 17.9199 21.239 17.4809 21.126 17.0809C21.852 16.5329 23.81 15.0549 25.233 13.9859C26.167 13.2859 26.941 13.1679 27.751 13.6509L19.872 21.0709H9.058ZM30.515 13.6189L29.833 12.9369C27.594 10.6989 25.485 11.4569 24.109 12.4889C22.783 13.4849 20.992 14.8369 20.164 15.4619C19.505 14.8869 18.695 14.6859 18.093 14.6859H15.055C13.4 13.6259 12.226 13.4339 10.453 13.4339C8.291 13.4339 6.481 14.3799 4.523 16.5349L3.28 15.2919L0 18.5719L1.324 19.8959L3.28 17.9399L9.388 24.0489L7.432 26.0039L8.757 27.3279L12.035 24.0489L10.929 22.9419H20.614L30.515 13.6189Z" fill="#FEFEFE"/>
</g>
<path fill-rule="evenodd" clip-rule="evenodd" d="M28.5151 1.324L27.1911 0L16.5001 10.69L10.7771 4.967L9.45312 6.291L16.5001 13.337L28.5151 1.324Z" fill="#FEFEFE"/>
</svg>
