<svg width="215" height="215" viewBox="0 0 215 215" fill="none" xmlns="http://www.w3.org/2000/svg">
<path fill-rule="evenodd" clip-rule="evenodd" d="M0 215H215V0H0V215Z" fill="#E8E8E8"/>
<path fill-rule="evenodd" clip-rule="evenodd" d="M113.415 0L110 15.6647L130.763 16L135 0H113.415Z" fill="#CFCFCF"/>
<path fill-rule="evenodd" clip-rule="evenodd" d="M182 101.555L168.927 101L166 130.544L177.395 136L181.858 118.264L182 101.555Z" fill="#CFCFCF"/>
<path fill-rule="evenodd" clip-rule="evenodd" d="M12.265 91.1108L8 87L11.8257 194L16 191.165L12.265 91.1108Z" fill="#CFCFCF"/>
<path fill-rule="evenodd" clip-rule="evenodd" d="M87 182.39L64.8284 200L55 184.013L76.23 169L87 182.39Z" fill="#CFCFCF"/>
<path fill-rule="evenodd" clip-rule="evenodd" d="M125 95.3941L78 83L78.2937 94.325L85.9935 110.679L107.972 121.112L118.225 126L123.414 110.798L125 95.3941Z" fill="#CFCFCF"/>
<path fill-rule="evenodd" clip-rule="evenodd" d="M77 25.4768L23.4015 24L10 38.1109L23.0385 54L42.6249 39.4455L57.5569 38.205H76.1287L77 25.4768Z" fill="#CFCFCF"/>
<mask id="mask0_0:5437" style="mask-type:alpha" maskUnits="userSpaceOnUse" x="37" y="0" width="136" height="215">
<path fill-rule="evenodd" clip-rule="evenodd" d="M37.8027 0H172.281V215H37.8027V0Z" fill="white"/>
</mask>
<g mask="url(#mask0_0:5437)">
<path fill-rule="evenodd" clip-rule="evenodd" d="M37.8027 236.272C37.8027 234.751 38.0532 233.243 38.5483 231.789C39.3812 229.34 47.746 207.222 84.1972 184.643L85.0662 184.104C116.605 164.567 120.658 162.057 135.035 134.937C138.731 127.967 140.603 117.754 140.603 104.578C140.603 86.5182 137.101 65.7549 134.544 50.5941C132.732 39.8444 131.167 30.5651 130.899 23.716C130.873 23.0274 130.859 22.3292 130.859 21.6405C130.857 -6.34179 152.941 -24.6121 153.88 -25.3767C154.332 -25.7448 154.912 -25.9174 155.491 -25.8567C156.069 -25.7979 156.601 -25.5095 156.969 -25.058L171.386 -7.31318C171.528 -7.20693 171.661 -7.08361 171.778 -6.94132C172.116 -6.53152 172.281 -6.03634 172.281 -5.54496C172.281 -4.91508 172.012 -4.28899 171.49 -3.85642C171.367 -3.75207 158.667 7.11906 158.667 21.6632C158.667 21.9858 158.674 22.3121 158.686 22.6327C158.883 27.7002 160.312 36.1676 161.964 45.9687C164.846 63.0514 168.432 84.3117 168.432 104.31C168.432 122.478 165.544 136.757 159.604 147.962C151.632 162.999 145.134 173.499 135.511 182.664C126.794 190.967 116.6 197.282 99.7127 207.742L98.8399 208.283C71.8331 225.012 65.1587 240.088 64.8513 240.814C62.3584 248.031 54.466 251.898 47.2262 249.434C41.5896 247.513 37.8027 242.224 37.8027 236.272Z" fill="#C0C0C0"/>
</g>
<mask id="mask1_0:5437" style="mask-type:alpha" maskUnits="userSpaceOnUse" x="35" y="0" width="140" height="215">
<path fill-rule="evenodd" clip-rule="evenodd" d="M35.6064 0H174.477V215H35.6064V0Z" fill="white"/>
</mask>
<g mask="url(#mask1_0:5437)">
<path fill-rule="evenodd" clip-rule="evenodd" d="M47.9345 247.354C43.0644 245.696 39.9985 241.145 39.9985 236.273V236.271C39.9985 235.019 40.1996 233.748 40.6265 232.495C41.4347 230.124 49.551 208.687 85.3533 186.508L86.2222 185.97C118.209 166.157 122.319 163.611 136.975 135.966C141.274 127.855 142.799 116.704 142.799 104.578C142.799 86.3326 139.348 65.8805 136.709 50.2302C134.909 39.5564 133.355 30.3396 133.093 23.6291C133.066 22.9613 133.053 22.2954 133.053 21.6389C133.053 -5.31316 154.336 -22.9195 155.264 -23.6746L170.032 -5.49909L170.085 -5.54273C169.946 -5.427 156.472 5.97916 156.472 21.6617C156.472 22.0127 156.478 22.3637 156.491 22.7184C156.694 27.9263 158.134 36.4563 159.8 46.3352C162.716 63.6265 166.235 84.4942 166.237 104.311C166.237 119.925 164.052 134.885 157.664 146.934C149.798 161.772 143.402 172.114 133.996 181.075C125.443 189.221 115.322 195.49 98.5522 205.877L97.6833 206.416C69.2555 224.026 62.8448 239.893 62.7935 240.046C60.7085 246.167 54.055 249.44 47.9345 247.354ZM66.8972 241.61C67.1173 241.114 68.8058 237.476 73.4123 232.063C77.8878 226.806 86.1331 218.735 99.996 210.148L100.865 209.611C117.875 199.074 128.141 192.714 137.024 184.253C146.863 174.882 153.465 164.227 161.544 148.991C167.656 137.461 170.627 122.847 170.627 104.315C170.626 84.1242 167.025 62.7652 164.129 45.6047C162.488 35.8757 161.071 27.4748 160.88 22.5477C160.868 22.2555 160.862 21.9576 160.862 21.6636C160.862 8.2805 172.644 -1.95506 172.91 -2.18083C173.942 -3.04977 174.477 -4.29245 174.477 -5.54652C174.477 -6.53119 174.147 -7.51964 173.471 -8.33925C173.308 -8.53656 173.13 -8.7168 172.942 -8.87806L158.671 -26.4426C157.937 -27.3457 156.875 -27.9206 155.715 -28.0401C154.558 -28.1615 153.399 -27.8162 152.496 -27.0801C151.841 -26.5508 145.948 -21.654 140.2 -13.3385C136.853 -8.49672 134.186 -3.41024 132.273 1.77679C129.877 8.27671 128.663 14.9588 128.663 21.6389C128.663 22.3561 128.678 23.0827 128.705 23.7999C128.978 30.7912 130.554 40.135 132.378 50.9549C135.066 66.8898 138.409 86.7045 138.409 104.578C138.407 117.392 136.62 127.26 133.095 133.91C118.997 160.503 115.675 162.56 83.9114 182.236L83.0406 182.777C67.584 192.35 55.2597 202.931 46.4111 214.221C39.5204 223.013 37.0597 229.348 36.4697 231.08C35.8967 232.761 35.6064 234.508 35.6064 236.271C35.6083 243.163 39.9928 249.288 46.5192 251.511C54.8727 254.355 63.9793 249.918 66.8972 241.61Z" fill="white"/>
</g>
<mask id="mask2_0:5437" style="mask-type:alpha" maskUnits="userSpaceOnUse" x="0" y="36" width="215" height="56">
<path fill-rule="evenodd" clip-rule="evenodd" d="M0 36.1924H215V91.0737H0V36.1924Z" fill="white"/>
</mask>
<g mask="url(#mask2_0:5437)">
<path fill-rule="evenodd" clip-rule="evenodd" d="M-12.8633 88.8785C-12.8633 88.3226 -12.6546 87.7667 -12.2334 87.3399L28.5472 45.836C34.5709 39.708 42.9509 36.1924 51.5434 36.1924H228.612C229.825 36.1924 230.807 37.1751 230.807 38.3875C230.807 39.5998 229.825 40.5826 228.612 40.5826H51.5434C44.1215 40.5826 36.8817 43.62 31.6795 48.9133L-9.1011 90.4172C-9.95106 91.2823 -11.3417 91.2937 -12.2068 90.4437C-12.6432 90.0149 -12.8633 89.4477 -12.8633 88.8785Z" fill="white"/>
</g>
<mask id="mask3_0:5437" style="mask-type:alpha" maskUnits="userSpaceOnUse" x="74" y="0" width="141" height="185">
<path fill-rule="evenodd" clip-rule="evenodd" d="M74.5068 0H215V184.153H74.5068V0Z" fill="white"/>
</mask>
<g mask="url(#mask3_0:5437)">
<path fill-rule="evenodd" clip-rule="evenodd" d="M74.5068 -5.50043C74.5068 -6.69758 75.4668 -7.67655 76.6678 -7.69553C77.8801 -7.7145 78.878 -6.74691 78.897 -5.53458L80.4167 91.7593C80.5495 100.251 85.3836 107.819 93.0312 111.513L234.835 179.981C235.928 180.508 236.385 181.821 235.857 182.912C235.332 184.005 234.019 184.462 232.926 183.934L91.1226 115.467C81.9705 111.048 76.1859 101.989 76.0265 91.8276L74.5068 -5.46628C74.5068 -5.47766 74.5068 -5.48905 74.5068 -5.50043Z" fill="white"/>
</g>
<mask id="mask4_0:5437" style="mask-type:alpha" maskUnits="userSpaceOnUse" x="0" y="12" width="89" height="173">
<path fill-rule="evenodd" clip-rule="evenodd" d="M0 12.1973H88.4456V184.153H0V12.1973Z" fill="white"/>
</mask>
<g mask="url(#mask4_0:5437)">
<path fill-rule="evenodd" clip-rule="evenodd" d="M-9.90625 14.3946C-9.90625 13.7363 -9.61218 13.0855 -9.04871 12.6529C-8.08682 11.913 -6.70944 12.0933 -5.96953 13.0552L35.9665 67.6025C40.0455 72.9071 41.8251 79.4848 40.9752 86.1213L38.3874 106.38C37.6987 111.783 39.1481 117.135 42.4683 121.453L87.99 180.619C88.73 181.581 88.5497 182.958 87.5897 183.698C86.6278 184.436 85.2486 184.258 84.5106 183.296L38.9888 124.13C34.9553 118.887 33.1947 112.385 34.0333 105.824L36.6211 85.5636C37.3211 80.0844 35.8527 74.6564 32.4851 70.2795L-9.45092 15.7303C-9.75827 15.3318 -9.90625 14.8613 -9.90625 14.3946Z" fill="white"/>
</g>
<mask id="mask5_0:5437" style="mask-type:alpha" maskUnits="userSpaceOnUse" x="0" y="115" width="104" height="95">
<path fill-rule="evenodd" clip-rule="evenodd" d="M0 115.546H103.082V209.488H0V115.546Z" fill="white"/>
</mask>
<g mask="url(#mask5_0:5437)">
<path fill-rule="evenodd" clip-rule="evenodd" d="M-9.90625 207.294C-9.90625 206.604 -9.58183 205.923 -8.97282 205.496L74.4933 146.85C85.2391 139.299 93.6684 128.933 98.8706 116.872C99.3506 115.76 100.643 115.246 101.754 115.726C102.868 116.206 103.382 117.498 102.902 118.612C97.3794 131.418 88.4283 142.426 77.0166 150.444L-6.44763 209.089C-7.43987 209.785 -8.80966 209.546 -9.50783 208.554C-9.77724 208.171 -9.90625 207.731 -9.90625 207.294Z" fill="white"/>
</g>
<mask id="mask6_0:5437" style="mask-type:alpha" maskUnits="userSpaceOnUse" x="0" y="67" width="127" height="148">
<path fill-rule="evenodd" clip-rule="evenodd" d="M0.177734 67.7539H126.398V215H0.177734V67.7539Z" fill="white"/>
</mask>
<g mask="url(#mask6_0:5437)">
<path fill-rule="evenodd" clip-rule="evenodd" d="M0.177734 222.79C0.177734 222.471 0.327614 222.156 0.606505 221.955L90.9595 157.392C108.924 144.556 120.803 124.811 123.546 103.225C124.931 92.3383 124.525 80.8126 122.339 68.9644C122.237 68.4066 122.605 67.8735 123.163 67.771C123.719 67.6686 124.252 68.0366 124.356 68.5925C126.578 80.6475 126.989 92.3876 125.578 103.483C122.762 125.635 110.579 145.891 92.1509 159.06L1.79796 223.623C1.33693 223.951 0.697571 223.845 0.369353 223.386C0.240342 223.204 0.177734 222.997 0.177734 222.79Z" fill="white"/>
</g>
<path fill-rule="evenodd" clip-rule="evenodd" d="M11.1689 91.0843C11.1689 90.8111 11.2771 90.5379 11.4934 90.3368L42.4502 61.3281C42.6608 61.1308 42.9473 61.0303 43.2357 61.0549L138.146 68.9873C138.709 69.0347 139.127 69.5299 139.081 70.0934C139.034 70.6568 138.538 71.0761 137.975 71.0287L43.5184 63.1343L12.8935 91.8318C12.4818 92.2189 11.833 92.198 11.4459 91.7844C11.26 91.5871 11.1689 91.3348 11.1689 91.0843Z" fill="white"/>
<path fill-rule="evenodd" clip-rule="evenodd" d="M37.8857 81.1264C37.8857 81.1093 37.8857 81.0904 37.8876 81.0714C37.9161 80.506 38.3999 80.0735 38.9634 80.1019L78.1427 82.1623C78.2092 82.1661 78.2775 82.1756 78.3439 82.1927L140.95 98.2888C141.498 98.4292 141.827 98.9889 141.686 99.5353C141.546 100.084 140.988 100.414 140.44 100.273L77.9322 84.2037L38.8571 82.149C38.3107 82.1206 37.8857 81.6671 37.8857 81.1264Z" fill="white"/>
<path fill-rule="evenodd" clip-rule="evenodd" d="M57.3994 85.184C57.3994 84.169 57.4222 83.1445 57.4715 82.1067C57.5 81.5413 57.98 81.105 58.5453 81.1315C59.1107 81.1581 59.5433 81.6457 59.5186 82.2035C58.6535 100.436 65.9065 115.122 72.1446 124.225C78.9138 134.102 85.9449 139.703 86.0151 139.758C86.461 140.109 86.5349 140.754 86.1859 141.198C85.8349 141.642 85.1917 141.718 84.7459 141.367C84.4499 141.133 77.398 135.516 70.4542 125.384C64.3944 116.538 57.3994 102.561 57.3994 85.184Z" fill="white"/>
<mask id="mask7_0:5437" style="mask-type:alpha" maskUnits="userSpaceOnUse" x="0" y="124" width="73" height="59">
<path fill-rule="evenodd" clip-rule="evenodd" d="M0 124.646H72.9268V182.981H0V124.646Z" fill="white"/>
</mask>
<g mask="url(#mask7_0:5437)">
<path fill-rule="evenodd" clip-rule="evenodd" d="M-3.17383 181.958C-3.17383 181.649 -3.03533 181.343 -2.76972 181.142L71.2824 124.855C71.732 124.513 72.3752 124.601 72.7186 125.05C73.0601 125.5 72.9728 126.143 72.5232 126.486L-1.52894 182.772C-1.98048 183.115 -2.62174 183.028 -2.96513 182.576C-3.10553 182.392 -3.17383 182.174 -3.17383 181.958Z" fill="white"/>
</g>
<mask id="mask8_0:5437" style="mask-type:alpha" maskUnits="userSpaceOnUse" x="0" y="111" width="66" height="19">
<path fill-rule="evenodd" clip-rule="evenodd" d="M0 111.129H65.2513V129.283H0V111.129Z" fill="white"/>
</mask>
<g mask="url(#mask8_0:5437)">
<path fill-rule="evenodd" clip-rule="evenodd" d="M-8.73535 128.258C-8.73535 127.744 -8.34832 127.3 -7.82469 127.241L40.4537 121.792L63.8047 111.221C64.3207 110.987 64.9278 111.217 65.1612 111.733C65.3926 112.247 65.165 112.854 64.6489 113.088L41.1519 123.725C41.0533 123.769 40.9508 123.797 40.8446 123.811L-7.59513 129.277C-8.1586 129.341 -8.66515 128.937 -8.72966 128.374C-8.73345 128.336 -8.73535 128.296 -8.73535 128.258Z" fill="white"/>
</g>
<mask id="mask9_0:5437" style="mask-type:alpha" maskUnits="userSpaceOnUse" x="0" y="77" width="43" height="138">
<path fill-rule="evenodd" clip-rule="evenodd" d="M0 77.4512H42.1969V215H0V77.4512Z" fill="white"/>
</mask>
<g mask="url(#mask9_0:5437)">
<path fill-rule="evenodd" clip-rule="evenodd" d="M-1.4707 78.4752C-1.4707 78.2134 -1.37015 77.9516 -1.17094 77.7524C-0.772528 77.352 -0.12368 77.3501 0.276632 77.7505L12.9159 90.3595C13.1018 90.5435 13.208 90.7901 13.2175 91.0501L16.4352 190.66L41.9679 222.143C42.3246 222.581 42.2563 223.228 41.8181 223.585C41.3779 223.942 40.7328 223.873 40.3762 223.433L14.6272 191.683C14.4868 191.508 14.4052 191.294 14.3995 191.07L11.1818 91.5225L-1.16905 79.1999C-1.37015 79.0007 -1.4707 78.737 -1.4707 78.4752Z" fill="white"/>
</g>
<path fill-rule="evenodd" clip-rule="evenodd" d="M59.7588 63.5498V38.3868C59.7588 37.8214 60.2179 37.3623 60.7833 37.3623C61.3487 37.3623 61.8078 37.8214 61.8078 38.3868V63.5498C61.8078 64.1152 61.3487 64.5743 60.7833 64.5743C60.2179 64.5743 59.7588 64.1152 59.7588 63.5498Z" fill="white"/>
<mask id="mask10_0:5437" style="mask-type:alpha" maskUnits="userSpaceOnUse" x="0" y="100" width="38" height="5">
<path fill-rule="evenodd" clip-rule="evenodd" d="M0 100.236H37.8538V104.696H0V100.236Z" fill="white"/>
</mask>
<g mask="url(#mask10_0:5437)">
<path fill-rule="evenodd" clip-rule="evenodd" d="M-8.73535 103.67C-8.73535 103.129 -8.31227 102.678 -7.76587 102.647L36.7731 100.238C37.3385 100.206 37.8204 100.64 37.8527 101.206C37.8811 101.771 37.4486 102.253 36.8851 102.283L-7.65584 104.695C-8.22121 104.725 -8.7031 104.291 -8.73345 103.727C-8.73535 103.708 -8.73535 103.689 -8.73535 103.67Z" fill="white"/>
</g>
<path fill-rule="evenodd" clip-rule="evenodd" d="M23.5146 124.618C23.5146 124.138 23.8542 123.709 24.3418 123.614C24.8977 123.504 25.4365 123.867 25.5447 124.423L35.8541 177.027L53.2042 210.331C53.466 210.832 53.2706 211.452 52.7678 211.714C52.2669 211.974 51.6485 211.781 51.3866 211.278L33.9683 177.843C33.9228 177.756 33.8905 177.663 33.8715 177.566L23.5336 124.815C23.5203 124.749 23.5146 124.684 23.5146 124.618Z" fill="white"/>
<path fill-rule="evenodd" clip-rule="evenodd" d="M45.5625 169.141C45.5625 168.783 45.7522 168.434 46.088 168.246C46.5832 167.971 47.2074 168.147 47.4825 168.642L64.1837 198.598C64.4607 199.091 64.2823 199.715 63.789 199.99C63.2939 200.267 62.6697 200.089 62.3946 199.596L45.6915 169.639C45.6042 169.481 45.5625 169.31 45.5625 169.141Z" fill="white"/>
<path fill-rule="evenodd" clip-rule="evenodd" d="M90.5303 158.227C90.5303 157.935 90.6536 157.647 90.8945 157.444C91.3271 157.079 91.9722 157.134 92.3383 157.565L104.596 172.09C104.96 172.523 104.905 173.17 104.473 173.534C104.04 173.9 103.395 173.845 103.029 173.413L90.7712 158.887C90.61 158.696 90.5303 158.461 90.5303 158.227Z" fill="white"/>
<path fill-rule="evenodd" clip-rule="evenodd" d="M102.788 147.453C102.788 147.273 102.836 147.093 102.934 146.926C103.226 146.442 103.854 146.284 104.34 146.575L120.146 156.067C120.631 156.357 120.789 156.987 120.497 157.472C120.206 157.958 119.577 158.116 119.093 157.823L103.285 148.332C102.965 148.14 102.788 147.8 102.788 147.453Z" fill="white"/>
<mask id="mask11_0:5437" style="mask-type:alpha" maskUnits="userSpaceOnUse" x="8" y="0" width="124" height="18">
<path fill-rule="evenodd" clip-rule="evenodd" d="M8.53418 0H131.474V17.173H8.53418V0Z" fill="white"/>
</mask>
<g mask="url(#mask11_0:5437)">
<path fill-rule="evenodd" clip-rule="evenodd" d="M8.53418 -9.90275C8.53418 -10.1589 8.62904 -10.4131 8.81876 -10.6123C9.21149 -11.0202 9.86033 -11.0335 10.2682 -10.6427L27.5689 5.9619C32.5529 10.7429 39.0983 13.4465 46.0023 13.5717L130.468 15.1255C131.034 15.135 131.487 15.5941 131.474 16.1671C131.462 16.7344 130.996 17.184 130.43 17.1726L45.9643 15.6207C38.5424 15.4841 31.5057 12.5794 26.1517 7.43984L8.84912 -9.16283C8.64042 -9.36394 8.53418 -9.63335 8.53418 -9.90275Z" fill="white"/>
</g>
<mask id="mask12_0:5437" style="mask-type:alpha" maskUnits="userSpaceOnUse" x="0" y="0" width="79" height="27">
<path fill-rule="evenodd" clip-rule="evenodd" d="M0 0H78.2162V26.8372H0V0Z" fill="white"/>
</mask>
<g mask="url(#mask12_0:5437)">
<path fill-rule="evenodd" clip-rule="evenodd" d="M-6.68652 -5.50002C-6.68652 -5.75615 -6.58977 -6.01417 -6.39815 -6.21338C-6.00353 -6.61939 -5.35468 -6.62888 -4.94867 -6.23615L24.9704 22.7517L77.2311 24.7893C77.7965 24.812 78.2328 25.2826 78.2158 25.8536C78.193 26.419 77.7168 26.8592 77.1514 26.8364L24.4999 24.7836C24.2476 24.7741 24.0066 24.6717 23.8264 24.4952L-6.37538 -4.7639C-6.58218 -4.965 -6.68652 -5.23251 -6.68652 -5.50002Z" fill="white"/>
</g>
<mask id="mask13_0:5437" style="mask-type:alpha" maskUnits="userSpaceOnUse" x="0" y="22" width="26" height="40">
<path fill-rule="evenodd" clip-rule="evenodd" d="M0 22.7358H25.564V61.6669H0V22.7358Z" fill="white"/>
</mask>
<g mask="url(#mask13_0:5437)">
<path fill-rule="evenodd" clip-rule="evenodd" d="M-11.6924 60.6416C-11.6924 60.3874 -11.5975 60.1332 -11.4097 59.9339L23.7988 23.0518C24.1896 22.6439 24.8366 22.6287 25.2464 23.0195C25.6562 23.4084 25.6714 24.0573 25.2805 24.4671L-9.92608 61.3493C-10.3169 61.7591 -10.9657 61.7743 -11.3755 61.3834C-11.5861 61.1823 -11.6924 60.9129 -11.6924 60.6416Z" fill="white"/>
</g>
<mask id="mask14_0:5437" style="mask-type:alpha" maskUnits="userSpaceOnUse" x="0" y="0" width="37" height="40">
<path fill-rule="evenodd" clip-rule="evenodd" d="M0 0H36.7894V39.4121H0V0Z" fill="white"/>
</mask>
<g mask="url(#mask14_0:5437)">
<path fill-rule="evenodd" clip-rule="evenodd" d="M-12.834 38.387C-12.834 38.1385 -12.7448 37.89 -12.5627 37.6927L35.0119 -13.8172C35.3951 -14.2327 36.044 -14.2592 36.4595 -13.876C36.8749 -13.4909 36.9015 -12.8439 36.5164 -12.4265L-11.0563 39.0833C-11.4414 39.4988 -12.0884 39.5235 -12.5039 39.1402C-12.7239 38.9372 -12.834 38.6621 -12.834 38.387Z" fill="white"/>
</g>
<mask id="mask15_0:5437" style="mask-type:alpha" maskUnits="userSpaceOnUse" x="51" y="0" width="3" height="26">
<path fill-rule="evenodd" clip-rule="evenodd" d="M51.2705 0H53.3195V25.8663H51.2705V0Z" fill="white"/>
</mask>
<g mask="url(#mask15_0:5437)">
<path fill-rule="evenodd" clip-rule="evenodd" d="M51.2705 24.8417V-8.14737C51.2705 -8.71274 51.7296 -9.17188 52.295 -9.17188C52.8604 -9.17188 53.3195 -8.71274 53.3195 -8.14737V24.8417C53.3195 25.4071 52.8604 25.8662 52.295 25.8662C51.7296 25.8662 51.2705 25.4071 51.2705 24.8417Z" fill="white"/>
</g>
<path fill-rule="evenodd" clip-rule="evenodd" d="M76.167 50.9688C76.167 50.4035 76.6261 49.9443 77.1915 49.9443H134.84C135.406 49.9443 135.865 50.4035 135.865 50.9688C135.865 51.5342 135.406 51.9933 134.84 51.9933H77.1915C76.6261 51.9933 76.167 51.5342 76.167 50.9688Z" fill="white"/>
<mask id="mask16_0:5437" style="mask-type:alpha" maskUnits="userSpaceOnUse" x="104" y="0" width="12" height="92">
<path fill-rule="evenodd" clip-rule="evenodd" d="M104.991 0H115.96V91.7703H104.991V0Z" fill="white"/>
</mask>
<g mask="url(#mask16_0:5437)">
<path fill-rule="evenodd" clip-rule="evenodd" d="M104.991 38.3875C104.991 38.3249 104.997 38.2623 105.008 38.2016L113.927 -10.0886C114.031 -10.6445 114.565 -11.0126 115.122 -10.9101C115.678 -10.8077 116.044 -10.2727 115.944 -9.71677L107.042 38.4672L108.524 90.717C108.537 91.29 108.093 91.7548 107.528 91.77C106.962 91.787 106.492 91.3412 106.475 90.7758L104.991 38.416C104.991 38.4065 104.991 38.397 104.991 38.3875Z" fill="white"/>
</g>
<mask id="mask17_0:5437" style="mask-type:alpha" maskUnits="userSpaceOnUse" x="94" y="0" width="3" height="17">
<path fill-rule="evenodd" clip-rule="evenodd" d="M94.2949 0H96.3439V16.5281H94.2949V0Z" fill="white"/>
</mask>
<g mask="url(#mask17_0:5437)">
<path fill-rule="evenodd" clip-rule="evenodd" d="M94.2949 15.5035V-12.2436C94.2949 -12.8108 94.754 -13.2681 95.3194 -13.2681C95.8848 -13.2681 96.3439 -12.8108 96.3439 -12.2436V15.5035C96.3439 16.0688 95.8848 16.528 95.3194 16.528C94.754 16.528 94.2949 16.0688 94.2949 15.5035Z" fill="white"/>
</g>
<path fill-rule="evenodd" clip-rule="evenodd" d="M120.766 116.294C120.766 116.153 120.794 116.011 120.855 115.876C121.086 115.358 121.693 115.129 122.209 115.358L138.478 122.64C138.994 122.872 139.226 123.477 138.994 123.995C138.765 124.511 138.157 124.742 137.641 124.511L121.373 117.229C120.991 117.06 120.766 116.685 120.766 116.294Z" fill="white"/>
<mask id="mask18_0:5437" style="mask-type:alpha" maskUnits="userSpaceOnUse" x="157" y="7" width="58" height="17">
<path fill-rule="evenodd" clip-rule="evenodd" d="M157.818 7.32422H215V23.7968H157.818V7.32422Z" fill="white"/>
</mask>
<g mask="url(#mask18_0:5437)">
<path fill-rule="evenodd" clip-rule="evenodd" d="M157.818 18.9304C157.818 18.8033 157.843 18.6724 157.892 18.5472C158.105 18.0217 158.702 17.7693 159.226 17.9799L167.308 21.245C170.56 22.5579 174.263 21.2204 175.925 18.1336L177.028 16.0827C179.329 11.8101 183.768 9.04016 188.618 8.85423L228.573 7.32506C229.138 7.30229 229.615 7.74435 229.637 8.30972C229.655 8.86751 229.218 9.34941 228.653 9.37217L188.697 10.9013C184.569 11.0588 180.79 13.4171 178.832 17.0541L177.73 19.1031C175.572 23.1119 170.761 24.8498 166.542 23.1442L158.46 19.8809C158.061 19.7197 157.818 19.3364 157.818 18.9304Z" fill="white"/>
</g>
<mask id="mask19_0:5437" style="mask-type:alpha" maskUnits="userSpaceOnUse" x="139" y="0" width="55" height="215">
<path fill-rule="evenodd" clip-rule="evenodd" d="M139.67 0H193.53V215H139.67V0Z" fill="white"/>
</mask>
<g mask="url(#mask19_0:5437)">
<path fill-rule="evenodd" clip-rule="evenodd" d="M139.67 224.561C139.67 224.394 139.71 224.228 139.795 224.072L186.681 138.245C189.821 132.498 191.481 126 191.481 119.451V-9.90225C191.481 -10.4676 191.938 -10.9268 192.505 -10.9268C193.071 -10.9268 193.53 -10.4676 193.53 -9.90225V119.451C193.53 126.342 191.783 133.181 188.48 139.228L141.594 225.053C141.322 225.55 140.7 225.732 140.203 225.461C139.863 225.275 139.67 224.924 139.67 224.561Z" fill="white"/>
</g>
<mask id="mask20_0:5437" style="mask-type:alpha" maskUnits="userSpaceOnUse" x="165" y="128" width="50" height="36">
<path fill-rule="evenodd" clip-rule="evenodd" d="M165.575 128.991H215V163.542H165.575V128.991Z" fill="white"/>
</mask>
<g mask="url(#mask20_0:5437)">
<path fill-rule="evenodd" clip-rule="evenodd" d="M165.575 130.015C165.575 129.854 165.613 129.692 165.693 129.54C165.955 129.04 166.575 128.846 167.076 129.108L229.088 161.609C229.591 161.873 229.783 162.492 229.521 162.992C229.259 163.493 228.639 163.687 228.138 163.425L166.123 130.924C165.774 130.74 165.575 130.383 165.575 130.015Z" fill="white"/>
</g>
<mask id="mask21_0:5437" style="mask-type:alpha" maskUnits="userSpaceOnUse" x="151" y="161" width="64" height="42">
<path fill-rule="evenodd" clip-rule="evenodd" d="M151.378 161.493H215V202.462H151.378V161.493Z" fill="white"/>
</mask>
<g mask="url(#mask21_0:5437)">
<path fill-rule="evenodd" clip-rule="evenodd" d="M151.378 162.516C151.378 162.349 151.418 162.18 151.505 162.023C151.776 161.528 152.401 161.348 152.896 161.619L223.732 200.541C224.229 200.812 224.409 201.436 224.136 201.931C223.865 202.426 223.243 202.609 222.745 202.335L151.909 163.416C151.57 163.228 151.378 162.879 151.378 162.516Z" fill="white"/>
</g>
<mask id="mask22_0:5437" style="mask-type:alpha" maskUnits="userSpaceOnUse" x="141" y="174" width="74" height="41">
<path fill-rule="evenodd" clip-rule="evenodd" d="M141.719 174.947H214.605V215H141.719V174.947Z" fill="white"/>
</mask>
<g mask="url(#mask22_0:5437)">
<path fill-rule="evenodd" clip-rule="evenodd" d="M141.719 175.971C141.719 175.789 141.768 175.605 141.869 175.438C142.165 174.954 142.796 174.802 143.278 175.098L214.115 218.454C214.598 218.749 214.748 219.379 214.454 219.863C214.158 220.345 213.528 220.497 213.045 220.201L142.208 176.845C141.893 176.652 141.719 176.316 141.719 175.971Z" fill="white"/>
</g>
<mask id="mask23_0:5437" style="mask-type:alpha" maskUnits="userSpaceOnUse" x="165" y="97" width="50" height="118">
<path fill-rule="evenodd" clip-rule="evenodd" d="M165.574 97.1504H215V215H165.574V97.1504Z" fill="white"/>
</mask>
<g mask="url(#mask23_0:5437)">
<path fill-rule="evenodd" clip-rule="evenodd" d="M165.574 229.831C165.574 229.685 165.606 229.535 165.673 229.394L227.685 97.7379C227.926 97.2257 228.537 97.0075 229.049 97.2484C229.562 97.4894 229.78 98.1003 229.539 98.6107L167.526 230.267C167.286 230.779 166.675 230.999 166.162 230.759C165.792 230.584 165.574 230.214 165.574 229.831Z" fill="white"/>
</g>
<mask id="mask24_0:5437" style="mask-type:alpha" maskUnits="userSpaceOnUse" x="189" y="173" width="26" height="42">
<path fill-rule="evenodd" clip-rule="evenodd" d="M189.724 173.443H215V215H189.724V173.443Z" fill="white"/>
</mask>
<g mask="url(#mask24_0:5437)">
<path fill-rule="evenodd" clip-rule="evenodd" d="M189.724 228.367C189.724 228.209 189.76 228.05 189.837 227.9L217.457 174C217.715 173.497 218.332 173.298 218.836 173.556C219.339 173.814 219.538 174.43 219.28 174.933L191.661 228.835C191.403 229.338 190.784 229.537 190.281 229.279C189.927 229.097 189.724 228.739 189.724 228.367Z" fill="white"/>
</g>
<mask id="mask25_0:5437" style="mask-type:alpha" maskUnits="userSpaceOnUse" x="169" y="100" width="46" height="3">
<path fill-rule="evenodd" clip-rule="evenodd" d="M169.062 100.598H215V102.647H169.062V100.598Z" fill="white"/>
</mask>
<g mask="url(#mask25_0:5437)">
<path fill-rule="evenodd" clip-rule="evenodd" d="M169.062 101.622C169.062 101.057 169.521 100.598 170.086 100.598H225.289C225.855 100.598 226.314 101.057 226.314 101.622C226.314 102.188 225.855 102.647 225.289 102.647H170.086C169.521 102.647 169.062 102.188 169.062 101.622Z" fill="white"/>
</g>
<mask id="mask26_0:5437" style="mask-type:alpha" maskUnits="userSpaceOnUse" x="167" y="77" width="48" height="15">
<path fill-rule="evenodd" clip-rule="evenodd" d="M167.771 77.4512H215V91.7711H167.771V77.4512Z" fill="white"/>
</mask>
<g mask="url(#mask26_0:5437)">
<path fill-rule="evenodd" clip-rule="evenodd" d="M167.771 90.7449C167.771 90.2706 168.101 89.8456 168.583 89.7432L226.541 77.4738C227.095 77.3562 227.637 77.709 227.755 78.263C227.87 78.817 227.518 79.3596 226.966 79.4773L169.007 91.7486C168.454 91.8662 167.911 91.5114 167.793 90.9574C167.778 90.8872 167.771 90.8151 167.771 90.7449Z" fill="white"/>
</g>
<mask id="mask27_0:5437" style="mask-type:alpha" maskUnits="userSpaceOnUse" x="165" y="68" width="50" height="4">
<path fill-rule="evenodd" clip-rule="evenodd" d="M165.575 68.9839H215V71.0329H165.575V68.9839Z" fill="white"/>
</mask>
<g mask="url(#mask27_0:5437)">
<path fill-rule="evenodd" clip-rule="evenodd" d="M165.575 70.0084C165.575 69.443 166.034 68.9839 166.6 68.9839H225.288C225.855 68.9839 226.313 69.443 226.313 70.0084C226.313 70.5738 225.855 71.0329 225.288 71.0329H166.6C166.034 71.0329 165.575 70.5738 165.575 70.0084Z" fill="white"/>
</g>
<mask id="mask28_0:5437" style="mask-type:alpha" maskUnits="userSpaceOnUse" x="163" y="53" width="52" height="4">
<path fill-rule="evenodd" clip-rule="evenodd" d="M163.672 53.4707H215V56.9831H163.672V53.4707Z" fill="white"/>
</mask>
<g mask="url(#mask28_0:5437)">
<path fill-rule="evenodd" clip-rule="evenodd" d="M163.672 55.9583C163.672 55.4024 164.116 54.947 164.674 54.9338L232.29 53.471C232.856 53.4577 233.324 53.9074 233.338 54.4727C233.338 54.4803 233.338 54.4879 233.338 54.4955C233.338 55.0514 232.894 55.5067 232.336 55.52L164.719 56.9828C164.154 56.996 163.685 56.5464 163.672 55.981C163.672 55.9734 163.672 55.9658 163.672 55.9583Z" fill="white"/>
</g>
<mask id="mask29_0:5437" style="mask-type:alpha" maskUnits="userSpaceOnUse" x="191" y="115" width="24" height="24">
<path fill-rule="evenodd" clip-rule="evenodd" d="M191.48 115.27H215V138.943H191.48V115.27Z" fill="white"/>
</mask>
<g mask="url(#mask29_0:5437)">
<path fill-rule="evenodd" clip-rule="evenodd" d="M191.48 116.295C191.48 115.729 191.94 115.27 192.505 115.27H198.506C198.72 115.27 198.929 115.336 199.103 115.462L229.21 137.086C229.671 137.416 229.776 138.058 229.446 138.517C229.116 138.976 228.476 139.08 228.015 138.75L198.176 117.319H192.505C191.94 117.319 191.48 116.86 191.48 116.295Z" fill="white"/>
</g>
<mask id="mask30_0:5437" style="mask-type:alpha" maskUnits="userSpaceOnUse" x="130" y="186" width="37" height="29">
<path fill-rule="evenodd" clip-rule="evenodd" d="M130.498 186.168H166.697V215H130.498V186.168Z" fill="white"/>
</mask>
<g mask="url(#mask30_0:5437)">
<path fill-rule="evenodd" clip-rule="evenodd" d="M130.498 187.193C130.498 186.879 130.644 186.567 130.917 186.366C131.375 186.032 132.016 186.131 132.35 186.588L166.5 233.228C166.834 233.683 166.735 234.324 166.278 234.658C165.82 234.992 165.179 234.894 164.845 234.436L130.695 187.799C130.563 187.615 130.498 187.404 130.498 187.193Z" fill="white"/>
</g>
<mask id="mask31_0:5437" style="mask-type:alpha" maskUnits="userSpaceOnUse" x="116" y="196" width="36" height="19">
<path fill-rule="evenodd" clip-rule="evenodd" d="M116.448 196.626H151.477V215H116.448V196.626Z" fill="white"/>
</mask>
<g mask="url(#mask31_0:5437)">
<path fill-rule="evenodd" clip-rule="evenodd" d="M116.448 197.651C116.448 197.344 116.585 197.04 116.847 196.839C117.296 196.494 117.939 196.577 118.285 197.025L151.264 239.842C151.609 240.289 151.526 240.933 151.076 241.278C150.628 241.623 149.985 241.54 149.64 241.092L116.661 198.275C116.518 198.089 116.448 197.869 116.448 197.651Z" fill="white"/>
</g>
<mask id="mask32_0:5437" style="mask-type:alpha" maskUnits="userSpaceOnUse" x="191" y="21" width="24" height="3">
<path fill-rule="evenodd" clip-rule="evenodd" d="M191.48 21.7461H215V23.7951H191.48V21.7461Z" fill="white"/>
</mask>
<g mask="url(#mask32_0:5437)">
<path fill-rule="evenodd" clip-rule="evenodd" d="M191.48 22.7706C191.48 22.2052 191.94 21.7461 192.505 21.7461H231.144C231.709 21.7461 232.168 22.2052 232.168 22.7706C232.168 23.336 231.709 23.7951 231.144 23.7951H192.505C191.94 23.7951 191.48 23.336 191.48 22.7706Z" fill="white"/>
</g>
<path fill-rule="evenodd" clip-rule="evenodd" d="M176.353 135.664C176.353 135.531 176.379 135.394 176.434 135.263C182.961 119.941 180.874 101.925 180.853 101.745C180.784 101.189 181.185 100.673 181.746 100.605C182.308 100.536 182.818 100.937 182.887 101.498C182.978 102.255 185.065 120.226 178.32 136.066C178.098 136.586 177.497 136.829 176.977 136.607C176.586 136.442 176.353 136.062 176.353 135.664Z" fill="white"/>
<path fill-rule="evenodd" clip-rule="evenodd" d="M6.15332 86.08C6.15332 85.5298 6.58968 85.0763 7.14177 85.0573C7.70714 85.0365 8.18144 85.4804 8.20231 86.0458L11.9152 193.57C11.9398 194.137 11.4921 194.609 10.9267 194.628C10.3613 194.647 9.88704 194.205 9.86807 193.64L6.15332 86.116C6.15332 86.1046 6.15332 86.0913 6.15332 86.08Z" fill="white"/>
<path fill-rule="evenodd" clip-rule="evenodd" d="M107 96C101.478 96 97 100.482 97 106.009C97 108.022 97.5941 109.894 98.6141 111.464L107 126L115.386 111.462C116.406 109.894 117 108.022 117 106.009C117 100.482 112.522 96 107 96ZM107 111.102C104.19 111.102 101.911 108.821 101.911 106.009C101.911 103.196 104.19 100.917 107 100.917C109.81 100.917 112.089 103.196 112.089 106.009C112.089 108.821 109.81 111.102 107 111.102Z" fill="#404041"/>
</svg>
