<svg width="160" height="48" viewBox="0 0 160 48" fill="none" xmlns="http://www.w3.org/2000/svg">
<rect y="6" width="160" height="35" rx="17.5" fill="#00B0C7"/>
<path d="M80.046 20.568C79.782 20.232 79.434 19.968 79.002 19.776C78.582 19.572 78.174 19.47 77.778 19.47C77.574 19.47 77.364 19.488 77.148 19.524C76.944 19.56 76.758 19.632 76.59 19.74C76.422 19.836 76.278 19.968 76.158 20.136C76.05 20.292 75.996 20.496 75.996 20.748C75.996 20.964 76.038 21.144 76.122 21.288C76.218 21.432 76.35 21.558 76.518 21.666C76.698 21.774 76.908 21.876 77.148 21.972C77.388 22.056 77.658 22.146 77.958 22.242C78.39 22.386 78.84 22.548 79.308 22.728C79.776 22.896 80.202 23.124 80.586 23.412C80.97 23.7 81.288 24.06 81.54 24.492C81.792 24.912 81.918 25.44 81.918 26.076C81.918 26.808 81.78 27.444 81.504 27.984C81.24 28.512 80.88 28.95 80.424 29.298C79.968 29.646 79.446 29.904 78.858 30.072C78.27 30.24 77.664 30.324 77.04 30.324C76.128 30.324 75.246 30.168 74.394 29.856C73.542 29.532 72.834 29.076 72.27 28.488L74.286 26.436C74.598 26.82 75.006 27.144 75.51 27.408C76.026 27.66 76.536 27.786 77.04 27.786C77.268 27.786 77.49 27.762 77.706 27.714C77.922 27.666 78.108 27.588 78.264 27.48C78.432 27.372 78.564 27.228 78.66 27.048C78.756 26.868 78.804 26.652 78.804 26.4C78.804 26.16 78.744 25.956 78.624 25.788C78.504 25.62 78.33 25.47 78.102 25.338C77.886 25.194 77.61 25.068 77.274 24.96C76.95 24.84 76.578 24.714 76.158 24.582C75.75 24.45 75.348 24.294 74.952 24.114C74.568 23.934 74.22 23.706 73.908 23.43C73.608 23.142 73.362 22.8 73.17 22.404C72.99 21.996 72.9 21.504 72.9 20.928C72.9 20.22 73.044 19.614 73.332 19.11C73.62 18.606 73.998 18.192 74.466 17.868C74.934 17.544 75.462 17.31 76.05 17.166C76.638 17.01 77.232 16.932 77.832 16.932C78.552 16.932 79.284 17.064 80.028 17.328C80.784 17.592 81.444 17.982 82.008 18.498L80.046 20.568ZM95.3048 30L95.3768 20.982H95.3228L92.0108 30H89.8508L86.6288 20.982H86.5748L86.6468 30H83.7488V17.256H88.1228L91.0208 25.428H91.0928L93.8648 17.256H98.3108V30H95.3048ZM107.472 20.568C107.208 20.232 106.86 19.968 106.428 19.776C106.008 19.572 105.6 19.47 105.204 19.47C105 19.47 104.79 19.488 104.574 19.524C104.37 19.56 104.184 19.632 104.016 19.74C103.848 19.836 103.704 19.968 103.584 20.136C103.476 20.292 103.422 20.496 103.422 20.748C103.422 20.964 103.464 21.144 103.548 21.288C103.644 21.432 103.776 21.558 103.944 21.666C104.124 21.774 104.334 21.876 104.574 21.972C104.814 22.056 105.084 22.146 105.384 22.242C105.816 22.386 106.266 22.548 106.734 22.728C107.202 22.896 107.628 23.124 108.012 23.412C108.396 23.7 108.714 24.06 108.966 24.492C109.218 24.912 109.344 25.44 109.344 26.076C109.344 26.808 109.206 27.444 108.93 27.984C108.666 28.512 108.306 28.95 107.85 29.298C107.394 29.646 106.872 29.904 106.284 30.072C105.696 30.24 105.09 30.324 104.466 30.324C103.554 30.324 102.672 30.168 101.82 29.856C100.968 29.532 100.26 29.076 99.6962 28.488L101.712 26.436C102.024 26.82 102.432 27.144 102.936 27.408C103.452 27.66 103.962 27.786 104.466 27.786C104.694 27.786 104.916 27.762 105.132 27.714C105.348 27.666 105.534 27.588 105.69 27.48C105.858 27.372 105.99 27.228 106.086 27.048C106.182 26.868 106.23 26.652 106.23 26.4C106.23 26.16 106.17 25.956 106.05 25.788C105.93 25.62 105.756 25.47 105.528 25.338C105.312 25.194 105.036 25.068 104.7 24.96C104.376 24.84 104.004 24.714 103.584 24.582C103.176 24.45 102.774 24.294 102.378 24.114C101.994 23.934 101.646 23.706 101.334 23.43C101.034 23.142 100.788 22.8 100.596 22.404C100.416 21.996 100.326 21.504 100.326 20.928C100.326 20.22 100.47 19.614 100.758 19.11C101.046 18.606 101.424 18.192 101.892 17.868C102.36 17.544 102.888 17.31 103.476 17.166C104.064 17.01 104.658 16.932 105.258 16.932C105.978 16.932 106.71 17.064 107.454 17.328C108.21 17.592 108.87 17.982 109.434 18.498L107.472 20.568Z" fill="white"/>
<mask id="mask0_367:497" style="mask-type:alpha" maskUnits="userSpaceOnUse" x="52" y="14" width="13" height="20">
<path fill-rule="evenodd" clip-rule="evenodd" d="M52 14H64.505V33.1109H52V14Z" fill="white"/>
</mask>
<g mask="url(#mask0_367:497)">
<path fill-rule="evenodd" clip-rule="evenodd" d="M54.46 15.4C53.876 15.4 53.4 15.875 53.4 16.459V30.652C53.4 31.236 53.876 31.711 54.46 31.711H62.045C62.629 31.711 63.105 31.236 63.105 30.652V16.459C63.105 15.875 62.629 15.4 62.045 15.4H54.46ZM62.045 33.111H54.46C53.104 33.111 52 32.007 52 30.652V16.459C52 15.103 53.104 14 54.46 14H62.045C63.401 14 64.505 15.103 64.505 16.459V30.652C64.505 32.007 63.401 33.111 62.045 33.111V33.111Z" fill="#FEFEFE"/>
</g>
</svg>
