<svg width="13" height="20" viewBox="0 0 13 20" fill="none" xmlns="http://www.w3.org/2000/svg">
<mask id="mask0_0:5339" style="mask-type:alpha" maskUnits="userSpaceOnUse" x="0" y="0" width="13" height="20">
<path fill-rule="evenodd" clip-rule="evenodd" d="M0 0H12.505V19.1109H0V0Z" fill="white"/>
</mask>
<g mask="url(#mask0_0:5339)">
<path fill-rule="evenodd" clip-rule="evenodd" d="M2.46 1.4C1.876 1.4 1.4 1.875 1.4 2.459V16.652C1.4 17.236 1.876 17.711 2.46 17.711H10.045C10.629 17.711 11.105 17.236 11.105 16.652V2.459C11.105 1.875 10.629 1.4 10.045 1.4H2.46ZM10.045 19.111H2.46C1.104 19.111 0 18.007 0 16.652V2.459C0 1.103 1.104 0 2.46 0H10.045C11.401 0 12.505 1.103 12.505 2.459V16.652C12.505 18.007 11.401 19.111 10.045 19.111Z" fill="#FEFEFE"/>
</g>
<path fill-rule="evenodd" clip-rule="evenodd" d="M6.25248 14.7231C5.84948 14.7231 5.52148 15.0511 5.52148 15.4541C5.52148 15.8571 5.84948 16.1851 6.25248 16.1851C6.65448 16.1851 6.98248 15.8571 6.98248 15.4541C6.98248 15.0511 6.65448 14.7231 6.25248 14.7231ZM6.25248 17.1851C5.29748 17.1851 4.52148 16.4091 4.52148 15.4541C4.52148 14.4991 5.29748 13.7231 6.25248 13.7231C7.20648 13.7231 7.98248 14.4991 7.98248 15.4541C7.98248 16.4091 7.20648 17.1851 6.25248 17.1851Z" fill="#FEFEFE"/>
</svg>
