<svg width="30" height="24" viewBox="0 0 30 24" fill="none" xmlns="http://www.w3.org/2000/svg">
<path fill-rule="evenodd" clip-rule="evenodd" d="M9.746 0L0 5.57L3.101 6.883L0 8.655L3.101 9.969L0 11.741L3.101 13.055L0 14.827L19.897 23.255L29.81 17.419L26.71 16.158L29.81 14.332L26.71 13.072L29.81 11.247L26.71 9.986L29.81 8.161L9.746 0ZM2.202 5.44L9.818 1.087L15.389 3.352L8.338 8.038L2.202 5.44ZM8.878 17.525V8.854L16.487 3.799L19.35 4.964L11.92 9.9V18.813L8.878 17.525ZM13.317 10.147L20.447 5.41L27.607 8.322L19.825 12.904L13.317 10.147ZM2.202 8.525L4.234 7.364L7.899 8.916V10.939L2.202 8.525ZM2.202 11.611L4.234 10.449L7.899 12.001V14.024L2.202 11.611ZM25.648 10.612L27.607 11.408L19.825 15.989L12.9 13.056V11.034L19.897 13.998L25.648 10.612ZM2.202 14.696L4.234 13.535L7.899 15.088V17.11L2.202 14.696ZM25.648 13.697L27.607 14.494L19.825 19.076L12.9 16.142V14.12L19.897 17.084L25.648 13.697ZM25.648 16.783L27.607 17.58L19.825 22.162L12.9 19.228V17.205L19.897 20.169L25.648 16.783Z" fill="white"/>
</svg>
