<svg width="243" height="48" viewBox="0 0 243 48" fill="none" xmlns="http://www.w3.org/2000/svg">
<path d="M22.6 23.74C22.6 24.396 22.484 25 22.252 25.552C22.028 26.096 21.716 26.568 21.316 26.968C20.916 27.36 20.44 27.668 19.888 27.892C19.336 28.108 18.736 28.216 18.088 28.216C17.44 28.216 16.84 28.108 16.288 27.892C15.744 27.668 15.272 27.36 14.872 26.968C14.472 26.568 14.16 26.096 13.936 25.552C13.712 25 13.6 24.396 13.6 23.74C13.6 23.076 13.712 22.472 13.936 21.928C14.16 21.376 14.472 20.908 14.872 20.524C15.272 20.132 15.744 19.828 16.288 19.612C16.84 19.396 17.44 19.288 18.088 19.288C18.736 19.288 19.336 19.396 19.888 19.612C20.44 19.828 20.916 20.132 21.316 20.524C21.716 20.908 22.028 21.376 22.252 21.928C22.484 22.472 22.6 23.076 22.6 23.74ZM21.316 23.74C21.316 23.276 21.24 22.84 21.088 22.432C20.936 22.016 20.72 21.652 20.44 21.34C20.16 21.028 19.82 20.784 19.42 20.608C19.028 20.424 18.584 20.332 18.088 20.332C17.6 20.332 17.156 20.424 16.756 20.608C16.364 20.784 16.028 21.028 15.748 21.34C15.476 21.652 15.264 22.016 15.112 22.432C14.96 22.84 14.884 23.276 14.884 23.74C14.884 24.212 14.96 24.656 15.112 25.072C15.264 25.488 15.48 25.852 15.76 26.164C16.04 26.468 16.376 26.708 16.768 26.884C17.16 27.06 17.6 27.148 18.088 27.148C18.576 27.148 19.02 27.06 19.42 26.884C19.82 26.708 20.16 26.468 20.44 26.164C20.72 25.852 20.936 25.488 21.088 25.072C21.24 24.656 21.316 24.212 21.316 23.74ZM24.2156 19.504H26.8076C27.2636 19.504 27.6796 19.552 28.0556 19.648C28.4316 19.736 28.7516 19.876 29.0156 20.068C29.2796 20.26 29.4836 20.504 29.6276 20.8C29.7716 21.096 29.8436 21.452 29.8436 21.868C29.8436 22.292 29.7636 22.656 29.6036 22.96C29.4516 23.264 29.2356 23.512 28.9556 23.704C28.6836 23.896 28.3556 24.04 27.9716 24.136C27.5956 24.224 27.1876 24.268 26.7476 24.268H25.4036V28H24.2156V19.504ZM25.4036 23.26H26.6636C26.9516 23.26 27.2156 23.236 27.4556 23.188C27.7036 23.132 27.9156 23.052 28.0916 22.948C28.2676 22.836 28.4036 22.692 28.4996 22.516C28.5956 22.34 28.6436 22.124 28.6436 21.868C28.6436 21.612 28.5916 21.4 28.4876 21.232C28.3916 21.056 28.2556 20.916 28.0796 20.812C27.9116 20.7 27.7076 20.624 27.4676 20.584C27.2276 20.536 26.9676 20.512 26.6876 20.512H25.4036V23.26ZM31.3523 19.504H33.9443C34.4003 19.504 34.8163 19.552 35.1923 19.648C35.5683 19.736 35.8883 19.876 36.1523 20.068C36.4163 20.26 36.6203 20.504 36.7643 20.8C36.9083 21.096 36.9803 21.452 36.9803 21.868C36.9803 22.292 36.9003 22.656 36.7403 22.96C36.5883 23.264 36.3723 23.512 36.0923 23.704C35.8203 23.896 35.4923 24.04 35.1083 24.136C34.7323 24.224 34.3243 24.268 33.8843 24.268H32.5403V28H31.3523V19.504ZM32.5403 23.26H33.8003C34.0883 23.26 34.3523 23.236 34.5923 23.188C34.8403 23.132 35.0523 23.052 35.2283 22.948C35.4043 22.836 35.5403 22.692 35.6363 22.516C35.7323 22.34 35.7803 22.124 35.7803 21.868C35.7803 21.612 35.7283 21.4 35.6243 21.232C35.5283 21.056 35.3923 20.916 35.2163 20.812C35.0483 20.7 34.8443 20.624 34.6043 20.584C34.3643 20.536 34.1043 20.512 33.8243 20.512H32.5403V23.26ZM47.057 23.74C47.057 24.396 46.941 25 46.709 25.552C46.485 26.096 46.173 26.568 45.773 26.968C45.373 27.36 44.897 27.668 44.345 27.892C43.793 28.108 43.193 28.216 42.545 28.216C41.897 28.216 41.297 28.108 40.745 27.892C40.201 27.668 39.729 27.36 39.329 26.968C38.929 26.568 38.617 26.096 38.393 25.552C38.169 25 38.057 24.396 38.057 23.74C38.057 23.076 38.169 22.472 38.393 21.928C38.617 21.376 38.929 20.908 39.329 20.524C39.729 20.132 40.201 19.828 40.745 19.612C41.297 19.396 41.897 19.288 42.545 19.288C43.193 19.288 43.793 19.396 44.345 19.612C44.897 19.828 45.373 20.132 45.773 20.524C46.173 20.908 46.485 21.376 46.709 21.928C46.941 22.472 47.057 23.076 47.057 23.74ZM45.773 23.74C45.773 23.276 45.697 22.84 45.545 22.432C45.393 22.016 45.177 21.652 44.897 21.34C44.617 21.028 44.277 20.784 43.877 20.608C43.485 20.424 43.041 20.332 42.545 20.332C42.057 20.332 41.613 20.424 41.213 20.608C40.821 20.784 40.485 21.028 40.205 21.34C39.933 21.652 39.721 22.016 39.569 22.432C39.417 22.84 39.341 23.276 39.341 23.74C39.341 24.212 39.417 24.656 39.569 25.072C39.721 25.488 39.937 25.852 40.217 26.164C40.497 26.468 40.833 26.708 41.225 26.884C41.617 27.06 42.057 27.148 42.545 27.148C43.033 27.148 43.477 27.06 43.877 26.884C44.277 26.708 44.617 26.468 44.897 26.164C45.177 25.852 45.393 25.488 45.545 25.072C45.697 24.656 45.773 24.212 45.773 23.74ZM49.8606 28H48.6726V19.504H51.3966C51.8046 19.504 52.1926 19.548 52.5606 19.636C52.9286 19.716 53.2486 19.848 53.5206 20.032C53.8006 20.216 54.0206 20.46 54.1806 20.764C54.3406 21.06 54.4206 21.424 54.4206 21.856C54.4206 22.48 54.2286 22.984 53.8446 23.368C53.4606 23.752 52.9646 23.996 52.3566 24.1L54.7326 28H53.2926L51.1326 24.22H49.8606V28ZM49.8606 23.224H51.2286C51.5086 23.224 51.7686 23.2 52.0086 23.152C52.2486 23.104 52.4566 23.028 52.6326 22.924C52.8166 22.812 52.9606 22.672 53.0646 22.504C53.1686 22.328 53.2206 22.112 53.2206 21.856C53.2206 21.6 53.1686 21.388 53.0646 21.22C52.9606 21.044 52.8206 20.904 52.6446 20.8C52.4766 20.696 52.2766 20.624 52.0446 20.584C51.8126 20.536 51.5686 20.512 51.3126 20.512H49.8606V23.224ZM58.8791 28H57.6911V20.548H54.9671V19.504H61.6031V20.548H58.8791V28ZM65.9751 28.216C65.4151 28.216 64.9271 28.124 64.5111 27.94C64.0951 27.748 63.7511 27.496 63.4791 27.184C63.2071 26.872 63.0031 26.516 62.8671 26.116C62.7391 25.708 62.6751 25.288 62.6751 24.856V19.504H63.8631V24.784C63.8631 25.072 63.8991 25.36 63.9711 25.648C64.0431 25.928 64.1591 26.18 64.3191 26.404C64.4871 26.628 64.7031 26.808 64.9671 26.944C65.2391 27.08 65.5751 27.148 65.9751 27.148C66.3671 27.148 66.6991 27.08 66.9711 26.944C67.2431 26.808 67.4591 26.628 67.6191 26.404C67.7871 26.18 67.9071 25.928 67.9791 25.648C68.0511 25.36 68.0871 25.072 68.0871 24.784V19.504H69.2751V24.856C69.2751 25.288 69.2071 25.708 69.0711 26.116C68.9431 26.516 68.7431 26.872 68.4711 27.184C68.1991 27.496 67.8551 27.748 67.4391 27.94C67.0231 28.124 66.5351 28.216 65.9751 28.216ZM77.2661 26.296H77.2901V19.504H78.4781V28H76.9781L72.4901 21.064H72.4661V28H71.2781V19.504H72.8261L77.2661 26.296ZM81.7356 28H80.5476V19.504H81.7356V28ZM86.7814 28H85.5934V20.548H82.8694V19.504H89.5054V20.548H86.7814V28ZM93.8088 28H92.6088V24.328L89.4288 19.504H90.8928L93.2448 23.344L95.6088 19.504H96.9888L93.8088 24.328V28ZM101.88 26.944H105.672V28H100.692V19.504H101.88V26.944ZM108.009 28H106.821V19.504H108.009V28ZM114.303 21.076C114.135 20.844 113.907 20.656 113.619 20.512C113.331 20.36 113.007 20.284 112.647 20.284C112.455 20.284 112.259 20.312 112.059 20.368C111.867 20.416 111.691 20.5 111.531 20.62C111.371 20.732 111.239 20.876 111.135 21.052C111.039 21.22 110.991 21.424 110.991 21.664C110.991 21.896 111.035 22.092 111.123 22.252C111.219 22.404 111.343 22.536 111.495 22.648C111.655 22.752 111.839 22.844 112.047 22.924C112.263 22.996 112.491 23.072 112.731 23.152C113.019 23.24 113.311 23.34 113.607 23.452C113.903 23.564 114.171 23.712 114.411 23.896C114.651 24.08 114.847 24.312 114.999 24.592C115.151 24.864 115.227 25.212 115.227 25.636C115.227 26.076 115.143 26.46 114.975 26.788C114.815 27.108 114.599 27.376 114.327 27.592C114.055 27.8 113.739 27.956 113.379 28.06C113.027 28.164 112.663 28.216 112.287 28.216C111.751 28.216 111.231 28.112 110.727 27.904C110.231 27.696 109.819 27.388 109.491 26.98L110.415 26.2C110.615 26.496 110.883 26.736 111.219 26.92C111.555 27.104 111.919 27.196 112.311 27.196C112.511 27.196 112.711 27.168 112.911 27.112C113.111 27.056 113.291 26.968 113.451 26.848C113.619 26.728 113.755 26.58 113.859 26.404C113.963 26.22 114.015 26 114.015 25.744C114.015 25.488 113.959 25.276 113.847 25.108C113.743 24.932 113.599 24.784 113.415 24.664C113.231 24.544 113.015 24.444 112.767 24.364C112.527 24.276 112.271 24.188 111.999 24.1C111.727 24.02 111.459 23.924 111.195 23.812C110.931 23.692 110.695 23.544 110.487 23.368C110.279 23.184 110.111 22.96 109.983 22.696C109.855 22.432 109.791 22.104 109.791 21.712C109.791 21.288 109.875 20.924 110.043 20.62C110.219 20.316 110.443 20.064 110.715 19.864C110.995 19.664 111.307 19.52 111.651 19.432C112.003 19.336 112.355 19.288 112.707 19.288C113.203 19.288 113.667 19.376 114.099 19.552C114.531 19.728 114.879 19.964 115.143 20.26L114.303 21.076ZM119.699 28H118.511V20.548H115.787V19.504H122.423V20.548H119.699V28Z" fill="#242424"/>
<path fill-rule="evenodd" clip-rule="evenodd" d="M0 24L8 20V28L0 24Z" fill="#ABABAB"/>
</svg>
