<svg width="731" height="55" viewBox="0 0 731 55" fill="none" xmlns="http://www.w3.org/2000/svg">
<rect y="1" width="731" height="53" fill="#242424"/>
<g opacity="0.456408">
<mask id="mask0_227:518" style="mask-type:alpha" maskUnits="userSpaceOnUse" x="0" y="1" width="262" height="6">
<path fill-rule="evenodd" clip-rule="evenodd" d="M0.582031 1.16992H261.495V6.10422H0.582031V1.16992Z" fill="white"/>
</mask>
<g mask="url(#mask0_227:518)">
<path fill-rule="evenodd" clip-rule="evenodd" d="M255.848 -8.9759C238.503 -7.9459 219.009 -12.8589 198.488 -18.0309C172.846 -24.4919 146.329 -31.1749 119.369 -28.0809C92.4575 -24.9819 67.1805 -15.6199 44.8785 -7.3589C26.4665 -0.537895 10.5615 5.3531 -2.02848 6.1001C-2.04748 6.1011 -2.06548 6.1031 -2.08448 6.1041L-2.14648 5.0551C-2.12848 5.0541 -2.10848 5.0521 -2.09048 5.0511C10.3765 4.3121 26.2265 -1.5589 44.5765 -8.3569C66.9235 -16.6339 92.2505 -26.0159 119.261 -29.1259C146.37 -32.2359 172.964 -25.5359 198.678 -19.0559C221.375 -13.3349 242.816 -7.9379 261.366 -10.5809L261.496 -9.5389C259.641 -9.2739 257.757 -9.0889 255.848 -8.9759Z" fill="#00B0C7"/>
</g>
<mask id="mask1_227:518" style="mask-type:alpha" maskUnits="userSpaceOnUse" x="0" y="1" width="248" height="16">
<path fill-rule="evenodd" clip-rule="evenodd" d="M0.582031 1.16992H247.208V16.8977H0.582031V1.16992Z" fill="white"/>
</mask>
<g mask="url(#mask1_227:518)">
<path fill-rule="evenodd" clip-rule="evenodd" d="M241.561 1.81865C224.218 2.84865 204.723 -2.06535 184.202 -7.23635C158.56 -13.6973 132.044 -20.3823 105.082 -17.2873C78.1714 -14.1893 52.8934 -4.82535 30.5904 3.43565C12.1784 10.2557 -3.72864 16.1477 -16.3176 16.8947C-16.3356 16.8957 -16.3516 16.8967 -16.3706 16.8977L-16.4316 15.8487C-16.4146 15.8477 -16.3966 15.8467 -16.3796 15.8457C-3.91264 15.1067 11.9384 9.23465 30.2884 2.43765C52.6354 -5.84035 77.9644 -15.2223 104.974 -18.3323C132.087 -21.4373 158.678 -14.7413 184.393 -8.26135C207.09 -2.54135 228.528 2.85965 247.077 0.213652L247.207 1.25565C245.352 1.51965 243.469 1.70565 241.561 1.81865Z" fill="#00B0C7"/>
</g>
<mask id="mask2_227:518" style="mask-type:alpha" maskUnits="userSpaceOnUse" x="0" y="1" width="233" height="27">
<path fill-rule="evenodd" clip-rule="evenodd" d="M0.582031 1.16992H232.926V27.6901H0.582031V1.16992Z" fill="white"/>
</mask>
<g mask="url(#mask2_227:518)">
<path fill-rule="evenodd" clip-rule="evenodd" d="M227.278 12.611C209.934 13.641 190.44 8.72799 169.918 3.55599C144.276 -2.906 117.763 -9.591 90.7992 -6.496C63.8892 -3.395 38.6122 5.967 16.3102 14.228C-2.10284 21.048 -18.0108 26.94 -30.6008 27.687C-30.6188 27.688 -30.6348 27.689 -30.6538 27.69L-30.7148 26.641C-30.6978 26.64 -30.6798 26.639 -30.6628 26.638C-18.1958 25.898 -2.34384 20.027 16.0082 13.229C38.3542 4.95199 63.6822 -4.429 90.6912 -7.541C117.806 -10.654 144.394 -3.949 170.108 2.531C192.807 8.252 214.252 13.651 232.796 11.006L232.926 12.047C231.071 12.312 229.186 12.497 227.278 12.611Z" fill="#00B0C7"/>
</g>
<mask id="mask3_227:518" style="mask-type:alpha" maskUnits="userSpaceOnUse" x="0" y="2" width="219" height="37">
<path fill-rule="evenodd" clip-rule="evenodd" d="M0.582031 2.46875H218.639V38.4838H0.582031V2.46875Z" fill="white"/>
</mask>
<g mask="url(#mask3_227:518)">
<path fill-rule="evenodd" clip-rule="evenodd" d="M212.994 23.4038C195.652 24.4338 176.157 19.5208 155.636 14.3498C129.994 7.88783 103.485 1.20383 76.514 4.29783C49.606 7.39783 24.33 16.7598 2.029 25.0208C-16.385 31.8408 -32.292 37.7328 -44.882 38.4798C-44.901 38.4818 -44.92 38.4828 -44.939 38.4838L-45 37.4348C-44.982 37.4338 -44.963 37.4328 -44.944 37.4308C-32.477 36.6918 -16.625 30.8198 1.727 24.0228C24.072 15.7458 49.399 6.36483 76.407 3.25283C103.514 0.145832 130.111 6.84383 155.827 13.3248C178.523 19.0438 199.961 24.4458 218.509 21.7988L218.639 22.8408C216.785 23.1058 214.902 23.2908 212.994 23.4038Z" fill="#00B0C7"/>
</g>
<mask id="mask4_227:518" style="mask-type:alpha" maskUnits="userSpaceOnUse" x="0" y="11" width="235" height="37">
<path fill-rule="evenodd" clip-rule="evenodd" d="M0.582031 11.4971H234.102V47.5104H0.582031V11.4971Z" fill="white"/>
</mask>
<g mask="url(#mask4_227:518)">
<path fill-rule="evenodd" clip-rule="evenodd" d="M228.453 32.4314C211.109 33.4604 191.614 28.5484 171.094 23.3764C145.452 16.9154 118.94 10.2324 91.9749 13.3254C65.0659 16.4244 39.7899 25.7874 17.4889 34.0484C-0.923063 40.8684 -16.8301 46.7594 -29.4191 47.5064C-29.4391 47.5084 -29.4581 47.5094 -29.4781 47.5104L-29.5391 46.4614C-29.5201 46.4604 -29.5001 46.4594 -29.4811 46.4574C-17.0151 45.7184 -1.16306 39.8474 17.1869 33.0494C39.5329 24.7724 64.8589 15.3914 91.8679 12.2804C118.979 9.17545 145.57 15.8714 171.284 22.3514C193.982 28.0724 215.423 33.4704 233.972 30.8264L234.102 31.8674C232.246 32.1324 230.363 32.3184 228.453 32.4314Z" fill="#00B0C7"/>
</g>
<mask id="mask5_227:518" style="mask-type:alpha" maskUnits="userSpaceOnUse" x="0" y="20" width="250" height="35">
<path fill-rule="evenodd" clip-rule="evenodd" d="M0.582031 20.5239H249.56V54.17H0.582031V20.5239Z" fill="white"/>
</mask>
<g mask="url(#mask5_227:518)">
<path fill-rule="evenodd" clip-rule="evenodd" d="M243.909 41.4574C226.567 42.4874 207.074 37.5744 186.554 32.4034C160.913 25.9404 134.398 19.2554 107.435 22.3524C80.5269 25.4514 55.2499 34.8144 32.9499 43.0744C14.5369 49.8944 -1.37008 55.7864 -13.9601 56.5334C-13.9801 56.5344 -13.9991 56.5354 -14.0181 56.5364L-14.0801 55.4874C-14.0611 55.4864 -14.0411 55.4854 -14.0221 55.4844C-1.55508 54.7444 14.2969 48.8734 32.6479 42.0754C54.9929 33.7994 80.3199 24.4184 107.327 21.3074C134.431 18.2024 161.03 24.8974 186.745 31.3784C209.443 37.0984 230.883 42.4954 249.429 39.8524L249.559 40.8934C247.703 41.1594 245.819 41.3444 243.909 41.4574Z" fill="#00B0C7"/>
</g>
<mask id="mask6_227:518" style="mask-type:alpha" maskUnits="userSpaceOnUse" x="1" y="29" width="265" height="26">
<path fill-rule="evenodd" clip-rule="evenodd" d="M1.38281 29.5488H265.025V54.1698H1.38281V29.5488Z" fill="white"/>
</mask>
<g mask="url(#mask6_227:518)">
<path fill-rule="evenodd" clip-rule="evenodd" d="M259.377 50.487C242.032 51.517 222.537 46.603 202.014 41.432C176.374 34.97 149.855 28.287 122.898 31.381C95.9858 34.479 70.7068 43.843 48.4038 52.104C29.9928 58.924 14.0868 64.816 1.49781 65.563C1.47881 65.564 1.46281 65.565 1.44381 65.566L1.38281 64.517C1.40081 64.516 1.41781 64.515 1.43581 64.514C13.9018 63.775 29.7528 57.904 48.1018 51.106C70.4498 42.828 95.7778 33.446 122.79 30.335C149.904 27.222 176.492 33.927 202.205 40.407C224.904 46.127 246.342 51.53 264.895 48.882L265.025 49.924C263.17 50.188 261.286 50.373 259.377 50.487Z" fill="#00B0C7"/>
</g>
<mask id="mask7_227:518" style="mask-type:alpha" maskUnits="userSpaceOnUse" x="0" y="40" width="251" height="15">
<path fill-rule="evenodd" clip-rule="evenodd" d="M0.582031 40.3442H250.737V54.17H0.582031V40.3442Z" fill="white"/>
</mask>
<g mask="url(#mask7_227:518)">
<path fill-rule="evenodd" clip-rule="evenodd" d="M245.091 61.2802C227.748 62.3102 208.253 57.3972 187.732 52.2252C162.09 45.7632 135.574 39.0772 108.612 42.1732C81.7027 45.2732 56.4267 54.6352 34.1257 62.8962C15.7117 69.7172 -0.195344 75.6092 -12.7863 76.3562C-12.8043 76.3572 -12.8223 76.3592 -12.8413 76.3602L-12.9023 75.3112C-12.8853 75.3102 -12.8663 75.3082 -12.8483 75.3072C-0.381344 74.5682 15.4707 68.6962 33.8237 61.8982C56.1697 53.6212 81.4967 44.2392 108.504 41.1282C135.613 38.0212 162.208 44.7202 187.923 51.2002C210.62 56.9202 232.058 62.3222 250.607 59.6752L250.737 60.7172C248.882 60.9822 246.999 61.1672 245.091 61.2802Z" fill="#00B0C7"/>
</g>
<mask id="mask8_227:518" style="mask-type:alpha" maskUnits="userSpaceOnUse" x="0" y="51" width="237" height="4">
<path fill-rule="evenodd" clip-rule="evenodd" d="M0.582031 51.1357H236.454V54.1698H0.582031V51.1357Z" fill="white"/>
</mask>
<g mask="url(#mask8_227:518)">
<path fill-rule="evenodd" clip-rule="evenodd" d="M230.806 72.0705C213.462 73.1005 193.968 68.1875 173.447 63.0165C147.805 56.5545 121.292 49.8725 94.3265 52.9655C67.4175 56.0645 42.1415 65.4275 19.8405 73.6875C1.4285 80.5075 -14.4785 86.3995 -27.0675 87.1465C-27.0875 87.1475 -27.1065 87.1485 -27.1265 87.1495L-27.1875 86.1005C-14.7065 85.4195 1.1605 79.4965 19.5385 72.6895C41.8835 64.4125 67.2105 55.0315 94.2185 51.9205C121.324 48.8115 147.923 55.5115 173.637 61.9915C196.335 67.7105 217.778 73.1125 236.323 70.4655L236.453 71.5065C234.598 71.7715 232.714 71.9565 230.806 72.0705Z" fill="#00B0C7"/>
</g>
<mask id="mask9_227:518" style="mask-type:alpha" maskUnits="userSpaceOnUse" x="245" y="1" width="265" height="1">
<path fill-rule="evenodd" clip-rule="evenodd" d="M245.957 1.1698H509.643V1.2677H245.957V1.1698Z" fill="white"/>
</mask>
<g mask="url(#mask9_227:518)">
<path fill-rule="evenodd" clip-rule="evenodd" d="M503.997 -13.8141C486.655 -12.7841 467.155 -17.6961 446.63 -22.8661C420.975 -29.3281 394.444 -36.0101 367.471 -32.9181C340.56 -29.8191 315.282 -20.4551 292.98 -12.1941C274.568 -5.3741 258.661 0.517899 246.072 1.2649C246.053 1.2659 246.037 1.2669 246.018 1.2679L245.957 0.218903C245.975 0.217903 245.992 0.2169 246.009 0.2159C258.476 -0.523098 274.327 -6.3951 292.677 -13.1921C315.024 -21.4701 340.353 -30.8521 367.363 -33.9621C394.493 -37.0661 421.093 -30.3711 446.82 -23.8911C469.522 -18.1731 490.962 -12.7731 509.514 -15.4191L509.643 -14.3771C507.789 -14.1131 505.905 -13.9271 503.997 -13.8141Z" fill="#00B0C7"/>
</g>
<mask id="mask10_227:518" style="mask-type:alpha" maskUnits="userSpaceOnUse" x="232" y="1" width="265" height="12">
<path fill-rule="evenodd" clip-rule="evenodd" d="M232.672 1.16992H496.36V12.0603H232.672V1.16992Z" fill="white"/>
</mask>
<g mask="url(#mask10_227:518)">
<path fill-rule="evenodd" clip-rule="evenodd" d="M490.712 -3.02137C473.366 -1.99137 453.862 -6.90437 433.33 -12.0754C407.676 -18.5354 381.146 -25.2184 354.186 -22.1254C327.276 -19.0244 301.999 -9.66236 279.697 -1.40236C261.284 5.41763 245.376 11.3106 232.787 12.0576C232.768 12.0586 232.752 12.0596 232.733 12.0606L232.672 11.0116C232.69 11.0106 232.707 11.0096 232.725 11.0086C245.191 10.2686 261.044 4.39663 279.395 -2.40037C301.741 -10.6774 327.069 -20.0584 354.078 -23.1704C381.192 -26.2764 407.794 -19.5794 433.52 -13.1004C456.229 -7.38137 477.673 -1.98236 496.231 -4.62637L496.36 -3.58537C494.505 -3.32037 492.621 -3.13537 490.712 -3.02137Z" fill="#00B0C7"/>
</g>
<mask id="mask11_227:518" style="mask-type:alpha" maskUnits="userSpaceOnUse" x="218" y="1" width="265" height="22">
<path fill-rule="evenodd" clip-rule="evenodd" d="M218.389 1.16992H482.075V22.8538H218.389V1.16992Z" fill="white"/>
</mask>
<g mask="url(#mask11_227:518)">
<path fill-rule="evenodd" clip-rule="evenodd" d="M476.429 7.77079C459.085 8.80079 439.581 3.88779 419.05 -1.28221C393.395 -7.74321 366.87 -14.4262 339.903 -11.3322C312.995 -8.23221 287.719 1.12979 265.418 9.39079C247.004 16.2108 231.097 22.1028 218.507 22.8498C218.487 22.8518 218.469 22.8528 218.45 22.8538L218.389 21.8048C218.407 21.8038 218.426 21.8018 218.445 21.8008C230.912 21.0618 246.764 15.1888 265.116 8.39279C287.461 0.115786 312.788 -9.26521 339.796 -12.3772C366.91 -15.4892 393.513 -8.78621 419.241 -2.30721C441.949 3.41179 463.396 8.81479 481.946 6.16679L482.075 7.20779C480.221 7.47279 478.337 7.65779 476.429 7.77079Z" fill="#00B0C7"/>
</g>
<mask id="mask12_227:518" style="mask-type:alpha" maskUnits="userSpaceOnUse" x="233" y="1" width="265" height="31">
<path fill-rule="evenodd" clip-rule="evenodd" d="M233.85 1.16992H497.538V31.8806H233.85V1.16992Z" fill="white"/>
</mask>
<g mask="url(#mask12_227:518)">
<path fill-rule="evenodd" clip-rule="evenodd" d="M491.889 16.7986C474.543 17.8276 455.038 12.9156 434.508 7.7446C408.854 1.2836 382.332 -5.3954 355.364 -2.3044C328.455 0.794602 303.179 10.1576 280.878 18.4186C262.466 25.2376 246.559 31.1296 233.97 31.8766C233.95 31.8786 233.931 31.8796 233.911 31.8806L233.85 30.8316C233.869 30.8306 233.888 30.8296 233.907 30.8276C246.374 30.0886 262.226 24.2166 280.576 17.4196C302.921 9.1426 328.248 -0.238398 355.256 -3.3494C382.369 -6.4584 408.971 0.240602 434.698 6.7206C457.408 12.4406 478.852 17.8426 497.408 15.1936L497.538 16.2346C495.682 16.4996 493.798 16.6856 491.889 16.7986Z" fill="#00B0C7"/>
</g>
<path fill-rule="evenodd" clip-rule="evenodd" d="M506.365 25.9246C489.068 26.9531 469.621 22.0442 449.15 16.8765C423.562 10.4163 397.106 3.73821 370.198 6.82986C343.36 9.92852 318.15 19.2864 295.907 27.5429C277.543 34.3599 261.677 40.2493 249.119 40.996C249.099 40.997 249.081 40.998 249.061 41L249 39.9515C249.019 39.9495 249.038 39.9485 249.057 39.9475C261.491 39.2078 277.302 33.3393 295.605 26.5453C317.892 18.2719 343.153 8.89497 370.09 5.78632C397.149 2.67367 423.679 9.37476 449.339 15.8519C471.984 21.5675 493.375 26.9621 511.87 24.3193L512 25.3608C510.149 25.6257 508.269 25.8116 506.365 25.9246Z" fill="#00B0C7"/>
<path fill-rule="evenodd" clip-rule="evenodd" d="M522.368 34.9239C505.07 35.9534 485.629 31.0447 465.162 25.8771C439.576 19.417 413.112 12.7381 386.197 15.8297C359.356 18.9272 334.143 28.286 311.898 36.5442C293.535 43.36 277.671 49.2503 265.115 49.997C265.096 49.998 265.08 49.999 265.062 50L265 48.9515C265.018 48.9505 265.035 48.9495 265.053 48.9485C277.486 48.2088 293.296 42.3395 311.597 35.5466C333.887 27.2724 359.149 17.8937 386.09 14.7851C413.157 11.6756 439.692 18.3745 465.352 24.8525C487.989 30.5679 509.369 35.9654 527.871 33.3196L528 34.3612C526.151 34.626 524.27 34.811 522.368 34.9239Z" fill="#00B0C7"/>
<mask id="mask13_227:518" style="mask-type:alpha" maskUnits="userSpaceOnUse" x="249" y="24" width="265" height="31">
<path fill-rule="evenodd" clip-rule="evenodd" d="M249.484 24.7139H513.17V54.1699H249.484V24.7139Z" fill="white"/>
</mask>
<g mask="url(#mask13_227:518)">
<path fill-rule="evenodd" clip-rule="evenodd" d="M507.525 45.6473C490.182 46.6773 470.682 41.7643 450.157 36.5943C424.502 30.1323 397.97 23.4503 370.998 26.5433C344.09 29.6433 318.813 39.0053 296.512 47.2663C278.098 54.0873 262.191 59.9793 249.601 60.7263C249.582 60.7273 249.564 60.7283 249.545 60.7303L249.484 59.6813C249.502 59.6793 249.521 59.6783 249.538 59.6773C262.006 58.9383 277.858 53.0653 296.21 46.2683C318.556 37.9913 343.882 28.6093 370.89 25.4983C398.016 22.3903 424.62 29.0893 450.347 35.5693C473.049 41.2893 494.489 46.6893 513.041 44.0423L513.17 45.0843C511.316 45.3493 509.433 45.5343 507.525 45.6473Z" fill="#00B0C7"/>
</g>
<mask id="mask14_227:518" style="mask-type:alpha" maskUnits="userSpaceOnUse" x="235" y="35" width="264" height="20">
<path fill-rule="evenodd" clip-rule="evenodd" d="M235.201 35.5073H498.889V54.1702H235.201V35.5073Z" fill="white"/>
</mask>
<g mask="url(#mask14_227:518)">
<path fill-rule="evenodd" clip-rule="evenodd" d="M493.241 56.4381C475.896 57.4681 456.392 52.5551 435.861 47.3851C410.206 40.9251 383.682 34.2451 356.715 37.3361C329.806 40.4351 304.53 49.7981 282.229 58.0581C263.817 64.8781 247.91 70.7701 235.321 71.5171C235.301 71.5181 235.282 71.5191 235.262 71.5201L235.201 70.4711C247.684 69.7901 263.549 63.8671 281.927 57.0601C304.272 48.7831 329.599 39.4021 356.607 36.2911C383.715 33.1851 410.324 39.8811 436.051 46.3601C458.759 52.0781 480.206 57.4781 498.76 54.8331L498.889 55.8751C497.034 56.1391 495.149 56.3241 493.241 56.4381Z" fill="#00B0C7"/>
</g>
<mask id="mask15_227:518" style="mask-type:alpha" maskUnits="userSpaceOnUse" x="221" y="46" width="265" height="9">
<path fill-rule="evenodd" clip-rule="evenodd" d="M221.916 46.3008H485.603V54.1701H221.916V46.3008Z" fill="white"/>
</mask>
<g mask="url(#mask15_227:518)">
<path fill-rule="evenodd" clip-rule="evenodd" d="M479.954 67.2315C462.611 68.2605 443.107 63.3485 422.576 58.1785C396.922 51.7165 370.391 45.0375 343.431 48.1285C316.52 51.2275 291.242 60.5895 268.94 68.8515C250.527 75.6715 234.622 81.5625 222.033 82.3095C222.014 82.3115 221.996 82.3125 221.977 82.3135L221.916 81.2645C221.934 81.2635 221.953 81.2625 221.971 81.2605C234.437 80.5215 250.287 74.6495 268.638 67.8535C290.985 59.5755 316.313 50.1935 343.323 47.0835C370.443 43.9805 397.04 50.6745 422.767 57.1525C445.475 62.8725 466.918 68.2715 485.474 65.6265L485.603 66.6675C483.747 66.9325 481.864 67.1185 479.954 67.2315Z" fill="#00B0C7"/>
</g>
<mask id="mask16_227:518" style="mask-type:alpha" maskUnits="userSpaceOnUse" x="480" y="1" width="251" height="7">
<path fill-rule="evenodd" clip-rule="evenodd" d="M480.824 1.16992H730.584V7.22092H480.824V1.16992Z" fill="white"/>
</mask>
<g mask="url(#mask16_227:518)">
<path fill-rule="evenodd" clip-rule="evenodd" d="M738.818 -7.85909C721.476 -6.82909 701.981 -11.7421 681.46 -16.9131C655.817 -23.3751 629.297 -30.0561 602.338 -26.9651C575.43 -23.8651 550.154 -14.5031 527.854 -6.24209C509.439 0.577913 493.532 6.46991 480.942 7.21691C480.923 7.21891 480.905 7.21991 480.885 7.22091L480.824 6.17191C480.842 6.17091 480.861 6.16991 480.88 6.16791C493.347 5.42891 509.199 -0.443089 527.551 -7.24009C549.896 -15.5171 575.223 -24.8981 602.23 -28.0101C629.343 -31.1151 655.936 -24.4191 681.65 -17.9381C704.347 -12.2181 725.786 -6.81409 744.334 -9.46309L744.463 -8.42209C742.609 -8.15709 740.726 -7.97209 738.818 -7.85909Z" fill="#00B0C7"/>
</g>
<mask id="mask17_227:518" style="mask-type:alpha" maskUnits="userSpaceOnUse" x="496" y="1" width="235" height="16">
<path fill-rule="evenodd" clip-rule="evenodd" d="M496.283 1.16992H730.582V16.2478H496.283V1.16992Z" fill="white"/>
</mask>
<g mask="url(#mask17_227:518)">
<path fill-rule="evenodd" clip-rule="evenodd" d="M754.275 1.16903C736.932 2.19803 717.437 -2.71397 696.916 -7.88597C671.274 -14.347 644.757 -21.032 617.796 -17.937C590.888 -14.838 565.611 -5.47497 543.311 2.78603C524.899 9.60603 508.993 15.497 496.402 16.244C496.382 16.246 496.363 16.247 496.343 16.248L496.283 15.199C496.302 15.198 496.321 15.197 496.34 15.195C508.807 14.456 524.659 8.58503 543.009 1.78703C565.354 -6.48997 590.681 -15.871 617.689 -18.982C644.799 -22.088 671.392 -15.39 697.106 -8.91097C719.805 -3.18997 741.24 2.20603 759.794 -0.435968L759.924 0.605032C758.068 0.870031 756.184 1.05603 754.275 1.16903Z" fill="#00B0C7"/>
</g>
<mask id="mask18_227:518" style="mask-type:alpha" maskUnits="userSpaceOnUse" x="511" y="1" width="220" height="25">
<path fill-rule="evenodd" clip-rule="evenodd" d="M511.744 1.16992H730.583V25.2741H511.744V1.16992Z" fill="white"/>
</mask>
<g mask="url(#mask18_227:518)">
<path fill-rule="evenodd" clip-rule="evenodd" d="M769.733 10.195C752.391 11.224 732.898 6.31204 712.378 1.14004C686.736 -5.32196 660.224 -12.005 633.257 -8.90996C606.349 -5.81096 581.073 3.55104 558.772 11.811C540.359 18.632 524.453 24.523 511.863 25.27C511.843 25.271 511.824 25.273 511.804 25.274L511.744 24.225C511.763 24.223 511.782 24.222 511.801 24.221C524.267 23.482 540.119 17.61 558.47 10.813C580.815 2.53704 606.141 -6.84396 633.15 -9.95496C660.259 -13.061 686.853 -6.36496 712.568 0.115042C735.266 5.83604 756.71 11.233 775.253 8.58904L775.383 9.63104C773.527 9.89604 771.642 10.081 769.733 10.195Z" fill="#00B0C7"/>
</g>
<mask id="mask19_227:518" style="mask-type:alpha" maskUnits="userSpaceOnUse" x="527" y="1" width="204" height="34">
<path fill-rule="evenodd" clip-rule="evenodd" d="M527.205 1.16992H730.584V34.3039H527.205V1.16992Z" fill="white"/>
</mask>
<g mask="url(#mask19_227:518)">
<path fill-rule="evenodd" clip-rule="evenodd" d="M785.2 19.2251C767.854 20.2551 748.36 15.3411 727.837 10.1701C702.197 3.70812 675.694 -2.97088 648.721 0.118116C621.808 3.21712 596.529 12.5801 574.226 20.8421C555.815 27.6621 539.908 33.5541 527.319 34.3011C527.301 34.3021 527.285 34.3031 527.266 34.3041L527.205 33.2551C527.222 33.2541 527.24 33.2531 527.257 33.2521C539.723 32.5121 555.574 26.6411 573.924 19.8441C596.271 11.5661 621.601 2.18312 648.613 -0.926884C675.725 -4.02988 702.315 2.66512 728.028 9.14412C750.727 14.8641 772.161 20.2641 790.719 17.6191L790.848 18.6611C788.993 18.9261 787.108 19.1111 785.2 19.2251Z" fill="#00B0C7"/>
</g>
<mask id="mask20_227:518" style="mask-type:alpha" maskUnits="userSpaceOnUse" x="512" y="9" width="219" height="37">
<path fill-rule="evenodd" clip-rule="evenodd" d="M512.92 9.08203H730.583V45.0973H512.92V9.08203Z" fill="white"/>
</mask>
<g mask="url(#mask20_227:518)">
<path fill-rule="evenodd" clip-rule="evenodd" d="M770.914 30.0173C753.571 31.0473 734.076 26.1343 713.555 20.9623C687.913 14.5003 661.4 7.81133 634.434 10.9103C607.525 14.0103 582.249 23.3733 559.947 31.6333C541.533 38.4543 525.626 44.3463 513.036 45.0933C513.018 45.0943 513 45.0963 512.981 45.0973L512.92 44.0483C512.937 44.0473 512.956 44.0453 512.974 44.0443C525.441 43.3053 541.292 37.4333 559.645 30.6353C581.991 22.3583 607.318 12.9773 634.326 9.86533C661.44 6.76033 688.031 13.4573 713.745 19.9373C736.443 25.6573 757.881 31.0593 776.43 28.4123L776.559 29.4543C774.704 29.7193 772.822 29.9043 770.914 30.0173Z" fill="#00B0C7"/>
</g>
<mask id="mask21_227:518" style="mask-type:alpha" maskUnits="userSpaceOnUse" x="498" y="19" width="233" height="36">
<path fill-rule="evenodd" clip-rule="evenodd" d="M498.637 19.875H730.584V54.17H498.637V19.875Z" fill="white"/>
</mask>
<g mask="url(#mask21_227:518)">
<path fill-rule="evenodd" clip-rule="evenodd" d="M756.631 40.808C739.287 41.838 719.794 36.925 699.272 31.754C673.629 25.291 647.108 18.612 620.151 21.704C593.243 24.803 567.967 34.165 545.666 42.425C527.253 49.245 511.347 55.137 498.756 55.884C498.737 55.885 498.718 55.886 498.698 55.887L498.637 54.838C498.656 54.837 498.675 54.836 498.694 54.835C511.161 54.095 527.013 48.224 545.363 41.427C567.709 33.15 593.035 23.769 620.043 20.658C647.152 17.554 673.748 24.249 699.462 30.729C722.16 36.448 743.6 41.851 762.149 39.203L762.278 40.244C760.423 40.509 758.539 40.694 756.631 40.808Z" fill="#00B0C7"/>
</g>
<mask id="mask22_227:518" style="mask-type:alpha" maskUnits="userSpaceOnUse" x="484" y="30" width="247" height="25">
<path fill-rule="evenodd" clip-rule="evenodd" d="M484.352 30.6675H730.582V54.1699H484.352V30.6675Z" fill="white"/>
</mask>
<g mask="url(#mask22_227:518)">
<path fill-rule="evenodd" clip-rule="evenodd" d="M742.342 51.6014C725.001 52.6304 705.507 47.7174 684.987 42.5464C659.343 36.0844 632.823 29.3994 605.865 32.4954C578.955 35.5944 553.678 44.9564 531.375 53.2184C512.962 60.0384 497.057 65.9304 484.468 66.6774C484.449 66.6784 484.431 66.6794 484.412 66.6804L484.352 65.6314C484.369 65.6304 484.388 65.6294 484.405 65.6284C496.872 64.8884 512.722 59.0174 531.073 52.2204C553.42 43.9424 578.748 34.5604 605.758 31.4504C632.87 28.3464 659.463 35.0424 685.177 41.5224C707.874 47.2414 729.31 52.6404 747.861 49.9964L747.991 51.0374C746.135 51.3024 744.252 51.4884 742.342 51.6014Z" fill="#00B0C7"/>
</g>
<mask id="mask23_227:518" style="mask-type:alpha" maskUnits="userSpaceOnUse" x="499" y="39" width="232" height="16">
<path fill-rule="evenodd" clip-rule="evenodd" d="M499.812 39.6943H730.583V54.1701H499.812V39.6943Z" fill="white"/>
</mask>
<g mask="url(#mask23_227:518)">
<path fill-rule="evenodd" clip-rule="evenodd" d="M757.805 60.6284C740.462 61.6574 720.967 56.7454 700.447 51.5744C674.805 45.1114 648.284 38.4324 621.326 41.5244C594.417 44.6224 569.14 53.9854 546.838 62.2454C528.426 69.0654 512.519 74.9574 499.929 75.7044C499.91 75.7054 499.892 75.7064 499.872 75.7074L499.812 74.6584C499.83 74.6574 499.85 74.6564 499.867 74.6554C512.335 73.9154 528.184 68.0444 546.535 61.2474C568.882 52.9704 594.209 43.5894 621.218 40.4784C648.34 37.3714 674.924 44.0694 700.637 50.5494C723.335 56.2694 744.779 61.6684 763.323 59.0234L763.453 60.0644C761.598 60.3294 759.714 60.5154 757.805 60.6284Z" fill="#00B0C7"/>
</g>
<mask id="mask24_227:518" style="mask-type:alpha" maskUnits="userSpaceOnUse" x="515" y="48" width="216" height="7">
<path fill-rule="evenodd" clip-rule="evenodd" d="M515.271 48.7231H730.582V54.1702H515.271V48.7231Z" fill="white"/>
</mask>
<g mask="url(#mask24_227:518)">
<path fill-rule="evenodd" clip-rule="evenodd" d="M773.266 69.6573C755.923 70.6873 736.429 65.7753 715.907 60.6033C690.264 54.1403 663.748 47.4603 636.785 50.5513C609.873 53.6493 584.594 63.0133 562.291 71.2753C543.88 78.0953 527.974 83.9873 515.385 84.7343C515.367 84.7353 515.351 84.7363 515.333 84.7373L515.271 83.6883C515.289 83.6873 515.306 83.6863 515.323 83.6853C527.789 82.9463 543.64 77.0743 561.989 70.2773C584.336 61.9983 609.666 52.6153 636.677 49.5053C663.792 46.4033 690.382 53.0983 716.097 59.5773C738.794 65.2973 760.227 70.7023 778.781 68.0523L778.91 69.0953C777.057 69.3593 775.173 69.5443 773.266 69.6573Z" fill="#00B0C7"/>
</g>
</g>
<path d="M442.126 30.118C441.844 30.442 441.496 30.7 441.082 30.892C440.668 31.078 440.191 31.171 439.651 31.171C439.159 31.171 438.703 31.09 438.283 30.928C437.869 30.766 437.509 30.538 437.203 30.244C436.897 29.944 436.657 29.587 436.483 29.173C436.309 28.759 436.222 28.303 436.222 27.805C436.222 27.295 436.309 26.833 436.483 26.419C436.663 26.005 436.909 25.654 437.221 25.366C437.533 25.072 437.899 24.847 438.319 24.691C438.739 24.535 439.192 24.457 439.678 24.457C440.128 24.457 440.569 24.538 441.001 24.7C441.439 24.856 441.793 25.087 442.063 25.393L441.019 26.437C440.875 26.239 440.686 26.092 440.452 25.996C440.218 25.9 439.978 25.852 439.732 25.852C439.462 25.852 439.213 25.903 438.985 26.005C438.763 26.101 438.571 26.236 438.409 26.41C438.247 26.584 438.121 26.791 438.031 27.031C437.941 27.265 437.896 27.523 437.896 27.805C437.896 28.093 437.941 28.357 438.031 28.597C438.121 28.837 438.244 29.044 438.4 29.218C438.562 29.386 438.754 29.518 438.976 29.614C439.198 29.71 439.441 29.758 439.705 29.758C440.011 29.758 440.278 29.698 440.506 29.578C440.734 29.458 440.917 29.302 441.055 29.11L442.126 30.118ZM447.351 28.741C447.351 29.107 447.285 29.44 447.153 29.74C447.021 30.034 446.841 30.286 446.613 30.496C446.385 30.7 446.121 30.859 445.821 30.973C445.521 31.087 445.2 31.144 444.858 31.144C444.522 31.144 444.201 31.087 443.895 30.973C443.595 30.859 443.331 30.7 443.103 30.496C442.881 30.286 442.704 30.034 442.572 29.74C442.44 29.44 442.374 29.107 442.374 28.741C442.374 28.375 442.44 28.045 442.572 27.751C442.704 27.457 442.881 27.208 443.103 27.004C443.331 26.8 443.595 26.644 443.895 26.536C444.201 26.428 444.522 26.374 444.858 26.374C445.2 26.374 445.521 26.428 445.821 26.536C446.121 26.644 446.385 26.8 446.613 27.004C446.841 27.208 447.021 27.457 447.153 27.751C447.285 28.045 447.351 28.375 447.351 28.741ZM445.929 28.741C445.929 28.597 445.905 28.456 445.857 28.318C445.809 28.18 445.74 28.06 445.65 27.958C445.56 27.85 445.449 27.763 445.317 27.697C445.185 27.631 445.032 27.598 444.858 27.598C444.684 27.598 444.531 27.631 444.399 27.697C444.267 27.763 444.156 27.85 444.066 27.958C443.982 28.06 443.916 28.18 443.868 28.318C443.826 28.456 443.805 28.597 443.805 28.741C443.805 28.885 443.826 29.026 443.868 29.164C443.916 29.302 443.985 29.428 444.075 29.542C444.165 29.65 444.276 29.737 444.408 29.803C444.54 29.869 444.693 29.902 444.867 29.902C445.041 29.902 445.194 29.869 445.326 29.803C445.458 29.737 445.569 29.65 445.659 29.542C445.749 29.428 445.815 29.302 445.857 29.164C445.905 29.026 445.929 28.885 445.929 28.741ZM451.229 31V28.552C451.229 28.426 451.217 28.306 451.193 28.192C451.175 28.078 451.142 27.979 451.094 27.895C451.046 27.805 450.977 27.736 450.887 27.688C450.803 27.634 450.695 27.607 450.563 27.607C450.431 27.607 450.314 27.634 450.212 27.688C450.116 27.736 450.035 27.805 449.969 27.895C449.903 27.985 449.852 28.09 449.816 28.21C449.786 28.324 449.771 28.444 449.771 28.57V31H448.286V26.518H449.717V27.139H449.735C449.789 27.043 449.858 26.95 449.942 26.86C450.032 26.764 450.134 26.683 450.248 26.617C450.368 26.551 450.497 26.497 450.635 26.455C450.773 26.413 450.92 26.392 451.076 26.392C451.376 26.392 451.631 26.446 451.841 26.554C452.051 26.662 452.219 26.803 452.345 26.977C452.477 27.145 452.57 27.34 452.624 27.562C452.684 27.784 452.714 28.006 452.714 28.228V31H451.229ZM455.434 27.625V29.335C455.434 29.545 455.473 29.704 455.551 29.812C455.635 29.914 455.782 29.965 455.992 29.965C456.064 29.965 456.139 29.959 456.217 29.947C456.301 29.935 456.37 29.917 456.424 29.893L456.442 30.973C456.34 31.009 456.211 31.039 456.055 31.063C455.899 31.093 455.743 31.108 455.587 31.108C455.287 31.108 455.035 31.072 454.831 31C454.627 30.922 454.462 30.814 454.336 30.676C454.216 30.532 454.129 30.364 454.075 30.172C454.021 29.974 453.994 29.755 453.994 29.515V27.625H453.274V26.518H453.985V25.339H455.434V26.518H456.487V27.625H455.434ZM460.087 27.724C460.021 27.706 459.955 27.694 459.889 27.688C459.829 27.682 459.769 27.679 459.709 27.679C459.511 27.679 459.343 27.715 459.205 27.787C459.073 27.859 458.965 27.946 458.881 28.048C458.803 28.15 458.746 28.261 458.71 28.381C458.674 28.501 458.656 28.606 458.656 28.696V31H457.18V26.518H458.602V27.166H458.62C458.734 26.938 458.896 26.752 459.106 26.608C459.316 26.464 459.559 26.392 459.835 26.392C459.895 26.392 459.952 26.395 460.006 26.401C460.066 26.407 460.114 26.416 460.15 26.428L460.087 27.724ZM463.254 29.047H463.065C462.903 29.047 462.738 29.056 462.57 29.074C462.408 29.086 462.261 29.113 462.129 29.155C462.003 29.197 461.898 29.26 461.814 29.344C461.73 29.422 461.688 29.527 461.688 29.659C461.688 29.743 461.706 29.815 461.742 29.875C461.784 29.935 461.835 29.983 461.895 30.019C461.955 30.055 462.024 30.082 462.102 30.1C462.18 30.112 462.255 30.118 462.327 30.118C462.627 30.118 462.855 30.037 463.011 29.875C463.173 29.707 463.254 29.482 463.254 29.2V29.047ZM460.545 27.13C460.809 26.878 461.115 26.689 461.463 26.563C461.817 26.437 462.177 26.374 462.543 26.374C462.921 26.374 463.239 26.422 463.497 26.518C463.761 26.608 463.974 26.752 464.136 26.95C464.298 27.142 464.415 27.388 464.487 27.688C464.565 27.982 464.604 28.333 464.604 28.741V31H463.254V30.523H463.227C463.113 30.709 462.939 30.853 462.705 30.955C462.477 31.057 462.228 31.108 461.958 31.108C461.778 31.108 461.592 31.084 461.4 31.036C461.208 30.988 461.031 30.91 460.869 30.802C460.713 30.694 460.584 30.55 460.482 30.37C460.38 30.19 460.329 29.968 460.329 29.704C460.329 29.38 460.416 29.119 460.59 28.921C460.77 28.723 460.998 28.57 461.274 28.462C461.556 28.354 461.868 28.282 462.21 28.246C462.552 28.21 462.885 28.192 463.209 28.192V28.12C463.209 27.898 463.131 27.736 462.975 27.634C462.819 27.526 462.627 27.472 462.399 27.472C462.189 27.472 461.985 27.517 461.787 27.607C461.595 27.697 461.43 27.805 461.292 27.931L460.545 27.13ZM468.793 27.967C468.709 27.859 468.595 27.772 468.451 27.706C468.307 27.64 468.16 27.607 468.01 27.607C467.854 27.607 467.713 27.64 467.587 27.706C467.461 27.766 467.353 27.85 467.263 27.958C467.173 28.06 467.101 28.18 467.047 28.318C466.999 28.456 466.975 28.603 466.975 28.759C466.975 28.915 466.999 29.062 467.047 29.2C467.095 29.338 467.164 29.461 467.254 29.569C467.35 29.671 467.461 29.752 467.587 29.812C467.719 29.872 467.866 29.902 468.028 29.902C468.178 29.902 468.325 29.875 468.469 29.821C468.619 29.761 468.739 29.677 468.829 29.569L469.648 30.568C469.462 30.748 469.222 30.889 468.928 30.991C468.634 31.093 468.322 31.144 467.992 31.144C467.638 31.144 467.308 31.09 467.002 30.982C466.696 30.874 466.429 30.718 466.201 30.514C465.979 30.304 465.802 30.052 465.67 29.758C465.544 29.464 465.481 29.131 465.481 28.759C465.481 28.393 465.544 28.063 465.67 27.769C465.802 27.475 465.979 27.226 466.201 27.022C466.429 26.812 466.696 26.653 467.002 26.545C467.308 26.431 467.635 26.374 467.983 26.374C468.145 26.374 468.304 26.389 468.46 26.419C468.622 26.449 468.775 26.491 468.919 26.545C469.069 26.593 469.204 26.656 469.324 26.734C469.45 26.806 469.558 26.887 469.648 26.977L468.793 27.967ZM471.834 27.625V29.335C471.834 29.545 471.873 29.704 471.951 29.812C472.035 29.914 472.182 29.965 472.392 29.965C472.464 29.965 472.539 29.959 472.617 29.947C472.701 29.935 472.77 29.917 472.824 29.893L472.842 30.973C472.74 31.009 472.611 31.039 472.455 31.063C472.299 31.093 472.143 31.108 471.987 31.108C471.687 31.108 471.435 31.072 471.231 31C471.027 30.922 470.862 30.814 470.736 30.676C470.616 30.532 470.529 30.364 470.475 30.172C470.421 29.974 470.394 29.755 470.394 29.515V27.625H469.674V26.518H470.385V25.339H471.834V26.518H472.887V27.625H471.834ZM479.278 26.284C479.146 26.116 478.972 25.984 478.756 25.888C478.546 25.786 478.342 25.735 478.144 25.735C478.042 25.735 477.937 25.744 477.829 25.762C477.727 25.78 477.634 25.816 477.55 25.87C477.466 25.918 477.394 25.984 477.334 26.068C477.28 26.146 477.253 26.248 477.253 26.374C477.253 26.482 477.274 26.572 477.316 26.644C477.364 26.716 477.43 26.779 477.514 26.833C477.604 26.887 477.709 26.938 477.829 26.986C477.949 27.028 478.084 27.073 478.234 27.121C478.45 27.193 478.675 27.274 478.909 27.364C479.143 27.448 479.356 27.562 479.548 27.706C479.74 27.85 479.899 28.03 480.025 28.246C480.151 28.456 480.214 28.72 480.214 29.038C480.214 29.404 480.145 29.722 480.007 29.992C479.875 30.256 479.695 30.475 479.467 30.649C479.239 30.823 478.978 30.952 478.684 31.036C478.39 31.12 478.087 31.162 477.775 31.162C477.319 31.162 476.878 31.084 476.452 30.928C476.026 30.766 475.672 30.538 475.39 30.244L476.398 29.218C476.554 29.41 476.758 29.572 477.01 29.704C477.268 29.83 477.523 29.893 477.775 29.893C477.889 29.893 478 29.881 478.108 29.857C478.216 29.833 478.309 29.794 478.387 29.74C478.471 29.686 478.537 29.614 478.585 29.524C478.633 29.434 478.657 29.326 478.657 29.2C478.657 29.08 478.627 28.978 478.567 28.894C478.507 28.81 478.42 28.735 478.306 28.669C478.198 28.597 478.06 28.534 477.892 28.48C477.73 28.42 477.544 28.357 477.334 28.291C477.13 28.225 476.929 28.147 476.731 28.057C476.539 27.967 476.365 27.853 476.209 27.715C476.059 27.571 475.936 27.4 475.84 27.202C475.75 26.998 475.705 26.752 475.705 26.464C475.705 26.11 475.777 25.807 475.921 25.555C476.065 25.303 476.254 25.096 476.488 24.934C476.722 24.772 476.986 24.655 477.28 24.583C477.574 24.505 477.871 24.466 478.171 24.466C478.531 24.466 478.897 24.532 479.269 24.664C479.647 24.796 479.977 24.991 480.259 25.249L479.278 26.284ZM482.698 27.625V29.335C482.698 29.545 482.737 29.704 482.815 29.812C482.899 29.914 483.046 29.965 483.256 29.965C483.328 29.965 483.403 29.959 483.481 29.947C483.565 29.935 483.634 29.917 483.688 29.893L483.706 30.973C483.604 31.009 483.475 31.039 483.319 31.063C483.163 31.093 483.007 31.108 482.851 31.108C482.551 31.108 482.299 31.072 482.095 31C481.891 30.922 481.726 30.814 481.6 30.676C481.48 30.532 481.393 30.364 481.339 30.172C481.285 29.974 481.258 29.755 481.258 29.515V27.625H480.538V26.518H481.249V25.339H482.698V26.518H483.751V27.625H482.698ZM487.09 29.047H486.901C486.739 29.047 486.574 29.056 486.406 29.074C486.244 29.086 486.097 29.113 485.965 29.155C485.839 29.197 485.734 29.26 485.65 29.344C485.566 29.422 485.524 29.527 485.524 29.659C485.524 29.743 485.542 29.815 485.578 29.875C485.62 29.935 485.671 29.983 485.731 30.019C485.791 30.055 485.86 30.082 485.938 30.1C486.016 30.112 486.091 30.118 486.163 30.118C486.463 30.118 486.691 30.037 486.847 29.875C487.009 29.707 487.09 29.482 487.09 29.2V29.047ZM484.381 27.13C484.645 26.878 484.951 26.689 485.299 26.563C485.653 26.437 486.013 26.374 486.379 26.374C486.757 26.374 487.075 26.422 487.333 26.518C487.597 26.608 487.81 26.752 487.972 26.95C488.134 27.142 488.251 27.388 488.323 27.688C488.401 27.982 488.44 28.333 488.44 28.741V31H487.09V30.523H487.063C486.949 30.709 486.775 30.853 486.541 30.955C486.313 31.057 486.064 31.108 485.794 31.108C485.614 31.108 485.428 31.084 485.236 31.036C485.044 30.988 484.867 30.91 484.705 30.802C484.549 30.694 484.42 30.55 484.318 30.37C484.216 30.19 484.165 29.968 484.165 29.704C484.165 29.38 484.252 29.119 484.426 28.921C484.606 28.723 484.834 28.57 485.11 28.462C485.392 28.354 485.704 28.282 486.046 28.246C486.388 28.21 486.721 28.192 487.045 28.192V28.12C487.045 27.898 486.967 27.736 486.811 27.634C486.655 27.526 486.463 27.472 486.235 27.472C486.025 27.472 485.821 27.517 485.623 27.607C485.431 27.697 485.266 27.805 485.128 27.931L484.381 27.13ZM491.056 27.625V29.335C491.056 29.545 491.095 29.704 491.173 29.812C491.257 29.914 491.404 29.965 491.614 29.965C491.686 29.965 491.761 29.959 491.839 29.947C491.923 29.935 491.992 29.917 492.046 29.893L492.064 30.973C491.962 31.009 491.833 31.039 491.677 31.063C491.521 31.093 491.365 31.108 491.209 31.108C490.909 31.108 490.657 31.072 490.453 31C490.249 30.922 490.084 30.814 489.958 30.676C489.838 30.532 489.751 30.364 489.697 30.172C489.643 29.974 489.616 29.755 489.616 29.515V27.625H488.896V26.518H489.607V25.339H491.056V26.518H492.109V27.625H491.056ZM495.755 31V30.379H495.737C495.683 30.481 495.611 30.577 495.521 30.667C495.437 30.757 495.335 30.835 495.215 30.901C495.101 30.967 494.972 31.021 494.828 31.063C494.69 31.105 494.543 31.126 494.387 31.126C494.087 31.126 493.832 31.072 493.622 30.964C493.418 30.856 493.25 30.718 493.118 30.55C492.992 30.376 492.899 30.181 492.839 29.965C492.785 29.743 492.758 29.518 492.758 29.29V26.518H494.243V28.948C494.243 29.074 494.252 29.194 494.27 29.308C494.288 29.422 494.321 29.524 494.369 29.614C494.423 29.704 494.492 29.776 494.576 29.83C494.66 29.878 494.771 29.902 494.909 29.902C495.167 29.902 495.362 29.806 495.494 29.614C495.632 29.422 495.701 29.197 495.701 28.939V26.518H497.177V31H495.755ZM500.968 27.841C500.848 27.727 500.707 27.631 500.545 27.553C500.383 27.475 500.212 27.436 500.032 27.436C499.894 27.436 499.765 27.463 499.645 27.517C499.531 27.571 499.474 27.664 499.474 27.796C499.474 27.922 499.537 28.012 499.663 28.066C499.795 28.12 500.005 28.18 500.293 28.246C500.461 28.282 500.629 28.333 500.797 28.399C500.971 28.465 501.127 28.552 501.265 28.66C501.403 28.768 501.514 28.9 501.598 29.056C501.682 29.212 501.724 29.398 501.724 29.614C501.724 29.896 501.667 30.136 501.553 30.334C501.439 30.526 501.289 30.682 501.103 30.802C500.923 30.922 500.719 31.009 500.491 31.063C500.263 31.117 500.035 31.144 499.807 31.144C499.441 31.144 499.081 31.087 498.727 30.973C498.379 30.853 498.088 30.679 497.854 30.451L498.682 29.578C498.814 29.722 498.976 29.842 499.168 29.938C499.36 30.034 499.564 30.082 499.78 30.082C499.9 30.082 500.017 30.055 500.131 30.001C500.251 29.941 500.311 29.839 500.311 29.695C500.311 29.557 500.239 29.455 500.095 29.389C499.951 29.323 499.726 29.254 499.42 29.182C499.264 29.146 499.108 29.098 498.952 29.038C498.796 28.978 498.655 28.897 498.529 28.795C498.409 28.693 498.31 28.567 498.232 28.417C498.154 28.267 498.115 28.087 498.115 27.877C498.115 27.607 498.172 27.379 498.286 27.193C498.4 27.001 498.547 26.845 498.727 26.725C498.907 26.605 499.105 26.518 499.321 26.464C499.543 26.404 499.762 26.374 499.978 26.374C500.314 26.374 500.641 26.428 500.959 26.536C501.283 26.638 501.556 26.794 501.778 27.004L500.968 27.841Z" fill="white"/>
<path fill-rule="evenodd" clip-rule="evenodd" d="M31 27L17 34V20L31 27Z" fill="white"/>
<path d="M46.082 23.198V26.264H51.836V29.225H46.082V35H42.533V20.132H52.319V23.198H46.082ZM54.6326 35V20.132H58.2446V35H54.6326ZM70.7682 35L64.7832 25.277H64.7202L64.8042 35H61.3182V20.132H65.4132L71.3772 29.834H71.4402L71.3562 20.132H74.8422V35H70.7682ZM87.989 35L86.834 32.081H81.08L79.988 35H76.082L82.319 20.132H85.805L91.979 35H87.989ZM83.999 24.101L82.109 29.204H85.847L83.999 24.101ZM102.658 35L96.6728 25.277H96.6098L96.6938 35H93.2078V20.132H97.3028L103.267 29.834H103.33L103.246 20.132H106.732V35H102.658ZM122.882 32.942C122.224 33.698 121.412 34.3 120.446 34.748C119.48 35.182 118.367 35.399 117.107 35.399C115.959 35.399 114.895 35.21 113.915 34.832C112.949 34.454 112.109 33.922 111.395 33.236C110.681 32.536 110.121 31.703 109.715 30.737C109.309 29.771 109.106 28.707 109.106 27.545C109.106 26.355 109.309 25.277 109.715 24.311C110.135 23.345 110.709 22.526 111.437 21.854C112.165 21.168 113.019 20.643 113.999 20.279C114.979 19.915 116.036 19.733 117.17 19.733C118.22 19.733 119.249 19.922 120.257 20.3C121.279 20.664 122.105 21.203 122.735 21.917L120.299 24.353C119.963 23.891 119.522 23.548 118.976 23.324C118.43 23.1 117.87 22.988 117.296 22.988C116.666 22.988 116.085 23.107 115.553 23.345C115.035 23.569 114.587 23.884 114.209 24.29C113.831 24.696 113.537 25.179 113.327 25.739C113.117 26.285 113.012 26.887 113.012 27.545C113.012 28.217 113.117 28.833 113.327 29.393C113.537 29.953 113.824 30.436 114.188 30.842C114.566 31.234 115.014 31.542 115.532 31.766C116.05 31.99 116.617 32.102 117.233 32.102C117.947 32.102 118.57 31.962 119.102 31.682C119.634 31.402 120.061 31.038 120.383 30.59L122.882 32.942ZM124.421 35V20.132H128.033V35H124.421ZM140.556 35L134.571 25.277H134.508L134.592 35H131.106V20.132H135.201L141.165 29.834H141.228L141.144 20.132H144.63V35H140.556ZM160.906 34.097C160.178 34.475 159.324 34.783 158.344 35.021C157.378 35.259 156.321 35.378 155.173 35.378C153.983 35.378 152.884 35.189 151.876 34.811C150.882 34.433 150.021 33.901 149.293 33.215C148.579 32.529 148.019 31.71 147.613 30.758C147.207 29.792 147.004 28.721 147.004 27.545C147.004 26.355 147.207 25.277 147.613 24.311C148.033 23.345 148.607 22.526 149.335 21.854C150.063 21.168 150.917 20.643 151.897 20.279C152.877 19.915 153.934 19.733 155.068 19.733C156.244 19.733 157.336 19.915 158.344 20.279C159.352 20.629 160.171 21.105 160.801 21.707L158.533 24.29C158.183 23.884 157.721 23.555 157.147 23.303C156.573 23.037 155.922 22.904 155.194 22.904C154.564 22.904 153.983 23.023 153.451 23.261C152.919 23.485 152.457 23.807 152.065 24.227C151.673 24.633 151.365 25.123 151.141 25.697C150.931 26.257 150.826 26.873 150.826 27.545C150.826 28.231 150.924 28.861 151.12 29.435C151.316 30.009 151.603 30.506 151.981 30.926C152.373 31.332 152.849 31.654 153.409 31.892C153.983 32.116 154.634 32.228 155.362 32.228C155.782 32.228 156.181 32.2 156.559 32.144C156.937 32.074 157.287 31.969 157.609 31.829V29.12H154.774V26.222H160.906V34.097ZM182.17 32.942C181.512 33.698 180.7 34.3 179.734 34.748C178.768 35.182 177.655 35.399 176.395 35.399C175.247 35.399 174.183 35.21 173.203 34.832C172.237 34.454 171.397 33.922 170.683 33.236C169.969 32.536 169.409 31.703 169.003 30.737C168.597 29.771 168.394 28.707 168.394 27.545C168.394 26.355 168.597 25.277 169.003 24.311C169.423 23.345 169.997 22.526 170.725 21.854C171.453 21.168 172.307 20.643 173.287 20.279C174.267 19.915 175.324 19.733 176.458 19.733C177.508 19.733 178.537 19.922 179.545 20.3C180.567 20.664 181.393 21.203 182.023 21.917L179.587 24.353C179.251 23.891 178.81 23.548 178.264 23.324C177.718 23.1 177.158 22.988 176.584 22.988C175.954 22.988 175.373 23.107 174.841 23.345C174.323 23.569 173.875 23.884 173.497 24.29C173.119 24.696 172.825 25.179 172.615 25.739C172.405 26.285 172.3 26.887 172.3 27.545C172.3 28.217 172.405 28.833 172.615 29.393C172.825 29.953 173.112 30.436 173.476 30.842C173.854 31.234 174.302 31.542 174.82 31.766C175.338 31.99 175.905 32.102 176.521 32.102C177.235 32.102 177.858 31.962 178.39 31.682C178.922 31.402 179.349 31.038 179.671 30.59L182.17 32.942ZM198.961 27.503C198.961 28.679 198.758 29.757 198.352 30.737C197.946 31.703 197.379 32.536 196.651 33.236C195.937 33.922 195.083 34.454 194.089 34.832C193.095 35.21 192.017 35.399 190.855 35.399C189.693 35.399 188.615 35.21 187.621 34.832C186.641 34.454 185.787 33.922 185.059 33.236C184.345 32.536 183.785 31.703 183.379 30.737C182.973 29.757 182.77 28.679 182.77 27.503C182.77 26.313 182.973 25.242 183.379 24.29C183.785 23.324 184.345 22.505 185.059 21.833C185.787 21.161 186.641 20.643 187.621 20.279C188.615 19.915 189.693 19.733 190.855 19.733C192.017 19.733 193.095 19.915 194.089 20.279C195.083 20.643 195.937 21.161 196.651 21.833C197.379 22.505 197.946 23.324 198.352 24.29C198.758 25.242 198.961 26.313 198.961 27.503ZM195.118 27.503C195.118 26.859 195.013 26.257 194.803 25.697C194.593 25.137 194.299 24.661 193.921 24.269C193.557 23.863 193.109 23.548 192.577 23.324C192.059 23.086 191.485 22.967 190.855 22.967C190.225 22.967 189.651 23.086 189.133 23.324C188.615 23.548 188.167 23.863 187.789 24.269C187.411 24.661 187.117 25.137 186.907 25.697C186.711 26.257 186.613 26.859 186.613 27.503C186.613 28.175 186.718 28.798 186.928 29.372C187.138 29.932 187.425 30.415 187.789 30.821C188.167 31.227 188.615 31.549 189.133 31.787C189.651 32.011 190.225 32.123 190.855 32.123C191.485 32.123 192.059 32.011 192.577 31.787C193.095 31.549 193.543 31.227 193.921 30.821C194.299 30.415 194.593 29.932 194.803 29.372C195.013 28.798 195.118 28.175 195.118 27.503ZM210.775 35L204.79 25.277H204.727L204.811 35H201.325V20.132H205.42L211.384 29.834H211.447L211.363 20.132H214.849V35H210.775ZM224.279 23.198V35H220.688V23.198H216.488V20.132H228.479V23.198H224.279ZM238.077 35L234.864 29.099H233.646V35H230.118V20.132H235.788C236.502 20.132 237.195 20.209 237.867 20.363C238.553 20.503 239.162 20.748 239.694 21.098C240.24 21.448 240.674 21.91 240.996 22.484C241.318 23.058 241.479 23.772 241.479 24.626C241.479 25.634 241.206 26.481 240.66 27.167C240.114 27.853 239.358 28.343 238.392 28.637L242.277 35H238.077ZM237.93 24.689C237.93 24.339 237.853 24.059 237.699 23.849C237.559 23.625 237.37 23.457 237.132 23.345C236.908 23.219 236.649 23.135 236.355 23.093C236.075 23.051 235.802 23.03 235.536 23.03H233.625V26.495H235.326C235.62 26.495 235.921 26.474 236.229 26.432C236.537 26.376 236.817 26.285 237.069 26.159C237.321 26.033 237.524 25.851 237.678 25.613C237.846 25.375 237.93 25.067 237.93 24.689ZM254.123 35L252.968 32.081H247.214L246.122 35H242.216L248.453 20.132H251.939L258.113 35H254.123ZM250.133 24.101L248.243 29.204H251.981L250.133 24.101ZM272.055 32.942C271.397 33.698 270.585 34.3 269.619 34.748C268.653 35.182 267.54 35.399 266.28 35.399C265.132 35.399 264.068 35.21 263.088 34.832C262.122 34.454 261.282 33.922 260.568 33.236C259.854 32.536 259.294 31.703 258.888 30.737C258.482 29.771 258.279 28.707 258.279 27.545C258.279 26.355 258.482 25.277 258.888 24.311C259.308 23.345 259.882 22.526 260.61 21.854C261.338 21.168 262.192 20.643 263.172 20.279C264.152 19.915 265.209 19.733 266.343 19.733C267.393 19.733 268.422 19.922 269.43 20.3C270.452 20.664 271.278 21.203 271.908 21.917L269.472 24.353C269.136 23.891 268.695 23.548 268.149 23.324C267.603 23.1 267.043 22.988 266.469 22.988C265.839 22.988 265.258 23.107 264.726 23.345C264.208 23.569 263.76 23.884 263.382 24.29C263.004 24.696 262.71 25.179 262.5 25.739C262.29 26.285 262.185 26.887 262.185 27.545C262.185 28.217 262.29 28.833 262.5 29.393C262.71 29.953 262.997 30.436 263.361 30.842C263.739 31.234 264.187 31.542 264.705 31.766C265.223 31.99 265.79 32.102 266.406 32.102C267.12 32.102 267.743 31.962 268.275 31.682C268.807 31.402 269.234 31.038 269.556 30.59L272.055 32.942ZM279.834 23.198V35H276.243V23.198H272.043V20.132H284.034V23.198H279.834Z" fill="white"/>
<rect x="510" y="20" width="203" height="15" rx="7.5" fill="#676767" fill-opacity="0.692367"/>
<mask id="mask25_227:518" style="mask-type:alpha" maskUnits="userSpaceOnUse" x="510" y="20" width="203" height="15">
<rect x="510" y="20" width="203" height="15" rx="7.5" fill="white"/>
</mask>
<g mask="url(#mask25_227:518)">
<rect x="506" y="16" width="207" height="23" fill="#CDCDCD"/>
</g>
<path d="M645.5 13.5V42.5" stroke="white" stroke-dasharray="5 3"/>
<path d="M577.5 13.5V42.5" stroke="white" stroke-dasharray="5 3"/>
</svg>
