<svg width="429" height="53" viewBox="0 0 429 53" fill="none" xmlns="http://www.w3.org/2000/svg">
<rect width="429" height="53" rx="26.5" fill="#00B0C7"/>
<path d="M119.528 31.236C118.964 31.884 118.268 32.4 117.44 32.784C116.612 33.156 115.658 33.342 114.578 33.342C113.594 33.342 112.682 33.18 111.842 32.856C111.014 32.532 110.294 32.076 109.682 31.488C109.07 30.888 108.59 30.174 108.242 29.346C107.894 28.518 107.72 27.606 107.72 26.61C107.72 25.59 107.894 24.666 108.242 23.838C108.602 23.01 109.094 22.308 109.718 21.732C110.342 21.144 111.074 20.694 111.914 20.382C112.754 20.07 113.66 19.914 114.632 19.914C115.532 19.914 116.414 20.076 117.278 20.4C118.154 20.712 118.862 21.174 119.402 21.786L117.314 23.874C117.026 23.478 116.648 23.184 116.18 22.992C115.712 22.8 115.232 22.704 114.74 22.704C114.2 22.704 113.702 22.806 113.246 23.01C112.802 23.202 112.418 23.472 112.094 23.82C111.77 24.168 111.518 24.582 111.338 25.062C111.158 25.53 111.068 26.046 111.068 26.61C111.068 27.186 111.158 27.714 111.338 28.194C111.518 28.674 111.764 29.088 112.076 29.436C112.4 29.772 112.784 30.036 113.228 30.228C113.672 30.42 114.158 30.516 114.686 30.516C115.298 30.516 115.832 30.396 116.288 30.156C116.744 29.916 117.11 29.604 117.386 29.22L119.528 31.236ZM129.778 28.482C129.778 29.214 129.646 29.88 129.382 30.48C129.118 31.068 128.758 31.572 128.302 31.992C127.846 32.4 127.318 32.718 126.718 32.946C126.118 33.174 125.476 33.288 124.792 33.288C124.12 33.288 123.478 33.174 122.866 32.946C122.266 32.718 121.738 32.4 121.282 31.992C120.838 31.572 120.484 31.068 120.22 30.48C119.956 29.88 119.824 29.214 119.824 28.482C119.824 27.75 119.956 27.09 120.22 26.502C120.484 25.914 120.838 25.416 121.282 25.008C121.738 24.6 122.266 24.288 122.866 24.072C123.478 23.856 124.12 23.748 124.792 23.748C125.476 23.748 126.118 23.856 126.718 24.072C127.318 24.288 127.846 24.6 128.302 25.008C128.758 25.416 129.118 25.914 129.382 26.502C129.646 27.09 129.778 27.75 129.778 28.482ZM126.934 28.482C126.934 28.194 126.886 27.912 126.79 27.636C126.694 27.36 126.556 27.12 126.376 26.916C126.196 26.7 125.974 26.526 125.71 26.394C125.446 26.262 125.14 26.196 124.792 26.196C124.444 26.196 124.138 26.262 123.874 26.394C123.61 26.526 123.388 26.7 123.208 26.916C123.04 27.12 122.908 27.36 122.812 27.636C122.728 27.912 122.686 28.194 122.686 28.482C122.686 28.77 122.728 29.052 122.812 29.328C122.908 29.604 123.046 29.856 123.226 30.084C123.406 30.3 123.628 30.474 123.892 30.606C124.156 30.738 124.462 30.804 124.81 30.804C125.158 30.804 125.464 30.738 125.728 30.606C125.992 30.474 126.214 30.3 126.394 30.084C126.574 29.856 126.706 29.604 126.79 29.328C126.886 29.052 126.934 28.77 126.934 28.482ZM142.895 33V28.104C142.895 27.852 142.877 27.612 142.841 27.384C142.805 27.144 142.739 26.94 142.643 26.772C142.547 26.604 142.415 26.472 142.247 26.376C142.091 26.268 141.881 26.214 141.617 26.214C141.365 26.214 141.143 26.268 140.951 26.376C140.771 26.484 140.615 26.628 140.483 26.808C140.363 26.988 140.273 27.198 140.213 27.438C140.153 27.666 140.123 27.906 140.123 28.158V33H137.171V27.888C137.171 27.372 137.069 26.964 136.865 26.664C136.661 26.364 136.337 26.214 135.893 26.214C135.425 26.214 135.059 26.4 134.795 26.772C134.543 27.144 134.417 27.6 134.417 28.14V33H131.447V24.036H134.309V25.278H134.345C134.453 25.086 134.585 24.9 134.741 24.72C134.909 24.54 135.107 24.384 135.335 24.252C135.563 24.108 135.815 23.994 136.091 23.91C136.379 23.826 136.691 23.784 137.027 23.784C137.675 23.784 138.221 23.916 138.665 24.18C139.121 24.444 139.475 24.822 139.727 25.314C140.027 24.846 140.411 24.474 140.879 24.198C141.347 23.922 141.917 23.784 142.589 23.784C143.201 23.784 143.711 23.898 144.119 24.126C144.539 24.342 144.875 24.63 145.127 24.99C145.379 25.338 145.559 25.734 145.667 26.178C145.787 26.61 145.847 27.036 145.847 27.456V33H142.895ZM157.848 28.482C157.848 29.106 157.752 29.706 157.56 30.282C157.368 30.858 157.086 31.368 156.714 31.812C156.354 32.244 155.91 32.592 155.382 32.856C154.854 33.12 154.254 33.252 153.582 33.252C153.03 33.252 152.508 33.144 152.016 32.928C151.524 32.7 151.14 32.394 150.864 32.01H150.828V37.32H147.876V24.036H150.684V25.134H150.738C151.014 24.774 151.392 24.462 151.872 24.198C152.364 23.922 152.94 23.784 153.6 23.784C154.248 23.784 154.836 23.91 155.364 24.162C155.892 24.414 156.336 24.756 156.696 25.188C157.068 25.62 157.35 26.124 157.542 26.7C157.746 27.264 157.848 27.858 157.848 28.482ZM154.986 28.482C154.986 28.194 154.938 27.912 154.842 27.636C154.758 27.36 154.626 27.12 154.446 26.916C154.278 26.7 154.062 26.526 153.798 26.394C153.534 26.262 153.228 26.196 152.88 26.196C152.544 26.196 152.244 26.262 151.98 26.394C151.716 26.526 151.488 26.7 151.296 26.916C151.116 27.132 150.972 27.378 150.864 27.654C150.768 27.93 150.72 28.212 150.72 28.5C150.72 28.788 150.768 29.07 150.864 29.346C150.972 29.622 151.116 29.868 151.296 30.084C151.488 30.3 151.716 30.474 151.98 30.606C152.244 30.738 152.544 30.804 152.88 30.804C153.228 30.804 153.534 30.738 153.798 30.606C154.062 30.474 154.278 30.3 154.446 30.084C154.626 29.868 154.758 29.622 154.842 29.346C154.938 29.058 154.986 28.77 154.986 28.482ZM159.542 33V19.392H162.53V33H159.542ZM170.842 27.492C170.842 27.024 170.692 26.622 170.392 26.286C170.104 25.95 169.666 25.782 169.078 25.782C168.79 25.782 168.526 25.83 168.286 25.926C168.046 26.01 167.836 26.13 167.656 26.286C167.476 26.442 167.332 26.628 167.224 26.844C167.116 27.048 167.056 27.264 167.044 27.492H170.842ZM173.56 28.626C173.56 28.746 173.56 28.866 173.56 28.986C173.56 29.106 173.554 29.22 173.542 29.328H167.044C167.068 29.58 167.14 29.808 167.26 30.012C167.392 30.216 167.554 30.396 167.746 30.552C167.95 30.696 168.172 30.81 168.412 30.894C168.664 30.978 168.922 31.02 169.186 31.02C169.654 31.02 170.05 30.936 170.374 30.768C170.698 30.588 170.962 30.36 171.166 30.084L173.218 31.38C172.798 31.992 172.24 32.466 171.544 32.802C170.86 33.126 170.062 33.288 169.15 33.288C168.478 33.288 167.842 33.186 167.242 32.982C166.642 32.766 166.114 32.46 165.658 32.064C165.214 31.656 164.86 31.158 164.596 30.57C164.344 29.982 164.218 29.31 164.218 28.554C164.218 27.822 164.344 27.162 164.596 26.574C164.848 25.974 165.19 25.47 165.622 25.062C166.054 24.642 166.564 24.318 167.152 24.09C167.74 23.862 168.376 23.748 169.06 23.748C169.72 23.748 170.326 23.862 170.878 24.09C171.43 24.306 171.904 24.624 172.3 25.044C172.696 25.464 173.002 25.974 173.218 26.574C173.446 27.174 173.56 27.858 173.56 28.626ZM178.394 26.25V29.67C178.394 30.09 178.472 30.408 178.628 30.624C178.796 30.828 179.09 30.93 179.51 30.93C179.654 30.93 179.804 30.918 179.96 30.894C180.128 30.87 180.266 30.834 180.374 30.786L180.41 32.946C180.206 33.018 179.948 33.078 179.636 33.126C179.324 33.186 179.012 33.216 178.7 33.216C178.1 33.216 177.596 33.144 177.188 33C176.78 32.844 176.45 32.628 176.198 32.352C175.958 32.064 175.784 31.728 175.676 31.344C175.568 30.948 175.514 30.51 175.514 30.03V26.25H174.074V24.036H175.496V21.678H178.394V24.036H180.5V26.25H178.394ZM187.862 27.492C187.862 27.024 187.712 26.622 187.412 26.286C187.124 25.95 186.686 25.782 186.098 25.782C185.81 25.782 185.546 25.83 185.306 25.926C185.066 26.01 184.856 26.13 184.676 26.286C184.496 26.442 184.352 26.628 184.244 26.844C184.136 27.048 184.076 27.264 184.064 27.492H187.862ZM190.58 28.626C190.58 28.746 190.58 28.866 190.58 28.986C190.58 29.106 190.574 29.22 190.562 29.328H184.064C184.088 29.58 184.16 29.808 184.28 30.012C184.412 30.216 184.574 30.396 184.766 30.552C184.97 30.696 185.192 30.81 185.432 30.894C185.684 30.978 185.942 31.02 186.206 31.02C186.674 31.02 187.07 30.936 187.394 30.768C187.718 30.588 187.982 30.36 188.186 30.084L190.238 31.38C189.818 31.992 189.26 32.466 188.564 32.802C187.88 33.126 187.082 33.288 186.17 33.288C185.498 33.288 184.862 33.186 184.262 32.982C183.662 32.766 183.134 32.46 182.678 32.064C182.234 31.656 181.88 31.158 181.616 30.57C181.364 29.982 181.238 29.31 181.238 28.554C181.238 27.822 181.364 27.162 181.616 26.574C181.868 25.974 182.21 25.47 182.642 25.062C183.074 24.642 183.584 24.318 184.172 24.09C184.76 23.862 185.396 23.748 186.08 23.748C186.74 23.748 187.346 23.862 187.898 24.09C188.45 24.306 188.924 24.624 189.32 25.044C189.716 25.464 190.022 25.974 190.238 26.574C190.466 27.174 190.58 27.858 190.58 28.626ZM206.356 21.174C206.356 21.402 206.308 21.618 206.212 21.822C206.128 22.014 206.008 22.182 205.852 22.326C205.696 22.47 205.516 22.584 205.312 22.668C205.108 22.752 204.892 22.794 204.664 22.794C204.184 22.794 203.782 22.638 203.458 22.326C203.134 22.002 202.972 21.618 202.972 21.174C202.972 20.958 203.014 20.754 203.098 20.562C203.182 20.358 203.302 20.184 203.458 20.04C203.614 19.896 203.794 19.782 203.998 19.698C204.202 19.602 204.424 19.554 204.664 19.554C204.892 19.554 205.108 19.596 205.312 19.68C205.516 19.764 205.696 19.878 205.852 20.022C206.008 20.166 206.128 20.34 206.212 20.544C206.308 20.736 206.356 20.946 206.356 21.174ZM203.17 33V24.036H206.14V33H203.17ZM202.072 21.57C201.964 21.534 201.838 21.504 201.694 21.48C201.55 21.456 201.406 21.444 201.262 21.444C200.986 21.444 200.764 21.492 200.596 21.588C200.428 21.684 200.296 21.816 200.2 21.984C200.104 22.14 200.038 22.32 200.002 22.524C199.966 22.728 199.948 22.932 199.948 23.136V24.036H201.946V26.25H199.948V33H196.996V26.25H195.358V24.036H196.996V23.172C196.996 22.62 197.056 22.098 197.176 21.606C197.296 21.102 197.5 20.664 197.788 20.292C198.088 19.908 198.484 19.608 198.976 19.392C199.48 19.164 200.104 19.05 200.848 19.05C201.1 19.05 201.346 19.068 201.586 19.104C201.838 19.128 202.066 19.17 202.27 19.23L202.072 21.57ZM214.167 33V28.104C214.167 27.852 214.143 27.612 214.095 27.384C214.059 27.156 213.993 26.958 213.897 26.79C213.801 26.61 213.663 26.472 213.483 26.376C213.315 26.268 213.099 26.214 212.835 26.214C212.571 26.214 212.337 26.268 212.133 26.376C211.941 26.472 211.779 26.61 211.647 26.79C211.515 26.97 211.413 27.18 211.341 27.42C211.281 27.648 211.251 27.888 211.251 28.14V33H208.281V24.036H211.143V25.278H211.179C211.287 25.086 211.425 24.9 211.593 24.72C211.773 24.528 211.977 24.366 212.205 24.234C212.445 24.102 212.703 23.994 212.979 23.91C213.255 23.826 213.549 23.784 213.861 23.784C214.461 23.784 214.971 23.892 215.391 24.108C215.811 24.324 216.147 24.606 216.399 24.954C216.663 25.29 216.849 25.68 216.957 26.124C217.077 26.568 217.137 27.012 217.137 27.456V33H214.167ZM224.465 29.094H224.087C223.763 29.094 223.433 29.112 223.097 29.148C222.773 29.172 222.479 29.226 222.215 29.31C221.963 29.394 221.753 29.52 221.585 29.688C221.417 29.844 221.333 30.054 221.333 30.318C221.333 30.486 221.369 30.63 221.441 30.75C221.525 30.87 221.627 30.966 221.747 31.038C221.867 31.11 222.005 31.164 222.161 31.2C222.317 31.224 222.467 31.236 222.611 31.236C223.211 31.236 223.667 31.074 223.979 30.75C224.303 30.414 224.465 29.964 224.465 29.4V29.094ZM219.047 25.26C219.575 24.756 220.187 24.378 220.883 24.126C221.591 23.874 222.311 23.748 223.043 23.748C223.799 23.748 224.435 23.844 224.951 24.036C225.479 24.216 225.905 24.504 226.229 24.9C226.553 25.284 226.787 25.776 226.931 26.376C227.087 26.964 227.165 27.666 227.165 28.482V33H224.465V32.046H224.411C224.183 32.418 223.835 32.706 223.367 32.91C222.911 33.114 222.413 33.216 221.873 33.216C221.513 33.216 221.141 33.168 220.757 33.072C220.373 32.976 220.019 32.82 219.695 32.604C219.383 32.388 219.125 32.1 218.921 31.74C218.717 31.38 218.615 30.936 218.615 30.408C218.615 29.76 218.789 29.238 219.137 28.842C219.497 28.446 219.953 28.14 220.505 27.924C221.069 27.708 221.693 27.564 222.377 27.492C223.061 27.42 223.727 27.384 224.375 27.384V27.24C224.375 26.796 224.219 26.472 223.907 26.268C223.595 26.052 223.211 25.944 222.755 25.944C222.335 25.944 221.927 26.034 221.531 26.214C221.147 26.394 220.817 26.61 220.541 26.862L219.047 25.26ZM235.054 33V28.104C235.054 27.852 235.03 27.612 234.982 27.384C234.946 27.156 234.88 26.958 234.784 26.79C234.688 26.61 234.55 26.472 234.37 26.376C234.202 26.268 233.986 26.214 233.722 26.214C233.458 26.214 233.224 26.268 233.02 26.376C232.828 26.472 232.666 26.61 232.534 26.79C232.402 26.97 232.3 27.18 232.228 27.42C232.168 27.648 232.138 27.888 232.138 28.14V33H229.168V24.036H232.03V25.278H232.066C232.174 25.086 232.312 24.9 232.48 24.72C232.66 24.528 232.864 24.366 233.092 24.234C233.332 24.102 233.59 23.994 233.866 23.91C234.142 23.826 234.436 23.784 234.748 23.784C235.348 23.784 235.858 23.892 236.278 24.108C236.698 24.324 237.034 24.606 237.286 24.954C237.55 25.29 237.736 25.68 237.844 26.124C237.964 26.568 238.024 27.012 238.024 27.456V33H235.054ZM246.234 26.934C246.066 26.718 245.838 26.544 245.55 26.412C245.262 26.28 244.968 26.214 244.668 26.214C244.356 26.214 244.074 26.28 243.822 26.412C243.57 26.532 243.354 26.7 243.174 26.916C242.994 27.12 242.85 27.36 242.742 27.636C242.646 27.912 242.598 28.206 242.598 28.518C242.598 28.83 242.646 29.124 242.742 29.4C242.838 29.676 242.976 29.922 243.156 30.138C243.348 30.342 243.57 30.504 243.822 30.624C244.086 30.744 244.38 30.804 244.704 30.804C245.004 30.804 245.298 30.75 245.586 30.642C245.886 30.522 246.126 30.354 246.306 30.138L247.944 32.136C247.572 32.496 247.092 32.778 246.504 32.982C245.916 33.186 245.292 33.288 244.632 33.288C243.924 33.288 243.264 33.18 242.652 32.964C242.04 32.748 241.506 32.436 241.05 32.028C240.606 31.608 240.252 31.104 239.988 30.516C239.736 29.928 239.61 29.262 239.61 28.518C239.61 27.786 239.736 27.126 239.988 26.538C240.252 25.95 240.606 25.452 241.05 25.044C241.506 24.624 242.04 24.306 242.652 24.09C243.264 23.862 243.918 23.748 244.614 23.748C244.938 23.748 245.256 23.778 245.568 23.838C245.892 23.898 246.198 23.982 246.486 24.09C246.786 24.186 247.056 24.312 247.296 24.468C247.548 24.612 247.764 24.774 247.944 24.954L246.234 26.934ZM252.117 21.174C252.117 21.402 252.069 21.618 251.973 21.822C251.889 22.014 251.769 22.182 251.613 22.326C251.469 22.47 251.289 22.584 251.073 22.668C250.869 22.752 250.653 22.794 250.425 22.794C249.945 22.794 249.543 22.638 249.219 22.326C248.895 22.002 248.733 21.618 248.733 21.174C248.733 20.958 248.775 20.754 248.859 20.562C248.943 20.358 249.063 20.184 249.219 20.04C249.375 19.896 249.555 19.782 249.759 19.698C249.963 19.602 250.185 19.554 250.425 19.554C250.653 19.554 250.869 19.596 251.073 19.68C251.289 19.764 251.469 19.878 251.613 20.022C251.769 20.166 251.889 20.34 251.973 20.544C252.069 20.736 252.117 20.946 252.117 21.174ZM248.949 33V24.036H251.901V33H248.949ZM259.925 33V28.104C259.925 27.852 259.901 27.612 259.853 27.384C259.817 27.156 259.751 26.958 259.655 26.79C259.559 26.61 259.421 26.472 259.241 26.376C259.073 26.268 258.857 26.214 258.593 26.214C258.329 26.214 258.095 26.268 257.891 26.376C257.699 26.472 257.537 26.61 257.405 26.79C257.273 26.97 257.171 27.18 257.099 27.42C257.039 27.648 257.009 27.888 257.009 28.14V33H254.039V24.036H256.901V25.278H256.937C257.045 25.086 257.183 24.9 257.351 24.72C257.531 24.528 257.735 24.366 257.963 24.234C258.203 24.102 258.461 23.994 258.737 23.91C259.013 23.826 259.307 23.784 259.619 23.784C260.219 23.784 260.729 23.892 261.149 24.108C261.569 24.324 261.905 24.606 262.157 24.954C262.421 25.29 262.607 25.68 262.715 26.124C262.835 26.568 262.895 27.012 262.895 27.456V33H259.925ZM274.435 32.154C274.435 33.03 274.309 33.792 274.057 34.44C273.805 35.088 273.451 35.622 272.995 36.042C272.539 36.474 271.981 36.792 271.321 36.996C270.673 37.212 269.953 37.32 269.161 37.32C268.369 37.32 267.553 37.2 266.713 36.96C265.885 36.72 265.165 36.372 264.553 35.916L266.029 33.81C266.461 34.194 266.935 34.476 267.451 34.656C267.979 34.848 268.495 34.944 268.999 34.944C269.863 34.944 270.499 34.716 270.907 34.26C271.327 33.804 271.537 33.198 271.537 32.442V31.902H271.483C271.207 32.262 270.835 32.55 270.367 32.766C269.899 32.982 269.365 33.09 268.765 33.09C268.081 33.09 267.475 32.97 266.947 32.73C266.419 32.478 265.969 32.142 265.597 31.722C265.237 31.302 264.961 30.816 264.769 30.264C264.577 29.7 264.481 29.106 264.481 28.482C264.481 27.858 264.577 27.264 264.769 26.7C264.961 26.136 265.237 25.638 265.597 25.206C265.969 24.774 266.419 24.432 266.947 24.18C267.475 23.916 268.075 23.784 268.747 23.784C269.311 23.784 269.851 23.898 270.367 24.126C270.883 24.354 271.297 24.708 271.609 25.188H271.645V24.036H274.435V32.154ZM271.627 28.464C271.627 28.164 271.573 27.876 271.465 27.6C271.369 27.324 271.225 27.084 271.033 26.88C270.841 26.664 270.613 26.496 270.349 26.376C270.085 26.256 269.785 26.196 269.449 26.196C269.113 26.196 268.813 26.256 268.549 26.376C268.297 26.496 268.081 26.658 267.901 26.862C267.721 27.066 267.583 27.306 267.487 27.582C267.391 27.858 267.343 28.152 267.343 28.464C267.343 28.764 267.391 29.052 267.487 29.328C267.583 29.604 267.721 29.85 267.901 30.066C268.081 30.27 268.297 30.438 268.549 30.57C268.813 30.69 269.113 30.75 269.449 30.75C269.785 30.75 270.085 30.69 270.349 30.57C270.625 30.438 270.853 30.27 271.033 30.066C271.225 29.862 271.369 29.622 271.465 29.346C271.573 29.07 271.627 28.776 271.627 28.464ZM286.692 26.448C286.56 26.412 286.428 26.388 286.296 26.376C286.176 26.364 286.056 26.358 285.936 26.358C285.54 26.358 285.204 26.43 284.928 26.574C284.664 26.718 284.448 26.892 284.28 27.096C284.124 27.3 284.01 27.522 283.938 27.762C283.866 28.002 283.83 28.212 283.83 28.392V33H280.878V24.036H283.722V25.332H283.758C283.986 24.876 284.31 24.504 284.73 24.216C285.15 23.928 285.636 23.784 286.188 23.784C286.308 23.784 286.422 23.79 286.53 23.802C286.65 23.814 286.746 23.832 286.818 23.856L286.692 26.448ZM293.672 27.492C293.672 27.024 293.522 26.622 293.222 26.286C292.934 25.95 292.496 25.782 291.908 25.782C291.62 25.782 291.356 25.83 291.116 25.926C290.876 26.01 290.666 26.13 290.486 26.286C290.306 26.442 290.162 26.628 290.054 26.844C289.946 27.048 289.886 27.264 289.874 27.492H293.672ZM296.39 28.626C296.39 28.746 296.39 28.866 296.39 28.986C296.39 29.106 296.384 29.22 296.372 29.328H289.874C289.898 29.58 289.97 29.808 290.09 30.012C290.222 30.216 290.384 30.396 290.576 30.552C290.78 30.696 291.002 30.81 291.242 30.894C291.494 30.978 291.752 31.02 292.016 31.02C292.484 31.02 292.88 30.936 293.204 30.768C293.528 30.588 293.792 30.36 293.996 30.084L296.048 31.38C295.628 31.992 295.07 32.466 294.374 32.802C293.69 33.126 292.892 33.288 291.98 33.288C291.308 33.288 290.672 33.186 290.072 32.982C289.472 32.766 288.944 32.46 288.488 32.064C288.044 31.656 287.69 31.158 287.426 30.57C287.174 29.982 287.048 29.31 287.048 28.554C287.048 27.822 287.174 27.162 287.426 26.574C287.678 25.974 288.02 25.47 288.452 25.062C288.884 24.642 289.394 24.318 289.982 24.09C290.57 23.862 291.206 23.748 291.89 23.748C292.55 23.748 293.156 23.862 293.708 24.09C294.26 24.306 294.734 24.624 295.13 25.044C295.526 25.464 295.832 25.974 296.048 26.574C296.276 27.174 296.39 27.858 296.39 28.626ZM304.591 37.32V32.01H304.555C304.267 32.394 303.877 32.7 303.385 32.928C302.905 33.144 302.389 33.252 301.837 33.252C301.153 33.252 300.547 33.12 300.019 32.856C299.491 32.592 299.047 32.244 298.687 31.812C298.327 31.368 298.051 30.858 297.859 30.282C297.667 29.706 297.571 29.106 297.571 28.482C297.571 27.858 297.667 27.264 297.859 26.7C298.063 26.124 298.345 25.62 298.705 25.188C299.077 24.756 299.521 24.414 300.037 24.162C300.565 23.91 301.153 23.784 301.801 23.784C302.473 23.784 303.049 23.922 303.529 24.198C304.021 24.462 304.405 24.774 304.681 25.134H304.735V24.036H307.525V37.32H304.591ZM304.699 28.5C304.699 28.212 304.645 27.93 304.537 27.654C304.441 27.378 304.297 27.132 304.105 26.916C303.925 26.7 303.703 26.526 303.439 26.394C303.175 26.262 302.875 26.196 302.539 26.196C302.191 26.196 301.885 26.262 301.621 26.394C301.357 26.526 301.135 26.7 300.955 26.916C300.775 27.12 300.637 27.36 300.541 27.636C300.457 27.912 300.415 28.194 300.415 28.482C300.415 28.77 300.457 29.058 300.541 29.346C300.637 29.622 300.775 29.868 300.955 30.084C301.135 30.3 301.357 30.474 301.621 30.606C301.885 30.738 302.191 30.804 302.539 30.804C302.875 30.804 303.175 30.738 303.439 30.606C303.703 30.474 303.925 30.3 304.105 30.084C304.297 29.868 304.441 29.622 304.537 29.346C304.645 29.07 304.699 28.788 304.699 28.5ZM315.555 33V31.758H315.519C315.411 31.962 315.267 32.154 315.087 32.334C314.919 32.514 314.715 32.67 314.475 32.802C314.247 32.934 313.989 33.042 313.701 33.126C313.425 33.21 313.131 33.252 312.819 33.252C312.219 33.252 311.709 33.144 311.289 32.928C310.881 32.712 310.545 32.436 310.281 32.1C310.029 31.752 309.843 31.362 309.723 30.93C309.615 30.486 309.561 30.036 309.561 29.58V24.036H312.531V28.896C312.531 29.148 312.549 29.388 312.585 29.616C312.621 29.844 312.687 30.048 312.783 30.228C312.891 30.408 313.029 30.552 313.197 30.66C313.365 30.756 313.587 30.804 313.863 30.804C314.379 30.804 314.769 30.612 315.033 30.228C315.309 29.844 315.447 29.394 315.447 28.878V24.036H318.399V33H315.555ZM326.682 27.492C326.682 27.024 326.532 26.622 326.232 26.286C325.944 25.95 325.506 25.782 324.918 25.782C324.63 25.782 324.366 25.83 324.126 25.926C323.886 26.01 323.676 26.13 323.496 26.286C323.316 26.442 323.172 26.628 323.064 26.844C322.956 27.048 322.896 27.264 322.884 27.492H326.682ZM329.4 28.626C329.4 28.746 329.4 28.866 329.4 28.986C329.4 29.106 329.394 29.22 329.382 29.328H322.884C322.908 29.58 322.98 29.808 323.1 30.012C323.232 30.216 323.394 30.396 323.586 30.552C323.79 30.696 324.012 30.81 324.252 30.894C324.504 30.978 324.762 31.02 325.026 31.02C325.494 31.02 325.89 30.936 326.214 30.768C326.538 30.588 326.802 30.36 327.006 30.084L329.058 31.38C328.638 31.992 328.08 32.466 327.384 32.802C326.7 33.126 325.902 33.288 324.99 33.288C324.318 33.288 323.682 33.186 323.082 32.982C322.482 32.766 321.954 32.46 321.498 32.064C321.054 31.656 320.7 31.158 320.436 30.57C320.184 29.982 320.058 29.31 320.058 28.554C320.058 27.822 320.184 27.162 320.436 26.574C320.688 25.974 321.03 25.47 321.462 25.062C321.894 24.642 322.404 24.318 322.992 24.09C323.58 23.862 324.216 23.748 324.9 23.748C325.56 23.748 326.166 23.862 326.718 24.09C327.27 24.306 327.744 24.624 328.14 25.044C328.536 25.464 328.842 25.974 329.058 26.574C329.286 27.174 329.4 27.858 329.4 28.626ZM336.305 26.682C336.065 26.454 335.783 26.262 335.459 26.106C335.135 25.95 334.793 25.872 334.433 25.872C334.157 25.872 333.899 25.926 333.659 26.034C333.431 26.142 333.317 26.328 333.317 26.592C333.317 26.844 333.443 27.024 333.695 27.132C333.959 27.24 334.379 27.36 334.955 27.492C335.291 27.564 335.627 27.666 335.963 27.798C336.311 27.93 336.623 28.104 336.899 28.32C337.175 28.536 337.397 28.8 337.565 29.112C337.733 29.424 337.817 29.796 337.817 30.228C337.817 30.792 337.703 31.272 337.475 31.668C337.247 32.052 336.947 32.364 336.575 32.604C336.215 32.844 335.807 33.018 335.351 33.126C334.895 33.234 334.439 33.288 333.983 33.288C333.251 33.288 332.531 33.174 331.823 32.946C331.127 32.706 330.545 32.358 330.077 31.902L331.733 30.156C331.997 30.444 332.321 30.684 332.705 30.876C333.089 31.068 333.497 31.164 333.929 31.164C334.169 31.164 334.403 31.11 334.631 31.002C334.871 30.882 334.991 30.678 334.991 30.39C334.991 30.114 334.847 29.91 334.559 29.778C334.271 29.646 333.821 29.508 333.209 29.364C332.897 29.292 332.585 29.196 332.273 29.076C331.961 28.956 331.679 28.794 331.427 28.59C331.187 28.386 330.989 28.134 330.833 27.834C330.677 27.534 330.599 27.174 330.599 26.754C330.599 26.214 330.713 25.758 330.941 25.386C331.169 25.002 331.463 24.69 331.823 24.45C332.183 24.21 332.579 24.036 333.011 23.928C333.455 23.808 333.893 23.748 334.325 23.748C334.997 23.748 335.651 23.856 336.287 24.072C336.935 24.276 337.481 24.588 337.925 25.008L336.305 26.682ZM342.525 26.25V29.67C342.525 30.09 342.603 30.408 342.759 30.624C342.927 30.828 343.221 30.93 343.641 30.93C343.785 30.93 343.935 30.918 344.091 30.894C344.259 30.87 344.397 30.834 344.505 30.786L344.541 32.946C344.337 33.018 344.079 33.078 343.767 33.126C343.455 33.186 343.143 33.216 342.831 33.216C342.231 33.216 341.727 33.144 341.319 33C340.911 32.844 340.581 32.628 340.329 32.352C340.089 32.064 339.915 31.728 339.807 31.344C339.699 30.948 339.645 30.51 339.645 30.03V26.25H338.205V24.036H339.627V21.678H342.525V24.036H344.631V26.25H342.525Z" fill="white"/>
<mask id="mask0_227:517" style="mask-type:alpha" maskUnits="userSpaceOnUse" x="66" y="24" width="31" height="17">
<path fill-rule="evenodd" clip-rule="evenodd" d="M66 24.4839H96.515V40.3277H66V24.4839Z" fill="white"/>
</mask>
<g mask="url(#mask0_227:517)">
<path fill-rule="evenodd" clip-rule="evenodd" d="M75.058 34.0709L71.849 30.8609C73.719 28.7749 75.061 28.3049 76.453 28.3049C78.084 28.3049 78.862 28.4639 80.255 29.3989L80.491 29.5569H84.093C84.561 29.5569 85.097 29.7459 85.331 30.5149H79.403V32.3859H87.321V31.4509C87.321 30.9199 87.239 30.4809 87.126 30.0809C87.852 29.5329 89.81 28.0549 91.233 26.9859C92.167 26.2859 92.941 26.1679 93.751 26.6509L85.872 34.0709H75.058ZM96.515 26.6189L95.833 25.9369C93.594 23.6989 91.485 24.4569 90.109 25.4889C88.783 26.4849 86.992 27.8369 86.164 28.4619C85.505 27.8869 84.695 27.6859 84.093 27.6859H81.055C79.4 26.6259 78.226 26.4339 76.453 26.4339C74.291 26.4339 72.481 27.3799 70.523 29.5349L69.28 28.2919L66 31.5719L67.324 32.8959L69.28 30.9399L75.388 37.0489L73.432 39.0039L74.757 40.3279L78.035 37.0489L76.929 35.9419H86.614L96.515 26.6189Z" fill="#FEFEFE"/>
</g>
<path fill-rule="evenodd" clip-rule="evenodd" d="M94.5151 14.324L93.1911 13L82.5001 23.69L76.7771 17.967L75.4531 19.291L82.5001 26.337L94.5151 14.324Z" fill="#FEFEFE"/>
</svg>
