<svg width="731" height="58" viewBox="0 0 731 58" fill="none" xmlns="http://www.w3.org/2000/svg">
<rect y="1" width="731" height="53" fill="#242424"/>
<g opacity="0.456408">
<mask id="mask0_222:504" style="mask-type:alpha" maskUnits="userSpaceOnUse" x="0" y="1" width="262" height="6">
<path fill-rule="evenodd" clip-rule="evenodd" d="M0.582031 1.16992H261.495V6.10422H0.582031V1.16992Z" fill="white"/>
</mask>
<g mask="url(#mask0_222:504)">
<path fill-rule="evenodd" clip-rule="evenodd" d="M255.848 -8.9759C238.503 -7.9459 219.009 -12.8589 198.488 -18.0309C172.846 -24.4919 146.329 -31.1749 119.369 -28.0809C92.4575 -24.9819 67.1805 -15.6199 44.8785 -7.3589C26.4665 -0.537895 10.5615 5.3531 -2.02848 6.1001C-2.04748 6.1011 -2.06548 6.1031 -2.08448 6.1041L-2.14648 5.0551C-2.12848 5.0541 -2.10848 5.0521 -2.09048 5.0511C10.3765 4.3121 26.2265 -1.5589 44.5765 -8.3569C66.9235 -16.6339 92.2505 -26.0159 119.261 -29.1259C146.37 -32.2359 172.964 -25.5359 198.678 -19.0559C221.375 -13.3349 242.816 -7.9379 261.366 -10.5809L261.496 -9.5389C259.641 -9.2739 257.757 -9.0889 255.848 -8.9759Z" fill="#00B0C7"/>
</g>
<mask id="mask1_222:504" style="mask-type:alpha" maskUnits="userSpaceOnUse" x="0" y="1" width="248" height="16">
<path fill-rule="evenodd" clip-rule="evenodd" d="M0.582031 1.16992H247.208V16.8977H0.582031V1.16992Z" fill="white"/>
</mask>
<g mask="url(#mask1_222:504)">
<path fill-rule="evenodd" clip-rule="evenodd" d="M241.562 1.81865C224.219 2.84865 204.724 -2.06535 184.203 -7.23635C158.561 -13.6973 132.045 -20.3823 105.083 -17.2873C78.1723 -14.1893 52.8943 -4.82535 30.5913 3.43565C12.1793 10.2557 -3.72766 16.1477 -16.3167 16.8947C-16.3347 16.8957 -16.3507 16.8967 -16.3697 16.8977L-16.4307 15.8487C-16.4137 15.8477 -16.3957 15.8467 -16.3787 15.8457C-3.91166 15.1067 11.9393 9.23465 30.2893 2.43765C52.6363 -5.84035 77.9653 -15.2223 104.975 -18.3323C132.088 -21.4373 158.679 -14.7413 184.394 -8.26135C207.091 -2.54135 228.529 2.85965 247.078 0.213652L247.208 1.25565C245.353 1.51965 243.47 1.70565 241.562 1.81865Z" fill="#00B0C7"/>
</g>
<mask id="mask2_222:504" style="mask-type:alpha" maskUnits="userSpaceOnUse" x="0" y="1" width="233" height="27">
<path fill-rule="evenodd" clip-rule="evenodd" d="M0.582031 1.16992H232.926V27.6901H0.582031V1.16992Z" fill="white"/>
</mask>
<g mask="url(#mask2_222:504)">
<path fill-rule="evenodd" clip-rule="evenodd" d="M227.278 12.611C209.934 13.641 190.44 8.72799 169.918 3.55599C144.276 -2.906 117.763 -9.591 90.7992 -6.496C63.8892 -3.395 38.6122 5.967 16.3102 14.228C-2.10284 21.048 -18.0108 26.94 -30.6008 27.687C-30.6188 27.688 -30.6348 27.689 -30.6538 27.69L-30.7148 26.641C-30.6978 26.64 -30.6798 26.639 -30.6628 26.638C-18.1958 25.898 -2.34384 20.027 16.0082 13.229C38.3542 4.95199 63.6822 -4.429 90.6912 -7.541C117.806 -10.654 144.394 -3.949 170.108 2.531C192.807 8.252 214.252 13.651 232.796 11.006L232.926 12.047C231.071 12.312 229.186 12.497 227.278 12.611Z" fill="#00B0C7"/>
</g>
<mask id="mask3_222:504" style="mask-type:alpha" maskUnits="userSpaceOnUse" x="0" y="2" width="219" height="37">
<path fill-rule="evenodd" clip-rule="evenodd" d="M0.582031 2.46875H218.639V38.4838H0.582031V2.46875Z" fill="white"/>
</mask>
<g mask="url(#mask3_222:504)">
<path fill-rule="evenodd" clip-rule="evenodd" d="M212.994 23.4038C195.652 24.4338 176.157 19.5208 155.636 14.3498C129.994 7.88783 103.485 1.20383 76.514 4.29783C49.606 7.39783 24.33 16.7598 2.029 25.0208C-16.385 31.8408 -32.292 37.7328 -44.882 38.4798C-44.901 38.4818 -44.92 38.4828 -44.939 38.4838L-45 37.4348C-44.982 37.4338 -44.963 37.4328 -44.944 37.4308C-32.477 36.6918 -16.625 30.8198 1.727 24.0228C24.072 15.7458 49.399 6.36483 76.407 3.25283C103.514 0.145832 130.111 6.84383 155.827 13.3248C178.523 19.0438 199.961 24.4458 218.509 21.7988L218.639 22.8408C216.785 23.1058 214.902 23.2908 212.994 23.4038Z" fill="#00B0C7"/>
</g>
<mask id="mask4_222:504" style="mask-type:alpha" maskUnits="userSpaceOnUse" x="0" y="11" width="235" height="37">
<path fill-rule="evenodd" clip-rule="evenodd" d="M0.582031 11.4971H234.102V47.5104H0.582031V11.4971Z" fill="white"/>
</mask>
<g mask="url(#mask4_222:504)">
<path fill-rule="evenodd" clip-rule="evenodd" d="M228.453 32.4314C211.109 33.4604 191.614 28.5484 171.094 23.3764C145.452 16.9154 118.94 10.2324 91.9749 13.3254C65.0659 16.4244 39.7899 25.7874 17.4889 34.0484C-0.923063 40.8684 -16.8301 46.7594 -29.4191 47.5064C-29.4391 47.5084 -29.4581 47.5094 -29.4781 47.5104L-29.5391 46.4614C-29.5201 46.4604 -29.5001 46.4594 -29.4811 46.4574C-17.0151 45.7184 -1.16306 39.8474 17.1869 33.0494C39.5329 24.7724 64.8589 15.3914 91.8679 12.2804C118.979 9.17545 145.57 15.8714 171.284 22.3514C193.982 28.0724 215.423 33.4704 233.972 30.8264L234.102 31.8674C232.246 32.1324 230.363 32.3184 228.453 32.4314Z" fill="#00B0C7"/>
</g>
<mask id="mask5_222:504" style="mask-type:alpha" maskUnits="userSpaceOnUse" x="0" y="20" width="250" height="35">
<path fill-rule="evenodd" clip-rule="evenodd" d="M0.582031 20.5239H249.56V54.17H0.582031V20.5239Z" fill="white"/>
</mask>
<g mask="url(#mask5_222:504)">
<path fill-rule="evenodd" clip-rule="evenodd" d="M243.91 41.4574C226.568 42.4874 207.075 37.5744 186.555 32.4034C160.914 25.9404 134.399 19.2554 107.436 22.3524C80.5279 25.4514 55.2509 34.8144 32.9509 43.0744C14.5379 49.8944 -1.3691 55.7864 -13.9591 56.5334C-13.9791 56.5344 -13.9981 56.5354 -14.0171 56.5364L-14.0791 55.4874C-14.0601 55.4864 -14.0401 55.4854 -14.0211 55.4844C-1.5541 54.7444 14.2979 48.8734 32.6489 42.0754C54.9939 33.7994 80.3209 24.4184 107.328 21.3074C134.432 18.2024 161.031 24.8974 186.746 31.3784C209.444 37.0984 230.884 42.4954 249.43 39.8524L249.56 40.8934C247.704 41.1594 245.82 41.3444 243.91 41.4574Z" fill="#00B0C7"/>
</g>
<mask id="mask6_222:504" style="mask-type:alpha" maskUnits="userSpaceOnUse" x="1" y="29" width="265" height="26">
<path fill-rule="evenodd" clip-rule="evenodd" d="M1.38184 29.5488H265.024V54.1698H1.38184V29.5488Z" fill="white"/>
</mask>
<g mask="url(#mask6_222:504)">
<path fill-rule="evenodd" clip-rule="evenodd" d="M259.376 50.487C242.031 51.517 222.536 46.603 202.013 41.432C176.373 34.97 149.854 28.287 122.897 31.381C95.9848 34.479 70.7058 43.843 48.4028 52.104C29.9918 58.924 14.0858 64.816 1.49684 65.563C1.47784 65.564 1.46184 65.565 1.44284 65.566L1.38184 64.517C1.39984 64.516 1.41684 64.515 1.43484 64.514C13.9008 63.775 29.7518 57.904 48.1008 51.106C70.4488 42.828 95.7768 33.446 122.789 30.335C149.903 27.222 176.491 33.927 202.204 40.407C224.903 46.127 246.341 51.53 264.894 48.882L265.024 49.924C263.169 50.188 261.285 50.373 259.376 50.487Z" fill="#00B0C7"/>
</g>
<mask id="mask7_222:504" style="mask-type:alpha" maskUnits="userSpaceOnUse" x="0" y="40" width="251" height="15">
<path fill-rule="evenodd" clip-rule="evenodd" d="M0.582031 40.3442H250.737V54.17H0.582031V40.3442Z" fill="white"/>
</mask>
<g mask="url(#mask7_222:504)">
<path fill-rule="evenodd" clip-rule="evenodd" d="M245.091 61.2802C227.748 62.3102 208.253 57.3972 187.732 52.2252C162.09 45.7632 135.574 39.0772 108.612 42.1732C81.7027 45.2732 56.4267 54.6352 34.1257 62.8962C15.7117 69.7172 -0.195344 75.6092 -12.7863 76.3562C-12.8043 76.3572 -12.8223 76.3592 -12.8413 76.3602L-12.9023 75.3112C-12.8853 75.3102 -12.8663 75.3082 -12.8483 75.3072C-0.381344 74.5682 15.4707 68.6962 33.8237 61.8982C56.1697 53.6212 81.4967 44.2392 108.504 41.1282C135.613 38.0212 162.208 44.7202 187.923 51.2002C210.62 56.9202 232.058 62.3222 250.607 59.6752L250.737 60.7172C248.882 60.9822 246.999 61.1672 245.091 61.2802Z" fill="#00B0C7"/>
</g>
<mask id="mask8_222:504" style="mask-type:alpha" maskUnits="userSpaceOnUse" x="0" y="51" width="237" height="4">
<path fill-rule="evenodd" clip-rule="evenodd" d="M0.582031 51.1357H236.454V54.1698H0.582031V51.1357Z" fill="white"/>
</mask>
<g mask="url(#mask8_222:504)">
<path fill-rule="evenodd" clip-rule="evenodd" d="M230.806 72.0705C213.462 73.1005 193.969 68.1875 173.448 63.0165C147.806 56.5545 121.293 49.8725 94.3275 52.9655C67.4185 56.0645 42.1425 65.4275 19.8415 73.6875C1.42948 80.5075 -14.4775 86.3995 -27.0665 87.1465C-27.0865 87.1475 -27.1055 87.1485 -27.1255 87.1495L-27.1865 86.1005C-14.7055 85.4195 1.16148 79.4965 19.5395 72.6895C41.8845 64.4125 67.2115 55.0315 94.2195 51.9205C121.324 48.8115 147.923 55.5115 173.638 61.9915C196.336 67.7105 217.779 73.1125 236.324 70.4655L236.454 71.5065C234.599 71.7715 232.714 71.9565 230.806 72.0705Z" fill="#00B0C7"/>
</g>
<mask id="mask9_222:504" style="mask-type:alpha" maskUnits="userSpaceOnUse" x="245" y="1" width="265" height="1">
<path fill-rule="evenodd" clip-rule="evenodd" d="M245.957 1.1698H509.643V1.2677H245.957V1.1698Z" fill="white"/>
</mask>
<g mask="url(#mask9_222:504)">
<path fill-rule="evenodd" clip-rule="evenodd" d="M503.997 -13.8141C486.655 -12.7841 467.155 -17.6961 446.63 -22.8661C420.975 -29.3281 394.444 -36.0101 367.471 -32.9181C340.56 -29.8191 315.282 -20.4551 292.98 -12.1941C274.568 -5.3741 258.661 0.517899 246.072 1.2649C246.053 1.2659 246.037 1.2669 246.018 1.2679L245.957 0.218903C245.975 0.217903 245.992 0.2169 246.009 0.2159C258.476 -0.523098 274.327 -6.3951 292.677 -13.1921C315.024 -21.4701 340.353 -30.8521 367.363 -33.9621C394.493 -37.0661 421.093 -30.3711 446.82 -23.8911C469.522 -18.1731 490.962 -12.7731 509.514 -15.4191L509.643 -14.3771C507.789 -14.1131 505.905 -13.9271 503.997 -13.8141Z" fill="#00B0C7"/>
</g>
<mask id="mask10_222:504" style="mask-type:alpha" maskUnits="userSpaceOnUse" x="232" y="1" width="265" height="12">
<path fill-rule="evenodd" clip-rule="evenodd" d="M232.673 1.16992H496.361V12.0603H232.673V1.16992Z" fill="white"/>
</mask>
<g mask="url(#mask10_222:504)">
<path fill-rule="evenodd" clip-rule="evenodd" d="M490.713 -3.02137C473.367 -1.99137 453.863 -6.90437 433.331 -12.0754C407.677 -18.5354 381.147 -25.2184 354.187 -22.1254C327.277 -19.0244 302 -9.66236 279.698 -1.40236C261.285 5.41763 245.377 11.3106 232.788 12.0576C232.769 12.0586 232.753 12.0596 232.734 12.0606L232.673 11.0116C232.691 11.0106 232.708 11.0096 232.726 11.0086C245.192 10.2686 261.045 4.39663 279.396 -2.40037C301.742 -10.6774 327.07 -20.0584 354.079 -23.1704C381.193 -26.2764 407.795 -19.5794 433.521 -13.1004C456.23 -7.38137 477.674 -1.98236 496.232 -4.62637L496.361 -3.58537C494.506 -3.32037 492.622 -3.13537 490.713 -3.02137Z" fill="#00B0C7"/>
</g>
<mask id="mask11_222:504" style="mask-type:alpha" maskUnits="userSpaceOnUse" x="218" y="1" width="265" height="22">
<path fill-rule="evenodd" clip-rule="evenodd" d="M218.389 1.16992H482.075V22.8538H218.389V1.16992Z" fill="white"/>
</mask>
<g mask="url(#mask11_222:504)">
<path fill-rule="evenodd" clip-rule="evenodd" d="M476.429 7.77079C459.085 8.80079 439.581 3.88779 419.05 -1.28221C393.395 -7.74321 366.87 -14.4262 339.903 -11.3322C312.995 -8.23221 287.719 1.12979 265.418 9.39079C247.004 16.2108 231.097 22.1028 218.507 22.8498C218.487 22.8518 218.469 22.8528 218.45 22.8538L218.389 21.8048C218.407 21.8038 218.426 21.8018 218.445 21.8008C230.912 21.0618 246.764 15.1888 265.116 8.39279C287.461 0.115786 312.788 -9.26521 339.796 -12.3772C366.91 -15.4892 393.513 -8.78621 419.241 -2.30721C441.949 3.41179 463.396 8.81479 481.946 6.16679L482.075 7.20779C480.221 7.47279 478.337 7.65779 476.429 7.77079Z" fill="#00B0C7"/>
</g>
<mask id="mask12_222:504" style="mask-type:alpha" maskUnits="userSpaceOnUse" x="233" y="1" width="265" height="31">
<path fill-rule="evenodd" clip-rule="evenodd" d="M233.849 1.16992H497.537V31.8806H233.849V1.16992Z" fill="white"/>
</mask>
<g mask="url(#mask12_222:504)">
<path fill-rule="evenodd" clip-rule="evenodd" d="M491.888 16.7986C474.542 17.8276 455.037 12.9156 434.507 7.7446C408.853 1.2836 382.331 -5.3954 355.363 -2.3044C328.454 0.794602 303.178 10.1576 280.877 18.4186C262.465 25.2376 246.558 31.1296 233.969 31.8766C233.949 31.8786 233.93 31.8796 233.91 31.8806L233.849 30.8316C233.868 30.8306 233.887 30.8296 233.906 30.8276C246.373 30.0886 262.225 24.2166 280.575 17.4196C302.92 9.1426 328.247 -0.238398 355.255 -3.3494C382.368 -6.4584 408.97 0.240602 434.697 6.7206C457.407 12.4406 478.851 17.8426 497.407 15.1936L497.537 16.2346C495.681 16.4996 493.797 16.6856 491.888 16.7986Z" fill="#00B0C7"/>
</g>
<path fill-rule="evenodd" clip-rule="evenodd" d="M506.365 25.9246C489.068 26.9531 469.621 22.0442 449.15 16.8765C423.562 10.4163 397.106 3.73821 370.198 6.82986C343.36 9.92852 318.15 19.2864 295.907 27.5429C277.543 34.3599 261.677 40.2493 249.119 40.996C249.099 40.997 249.081 40.998 249.061 41L249 39.9515C249.019 39.9495 249.038 39.9485 249.057 39.9475C261.491 39.2078 277.302 33.3393 295.605 26.5453C317.892 18.2719 343.153 8.89497 370.09 5.78632C397.149 2.67367 423.679 9.37476 449.339 15.8519C471.984 21.5675 493.375 26.9621 511.87 24.3193L512 25.3608C510.149 25.6257 508.269 25.8116 506.365 25.9246Z" fill="#00B0C7"/>
<path fill-rule="evenodd" clip-rule="evenodd" d="M522.368 34.9239C505.07 35.9534 485.629 31.0447 465.162 25.8771C439.576 19.417 413.112 12.7381 386.197 15.8297C359.356 18.9272 334.143 28.286 311.898 36.5442C293.535 43.36 277.671 49.2503 265.115 49.997C265.096 49.998 265.08 49.999 265.062 50L265 48.9515C265.018 48.9505 265.035 48.9495 265.053 48.9485C277.486 48.2088 293.296 42.3395 311.597 35.5466C333.887 27.2724 359.149 17.8937 386.09 14.7851C413.157 11.6756 439.692 18.3745 465.352 24.8525C487.989 30.5679 509.369 35.9654 527.871 33.3196L528 34.3612C526.151 34.626 524.27 34.811 522.368 34.9239Z" fill="#00B0C7"/>
<mask id="mask13_222:504" style="mask-type:alpha" maskUnits="userSpaceOnUse" x="249" y="24" width="265" height="31">
<path fill-rule="evenodd" clip-rule="evenodd" d="M249.485 24.7139H513.171V54.1699H249.485V24.7139Z" fill="white"/>
</mask>
<g mask="url(#mask13_222:504)">
<path fill-rule="evenodd" clip-rule="evenodd" d="M507.526 45.6473C490.183 46.6773 470.683 41.7643 450.158 36.5943C424.503 30.1323 397.971 23.4503 370.999 26.5433C344.091 29.6433 318.814 39.0053 296.513 47.2663C278.099 54.0873 262.192 59.9793 249.602 60.7263C249.583 60.7273 249.565 60.7283 249.546 60.7303L249.485 59.6813C249.503 59.6793 249.522 59.6783 249.539 59.6773C262.007 58.9383 277.859 53.0653 296.211 46.2683C318.557 37.9913 343.883 28.6093 370.891 25.4983C398.017 22.3903 424.621 29.0893 450.348 35.5693C473.05 41.2893 494.49 46.6893 513.042 44.0423L513.171 45.0843C511.317 45.3493 509.434 45.5343 507.526 45.6473Z" fill="#00B0C7"/>
</g>
<mask id="mask14_222:504" style="mask-type:alpha" maskUnits="userSpaceOnUse" x="235" y="35" width="264" height="20">
<path fill-rule="evenodd" clip-rule="evenodd" d="M235.201 35.5073H498.889V54.1702H235.201V35.5073Z" fill="white"/>
</mask>
<g mask="url(#mask14_222:504)">
<path fill-rule="evenodd" clip-rule="evenodd" d="M493.241 56.4381C475.896 57.4681 456.392 52.5551 435.861 47.3851C410.206 40.9251 383.682 34.2451 356.715 37.3361C329.806 40.4351 304.53 49.7981 282.229 58.0581C263.817 64.8781 247.91 70.7701 235.321 71.5171C235.301 71.5181 235.282 71.5191 235.262 71.5201L235.201 70.4711C247.684 69.7901 263.549 63.8671 281.927 57.0601C304.272 48.7831 329.599 39.4021 356.607 36.2911C383.715 33.1851 410.324 39.8811 436.051 46.3601C458.759 52.0781 480.206 57.4781 498.76 54.8331L498.889 55.8751C497.034 56.1391 495.149 56.3241 493.241 56.4381Z" fill="#00B0C7"/>
</g>
<mask id="mask15_222:504" style="mask-type:alpha" maskUnits="userSpaceOnUse" x="221" y="46" width="265" height="9">
<path fill-rule="evenodd" clip-rule="evenodd" d="M221.916 46.3008H485.603V54.1701H221.916V46.3008Z" fill="white"/>
</mask>
<g mask="url(#mask15_222:504)">
<path fill-rule="evenodd" clip-rule="evenodd" d="M479.954 67.2315C462.611 68.2605 443.107 63.3485 422.576 58.1785C396.922 51.7165 370.391 45.0375 343.431 48.1285C316.52 51.2275 291.242 60.5895 268.94 68.8515C250.527 75.6715 234.622 81.5625 222.033 82.3095C222.014 82.3115 221.996 82.3125 221.977 82.3135L221.916 81.2645C221.934 81.2635 221.953 81.2625 221.971 81.2605C234.437 80.5215 250.287 74.6495 268.638 67.8535C290.985 59.5755 316.313 50.1935 343.323 47.0835C370.443 43.9805 397.04 50.6745 422.767 57.1525C445.475 62.8725 466.918 68.2715 485.474 65.6265L485.603 66.6675C483.747 66.9325 481.864 67.1185 479.954 67.2315Z" fill="#00B0C7"/>
</g>
<mask id="mask16_222:504" style="mask-type:alpha" maskUnits="userSpaceOnUse" x="480" y="1" width="251" height="7">
<path fill-rule="evenodd" clip-rule="evenodd" d="M480.823 1.16992H730.583V7.22092H480.823V1.16992Z" fill="white"/>
</mask>
<g mask="url(#mask16_222:504)">
<path fill-rule="evenodd" clip-rule="evenodd" d="M738.817 -7.85909C721.475 -6.82909 701.98 -11.7421 681.459 -16.9131C655.816 -23.3751 629.296 -30.0561 602.337 -26.9651C575.429 -23.8651 550.153 -14.5031 527.853 -6.24209C509.438 0.577913 493.531 6.46991 480.941 7.21691C480.922 7.21891 480.904 7.21991 480.884 7.22091L480.823 6.17191C480.841 6.17091 480.86 6.16991 480.879 6.16791C493.346 5.42891 509.198 -0.443089 527.55 -7.24009C549.895 -15.5171 575.222 -24.8981 602.229 -28.0101C629.342 -31.1151 655.935 -24.4191 681.649 -17.9381C704.346 -12.2181 725.785 -6.81409 744.333 -9.46309L744.462 -8.42209C742.608 -8.15709 740.725 -7.97209 738.817 -7.85909Z" fill="#00B0C7"/>
</g>
<mask id="mask17_222:504" style="mask-type:alpha" maskUnits="userSpaceOnUse" x="496" y="1" width="235" height="16">
<path fill-rule="evenodd" clip-rule="evenodd" d="M496.284 1.16992H730.583V16.2478H496.284V1.16992Z" fill="white"/>
</mask>
<g mask="url(#mask17_222:504)">
<path fill-rule="evenodd" clip-rule="evenodd" d="M754.276 1.16903C736.933 2.19803 717.438 -2.71397 696.917 -7.88597C671.275 -14.347 644.758 -21.032 617.797 -17.937C590.889 -14.838 565.612 -5.47497 543.312 2.78603C524.9 9.60603 508.994 15.497 496.403 16.244C496.383 16.246 496.364 16.247 496.344 16.248L496.284 15.199C496.303 15.198 496.322 15.197 496.341 15.195C508.808 14.456 524.66 8.58503 543.01 1.78703C565.355 -6.48997 590.682 -15.871 617.69 -18.982C644.8 -22.088 671.393 -15.39 697.107 -8.91097C719.806 -3.18997 741.241 2.20603 759.795 -0.435968L759.925 0.605032C758.069 0.870031 756.185 1.05603 754.276 1.16903Z" fill="#00B0C7"/>
</g>
<mask id="mask18_222:504" style="mask-type:alpha" maskUnits="userSpaceOnUse" x="511" y="1" width="220" height="25">
<path fill-rule="evenodd" clip-rule="evenodd" d="M511.744 1.16992H730.583V25.2741H511.744V1.16992Z" fill="white"/>
</mask>
<g mask="url(#mask18_222:504)">
<path fill-rule="evenodd" clip-rule="evenodd" d="M769.733 10.195C752.391 11.224 732.898 6.31204 712.378 1.14004C686.736 -5.32196 660.224 -12.005 633.257 -8.90996C606.349 -5.81096 581.073 3.55104 558.772 11.811C540.359 18.632 524.453 24.523 511.863 25.27C511.843 25.271 511.824 25.273 511.804 25.274L511.744 24.225C511.763 24.223 511.782 24.222 511.801 24.221C524.267 23.482 540.119 17.61 558.47 10.813C580.815 2.53704 606.141 -6.84396 633.15 -9.95496C660.259 -13.061 686.853 -6.36496 712.568 0.115042C735.266 5.83604 756.71 11.233 775.253 8.58904L775.383 9.63104C773.527 9.89604 771.642 10.081 769.733 10.195Z" fill="#00B0C7"/>
</g>
<mask id="mask19_222:504" style="mask-type:alpha" maskUnits="userSpaceOnUse" x="527" y="1" width="204" height="34">
<path fill-rule="evenodd" clip-rule="evenodd" d="M527.204 1.16992H730.583V34.3039H527.204V1.16992Z" fill="white"/>
</mask>
<g mask="url(#mask19_222:504)">
<path fill-rule="evenodd" clip-rule="evenodd" d="M785.199 19.2251C767.853 20.2551 748.359 15.3411 727.836 10.1701C702.196 3.70812 675.693 -2.97088 648.72 0.118116C621.807 3.21712 596.528 12.5801 574.225 20.8421C555.814 27.6621 539.907 33.5541 527.318 34.3011C527.3 34.3021 527.284 34.3031 527.265 34.3041L527.204 33.2551C527.221 33.2541 527.239 33.2531 527.256 33.2521C539.722 32.5121 555.573 26.6411 573.923 19.8441C596.27 11.5661 621.6 2.18312 648.612 -0.926884C675.724 -4.02988 702.314 2.66512 728.027 9.14412C750.726 14.8641 772.16 20.2641 790.718 17.6191L790.847 18.6611C788.992 18.9261 787.107 19.1111 785.199 19.2251Z" fill="#00B0C7"/>
</g>
<mask id="mask20_222:504" style="mask-type:alpha" maskUnits="userSpaceOnUse" x="512" y="9" width="219" height="37">
<path fill-rule="evenodd" clip-rule="evenodd" d="M512.92 9.08203H730.583V45.0973H512.92V9.08203Z" fill="white"/>
</mask>
<g mask="url(#mask20_222:504)">
<path fill-rule="evenodd" clip-rule="evenodd" d="M770.914 30.0173C753.571 31.0473 734.076 26.1343 713.555 20.9623C687.913 14.5003 661.4 7.81133 634.434 10.9103C607.525 14.0103 582.249 23.3733 559.947 31.6333C541.533 38.4543 525.626 44.3463 513.036 45.0933C513.018 45.0943 513 45.0963 512.981 45.0973L512.92 44.0483C512.937 44.0473 512.956 44.0453 512.974 44.0443C525.441 43.3053 541.292 37.4333 559.645 30.6353C581.991 22.3583 607.318 12.9773 634.326 9.86533C661.44 6.76033 688.031 13.4573 713.745 19.9373C736.443 25.6573 757.881 31.0593 776.43 28.4123L776.559 29.4543C774.704 29.7193 772.822 29.9043 770.914 30.0173Z" fill="#00B0C7"/>
</g>
<mask id="mask21_222:504" style="mask-type:alpha" maskUnits="userSpaceOnUse" x="498" y="19" width="233" height="36">
<path fill-rule="evenodd" clip-rule="evenodd" d="M498.636 19.875H730.583V54.17H498.636V19.875Z" fill="white"/>
</mask>
<g mask="url(#mask21_222:504)">
<path fill-rule="evenodd" clip-rule="evenodd" d="M756.63 40.808C739.286 41.838 719.793 36.925 699.271 31.754C673.628 25.291 647.107 18.612 620.15 21.704C593.242 24.803 567.966 34.165 545.665 42.425C527.252 49.245 511.346 55.137 498.755 55.884C498.736 55.885 498.717 55.886 498.697 55.887L498.636 54.838C498.655 54.837 498.674 54.836 498.693 54.835C511.16 54.095 527.012 48.224 545.362 41.427C567.708 33.15 593.034 23.769 620.042 20.658C647.151 17.554 673.747 24.249 699.461 30.729C722.159 36.448 743.599 41.851 762.148 39.203L762.277 40.244C760.422 40.509 758.538 40.694 756.63 40.808Z" fill="#00B0C7"/>
</g>
<mask id="mask22_222:504" style="mask-type:alpha" maskUnits="userSpaceOnUse" x="484" y="30" width="247" height="25">
<path fill-rule="evenodd" clip-rule="evenodd" d="M484.353 30.6675H730.583V54.1699H484.353V30.6675Z" fill="white"/>
</mask>
<g mask="url(#mask22_222:504)">
<path fill-rule="evenodd" clip-rule="evenodd" d="M742.343 51.6014C725.002 52.6304 705.508 47.7174 684.988 42.5464C659.344 36.0844 632.824 29.3994 605.866 32.4954C578.956 35.5944 553.679 44.9564 531.376 53.2184C512.963 60.0384 497.058 65.9304 484.469 66.6774C484.45 66.6784 484.432 66.6794 484.413 66.6804L484.353 65.6314C484.37 65.6304 484.389 65.6294 484.406 65.6284C496.873 64.8884 512.723 59.0174 531.074 52.2204C553.421 43.9424 578.749 34.5604 605.759 31.4504C632.871 28.3464 659.464 35.0424 685.178 41.5224C707.875 47.2414 729.311 52.6404 747.862 49.9964L747.992 51.0374C746.136 51.3024 744.253 51.4884 742.343 51.6014Z" fill="#00B0C7"/>
</g>
<mask id="mask23_222:504" style="mask-type:alpha" maskUnits="userSpaceOnUse" x="499" y="39" width="232" height="16">
<path fill-rule="evenodd" clip-rule="evenodd" d="M499.812 39.6943H730.583V54.1701H499.812V39.6943Z" fill="white"/>
</mask>
<g mask="url(#mask23_222:504)">
<path fill-rule="evenodd" clip-rule="evenodd" d="M757.805 60.6284C740.462 61.6574 720.967 56.7454 700.447 51.5744C674.805 45.1114 648.284 38.4324 621.326 41.5244C594.417 44.6224 569.14 53.9854 546.838 62.2454C528.426 69.0654 512.519 74.9574 499.929 75.7044C499.91 75.7054 499.892 75.7064 499.872 75.7074L499.812 74.6584C499.83 74.6574 499.85 74.6564 499.867 74.6554C512.335 73.9154 528.184 68.0444 546.535 61.2474C568.882 52.9704 594.209 43.5894 621.218 40.4784C648.34 37.3714 674.924 44.0694 700.637 50.5494C723.335 56.2694 744.779 61.6684 763.323 59.0234L763.453 60.0644C761.598 60.3294 759.714 60.5154 757.805 60.6284Z" fill="#00B0C7"/>
</g>
<mask id="mask24_222:504" style="mask-type:alpha" maskUnits="userSpaceOnUse" x="515" y="48" width="216" height="7">
<path fill-rule="evenodd" clip-rule="evenodd" d="M515.272 48.7231H730.583V54.1702H515.272V48.7231Z" fill="white"/>
</mask>
<g mask="url(#mask24_222:504)">
<path fill-rule="evenodd" clip-rule="evenodd" d="M773.267 69.6573C755.924 70.6873 736.43 65.7753 715.908 60.6033C690.265 54.1403 663.749 47.4603 636.786 50.5513C609.874 53.6493 584.595 63.0133 562.292 71.2753C543.881 78.0953 527.975 83.9873 515.386 84.7343C515.368 84.7353 515.352 84.7363 515.334 84.7373L515.272 83.6883C515.29 83.6873 515.307 83.6863 515.324 83.6853C527.79 82.9463 543.641 77.0743 561.99 70.2773C584.337 61.9983 609.667 52.6153 636.678 49.5053C663.793 46.4033 690.383 53.0983 716.098 59.5773C738.795 65.2973 760.228 70.7023 778.782 68.0523L778.911 69.0953C777.058 69.3593 775.174 69.5443 773.267 69.6573Z" fill="#00B0C7"/>
</g>
</g>
<path fill-rule="evenodd" clip-rule="evenodd" d="M31 27L17 34V20L31 27Z" fill="white"/>
<path d="M53.81 24.71C53.81 25.578 53.649 26.313 53.327 26.915C53.005 27.503 52.571 27.979 52.025 28.343C51.479 28.707 50.849 28.973 50.135 29.141C49.421 29.309 48.679 29.393 47.909 29.393H46.124V35H42.533V20.132H47.993C48.805 20.132 49.561 20.216 50.261 20.384C50.975 20.538 51.591 20.797 52.109 21.161C52.641 21.511 53.054 21.98 53.348 22.568C53.656 23.142 53.81 23.856 53.81 24.71ZM50.219 24.731C50.219 24.381 50.149 24.094 50.009 23.87C49.869 23.646 49.68 23.471 49.442 23.345C49.204 23.219 48.931 23.135 48.623 23.093C48.329 23.051 48.021 23.03 47.699 23.03H46.124V26.537H47.636C47.972 26.537 48.294 26.509 48.602 26.453C48.91 26.397 49.183 26.299 49.421 26.159C49.673 26.019 49.869 25.837 50.009 25.613C50.149 25.375 50.219 25.081 50.219 24.731ZM63.9246 35L60.7116 29.099H59.4936V35H55.9656V20.132H61.6356C62.3496 20.132 63.0426 20.209 63.7146 20.363C64.4006 20.503 65.0096 20.748 65.5416 21.098C66.0876 21.448 66.5216 21.91 66.8436 22.484C67.1656 23.058 67.3266 23.772 67.3266 24.626C67.3266 25.634 67.0536 26.481 66.5076 27.167C65.9616 27.853 65.2056 28.343 64.2396 28.637L68.1246 35H63.9246ZM63.7776 24.689C63.7776 24.339 63.7006 24.059 63.5466 23.849C63.4066 23.625 63.2176 23.457 62.9796 23.345C62.7556 23.219 62.4966 23.135 62.2026 23.093C61.9226 23.051 61.6496 23.03 61.3836 23.03H59.4726V26.495H61.1736C61.4676 26.495 61.7686 26.474 62.0766 26.432C62.3846 26.376 62.6646 26.285 62.9166 26.159C63.1686 26.033 63.3716 25.851 63.5256 25.613C63.6936 25.375 63.7776 25.067 63.7776 24.689ZM85.3884 27.503C85.3884 28.679 85.1854 29.757 84.7794 30.737C84.3734 31.703 83.8064 32.536 83.0784 33.236C82.3644 33.922 81.5104 34.454 80.5164 34.832C79.5224 35.21 78.4444 35.399 77.2824 35.399C76.1204 35.399 75.0424 35.21 74.0484 34.832C73.0684 34.454 72.2144 33.922 71.4864 33.236C70.7724 32.536 70.2124 31.703 69.8064 30.737C69.4004 29.757 69.1974 28.679 69.1974 27.503C69.1974 26.313 69.4004 25.242 69.8064 24.29C70.2124 23.324 70.7724 22.505 71.4864 21.833C72.2144 21.161 73.0684 20.643 74.0484 20.279C75.0424 19.915 76.1204 19.733 77.2824 19.733C78.4444 19.733 79.5224 19.915 80.5164 20.279C81.5104 20.643 82.3644 21.161 83.0784 21.833C83.8064 22.505 84.3734 23.324 84.7794 24.29C85.1854 25.242 85.3884 26.313 85.3884 27.503ZM81.5454 27.503C81.5454 26.859 81.4404 26.257 81.2304 25.697C81.0204 25.137 80.7264 24.661 80.3484 24.269C79.9844 23.863 79.5364 23.548 79.0044 23.324C78.4864 23.086 77.9124 22.967 77.2824 22.967C76.6524 22.967 76.0784 23.086 75.5604 23.324C75.0424 23.548 74.5944 23.863 74.2164 24.269C73.8384 24.661 73.5444 25.137 73.3344 25.697C73.1384 26.257 73.0404 26.859 73.0404 27.503C73.0404 28.175 73.1454 28.798 73.3554 29.372C73.5654 29.932 73.8524 30.415 74.2164 30.821C74.5944 31.227 75.0424 31.549 75.5604 31.787C76.0784 32.011 76.6524 32.123 77.2824 32.123C77.9124 32.123 78.4864 32.011 79.0044 31.787C79.5224 31.549 79.9704 31.227 80.3484 30.821C80.7264 30.415 81.0204 29.932 81.2304 29.372C81.4404 28.798 81.5454 28.175 81.5454 27.503ZM95.1209 29.918C95.1209 30.506 95.0509 31.122 94.9109 31.766C94.7849 32.41 94.5399 33.005 94.1759 33.551C93.8259 34.083 93.3289 34.524 92.6849 34.874C92.0549 35.224 91.2359 35.399 90.2279 35.399C88.9679 35.399 87.9179 35.077 87.0779 34.433C86.2379 33.775 85.6779 32.935 85.3979 31.913L88.5689 30.842C88.6669 31.234 88.8419 31.549 89.0939 31.787C89.3599 32.025 89.6819 32.144 90.0599 32.144C90.6479 32.144 91.0329 31.941 91.2149 31.535C91.4109 31.129 91.5089 30.597 91.5089 29.939V20.132H95.1209V29.918ZM98.1092 35V20.132H108.105V23.177H101.574V25.97H107.748V28.847H101.574V31.934H108.483V35H98.1092ZM123.948 32.942C123.29 33.698 122.478 34.3 121.512 34.748C120.546 35.182 119.433 35.399 118.173 35.399C117.025 35.399 115.961 35.21 114.981 34.832C114.015 34.454 113.175 33.922 112.461 33.236C111.747 32.536 111.187 31.703 110.781 30.737C110.375 29.771 110.172 28.707 110.172 27.545C110.172 26.355 110.375 25.277 110.781 24.311C111.201 23.345 111.775 22.526 112.503 21.854C113.231 21.168 114.085 20.643 115.065 20.279C116.045 19.915 117.102 19.733 118.236 19.733C119.286 19.733 120.315 19.922 121.323 20.3C122.345 20.664 123.171 21.203 123.801 21.917L121.365 24.353C121.029 23.891 120.588 23.548 120.042 23.324C119.496 23.1 118.936 22.988 118.362 22.988C117.732 22.988 117.151 23.107 116.619 23.345C116.101 23.569 115.653 23.884 115.275 24.29C114.897 24.696 114.603 25.179 114.393 25.739C114.183 26.285 114.078 26.887 114.078 27.545C114.078 28.217 114.183 28.833 114.393 29.393C114.603 29.953 114.89 30.436 115.254 30.842C115.632 31.234 116.08 31.542 116.598 31.766C117.116 31.99 117.683 32.102 118.299 32.102C119.013 32.102 119.636 31.962 120.168 31.682C120.7 31.402 121.127 31.038 121.449 30.59L123.948 32.942ZM131.727 23.198V35H128.136V23.198H123.936V20.132H135.927V23.198H131.727ZM155.387 32.942C154.729 33.698 153.917 34.3 152.951 34.748C151.985 35.182 150.872 35.399 149.612 35.399C148.464 35.399 147.4 35.21 146.42 34.832C145.454 34.454 144.614 33.922 143.9 33.236C143.186 32.536 142.626 31.703 142.22 30.737C141.814 29.771 141.611 28.707 141.611 27.545C141.611 26.355 141.814 25.277 142.22 24.311C142.64 23.345 143.214 22.526 143.942 21.854C144.67 21.168 145.524 20.643 146.504 20.279C147.484 19.915 148.541 19.733 149.675 19.733C150.725 19.733 151.754 19.922 152.762 20.3C153.784 20.664 154.61 21.203 155.24 21.917L152.804 24.353C152.468 23.891 152.027 23.548 151.481 23.324C150.935 23.1 150.375 22.988 149.801 22.988C149.171 22.988 148.59 23.107 148.058 23.345C147.54 23.569 147.092 23.884 146.714 24.29C146.336 24.696 146.042 25.179 145.832 25.739C145.622 26.285 145.517 26.887 145.517 27.545C145.517 28.217 145.622 28.833 145.832 29.393C146.042 29.953 146.329 30.436 146.693 30.842C147.071 31.234 147.519 31.542 148.037 31.766C148.555 31.99 149.122 32.102 149.738 32.102C150.452 32.102 151.075 31.962 151.607 31.682C152.139 31.402 152.566 31.038 152.888 30.59L155.387 32.942ZM172.177 27.503C172.177 28.679 171.974 29.757 171.568 30.737C171.162 31.703 170.595 32.536 169.867 33.236C169.153 33.922 168.299 34.454 167.305 34.832C166.311 35.21 165.233 35.399 164.071 35.399C162.909 35.399 161.831 35.21 160.837 34.832C159.857 34.454 159.003 33.922 158.275 33.236C157.561 32.536 157.001 31.703 156.595 30.737C156.189 29.757 155.986 28.679 155.986 27.503C155.986 26.313 156.189 25.242 156.595 24.29C157.001 23.324 157.561 22.505 158.275 21.833C159.003 21.161 159.857 20.643 160.837 20.279C161.831 19.915 162.909 19.733 164.071 19.733C165.233 19.733 166.311 19.915 167.305 20.279C168.299 20.643 169.153 21.161 169.867 21.833C170.595 22.505 171.162 23.324 171.568 24.29C171.974 25.242 172.177 26.313 172.177 27.503ZM168.334 27.503C168.334 26.859 168.229 26.257 168.019 25.697C167.809 25.137 167.515 24.661 167.137 24.269C166.773 23.863 166.325 23.548 165.793 23.324C165.275 23.086 164.701 22.967 164.071 22.967C163.441 22.967 162.867 23.086 162.349 23.324C161.831 23.548 161.383 23.863 161.005 24.269C160.627 24.661 160.333 25.137 160.123 25.697C159.927 26.257 159.829 26.859 159.829 27.503C159.829 28.175 159.934 28.798 160.144 29.372C160.354 29.932 160.641 30.415 161.005 30.821C161.383 31.227 161.831 31.549 162.349 31.787C162.867 32.011 163.441 32.123 164.071 32.123C164.701 32.123 165.275 32.011 165.793 31.787C166.311 31.549 166.759 31.227 167.137 30.821C167.515 30.415 167.809 29.932 168.019 29.372C168.229 28.798 168.334 28.175 168.334 27.503ZM183.992 35L178.007 25.277H177.944L178.028 35H174.542V20.132H178.637L184.601 29.834H184.664L184.58 20.132H188.066V35H183.992ZM198.987 23.996C198.679 23.604 198.273 23.296 197.769 23.072C197.279 22.834 196.803 22.715 196.341 22.715C196.103 22.715 195.858 22.736 195.606 22.778C195.368 22.82 195.151 22.904 194.955 23.03C194.759 23.142 194.591 23.296 194.451 23.492C194.325 23.674 194.262 23.912 194.262 24.206C194.262 24.458 194.311 24.668 194.409 24.836C194.521 25.004 194.675 25.151 194.871 25.277C195.081 25.403 195.326 25.522 195.606 25.634C195.886 25.732 196.201 25.837 196.551 25.949C197.055 26.117 197.58 26.306 198.126 26.516C198.672 26.712 199.169 26.978 199.617 27.314C200.065 27.65 200.436 28.07 200.73 28.574C201.024 29.064 201.171 29.68 201.171 30.422C201.171 31.276 201.01 32.018 200.688 32.648C200.38 33.264 199.96 33.775 199.428 34.181C198.896 34.587 198.287 34.888 197.601 35.084C196.915 35.28 196.208 35.378 195.48 35.378C194.416 35.378 193.387 35.196 192.393 34.832C191.399 34.454 190.573 33.922 189.915 33.236L192.267 30.842C192.631 31.29 193.107 31.668 193.695 31.976C194.297 32.27 194.892 32.417 195.48 32.417C195.746 32.417 196.005 32.389 196.257 32.333C196.509 32.277 196.726 32.186 196.908 32.06C197.104 31.934 197.258 31.766 197.37 31.556C197.482 31.346 197.538 31.094 197.538 30.8C197.538 30.52 197.468 30.282 197.328 30.086C197.188 29.89 196.985 29.715 196.719 29.561C196.467 29.393 196.145 29.246 195.753 29.12C195.375 28.98 194.941 28.833 194.451 28.679C193.975 28.525 193.506 28.343 193.044 28.133C192.596 27.923 192.19 27.657 191.826 27.335C191.476 26.999 191.189 26.6 190.965 26.138C190.755 25.662 190.65 25.088 190.65 24.416C190.65 23.59 190.818 22.883 191.154 22.295C191.49 21.707 191.931 21.224 192.477 20.846C193.023 20.468 193.639 20.195 194.325 20.027C195.011 19.845 195.704 19.754 196.404 19.754C197.244 19.754 198.098 19.908 198.966 20.216C199.848 20.524 200.618 20.979 201.276 21.581L198.987 23.996ZM209.636 23.198V35H206.045V23.198H201.845V20.132H213.836V23.198H209.636ZM223.434 35L220.221 29.099H219.003V35H215.475V20.132H221.145C221.859 20.132 222.552 20.209 223.224 20.363C223.91 20.503 224.519 20.748 225.051 21.098C225.597 21.448 226.031 21.91 226.353 22.484C226.675 23.058 226.836 23.772 226.836 24.626C226.836 25.634 226.563 26.481 226.017 27.167C225.471 27.853 224.715 28.343 223.749 28.637L227.634 35H223.434ZM223.287 24.689C223.287 24.339 223.21 24.059 223.056 23.849C222.916 23.625 222.727 23.457 222.489 23.345C222.265 23.219 222.006 23.135 221.712 23.093C221.432 23.051 221.159 23.03 220.893 23.03H218.982V26.495H220.683C220.977 26.495 221.278 26.474 221.586 26.432C221.894 26.376 222.174 26.285 222.426 26.159C222.678 26.033 222.881 25.851 223.035 25.613C223.203 25.375 223.287 25.067 223.287 24.689ZM242 29.393C242 30.289 241.846 31.108 241.538 31.85C241.244 32.578 240.817 33.208 240.257 33.74C239.697 34.258 239.018 34.664 238.22 34.958C237.436 35.252 236.561 35.399 235.595 35.399C234.615 35.399 233.733 35.252 232.949 34.958C232.165 34.664 231.5 34.258 230.954 33.74C230.408 33.208 229.988 32.578 229.694 31.85C229.4 31.108 229.253 30.289 229.253 29.393V20.132H232.823V29.099C232.823 29.505 232.872 29.89 232.97 30.254C233.082 30.618 233.243 30.947 233.453 31.241C233.677 31.521 233.964 31.745 234.314 31.913C234.678 32.081 235.112 32.165 235.616 32.165C236.12 32.165 236.547 32.081 236.897 31.913C237.261 31.745 237.555 31.521 237.779 31.241C238.003 30.947 238.164 30.618 238.262 30.254C238.36 29.89 238.409 29.505 238.409 29.099V20.132H242V29.393ZM257.987 32.942C257.329 33.698 256.517 34.3 255.551 34.748C254.585 35.182 253.472 35.399 252.212 35.399C251.064 35.399 250 35.21 249.02 34.832C248.054 34.454 247.214 33.922 246.5 33.236C245.786 32.536 245.226 31.703 244.82 30.737C244.414 29.771 244.211 28.707 244.211 27.545C244.211 26.355 244.414 25.277 244.82 24.311C245.24 23.345 245.814 22.526 246.542 21.854C247.27 21.168 248.124 20.643 249.104 20.279C250.084 19.915 251.141 19.733 252.275 19.733C253.325 19.733 254.354 19.922 255.362 20.3C256.384 20.664 257.21 21.203 257.84 21.917L255.404 24.353C255.068 23.891 254.627 23.548 254.081 23.324C253.535 23.1 252.975 22.988 252.401 22.988C251.771 22.988 251.19 23.107 250.658 23.345C250.14 23.569 249.692 23.884 249.314 24.29C248.936 24.696 248.642 25.179 248.432 25.739C248.222 26.285 248.117 26.887 248.117 27.545C248.117 28.217 248.222 28.833 248.432 29.393C248.642 29.953 248.929 30.436 249.293 30.842C249.671 31.234 250.119 31.542 250.637 31.766C251.155 31.99 251.722 32.102 252.338 32.102C253.052 32.102 253.675 31.962 254.207 31.682C254.739 31.402 255.166 31.038 255.488 30.59L257.987 32.942ZM265.766 23.198V35H262.175V23.198H257.975V20.132H269.966V23.198H265.766ZM271.605 35V20.132H275.217V35H271.605ZM293.789 27.503C293.789 28.679 293.586 29.757 293.18 30.737C292.774 31.703 292.207 32.536 291.479 33.236C290.765 33.922 289.911 34.454 288.917 34.832C287.923 35.21 286.845 35.399 285.683 35.399C284.521 35.399 283.443 35.21 282.449 34.832C281.469 34.454 280.615 33.922 279.887 33.236C279.173 32.536 278.613 31.703 278.207 30.737C277.801 29.757 277.598 28.679 277.598 27.503C277.598 26.313 277.801 25.242 278.207 24.29C278.613 23.324 279.173 22.505 279.887 21.833C280.615 21.161 281.469 20.643 282.449 20.279C283.443 19.915 284.521 19.733 285.683 19.733C286.845 19.733 287.923 19.915 288.917 20.279C289.911 20.643 290.765 21.161 291.479 21.833C292.207 22.505 292.774 23.324 293.18 24.29C293.586 25.242 293.789 26.313 293.789 27.503ZM289.946 27.503C289.946 26.859 289.841 26.257 289.631 25.697C289.421 25.137 289.127 24.661 288.749 24.269C288.385 23.863 287.937 23.548 287.405 23.324C286.887 23.086 286.313 22.967 285.683 22.967C285.053 22.967 284.479 23.086 283.961 23.324C283.443 23.548 282.995 23.863 282.617 24.269C282.239 24.661 281.945 25.137 281.735 25.697C281.539 26.257 281.441 26.859 281.441 27.503C281.441 28.175 281.546 28.798 281.756 29.372C281.966 29.932 282.253 30.415 282.617 30.821C282.995 31.227 283.443 31.549 283.961 31.787C284.479 32.011 285.053 32.123 285.683 32.123C286.313 32.123 286.887 32.011 287.405 31.787C287.923 31.549 288.371 31.227 288.749 30.821C289.127 30.415 289.421 29.932 289.631 29.372C289.841 28.798 289.946 28.175 289.946 27.503ZM305.603 35L299.618 25.277H299.555L299.639 35H296.153V20.132H300.248L306.212 29.834H306.275L306.191 20.132H309.677V35H305.603Z" fill="white"/>
<path d="M419.702 31L419.738 26.491H419.711L418.055 31H416.975L415.364 26.491H415.337L415.373 31H413.924V24.628H416.111L417.56 28.714H417.596L418.982 24.628H421.205V31H419.702ZM424.04 25.087C424.04 25.201 424.016 25.309 423.968 25.411C423.926 25.507 423.866 25.591 423.788 25.663C423.716 25.735 423.626 25.792 423.518 25.834C423.416 25.876 423.308 25.897 423.194 25.897C422.954 25.897 422.753 25.819 422.591 25.663C422.429 25.501 422.348 25.309 422.348 25.087C422.348 24.979 422.369 24.877 422.411 24.781C422.453 24.679 422.513 24.592 422.591 24.52C422.669 24.448 422.759 24.391 422.861 24.349C422.963 24.301 423.074 24.277 423.194 24.277C423.308 24.277 423.416 24.298 423.518 24.34C423.626 24.382 423.716 24.439 423.788 24.511C423.866 24.583 423.926 24.67 423.968 24.772C424.016 24.868 424.04 24.973 424.04 25.087ZM422.456 31V26.518H423.932V31H422.456ZM425.119 31V24.196H426.613V31H425.119ZM430.869 28.246C430.869 28.012 430.794 27.811 430.644 27.643C430.5 27.475 430.281 27.391 429.987 27.391C429.843 27.391 429.711 27.415 429.591 27.463C429.471 27.505 429.366 27.565 429.276 27.643C429.186 27.721 429.114 27.814 429.06 27.922C429.006 28.024 428.976 28.132 428.97 28.246H430.869ZM432.228 28.813C432.228 28.873 432.228 28.933 432.228 28.993C432.228 29.053 432.225 29.11 432.219 29.164H428.97C428.982 29.29 429.018 29.404 429.078 29.506C429.144 29.608 429.225 29.698 429.321 29.776C429.423 29.848 429.534 29.905 429.654 29.947C429.78 29.989 429.909 30.01 430.041 30.01C430.275 30.01 430.473 29.968 430.635 29.884C430.797 29.794 430.929 29.68 431.031 29.542L432.057 30.19C431.847 30.496 431.568 30.733 431.22 30.901C430.878 31.063 430.479 31.144 430.023 31.144C429.687 31.144 429.369 31.093 429.069 30.991C428.769 30.883 428.505 30.73 428.277 30.532C428.055 30.328 427.878 30.079 427.746 29.785C427.62 29.491 427.557 29.155 427.557 28.777C427.557 28.411 427.62 28.081 427.746 27.787C427.872 27.487 428.043 27.235 428.259 27.031C428.475 26.821 428.73 26.659 429.024 26.545C429.318 26.431 429.636 26.374 429.978 26.374C430.308 26.374 430.611 26.431 430.887 26.545C431.163 26.653 431.4 26.812 431.598 27.022C431.796 27.232 431.949 27.487 432.057 27.787C432.171 28.087 432.228 28.429 432.228 28.813ZM435.78 27.841C435.66 27.727 435.519 27.631 435.357 27.553C435.195 27.475 435.024 27.436 434.844 27.436C434.706 27.436 434.577 27.463 434.457 27.517C434.343 27.571 434.286 27.664 434.286 27.796C434.286 27.922 434.349 28.012 434.475 28.066C434.607 28.12 434.817 28.18 435.105 28.246C435.273 28.282 435.441 28.333 435.609 28.399C435.783 28.465 435.939 28.552 436.077 28.66C436.215 28.768 436.326 28.9 436.41 29.056C436.494 29.212 436.536 29.398 436.536 29.614C436.536 29.896 436.479 30.136 436.365 30.334C436.251 30.526 436.101 30.682 435.915 30.802C435.735 30.922 435.531 31.009 435.303 31.063C435.075 31.117 434.847 31.144 434.619 31.144C434.253 31.144 433.893 31.087 433.539 30.973C433.191 30.853 432.9 30.679 432.666 30.451L433.494 29.578C433.626 29.722 433.788 29.842 433.98 29.938C434.172 30.034 434.376 30.082 434.592 30.082C434.712 30.082 434.829 30.055 434.943 30.001C435.063 29.941 435.123 29.839 435.123 29.695C435.123 29.557 435.051 29.455 434.907 29.389C434.763 29.323 434.538 29.254 434.232 29.182C434.076 29.146 433.92 29.098 433.764 29.038C433.608 28.978 433.467 28.897 433.341 28.795C433.221 28.693 433.122 28.567 433.044 28.417C432.966 28.267 432.927 28.087 432.927 27.877C432.927 27.607 432.984 27.379 433.098 27.193C433.212 27.001 433.359 26.845 433.539 26.725C433.719 26.605 433.917 26.518 434.133 26.464C434.355 26.404 434.574 26.374 434.79 26.374C435.126 26.374 435.453 26.428 435.771 26.536C436.095 26.638 436.368 26.794 436.59 27.004L435.78 27.841ZM438.991 27.625V29.335C438.991 29.545 439.03 29.704 439.108 29.812C439.192 29.914 439.339 29.965 439.549 29.965C439.621 29.965 439.696 29.959 439.774 29.947C439.858 29.935 439.927 29.917 439.981 29.893L439.999 30.973C439.897 31.009 439.768 31.039 439.612 31.063C439.456 31.093 439.3 31.108 439.144 31.108C438.844 31.108 438.592 31.072 438.388 31C438.184 30.922 438.019 30.814 437.893 30.676C437.773 30.532 437.686 30.364 437.632 30.172C437.578 29.974 437.551 29.755 437.551 29.515V27.625H436.831V26.518H437.542V25.339H438.991V26.518H440.044V27.625H438.991ZM445.489 28.741C445.489 29.107 445.423 29.44 445.291 29.74C445.159 30.034 444.979 30.286 444.751 30.496C444.523 30.7 444.259 30.859 443.959 30.973C443.659 31.087 443.338 31.144 442.996 31.144C442.66 31.144 442.339 31.087 442.033 30.973C441.733 30.859 441.469 30.7 441.241 30.496C441.019 30.286 440.842 30.034 440.71 29.74C440.578 29.44 440.512 29.107 440.512 28.741C440.512 28.375 440.578 28.045 440.71 27.751C440.842 27.457 441.019 27.208 441.241 27.004C441.469 26.8 441.733 26.644 442.033 26.536C442.339 26.428 442.66 26.374 442.996 26.374C443.338 26.374 443.659 26.428 443.959 26.536C444.259 26.644 444.523 26.8 444.751 27.004C444.979 27.208 445.159 27.457 445.291 27.751C445.423 28.045 445.489 28.375 445.489 28.741ZM444.067 28.741C444.067 28.597 444.043 28.456 443.995 28.318C443.947 28.18 443.878 28.06 443.788 27.958C443.698 27.85 443.587 27.763 443.455 27.697C443.323 27.631 443.17 27.598 442.996 27.598C442.822 27.598 442.669 27.631 442.537 27.697C442.405 27.763 442.294 27.85 442.204 27.958C442.12 28.06 442.054 28.18 442.006 28.318C441.964 28.456 441.943 28.597 441.943 28.741C441.943 28.885 441.964 29.026 442.006 29.164C442.054 29.302 442.123 29.428 442.213 29.542C442.303 29.65 442.414 29.737 442.546 29.803C442.678 29.869 442.831 29.902 443.005 29.902C443.179 29.902 443.332 29.869 443.464 29.803C443.596 29.737 443.707 29.65 443.797 29.542C443.887 29.428 443.953 29.302 443.995 29.164C444.043 29.026 444.067 28.885 444.067 28.741ZM449.367 31V28.552C449.367 28.426 449.355 28.306 449.331 28.192C449.313 28.078 449.28 27.979 449.232 27.895C449.184 27.805 449.115 27.736 449.025 27.688C448.941 27.634 448.833 27.607 448.701 27.607C448.569 27.607 448.452 27.634 448.35 27.688C448.254 27.736 448.173 27.805 448.107 27.895C448.041 27.985 447.99 28.09 447.954 28.21C447.924 28.324 447.909 28.444 447.909 28.57V31H446.424V26.518H447.855V27.139H447.873C447.927 27.043 447.996 26.95 448.08 26.86C448.17 26.764 448.272 26.683 448.386 26.617C448.506 26.551 448.635 26.497 448.773 26.455C448.911 26.413 449.058 26.392 449.214 26.392C449.514 26.392 449.769 26.446 449.979 26.554C450.189 26.662 450.357 26.803 450.483 26.977C450.615 27.145 450.708 27.34 450.762 27.562C450.822 27.784 450.852 28.006 450.852 28.228V31H449.367ZM455.057 28.246C455.057 28.012 454.982 27.811 454.832 27.643C454.688 27.475 454.469 27.391 454.175 27.391C454.031 27.391 453.899 27.415 453.779 27.463C453.659 27.505 453.554 27.565 453.464 27.643C453.374 27.721 453.302 27.814 453.248 27.922C453.194 28.024 453.164 28.132 453.158 28.246H455.057ZM456.416 28.813C456.416 28.873 456.416 28.933 456.416 28.993C456.416 29.053 456.413 29.11 456.407 29.164H453.158C453.17 29.29 453.206 29.404 453.266 29.506C453.332 29.608 453.413 29.698 453.509 29.776C453.611 29.848 453.722 29.905 453.842 29.947C453.968 29.989 454.097 30.01 454.229 30.01C454.463 30.01 454.661 29.968 454.823 29.884C454.985 29.794 455.117 29.68 455.219 29.542L456.245 30.19C456.035 30.496 455.756 30.733 455.408 30.901C455.066 31.063 454.667 31.144 454.211 31.144C453.875 31.144 453.557 31.093 453.257 30.991C452.957 30.883 452.693 30.73 452.465 30.532C452.243 30.328 452.066 30.079 451.934 29.785C451.808 29.491 451.745 29.155 451.745 28.777C451.745 28.411 451.808 28.081 451.934 27.787C452.06 27.487 452.231 27.235 452.447 27.031C452.663 26.821 452.918 26.659 453.212 26.545C453.506 26.431 453.824 26.374 454.166 26.374C454.496 26.374 454.799 26.431 455.075 26.545C455.351 26.653 455.588 26.812 455.786 27.022C455.984 27.232 456.137 27.487 456.245 27.787C456.359 28.087 456.416 28.429 456.416 28.813ZM459.968 27.841C459.848 27.727 459.707 27.631 459.545 27.553C459.383 27.475 459.212 27.436 459.032 27.436C458.894 27.436 458.765 27.463 458.645 27.517C458.531 27.571 458.474 27.664 458.474 27.796C458.474 27.922 458.537 28.012 458.663 28.066C458.795 28.12 459.005 28.18 459.293 28.246C459.461 28.282 459.629 28.333 459.797 28.399C459.971 28.465 460.127 28.552 460.265 28.66C460.403 28.768 460.514 28.9 460.598 29.056C460.682 29.212 460.724 29.398 460.724 29.614C460.724 29.896 460.667 30.136 460.553 30.334C460.439 30.526 460.289 30.682 460.103 30.802C459.923 30.922 459.719 31.009 459.491 31.063C459.263 31.117 459.035 31.144 458.807 31.144C458.441 31.144 458.081 31.087 457.727 30.973C457.379 30.853 457.088 30.679 456.854 30.451L457.682 29.578C457.814 29.722 457.976 29.842 458.168 29.938C458.36 30.034 458.564 30.082 458.78 30.082C458.9 30.082 459.017 30.055 459.131 30.001C459.251 29.941 459.311 29.839 459.311 29.695C459.311 29.557 459.239 29.455 459.095 29.389C458.951 29.323 458.726 29.254 458.42 29.182C458.264 29.146 458.108 29.098 457.952 29.038C457.796 28.978 457.655 28.897 457.529 28.795C457.409 28.693 457.31 28.567 457.232 28.417C457.154 28.267 457.115 28.087 457.115 27.877C457.115 27.607 457.172 27.379 457.286 27.193C457.4 27.001 457.547 26.845 457.727 26.725C457.907 26.605 458.105 26.518 458.321 26.464C458.543 26.404 458.762 26.374 458.978 26.374C459.314 26.374 459.641 26.428 459.959 26.536C460.283 26.638 460.556 26.794 460.778 27.004L459.968 27.841Z" fill="white"/>
<rect x="469.302" y="20" width="59" height="15" rx="7.5" fill="#676767" fill-opacity="0.69"/>
<path d="M478.231 25.044H481.514V25.814H479.113V27.074H481.388V27.816H479.113V29.216H481.64V30H478.231V25.044ZM487.844 30H484.855C484.458 30 484.097 29.944 483.77 29.832C483.448 29.7153 483.17 29.5497 482.937 29.335C482.708 29.1157 482.531 28.8497 482.405 28.537C482.279 28.2197 482.216 27.8603 482.216 27.459C482.216 27.081 482.281 26.738 482.412 26.43C482.547 26.1173 482.734 25.849 482.972 25.625C483.21 25.401 483.49 25.2283 483.812 25.107C484.139 24.981 484.491 24.918 484.869 24.918C485.247 24.918 485.597 24.981 485.919 25.107C486.241 25.2283 486.519 25.401 486.752 25.625C486.99 25.849 487.174 26.1173 487.305 26.43C487.436 26.738 487.501 27.081 487.501 27.459C487.501 27.683 487.475 27.8883 487.424 28.075C487.373 28.2617 487.305 28.432 487.221 28.586C487.142 28.7353 487.048 28.8683 486.941 28.985C486.838 29.097 486.731 29.1927 486.619 29.272V29.286H487.844V30ZM484.869 25.709C484.631 25.709 484.407 25.7533 484.197 25.842C483.992 25.9307 483.814 26.052 483.665 26.206C483.516 26.36 483.397 26.5443 483.308 26.759C483.224 26.9737 483.182 27.207 483.182 27.459C483.182 27.725 483.222 27.9677 483.301 28.187C483.385 28.4017 483.499 28.586 483.644 28.74C483.793 28.894 483.971 29.0153 484.176 29.104C484.381 29.188 484.608 29.23 484.855 29.23C485.098 29.23 485.322 29.188 485.527 29.104C485.737 29.0153 485.917 28.894 486.066 28.74C486.215 28.586 486.332 28.4017 486.416 28.187C486.5 27.9677 486.542 27.725 486.542 27.459C486.542 27.207 486.502 26.9737 486.423 26.759C486.344 26.5443 486.229 26.36 486.08 26.206C485.935 26.052 485.76 25.9307 485.555 25.842C485.35 25.7533 485.121 25.709 484.869 25.709ZM492.412 28.18C492.412 28.4787 492.361 28.7493 492.258 28.992C492.155 29.23 492.015 29.433 491.838 29.601C491.661 29.769 491.451 29.8997 491.208 29.993C490.965 30.0817 490.702 30.126 490.417 30.126C490.132 30.126 489.869 30.0817 489.626 29.993C489.383 29.8997 489.171 29.769 488.989 29.601C488.812 29.433 488.672 29.23 488.569 28.992C488.471 28.7493 488.422 28.4787 488.422 28.18V25.044H489.304V28.145C489.304 28.2897 489.323 28.4343 489.36 28.579C489.397 28.719 489.458 28.845 489.542 28.957C489.631 29.069 489.745 29.16 489.885 29.23C490.03 29.3 490.207 29.335 490.417 29.335C490.627 29.335 490.802 29.3 490.942 29.23C491.087 29.16 491.201 29.069 491.285 28.957C491.374 28.845 491.437 28.719 491.474 28.579C491.511 28.4343 491.53 28.2897 491.53 28.145V25.044H492.412V28.18ZM493.461 25.044H494.343V30H493.461V25.044ZM495.437 25.044H497.054C497.338 25.044 497.595 25.0697 497.824 25.121C498.052 25.1723 498.248 25.2563 498.412 25.373C498.575 25.4897 498.701 25.639 498.79 25.821C498.878 26.003 498.923 26.2223 498.923 26.479C498.923 26.7543 498.871 26.9853 498.769 27.172C498.666 27.3587 498.526 27.5103 498.349 27.627C498.176 27.739 497.973 27.8207 497.74 27.872C497.506 27.9233 497.259 27.949 496.998 27.949H496.319V30H495.437V25.044ZM496.935 27.207C497.079 27.207 497.217 27.1977 497.348 27.179C497.478 27.1557 497.595 27.1183 497.698 27.067C497.8 27.011 497.882 26.9363 497.943 26.843C498.003 26.7497 498.034 26.6283 498.034 26.479C498.034 26.3343 498.003 26.2177 497.943 26.129C497.882 26.0357 497.8 25.9633 497.698 25.912C497.6 25.8607 497.485 25.828 497.355 25.814C497.229 25.7953 497.098 25.786 496.963 25.786H496.319V27.207H496.935ZM499.709 25.044H501.088L502.376 28.565H502.397L503.671 25.044H505.057V30H504.182V26.017H504.168L502.663 30H502.047L500.563 26.017H500.549V30H499.709V25.044ZM506.149 25.044H509.432V25.814H507.031V27.074H509.306V27.816H507.031V29.216H509.558V30H506.149V25.044ZM510.421 25.044H511.59L513.893 28.754H513.907V25.044H514.789V30H513.669L511.317 26.171H511.303V30H510.421V25.044ZM516.884 25.814H515.365V25.044H519.285V25.814H517.766V30H516.884V25.814Z" fill="white"/>
<rect x="533.302" y="20" width="71" height="15" rx="7.5" fill="#676767" fill-opacity="0.69"/>
<path d="M541.523 26.122C541.355 25.894 541.136 25.729 540.866 25.627C540.596 25.519 540.332 25.465 540.074 25.465C539.744 25.465 539.444 25.525 539.174 25.645C538.904 25.765 538.67 25.93 538.472 26.14C538.28 26.35 538.13 26.596 538.022 26.878C537.92 27.16 537.869 27.466 537.869 27.796C537.869 28.144 537.92 28.462 538.022 28.75C538.124 29.038 538.268 29.287 538.454 29.497C538.646 29.701 538.874 29.86 539.138 29.974C539.402 30.088 539.699 30.145 540.029 30.145C540.371 30.145 540.674 30.079 540.938 29.947C541.202 29.809 541.415 29.629 541.577 29.407L542.486 30.046C542.204 30.4 541.859 30.676 541.451 30.874C541.043 31.066 540.566 31.162 540.02 31.162C539.522 31.162 539.063 31.081 538.643 30.919C538.229 30.751 537.872 30.52 537.572 30.226C537.272 29.926 537.038 29.572 536.87 29.164C536.702 28.75 536.618 28.294 536.618 27.796C536.618 27.286 536.705 26.827 536.879 26.419C537.059 26.005 537.302 25.654 537.608 25.366C537.92 25.078 538.286 24.856 538.706 24.7C539.126 24.544 539.582 24.466 540.074 24.466C540.278 24.466 540.491 24.487 540.713 24.529C540.935 24.565 541.148 24.625 541.352 24.709C541.556 24.787 541.748 24.886 541.928 25.006C542.108 25.126 542.261 25.27 542.387 25.438L541.523 26.122ZM542.779 27.796C542.779 27.286 542.863 26.827 543.031 26.419C543.205 26.005 543.442 25.654 543.742 25.366C544.048 25.078 544.408 24.856 544.822 24.7C545.242 24.544 545.698 24.466 546.19 24.466C546.688 24.466 547.147 24.544 547.567 24.7C547.987 24.856 548.35 25.078 548.656 25.366C548.962 25.654 549.199 26.005 549.367 26.419C549.541 26.827 549.628 27.286 549.628 27.796C549.628 28.294 549.541 28.75 549.367 29.164C549.199 29.572 548.962 29.926 548.656 30.226C548.35 30.52 547.987 30.751 547.567 30.919C547.147 31.081 546.688 31.162 546.19 31.162C545.698 31.162 545.242 31.081 544.822 30.919C544.408 30.751 544.048 30.52 543.742 30.226C543.442 29.926 543.205 29.572 543.031 29.164C542.863 28.75 542.779 28.294 542.779 27.796ZM544.012 27.796C544.012 28.138 544.063 28.453 544.165 28.741C544.273 29.023 544.423 29.269 544.615 29.479C544.813 29.689 545.044 29.854 545.308 29.974C545.578 30.088 545.875 30.145 546.199 30.145C546.523 30.145 546.82 30.088 547.09 29.974C547.36 29.854 547.591 29.689 547.783 29.479C547.981 29.269 548.131 29.023 548.233 28.741C548.341 28.453 548.395 28.138 548.395 27.796C548.395 27.466 548.341 27.16 548.233 26.878C548.131 26.596 547.984 26.35 547.792 26.14C547.6 25.93 547.369 25.765 547.099 25.645C546.829 25.525 546.529 25.465 546.199 25.465C545.869 25.465 545.569 25.525 545.299 25.645C545.035 25.765 544.807 25.93 544.615 26.14C544.423 26.35 544.273 26.596 544.165 26.878C544.063 27.16 544.012 27.466 544.012 27.796ZM550.723 24.628H552.226L555.187 29.398H555.205V24.628H556.339V31H554.899L551.875 26.077H551.857V31H550.723V24.628ZM560.994 25.96C560.874 25.804 560.703 25.675 560.481 25.573C560.265 25.465 560.046 25.411 559.824 25.411C559.692 25.411 559.56 25.429 559.428 25.465C559.296 25.495 559.176 25.546 559.068 25.618C558.96 25.684 558.87 25.774 558.798 25.888C558.732 25.996 558.699 26.128 558.699 26.284C558.699 26.428 558.729 26.551 558.789 26.653C558.849 26.755 558.93 26.842 559.032 26.914C559.14 26.986 559.269 27.049 559.419 27.103C559.569 27.157 559.734 27.211 559.914 27.265C560.118 27.331 560.328 27.406 560.544 27.49C560.766 27.574 560.967 27.685 561.147 27.823C561.333 27.961 561.483 28.135 561.597 28.345C561.717 28.555 561.777 28.816 561.777 29.128C561.777 29.47 561.714 29.77 561.588 30.028C561.462 30.28 561.294 30.49 561.084 30.658C560.874 30.826 560.628 30.952 560.346 31.036C560.064 31.12 559.767 31.162 559.455 31.162C559.041 31.162 558.636 31.087 558.24 30.937C557.844 30.781 557.52 30.553 557.268 30.253L558.078 29.497C558.234 29.713 558.441 29.884 558.699 30.01C558.963 30.136 559.221 30.199 559.473 30.199C559.605 30.199 559.74 30.184 559.878 30.154C560.016 30.118 560.139 30.061 560.247 29.983C560.361 29.905 560.451 29.809 560.517 29.695C560.589 29.575 560.625 29.428 560.625 29.254C560.625 29.086 560.586 28.948 560.508 28.84C560.43 28.726 560.325 28.63 560.193 28.552C560.061 28.468 559.905 28.396 559.725 28.336C559.545 28.276 559.356 28.213 559.158 28.147C558.966 28.087 558.774 28.015 558.582 27.931C558.39 27.847 558.216 27.736 558.06 27.598C557.91 27.46 557.787 27.292 557.691 27.094C557.595 26.89 557.547 26.638 557.547 26.338C557.547 26.014 557.613 25.735 557.745 25.501C557.883 25.267 558.06 25.075 558.276 24.925C558.498 24.769 558.747 24.655 559.023 24.583C559.305 24.505 559.59 24.466 559.878 24.466C560.202 24.466 560.529 24.523 560.859 24.637C561.195 24.751 561.486 24.922 561.732 25.15L560.994 25.96ZM564.06 25.618H562.107V24.628H567.147V25.618H565.194V31H564.06V25.618ZM567.888 24.628H570.102C570.402 24.628 570.693 24.661 570.975 24.727C571.257 24.787 571.506 24.889 571.722 25.033C571.944 25.177 572.121 25.366 572.253 25.6C572.385 25.834 572.451 26.119 572.451 26.455C572.451 26.917 572.319 27.295 572.055 27.589C571.797 27.877 571.443 28.072 570.993 28.174L572.694 31H571.326L569.85 28.3H569.022V31H567.888V24.628ZM569.949 27.373C570.111 27.373 570.273 27.361 570.435 27.337C570.597 27.313 570.741 27.268 570.867 27.202C570.999 27.136 571.107 27.043 571.191 26.923C571.275 26.797 571.317 26.638 571.317 26.446C571.317 26.272 571.278 26.131 571.2 26.023C571.122 25.909 571.023 25.819 570.903 25.753C570.783 25.687 570.645 25.642 570.489 25.618C570.339 25.594 570.192 25.582 570.048 25.582H569.022V27.373H569.949ZM578.624 28.66C578.624 29.044 578.558 29.392 578.426 29.704C578.294 30.01 578.114 30.271 577.886 30.487C577.658 30.703 577.388 30.871 577.076 30.991C576.764 31.105 576.425 31.162 576.059 31.162C575.693 31.162 575.354 31.105 575.042 30.991C574.73 30.871 574.457 30.703 574.223 30.487C573.995 30.271 573.815 30.01 573.683 29.704C573.557 29.392 573.494 29.044 573.494 28.66V24.628H574.628V28.615C574.628 28.801 574.652 28.987 574.7 29.173C574.748 29.353 574.826 29.515 574.934 29.659C575.048 29.803 575.195 29.92 575.375 30.01C575.561 30.1 575.789 30.145 576.059 30.145C576.329 30.145 576.554 30.1 576.734 30.01C576.92 29.92 577.067 29.803 577.175 29.659C577.289 29.515 577.37 29.353 577.418 29.173C577.466 28.987 577.49 28.801 577.49 28.615V24.628H578.624V28.66ZM584.572 26.122C584.404 25.894 584.185 25.729 583.915 25.627C583.645 25.519 583.381 25.465 583.123 25.465C582.793 25.465 582.493 25.525 582.223 25.645C581.953 25.765 581.719 25.93 581.521 26.14C581.329 26.35 581.179 26.596 581.071 26.878C580.969 27.16 580.918 27.466 580.918 27.796C580.918 28.144 580.969 28.462 581.071 28.75C581.173 29.038 581.317 29.287 581.503 29.497C581.695 29.701 581.923 29.86 582.187 29.974C582.451 30.088 582.748 30.145 583.078 30.145C583.42 30.145 583.723 30.079 583.987 29.947C584.251 29.809 584.464 29.629 584.626 29.407L585.535 30.046C585.253 30.4 584.908 30.676 584.5 30.874C584.092 31.066 583.615 31.162 583.069 31.162C582.571 31.162 582.112 31.081 581.692 30.919C581.278 30.751 580.921 30.52 580.621 30.226C580.321 29.926 580.087 29.572 579.919 29.164C579.751 28.75 579.667 28.294 579.667 27.796C579.667 27.286 579.754 26.827 579.928 26.419C580.108 26.005 580.351 25.654 580.657 25.366C580.969 25.078 581.335 24.856 581.755 24.7C582.175 24.544 582.631 24.466 583.123 24.466C583.327 24.466 583.54 24.487 583.762 24.529C583.984 24.565 584.197 24.625 584.401 24.709C584.605 24.787 584.797 24.886 584.977 25.006C585.157 25.126 585.31 25.27 585.436 25.438L584.572 26.122ZM587.474 25.618H585.521V24.628H590.561V25.618H588.608V31H587.474V25.618ZM591.302 24.628H592.436V31H591.302V24.628ZM593.536 27.796C593.536 27.286 593.62 26.827 593.788 26.419C593.962 26.005 594.199 25.654 594.499 25.366C594.805 25.078 595.165 24.856 595.579 24.7C595.999 24.544 596.455 24.466 596.947 24.466C597.445 24.466 597.904 24.544 598.324 24.7C598.744 24.856 599.107 25.078 599.413 25.366C599.719 25.654 599.956 26.005 600.124 26.419C600.298 26.827 600.385 27.286 600.385 27.796C600.385 28.294 600.298 28.75 600.124 29.164C599.956 29.572 599.719 29.926 599.413 30.226C599.107 30.52 598.744 30.751 598.324 30.919C597.904 31.081 597.445 31.162 596.947 31.162C596.455 31.162 595.999 31.081 595.579 30.919C595.165 30.751 594.805 30.52 594.499 30.226C594.199 29.926 593.962 29.572 593.788 29.164C593.62 28.75 593.536 28.294 593.536 27.796ZM594.769 27.796C594.769 28.138 594.82 28.453 594.922 28.741C595.03 29.023 595.18 29.269 595.372 29.479C595.57 29.689 595.801 29.854 596.065 29.974C596.335 30.088 596.632 30.145 596.956 30.145C597.28 30.145 597.577 30.088 597.847 29.974C598.117 29.854 598.348 29.689 598.54 29.479C598.738 29.269 598.888 29.023 598.99 28.741C599.098 28.453 599.152 28.138 599.152 27.796C599.152 27.466 599.098 27.16 598.99 26.878C598.888 26.596 598.741 26.35 598.549 26.14C598.357 25.93 598.126 25.765 597.856 25.645C597.586 25.525 597.286 25.465 596.956 25.465C596.626 25.465 596.326 25.525 596.056 25.645C595.792 25.765 595.564 25.93 595.372 26.14C595.18 26.35 595.03 26.596 594.922 26.878C594.82 27.16 594.769 27.466 594.769 27.796ZM565.691 44.628H567.194L570.155 49.398H570.173V44.628H571.307V51H569.867L566.843 46.077H566.825V51H565.691V44.628Z" fill="white"/>
<rect x="609.302" y="20" width="104" height="15" rx="7.5" fill="#676767" fill-opacity="0.69"/>
<path d="M627.446 24.628H629.525C629.891 24.628 630.221 24.661 630.515 24.727C630.809 24.793 631.061 24.901 631.271 25.051C631.481 25.201 631.643 25.393 631.757 25.627C631.871 25.861 631.928 26.143 631.928 26.473C631.928 26.827 631.862 27.124 631.73 27.364C631.598 27.604 631.418 27.799 631.19 27.949C630.968 28.093 630.707 28.198 630.407 28.264C630.107 28.33 629.789 28.363 629.453 28.363H628.58V31H627.446V24.628ZM629.372 27.409C629.558 27.409 629.735 27.397 629.903 27.373C630.071 27.343 630.221 27.295 630.353 27.229C630.485 27.157 630.59 27.061 630.668 26.941C630.746 26.821 630.785 26.665 630.785 26.473C630.785 26.287 630.746 26.137 630.668 26.023C630.59 25.903 630.485 25.81 630.353 25.744C630.227 25.678 630.08 25.636 629.912 25.618C629.75 25.594 629.582 25.582 629.408 25.582H628.58V27.409H629.372ZM632.939 24.628H637.16V25.618H634.073V27.238H636.998V28.192H634.073V29.992H637.322V31H632.939V24.628ZM638.432 24.628H640.646C640.946 24.628 641.237 24.661 641.519 24.727C641.801 24.787 642.05 24.889 642.266 25.033C642.488 25.177 642.665 25.366 642.797 25.6C642.929 25.834 642.995 26.119 642.995 26.455C642.995 26.917 642.863 27.295 642.599 27.589C642.341 27.877 641.987 28.072 641.537 28.174L643.238 31H641.87L640.394 28.3H639.566V31H638.432V24.628ZM640.493 27.373C640.655 27.373 640.817 27.361 640.979 27.337C641.141 27.313 641.285 27.268 641.411 27.202C641.543 27.136 641.651 27.043 641.735 26.923C641.819 26.797 641.861 26.638 641.861 26.446C641.861 26.272 641.822 26.131 641.744 26.023C641.666 25.909 641.567 25.819 641.447 25.753C641.327 25.687 641.189 25.642 641.033 25.618C640.883 25.594 640.736 25.582 640.592 25.582H639.566V27.373H640.493ZM644.092 24.628H645.865L647.521 29.155H647.548L649.186 24.628H650.968V31H649.843V25.879H649.825L647.89 31H647.098L645.19 25.879H645.172V31H644.092V24.628ZM652.371 24.628H653.505V31H652.371V24.628ZM658.16 25.96C658.04 25.804 657.869 25.675 657.647 25.573C657.431 25.465 657.212 25.411 656.99 25.411C656.858 25.411 656.726 25.429 656.594 25.465C656.462 25.495 656.342 25.546 656.234 25.618C656.126 25.684 656.036 25.774 655.964 25.888C655.898 25.996 655.865 26.128 655.865 26.284C655.865 26.428 655.895 26.551 655.955 26.653C656.015 26.755 656.096 26.842 656.198 26.914C656.306 26.986 656.435 27.049 656.585 27.103C656.735 27.157 656.9 27.211 657.08 27.265C657.284 27.331 657.494 27.406 657.71 27.49C657.932 27.574 658.133 27.685 658.313 27.823C658.499 27.961 658.649 28.135 658.763 28.345C658.883 28.555 658.943 28.816 658.943 29.128C658.943 29.47 658.88 29.77 658.754 30.028C658.628 30.28 658.46 30.49 658.25 30.658C658.04 30.826 657.794 30.952 657.512 31.036C657.23 31.12 656.933 31.162 656.621 31.162C656.207 31.162 655.802 31.087 655.406 30.937C655.01 30.781 654.686 30.553 654.434 30.253L655.244 29.497C655.4 29.713 655.607 29.884 655.865 30.01C656.129 30.136 656.387 30.199 656.639 30.199C656.771 30.199 656.906 30.184 657.044 30.154C657.182 30.118 657.305 30.061 657.413 29.983C657.527 29.905 657.617 29.809 657.683 29.695C657.755 29.575 657.791 29.428 657.791 29.254C657.791 29.086 657.752 28.948 657.674 28.84C657.596 28.726 657.491 28.63 657.359 28.552C657.227 28.468 657.071 28.396 656.891 28.336C656.711 28.276 656.522 28.213 656.324 28.147C656.132 28.087 655.94 28.015 655.748 27.931C655.556 27.847 655.382 27.736 655.226 27.598C655.076 27.46 654.953 27.292 654.857 27.094C654.761 26.89 654.713 26.638 654.713 26.338C654.713 26.014 654.779 25.735 654.911 25.501C655.049 25.267 655.226 25.075 655.442 24.925C655.664 24.769 655.913 24.655 656.189 24.583C656.471 24.505 656.756 24.466 657.044 24.466C657.368 24.466 657.695 24.523 658.025 24.637C658.361 24.751 658.652 24.922 658.898 25.15L658.16 25.96ZM663.328 25.96C663.208 25.804 663.037 25.675 662.815 25.573C662.599 25.465 662.38 25.411 662.158 25.411C662.026 25.411 661.894 25.429 661.762 25.465C661.63 25.495 661.51 25.546 661.402 25.618C661.294 25.684 661.204 25.774 661.132 25.888C661.066 25.996 661.033 26.128 661.033 26.284C661.033 26.428 661.063 26.551 661.123 26.653C661.183 26.755 661.264 26.842 661.366 26.914C661.474 26.986 661.603 27.049 661.753 27.103C661.903 27.157 662.068 27.211 662.248 27.265C662.452 27.331 662.662 27.406 662.878 27.49C663.1 27.574 663.301 27.685 663.481 27.823C663.667 27.961 663.817 28.135 663.931 28.345C664.051 28.555 664.111 28.816 664.111 29.128C664.111 29.47 664.048 29.77 663.922 30.028C663.796 30.28 663.628 30.49 663.418 30.658C663.208 30.826 662.962 30.952 662.68 31.036C662.398 31.12 662.101 31.162 661.789 31.162C661.375 31.162 660.97 31.087 660.574 30.937C660.178 30.781 659.854 30.553 659.602 30.253L660.412 29.497C660.568 29.713 660.775 29.884 661.033 30.01C661.297 30.136 661.555 30.199 661.807 30.199C661.939 30.199 662.074 30.184 662.212 30.154C662.35 30.118 662.473 30.061 662.581 29.983C662.695 29.905 662.785 29.809 662.851 29.695C662.923 29.575 662.959 29.428 662.959 29.254C662.959 29.086 662.92 28.948 662.842 28.84C662.764 28.726 662.659 28.63 662.527 28.552C662.395 28.468 662.239 28.396 662.059 28.336C661.879 28.276 661.69 28.213 661.492 28.147C661.3 28.087 661.108 28.015 660.916 27.931C660.724 27.847 660.55 27.736 660.394 27.598C660.244 27.46 660.121 27.292 660.025 27.094C659.929 26.89 659.881 26.638 659.881 26.338C659.881 26.014 659.947 25.735 660.079 25.501C660.217 25.267 660.394 25.075 660.61 24.925C660.832 24.769 661.081 24.655 661.357 24.583C661.639 24.505 661.924 24.466 662.212 24.466C662.536 24.466 662.863 24.523 663.193 24.637C663.529 24.751 663.82 24.922 664.066 25.15L663.328 25.96ZM665.247 24.628H666.381V31H665.247V24.628ZM667.481 27.796C667.481 27.286 667.565 26.827 667.733 26.419C667.907 26.005 668.144 25.654 668.444 25.366C668.75 25.078 669.11 24.856 669.524 24.7C669.944 24.544 670.4 24.466 670.892 24.466C671.39 24.466 671.849 24.544 672.269 24.7C672.689 24.856 673.052 25.078 673.358 25.366C673.664 25.654 673.901 26.005 674.069 26.419C674.243 26.827 674.33 27.286 674.33 27.796C674.33 28.294 674.243 28.75 674.069 29.164C673.901 29.572 673.664 29.926 673.358 30.226C673.052 30.52 672.689 30.751 672.269 30.919C671.849 31.081 671.39 31.162 670.892 31.162C670.4 31.162 669.944 31.081 669.524 30.919C669.11 30.751 668.75 30.52 668.444 30.226C668.144 29.926 667.907 29.572 667.733 29.164C667.565 28.75 667.481 28.294 667.481 27.796ZM668.714 27.796C668.714 28.138 668.765 28.453 668.867 28.741C668.975 29.023 669.125 29.269 669.317 29.479C669.515 29.689 669.746 29.854 670.01 29.974C670.28 30.088 670.577 30.145 670.901 30.145C671.225 30.145 671.522 30.088 671.792 29.974C672.062 29.854 672.293 29.689 672.485 29.479C672.683 29.269 672.833 29.023 672.935 28.741C673.043 28.453 673.097 28.138 673.097 27.796C673.097 27.466 673.043 27.16 672.935 26.878C672.833 26.596 672.686 26.35 672.494 26.14C672.302 25.93 672.071 25.765 671.801 25.645C671.531 25.525 671.231 25.465 670.901 25.465C670.571 25.465 670.271 25.525 670.001 25.645C669.737 25.765 669.509 25.93 669.317 26.14C669.125 26.35 668.975 26.596 668.867 26.878C668.765 27.16 668.714 27.466 668.714 27.796ZM675.425 24.628H676.928L679.889 29.398H679.907V24.628H681.041V31H679.601L676.577 26.077H676.559V31H675.425V24.628ZM685.765 25.618H683.812V24.628H688.852V25.618H686.899V31H685.765V25.618ZM689.015 27.796C689.015 27.286 689.099 26.827 689.267 26.419C689.441 26.005 689.678 25.654 689.978 25.366C690.284 25.078 690.644 24.856 691.058 24.7C691.478 24.544 691.934 24.466 692.426 24.466C692.924 24.466 693.383 24.544 693.803 24.7C694.223 24.856 694.586 25.078 694.892 25.366C695.198 25.654 695.435 26.005 695.603 26.419C695.777 26.827 695.864 27.286 695.864 27.796C695.864 28.294 695.777 28.75 695.603 29.164C695.435 29.572 695.198 29.926 694.892 30.226C694.586 30.52 694.223 30.751 693.803 30.919C693.383 31.081 692.924 31.162 692.426 31.162C691.934 31.162 691.478 31.081 691.058 30.919C690.644 30.751 690.284 30.52 689.978 30.226C689.678 29.926 689.441 29.572 689.267 29.164C689.099 28.75 689.015 28.294 689.015 27.796ZM690.248 27.796C690.248 28.138 690.299 28.453 690.401 28.741C690.509 29.023 690.659 29.269 690.851 29.479C691.049 29.689 691.28 29.854 691.544 29.974C691.814 30.088 692.111 30.145 692.435 30.145C692.759 30.145 693.056 30.088 693.326 29.974C693.596 29.854 693.827 29.689 694.019 29.479C694.217 29.269 694.367 29.023 694.469 28.741C694.577 28.453 694.631 28.138 694.631 27.796C694.631 27.466 694.577 27.16 694.469 26.878C694.367 26.596 694.22 26.35 694.028 26.14C693.836 25.93 693.605 25.765 693.335 25.645C693.065 25.525 692.765 25.465 692.435 25.465C692.105 25.465 691.805 25.525 691.535 25.645C691.271 25.765 691.043 25.93 690.851 26.14C690.659 26.35 690.509 26.596 690.401 26.878C690.299 27.16 690.248 27.466 690.248 27.796ZM641.541 47.796C641.541 47.286 641.625 46.827 641.793 46.419C641.967 46.005 642.204 45.654 642.504 45.366C642.81 45.078 643.17 44.856 643.584 44.7C644.004 44.544 644.46 44.466 644.952 44.466C645.45 44.466 645.909 44.544 646.329 44.7C646.749 44.856 647.112 45.078 647.418 45.366C647.724 45.654 647.961 46.005 648.129 46.419C648.303 46.827 648.39 47.286 648.39 47.796C648.39 48.294 648.303 48.75 648.129 49.164C647.961 49.572 647.724 49.926 647.418 50.226C647.112 50.52 646.749 50.751 646.329 50.919C645.909 51.081 645.45 51.162 644.952 51.162C644.46 51.162 644.004 51.081 643.584 50.919C643.17 50.751 642.81 50.52 642.504 50.226C642.204 49.926 641.967 49.572 641.793 49.164C641.625 48.75 641.541 48.294 641.541 47.796ZM642.774 47.796C642.774 48.138 642.825 48.453 642.927 48.741C643.035 49.023 643.185 49.269 643.377 49.479C643.575 49.689 643.806 49.854 644.07 49.974C644.34 50.088 644.637 50.145 644.961 50.145C645.285 50.145 645.582 50.088 645.852 49.974C646.122 49.854 646.353 49.689 646.545 49.479C646.743 49.269 646.893 49.023 646.995 48.741C647.103 48.453 647.157 48.138 647.157 47.796C647.157 47.466 647.103 47.16 646.995 46.878C646.893 46.596 646.746 46.35 646.554 46.14C646.362 45.93 646.131 45.765 645.861 45.645C645.591 45.525 645.291 45.465 644.961 45.465C644.631 45.465 644.331 45.525 644.061 45.645C643.797 45.765 643.569 45.93 643.377 46.14C643.185 46.35 643.035 46.596 642.927 46.878C642.825 47.16 642.774 47.466 642.774 47.796ZM649.484 44.628H651.563C651.929 44.628 652.259 44.661 652.553 44.727C652.847 44.793 653.099 44.901 653.309 45.051C653.519 45.201 653.681 45.393 653.795 45.627C653.909 45.861 653.966 46.143 653.966 46.473C653.966 46.827 653.9 47.124 653.768 47.364C653.636 47.604 653.456 47.799 653.228 47.949C653.006 48.093 652.745 48.198 652.445 48.264C652.145 48.33 651.827 48.363 651.491 48.363H650.618V51H649.484V44.628ZM651.41 47.409C651.596 47.409 651.773 47.397 651.941 47.373C652.109 47.343 652.259 47.295 652.391 47.229C652.523 47.157 652.628 47.061 652.706 46.941C652.784 46.821 652.823 46.665 652.823 46.473C652.823 46.287 652.784 46.137 652.706 46.023C652.628 45.903 652.523 45.81 652.391 45.744C652.265 45.678 652.118 45.636 651.95 45.618C651.788 45.594 651.62 45.582 651.446 45.582H650.618V47.409H651.41ZM654.977 44.628H659.198V45.618H656.111V47.238H659.036V48.192H656.111V49.992H659.36V51H654.977V44.628ZM660.471 44.628H662.685C662.985 44.628 663.276 44.661 663.558 44.727C663.84 44.787 664.089 44.889 664.305 45.033C664.527 45.177 664.704 45.366 664.836 45.6C664.968 45.834 665.034 46.119 665.034 46.455C665.034 46.917 664.902 47.295 664.638 47.589C664.38 47.877 664.026 48.072 663.576 48.174L665.277 51H663.909L662.433 48.3H661.605V51H660.471V44.628ZM662.532 47.373C662.694 47.373 662.856 47.361 663.018 47.337C663.18 47.313 663.324 47.268 663.45 47.202C663.582 47.136 663.69 47.043 663.774 46.923C663.858 46.797 663.9 46.638 663.9 46.446C663.9 46.272 663.861 46.131 663.783 46.023C663.705 45.909 663.606 45.819 663.486 45.753C663.366 45.687 663.228 45.642 663.072 45.618C662.922 45.594 662.775 45.582 662.631 45.582H661.605V47.373H662.532ZM668.129 44.628H669.11L671.855 51H670.559L669.965 49.542H667.202L666.626 51H665.357L668.129 44.628ZM669.569 48.57L668.588 45.978L667.589 48.57H669.569ZM673.236 45.618H671.283V44.628H676.323V45.618H674.37V51H673.236V45.618ZM677.064 44.628H681.285V45.618H678.198V47.238H681.123V48.192H678.198V49.992H681.447V51H677.064V44.628Z" fill="white"/>
</svg>
