<svg width="731" height="54" viewBox="0 0 731 54" fill="none" xmlns="http://www.w3.org/2000/svg">
<rect width="731" height="53" fill="#242424"/>
<mask id="mask0_229:524" style="mask-type:alpha" maskUnits="userSpaceOnUse" x="0" y="0" width="233" height="27">
<path fill-rule="evenodd" clip-rule="evenodd" d="M0.582031 0.169922H232.926V26.6901H0.582031V0.169922Z" fill="white"/>
</mask>
<g mask="url(#mask0_229:524)">
<path fill-rule="evenodd" clip-rule="evenodd" d="M227.278 11.611C209.934 12.641 190.44 7.72799 169.918 2.55599C144.276 -3.906 117.763 -10.591 90.7992 -7.496C63.8892 -4.395 38.6122 4.967 16.3102 13.228C-2.10284 20.048 -18.0108 25.94 -30.6008 26.687C-30.6188 26.688 -30.6348 26.689 -30.6538 26.69L-30.7148 25.641C-30.6978 25.64 -30.6798 25.639 -30.6628 25.638C-18.1958 24.898 -2.34384 19.027 16.0082 12.229C38.3542 3.95199 63.6822 -5.429 90.6912 -8.541C117.806 -11.654 144.394 -4.949 170.108 1.531C192.807 7.252 214.252 12.651 232.796 10.006L232.926 11.047C231.071 11.312 229.186 11.497 227.278 11.611Z" fill="#00B0C7"/>
</g>
<mask id="mask1_229:524" style="mask-type:alpha" maskUnits="userSpaceOnUse" x="0" y="1" width="219" height="37">
<path fill-rule="evenodd" clip-rule="evenodd" d="M0.582031 1.46875H218.639V37.4838H0.582031V1.46875Z" fill="white"/>
</mask>
<g mask="url(#mask1_229:524)">
<path fill-rule="evenodd" clip-rule="evenodd" d="M212.994 22.4038C195.652 23.4338 176.157 18.5208 155.636 13.3498C129.994 6.88783 103.485 0.203832 76.514 3.29783C49.606 6.39783 24.33 15.7598 2.029 24.0208C-16.385 30.8408 -32.292 36.7328 -44.882 37.4798C-44.901 37.4818 -44.92 37.4828 -44.939 37.4838L-45 36.4348C-44.982 36.4338 -44.963 36.4328 -44.944 36.4308C-32.477 35.6918 -16.625 29.8198 1.727 23.0228C24.072 14.7458 49.399 5.36483 76.407 2.25283C103.514 -0.854168 130.111 5.84383 155.827 12.3248C178.523 18.0438 199.961 23.4458 218.509 20.7988L218.639 21.8408C216.785 22.1058 214.902 22.2908 212.994 22.4038Z" fill="#00B0C7"/>
</g>
<mask id="mask2_229:524" style="mask-type:alpha" maskUnits="userSpaceOnUse" x="0" y="10" width="235" height="37">
<path fill-rule="evenodd" clip-rule="evenodd" d="M0.582031 10.4971H234.102V46.5104H0.582031V10.4971Z" fill="white"/>
</mask>
<g mask="url(#mask2_229:524)">
<path fill-rule="evenodd" clip-rule="evenodd" d="M228.453 31.4314C211.109 32.4604 191.614 27.5484 171.094 22.3764C145.452 15.9154 118.94 9.23245 91.9749 12.3254C65.0659 15.4244 39.7899 24.7874 17.4889 33.0484C-0.923063 39.8684 -16.8301 45.7594 -29.4191 46.5064C-29.4391 46.5084 -29.4581 46.5094 -29.4781 46.5104L-29.5391 45.4614C-29.5201 45.4604 -29.5001 45.4594 -29.4811 45.4574C-17.0151 44.7184 -1.16306 38.8474 17.1869 32.0494C39.5329 23.7724 64.8589 14.3914 91.8679 11.2804C118.979 8.17545 145.57 14.8714 171.284 21.3514C193.982 27.0724 215.423 32.4704 233.972 29.8264L234.102 30.8674C232.246 31.1324 230.363 31.3184 228.453 31.4314Z" fill="#00B0C7"/>
</g>
<mask id="mask3_229:524" style="mask-type:alpha" maskUnits="userSpaceOnUse" x="0" y="19" width="250" height="35">
<path fill-rule="evenodd" clip-rule="evenodd" d="M0.582031 19.5239H249.56V53.17H0.582031V19.5239Z" fill="white"/>
</mask>
<g mask="url(#mask3_229:524)">
<path fill-rule="evenodd" clip-rule="evenodd" d="M243.909 40.4574C226.567 41.4874 207.074 36.5744 186.554 31.4034C160.913 24.9404 134.398 18.2554 107.435 21.3524C80.5269 24.4514 55.2499 33.8144 32.9499 42.0744C14.5369 48.8944 -1.37008 54.7864 -13.9601 55.5334C-13.9801 55.5344 -13.9991 55.5354 -14.0181 55.5364L-14.0801 54.4874C-14.0611 54.4864 -14.0411 54.4854 -14.0221 54.4844C-1.55508 53.7444 14.2969 47.8734 32.6479 41.0754C54.9929 32.7994 80.3199 23.4184 107.327 20.3074C134.431 17.2024 161.03 23.8974 186.745 30.3784C209.443 36.0984 230.883 41.4954 249.429 38.8524L249.559 39.8934C247.703 40.1594 245.819 40.3444 243.909 40.4574Z" fill="#00B0C7"/>
</g>
<mask id="mask4_229:524" style="mask-type:alpha" maskUnits="userSpaceOnUse" x="1" y="28" width="265" height="26">
<path fill-rule="evenodd" clip-rule="evenodd" d="M1.38281 28.5488H265.025V53.1698H1.38281V28.5488Z" fill="white"/>
</mask>
<g mask="url(#mask4_229:524)">
<path fill-rule="evenodd" clip-rule="evenodd" d="M259.377 49.487C242.032 50.517 222.537 45.603 202.014 40.432C176.374 33.97 149.855 27.287 122.898 30.381C95.9858 33.479 70.7068 42.843 48.4038 51.104C29.9928 57.924 14.0868 63.816 1.49781 64.563C1.47881 64.564 1.46281 64.565 1.44381 64.566L1.38281 63.517C1.40081 63.516 1.41781 63.515 1.43581 63.514C13.9018 62.775 29.7528 56.904 48.1018 50.106C70.4498 41.828 95.7778 32.446 122.79 29.335C149.904 26.222 176.492 32.927 202.205 39.407C224.904 45.127 246.342 50.53 264.895 47.882L265.025 48.924C263.17 49.188 261.286 49.373 259.377 49.487Z" fill="#00B0C7"/>
</g>
<mask id="mask5_229:524" style="mask-type:alpha" maskUnits="userSpaceOnUse" x="218" y="0" width="265" height="22">
<path fill-rule="evenodd" clip-rule="evenodd" d="M218.389 0.169922H482.075V21.8538H218.389V0.169922Z" fill="white"/>
</mask>
<g mask="url(#mask5_229:524)">
<path fill-rule="evenodd" clip-rule="evenodd" d="M476.429 6.77079C459.085 7.80079 439.581 2.88779 419.05 -2.28221C393.395 -8.74321 366.87 -15.4262 339.903 -12.3322C312.995 -9.23221 287.719 0.129787 265.418 8.39079C247.004 15.2108 231.097 21.1028 218.507 21.8498C218.487 21.8518 218.469 21.8528 218.45 21.8538L218.389 20.8048C218.407 20.8038 218.426 20.8018 218.445 20.8008C230.912 20.0618 246.764 14.1888 265.116 7.39279C287.461 -0.884214 312.788 -10.2652 339.796 -13.3772C366.91 -16.4892 393.513 -9.78621 419.241 -3.30721C441.949 2.41179 463.396 7.81479 481.946 5.16679L482.075 6.20779C480.221 6.47279 478.337 6.65779 476.429 6.77079Z" fill="#00B0C7"/>
</g>
<mask id="mask6_229:524" style="mask-type:alpha" maskUnits="userSpaceOnUse" x="233" y="0" width="265" height="31">
<path fill-rule="evenodd" clip-rule="evenodd" d="M233.85 0.169922H497.538V30.8806H233.85V0.169922Z" fill="white"/>
</mask>
<g mask="url(#mask6_229:524)">
<path fill-rule="evenodd" clip-rule="evenodd" d="M491.889 15.7986C474.543 16.8276 455.038 11.9156 434.508 6.7446C408.854 0.283602 382.332 -6.3954 355.364 -3.3044C328.455 -0.205398 303.179 9.1576 280.878 17.4186C262.466 24.2376 246.559 30.1296 233.97 30.8766C233.95 30.8786 233.931 30.8796 233.911 30.8806L233.85 29.8316C233.869 29.8306 233.888 29.8296 233.907 29.8276C246.374 29.0886 262.226 23.2166 280.576 16.4196C302.921 8.1426 328.248 -1.2384 355.256 -4.3494C382.369 -7.4584 408.971 -0.759398 434.698 5.7206C457.408 11.4406 478.852 16.8426 497.408 14.1936L497.538 15.2346C495.682 15.4996 493.798 15.6856 491.889 15.7986Z" fill="#00B0C7"/>
</g>
<path fill-rule="evenodd" clip-rule="evenodd" d="M506.365 24.9246C489.068 25.9531 469.621 21.0442 449.15 15.8765C423.562 9.4163 397.106 2.73821 370.198 5.82986C343.36 8.92852 318.15 18.2864 295.907 26.5429C277.543 33.3599 261.677 39.2493 249.119 39.996C249.099 39.997 249.081 39.998 249.061 40L249 38.9515C249.019 38.9495 249.038 38.9485 249.057 38.9475C261.491 38.2078 277.302 32.3393 295.605 25.5453C317.892 17.2719 343.153 7.89497 370.09 4.78632C397.149 1.67367 423.679 8.37476 449.339 14.8519C471.984 20.5675 493.375 25.9621 511.87 23.3193L512 24.3608C510.149 24.6257 508.269 24.8116 506.365 24.9246Z" fill="#00B0C7"/>
<path fill-rule="evenodd" clip-rule="evenodd" d="M522.368 33.9239C505.07 34.9534 485.629 30.0447 465.162 24.8771C439.576 18.417 413.112 11.7381 386.197 14.8297C359.356 17.9272 334.143 27.286 311.898 35.5442C293.535 42.36 277.671 48.2503 265.115 48.997C265.096 48.998 265.08 48.999 265.062 49L265 47.9515C265.018 47.9505 265.035 47.9495 265.053 47.9485C277.486 47.2088 293.296 41.3395 311.597 34.5466C333.887 26.2724 359.149 16.8937 386.09 13.7851C413.157 10.6756 439.692 17.3745 465.352 23.8525C487.989 29.5679 509.369 34.9654 527.871 32.3196L528 33.3612C526.151 33.626 524.27 33.811 522.368 33.9239Z" fill="#00B0C7"/>
<mask id="mask7_229:524" style="mask-type:alpha" maskUnits="userSpaceOnUse" x="249" y="23" width="265" height="31">
<path fill-rule="evenodd" clip-rule="evenodd" d="M249.484 23.7139H513.17V53.1699H249.484V23.7139Z" fill="white"/>
</mask>
<g mask="url(#mask7_229:524)">
<path fill-rule="evenodd" clip-rule="evenodd" d="M507.525 44.6473C490.182 45.6773 470.682 40.7643 450.157 35.5943C424.502 29.1323 397.97 22.4503 370.998 25.5433C344.09 28.6433 318.813 38.0053 296.512 46.2663C278.098 53.0873 262.191 58.9793 249.601 59.7263C249.582 59.7273 249.564 59.7283 249.545 59.7303L249.484 58.6813C249.502 58.6793 249.521 58.6783 249.538 58.6773C262.006 57.9383 277.858 52.0653 296.21 45.2683C318.556 36.9913 343.882 27.6093 370.89 24.4983C398.016 21.3903 424.62 28.0893 450.347 34.5693C473.049 40.2893 494.489 45.6893 513.041 43.0423L513.17 44.0843C511.316 44.3493 509.433 44.5343 507.525 44.6473Z" fill="#00B0C7"/>
</g>
<mask id="mask8_229:524" style="mask-type:alpha" maskUnits="userSpaceOnUse" x="511" y="0" width="220" height="25">
<path fill-rule="evenodd" clip-rule="evenodd" d="M511.744 0.169922H730.583V24.2741H511.744V0.169922Z" fill="white"/>
</mask>
<g mask="url(#mask8_229:524)">
<path fill-rule="evenodd" clip-rule="evenodd" d="M769.733 9.19504C752.391 10.224 732.898 5.31204 712.378 0.140041C686.736 -6.32196 660.224 -13.005 633.257 -9.90996C606.349 -6.81096 581.073 2.55104 558.772 10.811C540.359 17.632 524.453 23.523 511.863 24.27C511.843 24.271 511.824 24.273 511.804 24.274L511.744 23.225C511.763 23.223 511.782 23.222 511.801 23.221C524.267 22.482 540.119 16.61 558.47 9.81304C580.815 1.53704 606.141 -7.84396 633.15 -10.955C660.259 -14.061 686.853 -7.36496 712.568 -0.884958C735.266 4.83604 756.71 10.233 775.253 7.58904L775.383 8.63104C773.527 8.89604 771.642 9.08104 769.733 9.19504Z" fill="#00B0C7"/>
</g>
<mask id="mask9_229:524" style="mask-type:alpha" maskUnits="userSpaceOnUse" x="527" y="0" width="204" height="34">
<path fill-rule="evenodd" clip-rule="evenodd" d="M527.205 0.169922H730.584V33.3039H527.205V0.169922Z" fill="white"/>
</mask>
<g mask="url(#mask9_229:524)">
<path fill-rule="evenodd" clip-rule="evenodd" d="M785.2 18.2251C767.854 19.2551 748.36 14.3411 727.837 9.17012C702.197 2.70812 675.694 -3.97088 648.721 -0.881884C621.808 2.21712 596.529 11.5801 574.226 19.8421C555.815 26.6621 539.908 32.5541 527.319 33.3011C527.301 33.3021 527.285 33.3031 527.266 33.3041L527.205 32.2551C527.222 32.2541 527.24 32.2531 527.257 32.2521C539.723 31.5121 555.574 25.6411 573.924 18.8441C596.271 10.5661 621.601 1.18312 648.613 -1.92688C675.725 -5.02988 702.315 1.66512 728.028 8.14412C750.727 13.8641 772.161 19.2641 790.719 16.6191L790.848 17.6611C788.993 17.9261 787.108 18.1111 785.2 18.2251Z" fill="#00B0C7"/>
</g>
<mask id="mask10_229:524" style="mask-type:alpha" maskUnits="userSpaceOnUse" x="512" y="8" width="219" height="37">
<path fill-rule="evenodd" clip-rule="evenodd" d="M512.92 8.08203H730.583V44.0973H512.92V8.08203Z" fill="white"/>
</mask>
<g mask="url(#mask10_229:524)">
<path fill-rule="evenodd" clip-rule="evenodd" d="M770.914 29.0173C753.571 30.0473 734.076 25.1343 713.555 19.9623C687.913 13.5003 661.4 6.81133 634.434 9.91033C607.525 13.0103 582.249 22.3733 559.947 30.6333C541.533 37.4543 525.626 43.3463 513.036 44.0933C513.018 44.0943 513 44.0963 512.981 44.0973L512.92 43.0483C512.937 43.0473 512.956 43.0453 512.974 43.0443C525.441 42.3053 541.292 36.4333 559.645 29.6353C581.991 21.3583 607.318 11.9773 634.326 8.86533C661.44 5.76033 688.031 12.4573 713.745 18.9373C736.443 24.6573 757.881 30.0593 776.43 27.4123L776.559 28.4543C774.704 28.7193 772.822 28.9043 770.914 29.0173Z" fill="#00B0C7"/>
</g>
<mask id="mask11_229:524" style="mask-type:alpha" maskUnits="userSpaceOnUse" x="498" y="18" width="233" height="36">
<path fill-rule="evenodd" clip-rule="evenodd" d="M498.637 18.875H730.584V53.17H498.637V18.875Z" fill="white"/>
</mask>
<g mask="url(#mask11_229:524)">
<path fill-rule="evenodd" clip-rule="evenodd" d="M756.631 39.808C739.287 40.838 719.794 35.925 699.272 30.754C673.629 24.291 647.108 17.612 620.151 20.704C593.243 23.803 567.967 33.165 545.666 41.425C527.253 48.245 511.347 54.137 498.756 54.884C498.737 54.885 498.718 54.886 498.698 54.887L498.637 53.838C498.656 53.837 498.675 53.836 498.694 53.835C511.161 53.095 527.013 47.224 545.363 40.427C567.709 32.15 593.035 22.769 620.043 19.658C647.152 16.554 673.748 23.249 699.462 29.729C722.16 35.448 743.6 40.851 762.149 38.203L762.278 39.244C760.423 39.509 758.539 39.694 756.631 39.808Z" fill="#00B0C7"/>
</g>
<mask id="mask12_229:524" style="mask-type:alpha" maskUnits="userSpaceOnUse" x="484" y="29" width="247" height="25">
<path fill-rule="evenodd" clip-rule="evenodd" d="M484.352 29.6675H730.582V53.1699H484.352V29.6675Z" fill="white"/>
</mask>
<g mask="url(#mask12_229:524)">
<path fill-rule="evenodd" clip-rule="evenodd" d="M742.342 50.6014C725.001 51.6304 705.507 46.7174 684.987 41.5464C659.343 35.0844 632.823 28.3994 605.865 31.4954C578.955 34.5944 553.678 43.9564 531.375 52.2184C512.962 59.0384 497.057 64.9304 484.468 65.6774C484.449 65.6784 484.431 65.6794 484.412 65.6804L484.352 64.6314C484.369 64.6304 484.388 64.6294 484.405 64.6284C496.872 63.8884 512.722 58.0174 531.073 51.2204C553.42 42.9424 578.748 33.5604 605.758 30.4504C632.87 27.3464 659.463 34.0424 685.177 40.5224C707.874 46.2414 729.31 51.6404 747.861 48.9964L747.991 50.0374C746.135 50.3024 744.252 50.4884 742.342 50.6014Z" fill="#00B0C7"/>
</g>
<path fill-rule="evenodd" clip-rule="evenodd" d="M31 26L17 33V19L31 26Z" fill="white"/>
<path d="M46.082 22.198V25.264H51.836V28.225H46.082V34H42.533V19.132H52.319V22.198H46.082ZM54.6326 34V19.132H58.2446V34H54.6326ZM70.7682 34L64.7832 24.277H64.7202L64.8042 34H61.3182V19.132H65.4132L71.3772 28.834H71.4402L71.3562 19.132H74.8422V34H70.7682ZM87.989 34L86.834 31.081H81.08L79.988 34H76.082L82.319 19.132H85.805L91.979 34H87.989ZM83.999 23.101L82.109 28.204H85.847L83.999 23.101ZM102.658 34L96.6728 24.277H96.6098L96.6938 34H93.2078V19.132H97.3028L103.267 28.834H103.33L103.246 19.132H106.732V34H102.658ZM122.882 31.942C122.224 32.698 121.412 33.3 120.446 33.748C119.48 34.182 118.367 34.399 117.107 34.399C115.959 34.399 114.895 34.21 113.915 33.832C112.949 33.454 112.109 32.922 111.395 32.236C110.681 31.536 110.121 30.703 109.715 29.737C109.309 28.771 109.106 27.707 109.106 26.545C109.106 25.355 109.309 24.277 109.715 23.311C110.135 22.345 110.709 21.526 111.437 20.854C112.165 20.168 113.019 19.643 113.999 19.279C114.979 18.915 116.036 18.733 117.17 18.733C118.22 18.733 119.249 18.922 120.257 19.3C121.279 19.664 122.105 20.203 122.735 20.917L120.299 23.353C119.963 22.891 119.522 22.548 118.976 22.324C118.43 22.1 117.87 21.988 117.296 21.988C116.666 21.988 116.085 22.107 115.553 22.345C115.035 22.569 114.587 22.884 114.209 23.29C113.831 23.696 113.537 24.179 113.327 24.739C113.117 25.285 113.012 25.887 113.012 26.545C113.012 27.217 113.117 27.833 113.327 28.393C113.537 28.953 113.824 29.436 114.188 29.842C114.566 30.234 115.014 30.542 115.532 30.766C116.05 30.99 116.617 31.102 117.233 31.102C117.947 31.102 118.57 30.962 119.102 30.682C119.634 30.402 120.061 30.038 120.383 29.59L122.882 31.942ZM124.421 34V19.132H128.033V34H124.421ZM140.556 34L134.571 24.277H134.508L134.592 34H131.106V19.132H135.201L141.165 28.834H141.228L141.144 19.132H144.63V34H140.556ZM160.906 33.097C160.178 33.475 159.324 33.783 158.344 34.021C157.378 34.259 156.321 34.378 155.173 34.378C153.983 34.378 152.884 34.189 151.876 33.811C150.882 33.433 150.021 32.901 149.293 32.215C148.579 31.529 148.019 30.71 147.613 29.758C147.207 28.792 147.004 27.721 147.004 26.545C147.004 25.355 147.207 24.277 147.613 23.311C148.033 22.345 148.607 21.526 149.335 20.854C150.063 20.168 150.917 19.643 151.897 19.279C152.877 18.915 153.934 18.733 155.068 18.733C156.244 18.733 157.336 18.915 158.344 19.279C159.352 19.629 160.171 20.105 160.801 20.707L158.533 23.29C158.183 22.884 157.721 22.555 157.147 22.303C156.573 22.037 155.922 21.904 155.194 21.904C154.564 21.904 153.983 22.023 153.451 22.261C152.919 22.485 152.457 22.807 152.065 23.227C151.673 23.633 151.365 24.123 151.141 24.697C150.931 25.257 150.826 25.873 150.826 26.545C150.826 27.231 150.924 27.861 151.12 28.435C151.316 29.009 151.603 29.506 151.981 29.926C152.373 30.332 152.849 30.654 153.409 30.892C153.983 31.116 154.634 31.228 155.362 31.228C155.782 31.228 156.181 31.2 156.559 31.144C156.937 31.074 157.287 30.969 157.609 30.829V28.12H154.774V25.222H160.906V33.097ZM182.17 31.942C181.512 32.698 180.7 33.3 179.734 33.748C178.768 34.182 177.655 34.399 176.395 34.399C175.247 34.399 174.183 34.21 173.203 33.832C172.237 33.454 171.397 32.922 170.683 32.236C169.969 31.536 169.409 30.703 169.003 29.737C168.597 28.771 168.394 27.707 168.394 26.545C168.394 25.355 168.597 24.277 169.003 23.311C169.423 22.345 169.997 21.526 170.725 20.854C171.453 20.168 172.307 19.643 173.287 19.279C174.267 18.915 175.324 18.733 176.458 18.733C177.508 18.733 178.537 18.922 179.545 19.3C180.567 19.664 181.393 20.203 182.023 20.917L179.587 23.353C179.251 22.891 178.81 22.548 178.264 22.324C177.718 22.1 177.158 21.988 176.584 21.988C175.954 21.988 175.373 22.107 174.841 22.345C174.323 22.569 173.875 22.884 173.497 23.29C173.119 23.696 172.825 24.179 172.615 24.739C172.405 25.285 172.3 25.887 172.3 26.545C172.3 27.217 172.405 27.833 172.615 28.393C172.825 28.953 173.112 29.436 173.476 29.842C173.854 30.234 174.302 30.542 174.82 30.766C175.338 30.99 175.905 31.102 176.521 31.102C177.235 31.102 177.858 30.962 178.39 30.682C178.922 30.402 179.349 30.038 179.671 29.59L182.17 31.942ZM198.961 26.503C198.961 27.679 198.758 28.757 198.352 29.737C197.946 30.703 197.379 31.536 196.651 32.236C195.937 32.922 195.083 33.454 194.089 33.832C193.095 34.21 192.017 34.399 190.855 34.399C189.693 34.399 188.615 34.21 187.621 33.832C186.641 33.454 185.787 32.922 185.059 32.236C184.345 31.536 183.785 30.703 183.379 29.737C182.973 28.757 182.77 27.679 182.77 26.503C182.77 25.313 182.973 24.242 183.379 23.29C183.785 22.324 184.345 21.505 185.059 20.833C185.787 20.161 186.641 19.643 187.621 19.279C188.615 18.915 189.693 18.733 190.855 18.733C192.017 18.733 193.095 18.915 194.089 19.279C195.083 19.643 195.937 20.161 196.651 20.833C197.379 21.505 197.946 22.324 198.352 23.29C198.758 24.242 198.961 25.313 198.961 26.503ZM195.118 26.503C195.118 25.859 195.013 25.257 194.803 24.697C194.593 24.137 194.299 23.661 193.921 23.269C193.557 22.863 193.109 22.548 192.577 22.324C192.059 22.086 191.485 21.967 190.855 21.967C190.225 21.967 189.651 22.086 189.133 22.324C188.615 22.548 188.167 22.863 187.789 23.269C187.411 23.661 187.117 24.137 186.907 24.697C186.711 25.257 186.613 25.859 186.613 26.503C186.613 27.175 186.718 27.798 186.928 28.372C187.138 28.932 187.425 29.415 187.789 29.821C188.167 30.227 188.615 30.549 189.133 30.787C189.651 31.011 190.225 31.123 190.855 31.123C191.485 31.123 192.059 31.011 192.577 30.787C193.095 30.549 193.543 30.227 193.921 29.821C194.299 29.415 194.593 28.932 194.803 28.372C195.013 27.798 195.118 27.175 195.118 26.503ZM210.775 34L204.79 24.277H204.727L204.811 34H201.325V19.132H205.42L211.384 28.834H211.447L211.363 19.132H214.849V34H210.775ZM224.279 22.198V34H220.688V22.198H216.488V19.132H228.479V22.198H224.279ZM238.077 34L234.864 28.099H233.646V34H230.118V19.132H235.788C236.502 19.132 237.195 19.209 237.867 19.363C238.553 19.503 239.162 19.748 239.694 20.098C240.24 20.448 240.674 20.91 240.996 21.484C241.318 22.058 241.479 22.772 241.479 23.626C241.479 24.634 241.206 25.481 240.66 26.167C240.114 26.853 239.358 27.343 238.392 27.637L242.277 34H238.077ZM237.93 23.689C237.93 23.339 237.853 23.059 237.699 22.849C237.559 22.625 237.37 22.457 237.132 22.345C236.908 22.219 236.649 22.135 236.355 22.093C236.075 22.051 235.802 22.03 235.536 22.03H233.625V25.495H235.326C235.62 25.495 235.921 25.474 236.229 25.432C236.537 25.376 236.817 25.285 237.069 25.159C237.321 25.033 237.524 24.851 237.678 24.613C237.846 24.375 237.93 24.067 237.93 23.689ZM254.123 34L252.968 31.081H247.214L246.122 34H242.216L248.453 19.132H251.939L258.113 34H254.123ZM250.133 23.101L248.243 28.204H251.981L250.133 23.101ZM272.055 31.942C271.397 32.698 270.585 33.3 269.619 33.748C268.653 34.182 267.54 34.399 266.28 34.399C265.132 34.399 264.068 34.21 263.088 33.832C262.122 33.454 261.282 32.922 260.568 32.236C259.854 31.536 259.294 30.703 258.888 29.737C258.482 28.771 258.279 27.707 258.279 26.545C258.279 25.355 258.482 24.277 258.888 23.311C259.308 22.345 259.882 21.526 260.61 20.854C261.338 20.168 262.192 19.643 263.172 19.279C264.152 18.915 265.209 18.733 266.343 18.733C267.393 18.733 268.422 18.922 269.43 19.3C270.452 19.664 271.278 20.203 271.908 20.917L269.472 23.353C269.136 22.891 268.695 22.548 268.149 22.324C267.603 22.1 267.043 21.988 266.469 21.988C265.839 21.988 265.258 22.107 264.726 22.345C264.208 22.569 263.76 22.884 263.382 23.29C263.004 23.696 262.71 24.179 262.5 24.739C262.29 25.285 262.185 25.887 262.185 26.545C262.185 27.217 262.29 27.833 262.5 28.393C262.71 28.953 262.997 29.436 263.361 29.842C263.739 30.234 264.187 30.542 264.705 30.766C265.223 30.99 265.79 31.102 266.406 31.102C267.12 31.102 267.743 30.962 268.275 30.682C268.807 30.402 269.234 30.038 269.556 29.59L272.055 31.942ZM279.834 22.198V34H276.243V22.198H272.043V19.132H284.034V22.198H279.834Z" fill="white"/>
<path d="M636.042 29.118C635.76 29.442 635.412 29.7 634.998 29.892C634.584 30.078 634.107 30.171 633.567 30.171C633.075 30.171 632.619 30.09 632.199 29.928C631.785 29.766 631.425 29.538 631.119 29.244C630.813 28.944 630.573 28.587 630.399 28.173C630.225 27.759 630.138 27.303 630.138 26.805C630.138 26.295 630.225 25.833 630.399 25.419C630.579 25.005 630.825 24.654 631.137 24.366C631.449 24.072 631.815 23.847 632.235 23.691C632.655 23.535 633.108 23.457 633.594 23.457C634.044 23.457 634.485 23.538 634.917 23.7C635.355 23.856 635.709 24.087 635.979 24.393L634.935 25.437C634.791 25.239 634.602 25.092 634.368 24.996C634.134 24.9 633.894 24.852 633.648 24.852C633.378 24.852 633.129 24.903 632.901 25.005C632.679 25.101 632.487 25.236 632.325 25.41C632.163 25.584 632.037 25.791 631.947 26.031C631.857 26.265 631.812 26.523 631.812 26.805C631.812 27.093 631.857 27.357 631.947 27.597C632.037 27.837 632.16 28.044 632.316 28.218C632.478 28.386 632.67 28.518 632.892 28.614C633.114 28.71 633.357 28.758 633.621 28.758C633.927 28.758 634.194 28.698 634.422 28.578C634.65 28.458 634.833 28.302 634.971 28.11L636.042 29.118ZM641.267 27.741C641.267 28.107 641.201 28.44 641.069 28.74C640.937 29.034 640.757 29.286 640.529 29.496C640.301 29.7 640.037 29.859 639.737 29.973C639.437 30.087 639.116 30.144 638.774 30.144C638.438 30.144 638.117 30.087 637.811 29.973C637.511 29.859 637.247 29.7 637.019 29.496C636.797 29.286 636.62 29.034 636.488 28.74C636.356 28.44 636.29 28.107 636.29 27.741C636.29 27.375 636.356 27.045 636.488 26.751C636.62 26.457 636.797 26.208 637.019 26.004C637.247 25.8 637.511 25.644 637.811 25.536C638.117 25.428 638.438 25.374 638.774 25.374C639.116 25.374 639.437 25.428 639.737 25.536C640.037 25.644 640.301 25.8 640.529 26.004C640.757 26.208 640.937 26.457 641.069 26.751C641.201 27.045 641.267 27.375 641.267 27.741ZM639.845 27.741C639.845 27.597 639.821 27.456 639.773 27.318C639.725 27.18 639.656 27.06 639.566 26.958C639.476 26.85 639.365 26.763 639.233 26.697C639.101 26.631 638.948 26.598 638.774 26.598C638.6 26.598 638.447 26.631 638.315 26.697C638.183 26.763 638.072 26.85 637.982 26.958C637.898 27.06 637.832 27.18 637.784 27.318C637.742 27.456 637.721 27.597 637.721 27.741C637.721 27.885 637.742 28.026 637.784 28.164C637.832 28.302 637.901 28.428 637.991 28.542C638.081 28.65 638.192 28.737 638.324 28.803C638.456 28.869 638.609 28.902 638.783 28.902C638.957 28.902 639.11 28.869 639.242 28.803C639.374 28.737 639.485 28.65 639.575 28.542C639.665 28.428 639.731 28.302 639.773 28.164C639.821 28.026 639.845 27.885 639.845 27.741ZM645.145 30V27.552C645.145 27.426 645.133 27.306 645.109 27.192C645.091 27.078 645.058 26.979 645.01 26.895C644.962 26.805 644.893 26.736 644.803 26.688C644.719 26.634 644.611 26.607 644.479 26.607C644.347 26.607 644.23 26.634 644.128 26.688C644.032 26.736 643.951 26.805 643.885 26.895C643.819 26.985 643.768 27.09 643.732 27.21C643.702 27.324 643.687 27.444 643.687 27.57V30H642.202V25.518H643.633V26.139H643.651C643.705 26.043 643.774 25.95 643.858 25.86C643.948 25.764 644.05 25.683 644.164 25.617C644.284 25.551 644.413 25.497 644.551 25.455C644.689 25.413 644.836 25.392 644.992 25.392C645.292 25.392 645.547 25.446 645.757 25.554C645.967 25.662 646.135 25.803 646.261 25.977C646.393 26.145 646.486 26.34 646.54 26.562C646.6 26.784 646.63 27.006 646.63 27.228V30H645.145ZM649.35 26.625V28.335C649.35 28.545 649.389 28.704 649.467 28.812C649.551 28.914 649.698 28.965 649.908 28.965C649.98 28.965 650.055 28.959 650.133 28.947C650.217 28.935 650.286 28.917 650.34 28.893L650.358 29.973C650.256 30.009 650.127 30.039 649.971 30.063C649.815 30.093 649.659 30.108 649.503 30.108C649.203 30.108 648.951 30.072 648.747 30C648.543 29.922 648.378 29.814 648.252 29.676C648.132 29.532 648.045 29.364 647.991 29.172C647.937 28.974 647.91 28.755 647.91 28.515V26.625H647.19V25.518H647.901V24.339H649.35V25.518H650.403V26.625H649.35ZM654.004 26.724C653.938 26.706 653.872 26.694 653.806 26.688C653.746 26.682 653.686 26.679 653.626 26.679C653.428 26.679 653.26 26.715 653.122 26.787C652.99 26.859 652.882 26.946 652.798 27.048C652.72 27.15 652.663 27.261 652.627 27.381C652.591 27.501 652.573 27.606 652.573 27.696V30H651.097V25.518H652.519V26.166H652.537C652.651 25.938 652.813 25.752 653.023 25.608C653.233 25.464 653.476 25.392 653.752 25.392C653.812 25.392 653.869 25.395 653.923 25.401C653.983 25.407 654.031 25.416 654.067 25.428L654.004 26.724ZM657.17 28.047H656.981C656.819 28.047 656.654 28.056 656.486 28.074C656.324 28.086 656.177 28.113 656.045 28.155C655.919 28.197 655.814 28.26 655.73 28.344C655.646 28.422 655.604 28.527 655.604 28.659C655.604 28.743 655.622 28.815 655.658 28.875C655.7 28.935 655.751 28.983 655.811 29.019C655.871 29.055 655.94 29.082 656.018 29.1C656.096 29.112 656.171 29.118 656.243 29.118C656.543 29.118 656.771 29.037 656.927 28.875C657.089 28.707 657.17 28.482 657.17 28.2V28.047ZM654.461 26.13C654.725 25.878 655.031 25.689 655.379 25.563C655.733 25.437 656.093 25.374 656.459 25.374C656.837 25.374 657.155 25.422 657.413 25.518C657.677 25.608 657.89 25.752 658.052 25.95C658.214 26.142 658.331 26.388 658.403 26.688C658.481 26.982 658.52 27.333 658.52 27.741V30H657.17V29.523H657.143C657.029 29.709 656.855 29.853 656.621 29.955C656.393 30.057 656.144 30.108 655.874 30.108C655.694 30.108 655.508 30.084 655.316 30.036C655.124 29.988 654.947 29.91 654.785 29.802C654.629 29.694 654.5 29.55 654.398 29.37C654.296 29.19 654.245 28.968 654.245 28.704C654.245 28.38 654.332 28.119 654.506 27.921C654.686 27.723 654.914 27.57 655.19 27.462C655.472 27.354 655.784 27.282 656.126 27.246C656.468 27.21 656.801 27.192 657.125 27.192V27.12C657.125 26.898 657.047 26.736 656.891 26.634C656.735 26.526 656.543 26.472 656.315 26.472C656.105 26.472 655.901 26.517 655.703 26.607C655.511 26.697 655.346 26.805 655.208 26.931L654.461 26.13ZM662.709 26.967C662.625 26.859 662.511 26.772 662.367 26.706C662.223 26.64 662.076 26.607 661.926 26.607C661.77 26.607 661.629 26.64 661.503 26.706C661.377 26.766 661.269 26.85 661.179 26.958C661.089 27.06 661.017 27.18 660.963 27.318C660.915 27.456 660.891 27.603 660.891 27.759C660.891 27.915 660.915 28.062 660.963 28.2C661.011 28.338 661.08 28.461 661.17 28.569C661.266 28.671 661.377 28.752 661.503 28.812C661.635 28.872 661.782 28.902 661.944 28.902C662.094 28.902 662.241 28.875 662.385 28.821C662.535 28.761 662.655 28.677 662.745 28.569L663.564 29.568C663.378 29.748 663.138 29.889 662.844 29.991C662.55 30.093 662.238 30.144 661.908 30.144C661.554 30.144 661.224 30.09 660.918 29.982C660.612 29.874 660.345 29.718 660.117 29.514C659.895 29.304 659.718 29.052 659.586 28.758C659.46 28.464 659.397 28.131 659.397 27.759C659.397 27.393 659.46 27.063 659.586 26.769C659.718 26.475 659.895 26.226 660.117 26.022C660.345 25.812 660.612 25.653 660.918 25.545C661.224 25.431 661.551 25.374 661.899 25.374C662.061 25.374 662.22 25.389 662.376 25.419C662.538 25.449 662.691 25.491 662.835 25.545C662.985 25.593 663.12 25.656 663.24 25.734C663.366 25.806 663.474 25.887 663.564 25.977L662.709 26.967ZM665.75 26.625V28.335C665.75 28.545 665.789 28.704 665.867 28.812C665.951 28.914 666.098 28.965 666.308 28.965C666.38 28.965 666.455 28.959 666.533 28.947C666.617 28.935 666.686 28.917 666.74 28.893L666.758 29.973C666.656 30.009 666.527 30.039 666.371 30.063C666.215 30.093 666.059 30.108 665.903 30.108C665.603 30.108 665.351 30.072 665.147 30C664.943 29.922 664.778 29.814 664.652 29.676C664.532 29.532 664.445 29.364 664.391 29.172C664.337 28.974 664.31 28.755 664.31 28.515V26.625H663.59V25.518H664.301V24.339H665.75V25.518H666.803V26.625H665.75ZM675.435 29.118C675.153 29.442 674.805 29.7 674.391 29.892C673.977 30.078 673.5 30.171 672.96 30.171C672.468 30.171 672.012 30.09 671.592 29.928C671.178 29.766 670.818 29.538 670.512 29.244C670.206 28.944 669.966 28.587 669.792 28.173C669.618 27.759 669.531 27.303 669.531 26.805C669.531 26.295 669.618 25.833 669.792 25.419C669.972 25.005 670.218 24.654 670.53 24.366C670.842 24.072 671.208 23.847 671.628 23.691C672.048 23.535 672.501 23.457 672.987 23.457C673.437 23.457 673.878 23.538 674.31 23.7C674.748 23.856 675.102 24.087 675.372 24.393L674.328 25.437C674.184 25.239 673.995 25.092 673.761 24.996C673.527 24.9 673.287 24.852 673.041 24.852C672.771 24.852 672.522 24.903 672.294 25.005C672.072 25.101 671.88 25.236 671.718 25.41C671.556 25.584 671.43 25.791 671.34 26.031C671.25 26.265 671.205 26.523 671.205 26.805C671.205 27.093 671.25 27.357 671.34 27.597C671.43 27.837 671.553 28.044 671.709 28.218C671.871 28.386 672.063 28.518 672.285 28.614C672.507 28.71 672.75 28.758 673.014 28.758C673.32 28.758 673.587 28.698 673.815 28.578C674.043 28.458 674.226 28.302 674.364 28.11L675.435 29.118ZM680.66 27.741C680.66 28.107 680.594 28.44 680.462 28.74C680.33 29.034 680.15 29.286 679.922 29.496C679.694 29.7 679.43 29.859 679.13 29.973C678.83 30.087 678.509 30.144 678.167 30.144C677.831 30.144 677.51 30.087 677.204 29.973C676.904 29.859 676.64 29.7 676.412 29.496C676.19 29.286 676.013 29.034 675.881 28.74C675.749 28.44 675.683 28.107 675.683 27.741C675.683 27.375 675.749 27.045 675.881 26.751C676.013 26.457 676.19 26.208 676.412 26.004C676.64 25.8 676.904 25.644 677.204 25.536C677.51 25.428 677.831 25.374 678.167 25.374C678.509 25.374 678.83 25.428 679.13 25.536C679.43 25.644 679.694 25.8 679.922 26.004C680.15 26.208 680.33 26.457 680.462 26.751C680.594 27.045 680.66 27.375 680.66 27.741ZM679.238 27.741C679.238 27.597 679.214 27.456 679.166 27.318C679.118 27.18 679.049 27.06 678.959 26.958C678.869 26.85 678.758 26.763 678.626 26.697C678.494 26.631 678.341 26.598 678.167 26.598C677.993 26.598 677.84 26.631 677.708 26.697C677.576 26.763 677.465 26.85 677.375 26.958C677.291 27.06 677.225 27.18 677.177 27.318C677.135 27.456 677.114 27.597 677.114 27.741C677.114 27.885 677.135 28.026 677.177 28.164C677.225 28.302 677.294 28.428 677.384 28.542C677.474 28.65 677.585 28.737 677.717 28.803C677.849 28.869 678.002 28.902 678.176 28.902C678.35 28.902 678.503 28.869 678.635 28.803C678.767 28.737 678.878 28.65 678.968 28.542C679.058 28.428 679.124 28.302 679.166 28.164C679.214 28.026 679.238 27.885 679.238 27.741ZM687.319 30V27.552C687.319 27.426 687.31 27.306 687.292 27.192C687.274 27.072 687.241 26.97 687.193 26.886C687.145 26.802 687.079 26.736 686.995 26.688C686.917 26.634 686.812 26.607 686.68 26.607C686.554 26.607 686.443 26.634 686.347 26.688C686.257 26.742 686.179 26.814 686.113 26.904C686.053 26.994 686.008 27.099 685.978 27.219C685.948 27.333 685.933 27.453 685.933 27.579V30H684.457V27.444C684.457 27.186 684.406 26.982 684.304 26.832C684.202 26.682 684.04 26.607 683.818 26.607C683.584 26.607 683.401 26.7 683.269 26.886C683.143 27.072 683.08 27.3 683.08 27.57V30H681.595V25.518H683.026V26.139H683.044C683.098 26.043 683.164 25.95 683.242 25.86C683.326 25.77 683.425 25.692 683.539 25.626C683.653 25.554 683.779 25.497 683.917 25.455C684.061 25.413 684.217 25.392 684.385 25.392C684.709 25.392 684.982 25.458 685.204 25.59C685.432 25.722 685.609 25.911 685.735 26.157C685.885 25.923 686.077 25.737 686.311 25.599C686.545 25.461 686.83 25.392 687.166 25.392C687.472 25.392 687.727 25.449 687.931 25.563C688.141 25.671 688.309 25.815 688.435 25.995C688.561 26.169 688.651 26.367 688.705 26.589C688.765 26.805 688.795 27.018 688.795 27.228V30H687.319ZM694.895 27.741C694.895 28.053 694.847 28.353 694.751 28.641C694.655 28.929 694.514 29.184 694.328 29.406C694.148 29.622 693.926 29.796 693.662 29.928C693.398 30.06 693.098 30.126 692.762 30.126C692.486 30.126 692.225 30.072 691.979 29.964C691.733 29.85 691.541 29.697 691.403 29.505H691.385V32.16H689.909V25.518H691.313V26.067H691.34C691.478 25.887 691.667 25.731 691.907 25.599C692.153 25.461 692.441 25.392 692.771 25.392C693.095 25.392 693.389 25.455 693.653 25.581C693.917 25.707 694.139 25.878 694.319 26.094C694.505 26.31 694.646 26.562 694.742 26.85C694.844 27.132 694.895 27.429 694.895 27.741ZM693.464 27.741C693.464 27.597 693.44 27.456 693.392 27.318C693.35 27.18 693.284 27.06 693.194 26.958C693.11 26.85 693.002 26.763 692.87 26.697C692.738 26.631 692.585 26.598 692.411 26.598C692.243 26.598 692.093 26.631 691.961 26.697C691.829 26.763 691.715 26.85 691.619 26.958C691.529 27.066 691.457 27.189 691.403 27.327C691.355 27.465 691.331 27.606 691.331 27.75C691.331 27.894 691.355 28.035 691.403 28.173C691.457 28.311 691.529 28.434 691.619 28.542C691.715 28.65 691.829 28.737 691.961 28.803C692.093 28.869 692.243 28.902 692.411 28.902C692.585 28.902 692.738 28.869 692.87 28.803C693.002 28.737 693.11 28.65 693.194 28.542C693.284 28.434 693.35 28.311 693.392 28.173C693.44 28.029 693.464 27.885 693.464 27.741ZM695.842 30V23.196H697.336V30H695.842ZM701.592 27.246C701.592 27.012 701.517 26.811 701.367 26.643C701.223 26.475 701.004 26.391 700.71 26.391C700.566 26.391 700.434 26.415 700.314 26.463C700.194 26.505 700.089 26.565 699.999 26.643C699.909 26.721 699.837 26.814 699.783 26.922C699.729 27.024 699.699 27.132 699.693 27.246H701.592ZM702.951 27.813C702.951 27.873 702.951 27.933 702.951 27.993C702.951 28.053 702.948 28.11 702.942 28.164H699.693C699.705 28.29 699.741 28.404 699.801 28.506C699.867 28.608 699.948 28.698 700.044 28.776C700.146 28.848 700.257 28.905 700.377 28.947C700.503 28.989 700.632 29.01 700.764 29.01C700.998 29.01 701.196 28.968 701.358 28.884C701.52 28.794 701.652 28.68 701.754 28.542L702.78 29.19C702.57 29.496 702.291 29.733 701.943 29.901C701.601 30.063 701.202 30.144 700.746 30.144C700.41 30.144 700.092 30.093 699.792 29.991C699.492 29.883 699.228 29.73 699 29.532C698.778 29.328 698.601 29.079 698.469 28.785C698.343 28.491 698.28 28.155 698.28 27.777C698.28 27.411 698.343 27.081 698.469 26.787C698.595 26.487 698.766 26.235 698.982 26.031C699.198 25.821 699.453 25.659 699.747 25.545C700.041 25.431 700.359 25.374 700.701 25.374C701.031 25.374 701.334 25.431 701.61 25.545C701.886 25.653 702.123 25.812 702.321 26.022C702.519 26.232 702.672 26.487 702.78 26.787C702.894 27.087 702.951 27.429 702.951 27.813ZM705.468 26.625V28.335C705.468 28.545 705.507 28.704 705.585 28.812C705.669 28.914 705.816 28.965 706.026 28.965C706.098 28.965 706.173 28.959 706.251 28.947C706.335 28.935 706.404 28.917 706.458 28.893L706.476 29.973C706.374 30.009 706.245 30.039 706.089 30.063C705.933 30.093 705.777 30.108 705.621 30.108C705.321 30.108 705.069 30.072 704.865 30C704.661 29.922 704.496 29.814 704.37 29.676C704.25 29.532 704.163 29.364 704.109 29.172C704.055 28.974 704.028 28.755 704.028 28.515V26.625H703.308V25.518H704.019V24.339H705.468V25.518H706.521V26.625H705.468ZM710.302 27.246C710.302 27.012 710.227 26.811 710.077 26.643C709.933 26.475 709.714 26.391 709.42 26.391C709.276 26.391 709.144 26.415 709.024 26.463C708.904 26.505 708.799 26.565 708.709 26.643C708.619 26.721 708.547 26.814 708.493 26.922C708.439 27.024 708.409 27.132 708.403 27.246H710.302ZM711.661 27.813C711.661 27.873 711.661 27.933 711.661 27.993C711.661 28.053 711.658 28.11 711.652 28.164H708.403C708.415 28.29 708.451 28.404 708.511 28.506C708.577 28.608 708.658 28.698 708.754 28.776C708.856 28.848 708.967 28.905 709.087 28.947C709.213 28.989 709.342 29.01 709.474 29.01C709.708 29.01 709.906 28.968 710.068 28.884C710.23 28.794 710.362 28.68 710.464 28.542L711.49 29.19C711.28 29.496 711.001 29.733 710.653 29.901C710.311 30.063 709.912 30.144 709.456 30.144C709.12 30.144 708.802 30.093 708.502 29.991C708.202 29.883 707.938 29.73 707.71 29.532C707.488 29.328 707.311 29.079 707.179 28.785C707.053 28.491 706.99 28.155 706.99 27.777C706.99 27.411 707.053 27.081 707.179 26.787C707.305 26.487 707.476 26.235 707.692 26.031C707.908 25.821 708.163 25.659 708.457 25.545C708.751 25.431 709.069 25.374 709.411 25.374C709.741 25.374 710.044 25.431 710.32 25.545C710.596 25.653 710.833 25.812 711.031 26.022C711.229 26.232 711.382 26.487 711.49 26.787C711.604 27.087 711.661 27.429 711.661 27.813Z" fill="white"/>
<path fill-rule="evenodd" clip-rule="evenodd" d="M612.612 27.0222C610.226 27.0222 608.285 25.0812 608.285 22.6942C608.285 20.3082 610.226 18.3672 612.612 18.3672C614.998 18.3672 616.939 20.3082 616.939 22.6942C616.939 25.0812 614.998 27.0222 612.612 27.0222ZM612.612 17.3672C609.674 17.3672 607.285 19.7562 607.285 22.6942C607.285 25.6312 609.674 28.0222 612.612 28.0222C615.55 28.0222 617.939 25.6312 617.939 22.6942C617.939 19.7562 615.55 17.3672 612.612 17.3672Z" fill="#FEFEFE"/>
<mask id="mask13_229:524" style="mask-type:alpha" maskUnits="userSpaceOnUse" x="604" y="14" width="18" height="26">
<path fill-rule="evenodd" clip-rule="evenodd" d="M604 14H621.226V39.5797H604V14Z" fill="white"/>
</mask>
<g mask="url(#mask13_229:524)">
<path fill-rule="evenodd" clip-rule="evenodd" d="M620.113 22.3418C619.74 22.9848 619.61 24.0488 619.819 24.7658C619.928 25.1418 619.734 25.6548 619.402 25.8638C618.772 26.2608 618.163 27.1428 618.015 27.8728C617.938 28.2568 617.527 28.6208 617.136 28.6528C616.395 28.7098 615.445 29.2078 614.973 29.7858C614.731 30.0858 614.187 30.2198 613.834 30.0678C613.148 29.7748 612.077 29.7748 611.393 30.0678C611.031 30.2238 610.498 30.0908 610.251 29.7858C609.781 29.2078 608.832 28.7098 608.09 28.6528C607.699 28.6208 607.288 28.2568 607.211 27.8718C607.062 27.1418 606.453 26.2598 605.824 25.8638C605.491 25.6548 605.297 25.1418 605.406 24.7658C605.615 24.0508 605.486 22.9868 605.113 22.3418C604.916 22.0028 604.982 21.4568 605.255 21.1748C605.771 20.6378 606.151 19.6348 606.12 18.8938C606.103 18.5008 606.415 18.0488 606.787 17.9258C607.494 17.6908 608.297 16.9808 608.615 16.3068C608.764 15.9888 609.171 15.7508 609.532 15.7508C609.573 15.7508 609.615 15.7538 609.655 15.7608C610.389 15.8818 611.431 15.6238 612.025 15.1768L612.026 15.1758C612.338 14.9428 612.885 14.9398 613.201 15.1768C613.795 15.6248 614.838 15.8838 615.57 15.7608C615.955 15.6948 616.444 15.9518 616.611 16.3078C616.929 16.9798 617.731 17.6908 618.438 17.9258C618.811 18.0488 619.123 18.5008 619.105 18.8938C619.075 19.6378 619.455 20.6398 619.971 21.1748C620.244 21.4568 620.31 22.0028 620.113 22.3418ZM612.613 35.0878L608.319 37.7758V29.7148C608.749 29.8378 609.233 30.1188 609.475 30.4168C610.002 31.0648 611.015 31.3158 611.787 30.9878C612.226 30.7978 613 30.7978 613.439 30.9878C613.669 31.0848 613.92 31.1318 614.174 31.1318C614.77 31.1318 615.381 30.8728 615.75 30.4168C615.992 30.1188 616.477 29.8378 616.907 29.7148V37.7758L612.613 35.0878ZM620.692 20.4818C620.359 20.1368 620.085 19.4138 620.105 18.9358C620.14 18.0998 619.547 17.2388 618.754 16.9768C618.299 16.8248 617.719 16.3128 617.515 15.8808C617.16 15.1248 616.232 14.6358 615.408 14.7748C614.934 14.8488 614.186 14.6678 613.802 14.3778C613.134 13.8728 612.09 13.8738 611.423 14.3788C611.041 14.6668 610.292 14.8498 609.817 14.7748C608.995 14.6368 608.066 15.1248 607.711 15.8798C607.507 16.3138 606.927 16.8248 606.472 16.9768C605.679 17.2388 605.086 18.0998 605.12 18.9358C605.141 19.4128 604.867 20.1358 604.534 20.4818C603.954 21.0828 603.828 22.1198 604.248 22.8438C604.488 23.2578 604.581 24.0258 604.447 24.4848C604.212 25.2868 604.583 26.2648 605.291 26.7098C605.696 26.9648 606.134 27.6008 606.23 28.0708C606.348 28.6538 606.78 29.1688 607.319 29.4438V39.5798L612.613 36.2678L617.907 39.5798V29.4438C618.446 29.1688 618.878 28.6538 618.996 28.0708C619.091 27.6018 619.529 26.9658 619.935 26.7098C620.642 26.2658 621.013 25.2868 620.779 24.4858C620.644 24.0248 620.738 23.2568 620.978 22.8438C621.398 22.1198 621.272 21.0828 620.692 20.4818Z" fill="#FEFEFE"/>
</g>
</svg>
