<svg width="731" height="57" viewBox="0 0 731 57" fill="none" xmlns="http://www.w3.org/2000/svg">
<rect width="731" height="53" fill="#242424"/>
<mask id="mask0_208:497" style="mask-type:alpha" maskUnits="userSpaceOnUse" x="0" y="0" width="233" height="27">
<path fill-rule="evenodd" clip-rule="evenodd" d="M0.582031 0.169922H232.926V26.6901H0.582031V0.169922Z" fill="white"/>
</mask>
<g mask="url(#mask0_208:497)">
<path fill-rule="evenodd" clip-rule="evenodd" d="M227.278 11.611C209.934 12.641 190.44 7.72799 169.918 2.55599C144.276 -3.906 117.763 -10.591 90.7992 -7.496C63.8892 -4.395 38.6122 4.967 16.3102 13.228C-2.10284 20.048 -18.0108 25.94 -30.6008 26.687C-30.6188 26.688 -30.6348 26.689 -30.6538 26.69L-30.7148 25.641C-30.6978 25.64 -30.6798 25.639 -30.6628 25.638C-18.1958 24.898 -2.34384 19.027 16.0082 12.229C38.3542 3.95199 63.6822 -5.429 90.6912 -8.541C117.806 -11.654 144.394 -4.949 170.108 1.531C192.807 7.252 214.252 12.651 232.796 10.006L232.926 11.047C231.071 11.312 229.186 11.497 227.278 11.611Z" fill="#00B0C7"/>
</g>
<mask id="mask1_208:497" style="mask-type:alpha" maskUnits="userSpaceOnUse" x="0" y="1" width="219" height="37">
<path fill-rule="evenodd" clip-rule="evenodd" d="M0.582031 1.46875H218.639V37.4838H0.582031V1.46875Z" fill="white"/>
</mask>
<g mask="url(#mask1_208:497)">
<path fill-rule="evenodd" clip-rule="evenodd" d="M212.994 22.4038C195.652 23.4338 176.157 18.5208 155.636 13.3498C129.994 6.88783 103.485 0.203832 76.514 3.29783C49.606 6.39783 24.33 15.7598 2.029 24.0208C-16.385 30.8408 -32.292 36.7328 -44.882 37.4798C-44.901 37.4818 -44.92 37.4828 -44.939 37.4838L-45 36.4348C-44.982 36.4338 -44.963 36.4328 -44.944 36.4308C-32.477 35.6918 -16.625 29.8198 1.727 23.0228C24.072 14.7458 49.399 5.36483 76.407 2.25283C103.514 -0.854168 130.111 5.84383 155.827 12.3248C178.523 18.0438 199.961 23.4458 218.509 20.7988L218.639 21.8408C216.785 22.1058 214.902 22.2908 212.994 22.4038Z" fill="#00B0C7"/>
</g>
<mask id="mask2_208:497" style="mask-type:alpha" maskUnits="userSpaceOnUse" x="0" y="10" width="235" height="37">
<path fill-rule="evenodd" clip-rule="evenodd" d="M0.582031 10.4971H234.102V46.5104H0.582031V10.4971Z" fill="white"/>
</mask>
<g mask="url(#mask2_208:497)">
<path fill-rule="evenodd" clip-rule="evenodd" d="M228.453 31.4314C211.109 32.4604 191.614 27.5484 171.094 22.3764C145.452 15.9154 118.94 9.23245 91.9749 12.3254C65.0659 15.4244 39.7899 24.7874 17.4889 33.0484C-0.923063 39.8684 -16.8301 45.7594 -29.4191 46.5064C-29.4391 46.5084 -29.4581 46.5094 -29.4781 46.5104L-29.5391 45.4614C-29.5201 45.4604 -29.5001 45.4594 -29.4811 45.4574C-17.0151 44.7184 -1.16306 38.8474 17.1869 32.0494C39.5329 23.7724 64.8589 14.3914 91.8679 11.2804C118.979 8.17545 145.57 14.8714 171.284 21.3514C193.982 27.0724 215.423 32.4704 233.972 29.8264L234.102 30.8674C232.246 31.1324 230.363 31.3184 228.453 31.4314Z" fill="#00B0C7"/>
</g>
<mask id="mask3_208:497" style="mask-type:alpha" maskUnits="userSpaceOnUse" x="0" y="19" width="250" height="35">
<path fill-rule="evenodd" clip-rule="evenodd" d="M0.582031 19.5239H249.56V53.17H0.582031V19.5239Z" fill="white"/>
</mask>
<g mask="url(#mask3_208:497)">
<path fill-rule="evenodd" clip-rule="evenodd" d="M243.91 40.4574C226.568 41.4874 207.075 36.5744 186.555 31.4034C160.914 24.9404 134.399 18.2554 107.436 21.3524C80.5279 24.4514 55.2509 33.8144 32.9509 42.0744C14.5379 48.8944 -1.3691 54.7864 -13.9591 55.5334C-13.9791 55.5344 -13.9981 55.5354 -14.0171 55.5364L-14.0791 54.4874C-14.0601 54.4864 -14.0401 54.4854 -14.0211 54.4844C-1.5541 53.7444 14.2979 47.8734 32.6489 41.0754C54.9939 32.7994 80.3209 23.4184 107.328 20.3074C134.432 17.2024 161.031 23.8974 186.746 30.3784C209.444 36.0984 230.884 41.4954 249.43 38.8524L249.56 39.8934C247.704 40.1594 245.82 40.3444 243.91 40.4574Z" fill="#00B0C7"/>
</g>
<mask id="mask4_208:497" style="mask-type:alpha" maskUnits="userSpaceOnUse" x="1" y="28" width="265" height="26">
<path fill-rule="evenodd" clip-rule="evenodd" d="M1.38184 28.5488H265.024V53.1698H1.38184V28.5488Z" fill="white"/>
</mask>
<g mask="url(#mask4_208:497)">
<path fill-rule="evenodd" clip-rule="evenodd" d="M259.376 49.487C242.031 50.517 222.536 45.603 202.013 40.432C176.373 33.97 149.854 27.287 122.897 30.381C95.9848 33.479 70.7058 42.843 48.4028 51.104C29.9918 57.924 14.0858 63.816 1.49684 64.563C1.47784 64.564 1.46184 64.565 1.44284 64.566L1.38184 63.517C1.39984 63.516 1.41684 63.515 1.43484 63.514C13.9008 62.775 29.7518 56.904 48.1008 50.106C70.4488 41.828 95.7768 32.446 122.789 29.335C149.903 26.222 176.491 32.927 202.204 39.407C224.903 45.127 246.341 50.53 264.894 47.882L265.024 48.924C263.169 49.188 261.285 49.373 259.376 49.487Z" fill="#00B0C7"/>
</g>
<mask id="mask5_208:497" style="mask-type:alpha" maskUnits="userSpaceOnUse" x="233" y="0" width="265" height="31">
<path fill-rule="evenodd" clip-rule="evenodd" d="M233.849 0.169922H497.537V30.8806H233.849V0.169922Z" fill="white"/>
</mask>
<g mask="url(#mask5_208:497)">
<path fill-rule="evenodd" clip-rule="evenodd" d="M491.888 15.7986C474.542 16.8276 455.037 11.9156 434.507 6.7446C408.853 0.283602 382.331 -6.3954 355.363 -3.3044C328.454 -0.205398 303.178 9.1576 280.877 17.4186C262.465 24.2376 246.558 30.1296 233.969 30.8766C233.949 30.8786 233.93 30.8796 233.91 30.8806L233.849 29.8316C233.868 29.8306 233.887 29.8296 233.906 29.8276C246.373 29.0886 262.225 23.2166 280.575 16.4196C302.92 8.1426 328.247 -1.2384 355.255 -4.3494C382.368 -7.4584 408.97 -0.759398 434.697 5.7206C457.407 11.4406 478.851 16.8426 497.407 14.1936L497.537 15.2346C495.681 15.4996 493.797 15.6856 491.888 15.7986Z" fill="#00B0C7"/>
</g>
<path fill-rule="evenodd" clip-rule="evenodd" d="M506.365 24.9246C489.068 25.9531 469.621 21.0442 449.15 15.8765C423.562 9.4163 397.106 2.73821 370.198 5.82986C343.36 8.92852 318.15 18.2864 295.907 26.5429C277.543 33.3599 261.677 39.2493 249.119 39.996C249.099 39.997 249.081 39.998 249.061 40L249 38.9515C249.019 38.9495 249.038 38.9485 249.057 38.9475C261.491 38.2078 277.302 32.3393 295.605 25.5453C317.892 17.2719 343.153 7.89497 370.09 4.78632C397.149 1.67367 423.679 8.37476 449.339 14.8519C471.984 20.5675 493.375 25.9621 511.87 23.3193L512 24.3608C510.149 24.6257 508.269 24.8116 506.365 24.9246Z" fill="#00B0C7"/>
<path fill-rule="evenodd" clip-rule="evenodd" d="M522.368 33.9239C505.07 34.9534 485.629 30.0447 465.162 24.8771C439.576 18.417 413.112 11.7381 386.197 14.8297C359.356 17.9272 334.143 27.286 311.898 35.5442C293.535 42.36 277.671 48.2503 265.115 48.997C265.096 48.998 265.08 48.999 265.062 49L265 47.9515C265.018 47.9505 265.035 47.9495 265.053 47.9485C277.486 47.2088 293.296 41.3395 311.597 34.5466C333.887 26.2724 359.149 16.8937 386.09 13.7851C413.157 10.6756 439.692 17.3745 465.352 23.8525C487.989 29.5679 509.369 34.9654 527.871 32.3196L528 33.3612C526.151 33.626 524.27 33.811 522.368 33.9239Z" fill="#00B0C7"/>
<mask id="mask6_208:497" style="mask-type:alpha" maskUnits="userSpaceOnUse" x="249" y="23" width="265" height="31">
<path fill-rule="evenodd" clip-rule="evenodd" d="M249.485 23.7139H513.171V53.1699H249.485V23.7139Z" fill="white"/>
</mask>
<g mask="url(#mask6_208:497)">
<path fill-rule="evenodd" clip-rule="evenodd" d="M507.526 44.6473C490.183 45.6773 470.683 40.7643 450.158 35.5943C424.503 29.1323 397.971 22.4503 370.999 25.5433C344.091 28.6433 318.814 38.0053 296.513 46.2663C278.099 53.0873 262.192 58.9793 249.602 59.7263C249.583 59.7273 249.565 59.7283 249.546 59.7303L249.485 58.6813C249.503 58.6793 249.522 58.6783 249.539 58.6773C262.007 57.9383 277.859 52.0653 296.211 45.2683C318.557 36.9913 343.883 27.6093 370.891 24.4983C398.017 21.3903 424.621 28.0893 450.348 34.5693C473.05 40.2893 494.49 45.6893 513.042 43.0423L513.171 44.0843C511.317 44.3493 509.434 44.5343 507.526 44.6473Z" fill="#00B0C7"/>
</g>
<mask id="mask7_208:497" style="mask-type:alpha" maskUnits="userSpaceOnUse" x="235" y="34" width="264" height="20">
<path fill-rule="evenodd" clip-rule="evenodd" d="M235.201 34.5073H498.889V53.1702H235.201V34.5073Z" fill="white"/>
</mask>
<g mask="url(#mask7_208:497)">
<path fill-rule="evenodd" clip-rule="evenodd" d="M493.241 55.4381C475.896 56.4681 456.392 51.5551 435.861 46.3851C410.206 39.9251 383.682 33.2451 356.715 36.3361C329.806 39.4351 304.53 48.7981 282.229 57.0581C263.817 63.8781 247.91 69.7701 235.321 70.5171C235.301 70.5181 235.282 70.5191 235.262 70.5201L235.201 69.4711C247.684 68.7901 263.549 62.8671 281.927 56.0601C304.272 47.7831 329.599 38.4021 356.607 35.2911C383.715 32.1851 410.324 38.8811 436.051 45.3601C458.759 51.0781 480.206 56.4781 498.76 53.8331L498.889 54.8751C497.034 55.1391 495.149 55.3241 493.241 55.4381Z" fill="#00B0C7"/>
</g>
<mask id="mask8_208:497" style="mask-type:alpha" maskUnits="userSpaceOnUse" x="511" y="0" width="220" height="25">
<path fill-rule="evenodd" clip-rule="evenodd" d="M511.744 0.169922H730.583V24.2741H511.744V0.169922Z" fill="white"/>
</mask>
<g mask="url(#mask8_208:497)">
<path fill-rule="evenodd" clip-rule="evenodd" d="M769.733 9.19504C752.391 10.224 732.898 5.31204 712.378 0.140041C686.736 -6.32196 660.224 -13.005 633.257 -9.90996C606.349 -6.81096 581.073 2.55104 558.772 10.811C540.359 17.632 524.453 23.523 511.863 24.27C511.843 24.271 511.824 24.273 511.804 24.274L511.744 23.225C511.763 23.223 511.782 23.222 511.801 23.221C524.267 22.482 540.119 16.61 558.47 9.81304C580.815 1.53704 606.141 -7.84396 633.15 -10.955C660.259 -14.061 686.853 -7.36496 712.568 -0.884958C735.266 4.83604 756.71 10.233 775.253 7.58904L775.383 8.63104C773.527 8.89604 771.642 9.08104 769.733 9.19504Z" fill="#00B0C7"/>
</g>
<mask id="mask9_208:497" style="mask-type:alpha" maskUnits="userSpaceOnUse" x="527" y="0" width="204" height="34">
<path fill-rule="evenodd" clip-rule="evenodd" d="M527.204 0.169922H730.583V33.3039H527.204V0.169922Z" fill="white"/>
</mask>
<g mask="url(#mask9_208:497)">
<path fill-rule="evenodd" clip-rule="evenodd" d="M785.199 18.2251C767.853 19.2551 748.359 14.3411 727.836 9.17012C702.196 2.70812 675.693 -3.97088 648.72 -0.881884C621.807 2.21712 596.528 11.5801 574.225 19.8421C555.814 26.6621 539.907 32.5541 527.318 33.3011C527.3 33.3021 527.284 33.3031 527.265 33.3041L527.204 32.2551C527.221 32.2541 527.239 32.2531 527.256 32.2521C539.722 31.5121 555.573 25.6411 573.923 18.8441C596.27 10.5661 621.6 1.18312 648.612 -1.92688C675.724 -5.02988 702.314 1.66512 728.027 8.14412C750.726 13.8641 772.16 19.2641 790.718 16.6191L790.847 17.6611C788.992 17.9261 787.107 18.1111 785.199 18.2251Z" fill="#00B0C7"/>
</g>
<mask id="mask10_208:497" style="mask-type:alpha" maskUnits="userSpaceOnUse" x="512" y="8" width="219" height="37">
<path fill-rule="evenodd" clip-rule="evenodd" d="M512.92 8.08203H730.583V44.0973H512.92V8.08203Z" fill="white"/>
</mask>
<g mask="url(#mask10_208:497)">
<path fill-rule="evenodd" clip-rule="evenodd" d="M770.914 29.0173C753.571 30.0473 734.076 25.1343 713.555 19.9623C687.913 13.5003 661.4 6.81133 634.434 9.91033C607.525 13.0103 582.249 22.3733 559.947 30.6333C541.533 37.4543 525.626 43.3463 513.036 44.0933C513.018 44.0943 513 44.0963 512.981 44.0973L512.92 43.0483C512.937 43.0473 512.956 43.0453 512.974 43.0443C525.441 42.3053 541.292 36.4333 559.645 29.6353C581.991 21.3583 607.318 11.9773 634.326 8.86533C661.44 5.76033 688.031 12.4573 713.745 18.9373C736.443 24.6573 757.881 30.0593 776.43 27.4123L776.559 28.4543C774.704 28.7193 772.822 28.9043 770.914 29.0173Z" fill="#00B0C7"/>
</g>
<mask id="mask11_208:497" style="mask-type:alpha" maskUnits="userSpaceOnUse" x="498" y="18" width="233" height="36">
<path fill-rule="evenodd" clip-rule="evenodd" d="M498.636 18.875H730.583V53.17H498.636V18.875Z" fill="white"/>
</mask>
<g mask="url(#mask11_208:497)">
<path fill-rule="evenodd" clip-rule="evenodd" d="M756.63 39.808C739.286 40.838 719.793 35.925 699.271 30.754C673.628 24.291 647.107 17.612 620.15 20.704C593.242 23.803 567.966 33.165 545.665 41.425C527.252 48.245 511.346 54.137 498.755 54.884C498.736 54.885 498.717 54.886 498.697 54.887L498.636 53.838C498.655 53.837 498.674 53.836 498.693 53.835C511.16 53.095 527.012 47.224 545.362 40.427C567.708 32.15 593.034 22.769 620.042 19.658C647.151 16.554 673.747 23.249 699.461 29.729C722.159 35.448 743.599 40.851 762.148 38.203L762.277 39.244C760.422 39.509 758.538 39.694 756.63 39.808Z" fill="#00B0C7"/>
</g>
<mask id="mask12_208:497" style="mask-type:alpha" maskUnits="userSpaceOnUse" x="484" y="29" width="247" height="25">
<path fill-rule="evenodd" clip-rule="evenodd" d="M484.353 29.6675H730.583V53.1699H484.353V29.6675Z" fill="white"/>
</mask>
<g mask="url(#mask12_208:497)">
<path fill-rule="evenodd" clip-rule="evenodd" d="M742.343 50.6014C725.002 51.6304 705.508 46.7174 684.988 41.5464C659.344 35.0844 632.824 28.3994 605.866 31.4954C578.956 34.5944 553.679 43.9564 531.376 52.2184C512.963 59.0384 497.058 64.9304 484.469 65.6774C484.45 65.6784 484.432 65.6794 484.413 65.6804L484.353 64.6314C484.37 64.6304 484.389 64.6294 484.406 64.6284C496.873 63.8884 512.723 58.0174 531.074 51.2204C553.421 42.9424 578.749 33.5604 605.759 30.4504C632.871 27.3464 659.464 34.0424 685.178 40.5224C707.875 46.2414 729.311 51.6404 747.862 48.9964L747.992 50.0374C746.136 50.3024 744.253 50.4884 742.343 50.6014Z" fill="#00B0C7"/>
</g>
<mask id="mask13_208:497" style="mask-type:alpha" maskUnits="userSpaceOnUse" x="499" y="38" width="232" height="16">
<path fill-rule="evenodd" clip-rule="evenodd" d="M499.812 38.6943H730.583V53.1701H499.812V38.6943Z" fill="white"/>
</mask>
<g mask="url(#mask13_208:497)">
<path fill-rule="evenodd" clip-rule="evenodd" d="M757.805 59.6284C740.462 60.6574 720.967 55.7454 700.447 50.5744C674.805 44.1114 648.284 37.4324 621.326 40.5244C594.417 43.6224 569.14 52.9854 546.838 61.2454C528.426 68.0654 512.519 73.9574 499.929 74.7044C499.91 74.7054 499.892 74.7064 499.872 74.7074L499.812 73.6584C499.83 73.6574 499.85 73.6564 499.867 73.6554C512.335 72.9154 528.184 67.0444 546.535 60.2474C568.882 51.9704 594.209 42.5894 621.218 39.4784C648.34 36.3714 674.924 43.0694 700.637 49.5494C723.335 55.2694 744.779 60.6684 763.323 58.0234L763.453 59.0644C761.598 59.3294 759.714 59.5154 757.805 59.6284Z" fill="#00B0C7"/>
</g>
<path fill-rule="evenodd" clip-rule="evenodd" d="M31 26L17 33V19L31 26Z" fill="white"/>
<path d="M53.81 23.71C53.81 24.578 53.649 25.313 53.327 25.915C53.005 26.503 52.571 26.979 52.025 27.343C51.479 27.707 50.849 27.973 50.135 28.141C49.421 28.309 48.679 28.393 47.909 28.393H46.124V34H42.533V19.132H47.993C48.805 19.132 49.561 19.216 50.261 19.384C50.975 19.538 51.591 19.797 52.109 20.161C52.641 20.511 53.054 20.98 53.348 21.568C53.656 22.142 53.81 22.856 53.81 23.71ZM50.219 23.731C50.219 23.381 50.149 23.094 50.009 22.87C49.869 22.646 49.68 22.471 49.442 22.345C49.204 22.219 48.931 22.135 48.623 22.093C48.329 22.051 48.021 22.03 47.699 22.03H46.124V25.537H47.636C47.972 25.537 48.294 25.509 48.602 25.453C48.91 25.397 49.183 25.299 49.421 25.159C49.673 25.019 49.869 24.837 50.009 24.613C50.149 24.375 50.219 24.081 50.219 23.731ZM63.9246 34L60.7116 28.099H59.4936V34H55.9656V19.132H61.6356C62.3496 19.132 63.0426 19.209 63.7146 19.363C64.4006 19.503 65.0096 19.748 65.5416 20.098C66.0876 20.448 66.5216 20.91 66.8436 21.484C67.1656 22.058 67.3266 22.772 67.3266 23.626C67.3266 24.634 67.0536 25.481 66.5076 26.167C65.9616 26.853 65.2056 27.343 64.2396 27.637L68.1246 34H63.9246ZM63.7776 23.689C63.7776 23.339 63.7006 23.059 63.5466 22.849C63.4066 22.625 63.2176 22.457 62.9796 22.345C62.7556 22.219 62.4966 22.135 62.2026 22.093C61.9226 22.051 61.6496 22.03 61.3836 22.03H59.4726V25.495H61.1736C61.4676 25.495 61.7686 25.474 62.0766 25.432C62.3846 25.376 62.6646 25.285 62.9166 25.159C63.1686 25.033 63.3716 24.851 63.5256 24.613C63.6936 24.375 63.7776 24.067 63.7776 23.689ZM85.3884 26.503C85.3884 27.679 85.1854 28.757 84.7794 29.737C84.3734 30.703 83.8064 31.536 83.0784 32.236C82.3644 32.922 81.5104 33.454 80.5164 33.832C79.5224 34.21 78.4444 34.399 77.2824 34.399C76.1204 34.399 75.0424 34.21 74.0484 33.832C73.0684 33.454 72.2144 32.922 71.4864 32.236C70.7724 31.536 70.2124 30.703 69.8064 29.737C69.4004 28.757 69.1974 27.679 69.1974 26.503C69.1974 25.313 69.4004 24.242 69.8064 23.29C70.2124 22.324 70.7724 21.505 71.4864 20.833C72.2144 20.161 73.0684 19.643 74.0484 19.279C75.0424 18.915 76.1204 18.733 77.2824 18.733C78.4444 18.733 79.5224 18.915 80.5164 19.279C81.5104 19.643 82.3644 20.161 83.0784 20.833C83.8064 21.505 84.3734 22.324 84.7794 23.29C85.1854 24.242 85.3884 25.313 85.3884 26.503ZM81.5454 26.503C81.5454 25.859 81.4404 25.257 81.2304 24.697C81.0204 24.137 80.7264 23.661 80.3484 23.269C79.9844 22.863 79.5364 22.548 79.0044 22.324C78.4864 22.086 77.9124 21.967 77.2824 21.967C76.6524 21.967 76.0784 22.086 75.5604 22.324C75.0424 22.548 74.5944 22.863 74.2164 23.269C73.8384 23.661 73.5444 24.137 73.3344 24.697C73.1384 25.257 73.0404 25.859 73.0404 26.503C73.0404 27.175 73.1454 27.798 73.3554 28.372C73.5654 28.932 73.8524 29.415 74.2164 29.821C74.5944 30.227 75.0424 30.549 75.5604 30.787C76.0784 31.011 76.6524 31.123 77.2824 31.123C77.9124 31.123 78.4864 31.011 79.0044 30.787C79.5224 30.549 79.9704 30.227 80.3484 29.821C80.7264 29.415 81.0204 28.932 81.2304 28.372C81.4404 27.798 81.5454 27.175 81.5454 26.503ZM95.1209 28.918C95.1209 29.506 95.0509 30.122 94.9109 30.766C94.7849 31.41 94.5399 32.005 94.1759 32.551C93.8259 33.083 93.3289 33.524 92.6849 33.874C92.0549 34.224 91.2359 34.399 90.2279 34.399C88.9679 34.399 87.9179 34.077 87.0779 33.433C86.2379 32.775 85.6779 31.935 85.3979 30.913L88.5689 29.842C88.6669 30.234 88.8419 30.549 89.0939 30.787C89.3599 31.025 89.6819 31.144 90.0599 31.144C90.6479 31.144 91.0329 30.941 91.2149 30.535C91.4109 30.129 91.5089 29.597 91.5089 28.939V19.132H95.1209V28.918ZM98.1092 34V19.132H108.105V22.177H101.574V24.97H107.748V27.847H101.574V30.934H108.483V34H98.1092ZM123.948 31.942C123.29 32.698 122.478 33.3 121.512 33.748C120.546 34.182 119.433 34.399 118.173 34.399C117.025 34.399 115.961 34.21 114.981 33.832C114.015 33.454 113.175 32.922 112.461 32.236C111.747 31.536 111.187 30.703 110.781 29.737C110.375 28.771 110.172 27.707 110.172 26.545C110.172 25.355 110.375 24.277 110.781 23.311C111.201 22.345 111.775 21.526 112.503 20.854C113.231 20.168 114.085 19.643 115.065 19.279C116.045 18.915 117.102 18.733 118.236 18.733C119.286 18.733 120.315 18.922 121.323 19.3C122.345 19.664 123.171 20.203 123.801 20.917L121.365 23.353C121.029 22.891 120.588 22.548 120.042 22.324C119.496 22.1 118.936 21.988 118.362 21.988C117.732 21.988 117.151 22.107 116.619 22.345C116.101 22.569 115.653 22.884 115.275 23.29C114.897 23.696 114.603 24.179 114.393 24.739C114.183 25.285 114.078 25.887 114.078 26.545C114.078 27.217 114.183 27.833 114.393 28.393C114.603 28.953 114.89 29.436 115.254 29.842C115.632 30.234 116.08 30.542 116.598 30.766C117.116 30.99 117.683 31.102 118.299 31.102C119.013 31.102 119.636 30.962 120.168 30.682C120.7 30.402 121.127 30.038 121.449 29.59L123.948 31.942ZM131.727 22.198V34H128.136V22.198H123.936V19.132H135.927V22.198H131.727ZM155.387 31.942C154.729 32.698 153.917 33.3 152.951 33.748C151.985 34.182 150.872 34.399 149.612 34.399C148.464 34.399 147.4 34.21 146.42 33.832C145.454 33.454 144.614 32.922 143.9 32.236C143.186 31.536 142.626 30.703 142.22 29.737C141.814 28.771 141.611 27.707 141.611 26.545C141.611 25.355 141.814 24.277 142.22 23.311C142.64 22.345 143.214 21.526 143.942 20.854C144.67 20.168 145.524 19.643 146.504 19.279C147.484 18.915 148.541 18.733 149.675 18.733C150.725 18.733 151.754 18.922 152.762 19.3C153.784 19.664 154.61 20.203 155.24 20.917L152.804 23.353C152.468 22.891 152.027 22.548 151.481 22.324C150.935 22.1 150.375 21.988 149.801 21.988C149.171 21.988 148.59 22.107 148.058 22.345C147.54 22.569 147.092 22.884 146.714 23.29C146.336 23.696 146.042 24.179 145.832 24.739C145.622 25.285 145.517 25.887 145.517 26.545C145.517 27.217 145.622 27.833 145.832 28.393C146.042 28.953 146.329 29.436 146.693 29.842C147.071 30.234 147.519 30.542 148.037 30.766C148.555 30.99 149.122 31.102 149.738 31.102C150.452 31.102 151.075 30.962 151.607 30.682C152.139 30.402 152.566 30.038 152.888 29.59L155.387 31.942ZM172.177 26.503C172.177 27.679 171.974 28.757 171.568 29.737C171.162 30.703 170.595 31.536 169.867 32.236C169.153 32.922 168.299 33.454 167.305 33.832C166.311 34.21 165.233 34.399 164.071 34.399C162.909 34.399 161.831 34.21 160.837 33.832C159.857 33.454 159.003 32.922 158.275 32.236C157.561 31.536 157.001 30.703 156.595 29.737C156.189 28.757 155.986 27.679 155.986 26.503C155.986 25.313 156.189 24.242 156.595 23.29C157.001 22.324 157.561 21.505 158.275 20.833C159.003 20.161 159.857 19.643 160.837 19.279C161.831 18.915 162.909 18.733 164.071 18.733C165.233 18.733 166.311 18.915 167.305 19.279C168.299 19.643 169.153 20.161 169.867 20.833C170.595 21.505 171.162 22.324 171.568 23.29C171.974 24.242 172.177 25.313 172.177 26.503ZM168.334 26.503C168.334 25.859 168.229 25.257 168.019 24.697C167.809 24.137 167.515 23.661 167.137 23.269C166.773 22.863 166.325 22.548 165.793 22.324C165.275 22.086 164.701 21.967 164.071 21.967C163.441 21.967 162.867 22.086 162.349 22.324C161.831 22.548 161.383 22.863 161.005 23.269C160.627 23.661 160.333 24.137 160.123 24.697C159.927 25.257 159.829 25.859 159.829 26.503C159.829 27.175 159.934 27.798 160.144 28.372C160.354 28.932 160.641 29.415 161.005 29.821C161.383 30.227 161.831 30.549 162.349 30.787C162.867 31.011 163.441 31.123 164.071 31.123C164.701 31.123 165.275 31.011 165.793 30.787C166.311 30.549 166.759 30.227 167.137 29.821C167.515 29.415 167.809 28.932 168.019 28.372C168.229 27.798 168.334 27.175 168.334 26.503ZM183.992 34L178.007 24.277H177.944L178.028 34H174.542V19.132H178.637L184.601 28.834H184.664L184.58 19.132H188.066V34H183.992ZM198.987 22.996C198.679 22.604 198.273 22.296 197.769 22.072C197.279 21.834 196.803 21.715 196.341 21.715C196.103 21.715 195.858 21.736 195.606 21.778C195.368 21.82 195.151 21.904 194.955 22.03C194.759 22.142 194.591 22.296 194.451 22.492C194.325 22.674 194.262 22.912 194.262 23.206C194.262 23.458 194.311 23.668 194.409 23.836C194.521 24.004 194.675 24.151 194.871 24.277C195.081 24.403 195.326 24.522 195.606 24.634C195.886 24.732 196.201 24.837 196.551 24.949C197.055 25.117 197.58 25.306 198.126 25.516C198.672 25.712 199.169 25.978 199.617 26.314C200.065 26.65 200.436 27.07 200.73 27.574C201.024 28.064 201.171 28.68 201.171 29.422C201.171 30.276 201.01 31.018 200.688 31.648C200.38 32.264 199.96 32.775 199.428 33.181C198.896 33.587 198.287 33.888 197.601 34.084C196.915 34.28 196.208 34.378 195.48 34.378C194.416 34.378 193.387 34.196 192.393 33.832C191.399 33.454 190.573 32.922 189.915 32.236L192.267 29.842C192.631 30.29 193.107 30.668 193.695 30.976C194.297 31.27 194.892 31.417 195.48 31.417C195.746 31.417 196.005 31.389 196.257 31.333C196.509 31.277 196.726 31.186 196.908 31.06C197.104 30.934 197.258 30.766 197.37 30.556C197.482 30.346 197.538 30.094 197.538 29.8C197.538 29.52 197.468 29.282 197.328 29.086C197.188 28.89 196.985 28.715 196.719 28.561C196.467 28.393 196.145 28.246 195.753 28.12C195.375 27.98 194.941 27.833 194.451 27.679C193.975 27.525 193.506 27.343 193.044 27.133C192.596 26.923 192.19 26.657 191.826 26.335C191.476 25.999 191.189 25.6 190.965 25.138C190.755 24.662 190.65 24.088 190.65 23.416C190.65 22.59 190.818 21.883 191.154 21.295C191.49 20.707 191.931 20.224 192.477 19.846C193.023 19.468 193.639 19.195 194.325 19.027C195.011 18.845 195.704 18.754 196.404 18.754C197.244 18.754 198.098 18.908 198.966 19.216C199.848 19.524 200.618 19.979 201.276 20.581L198.987 22.996ZM209.636 22.198V34H206.045V22.198H201.845V19.132H213.836V22.198H209.636ZM223.434 34L220.221 28.099H219.003V34H215.475V19.132H221.145C221.859 19.132 222.552 19.209 223.224 19.363C223.91 19.503 224.519 19.748 225.051 20.098C225.597 20.448 226.031 20.91 226.353 21.484C226.675 22.058 226.836 22.772 226.836 23.626C226.836 24.634 226.563 25.481 226.017 26.167C225.471 26.853 224.715 27.343 223.749 27.637L227.634 34H223.434ZM223.287 23.689C223.287 23.339 223.21 23.059 223.056 22.849C222.916 22.625 222.727 22.457 222.489 22.345C222.265 22.219 222.006 22.135 221.712 22.093C221.432 22.051 221.159 22.03 220.893 22.03H218.982V25.495H220.683C220.977 25.495 221.278 25.474 221.586 25.432C221.894 25.376 222.174 25.285 222.426 25.159C222.678 25.033 222.881 24.851 223.035 24.613C223.203 24.375 223.287 24.067 223.287 23.689ZM242 28.393C242 29.289 241.846 30.108 241.538 30.85C241.244 31.578 240.817 32.208 240.257 32.74C239.697 33.258 239.018 33.664 238.22 33.958C237.436 34.252 236.561 34.399 235.595 34.399C234.615 34.399 233.733 34.252 232.949 33.958C232.165 33.664 231.5 33.258 230.954 32.74C230.408 32.208 229.988 31.578 229.694 30.85C229.4 30.108 229.253 29.289 229.253 28.393V19.132H232.823V28.099C232.823 28.505 232.872 28.89 232.97 29.254C233.082 29.618 233.243 29.947 233.453 30.241C233.677 30.521 233.964 30.745 234.314 30.913C234.678 31.081 235.112 31.165 235.616 31.165C236.12 31.165 236.547 31.081 236.897 30.913C237.261 30.745 237.555 30.521 237.779 30.241C238.003 29.947 238.164 29.618 238.262 29.254C238.36 28.89 238.409 28.505 238.409 28.099V19.132H242V28.393ZM257.987 31.942C257.329 32.698 256.517 33.3 255.551 33.748C254.585 34.182 253.472 34.399 252.212 34.399C251.064 34.399 250 34.21 249.02 33.832C248.054 33.454 247.214 32.922 246.5 32.236C245.786 31.536 245.226 30.703 244.82 29.737C244.414 28.771 244.211 27.707 244.211 26.545C244.211 25.355 244.414 24.277 244.82 23.311C245.24 22.345 245.814 21.526 246.542 20.854C247.27 20.168 248.124 19.643 249.104 19.279C250.084 18.915 251.141 18.733 252.275 18.733C253.325 18.733 254.354 18.922 255.362 19.3C256.384 19.664 257.21 20.203 257.84 20.917L255.404 23.353C255.068 22.891 254.627 22.548 254.081 22.324C253.535 22.1 252.975 21.988 252.401 21.988C251.771 21.988 251.19 22.107 250.658 22.345C250.14 22.569 249.692 22.884 249.314 23.29C248.936 23.696 248.642 24.179 248.432 24.739C248.222 25.285 248.117 25.887 248.117 26.545C248.117 27.217 248.222 27.833 248.432 28.393C248.642 28.953 248.929 29.436 249.293 29.842C249.671 30.234 250.119 30.542 250.637 30.766C251.155 30.99 251.722 31.102 252.338 31.102C253.052 31.102 253.675 30.962 254.207 30.682C254.739 30.402 255.166 30.038 255.488 29.59L257.987 31.942ZM265.766 22.198V34H262.175V22.198H257.975V19.132H269.966V22.198H265.766ZM271.605 34V19.132H275.217V34H271.605ZM293.789 26.503C293.789 27.679 293.586 28.757 293.18 29.737C292.774 30.703 292.207 31.536 291.479 32.236C290.765 32.922 289.911 33.454 288.917 33.832C287.923 34.21 286.845 34.399 285.683 34.399C284.521 34.399 283.443 34.21 282.449 33.832C281.469 33.454 280.615 32.922 279.887 32.236C279.173 31.536 278.613 30.703 278.207 29.737C277.801 28.757 277.598 27.679 277.598 26.503C277.598 25.313 277.801 24.242 278.207 23.29C278.613 22.324 279.173 21.505 279.887 20.833C280.615 20.161 281.469 19.643 282.449 19.279C283.443 18.915 284.521 18.733 285.683 18.733C286.845 18.733 287.923 18.915 288.917 19.279C289.911 19.643 290.765 20.161 291.479 20.833C292.207 21.505 292.774 22.324 293.18 23.29C293.586 24.242 293.789 25.313 293.789 26.503ZM289.946 26.503C289.946 25.859 289.841 25.257 289.631 24.697C289.421 24.137 289.127 23.661 288.749 23.269C288.385 22.863 287.937 22.548 287.405 22.324C286.887 22.086 286.313 21.967 285.683 21.967C285.053 21.967 284.479 22.086 283.961 22.324C283.443 22.548 282.995 22.863 282.617 23.269C282.239 23.661 281.945 24.137 281.735 24.697C281.539 25.257 281.441 25.859 281.441 26.503C281.441 27.175 281.546 27.798 281.756 28.372C281.966 28.932 282.253 29.415 282.617 29.821C282.995 30.227 283.443 30.549 283.961 30.787C284.479 31.011 285.053 31.123 285.683 31.123C286.313 31.123 286.887 31.011 287.405 30.787C287.923 30.549 288.371 30.227 288.749 29.821C289.127 29.415 289.421 28.932 289.631 28.372C289.841 27.798 289.946 27.175 289.946 26.503ZM305.603 34L299.618 24.277H299.555L299.639 34H296.153V19.132H300.248L306.212 28.834H306.275L306.191 19.132H309.677V34H305.603Z" fill="white"/>
<path d="M419.702 30L419.738 25.491H419.711L418.055 30H416.975L415.364 25.491H415.337L415.373 30H413.924V23.628H416.111L417.56 27.714H417.596L418.982 23.628H421.205V30H419.702ZM424.04 24.087C424.04 24.201 424.016 24.309 423.968 24.411C423.926 24.507 423.866 24.591 423.788 24.663C423.716 24.735 423.626 24.792 423.518 24.834C423.416 24.876 423.308 24.897 423.194 24.897C422.954 24.897 422.753 24.819 422.591 24.663C422.429 24.501 422.348 24.309 422.348 24.087C422.348 23.979 422.369 23.877 422.411 23.781C422.453 23.679 422.513 23.592 422.591 23.52C422.669 23.448 422.759 23.391 422.861 23.349C422.963 23.301 423.074 23.277 423.194 23.277C423.308 23.277 423.416 23.298 423.518 23.34C423.626 23.382 423.716 23.439 423.788 23.511C423.866 23.583 423.926 23.67 423.968 23.772C424.016 23.868 424.04 23.973 424.04 24.087ZM422.456 30V25.518H423.932V30H422.456ZM425.119 30V23.196H426.613V30H425.119ZM430.869 27.246C430.869 27.012 430.794 26.811 430.644 26.643C430.5 26.475 430.281 26.391 429.987 26.391C429.843 26.391 429.711 26.415 429.591 26.463C429.471 26.505 429.366 26.565 429.276 26.643C429.186 26.721 429.114 26.814 429.06 26.922C429.006 27.024 428.976 27.132 428.97 27.246H430.869ZM432.228 27.813C432.228 27.873 432.228 27.933 432.228 27.993C432.228 28.053 432.225 28.11 432.219 28.164H428.97C428.982 28.29 429.018 28.404 429.078 28.506C429.144 28.608 429.225 28.698 429.321 28.776C429.423 28.848 429.534 28.905 429.654 28.947C429.78 28.989 429.909 29.01 430.041 29.01C430.275 29.01 430.473 28.968 430.635 28.884C430.797 28.794 430.929 28.68 431.031 28.542L432.057 29.19C431.847 29.496 431.568 29.733 431.22 29.901C430.878 30.063 430.479 30.144 430.023 30.144C429.687 30.144 429.369 30.093 429.069 29.991C428.769 29.883 428.505 29.73 428.277 29.532C428.055 29.328 427.878 29.079 427.746 28.785C427.62 28.491 427.557 28.155 427.557 27.777C427.557 27.411 427.62 27.081 427.746 26.787C427.872 26.487 428.043 26.235 428.259 26.031C428.475 25.821 428.73 25.659 429.024 25.545C429.318 25.431 429.636 25.374 429.978 25.374C430.308 25.374 430.611 25.431 430.887 25.545C431.163 25.653 431.4 25.812 431.598 26.022C431.796 26.232 431.949 26.487 432.057 26.787C432.171 27.087 432.228 27.429 432.228 27.813ZM435.78 26.841C435.66 26.727 435.519 26.631 435.357 26.553C435.195 26.475 435.024 26.436 434.844 26.436C434.706 26.436 434.577 26.463 434.457 26.517C434.343 26.571 434.286 26.664 434.286 26.796C434.286 26.922 434.349 27.012 434.475 27.066C434.607 27.12 434.817 27.18 435.105 27.246C435.273 27.282 435.441 27.333 435.609 27.399C435.783 27.465 435.939 27.552 436.077 27.66C436.215 27.768 436.326 27.9 436.41 28.056C436.494 28.212 436.536 28.398 436.536 28.614C436.536 28.896 436.479 29.136 436.365 29.334C436.251 29.526 436.101 29.682 435.915 29.802C435.735 29.922 435.531 30.009 435.303 30.063C435.075 30.117 434.847 30.144 434.619 30.144C434.253 30.144 433.893 30.087 433.539 29.973C433.191 29.853 432.9 29.679 432.666 29.451L433.494 28.578C433.626 28.722 433.788 28.842 433.98 28.938C434.172 29.034 434.376 29.082 434.592 29.082C434.712 29.082 434.829 29.055 434.943 29.001C435.063 28.941 435.123 28.839 435.123 28.695C435.123 28.557 435.051 28.455 434.907 28.389C434.763 28.323 434.538 28.254 434.232 28.182C434.076 28.146 433.92 28.098 433.764 28.038C433.608 27.978 433.467 27.897 433.341 27.795C433.221 27.693 433.122 27.567 433.044 27.417C432.966 27.267 432.927 27.087 432.927 26.877C432.927 26.607 432.984 26.379 433.098 26.193C433.212 26.001 433.359 25.845 433.539 25.725C433.719 25.605 433.917 25.518 434.133 25.464C434.355 25.404 434.574 25.374 434.79 25.374C435.126 25.374 435.453 25.428 435.771 25.536C436.095 25.638 436.368 25.794 436.59 26.004L435.78 26.841ZM438.991 26.625V28.335C438.991 28.545 439.03 28.704 439.108 28.812C439.192 28.914 439.339 28.965 439.549 28.965C439.621 28.965 439.696 28.959 439.774 28.947C439.858 28.935 439.927 28.917 439.981 28.893L439.999 29.973C439.897 30.009 439.768 30.039 439.612 30.063C439.456 30.093 439.3 30.108 439.144 30.108C438.844 30.108 438.592 30.072 438.388 30C438.184 29.922 438.019 29.814 437.893 29.676C437.773 29.532 437.686 29.364 437.632 29.172C437.578 28.974 437.551 28.755 437.551 28.515V26.625H436.831V25.518H437.542V24.339H438.991V25.518H440.044V26.625H438.991ZM445.489 27.741C445.489 28.107 445.423 28.44 445.291 28.74C445.159 29.034 444.979 29.286 444.751 29.496C444.523 29.7 444.259 29.859 443.959 29.973C443.659 30.087 443.338 30.144 442.996 30.144C442.66 30.144 442.339 30.087 442.033 29.973C441.733 29.859 441.469 29.7 441.241 29.496C441.019 29.286 440.842 29.034 440.71 28.74C440.578 28.44 440.512 28.107 440.512 27.741C440.512 27.375 440.578 27.045 440.71 26.751C440.842 26.457 441.019 26.208 441.241 26.004C441.469 25.8 441.733 25.644 442.033 25.536C442.339 25.428 442.66 25.374 442.996 25.374C443.338 25.374 443.659 25.428 443.959 25.536C444.259 25.644 444.523 25.8 444.751 26.004C444.979 26.208 445.159 26.457 445.291 26.751C445.423 27.045 445.489 27.375 445.489 27.741ZM444.067 27.741C444.067 27.597 444.043 27.456 443.995 27.318C443.947 27.18 443.878 27.06 443.788 26.958C443.698 26.85 443.587 26.763 443.455 26.697C443.323 26.631 443.17 26.598 442.996 26.598C442.822 26.598 442.669 26.631 442.537 26.697C442.405 26.763 442.294 26.85 442.204 26.958C442.12 27.06 442.054 27.18 442.006 27.318C441.964 27.456 441.943 27.597 441.943 27.741C441.943 27.885 441.964 28.026 442.006 28.164C442.054 28.302 442.123 28.428 442.213 28.542C442.303 28.65 442.414 28.737 442.546 28.803C442.678 28.869 442.831 28.902 443.005 28.902C443.179 28.902 443.332 28.869 443.464 28.803C443.596 28.737 443.707 28.65 443.797 28.542C443.887 28.428 443.953 28.302 443.995 28.164C444.043 28.026 444.067 27.885 444.067 27.741ZM449.367 30V27.552C449.367 27.426 449.355 27.306 449.331 27.192C449.313 27.078 449.28 26.979 449.232 26.895C449.184 26.805 449.115 26.736 449.025 26.688C448.941 26.634 448.833 26.607 448.701 26.607C448.569 26.607 448.452 26.634 448.35 26.688C448.254 26.736 448.173 26.805 448.107 26.895C448.041 26.985 447.99 27.09 447.954 27.21C447.924 27.324 447.909 27.444 447.909 27.57V30H446.424V25.518H447.855V26.139H447.873C447.927 26.043 447.996 25.95 448.08 25.86C448.17 25.764 448.272 25.683 448.386 25.617C448.506 25.551 448.635 25.497 448.773 25.455C448.911 25.413 449.058 25.392 449.214 25.392C449.514 25.392 449.769 25.446 449.979 25.554C450.189 25.662 450.357 25.803 450.483 25.977C450.615 26.145 450.708 26.34 450.762 26.562C450.822 26.784 450.852 27.006 450.852 27.228V30H449.367ZM455.057 27.246C455.057 27.012 454.982 26.811 454.832 26.643C454.688 26.475 454.469 26.391 454.175 26.391C454.031 26.391 453.899 26.415 453.779 26.463C453.659 26.505 453.554 26.565 453.464 26.643C453.374 26.721 453.302 26.814 453.248 26.922C453.194 27.024 453.164 27.132 453.158 27.246H455.057ZM456.416 27.813C456.416 27.873 456.416 27.933 456.416 27.993C456.416 28.053 456.413 28.11 456.407 28.164H453.158C453.17 28.29 453.206 28.404 453.266 28.506C453.332 28.608 453.413 28.698 453.509 28.776C453.611 28.848 453.722 28.905 453.842 28.947C453.968 28.989 454.097 29.01 454.229 29.01C454.463 29.01 454.661 28.968 454.823 28.884C454.985 28.794 455.117 28.68 455.219 28.542L456.245 29.19C456.035 29.496 455.756 29.733 455.408 29.901C455.066 30.063 454.667 30.144 454.211 30.144C453.875 30.144 453.557 30.093 453.257 29.991C452.957 29.883 452.693 29.73 452.465 29.532C452.243 29.328 452.066 29.079 451.934 28.785C451.808 28.491 451.745 28.155 451.745 27.777C451.745 27.411 451.808 27.081 451.934 26.787C452.06 26.487 452.231 26.235 452.447 26.031C452.663 25.821 452.918 25.659 453.212 25.545C453.506 25.431 453.824 25.374 454.166 25.374C454.496 25.374 454.799 25.431 455.075 25.545C455.351 25.653 455.588 25.812 455.786 26.022C455.984 26.232 456.137 26.487 456.245 26.787C456.359 27.087 456.416 27.429 456.416 27.813ZM459.968 26.841C459.848 26.727 459.707 26.631 459.545 26.553C459.383 26.475 459.212 26.436 459.032 26.436C458.894 26.436 458.765 26.463 458.645 26.517C458.531 26.571 458.474 26.664 458.474 26.796C458.474 26.922 458.537 27.012 458.663 27.066C458.795 27.12 459.005 27.18 459.293 27.246C459.461 27.282 459.629 27.333 459.797 27.399C459.971 27.465 460.127 27.552 460.265 27.66C460.403 27.768 460.514 27.9 460.598 28.056C460.682 28.212 460.724 28.398 460.724 28.614C460.724 28.896 460.667 29.136 460.553 29.334C460.439 29.526 460.289 29.682 460.103 29.802C459.923 29.922 459.719 30.009 459.491 30.063C459.263 30.117 459.035 30.144 458.807 30.144C458.441 30.144 458.081 30.087 457.727 29.973C457.379 29.853 457.088 29.679 456.854 29.451L457.682 28.578C457.814 28.722 457.976 28.842 458.168 28.938C458.36 29.034 458.564 29.082 458.78 29.082C458.9 29.082 459.017 29.055 459.131 29.001C459.251 28.941 459.311 28.839 459.311 28.695C459.311 28.557 459.239 28.455 459.095 28.389C458.951 28.323 458.726 28.254 458.42 28.182C458.264 28.146 458.108 28.098 457.952 28.038C457.796 27.978 457.655 27.897 457.529 27.795C457.409 27.693 457.31 27.567 457.232 27.417C457.154 27.267 457.115 27.087 457.115 26.877C457.115 26.607 457.172 26.379 457.286 26.193C457.4 26.001 457.547 25.845 457.727 25.725C457.907 25.605 458.105 25.518 458.321 25.464C458.543 25.404 458.762 25.374 458.978 25.374C459.314 25.374 459.641 25.428 459.959 25.536C460.283 25.638 460.556 25.794 460.778 26.004L459.968 26.841Z" fill="white"/>
<rect x="469.302" y="19" width="59" height="15" rx="7.5" fill="#00A1C4"/>
<path d="M478.231 24.044H481.514V24.814H479.113V26.074H481.388V26.816H479.113V28.216H481.64V29H478.231V24.044ZM487.844 29H484.855C484.458 29 484.097 28.944 483.77 28.832C483.448 28.7153 483.17 28.5497 482.937 28.335C482.708 28.1157 482.531 27.8497 482.405 27.537C482.279 27.2197 482.216 26.8603 482.216 26.459C482.216 26.081 482.281 25.738 482.412 25.43C482.547 25.1173 482.734 24.849 482.972 24.625C483.21 24.401 483.49 24.2283 483.812 24.107C484.139 23.981 484.491 23.918 484.869 23.918C485.247 23.918 485.597 23.981 485.919 24.107C486.241 24.2283 486.519 24.401 486.752 24.625C486.99 24.849 487.174 25.1173 487.305 25.43C487.436 25.738 487.501 26.081 487.501 26.459C487.501 26.683 487.475 26.8883 487.424 27.075C487.373 27.2617 487.305 27.432 487.221 27.586C487.142 27.7353 487.048 27.8683 486.941 27.985C486.838 28.097 486.731 28.1927 486.619 28.272V28.286H487.844V29ZM484.869 24.709C484.631 24.709 484.407 24.7533 484.197 24.842C483.992 24.9307 483.814 25.052 483.665 25.206C483.516 25.36 483.397 25.5443 483.308 25.759C483.224 25.9737 483.182 26.207 483.182 26.459C483.182 26.725 483.222 26.9677 483.301 27.187C483.385 27.4017 483.499 27.586 483.644 27.74C483.793 27.894 483.971 28.0153 484.176 28.104C484.381 28.188 484.608 28.23 484.855 28.23C485.098 28.23 485.322 28.188 485.527 28.104C485.737 28.0153 485.917 27.894 486.066 27.74C486.215 27.586 486.332 27.4017 486.416 27.187C486.5 26.9677 486.542 26.725 486.542 26.459C486.542 26.207 486.502 25.9737 486.423 25.759C486.344 25.5443 486.229 25.36 486.08 25.206C485.935 25.052 485.76 24.9307 485.555 24.842C485.35 24.7533 485.121 24.709 484.869 24.709ZM492.412 27.18C492.412 27.4787 492.361 27.7493 492.258 27.992C492.155 28.23 492.015 28.433 491.838 28.601C491.661 28.769 491.451 28.8997 491.208 28.993C490.965 29.0817 490.702 29.126 490.417 29.126C490.132 29.126 489.869 29.0817 489.626 28.993C489.383 28.8997 489.171 28.769 488.989 28.601C488.812 28.433 488.672 28.23 488.569 27.992C488.471 27.7493 488.422 27.4787 488.422 27.18V24.044H489.304V27.145C489.304 27.2897 489.323 27.4343 489.36 27.579C489.397 27.719 489.458 27.845 489.542 27.957C489.631 28.069 489.745 28.16 489.885 28.23C490.03 28.3 490.207 28.335 490.417 28.335C490.627 28.335 490.802 28.3 490.942 28.23C491.087 28.16 491.201 28.069 491.285 27.957C491.374 27.845 491.437 27.719 491.474 27.579C491.511 27.4343 491.53 27.2897 491.53 27.145V24.044H492.412V27.18ZM493.461 24.044H494.343V29H493.461V24.044ZM495.437 24.044H497.054C497.338 24.044 497.595 24.0697 497.824 24.121C498.052 24.1723 498.248 24.2563 498.412 24.373C498.575 24.4897 498.701 24.639 498.79 24.821C498.878 25.003 498.923 25.2223 498.923 25.479C498.923 25.7543 498.871 25.9853 498.769 26.172C498.666 26.3587 498.526 26.5103 498.349 26.627C498.176 26.739 497.973 26.8207 497.74 26.872C497.506 26.9233 497.259 26.949 496.998 26.949H496.319V29H495.437V24.044ZM496.935 26.207C497.079 26.207 497.217 26.1977 497.348 26.179C497.478 26.1557 497.595 26.1183 497.698 26.067C497.8 26.011 497.882 25.9363 497.943 25.843C498.003 25.7497 498.034 25.6283 498.034 25.479C498.034 25.3343 498.003 25.2177 497.943 25.129C497.882 25.0357 497.8 24.9633 497.698 24.912C497.6 24.8607 497.485 24.828 497.355 24.814C497.229 24.7953 497.098 24.786 496.963 24.786H496.319V26.207H496.935ZM499.709 24.044H501.088L502.376 27.565H502.397L503.671 24.044H505.057V29H504.182V25.017H504.168L502.663 29H502.047L500.563 25.017H500.549V29H499.709V24.044ZM506.149 24.044H509.432V24.814H507.031V26.074H509.306V26.816H507.031V28.216H509.558V29H506.149V24.044ZM510.421 24.044H511.59L513.893 27.754H513.907V24.044H514.789V29H513.669L511.317 25.171H511.303V29H510.421V24.044ZM516.884 24.814H515.365V24.044H519.285V24.814H517.766V29H516.884V24.814Z" fill="white"/>
<rect x="533.302" y="19" width="71" height="15" rx="7.5" fill="#E50000"/>
<path d="M541.523 25.122C541.355 24.894 541.136 24.729 540.866 24.627C540.596 24.519 540.332 24.465 540.074 24.465C539.744 24.465 539.444 24.525 539.174 24.645C538.904 24.765 538.67 24.93 538.472 25.14C538.28 25.35 538.13 25.596 538.022 25.878C537.92 26.16 537.869 26.466 537.869 26.796C537.869 27.144 537.92 27.462 538.022 27.75C538.124 28.038 538.268 28.287 538.454 28.497C538.646 28.701 538.874 28.86 539.138 28.974C539.402 29.088 539.699 29.145 540.029 29.145C540.371 29.145 540.674 29.079 540.938 28.947C541.202 28.809 541.415 28.629 541.577 28.407L542.486 29.046C542.204 29.4 541.859 29.676 541.451 29.874C541.043 30.066 540.566 30.162 540.02 30.162C539.522 30.162 539.063 30.081 538.643 29.919C538.229 29.751 537.872 29.52 537.572 29.226C537.272 28.926 537.038 28.572 536.87 28.164C536.702 27.75 536.618 27.294 536.618 26.796C536.618 26.286 536.705 25.827 536.879 25.419C537.059 25.005 537.302 24.654 537.608 24.366C537.92 24.078 538.286 23.856 538.706 23.7C539.126 23.544 539.582 23.466 540.074 23.466C540.278 23.466 540.491 23.487 540.713 23.529C540.935 23.565 541.148 23.625 541.352 23.709C541.556 23.787 541.748 23.886 541.928 24.006C542.108 24.126 542.261 24.27 542.387 24.438L541.523 25.122ZM542.779 26.796C542.779 26.286 542.863 25.827 543.031 25.419C543.205 25.005 543.442 24.654 543.742 24.366C544.048 24.078 544.408 23.856 544.822 23.7C545.242 23.544 545.698 23.466 546.19 23.466C546.688 23.466 547.147 23.544 547.567 23.7C547.987 23.856 548.35 24.078 548.656 24.366C548.962 24.654 549.199 25.005 549.367 25.419C549.541 25.827 549.628 26.286 549.628 26.796C549.628 27.294 549.541 27.75 549.367 28.164C549.199 28.572 548.962 28.926 548.656 29.226C548.35 29.52 547.987 29.751 547.567 29.919C547.147 30.081 546.688 30.162 546.19 30.162C545.698 30.162 545.242 30.081 544.822 29.919C544.408 29.751 544.048 29.52 543.742 29.226C543.442 28.926 543.205 28.572 543.031 28.164C542.863 27.75 542.779 27.294 542.779 26.796ZM544.012 26.796C544.012 27.138 544.063 27.453 544.165 27.741C544.273 28.023 544.423 28.269 544.615 28.479C544.813 28.689 545.044 28.854 545.308 28.974C545.578 29.088 545.875 29.145 546.199 29.145C546.523 29.145 546.82 29.088 547.09 28.974C547.36 28.854 547.591 28.689 547.783 28.479C547.981 28.269 548.131 28.023 548.233 27.741C548.341 27.453 548.395 27.138 548.395 26.796C548.395 26.466 548.341 26.16 548.233 25.878C548.131 25.596 547.984 25.35 547.792 25.14C547.6 24.93 547.369 24.765 547.099 24.645C546.829 24.525 546.529 24.465 546.199 24.465C545.869 24.465 545.569 24.525 545.299 24.645C545.035 24.765 544.807 24.93 544.615 25.14C544.423 25.35 544.273 25.596 544.165 25.878C544.063 26.16 544.012 26.466 544.012 26.796ZM550.723 23.628H552.226L555.187 28.398H555.205V23.628H556.339V30H554.899L551.875 25.077H551.857V30H550.723V23.628ZM560.994 24.96C560.874 24.804 560.703 24.675 560.481 24.573C560.265 24.465 560.046 24.411 559.824 24.411C559.692 24.411 559.56 24.429 559.428 24.465C559.296 24.495 559.176 24.546 559.068 24.618C558.96 24.684 558.87 24.774 558.798 24.888C558.732 24.996 558.699 25.128 558.699 25.284C558.699 25.428 558.729 25.551 558.789 25.653C558.849 25.755 558.93 25.842 559.032 25.914C559.14 25.986 559.269 26.049 559.419 26.103C559.569 26.157 559.734 26.211 559.914 26.265C560.118 26.331 560.328 26.406 560.544 26.49C560.766 26.574 560.967 26.685 561.147 26.823C561.333 26.961 561.483 27.135 561.597 27.345C561.717 27.555 561.777 27.816 561.777 28.128C561.777 28.47 561.714 28.77 561.588 29.028C561.462 29.28 561.294 29.49 561.084 29.658C560.874 29.826 560.628 29.952 560.346 30.036C560.064 30.12 559.767 30.162 559.455 30.162C559.041 30.162 558.636 30.087 558.24 29.937C557.844 29.781 557.52 29.553 557.268 29.253L558.078 28.497C558.234 28.713 558.441 28.884 558.699 29.01C558.963 29.136 559.221 29.199 559.473 29.199C559.605 29.199 559.74 29.184 559.878 29.154C560.016 29.118 560.139 29.061 560.247 28.983C560.361 28.905 560.451 28.809 560.517 28.695C560.589 28.575 560.625 28.428 560.625 28.254C560.625 28.086 560.586 27.948 560.508 27.84C560.43 27.726 560.325 27.63 560.193 27.552C560.061 27.468 559.905 27.396 559.725 27.336C559.545 27.276 559.356 27.213 559.158 27.147C558.966 27.087 558.774 27.015 558.582 26.931C558.39 26.847 558.216 26.736 558.06 26.598C557.91 26.46 557.787 26.292 557.691 26.094C557.595 25.89 557.547 25.638 557.547 25.338C557.547 25.014 557.613 24.735 557.745 24.501C557.883 24.267 558.06 24.075 558.276 23.925C558.498 23.769 558.747 23.655 559.023 23.583C559.305 23.505 559.59 23.466 559.878 23.466C560.202 23.466 560.529 23.523 560.859 23.637C561.195 23.751 561.486 23.922 561.732 24.15L560.994 24.96ZM564.06 24.618H562.107V23.628H567.147V24.618H565.194V30H564.06V24.618ZM567.888 23.628H570.102C570.402 23.628 570.693 23.661 570.975 23.727C571.257 23.787 571.506 23.889 571.722 24.033C571.944 24.177 572.121 24.366 572.253 24.6C572.385 24.834 572.451 25.119 572.451 25.455C572.451 25.917 572.319 26.295 572.055 26.589C571.797 26.877 571.443 27.072 570.993 27.174L572.694 30H571.326L569.85 27.3H569.022V30H567.888V23.628ZM569.949 26.373C570.111 26.373 570.273 26.361 570.435 26.337C570.597 26.313 570.741 26.268 570.867 26.202C570.999 26.136 571.107 26.043 571.191 25.923C571.275 25.797 571.317 25.638 571.317 25.446C571.317 25.272 571.278 25.131 571.2 25.023C571.122 24.909 571.023 24.819 570.903 24.753C570.783 24.687 570.645 24.642 570.489 24.618C570.339 24.594 570.192 24.582 570.048 24.582H569.022V26.373H569.949ZM578.624 27.66C578.624 28.044 578.558 28.392 578.426 28.704C578.294 29.01 578.114 29.271 577.886 29.487C577.658 29.703 577.388 29.871 577.076 29.991C576.764 30.105 576.425 30.162 576.059 30.162C575.693 30.162 575.354 30.105 575.042 29.991C574.73 29.871 574.457 29.703 574.223 29.487C573.995 29.271 573.815 29.01 573.683 28.704C573.557 28.392 573.494 28.044 573.494 27.66V23.628H574.628V27.615C574.628 27.801 574.652 27.987 574.7 28.173C574.748 28.353 574.826 28.515 574.934 28.659C575.048 28.803 575.195 28.92 575.375 29.01C575.561 29.1 575.789 29.145 576.059 29.145C576.329 29.145 576.554 29.1 576.734 29.01C576.92 28.92 577.067 28.803 577.175 28.659C577.289 28.515 577.37 28.353 577.418 28.173C577.466 27.987 577.49 27.801 577.49 27.615V23.628H578.624V27.66ZM584.572 25.122C584.404 24.894 584.185 24.729 583.915 24.627C583.645 24.519 583.381 24.465 583.123 24.465C582.793 24.465 582.493 24.525 582.223 24.645C581.953 24.765 581.719 24.93 581.521 25.14C581.329 25.35 581.179 25.596 581.071 25.878C580.969 26.16 580.918 26.466 580.918 26.796C580.918 27.144 580.969 27.462 581.071 27.75C581.173 28.038 581.317 28.287 581.503 28.497C581.695 28.701 581.923 28.86 582.187 28.974C582.451 29.088 582.748 29.145 583.078 29.145C583.42 29.145 583.723 29.079 583.987 28.947C584.251 28.809 584.464 28.629 584.626 28.407L585.535 29.046C585.253 29.4 584.908 29.676 584.5 29.874C584.092 30.066 583.615 30.162 583.069 30.162C582.571 30.162 582.112 30.081 581.692 29.919C581.278 29.751 580.921 29.52 580.621 29.226C580.321 28.926 580.087 28.572 579.919 28.164C579.751 27.75 579.667 27.294 579.667 26.796C579.667 26.286 579.754 25.827 579.928 25.419C580.108 25.005 580.351 24.654 580.657 24.366C580.969 24.078 581.335 23.856 581.755 23.7C582.175 23.544 582.631 23.466 583.123 23.466C583.327 23.466 583.54 23.487 583.762 23.529C583.984 23.565 584.197 23.625 584.401 23.709C584.605 23.787 584.797 23.886 584.977 24.006C585.157 24.126 585.31 24.27 585.436 24.438L584.572 25.122ZM587.474 24.618H585.521V23.628H590.561V24.618H588.608V30H587.474V24.618ZM591.302 23.628H592.436V30H591.302V23.628ZM593.536 26.796C593.536 26.286 593.62 25.827 593.788 25.419C593.962 25.005 594.199 24.654 594.499 24.366C594.805 24.078 595.165 23.856 595.579 23.7C595.999 23.544 596.455 23.466 596.947 23.466C597.445 23.466 597.904 23.544 598.324 23.7C598.744 23.856 599.107 24.078 599.413 24.366C599.719 24.654 599.956 25.005 600.124 25.419C600.298 25.827 600.385 26.286 600.385 26.796C600.385 27.294 600.298 27.75 600.124 28.164C599.956 28.572 599.719 28.926 599.413 29.226C599.107 29.52 598.744 29.751 598.324 29.919C597.904 30.081 597.445 30.162 596.947 30.162C596.455 30.162 595.999 30.081 595.579 29.919C595.165 29.751 594.805 29.52 594.499 29.226C594.199 28.926 593.962 28.572 593.788 28.164C593.62 27.75 593.536 27.294 593.536 26.796ZM594.769 26.796C594.769 27.138 594.82 27.453 594.922 27.741C595.03 28.023 595.18 28.269 595.372 28.479C595.57 28.689 595.801 28.854 596.065 28.974C596.335 29.088 596.632 29.145 596.956 29.145C597.28 29.145 597.577 29.088 597.847 28.974C598.117 28.854 598.348 28.689 598.54 28.479C598.738 28.269 598.888 28.023 598.99 27.741C599.098 27.453 599.152 27.138 599.152 26.796C599.152 26.466 599.098 26.16 598.99 25.878C598.888 25.596 598.741 25.35 598.549 25.14C598.357 24.93 598.126 24.765 597.856 24.645C597.586 24.525 597.286 24.465 596.956 24.465C596.626 24.465 596.326 24.525 596.056 24.645C595.792 24.765 595.564 24.93 595.372 25.14C595.18 25.35 595.03 25.596 594.922 25.878C594.82 26.16 594.769 26.466 594.769 26.796ZM565.691 43.628H567.194L570.155 48.398H570.173V43.628H571.307V50H569.867L566.843 45.077H566.825V50H565.691V43.628Z" fill="white"/>
<rect x="609.302" y="19" width="104" height="15" rx="7.5" fill="#EEAC00"/>
<path d="M627.446 23.628H629.525C629.891 23.628 630.221 23.661 630.515 23.727C630.809 23.793 631.061 23.901 631.271 24.051C631.481 24.201 631.643 24.393 631.757 24.627C631.871 24.861 631.928 25.143 631.928 25.473C631.928 25.827 631.862 26.124 631.73 26.364C631.598 26.604 631.418 26.799 631.19 26.949C630.968 27.093 630.707 27.198 630.407 27.264C630.107 27.33 629.789 27.363 629.453 27.363H628.58V30H627.446V23.628ZM629.372 26.409C629.558 26.409 629.735 26.397 629.903 26.373C630.071 26.343 630.221 26.295 630.353 26.229C630.485 26.157 630.59 26.061 630.668 25.941C630.746 25.821 630.785 25.665 630.785 25.473C630.785 25.287 630.746 25.137 630.668 25.023C630.59 24.903 630.485 24.81 630.353 24.744C630.227 24.678 630.08 24.636 629.912 24.618C629.75 24.594 629.582 24.582 629.408 24.582H628.58V26.409H629.372ZM632.939 23.628H637.16V24.618H634.073V26.238H636.998V27.192H634.073V28.992H637.322V30H632.939V23.628ZM638.432 23.628H640.646C640.946 23.628 641.237 23.661 641.519 23.727C641.801 23.787 642.05 23.889 642.266 24.033C642.488 24.177 642.665 24.366 642.797 24.6C642.929 24.834 642.995 25.119 642.995 25.455C642.995 25.917 642.863 26.295 642.599 26.589C642.341 26.877 641.987 27.072 641.537 27.174L643.238 30H641.87L640.394 27.3H639.566V30H638.432V23.628ZM640.493 26.373C640.655 26.373 640.817 26.361 640.979 26.337C641.141 26.313 641.285 26.268 641.411 26.202C641.543 26.136 641.651 26.043 641.735 25.923C641.819 25.797 641.861 25.638 641.861 25.446C641.861 25.272 641.822 25.131 641.744 25.023C641.666 24.909 641.567 24.819 641.447 24.753C641.327 24.687 641.189 24.642 641.033 24.618C640.883 24.594 640.736 24.582 640.592 24.582H639.566V26.373H640.493ZM644.092 23.628H645.865L647.521 28.155H647.548L649.186 23.628H650.968V30H649.843V24.879H649.825L647.89 30H647.098L645.19 24.879H645.172V30H644.092V23.628ZM652.371 23.628H653.505V30H652.371V23.628ZM658.16 24.96C658.04 24.804 657.869 24.675 657.647 24.573C657.431 24.465 657.212 24.411 656.99 24.411C656.858 24.411 656.726 24.429 656.594 24.465C656.462 24.495 656.342 24.546 656.234 24.618C656.126 24.684 656.036 24.774 655.964 24.888C655.898 24.996 655.865 25.128 655.865 25.284C655.865 25.428 655.895 25.551 655.955 25.653C656.015 25.755 656.096 25.842 656.198 25.914C656.306 25.986 656.435 26.049 656.585 26.103C656.735 26.157 656.9 26.211 657.08 26.265C657.284 26.331 657.494 26.406 657.71 26.49C657.932 26.574 658.133 26.685 658.313 26.823C658.499 26.961 658.649 27.135 658.763 27.345C658.883 27.555 658.943 27.816 658.943 28.128C658.943 28.47 658.88 28.77 658.754 29.028C658.628 29.28 658.46 29.49 658.25 29.658C658.04 29.826 657.794 29.952 657.512 30.036C657.23 30.12 656.933 30.162 656.621 30.162C656.207 30.162 655.802 30.087 655.406 29.937C655.01 29.781 654.686 29.553 654.434 29.253L655.244 28.497C655.4 28.713 655.607 28.884 655.865 29.01C656.129 29.136 656.387 29.199 656.639 29.199C656.771 29.199 656.906 29.184 657.044 29.154C657.182 29.118 657.305 29.061 657.413 28.983C657.527 28.905 657.617 28.809 657.683 28.695C657.755 28.575 657.791 28.428 657.791 28.254C657.791 28.086 657.752 27.948 657.674 27.84C657.596 27.726 657.491 27.63 657.359 27.552C657.227 27.468 657.071 27.396 656.891 27.336C656.711 27.276 656.522 27.213 656.324 27.147C656.132 27.087 655.94 27.015 655.748 26.931C655.556 26.847 655.382 26.736 655.226 26.598C655.076 26.46 654.953 26.292 654.857 26.094C654.761 25.89 654.713 25.638 654.713 25.338C654.713 25.014 654.779 24.735 654.911 24.501C655.049 24.267 655.226 24.075 655.442 23.925C655.664 23.769 655.913 23.655 656.189 23.583C656.471 23.505 656.756 23.466 657.044 23.466C657.368 23.466 657.695 23.523 658.025 23.637C658.361 23.751 658.652 23.922 658.898 24.15L658.16 24.96ZM663.328 24.96C663.208 24.804 663.037 24.675 662.815 24.573C662.599 24.465 662.38 24.411 662.158 24.411C662.026 24.411 661.894 24.429 661.762 24.465C661.63 24.495 661.51 24.546 661.402 24.618C661.294 24.684 661.204 24.774 661.132 24.888C661.066 24.996 661.033 25.128 661.033 25.284C661.033 25.428 661.063 25.551 661.123 25.653C661.183 25.755 661.264 25.842 661.366 25.914C661.474 25.986 661.603 26.049 661.753 26.103C661.903 26.157 662.068 26.211 662.248 26.265C662.452 26.331 662.662 26.406 662.878 26.49C663.1 26.574 663.301 26.685 663.481 26.823C663.667 26.961 663.817 27.135 663.931 27.345C664.051 27.555 664.111 27.816 664.111 28.128C664.111 28.47 664.048 28.77 663.922 29.028C663.796 29.28 663.628 29.49 663.418 29.658C663.208 29.826 662.962 29.952 662.68 30.036C662.398 30.12 662.101 30.162 661.789 30.162C661.375 30.162 660.97 30.087 660.574 29.937C660.178 29.781 659.854 29.553 659.602 29.253L660.412 28.497C660.568 28.713 660.775 28.884 661.033 29.01C661.297 29.136 661.555 29.199 661.807 29.199C661.939 29.199 662.074 29.184 662.212 29.154C662.35 29.118 662.473 29.061 662.581 28.983C662.695 28.905 662.785 28.809 662.851 28.695C662.923 28.575 662.959 28.428 662.959 28.254C662.959 28.086 662.92 27.948 662.842 27.84C662.764 27.726 662.659 27.63 662.527 27.552C662.395 27.468 662.239 27.396 662.059 27.336C661.879 27.276 661.69 27.213 661.492 27.147C661.3 27.087 661.108 27.015 660.916 26.931C660.724 26.847 660.55 26.736 660.394 26.598C660.244 26.46 660.121 26.292 660.025 26.094C659.929 25.89 659.881 25.638 659.881 25.338C659.881 25.014 659.947 24.735 660.079 24.501C660.217 24.267 660.394 24.075 660.61 23.925C660.832 23.769 661.081 23.655 661.357 23.583C661.639 23.505 661.924 23.466 662.212 23.466C662.536 23.466 662.863 23.523 663.193 23.637C663.529 23.751 663.82 23.922 664.066 24.15L663.328 24.96ZM665.247 23.628H666.381V30H665.247V23.628ZM667.481 26.796C667.481 26.286 667.565 25.827 667.733 25.419C667.907 25.005 668.144 24.654 668.444 24.366C668.75 24.078 669.11 23.856 669.524 23.7C669.944 23.544 670.4 23.466 670.892 23.466C671.39 23.466 671.849 23.544 672.269 23.7C672.689 23.856 673.052 24.078 673.358 24.366C673.664 24.654 673.901 25.005 674.069 25.419C674.243 25.827 674.33 26.286 674.33 26.796C674.33 27.294 674.243 27.75 674.069 28.164C673.901 28.572 673.664 28.926 673.358 29.226C673.052 29.52 672.689 29.751 672.269 29.919C671.849 30.081 671.39 30.162 670.892 30.162C670.4 30.162 669.944 30.081 669.524 29.919C669.11 29.751 668.75 29.52 668.444 29.226C668.144 28.926 667.907 28.572 667.733 28.164C667.565 27.75 667.481 27.294 667.481 26.796ZM668.714 26.796C668.714 27.138 668.765 27.453 668.867 27.741C668.975 28.023 669.125 28.269 669.317 28.479C669.515 28.689 669.746 28.854 670.01 28.974C670.28 29.088 670.577 29.145 670.901 29.145C671.225 29.145 671.522 29.088 671.792 28.974C672.062 28.854 672.293 28.689 672.485 28.479C672.683 28.269 672.833 28.023 672.935 27.741C673.043 27.453 673.097 27.138 673.097 26.796C673.097 26.466 673.043 26.16 672.935 25.878C672.833 25.596 672.686 25.35 672.494 25.14C672.302 24.93 672.071 24.765 671.801 24.645C671.531 24.525 671.231 24.465 670.901 24.465C670.571 24.465 670.271 24.525 670.001 24.645C669.737 24.765 669.509 24.93 669.317 25.14C669.125 25.35 668.975 25.596 668.867 25.878C668.765 26.16 668.714 26.466 668.714 26.796ZM675.425 23.628H676.928L679.889 28.398H679.907V23.628H681.041V30H679.601L676.577 25.077H676.559V30H675.425V23.628ZM685.765 24.618H683.812V23.628H688.852V24.618H686.899V30H685.765V24.618ZM689.015 26.796C689.015 26.286 689.099 25.827 689.267 25.419C689.441 25.005 689.678 24.654 689.978 24.366C690.284 24.078 690.644 23.856 691.058 23.7C691.478 23.544 691.934 23.466 692.426 23.466C692.924 23.466 693.383 23.544 693.803 23.7C694.223 23.856 694.586 24.078 694.892 24.366C695.198 24.654 695.435 25.005 695.603 25.419C695.777 25.827 695.864 26.286 695.864 26.796C695.864 27.294 695.777 27.75 695.603 28.164C695.435 28.572 695.198 28.926 694.892 29.226C694.586 29.52 694.223 29.751 693.803 29.919C693.383 30.081 692.924 30.162 692.426 30.162C691.934 30.162 691.478 30.081 691.058 29.919C690.644 29.751 690.284 29.52 689.978 29.226C689.678 28.926 689.441 28.572 689.267 28.164C689.099 27.75 689.015 27.294 689.015 26.796ZM690.248 26.796C690.248 27.138 690.299 27.453 690.401 27.741C690.509 28.023 690.659 28.269 690.851 28.479C691.049 28.689 691.28 28.854 691.544 28.974C691.814 29.088 692.111 29.145 692.435 29.145C692.759 29.145 693.056 29.088 693.326 28.974C693.596 28.854 693.827 28.689 694.019 28.479C694.217 28.269 694.367 28.023 694.469 27.741C694.577 27.453 694.631 27.138 694.631 26.796C694.631 26.466 694.577 26.16 694.469 25.878C694.367 25.596 694.22 25.35 694.028 25.14C693.836 24.93 693.605 24.765 693.335 24.645C693.065 24.525 692.765 24.465 692.435 24.465C692.105 24.465 691.805 24.525 691.535 24.645C691.271 24.765 691.043 24.93 690.851 25.14C690.659 25.35 690.509 25.596 690.401 25.878C690.299 26.16 690.248 26.466 690.248 26.796ZM641.541 46.796C641.541 46.286 641.625 45.827 641.793 45.419C641.967 45.005 642.204 44.654 642.504 44.366C642.81 44.078 643.17 43.856 643.584 43.7C644.004 43.544 644.46 43.466 644.952 43.466C645.45 43.466 645.909 43.544 646.329 43.7C646.749 43.856 647.112 44.078 647.418 44.366C647.724 44.654 647.961 45.005 648.129 45.419C648.303 45.827 648.39 46.286 648.39 46.796C648.39 47.294 648.303 47.75 648.129 48.164C647.961 48.572 647.724 48.926 647.418 49.226C647.112 49.52 646.749 49.751 646.329 49.919C645.909 50.081 645.45 50.162 644.952 50.162C644.46 50.162 644.004 50.081 643.584 49.919C643.17 49.751 642.81 49.52 642.504 49.226C642.204 48.926 641.967 48.572 641.793 48.164C641.625 47.75 641.541 47.294 641.541 46.796ZM642.774 46.796C642.774 47.138 642.825 47.453 642.927 47.741C643.035 48.023 643.185 48.269 643.377 48.479C643.575 48.689 643.806 48.854 644.07 48.974C644.34 49.088 644.637 49.145 644.961 49.145C645.285 49.145 645.582 49.088 645.852 48.974C646.122 48.854 646.353 48.689 646.545 48.479C646.743 48.269 646.893 48.023 646.995 47.741C647.103 47.453 647.157 47.138 647.157 46.796C647.157 46.466 647.103 46.16 646.995 45.878C646.893 45.596 646.746 45.35 646.554 45.14C646.362 44.93 646.131 44.765 645.861 44.645C645.591 44.525 645.291 44.465 644.961 44.465C644.631 44.465 644.331 44.525 644.061 44.645C643.797 44.765 643.569 44.93 643.377 45.14C643.185 45.35 643.035 45.596 642.927 45.878C642.825 46.16 642.774 46.466 642.774 46.796ZM649.484 43.628H651.563C651.929 43.628 652.259 43.661 652.553 43.727C652.847 43.793 653.099 43.901 653.309 44.051C653.519 44.201 653.681 44.393 653.795 44.627C653.909 44.861 653.966 45.143 653.966 45.473C653.966 45.827 653.9 46.124 653.768 46.364C653.636 46.604 653.456 46.799 653.228 46.949C653.006 47.093 652.745 47.198 652.445 47.264C652.145 47.33 651.827 47.363 651.491 47.363H650.618V50H649.484V43.628ZM651.41 46.409C651.596 46.409 651.773 46.397 651.941 46.373C652.109 46.343 652.259 46.295 652.391 46.229C652.523 46.157 652.628 46.061 652.706 45.941C652.784 45.821 652.823 45.665 652.823 45.473C652.823 45.287 652.784 45.137 652.706 45.023C652.628 44.903 652.523 44.81 652.391 44.744C652.265 44.678 652.118 44.636 651.95 44.618C651.788 44.594 651.62 44.582 651.446 44.582H650.618V46.409H651.41ZM654.977 43.628H659.198V44.618H656.111V46.238H659.036V47.192H656.111V48.992H659.36V50H654.977V43.628ZM660.471 43.628H662.685C662.985 43.628 663.276 43.661 663.558 43.727C663.84 43.787 664.089 43.889 664.305 44.033C664.527 44.177 664.704 44.366 664.836 44.6C664.968 44.834 665.034 45.119 665.034 45.455C665.034 45.917 664.902 46.295 664.638 46.589C664.38 46.877 664.026 47.072 663.576 47.174L665.277 50H663.909L662.433 47.3H661.605V50H660.471V43.628ZM662.532 46.373C662.694 46.373 662.856 46.361 663.018 46.337C663.18 46.313 663.324 46.268 663.45 46.202C663.582 46.136 663.69 46.043 663.774 45.923C663.858 45.797 663.9 45.638 663.9 45.446C663.9 45.272 663.861 45.131 663.783 45.023C663.705 44.909 663.606 44.819 663.486 44.753C663.366 44.687 663.228 44.642 663.072 44.618C662.922 44.594 662.775 44.582 662.631 44.582H661.605V46.373H662.532ZM668.129 43.628H669.11L671.855 50H670.559L669.965 48.542H667.202L666.626 50H665.357L668.129 43.628ZM669.569 47.57L668.588 44.978L667.589 47.57H669.569ZM673.236 44.618H671.283V43.628H676.323V44.618H674.37V50H673.236V44.618ZM677.064 43.628H681.285V44.618H678.198V46.238H681.123V47.192H678.198V48.992H681.447V50H677.064V43.628Z" fill="white"/>
</svg>
