<svg width="429" height="53" viewBox="0 0 429 53" fill="none" xmlns="http://www.w3.org/2000/svg">
<rect width="429" height="53" rx="26.5" fill="#00B0C7"/>
<path d="M113.046 23.568C112.782 23.232 112.434 22.968 112.002 22.776C111.582 22.572 111.174 22.47 110.778 22.47C110.574 22.47 110.364 22.488 110.148 22.524C109.944 22.56 109.758 22.632 109.59 22.74C109.422 22.836 109.278 22.968 109.158 23.136C109.05 23.292 108.996 23.496 108.996 23.748C108.996 23.964 109.038 24.144 109.122 24.288C109.218 24.432 109.35 24.558 109.518 24.666C109.698 24.774 109.908 24.876 110.148 24.972C110.388 25.056 110.658 25.146 110.958 25.242C111.39 25.386 111.84 25.548 112.308 25.728C112.776 25.896 113.202 26.124 113.586 26.412C113.97 26.7 114.288 27.06 114.54 27.492C114.792 27.912 114.918 28.44 114.918 29.076C114.918 29.808 114.78 30.444 114.504 30.984C114.24 31.512 113.88 31.95 113.424 32.298C112.968 32.646 112.446 32.904 111.858 33.072C111.27 33.24 110.664 33.324 110.04 33.324C109.128 33.324 108.246 33.168 107.394 32.856C106.542 32.532 105.834 32.076 105.27 31.488L107.286 29.436C107.598 29.82 108.006 30.144 108.51 30.408C109.026 30.66 109.536 30.786 110.04 30.786C110.268 30.786 110.49 30.762 110.706 30.714C110.922 30.666 111.108 30.588 111.264 30.48C111.432 30.372 111.564 30.228 111.66 30.048C111.756 29.868 111.804 29.652 111.804 29.4C111.804 29.16 111.744 28.956 111.624 28.788C111.504 28.62 111.33 28.47 111.102 28.338C110.886 28.194 110.61 28.068 110.274 27.96C109.95 27.84 109.578 27.714 109.158 27.582C108.75 27.45 108.348 27.294 107.952 27.114C107.568 26.934 107.22 26.706 106.908 26.43C106.608 26.142 106.362 25.8 106.17 25.404C105.99 24.996 105.9 24.504 105.9 23.928C105.9 23.22 106.044 22.614 106.332 22.11C106.62 21.606 106.998 21.192 107.466 20.868C107.934 20.544 108.462 20.31 109.05 20.166C109.638 20.01 110.232 19.932 110.832 19.932C111.552 19.932 112.284 20.064 113.028 20.328C113.784 20.592 114.444 20.982 115.008 21.498L113.046 23.568ZM122.761 27.492C122.761 27.024 122.611 26.622 122.311 26.286C122.023 25.95 121.585 25.782 120.997 25.782C120.709 25.782 120.445 25.83 120.205 25.926C119.965 26.01 119.755 26.13 119.575 26.286C119.395 26.442 119.251 26.628 119.143 26.844C119.035 27.048 118.975 27.264 118.963 27.492H122.761ZM125.479 28.626C125.479 28.746 125.479 28.866 125.479 28.986C125.479 29.106 125.473 29.22 125.461 29.328H118.963C118.987 29.58 119.059 29.808 119.179 30.012C119.311 30.216 119.473 30.396 119.665 30.552C119.869 30.696 120.091 30.81 120.331 30.894C120.583 30.978 120.841 31.02 121.105 31.02C121.573 31.02 121.969 30.936 122.293 30.768C122.617 30.588 122.881 30.36 123.085 30.084L125.137 31.38C124.717 31.992 124.159 32.466 123.463 32.802C122.779 33.126 121.981 33.288 121.069 33.288C120.397 33.288 119.761 33.186 119.161 32.982C118.561 32.766 118.033 32.46 117.577 32.064C117.133 31.656 116.779 31.158 116.515 30.57C116.263 29.982 116.137 29.31 116.137 28.554C116.137 27.822 116.263 27.162 116.515 26.574C116.767 25.974 117.109 25.47 117.541 25.062C117.973 24.642 118.483 24.318 119.071 24.09C119.659 23.862 120.295 23.748 120.979 23.748C121.639 23.748 122.245 23.862 122.797 24.09C123.349 24.306 123.823 24.624 124.219 25.044C124.615 25.464 124.921 25.974 125.137 26.574C125.365 27.174 125.479 27.858 125.479 28.626ZM132.995 33V28.104C132.995 27.852 132.971 27.612 132.923 27.384C132.887 27.156 132.821 26.958 132.725 26.79C132.629 26.61 132.491 26.472 132.311 26.376C132.143 26.268 131.927 26.214 131.663 26.214C131.399 26.214 131.165 26.268 130.961 26.376C130.769 26.472 130.607 26.61 130.475 26.79C130.343 26.97 130.241 27.18 130.169 27.42C130.109 27.648 130.079 27.888 130.079 28.14V33H127.109V24.036H129.971V25.278H130.007C130.115 25.086 130.253 24.9 130.421 24.72C130.601 24.528 130.805 24.366 131.033 24.234C131.273 24.102 131.531 23.994 131.807 23.91C132.083 23.826 132.377 23.784 132.689 23.784C133.289 23.784 133.799 23.892 134.219 24.108C134.639 24.324 134.975 24.606 135.227 24.954C135.491 25.29 135.677 25.68 135.785 26.124C135.905 26.568 135.965 27.012 135.965 27.456V33H132.995ZM144.787 33V31.83H144.751C144.463 32.286 144.049 32.64 143.509 32.892C142.981 33.132 142.417 33.252 141.817 33.252C141.145 33.252 140.545 33.12 140.017 32.856C139.489 32.592 139.039 32.244 138.667 31.812C138.307 31.368 138.031 30.858 137.839 30.282C137.647 29.706 137.551 29.106 137.551 28.482C137.551 27.858 137.647 27.264 137.839 26.7C138.043 26.124 138.325 25.62 138.685 25.188C139.057 24.756 139.501 24.414 140.017 24.162C140.545 23.91 141.133 23.784 141.781 23.784C142.441 23.784 142.999 23.91 143.455 24.162C143.911 24.414 144.265 24.69 144.517 24.99H144.553V19.392H147.505V33H144.787ZM144.679 28.5C144.679 28.212 144.625 27.93 144.517 27.654C144.421 27.378 144.277 27.132 144.085 26.916C143.905 26.7 143.683 26.526 143.419 26.394C143.155 26.262 142.855 26.196 142.519 26.196C142.171 26.196 141.865 26.262 141.601 26.394C141.337 26.526 141.115 26.7 140.935 26.916C140.755 27.12 140.617 27.36 140.521 27.636C140.437 27.912 140.395 28.194 140.395 28.482C140.395 28.77 140.437 29.058 140.521 29.346C140.617 29.622 140.755 29.868 140.935 30.084C141.115 30.3 141.337 30.474 141.601 30.606C141.865 30.738 142.171 30.804 142.519 30.804C142.855 30.804 143.155 30.738 143.419 30.606C143.683 30.474 143.905 30.3 144.085 30.084C144.277 29.868 144.421 29.622 144.517 29.346C144.625 29.07 144.679 28.788 144.679 28.5ZM160.123 26.934C159.955 26.718 159.727 26.544 159.439 26.412C159.151 26.28 158.857 26.214 158.557 26.214C158.245 26.214 157.963 26.28 157.711 26.412C157.459 26.532 157.243 26.7 157.063 26.916C156.883 27.12 156.739 27.36 156.631 27.636C156.535 27.912 156.487 28.206 156.487 28.518C156.487 28.83 156.535 29.124 156.631 29.4C156.727 29.676 156.865 29.922 157.045 30.138C157.237 30.342 157.459 30.504 157.711 30.624C157.975 30.744 158.269 30.804 158.593 30.804C158.893 30.804 159.187 30.75 159.475 30.642C159.775 30.522 160.015 30.354 160.195 30.138L161.833 32.136C161.461 32.496 160.981 32.778 160.393 32.982C159.805 33.186 159.181 33.288 158.521 33.288C157.813 33.288 157.153 33.18 156.541 32.964C155.929 32.748 155.395 32.436 154.939 32.028C154.495 31.608 154.141 31.104 153.877 30.516C153.625 29.928 153.499 29.262 153.499 28.518C153.499 27.786 153.625 27.126 153.877 26.538C154.141 25.95 154.495 25.452 154.939 25.044C155.395 24.624 155.929 24.306 156.541 24.09C157.153 23.862 157.807 23.748 158.503 23.748C158.827 23.748 159.145 23.778 159.457 23.838C159.781 23.898 160.087 23.982 160.375 24.09C160.675 24.186 160.945 24.312 161.185 24.468C161.437 24.612 161.653 24.774 161.833 24.954L160.123 26.934ZM168.616 26.448C168.484 26.412 168.352 26.388 168.22 26.376C168.1 26.364 167.98 26.358 167.86 26.358C167.464 26.358 167.128 26.43 166.852 26.574C166.588 26.718 166.372 26.892 166.204 27.096C166.048 27.3 165.934 27.522 165.862 27.762C165.79 28.002 165.754 28.212 165.754 28.392V33H162.802V24.036H165.646V25.332H165.682C165.91 24.876 166.234 24.504 166.654 24.216C167.074 23.928 167.56 23.784 168.112 23.784C168.232 23.784 168.346 23.79 168.454 23.802C168.574 23.814 168.67 23.832 168.742 23.856L168.616 26.448ZM175.596 27.492C175.596 27.024 175.446 26.622 175.146 26.286C174.858 25.95 174.42 25.782 173.832 25.782C173.544 25.782 173.28 25.83 173.04 25.926C172.8 26.01 172.59 26.13 172.41 26.286C172.23 26.442 172.086 26.628 171.978 26.844C171.87 27.048 171.81 27.264 171.798 27.492H175.596ZM178.314 28.626C178.314 28.746 178.314 28.866 178.314 28.986C178.314 29.106 178.308 29.22 178.296 29.328H171.798C171.822 29.58 171.894 29.808 172.014 30.012C172.146 30.216 172.308 30.396 172.5 30.552C172.704 30.696 172.926 30.81 173.166 30.894C173.418 30.978 173.676 31.02 173.94 31.02C174.408 31.02 174.804 30.936 175.128 30.768C175.452 30.588 175.716 30.36 175.92 30.084L177.972 31.38C177.552 31.992 176.994 32.466 176.298 32.802C175.614 33.126 174.816 33.288 173.904 33.288C173.232 33.288 172.596 33.186 171.996 32.982C171.396 32.766 170.868 32.46 170.412 32.064C169.968 31.656 169.614 31.158 169.35 30.57C169.098 29.982 168.972 29.31 168.972 28.554C168.972 27.822 169.098 27.162 169.35 26.574C169.602 25.974 169.944 25.47 170.376 25.062C170.808 24.642 171.318 24.318 171.906 24.09C172.494 23.862 173.13 23.748 173.814 23.748C174.474 23.748 175.08 23.862 175.632 24.09C176.184 24.306 176.658 24.624 177.054 25.044C177.45 25.464 177.756 25.974 177.972 26.574C178.2 27.174 178.314 27.858 178.314 28.626ZM186.731 33V31.83H186.695C186.407 32.286 185.993 32.64 185.453 32.892C184.925 33.132 184.361 33.252 183.761 33.252C183.089 33.252 182.489 33.12 181.961 32.856C181.433 32.592 180.983 32.244 180.611 31.812C180.251 31.368 179.975 30.858 179.783 30.282C179.591 29.706 179.495 29.106 179.495 28.482C179.495 27.858 179.591 27.264 179.783 26.7C179.987 26.124 180.269 25.62 180.629 25.188C181.001 24.756 181.445 24.414 181.961 24.162C182.489 23.91 183.077 23.784 183.725 23.784C184.385 23.784 184.943 23.91 185.399 24.162C185.855 24.414 186.209 24.69 186.461 24.99H186.497V19.392H189.449V33H186.731ZM186.623 28.5C186.623 28.212 186.569 27.93 186.461 27.654C186.365 27.378 186.221 27.132 186.029 26.916C185.849 26.7 185.627 26.526 185.363 26.394C185.099 26.262 184.799 26.196 184.463 26.196C184.115 26.196 183.809 26.262 183.545 26.394C183.281 26.526 183.059 26.7 182.879 26.916C182.699 27.12 182.561 27.36 182.465 27.636C182.381 27.912 182.339 28.194 182.339 28.482C182.339 28.77 182.381 29.058 182.465 29.346C182.561 29.622 182.699 29.868 182.879 30.084C183.059 30.3 183.281 30.474 183.545 30.606C183.809 30.738 184.115 30.804 184.463 30.804C184.799 30.804 185.099 30.738 185.363 30.606C185.627 30.474 185.849 30.3 186.029 30.084C186.221 29.868 186.365 29.622 186.461 29.346C186.569 29.07 186.623 28.788 186.623 28.5ZM194.796 21.174C194.796 21.402 194.748 21.618 194.652 21.822C194.568 22.014 194.448 22.182 194.292 22.326C194.148 22.47 193.968 22.584 193.752 22.668C193.548 22.752 193.332 22.794 193.104 22.794C192.624 22.794 192.222 22.638 191.898 22.326C191.574 22.002 191.412 21.618 191.412 21.174C191.412 20.958 191.454 20.754 191.538 20.562C191.622 20.358 191.742 20.184 191.898 20.04C192.054 19.896 192.234 19.782 192.438 19.698C192.642 19.602 192.864 19.554 193.104 19.554C193.332 19.554 193.548 19.596 193.752 19.68C193.968 19.764 194.148 19.878 194.292 20.022C194.448 20.166 194.568 20.34 194.652 20.544C194.748 20.736 194.796 20.946 194.796 21.174ZM191.628 33V24.036H194.58V33H191.628ZM199.922 26.25V29.67C199.922 30.09 200 30.408 200.156 30.624C200.324 30.828 200.618 30.93 201.038 30.93C201.182 30.93 201.332 30.918 201.488 30.894C201.656 30.87 201.794 30.834 201.902 30.786L201.938 32.946C201.734 33.018 201.476 33.078 201.164 33.126C200.852 33.186 200.54 33.216 200.228 33.216C199.628 33.216 199.124 33.144 198.716 33C198.308 32.844 197.978 32.628 197.726 32.352C197.486 32.064 197.312 31.728 197.204 31.344C197.096 30.948 197.042 30.51 197.042 30.03V26.25H195.602V24.036H197.024V21.678H199.922V24.036H202.028V26.25H199.922ZM212.808 29.094H212.43C212.106 29.094 211.776 29.112 211.44 29.148C211.116 29.172 210.822 29.226 210.558 29.31C210.306 29.394 210.096 29.52 209.928 29.688C209.76 29.844 209.676 30.054 209.676 30.318C209.676 30.486 209.712 30.63 209.784 30.75C209.868 30.87 209.97 30.966 210.09 31.038C210.21 31.11 210.348 31.164 210.504 31.2C210.66 31.224 210.81 31.236 210.954 31.236C211.554 31.236 212.01 31.074 212.322 30.75C212.646 30.414 212.808 29.964 212.808 29.4V29.094ZM207.39 25.26C207.918 24.756 208.53 24.378 209.226 24.126C209.934 23.874 210.654 23.748 211.386 23.748C212.142 23.748 212.778 23.844 213.294 24.036C213.822 24.216 214.248 24.504 214.572 24.9C214.896 25.284 215.13 25.776 215.274 26.376C215.43 26.964 215.508 27.666 215.508 28.482V33H212.808V32.046H212.754C212.526 32.418 212.178 32.706 211.71 32.91C211.254 33.114 210.756 33.216 210.216 33.216C209.856 33.216 209.484 33.168 209.1 33.072C208.716 32.976 208.362 32.82 208.038 32.604C207.726 32.388 207.468 32.1 207.264 31.74C207.06 31.38 206.958 30.936 206.958 30.408C206.958 29.76 207.132 29.238 207.48 28.842C207.84 28.446 208.296 28.14 208.848 27.924C209.412 27.708 210.036 27.564 210.72 27.492C211.404 27.42 212.07 27.384 212.718 27.384V27.24C212.718 26.796 212.562 26.472 212.25 26.268C211.938 26.052 211.554 25.944 211.098 25.944C210.678 25.944 210.27 26.034 209.874 26.214C209.49 26.394 209.16 26.61 208.884 26.862L207.39 25.26ZM227.483 28.482C227.483 29.106 227.387 29.706 227.195 30.282C227.003 30.858 226.721 31.368 226.349 31.812C225.989 32.244 225.545 32.592 225.017 32.856C224.489 33.12 223.889 33.252 223.217 33.252C222.665 33.252 222.143 33.144 221.651 32.928C221.159 32.7 220.775 32.394 220.499 32.01H220.463V37.32H217.511V24.036H220.319V25.134H220.373C220.649 24.774 221.027 24.462 221.507 24.198C221.999 23.922 222.575 23.784 223.235 23.784C223.883 23.784 224.471 23.91 224.999 24.162C225.527 24.414 225.971 24.756 226.331 25.188C226.703 25.62 226.985 26.124 227.177 26.7C227.381 27.264 227.483 27.858 227.483 28.482ZM224.621 28.482C224.621 28.194 224.573 27.912 224.477 27.636C224.393 27.36 224.261 27.12 224.081 26.916C223.913 26.7 223.697 26.526 223.433 26.394C223.169 26.262 222.863 26.196 222.515 26.196C222.179 26.196 221.879 26.262 221.615 26.394C221.351 26.526 221.123 26.7 220.931 26.916C220.751 27.132 220.607 27.378 220.499 27.654C220.403 27.93 220.355 28.212 220.355 28.5C220.355 28.788 220.403 29.07 220.499 29.346C220.607 29.622 220.751 29.868 220.931 30.084C221.123 30.3 221.351 30.474 221.615 30.606C221.879 30.738 222.179 30.804 222.515 30.804C222.863 30.804 223.169 30.738 223.433 30.606C223.697 30.474 223.913 30.3 224.081 30.084C224.261 29.868 224.393 29.622 224.477 29.346C224.573 29.058 224.621 28.77 224.621 28.482ZM239.113 28.482C239.113 29.106 239.017 29.706 238.825 30.282C238.633 30.858 238.351 31.368 237.979 31.812C237.619 32.244 237.175 32.592 236.647 32.856C236.119 33.12 235.519 33.252 234.847 33.252C234.295 33.252 233.773 33.144 233.281 32.928C232.789 32.7 232.405 32.394 232.129 32.01H232.093V37.32H229.141V24.036H231.949V25.134H232.003C232.279 24.774 232.657 24.462 233.137 24.198C233.629 23.922 234.205 23.784 234.865 23.784C235.513 23.784 236.101 23.91 236.629 24.162C237.157 24.414 237.601 24.756 237.961 25.188C238.333 25.62 238.615 26.124 238.807 26.7C239.011 27.264 239.113 27.858 239.113 28.482ZM236.251 28.482C236.251 28.194 236.203 27.912 236.107 27.636C236.023 27.36 235.891 27.12 235.711 26.916C235.543 26.7 235.327 26.526 235.063 26.394C234.799 26.262 234.493 26.196 234.145 26.196C233.809 26.196 233.509 26.262 233.245 26.394C232.981 26.526 232.753 26.7 232.561 26.916C232.381 27.132 232.237 27.378 232.129 27.654C232.033 27.93 231.985 28.212 231.985 28.5C231.985 28.788 232.033 29.07 232.129 29.346C232.237 29.622 232.381 29.868 232.561 30.084C232.753 30.3 232.981 30.474 233.245 30.606C233.509 30.738 233.809 30.804 234.145 30.804C234.493 30.804 234.799 30.738 235.063 30.606C235.327 30.474 235.543 30.3 235.711 30.084C235.891 29.868 236.023 29.622 236.107 29.346C236.203 29.058 236.251 28.77 236.251 28.482ZM240.807 33V19.392H243.795V33H240.807ZM249.136 21.174C249.136 21.402 249.088 21.618 248.992 21.822C248.908 22.014 248.788 22.182 248.632 22.326C248.488 22.47 248.308 22.584 248.092 22.668C247.888 22.752 247.672 22.794 247.444 22.794C246.964 22.794 246.562 22.638 246.238 22.326C245.914 22.002 245.752 21.618 245.752 21.174C245.752 20.958 245.794 20.754 245.878 20.562C245.962 20.358 246.082 20.184 246.238 20.04C246.394 19.896 246.574 19.782 246.778 19.698C246.982 19.602 247.204 19.554 247.444 19.554C247.672 19.554 247.888 19.596 248.092 19.68C248.308 19.764 248.488 19.878 248.632 20.022C248.788 20.166 248.908 20.34 248.992 20.544C249.088 20.736 249.136 20.946 249.136 21.174ZM245.968 33V24.036H248.92V33H245.968ZM257.233 26.934C257.065 26.718 256.837 26.544 256.549 26.412C256.261 26.28 255.967 26.214 255.667 26.214C255.355 26.214 255.073 26.28 254.821 26.412C254.569 26.532 254.353 26.7 254.173 26.916C253.993 27.12 253.849 27.36 253.741 27.636C253.645 27.912 253.597 28.206 253.597 28.518C253.597 28.83 253.645 29.124 253.741 29.4C253.837 29.676 253.975 29.922 254.155 30.138C254.347 30.342 254.569 30.504 254.821 30.624C255.085 30.744 255.379 30.804 255.703 30.804C256.003 30.804 256.297 30.75 256.585 30.642C256.885 30.522 257.125 30.354 257.305 30.138L258.943 32.136C258.571 32.496 258.091 32.778 257.503 32.982C256.915 33.186 256.291 33.288 255.631 33.288C254.923 33.288 254.263 33.18 253.651 32.964C253.039 32.748 252.505 32.436 252.049 32.028C251.605 31.608 251.251 31.104 250.987 30.516C250.735 29.928 250.609 29.262 250.609 28.518C250.609 27.786 250.735 27.126 250.987 26.538C251.251 25.95 251.605 25.452 252.049 25.044C252.505 24.624 253.039 24.306 253.651 24.09C254.263 23.862 254.917 23.748 255.613 23.748C255.937 23.748 256.255 23.778 256.567 23.838C256.891 23.898 257.197 23.982 257.485 24.09C257.785 24.186 258.055 24.312 258.295 24.468C258.547 24.612 258.763 24.774 258.943 24.954L257.233 26.934ZM265.203 29.094H264.825C264.501 29.094 264.171 29.112 263.835 29.148C263.511 29.172 263.217 29.226 262.953 29.31C262.701 29.394 262.491 29.52 262.323 29.688C262.155 29.844 262.071 30.054 262.071 30.318C262.071 30.486 262.107 30.63 262.179 30.75C262.263 30.87 262.365 30.966 262.485 31.038C262.605 31.11 262.743 31.164 262.899 31.2C263.055 31.224 263.205 31.236 263.349 31.236C263.949 31.236 264.405 31.074 264.717 30.75C265.041 30.414 265.203 29.964 265.203 29.4V29.094ZM259.785 25.26C260.313 24.756 260.925 24.378 261.621 24.126C262.329 23.874 263.049 23.748 263.781 23.748C264.537 23.748 265.173 23.844 265.689 24.036C266.217 24.216 266.643 24.504 266.967 24.9C267.291 25.284 267.525 25.776 267.669 26.376C267.825 26.964 267.903 27.666 267.903 28.482V33H265.203V32.046H265.149C264.921 32.418 264.573 32.706 264.105 32.91C263.649 33.114 263.151 33.216 262.611 33.216C262.251 33.216 261.879 33.168 261.495 33.072C261.111 32.976 260.757 32.82 260.433 32.604C260.121 32.388 259.863 32.1 259.659 31.74C259.455 31.38 259.353 30.936 259.353 30.408C259.353 29.76 259.527 29.238 259.875 28.842C260.235 28.446 260.691 28.14 261.243 27.924C261.807 27.708 262.431 27.564 263.115 27.492C263.799 27.42 264.465 27.384 265.113 27.384V27.24C265.113 26.796 264.957 26.472 264.645 26.268C264.333 26.052 263.949 25.944 263.493 25.944C263.073 25.944 262.665 26.034 262.269 26.214C261.885 26.394 261.555 26.61 261.279 26.862L259.785 25.26ZM272.935 26.25V29.67C272.935 30.09 273.013 30.408 273.169 30.624C273.337 30.828 273.631 30.93 274.051 30.93C274.195 30.93 274.345 30.918 274.501 30.894C274.669 30.87 274.807 30.834 274.915 30.786L274.951 32.946C274.747 33.018 274.489 33.078 274.177 33.126C273.865 33.186 273.553 33.216 273.241 33.216C272.641 33.216 272.137 33.144 271.729 33C271.321 32.844 270.991 32.628 270.739 32.352C270.499 32.064 270.325 31.728 270.217 31.344C270.109 30.948 270.055 30.51 270.055 30.03V26.25H268.615V24.036H270.037V21.678H272.935V24.036H275.041V26.25H272.935ZM279.432 21.174C279.432 21.402 279.384 21.618 279.288 21.822C279.204 22.014 279.084 22.182 278.928 22.326C278.784 22.47 278.604 22.584 278.388 22.668C278.184 22.752 277.968 22.794 277.74 22.794C277.26 22.794 276.858 22.638 276.534 22.326C276.21 22.002 276.048 21.618 276.048 21.174C276.048 20.958 276.09 20.754 276.174 20.562C276.258 20.358 276.378 20.184 276.534 20.04C276.69 19.896 276.87 19.782 277.074 19.698C277.278 19.602 277.5 19.554 277.74 19.554C277.968 19.554 278.184 19.596 278.388 19.68C278.604 19.764 278.784 19.878 278.928 20.022C279.084 20.166 279.204 20.34 279.288 20.544C279.384 20.736 279.432 20.946 279.432 21.174ZM276.264 33V24.036H279.216V33H276.264ZM290.858 28.482C290.858 29.214 290.726 29.88 290.462 30.48C290.198 31.068 289.838 31.572 289.382 31.992C288.926 32.4 288.398 32.718 287.798 32.946C287.198 33.174 286.556 33.288 285.872 33.288C285.2 33.288 284.558 33.174 283.946 32.946C283.346 32.718 282.818 32.4 282.362 31.992C281.918 31.572 281.564 31.068 281.3 30.48C281.036 29.88 280.904 29.214 280.904 28.482C280.904 27.75 281.036 27.09 281.3 26.502C281.564 25.914 281.918 25.416 282.362 25.008C282.818 24.6 283.346 24.288 283.946 24.072C284.558 23.856 285.2 23.748 285.872 23.748C286.556 23.748 287.198 23.856 287.798 24.072C288.398 24.288 288.926 24.6 289.382 25.008C289.838 25.416 290.198 25.914 290.462 26.502C290.726 27.09 290.858 27.75 290.858 28.482ZM288.014 28.482C288.014 28.194 287.966 27.912 287.87 27.636C287.774 27.36 287.636 27.12 287.456 26.916C287.276 26.7 287.054 26.526 286.79 26.394C286.526 26.262 286.22 26.196 285.872 26.196C285.524 26.196 285.218 26.262 284.954 26.394C284.69 26.526 284.468 26.7 284.288 26.916C284.12 27.12 283.988 27.36 283.892 27.636C283.808 27.912 283.766 28.194 283.766 28.482C283.766 28.77 283.808 29.052 283.892 29.328C283.988 29.604 284.126 29.856 284.306 30.084C284.486 30.3 284.708 30.474 284.972 30.606C285.236 30.738 285.542 30.804 285.89 30.804C286.238 30.804 286.544 30.738 286.808 30.606C287.072 30.474 287.294 30.3 287.474 30.084C287.654 29.856 287.786 29.604 287.87 29.328C287.966 29.052 288.014 28.77 288.014 28.482ZM298.413 33V28.104C298.413 27.852 298.389 27.612 298.341 27.384C298.305 27.156 298.239 26.958 298.143 26.79C298.047 26.61 297.909 26.472 297.729 26.376C297.561 26.268 297.345 26.214 297.081 26.214C296.817 26.214 296.583 26.268 296.379 26.376C296.187 26.472 296.025 26.61 295.893 26.79C295.761 26.97 295.659 27.18 295.587 27.42C295.527 27.648 295.497 27.888 295.497 28.14V33H292.527V24.036H295.389V25.278H295.425C295.533 25.086 295.671 24.9 295.839 24.72C296.019 24.528 296.223 24.366 296.451 24.234C296.691 24.102 296.949 23.994 297.225 23.91C297.501 23.826 297.795 23.784 298.107 23.784C298.707 23.784 299.217 23.892 299.637 24.108C300.057 24.324 300.393 24.606 300.645 24.954C300.909 25.29 301.095 25.68 301.203 26.124C301.323 26.568 301.383 27.012 301.383 27.456V33H298.413Z" fill="white"/>
<path fill-rule="evenodd" clip-rule="evenodd" d="M84.1184 14V15.871H90.7614L83.3184 23.313L84.6434 24.638L92.0854 17.195V23.966H93.9564V14H84.1184Z" fill="#FEFEFE"/>
<path fill-rule="evenodd" clip-rule="evenodd" d="M69 14V39.554H93.956V26.776H92.085V37.683H70.871V15.871H81.479V14H69Z" fill="#FEFEFE"/>
<path fill-rule="evenodd" clip-rule="evenodd" d="M74.2588 26.1928H81.5218V24.3218H74.2588V26.1928Z" fill="#FEFEFE"/>
</svg>
