<svg width="429" height="53" viewBox="0 0 429 53" fill="none" xmlns="http://www.w3.org/2000/svg">
<rect width="429" height="53" rx="26.5" fill="#00B0C7"/>
<path d="M119.528 31.236C118.964 31.884 118.268 32.4 117.44 32.784C116.612 33.156 115.658 33.342 114.578 33.342C113.594 33.342 112.682 33.18 111.842 32.856C111.014 32.532 110.294 32.076 109.682 31.488C109.07 30.888 108.59 30.174 108.242 29.346C107.894 28.518 107.72 27.606 107.72 26.61C107.72 25.59 107.894 24.666 108.242 23.838C108.602 23.01 109.094 22.308 109.718 21.732C110.342 21.144 111.074 20.694 111.914 20.382C112.754 20.07 113.66 19.914 114.632 19.914C115.532 19.914 116.414 20.076 117.278 20.4C118.154 20.712 118.862 21.174 119.402 21.786L117.314 23.874C117.026 23.478 116.648 23.184 116.18 22.992C115.712 22.8 115.232 22.704 114.74 22.704C114.2 22.704 113.702 22.806 113.246 23.01C112.802 23.202 112.418 23.472 112.094 23.82C111.77 24.168 111.518 24.582 111.338 25.062C111.158 25.53 111.068 26.046 111.068 26.61C111.068 27.186 111.158 27.714 111.338 28.194C111.518 28.674 111.764 29.088 112.076 29.436C112.4 29.772 112.784 30.036 113.228 30.228C113.672 30.42 114.158 30.516 114.686 30.516C115.298 30.516 115.832 30.396 116.288 30.156C116.744 29.916 117.11 29.604 117.386 29.22L119.528 31.236ZM129.778 28.482C129.778 29.214 129.646 29.88 129.382 30.48C129.118 31.068 128.758 31.572 128.302 31.992C127.846 32.4 127.318 32.718 126.718 32.946C126.118 33.174 125.476 33.288 124.792 33.288C124.12 33.288 123.478 33.174 122.866 32.946C122.266 32.718 121.738 32.4 121.282 31.992C120.838 31.572 120.484 31.068 120.22 30.48C119.956 29.88 119.824 29.214 119.824 28.482C119.824 27.75 119.956 27.09 120.22 26.502C120.484 25.914 120.838 25.416 121.282 25.008C121.738 24.6 122.266 24.288 122.866 24.072C123.478 23.856 124.12 23.748 124.792 23.748C125.476 23.748 126.118 23.856 126.718 24.072C127.318 24.288 127.846 24.6 128.302 25.008C128.758 25.416 129.118 25.914 129.382 26.502C129.646 27.09 129.778 27.75 129.778 28.482ZM126.934 28.482C126.934 28.194 126.886 27.912 126.79 27.636C126.694 27.36 126.556 27.12 126.376 26.916C126.196 26.7 125.974 26.526 125.71 26.394C125.446 26.262 125.14 26.196 124.792 26.196C124.444 26.196 124.138 26.262 123.874 26.394C123.61 26.526 123.388 26.7 123.208 26.916C123.04 27.12 122.908 27.36 122.812 27.636C122.728 27.912 122.686 28.194 122.686 28.482C122.686 28.77 122.728 29.052 122.812 29.328C122.908 29.604 123.046 29.856 123.226 30.084C123.406 30.3 123.628 30.474 123.892 30.606C124.156 30.738 124.462 30.804 124.81 30.804C125.158 30.804 125.464 30.738 125.728 30.606C125.992 30.474 126.214 30.3 126.394 30.084C126.574 29.856 126.706 29.604 126.79 29.328C126.886 29.052 126.934 28.77 126.934 28.482ZM142.895 33V28.104C142.895 27.852 142.877 27.612 142.841 27.384C142.805 27.144 142.739 26.94 142.643 26.772C142.547 26.604 142.415 26.472 142.247 26.376C142.091 26.268 141.881 26.214 141.617 26.214C141.365 26.214 141.143 26.268 140.951 26.376C140.771 26.484 140.615 26.628 140.483 26.808C140.363 26.988 140.273 27.198 140.213 27.438C140.153 27.666 140.123 27.906 140.123 28.158V33H137.171V27.888C137.171 27.372 137.069 26.964 136.865 26.664C136.661 26.364 136.337 26.214 135.893 26.214C135.425 26.214 135.059 26.4 134.795 26.772C134.543 27.144 134.417 27.6 134.417 28.14V33H131.447V24.036H134.309V25.278H134.345C134.453 25.086 134.585 24.9 134.741 24.72C134.909 24.54 135.107 24.384 135.335 24.252C135.563 24.108 135.815 23.994 136.091 23.91C136.379 23.826 136.691 23.784 137.027 23.784C137.675 23.784 138.221 23.916 138.665 24.18C139.121 24.444 139.475 24.822 139.727 25.314C140.027 24.846 140.411 24.474 140.879 24.198C141.347 23.922 141.917 23.784 142.589 23.784C143.201 23.784 143.711 23.898 144.119 24.126C144.539 24.342 144.875 24.63 145.127 24.99C145.379 25.338 145.559 25.734 145.667 26.178C145.787 26.61 145.847 27.036 145.847 27.456V33H142.895ZM157.848 28.482C157.848 29.106 157.752 29.706 157.56 30.282C157.368 30.858 157.086 31.368 156.714 31.812C156.354 32.244 155.91 32.592 155.382 32.856C154.854 33.12 154.254 33.252 153.582 33.252C153.03 33.252 152.508 33.144 152.016 32.928C151.524 32.7 151.14 32.394 150.864 32.01H150.828V37.32H147.876V24.036H150.684V25.134H150.738C151.014 24.774 151.392 24.462 151.872 24.198C152.364 23.922 152.94 23.784 153.6 23.784C154.248 23.784 154.836 23.91 155.364 24.162C155.892 24.414 156.336 24.756 156.696 25.188C157.068 25.62 157.35 26.124 157.542 26.7C157.746 27.264 157.848 27.858 157.848 28.482ZM154.986 28.482C154.986 28.194 154.938 27.912 154.842 27.636C154.758 27.36 154.626 27.12 154.446 26.916C154.278 26.7 154.062 26.526 153.798 26.394C153.534 26.262 153.228 26.196 152.88 26.196C152.544 26.196 152.244 26.262 151.98 26.394C151.716 26.526 151.488 26.7 151.296 26.916C151.116 27.132 150.972 27.378 150.864 27.654C150.768 27.93 150.72 28.212 150.72 28.5C150.72 28.788 150.768 29.07 150.864 29.346C150.972 29.622 151.116 29.868 151.296 30.084C151.488 30.3 151.716 30.474 151.98 30.606C152.244 30.738 152.544 30.804 152.88 30.804C153.228 30.804 153.534 30.738 153.798 30.606C154.062 30.474 154.278 30.3 154.446 30.084C154.626 29.868 154.758 29.622 154.842 29.346C154.938 29.058 154.986 28.77 154.986 28.482ZM159.542 33V19.392H162.53V33H159.542ZM170.842 27.492C170.842 27.024 170.692 26.622 170.392 26.286C170.104 25.95 169.666 25.782 169.078 25.782C168.79 25.782 168.526 25.83 168.286 25.926C168.046 26.01 167.836 26.13 167.656 26.286C167.476 26.442 167.332 26.628 167.224 26.844C167.116 27.048 167.056 27.264 167.044 27.492H170.842ZM173.56 28.626C173.56 28.746 173.56 28.866 173.56 28.986C173.56 29.106 173.554 29.22 173.542 29.328H167.044C167.068 29.58 167.14 29.808 167.26 30.012C167.392 30.216 167.554 30.396 167.746 30.552C167.95 30.696 168.172 30.81 168.412 30.894C168.664 30.978 168.922 31.02 169.186 31.02C169.654 31.02 170.05 30.936 170.374 30.768C170.698 30.588 170.962 30.36 171.166 30.084L173.218 31.38C172.798 31.992 172.24 32.466 171.544 32.802C170.86 33.126 170.062 33.288 169.15 33.288C168.478 33.288 167.842 33.186 167.242 32.982C166.642 32.766 166.114 32.46 165.658 32.064C165.214 31.656 164.86 31.158 164.596 30.57C164.344 29.982 164.218 29.31 164.218 28.554C164.218 27.822 164.344 27.162 164.596 26.574C164.848 25.974 165.19 25.47 165.622 25.062C166.054 24.642 166.564 24.318 167.152 24.09C167.74 23.862 168.376 23.748 169.06 23.748C169.72 23.748 170.326 23.862 170.878 24.09C171.43 24.306 171.904 24.624 172.3 25.044C172.696 25.464 173.002 25.974 173.218 26.574C173.446 27.174 173.56 27.858 173.56 28.626ZM178.394 26.25V29.67C178.394 30.09 178.472 30.408 178.628 30.624C178.796 30.828 179.09 30.93 179.51 30.93C179.654 30.93 179.804 30.918 179.96 30.894C180.128 30.87 180.266 30.834 180.374 30.786L180.41 32.946C180.206 33.018 179.948 33.078 179.636 33.126C179.324 33.186 179.012 33.216 178.7 33.216C178.1 33.216 177.596 33.144 177.188 33C176.78 32.844 176.45 32.628 176.198 32.352C175.958 32.064 175.784 31.728 175.676 31.344C175.568 30.948 175.514 30.51 175.514 30.03V26.25H174.074V24.036H175.496V21.678H178.394V24.036H180.5V26.25H178.394ZM187.862 27.492C187.862 27.024 187.712 26.622 187.412 26.286C187.124 25.95 186.686 25.782 186.098 25.782C185.81 25.782 185.546 25.83 185.306 25.926C185.066 26.01 184.856 26.13 184.676 26.286C184.496 26.442 184.352 26.628 184.244 26.844C184.136 27.048 184.076 27.264 184.064 27.492H187.862ZM190.58 28.626C190.58 28.746 190.58 28.866 190.58 28.986C190.58 29.106 190.574 29.22 190.562 29.328H184.064C184.088 29.58 184.16 29.808 184.28 30.012C184.412 30.216 184.574 30.396 184.766 30.552C184.97 30.696 185.192 30.81 185.432 30.894C185.684 30.978 185.942 31.02 186.206 31.02C186.674 31.02 187.07 30.936 187.394 30.768C187.718 30.588 187.982 30.36 188.186 30.084L190.238 31.38C189.818 31.992 189.26 32.466 188.564 32.802C187.88 33.126 187.082 33.288 186.17 33.288C185.498 33.288 184.862 33.186 184.262 32.982C183.662 32.766 183.134 32.46 182.678 32.064C182.234 31.656 181.88 31.158 181.616 30.57C181.364 29.982 181.238 29.31 181.238 28.554C181.238 27.822 181.364 27.162 181.616 26.574C181.868 25.974 182.21 25.47 182.642 25.062C183.074 24.642 183.584 24.318 184.172 24.09C184.76 23.862 185.396 23.748 186.08 23.748C186.74 23.748 187.346 23.862 187.898 24.09C188.45 24.306 188.924 24.624 189.32 25.044C189.716 25.464 190.022 25.974 190.238 26.574C190.466 27.174 190.58 27.858 190.58 28.626ZM202.684 26.934C202.516 26.718 202.288 26.544 202 26.412C201.712 26.28 201.418 26.214 201.118 26.214C200.806 26.214 200.524 26.28 200.272 26.412C200.02 26.532 199.804 26.7 199.624 26.916C199.444 27.12 199.3 27.36 199.192 27.636C199.096 27.912 199.048 28.206 199.048 28.518C199.048 28.83 199.096 29.124 199.192 29.4C199.288 29.676 199.426 29.922 199.606 30.138C199.798 30.342 200.02 30.504 200.272 30.624C200.536 30.744 200.83 30.804 201.154 30.804C201.454 30.804 201.748 30.75 202.036 30.642C202.336 30.522 202.576 30.354 202.756 30.138L204.394 32.136C204.022 32.496 203.542 32.778 202.954 32.982C202.366 33.186 201.742 33.288 201.082 33.288C200.374 33.288 199.714 33.18 199.102 32.964C198.49 32.748 197.956 32.436 197.5 32.028C197.056 31.608 196.702 31.104 196.438 30.516C196.186 29.928 196.06 29.262 196.06 28.518C196.06 27.786 196.186 27.126 196.438 26.538C196.702 25.95 197.056 25.452 197.5 25.044C197.956 24.624 198.49 24.306 199.102 24.09C199.714 23.862 200.368 23.748 201.064 23.748C201.388 23.748 201.706 23.778 202.018 23.838C202.342 23.898 202.648 23.982 202.936 24.09C203.236 24.186 203.506 24.312 203.746 24.468C203.998 24.612 204.214 24.774 204.394 24.954L202.684 26.934ZM211.177 26.448C211.045 26.412 210.913 26.388 210.781 26.376C210.661 26.364 210.541 26.358 210.421 26.358C210.025 26.358 209.689 26.43 209.413 26.574C209.149 26.718 208.933 26.892 208.765 27.096C208.609 27.3 208.495 27.522 208.423 27.762C208.351 28.002 208.315 28.212 208.315 28.392V33H205.363V24.036H208.207V25.332H208.243C208.471 24.876 208.795 24.504 209.215 24.216C209.635 23.928 210.121 23.784 210.673 23.784C210.793 23.784 210.907 23.79 211.015 23.802C211.135 23.814 211.231 23.832 211.303 23.856L211.177 26.448ZM218.157 27.492C218.157 27.024 218.007 26.622 217.707 26.286C217.419 25.95 216.981 25.782 216.393 25.782C216.105 25.782 215.841 25.83 215.601 25.926C215.361 26.01 215.151 26.13 214.971 26.286C214.791 26.442 214.647 26.628 214.539 26.844C214.431 27.048 214.371 27.264 214.359 27.492H218.157ZM220.875 28.626C220.875 28.746 220.875 28.866 220.875 28.986C220.875 29.106 220.869 29.22 220.857 29.328H214.359C214.383 29.58 214.455 29.808 214.575 30.012C214.707 30.216 214.869 30.396 215.061 30.552C215.265 30.696 215.487 30.81 215.727 30.894C215.979 30.978 216.237 31.02 216.501 31.02C216.969 31.02 217.365 30.936 217.689 30.768C218.013 30.588 218.277 30.36 218.481 30.084L220.533 31.38C220.113 31.992 219.555 32.466 218.859 32.802C218.175 33.126 217.377 33.288 216.465 33.288C215.793 33.288 215.157 33.186 214.557 32.982C213.957 32.766 213.429 32.46 212.973 32.064C212.529 31.656 212.175 31.158 211.911 30.57C211.659 29.982 211.533 29.31 211.533 28.554C211.533 27.822 211.659 27.162 211.911 26.574C212.163 25.974 212.505 25.47 212.937 25.062C213.369 24.642 213.879 24.318 214.467 24.09C215.055 23.862 215.691 23.748 216.375 23.748C217.035 23.748 217.641 23.862 218.193 24.09C218.745 24.306 219.219 24.624 219.615 25.044C220.011 25.464 220.317 25.974 220.533 26.574C220.761 27.174 220.875 27.858 220.875 28.626ZM229.292 33V31.83H229.256C228.968 32.286 228.554 32.64 228.014 32.892C227.486 33.132 226.922 33.252 226.322 33.252C225.65 33.252 225.05 33.12 224.522 32.856C223.994 32.592 223.544 32.244 223.172 31.812C222.812 31.368 222.536 30.858 222.344 30.282C222.152 29.706 222.056 29.106 222.056 28.482C222.056 27.858 222.152 27.264 222.344 26.7C222.548 26.124 222.83 25.62 223.19 25.188C223.562 24.756 224.006 24.414 224.522 24.162C225.05 23.91 225.638 23.784 226.286 23.784C226.946 23.784 227.504 23.91 227.96 24.162C228.416 24.414 228.77 24.69 229.022 24.99H229.058V19.392H232.01V33H229.292ZM229.184 28.5C229.184 28.212 229.13 27.93 229.022 27.654C228.926 27.378 228.782 27.132 228.59 26.916C228.41 26.7 228.188 26.526 227.924 26.394C227.66 26.262 227.36 26.196 227.024 26.196C226.676 26.196 226.37 26.262 226.106 26.394C225.842 26.526 225.62 26.7 225.44 26.916C225.26 27.12 225.122 27.36 225.026 27.636C224.942 27.912 224.9 28.194 224.9 28.482C224.9 28.77 224.942 29.058 225.026 29.346C225.122 29.622 225.26 29.868 225.44 30.084C225.62 30.3 225.842 30.474 226.106 30.606C226.37 30.738 226.676 30.804 227.024 30.804C227.36 30.804 227.66 30.738 227.924 30.606C228.188 30.474 228.41 30.3 228.59 30.084C228.782 29.868 228.926 29.622 229.022 29.346C229.13 29.07 229.184 28.788 229.184 28.5ZM237.358 21.174C237.358 21.402 237.31 21.618 237.214 21.822C237.13 22.014 237.01 22.182 236.854 22.326C236.71 22.47 236.53 22.584 236.314 22.668C236.11 22.752 235.894 22.794 235.666 22.794C235.186 22.794 234.784 22.638 234.46 22.326C234.136 22.002 233.974 21.618 233.974 21.174C233.974 20.958 234.016 20.754 234.1 20.562C234.184 20.358 234.304 20.184 234.46 20.04C234.616 19.896 234.796 19.782 235 19.698C235.204 19.602 235.426 19.554 235.666 19.554C235.894 19.554 236.11 19.596 236.314 19.68C236.53 19.764 236.71 19.878 236.854 20.022C237.01 20.166 237.13 20.34 237.214 20.544C237.31 20.736 237.358 20.946 237.358 21.174ZM234.19 33V24.036H237.142V33H234.19ZM242.484 26.25V29.67C242.484 30.09 242.562 30.408 242.718 30.624C242.886 30.828 243.18 30.93 243.6 30.93C243.744 30.93 243.894 30.918 244.05 30.894C244.218 30.87 244.356 30.834 244.464 30.786L244.5 32.946C244.296 33.018 244.038 33.078 243.726 33.126C243.414 33.186 243.102 33.216 242.79 33.216C242.19 33.216 241.686 33.144 241.278 33C240.87 32.844 240.54 32.628 240.288 32.352C240.048 32.064 239.874 31.728 239.766 31.344C239.658 30.948 239.604 30.51 239.604 30.03V26.25H238.164V24.036H239.586V21.678H242.484V24.036H244.59V26.25H242.484ZM255.369 29.094H254.991C254.667 29.094 254.337 29.112 254.001 29.148C253.677 29.172 253.383 29.226 253.119 29.31C252.867 29.394 252.657 29.52 252.489 29.688C252.321 29.844 252.237 30.054 252.237 30.318C252.237 30.486 252.273 30.63 252.345 30.75C252.429 30.87 252.531 30.966 252.651 31.038C252.771 31.11 252.909 31.164 253.065 31.2C253.221 31.224 253.371 31.236 253.515 31.236C254.115 31.236 254.571 31.074 254.883 30.75C255.207 30.414 255.369 29.964 255.369 29.4V29.094ZM249.951 25.26C250.479 24.756 251.091 24.378 251.787 24.126C252.495 23.874 253.215 23.748 253.947 23.748C254.703 23.748 255.339 23.844 255.855 24.036C256.383 24.216 256.809 24.504 257.133 24.9C257.457 25.284 257.691 25.776 257.835 26.376C257.991 26.964 258.069 27.666 258.069 28.482V33H255.369V32.046H255.315C255.087 32.418 254.739 32.706 254.271 32.91C253.815 33.114 253.317 33.216 252.777 33.216C252.417 33.216 252.045 33.168 251.661 33.072C251.277 32.976 250.923 32.82 250.599 32.604C250.287 32.388 250.029 32.1 249.825 31.74C249.621 31.38 249.519 30.936 249.519 30.408C249.519 29.76 249.693 29.238 250.041 28.842C250.401 28.446 250.857 28.14 251.409 27.924C251.973 27.708 252.597 27.564 253.281 27.492C253.965 27.42 254.631 27.384 255.279 27.384V27.24C255.279 26.796 255.123 26.472 254.811 26.268C254.499 26.052 254.115 25.944 253.659 25.944C253.239 25.944 252.831 26.034 252.435 26.214C252.051 26.394 251.721 26.61 251.445 26.862L249.951 25.26ZM270.044 28.482C270.044 29.106 269.948 29.706 269.756 30.282C269.564 30.858 269.282 31.368 268.91 31.812C268.55 32.244 268.106 32.592 267.578 32.856C267.05 33.12 266.45 33.252 265.778 33.252C265.226 33.252 264.704 33.144 264.212 32.928C263.72 32.7 263.336 32.394 263.06 32.01H263.024V37.32H260.072V24.036H262.88V25.134H262.934C263.21 24.774 263.588 24.462 264.068 24.198C264.56 23.922 265.136 23.784 265.796 23.784C266.444 23.784 267.032 23.91 267.56 24.162C268.088 24.414 268.532 24.756 268.892 25.188C269.264 25.62 269.546 26.124 269.738 26.7C269.942 27.264 270.044 27.858 270.044 28.482ZM267.182 28.482C267.182 28.194 267.134 27.912 267.038 27.636C266.954 27.36 266.822 27.12 266.642 26.916C266.474 26.7 266.258 26.526 265.994 26.394C265.73 26.262 265.424 26.196 265.076 26.196C264.74 26.196 264.44 26.262 264.176 26.394C263.912 26.526 263.684 26.7 263.492 26.916C263.312 27.132 263.168 27.378 263.06 27.654C262.964 27.93 262.916 28.212 262.916 28.5C262.916 28.788 262.964 29.07 263.06 29.346C263.168 29.622 263.312 29.868 263.492 30.084C263.684 30.3 263.912 30.474 264.176 30.606C264.44 30.738 264.74 30.804 265.076 30.804C265.424 30.804 265.73 30.738 265.994 30.606C266.258 30.474 266.474 30.3 266.642 30.084C266.822 29.868 266.954 29.622 267.038 29.346C267.134 29.058 267.182 28.77 267.182 28.482ZM281.674 28.482C281.674 29.106 281.578 29.706 281.386 30.282C281.194 30.858 280.912 31.368 280.54 31.812C280.18 32.244 279.736 32.592 279.208 32.856C278.68 33.12 278.08 33.252 277.408 33.252C276.856 33.252 276.334 33.144 275.842 32.928C275.35 32.7 274.966 32.394 274.69 32.01H274.654V37.32H271.702V24.036H274.51V25.134H274.564C274.84 24.774 275.218 24.462 275.698 24.198C276.19 23.922 276.766 23.784 277.426 23.784C278.074 23.784 278.662 23.91 279.19 24.162C279.718 24.414 280.162 24.756 280.522 25.188C280.894 25.62 281.176 26.124 281.368 26.7C281.572 27.264 281.674 27.858 281.674 28.482ZM278.812 28.482C278.812 28.194 278.764 27.912 278.668 27.636C278.584 27.36 278.452 27.12 278.272 26.916C278.104 26.7 277.888 26.526 277.624 26.394C277.36 26.262 277.054 26.196 276.706 26.196C276.37 26.196 276.07 26.262 275.806 26.394C275.542 26.526 275.314 26.7 275.122 26.916C274.942 27.132 274.798 27.378 274.69 27.654C274.594 27.93 274.546 28.212 274.546 28.5C274.546 28.788 274.594 29.07 274.69 29.346C274.798 29.622 274.942 29.868 275.122 30.084C275.314 30.3 275.542 30.474 275.806 30.606C276.07 30.738 276.37 30.804 276.706 30.804C277.054 30.804 277.36 30.738 277.624 30.606C277.888 30.474 278.104 30.3 278.272 30.084C278.452 29.868 278.584 29.622 278.668 29.346C278.764 29.058 278.812 28.77 278.812 28.482ZM283.368 33V19.392H286.356V33H283.368ZM291.698 21.174C291.698 21.402 291.65 21.618 291.554 21.822C291.47 22.014 291.35 22.182 291.194 22.326C291.05 22.47 290.87 22.584 290.654 22.668C290.45 22.752 290.234 22.794 290.006 22.794C289.526 22.794 289.124 22.638 288.8 22.326C288.476 22.002 288.314 21.618 288.314 21.174C288.314 20.958 288.356 20.754 288.44 20.562C288.524 20.358 288.644 20.184 288.8 20.04C288.956 19.896 289.136 19.782 289.34 19.698C289.544 19.602 289.766 19.554 290.006 19.554C290.234 19.554 290.45 19.596 290.654 19.68C290.87 19.764 291.05 19.878 291.194 20.022C291.35 20.166 291.47 20.34 291.554 20.544C291.65 20.736 291.698 20.946 291.698 21.174ZM288.53 33V24.036H291.482V33H288.53ZM299.794 26.934C299.626 26.718 299.398 26.544 299.11 26.412C298.822 26.28 298.528 26.214 298.228 26.214C297.916 26.214 297.634 26.28 297.382 26.412C297.13 26.532 296.914 26.7 296.734 26.916C296.554 27.12 296.41 27.36 296.302 27.636C296.206 27.912 296.158 28.206 296.158 28.518C296.158 28.83 296.206 29.124 296.302 29.4C296.398 29.676 296.536 29.922 296.716 30.138C296.908 30.342 297.13 30.504 297.382 30.624C297.646 30.744 297.94 30.804 298.264 30.804C298.564 30.804 298.858 30.75 299.146 30.642C299.446 30.522 299.686 30.354 299.866 30.138L301.504 32.136C301.132 32.496 300.652 32.778 300.064 32.982C299.476 33.186 298.852 33.288 298.192 33.288C297.484 33.288 296.824 33.18 296.212 32.964C295.6 32.748 295.066 32.436 294.61 32.028C294.166 31.608 293.812 31.104 293.548 30.516C293.296 29.928 293.17 29.262 293.17 28.518C293.17 27.786 293.296 27.126 293.548 26.538C293.812 25.95 294.166 25.452 294.61 25.044C295.066 24.624 295.6 24.306 296.212 24.09C296.824 23.862 297.478 23.748 298.174 23.748C298.498 23.748 298.816 23.778 299.128 23.838C299.452 23.898 299.758 23.982 300.046 24.09C300.346 24.186 300.616 24.312 300.856 24.468C301.108 24.612 301.324 24.774 301.504 24.954L299.794 26.934ZM307.765 29.094H307.387C307.063 29.094 306.733 29.112 306.397 29.148C306.073 29.172 305.779 29.226 305.515 29.31C305.263 29.394 305.053 29.52 304.885 29.688C304.717 29.844 304.633 30.054 304.633 30.318C304.633 30.486 304.669 30.63 304.741 30.75C304.825 30.87 304.927 30.966 305.047 31.038C305.167 31.11 305.305 31.164 305.461 31.2C305.617 31.224 305.767 31.236 305.911 31.236C306.511 31.236 306.967 31.074 307.279 30.75C307.603 30.414 307.765 29.964 307.765 29.4V29.094ZM302.347 25.26C302.875 24.756 303.487 24.378 304.183 24.126C304.891 23.874 305.611 23.748 306.343 23.748C307.099 23.748 307.735 23.844 308.251 24.036C308.779 24.216 309.205 24.504 309.529 24.9C309.853 25.284 310.087 25.776 310.231 26.376C310.387 26.964 310.465 27.666 310.465 28.482V33H307.765V32.046H307.711C307.483 32.418 307.135 32.706 306.667 32.91C306.211 33.114 305.713 33.216 305.173 33.216C304.813 33.216 304.441 33.168 304.057 33.072C303.673 32.976 303.319 32.82 302.995 32.604C302.683 32.388 302.425 32.1 302.221 31.74C302.017 31.38 301.915 30.936 301.915 30.408C301.915 29.76 302.089 29.238 302.437 28.842C302.797 28.446 303.253 28.14 303.805 27.924C304.369 27.708 304.993 27.564 305.677 27.492C306.361 27.42 307.027 27.384 307.675 27.384V27.24C307.675 26.796 307.519 26.472 307.207 26.268C306.895 26.052 306.511 25.944 306.055 25.944C305.635 25.944 305.227 26.034 304.831 26.214C304.447 26.394 304.117 26.61 303.841 26.862L302.347 25.26ZM315.496 26.25V29.67C315.496 30.09 315.574 30.408 315.73 30.624C315.898 30.828 316.192 30.93 316.612 30.93C316.756 30.93 316.906 30.918 317.062 30.894C317.23 30.87 317.368 30.834 317.476 30.786L317.512 32.946C317.308 33.018 317.05 33.078 316.738 33.126C316.426 33.186 316.114 33.216 315.802 33.216C315.202 33.216 314.698 33.144 314.29 33C313.882 32.844 313.552 32.628 313.3 32.352C313.06 32.064 312.886 31.728 312.778 31.344C312.67 30.948 312.616 30.51 312.616 30.03V26.25H311.176V24.036H312.598V21.678H315.496V24.036H317.602V26.25H315.496ZM321.993 21.174C321.993 21.402 321.945 21.618 321.849 21.822C321.765 22.014 321.645 22.182 321.489 22.326C321.345 22.47 321.165 22.584 320.949 22.668C320.745 22.752 320.529 22.794 320.301 22.794C319.821 22.794 319.419 22.638 319.095 22.326C318.771 22.002 318.609 21.618 318.609 21.174C318.609 20.958 318.651 20.754 318.735 20.562C318.819 20.358 318.939 20.184 319.095 20.04C319.251 19.896 319.431 19.782 319.635 19.698C319.839 19.602 320.061 19.554 320.301 19.554C320.529 19.554 320.745 19.596 320.949 19.68C321.165 19.764 321.345 19.878 321.489 20.022C321.645 20.166 321.765 20.34 321.849 20.544C321.945 20.736 321.993 20.946 321.993 21.174ZM318.825 33V24.036H321.777V33H318.825ZM333.42 28.482C333.42 29.214 333.288 29.88 333.024 30.48C332.76 31.068 332.4 31.572 331.944 31.992C331.488 32.4 330.96 32.718 330.36 32.946C329.76 33.174 329.118 33.288 328.434 33.288C327.762 33.288 327.12 33.174 326.508 32.946C325.908 32.718 325.38 32.4 324.924 31.992C324.48 31.572 324.126 31.068 323.862 30.48C323.598 29.88 323.466 29.214 323.466 28.482C323.466 27.75 323.598 27.09 323.862 26.502C324.126 25.914 324.48 25.416 324.924 25.008C325.38 24.6 325.908 24.288 326.508 24.072C327.12 23.856 327.762 23.748 328.434 23.748C329.118 23.748 329.76 23.856 330.36 24.072C330.96 24.288 331.488 24.6 331.944 25.008C332.4 25.416 332.76 25.914 333.024 26.502C333.288 27.09 333.42 27.75 333.42 28.482ZM330.576 28.482C330.576 28.194 330.528 27.912 330.432 27.636C330.336 27.36 330.198 27.12 330.018 26.916C329.838 26.7 329.616 26.526 329.352 26.394C329.088 26.262 328.782 26.196 328.434 26.196C328.086 26.196 327.78 26.262 327.516 26.394C327.252 26.526 327.03 26.7 326.85 26.916C326.682 27.12 326.55 27.36 326.454 27.636C326.37 27.912 326.328 28.194 326.328 28.482C326.328 28.77 326.37 29.052 326.454 29.328C326.55 29.604 326.688 29.856 326.868 30.084C327.048 30.3 327.27 30.474 327.534 30.606C327.798 30.738 328.104 30.804 328.452 30.804C328.8 30.804 329.106 30.738 329.37 30.606C329.634 30.474 329.856 30.3 330.036 30.084C330.216 29.856 330.348 29.604 330.432 29.328C330.528 29.052 330.576 28.77 330.576 28.482ZM340.975 33V28.104C340.975 27.852 340.951 27.612 340.903 27.384C340.867 27.156 340.801 26.958 340.705 26.79C340.609 26.61 340.471 26.472 340.291 26.376C340.123 26.268 339.907 26.214 339.643 26.214C339.379 26.214 339.145 26.268 338.941 26.376C338.749 26.472 338.587 26.61 338.455 26.79C338.323 26.97 338.221 27.18 338.149 27.42C338.089 27.648 338.059 27.888 338.059 28.14V33H335.089V24.036H337.951V25.278H337.987C338.095 25.086 338.233 24.9 338.401 24.72C338.581 24.528 338.785 24.366 339.013 24.234C339.253 24.102 339.511 23.994 339.787 23.91C340.063 23.826 340.357 23.784 340.669 23.784C341.269 23.784 341.779 23.892 342.199 24.108C342.619 24.324 342.955 24.606 343.207 24.954C343.471 25.29 343.657 25.68 343.765 26.124C343.885 26.568 343.945 27.012 343.945 27.456V33H340.975Z" fill="white"/>
<path fill-rule="evenodd" clip-rule="evenodd" d="M89.5382 29.6095L83.8152 23.8855L82.4902 25.2095L89.5382 32.2575L101.553 20.2435L100.228 18.9185L89.5382 29.6095Z" fill="#FEFEFE"/>
<path fill-rule="evenodd" clip-rule="evenodd" d="M68 14V39.555H92.957V32.634H91.086V37.684H69.871V15.871H91.086V23.438H92.957V14H68Z" fill="#FEFEFE"/>
<path fill-rule="evenodd" clip-rule="evenodd" d="M73.2588 34.3798H87.7838V32.5088H73.2588V34.3798Z" fill="#FEFEFE"/>
<path fill-rule="evenodd" clip-rule="evenodd" d="M73.2588 30.2856H83.8668V28.4146H73.2588V30.2856Z" fill="#FEFEFE"/>
<path fill-rule="evenodd" clip-rule="evenodd" d="M73.2578 26.1938H80.5208V24.3228H73.2578V26.1938Z" fill="#FEFEFE"/>
</svg>
