<svg width="429" height="53" viewBox="0 0 429 53" fill="none" xmlns="http://www.w3.org/2000/svg">
<rect width="429" height="53" rx="26.5" fill="#00B0C7"/>
<path d="M112.046 23.568C111.782 23.232 111.434 22.968 111.002 22.776C110.582 22.572 110.174 22.47 109.778 22.47C109.574 22.47 109.364 22.488 109.148 22.524C108.944 22.56 108.758 22.632 108.59 22.74C108.422 22.836 108.278 22.968 108.158 23.136C108.05 23.292 107.996 23.496 107.996 23.748C107.996 23.964 108.038 24.144 108.122 24.288C108.218 24.432 108.35 24.558 108.518 24.666C108.698 24.774 108.908 24.876 109.148 24.972C109.388 25.056 109.658 25.146 109.958 25.242C110.39 25.386 110.84 25.548 111.308 25.728C111.776 25.896 112.202 26.124 112.586 26.412C112.97 26.7 113.288 27.06 113.54 27.492C113.792 27.912 113.918 28.44 113.918 29.076C113.918 29.808 113.78 30.444 113.504 30.984C113.24 31.512 112.88 31.95 112.424 32.298C111.968 32.646 111.446 32.904 110.858 33.072C110.27 33.24 109.664 33.324 109.04 33.324C108.128 33.324 107.246 33.168 106.394 32.856C105.542 32.532 104.834 32.076 104.27 31.488L106.286 29.436C106.598 29.82 107.006 30.144 107.51 30.408C108.026 30.66 108.536 30.786 109.04 30.786C109.268 30.786 109.49 30.762 109.706 30.714C109.922 30.666 110.108 30.588 110.264 30.48C110.432 30.372 110.564 30.228 110.66 30.048C110.756 29.868 110.804 29.652 110.804 29.4C110.804 29.16 110.744 28.956 110.624 28.788C110.504 28.62 110.33 28.47 110.102 28.338C109.886 28.194 109.61 28.068 109.274 27.96C108.95 27.84 108.578 27.714 108.158 27.582C107.75 27.45 107.348 27.294 106.952 27.114C106.568 26.934 106.22 26.706 105.908 26.43C105.608 26.142 105.362 25.8 105.17 25.404C104.99 24.996 104.9 24.504 104.9 23.928C104.9 23.22 105.044 22.614 105.332 22.11C105.62 21.606 105.998 21.192 106.466 20.868C106.934 20.544 107.462 20.31 108.05 20.166C108.638 20.01 109.232 19.932 109.832 19.932C110.552 19.932 111.284 20.064 112.028 20.328C112.784 20.592 113.444 20.982 114.008 21.498L112.046 23.568ZM121.761 27.492C121.761 27.024 121.611 26.622 121.311 26.286C121.023 25.95 120.585 25.782 119.997 25.782C119.709 25.782 119.445 25.83 119.205 25.926C118.965 26.01 118.755 26.13 118.575 26.286C118.395 26.442 118.251 26.628 118.143 26.844C118.035 27.048 117.975 27.264 117.963 27.492H121.761ZM124.479 28.626C124.479 28.746 124.479 28.866 124.479 28.986C124.479 29.106 124.473 29.22 124.461 29.328H117.963C117.987 29.58 118.059 29.808 118.179 30.012C118.311 30.216 118.473 30.396 118.665 30.552C118.869 30.696 119.091 30.81 119.331 30.894C119.583 30.978 119.841 31.02 120.105 31.02C120.573 31.02 120.969 30.936 121.293 30.768C121.617 30.588 121.881 30.36 122.085 30.084L124.137 31.38C123.717 31.992 123.159 32.466 122.463 32.802C121.779 33.126 120.981 33.288 120.069 33.288C119.397 33.288 118.761 33.186 118.161 32.982C117.561 32.766 117.033 32.46 116.577 32.064C116.133 31.656 115.779 31.158 115.515 30.57C115.263 29.982 115.137 29.31 115.137 28.554C115.137 27.822 115.263 27.162 115.515 26.574C115.767 25.974 116.109 25.47 116.541 25.062C116.973 24.642 117.483 24.318 118.071 24.09C118.659 23.862 119.295 23.748 119.979 23.748C120.639 23.748 121.245 23.862 121.797 24.09C122.349 24.306 122.823 24.624 123.219 25.044C123.615 25.464 123.921 25.974 124.137 26.574C124.365 27.174 124.479 27.858 124.479 28.626ZM129.313 26.25V29.67C129.313 30.09 129.391 30.408 129.547 30.624C129.715 30.828 130.009 30.93 130.429 30.93C130.573 30.93 130.723 30.918 130.879 30.894C131.047 30.87 131.185 30.834 131.293 30.786L131.329 32.946C131.125 33.018 130.867 33.078 130.555 33.126C130.243 33.186 129.931 33.216 129.619 33.216C129.019 33.216 128.515 33.144 128.107 33C127.699 32.844 127.369 32.628 127.117 32.352C126.877 32.064 126.703 31.728 126.595 31.344C126.487 30.948 126.433 30.51 126.433 30.03V26.25H124.993V24.036H126.415V21.678H129.313V24.036H131.419V26.25H129.313ZM138.511 33V31.758H138.475C138.367 31.962 138.223 32.154 138.043 32.334C137.875 32.514 137.671 32.67 137.431 32.802C137.203 32.934 136.945 33.042 136.657 33.126C136.381 33.21 136.087 33.252 135.775 33.252C135.175 33.252 134.665 33.144 134.245 32.928C133.837 32.712 133.501 32.436 133.237 32.1C132.985 31.752 132.799 31.362 132.679 30.93C132.571 30.486 132.517 30.036 132.517 29.58V24.036H135.487V28.896C135.487 29.148 135.505 29.388 135.541 29.616C135.577 29.844 135.643 30.048 135.739 30.228C135.847 30.408 135.985 30.552 136.153 30.66C136.321 30.756 136.543 30.804 136.819 30.804C137.335 30.804 137.725 30.612 137.989 30.228C138.265 29.844 138.403 29.394 138.403 28.878V24.036H141.355V33H138.511ZM153.435 28.482C153.435 29.106 153.339 29.706 153.147 30.282C152.955 30.858 152.673 31.368 152.301 31.812C151.941 32.244 151.497 32.592 150.969 32.856C150.441 33.12 149.841 33.252 149.169 33.252C148.617 33.252 148.095 33.144 147.603 32.928C147.111 32.7 146.727 32.394 146.451 32.01H146.415V37.32H143.463V24.036H146.271V25.134H146.325C146.601 24.774 146.979 24.462 147.459 24.198C147.951 23.922 148.527 23.784 149.187 23.784C149.835 23.784 150.423 23.91 150.951 24.162C151.479 24.414 151.923 24.756 152.283 25.188C152.655 25.62 152.937 26.124 153.129 26.7C153.333 27.264 153.435 27.858 153.435 28.482ZM150.573 28.482C150.573 28.194 150.525 27.912 150.429 27.636C150.345 27.36 150.213 27.12 150.033 26.916C149.865 26.7 149.649 26.526 149.385 26.394C149.121 26.262 148.815 26.196 148.467 26.196C148.131 26.196 147.831 26.262 147.567 26.394C147.303 26.526 147.075 26.7 146.883 26.916C146.703 27.132 146.559 27.378 146.451 27.654C146.355 27.93 146.307 28.212 146.307 28.5C146.307 28.788 146.355 29.07 146.451 29.346C146.559 29.622 146.703 29.868 146.883 30.084C147.075 30.3 147.303 30.474 147.567 30.606C147.831 30.738 148.131 30.804 148.467 30.804C148.815 30.804 149.121 30.738 149.385 30.606C149.649 30.474 149.865 30.3 150.033 30.084C150.213 29.868 150.345 29.622 150.429 29.346C150.525 29.058 150.573 28.77 150.573 28.482ZM169.239 21.174C169.239 21.402 169.191 21.618 169.095 21.822C169.011 22.014 168.891 22.182 168.735 22.326C168.579 22.47 168.399 22.584 168.195 22.668C167.991 22.752 167.775 22.794 167.547 22.794C167.067 22.794 166.665 22.638 166.341 22.326C166.017 22.002 165.855 21.618 165.855 21.174C165.855 20.958 165.897 20.754 165.981 20.562C166.065 20.358 166.185 20.184 166.341 20.04C166.497 19.896 166.677 19.782 166.881 19.698C167.085 19.602 167.307 19.554 167.547 19.554C167.775 19.554 167.991 19.596 168.195 19.68C168.399 19.764 168.579 19.878 168.735 20.022C168.891 20.166 169.011 20.34 169.095 20.544C169.191 20.736 169.239 20.946 169.239 21.174ZM166.053 33V24.036H169.023V33H166.053ZM164.955 21.57C164.847 21.534 164.721 21.504 164.577 21.48C164.433 21.456 164.289 21.444 164.145 21.444C163.869 21.444 163.647 21.492 163.479 21.588C163.311 21.684 163.179 21.816 163.083 21.984C162.987 22.14 162.921 22.32 162.885 22.524C162.849 22.728 162.831 22.932 162.831 23.136V24.036H164.829V26.25H162.831V33H159.879V26.25H158.241V24.036H159.879V23.172C159.879 22.62 159.939 22.098 160.059 21.606C160.179 21.102 160.383 20.664 160.671 20.292C160.971 19.908 161.367 19.608 161.859 19.392C162.363 19.164 162.987 19.05 163.731 19.05C163.983 19.05 164.229 19.068 164.469 19.104C164.721 19.128 164.949 19.17 165.153 19.23L164.955 21.57ZM177.05 33V28.104C177.05 27.852 177.026 27.612 176.978 27.384C176.942 27.156 176.876 26.958 176.78 26.79C176.684 26.61 176.546 26.472 176.366 26.376C176.198 26.268 175.982 26.214 175.718 26.214C175.454 26.214 175.22 26.268 175.016 26.376C174.824 26.472 174.662 26.61 174.53 26.79C174.398 26.97 174.296 27.18 174.224 27.42C174.164 27.648 174.134 27.888 174.134 28.14V33H171.164V24.036H174.026V25.278H174.062C174.17 25.086 174.308 24.9 174.476 24.72C174.656 24.528 174.86 24.366 175.088 24.234C175.328 24.102 175.586 23.994 175.862 23.91C176.138 23.826 176.432 23.784 176.744 23.784C177.344 23.784 177.854 23.892 178.274 24.108C178.694 24.324 179.03 24.606 179.282 24.954C179.546 25.29 179.732 25.68 179.84 26.124C179.96 26.568 180.02 27.012 180.02 27.456V33H177.05ZM187.348 29.094H186.97C186.646 29.094 186.316 29.112 185.98 29.148C185.656 29.172 185.362 29.226 185.098 29.31C184.846 29.394 184.636 29.52 184.468 29.688C184.3 29.844 184.216 30.054 184.216 30.318C184.216 30.486 184.252 30.63 184.324 30.75C184.408 30.87 184.51 30.966 184.63 31.038C184.75 31.11 184.888 31.164 185.044 31.2C185.2 31.224 185.35 31.236 185.494 31.236C186.094 31.236 186.55 31.074 186.862 30.75C187.186 30.414 187.348 29.964 187.348 29.4V29.094ZM181.93 25.26C182.458 24.756 183.07 24.378 183.766 24.126C184.474 23.874 185.194 23.748 185.926 23.748C186.682 23.748 187.318 23.844 187.834 24.036C188.362 24.216 188.788 24.504 189.112 24.9C189.436 25.284 189.67 25.776 189.814 26.376C189.97 26.964 190.048 27.666 190.048 28.482V33H187.348V32.046H187.294C187.066 32.418 186.718 32.706 186.25 32.91C185.794 33.114 185.296 33.216 184.756 33.216C184.396 33.216 184.024 33.168 183.64 33.072C183.256 32.976 182.902 32.82 182.578 32.604C182.266 32.388 182.008 32.1 181.804 31.74C181.6 31.38 181.498 30.936 181.498 30.408C181.498 29.76 181.672 29.238 182.02 28.842C182.38 28.446 182.836 28.14 183.388 27.924C183.952 27.708 184.576 27.564 185.26 27.492C185.944 27.42 186.61 27.384 187.258 27.384V27.24C187.258 26.796 187.102 26.472 186.79 26.268C186.478 26.052 186.094 25.944 185.638 25.944C185.218 25.944 184.81 26.034 184.414 26.214C184.03 26.394 183.7 26.61 183.424 26.862L181.93 25.26ZM197.937 33V28.104C197.937 27.852 197.913 27.612 197.865 27.384C197.829 27.156 197.763 26.958 197.667 26.79C197.571 26.61 197.433 26.472 197.253 26.376C197.085 26.268 196.869 26.214 196.605 26.214C196.341 26.214 196.107 26.268 195.903 26.376C195.711 26.472 195.549 26.61 195.417 26.79C195.285 26.97 195.183 27.18 195.111 27.42C195.051 27.648 195.021 27.888 195.021 28.14V33H192.051V24.036H194.913V25.278H194.949C195.057 25.086 195.195 24.9 195.363 24.72C195.543 24.528 195.747 24.366 195.975 24.234C196.215 24.102 196.473 23.994 196.749 23.91C197.025 23.826 197.319 23.784 197.631 23.784C198.231 23.784 198.741 23.892 199.161 24.108C199.581 24.324 199.917 24.606 200.169 24.954C200.433 25.29 200.619 25.68 200.727 26.124C200.847 26.568 200.907 27.012 200.907 27.456V33H197.937ZM209.117 26.934C208.949 26.718 208.721 26.544 208.433 26.412C208.145 26.28 207.851 26.214 207.551 26.214C207.239 26.214 206.957 26.28 206.705 26.412C206.453 26.532 206.237 26.7 206.057 26.916C205.877 27.12 205.733 27.36 205.625 27.636C205.529 27.912 205.481 28.206 205.481 28.518C205.481 28.83 205.529 29.124 205.625 29.4C205.721 29.676 205.859 29.922 206.039 30.138C206.231 30.342 206.453 30.504 206.705 30.624C206.969 30.744 207.263 30.804 207.587 30.804C207.887 30.804 208.181 30.75 208.469 30.642C208.769 30.522 209.009 30.354 209.189 30.138L210.827 32.136C210.455 32.496 209.975 32.778 209.387 32.982C208.799 33.186 208.175 33.288 207.515 33.288C206.807 33.288 206.147 33.18 205.535 32.964C204.923 32.748 204.389 32.436 203.933 32.028C203.489 31.608 203.135 31.104 202.871 30.516C202.619 29.928 202.493 29.262 202.493 28.518C202.493 27.786 202.619 27.126 202.871 26.538C203.135 25.95 203.489 25.452 203.933 25.044C204.389 24.624 204.923 24.306 205.535 24.09C206.147 23.862 206.801 23.748 207.497 23.748C207.821 23.748 208.139 23.778 208.451 23.838C208.775 23.898 209.081 23.982 209.369 24.09C209.669 24.186 209.939 24.312 210.179 24.468C210.431 24.612 210.647 24.774 210.827 24.954L209.117 26.934ZM215 21.174C215 21.402 214.952 21.618 214.856 21.822C214.772 22.014 214.652 22.182 214.496 22.326C214.352 22.47 214.172 22.584 213.956 22.668C213.752 22.752 213.536 22.794 213.308 22.794C212.828 22.794 212.426 22.638 212.102 22.326C211.778 22.002 211.616 21.618 211.616 21.174C211.616 20.958 211.658 20.754 211.742 20.562C211.826 20.358 211.946 20.184 212.102 20.04C212.258 19.896 212.438 19.782 212.642 19.698C212.846 19.602 213.068 19.554 213.308 19.554C213.536 19.554 213.752 19.596 213.956 19.68C214.172 19.764 214.352 19.878 214.496 20.022C214.652 20.166 214.772 20.34 214.856 20.544C214.952 20.736 215 20.946 215 21.174ZM211.832 33V24.036H214.784V33H211.832ZM222.808 33V28.104C222.808 27.852 222.784 27.612 222.736 27.384C222.7 27.156 222.634 26.958 222.538 26.79C222.442 26.61 222.304 26.472 222.124 26.376C221.956 26.268 221.74 26.214 221.476 26.214C221.212 26.214 220.978 26.268 220.774 26.376C220.582 26.472 220.42 26.61 220.288 26.79C220.156 26.97 220.054 27.18 219.982 27.42C219.922 27.648 219.892 27.888 219.892 28.14V33H216.922V24.036H219.784V25.278H219.82C219.928 25.086 220.066 24.9 220.234 24.72C220.414 24.528 220.618 24.366 220.846 24.234C221.086 24.102 221.344 23.994 221.62 23.91C221.896 23.826 222.19 23.784 222.502 23.784C223.102 23.784 223.612 23.892 224.032 24.108C224.452 24.324 224.788 24.606 225.04 24.954C225.304 25.29 225.49 25.68 225.598 26.124C225.718 26.568 225.778 27.012 225.778 27.456V33H222.808ZM237.318 32.154C237.318 33.03 237.192 33.792 236.94 34.44C236.688 35.088 236.334 35.622 235.878 36.042C235.422 36.474 234.864 36.792 234.204 36.996C233.556 37.212 232.836 37.32 232.044 37.32C231.252 37.32 230.436 37.2 229.596 36.96C228.768 36.72 228.048 36.372 227.436 35.916L228.912 33.81C229.344 34.194 229.818 34.476 230.334 34.656C230.862 34.848 231.378 34.944 231.882 34.944C232.746 34.944 233.382 34.716 233.79 34.26C234.21 33.804 234.42 33.198 234.42 32.442V31.902H234.366C234.09 32.262 233.718 32.55 233.25 32.766C232.782 32.982 232.248 33.09 231.648 33.09C230.964 33.09 230.358 32.97 229.83 32.73C229.302 32.478 228.852 32.142 228.48 31.722C228.12 31.302 227.844 30.816 227.652 30.264C227.46 29.7 227.364 29.106 227.364 28.482C227.364 27.858 227.46 27.264 227.652 26.7C227.844 26.136 228.12 25.638 228.48 25.206C228.852 24.774 229.302 24.432 229.83 24.18C230.358 23.916 230.958 23.784 231.63 23.784C232.194 23.784 232.734 23.898 233.25 24.126C233.766 24.354 234.18 24.708 234.492 25.188H234.528V24.036H237.318V32.154ZM234.51 28.464C234.51 28.164 234.456 27.876 234.348 27.6C234.252 27.324 234.108 27.084 233.916 26.88C233.724 26.664 233.496 26.496 233.232 26.376C232.968 26.256 232.668 26.196 232.332 26.196C231.996 26.196 231.696 26.256 231.432 26.376C231.18 26.496 230.964 26.658 230.784 26.862C230.604 27.066 230.466 27.306 230.37 27.582C230.274 27.858 230.226 28.152 230.226 28.464C230.226 28.764 230.274 29.052 230.37 29.328C230.466 29.604 230.604 29.85 230.784 30.066C230.964 30.27 231.18 30.438 231.432 30.57C231.696 30.69 231.996 30.75 232.332 30.75C232.668 30.75 232.968 30.69 233.232 30.57C233.508 30.438 233.736 30.27 233.916 30.066C234.108 29.862 234.252 29.622 234.348 29.346C234.456 29.07 234.51 28.776 234.51 28.464ZM249.575 26.448C249.443 26.412 249.311 26.388 249.179 26.376C249.059 26.364 248.939 26.358 248.819 26.358C248.423 26.358 248.087 26.43 247.811 26.574C247.547 26.718 247.331 26.892 247.163 27.096C247.007 27.3 246.893 27.522 246.821 27.762C246.749 28.002 246.713 28.212 246.713 28.392V33H243.761V24.036H246.605V25.332H246.641C246.869 24.876 247.193 24.504 247.613 24.216C248.033 23.928 248.519 23.784 249.071 23.784C249.191 23.784 249.305 23.79 249.413 23.802C249.533 23.814 249.629 23.832 249.701 23.856L249.575 26.448ZM256.556 27.492C256.556 27.024 256.406 26.622 256.106 26.286C255.818 25.95 255.38 25.782 254.792 25.782C254.504 25.782 254.24 25.83 254 25.926C253.76 26.01 253.55 26.13 253.37 26.286C253.19 26.442 253.046 26.628 252.938 26.844C252.83 27.048 252.77 27.264 252.758 27.492H256.556ZM259.274 28.626C259.274 28.746 259.274 28.866 259.274 28.986C259.274 29.106 259.268 29.22 259.256 29.328H252.758C252.782 29.58 252.854 29.808 252.974 30.012C253.106 30.216 253.268 30.396 253.46 30.552C253.664 30.696 253.886 30.81 254.126 30.894C254.378 30.978 254.636 31.02 254.9 31.02C255.368 31.02 255.764 30.936 256.088 30.768C256.412 30.588 256.676 30.36 256.88 30.084L258.932 31.38C258.512 31.992 257.954 32.466 257.258 32.802C256.574 33.126 255.776 33.288 254.864 33.288C254.192 33.288 253.556 33.186 252.956 32.982C252.356 32.766 251.828 32.46 251.372 32.064C250.928 31.656 250.574 31.158 250.31 30.57C250.058 29.982 249.932 29.31 249.932 28.554C249.932 27.822 250.058 27.162 250.31 26.574C250.562 25.974 250.904 25.47 251.336 25.062C251.768 24.642 252.278 24.318 252.866 24.09C253.454 23.862 254.09 23.748 254.774 23.748C255.434 23.748 256.04 23.862 256.592 24.09C257.144 24.306 257.618 24.624 258.014 25.044C258.41 25.464 258.716 25.974 258.932 26.574C259.16 27.174 259.274 27.858 259.274 28.626ZM267.474 37.32V32.01H267.438C267.15 32.394 266.76 32.7 266.268 32.928C265.788 33.144 265.272 33.252 264.72 33.252C264.036 33.252 263.43 33.12 262.902 32.856C262.374 32.592 261.93 32.244 261.57 31.812C261.21 31.368 260.934 30.858 260.742 30.282C260.55 29.706 260.454 29.106 260.454 28.482C260.454 27.858 260.55 27.264 260.742 26.7C260.946 26.124 261.228 25.62 261.588 25.188C261.96 24.756 262.404 24.414 262.92 24.162C263.448 23.91 264.036 23.784 264.684 23.784C265.356 23.784 265.932 23.922 266.412 24.198C266.904 24.462 267.288 24.774 267.564 25.134H267.618V24.036H270.408V37.32H267.474ZM267.582 28.5C267.582 28.212 267.528 27.93 267.42 27.654C267.324 27.378 267.18 27.132 266.988 26.916C266.808 26.7 266.586 26.526 266.322 26.394C266.058 26.262 265.758 26.196 265.422 26.196C265.074 26.196 264.768 26.262 264.504 26.394C264.24 26.526 264.018 26.7 263.838 26.916C263.658 27.12 263.52 27.36 263.424 27.636C263.34 27.912 263.298 28.194 263.298 28.482C263.298 28.77 263.34 29.058 263.424 29.346C263.52 29.622 263.658 29.868 263.838 30.084C264.018 30.3 264.24 30.474 264.504 30.606C264.768 30.738 265.074 30.804 265.422 30.804C265.758 30.804 266.058 30.738 266.322 30.606C266.586 30.474 266.808 30.3 266.988 30.084C267.18 29.868 267.324 29.622 267.42 29.346C267.528 29.07 267.582 28.788 267.582 28.5ZM278.438 33V31.758H278.402C278.294 31.962 278.15 32.154 277.97 32.334C277.802 32.514 277.598 32.67 277.358 32.802C277.13 32.934 276.872 33.042 276.584 33.126C276.308 33.21 276.014 33.252 275.702 33.252C275.102 33.252 274.592 33.144 274.172 32.928C273.764 32.712 273.428 32.436 273.164 32.1C272.912 31.752 272.726 31.362 272.606 30.93C272.498 30.486 272.444 30.036 272.444 29.58V24.036H275.414V28.896C275.414 29.148 275.432 29.388 275.468 29.616C275.504 29.844 275.57 30.048 275.666 30.228C275.774 30.408 275.912 30.552 276.08 30.66C276.248 30.756 276.47 30.804 276.746 30.804C277.262 30.804 277.652 30.612 277.916 30.228C278.192 29.844 278.33 29.394 278.33 28.878V24.036H281.282V33H278.438ZM289.565 27.492C289.565 27.024 289.415 26.622 289.115 26.286C288.827 25.95 288.389 25.782 287.801 25.782C287.513 25.782 287.249 25.83 287.009 25.926C286.769 26.01 286.559 26.13 286.379 26.286C286.199 26.442 286.055 26.628 285.947 26.844C285.839 27.048 285.779 27.264 285.767 27.492H289.565ZM292.283 28.626C292.283 28.746 292.283 28.866 292.283 28.986C292.283 29.106 292.277 29.22 292.265 29.328H285.767C285.791 29.58 285.863 29.808 285.983 30.012C286.115 30.216 286.277 30.396 286.469 30.552C286.673 30.696 286.895 30.81 287.135 30.894C287.387 30.978 287.645 31.02 287.909 31.02C288.377 31.02 288.773 30.936 289.097 30.768C289.421 30.588 289.685 30.36 289.889 30.084L291.941 31.38C291.521 31.992 290.963 32.466 290.267 32.802C289.583 33.126 288.785 33.288 287.873 33.288C287.201 33.288 286.565 33.186 285.965 32.982C285.365 32.766 284.837 32.46 284.381 32.064C283.937 31.656 283.583 31.158 283.319 30.57C283.067 29.982 282.941 29.31 282.941 28.554C282.941 27.822 283.067 27.162 283.319 26.574C283.571 25.974 283.913 25.47 284.345 25.062C284.777 24.642 285.287 24.318 285.875 24.09C286.463 23.862 287.099 23.748 287.783 23.748C288.443 23.748 289.049 23.862 289.601 24.09C290.153 24.306 290.627 24.624 291.023 25.044C291.419 25.464 291.725 25.974 291.941 26.574C292.169 27.174 292.283 27.858 292.283 28.626ZM299.188 26.682C298.948 26.454 298.666 26.262 298.342 26.106C298.018 25.95 297.676 25.872 297.316 25.872C297.04 25.872 296.782 25.926 296.542 26.034C296.314 26.142 296.2 26.328 296.2 26.592C296.2 26.844 296.326 27.024 296.578 27.132C296.842 27.24 297.262 27.36 297.838 27.492C298.174 27.564 298.51 27.666 298.846 27.798C299.194 27.93 299.506 28.104 299.782 28.32C300.058 28.536 300.28 28.8 300.448 29.112C300.616 29.424 300.7 29.796 300.7 30.228C300.7 30.792 300.586 31.272 300.358 31.668C300.13 32.052 299.83 32.364 299.458 32.604C299.098 32.844 298.69 33.018 298.234 33.126C297.778 33.234 297.322 33.288 296.866 33.288C296.134 33.288 295.414 33.174 294.706 32.946C294.01 32.706 293.428 32.358 292.96 31.902L294.616 30.156C294.88 30.444 295.204 30.684 295.588 30.876C295.972 31.068 296.38 31.164 296.812 31.164C297.052 31.164 297.286 31.11 297.514 31.002C297.754 30.882 297.874 30.678 297.874 30.39C297.874 30.114 297.73 29.91 297.442 29.778C297.154 29.646 296.704 29.508 296.092 29.364C295.78 29.292 295.468 29.196 295.156 29.076C294.844 28.956 294.562 28.794 294.31 28.59C294.07 28.386 293.872 28.134 293.716 27.834C293.56 27.534 293.482 27.174 293.482 26.754C293.482 26.214 293.596 25.758 293.824 25.386C294.052 25.002 294.346 24.69 294.706 24.45C295.066 24.21 295.462 24.036 295.894 23.928C296.338 23.808 296.776 23.748 297.208 23.748C297.88 23.748 298.534 23.856 299.17 24.072C299.818 24.276 300.364 24.588 300.808 25.008L299.188 26.682ZM305.408 26.25V29.67C305.408 30.09 305.486 30.408 305.642 30.624C305.81 30.828 306.104 30.93 306.524 30.93C306.668 30.93 306.818 30.918 306.974 30.894C307.142 30.87 307.28 30.834 307.388 30.786L307.424 32.946C307.22 33.018 306.962 33.078 306.65 33.126C306.338 33.186 306.026 33.216 305.714 33.216C305.114 33.216 304.61 33.144 304.202 33C303.794 32.844 303.464 32.628 303.212 32.352C302.972 32.064 302.798 31.728 302.69 31.344C302.582 30.948 302.528 30.51 302.528 30.03V26.25H301.088V24.036H302.51V21.678H305.408V24.036H307.514V26.25H305.408Z" fill="white"/>
<mask id="mask0_226:515" style="mask-type:alpha" maskUnits="userSpaceOnUse" x="65" y="23" width="31" height="17">
<path fill-rule="evenodd" clip-rule="evenodd" d="M65 23.6411H95.515V39.4838H65V23.6411Z" fill="white"/>
</mask>
<g mask="url(#mask0_226:515)">
<path fill-rule="evenodd" clip-rule="evenodd" d="M74.058 33.227L70.849 30.017C72.719 27.932 74.061 27.462 75.453 27.462C77.085 27.462 77.863 27.621 79.255 28.555L79.491 28.713H83.093C83.561 28.713 84.097 28.902 84.331 29.671H78.402V31.542H86.321V30.607C86.321 30.076 86.239 29.637 86.126 29.238C86.852 28.69 88.808 27.212 90.233 26.143C91.167 25.443 91.942 25.328 92.751 25.807L84.872 33.227H74.058ZM95.515 25.775L94.833 25.093C92.595 22.856 90.484 23.615 89.11 24.645C87.783 25.641 85.993 26.993 85.165 27.619C84.506 27.043 83.696 26.842 83.093 26.842H80.055C78.401 25.783 77.227 25.591 75.453 25.591C73.291 25.591 71.481 26.537 69.523 28.691L68.28 27.448L65 30.728L66.324 32.052L68.28 30.096L74.388 36.205L72.432 38.16L73.757 39.484L77.035 36.205L75.929 35.098H85.614L95.515 25.775Z" fill="#FEFEFE"/>
</g>
<mask id="mask1_226:515" style="mask-type:alpha" maskUnits="userSpaceOnUse" x="75" y="12" width="14" height="13">
<path fill-rule="evenodd" clip-rule="evenodd" d="M75.9395 12H88.9275V24.9882H75.9395V12Z" fill="white"/>
</mask>
<g mask="url(#mask1_226:515)">
<path fill-rule="evenodd" clip-rule="evenodd" d="M82.4335 15.269C84.2115 15.269 85.6585 16.715 85.6585 18.494C85.6585 20.272 84.2115 21.718 82.4335 21.718C80.6555 21.718 79.2085 20.272 79.2085 18.494C79.2085 16.715 80.6555 15.269 82.4335 15.269ZM77.8945 21.472L77.0615 22.305L78.6215 23.866L79.4545 23.033C80.0165 23.403 80.6495 23.673 81.3295 23.814V24.988H83.5375V23.814C84.2175 23.673 84.8505 23.403 85.4125 23.033L86.2455 23.866L87.8055 22.305L86.9725 21.472C87.3425 20.911 87.6125 20.278 87.7535 19.598H88.9275V17.389H87.7535C87.6125 16.709 87.3425 16.077 86.9725 15.515L87.8055 14.682L86.2455 13.122L85.4125 13.954C84.8505 13.585 84.2175 13.314 83.5375 13.173V11.999H81.3295V13.173C80.6495 13.314 80.0165 13.585 79.4545 13.954L78.6215 13.122L77.0615 14.682L77.8945 15.515C77.5245 16.077 77.2545 16.709 77.1135 17.389H75.9395V19.598H77.1135C77.2545 20.278 77.5245 20.911 77.8945 21.472Z" fill="#FEFEFE"/>
</g>
</svg>
