<svg width="731" height="54" viewBox="0 0 731 54" fill="none" xmlns="http://www.w3.org/2000/svg">
<rect width="731" height="53" fill="#242424"/>
<mask id="mask0_207:496" style="mask-type:alpha" maskUnits="userSpaceOnUse" x="0" y="0" width="262" height="6">
<path fill-rule="evenodd" clip-rule="evenodd" d="M0.582031 0.169922H261.495V5.10422H0.582031V0.169922Z" fill="white"/>
</mask>
<g mask="url(#mask0_207:496)">
<path fill-rule="evenodd" clip-rule="evenodd" d="M255.848 -9.9759C238.503 -8.9459 219.009 -13.8589 198.488 -19.0309C172.846 -25.4919 146.329 -32.1749 119.369 -29.0809C92.4575 -25.9819 67.1805 -16.6199 44.8785 -8.3589C26.4665 -1.5379 10.5615 4.3531 -2.02848 5.1001C-2.04748 5.1011 -2.06548 5.1031 -2.08448 5.1041L-2.14648 4.0551C-2.12848 4.0541 -2.10848 4.0521 -2.09048 4.0511C10.3765 3.3121 26.2265 -2.5589 44.5765 -9.3569C66.9235 -17.6339 92.2505 -27.0159 119.261 -30.1259C146.37 -33.2359 172.964 -26.5359 198.678 -20.0559C221.375 -14.3349 242.816 -8.9379 261.366 -11.5809L261.496 -10.5389C259.641 -10.2739 257.757 -10.0889 255.848 -9.9759Z" fill="#00B0C7"/>
</g>
<mask id="mask1_207:496" style="mask-type:alpha" maskUnits="userSpaceOnUse" x="0" y="0" width="248" height="16">
<path fill-rule="evenodd" clip-rule="evenodd" d="M0.582031 0.169922H247.208V15.8977H0.582031V0.169922Z" fill="white"/>
</mask>
<g mask="url(#mask1_207:496)">
<path fill-rule="evenodd" clip-rule="evenodd" d="M241.562 0.818653C224.219 1.84865 204.724 -3.06535 184.203 -8.23635C158.561 -14.6973 132.045 -21.3823 105.083 -18.2873C78.1723 -15.1893 52.8943 -5.82535 30.5913 2.43565C12.1793 9.25565 -3.72766 15.1477 -16.3167 15.8947C-16.3347 15.8957 -16.3507 15.8967 -16.3697 15.8977L-16.4307 14.8487C-16.4137 14.8477 -16.3957 14.8467 -16.3787 14.8457C-3.91166 14.1067 11.9393 8.23465 30.2893 1.43765C52.6363 -6.84035 77.9653 -16.2223 104.975 -19.3323C132.088 -22.4373 158.679 -15.7413 184.394 -9.26135C207.091 -3.54135 228.529 1.85965 247.078 -0.786348L247.208 0.255653C245.353 0.519653 243.47 0.705652 241.562 0.818653Z" fill="#00B0C7"/>
</g>
<mask id="mask2_207:496" style="mask-type:alpha" maskUnits="userSpaceOnUse" x="0" y="0" width="233" height="27">
<path fill-rule="evenodd" clip-rule="evenodd" d="M0.582031 0.169922H232.926V26.6901H0.582031V0.169922Z" fill="white"/>
</mask>
<g mask="url(#mask2_207:496)">
<path fill-rule="evenodd" clip-rule="evenodd" d="M227.278 11.611C209.934 12.641 190.44 7.72799 169.918 2.55599C144.276 -3.906 117.763 -10.591 90.7992 -7.496C63.8892 -4.395 38.6122 4.967 16.3102 13.228C-2.10284 20.048 -18.0108 25.94 -30.6008 26.687C-30.6188 26.688 -30.6348 26.689 -30.6538 26.69L-30.7148 25.641C-30.6978 25.64 -30.6798 25.639 -30.6628 25.638C-18.1958 24.898 -2.34384 19.027 16.0082 12.229C38.3542 3.95199 63.6822 -5.429 90.6912 -8.541C117.806 -11.654 144.394 -4.949 170.108 1.531C192.807 7.252 214.252 12.651 232.796 10.006L232.926 11.047C231.071 11.312 229.186 11.497 227.278 11.611Z" fill="#00B0C7"/>
</g>
<mask id="mask3_207:496" style="mask-type:alpha" maskUnits="userSpaceOnUse" x="0" y="1" width="219" height="37">
<path fill-rule="evenodd" clip-rule="evenodd" d="M0.582031 1.46875H218.639V37.4838H0.582031V1.46875Z" fill="white"/>
</mask>
<g mask="url(#mask3_207:496)">
<path fill-rule="evenodd" clip-rule="evenodd" d="M212.994 22.4038C195.652 23.4338 176.157 18.5208 155.636 13.3498C129.994 6.88783 103.485 0.203832 76.514 3.29783C49.606 6.39783 24.33 15.7598 2.029 24.0208C-16.385 30.8408 -32.292 36.7328 -44.882 37.4798C-44.901 37.4818 -44.92 37.4828 -44.939 37.4838L-45 36.4348C-44.982 36.4338 -44.963 36.4328 -44.944 36.4308C-32.477 35.6918 -16.625 29.8198 1.727 23.0228C24.072 14.7458 49.399 5.36483 76.407 2.25283C103.514 -0.854168 130.111 5.84383 155.827 12.3248C178.523 18.0438 199.961 23.4458 218.509 20.7988L218.639 21.8408C216.785 22.1058 214.902 22.2908 212.994 22.4038Z" fill="#00B0C7"/>
</g>
<mask id="mask4_207:496" style="mask-type:alpha" maskUnits="userSpaceOnUse" x="0" y="10" width="235" height="37">
<path fill-rule="evenodd" clip-rule="evenodd" d="M0.582031 10.4971H234.102V46.5104H0.582031V10.4971Z" fill="white"/>
</mask>
<g mask="url(#mask4_207:496)">
<path fill-rule="evenodd" clip-rule="evenodd" d="M228.453 31.4314C211.109 32.4604 191.614 27.5484 171.094 22.3764C145.452 15.9154 118.94 9.23245 91.9749 12.3254C65.0659 15.4244 39.7899 24.7874 17.4889 33.0484C-0.923063 39.8684 -16.8301 45.7594 -29.4191 46.5064C-29.4391 46.5084 -29.4581 46.5094 -29.4781 46.5104L-29.5391 45.4614C-29.5201 45.4604 -29.5001 45.4594 -29.4811 45.4574C-17.0151 44.7184 -1.16306 38.8474 17.1869 32.0494C39.5329 23.7724 64.8589 14.3914 91.8679 11.2804C118.979 8.17545 145.57 14.8714 171.284 21.3514C193.982 27.0724 215.423 32.4704 233.972 29.8264L234.102 30.8674C232.246 31.1324 230.363 31.3184 228.453 31.4314Z" fill="#00B0C7"/>
</g>
<mask id="mask5_207:496" style="mask-type:alpha" maskUnits="userSpaceOnUse" x="0" y="19" width="250" height="35">
<path fill-rule="evenodd" clip-rule="evenodd" d="M0.582031 19.5239H249.56V53.17H0.582031V19.5239Z" fill="white"/>
</mask>
<g mask="url(#mask5_207:496)">
<path fill-rule="evenodd" clip-rule="evenodd" d="M243.91 40.4574C226.568 41.4874 207.075 36.5744 186.555 31.4034C160.914 24.9404 134.399 18.2554 107.436 21.3524C80.5279 24.4514 55.2509 33.8144 32.9509 42.0744C14.5379 48.8944 -1.3691 54.7864 -13.9591 55.5334C-13.9791 55.5344 -13.9981 55.5354 -14.0171 55.5364L-14.0791 54.4874C-14.0601 54.4864 -14.0401 54.4854 -14.0211 54.4844C-1.5541 53.7444 14.2979 47.8734 32.6489 41.0754C54.9939 32.7994 80.3209 23.4184 107.328 20.3074C134.432 17.2024 161.031 23.8974 186.746 30.3784C209.444 36.0984 230.884 41.4954 249.43 38.8524L249.56 39.8934C247.704 40.1594 245.82 40.3444 243.91 40.4574Z" fill="#00B0C7"/>
</g>
<mask id="mask6_207:496" style="mask-type:alpha" maskUnits="userSpaceOnUse" x="1" y="28" width="265" height="26">
<path fill-rule="evenodd" clip-rule="evenodd" d="M1.38184 28.5488H265.024V53.1698H1.38184V28.5488Z" fill="white"/>
</mask>
<g mask="url(#mask6_207:496)">
<path fill-rule="evenodd" clip-rule="evenodd" d="M259.376 49.487C242.031 50.517 222.536 45.603 202.013 40.432C176.373 33.97 149.854 27.287 122.897 30.381C95.9848 33.479 70.7058 42.843 48.4028 51.104C29.9918 57.924 14.0858 63.816 1.49684 64.563C1.47784 64.564 1.46184 64.565 1.44284 64.566L1.38184 63.517C1.39984 63.516 1.41684 63.515 1.43484 63.514C13.9008 62.775 29.7518 56.904 48.1008 50.106C70.4488 41.828 95.7768 32.446 122.789 29.335C149.903 26.222 176.491 32.927 202.204 39.407C224.903 45.127 246.341 50.53 264.894 47.882L265.024 48.924C263.169 49.188 261.285 49.373 259.376 49.487Z" fill="#00B0C7"/>
</g>
<mask id="mask7_207:496" style="mask-type:alpha" maskUnits="userSpaceOnUse" x="232" y="0" width="265" height="12">
<path fill-rule="evenodd" clip-rule="evenodd" d="M232.673 0.169922H496.361V11.0603H232.673V0.169922Z" fill="white"/>
</mask>
<g mask="url(#mask7_207:496)">
<path fill-rule="evenodd" clip-rule="evenodd" d="M490.713 -4.02185C473.367 -2.99185 453.863 -7.90485 433.331 -13.0759C407.677 -19.5359 381.147 -26.2189 354.187 -23.1259C327.277 -20.0249 302 -10.6629 279.698 -2.40285C261.285 4.41715 245.377 10.3101 232.788 11.0571C232.769 11.0581 232.753 11.0591 232.734 11.0601L232.673 10.0111C232.691 10.0101 232.708 10.0091 232.726 10.0081C245.192 9.26815 261.045 3.39614 279.396 -3.40085C301.742 -11.6779 327.07 -21.0589 354.079 -24.1709C381.193 -27.2769 407.795 -20.5799 433.521 -14.1009C456.23 -8.38186 477.674 -2.98285 496.232 -5.62685L496.361 -4.58585C494.506 -4.32085 492.622 -4.13585 490.713 -4.02185Z" fill="#00B0C7"/>
</g>
<mask id="mask8_207:496" style="mask-type:alpha" maskUnits="userSpaceOnUse" x="218" y="0" width="265" height="22">
<path fill-rule="evenodd" clip-rule="evenodd" d="M218.389 0.169922H482.075V21.8538H218.389V0.169922Z" fill="white"/>
</mask>
<g mask="url(#mask8_207:496)">
<path fill-rule="evenodd" clip-rule="evenodd" d="M476.429 6.77079C459.085 7.80079 439.581 2.88779 419.05 -2.28221C393.395 -8.74321 366.87 -15.4262 339.903 -12.3322C312.995 -9.23221 287.719 0.129787 265.418 8.39079C247.004 15.2108 231.097 21.1028 218.507 21.8498C218.487 21.8518 218.469 21.8528 218.45 21.8538L218.389 20.8048C218.407 20.8038 218.426 20.8018 218.445 20.8008C230.912 20.0618 246.764 14.1888 265.116 7.39279C287.461 -0.884214 312.788 -10.2652 339.796 -13.3772C366.91 -16.4892 393.513 -9.78621 419.241 -3.30721C441.949 2.41179 463.396 7.81479 481.946 5.16679L482.075 6.20779C480.221 6.47279 478.337 6.65779 476.429 6.77079Z" fill="#00B0C7"/>
</g>
<mask id="mask9_207:496" style="mask-type:alpha" maskUnits="userSpaceOnUse" x="233" y="0" width="265" height="31">
<path fill-rule="evenodd" clip-rule="evenodd" d="M233.849 0.169922H497.537V30.8806H233.849V0.169922Z" fill="white"/>
</mask>
<g mask="url(#mask9_207:496)">
<path fill-rule="evenodd" clip-rule="evenodd" d="M491.888 15.7986C474.542 16.8276 455.037 11.9156 434.507 6.7446C408.853 0.283602 382.331 -6.3954 355.363 -3.3044C328.454 -0.205398 303.178 9.1576 280.877 17.4186C262.465 24.2376 246.558 30.1296 233.969 30.8766C233.949 30.8786 233.93 30.8796 233.91 30.8806L233.849 29.8316C233.868 29.8306 233.887 29.8296 233.906 29.8276C246.373 29.0886 262.225 23.2166 280.575 16.4196C302.92 8.1426 328.247 -1.2384 355.255 -4.3494C382.368 -7.4584 408.97 -0.759398 434.697 5.7206C457.407 11.4406 478.851 16.8426 497.407 14.1936L497.537 15.2346C495.681 15.4996 493.797 15.6856 491.888 15.7986Z" fill="#00B0C7"/>
</g>
<path fill-rule="evenodd" clip-rule="evenodd" d="M506.365 24.9246C489.068 25.9531 469.621 21.0442 449.15 15.8765C423.562 9.4163 397.106 2.73821 370.198 5.82986C343.36 8.92852 318.15 18.2864 295.907 26.5429C277.543 33.3599 261.677 39.2493 249.119 39.996C249.099 39.997 249.081 39.998 249.061 40L249 38.9515C249.019 38.9495 249.038 38.9485 249.057 38.9475C261.491 38.2078 277.302 32.3393 295.605 25.5453C317.892 17.2719 343.153 7.89497 370.09 4.78632C397.149 1.67367 423.679 8.37476 449.339 14.8519C471.984 20.5675 493.375 25.9621 511.87 23.3193L512 24.3608C510.149 24.6257 508.269 24.8116 506.365 24.9246Z" fill="#00B0C7"/>
<path fill-rule="evenodd" clip-rule="evenodd" d="M522.368 33.9239C505.07 34.9534 485.629 30.0447 465.162 24.8771C439.576 18.417 413.112 11.7381 386.197 14.8297C359.356 17.9272 334.143 27.286 311.898 35.5442C293.535 42.36 277.671 48.2503 265.115 48.997C265.096 48.998 265.08 48.999 265.062 49L265 47.9515C265.018 47.9505 265.035 47.9495 265.053 47.9485C277.486 47.2088 293.296 41.3395 311.597 34.5466C333.887 26.2724 359.149 16.8937 386.09 13.7851C413.157 10.6756 439.692 17.3745 465.352 23.8525C487.989 29.5679 509.369 34.9654 527.871 32.3196L528 33.3612C526.151 33.626 524.27 33.811 522.368 33.9239Z" fill="#00B0C7"/>
<mask id="mask10_207:496" style="mask-type:alpha" maskUnits="userSpaceOnUse" x="249" y="23" width="265" height="31">
<path fill-rule="evenodd" clip-rule="evenodd" d="M249.485 23.7139H513.171V53.1699H249.485V23.7139Z" fill="white"/>
</mask>
<g mask="url(#mask10_207:496)">
<path fill-rule="evenodd" clip-rule="evenodd" d="M507.526 44.6473C490.183 45.6773 470.683 40.7643 450.158 35.5943C424.503 29.1323 397.971 22.4503 370.999 25.5433C344.091 28.6433 318.814 38.0053 296.513 46.2663C278.099 53.0873 262.192 58.9793 249.602 59.7263C249.583 59.7273 249.565 59.7283 249.546 59.7303L249.485 58.6813C249.503 58.6793 249.522 58.6783 249.539 58.6773C262.007 57.9383 277.859 52.0653 296.211 45.2683C318.557 36.9913 343.883 27.6093 370.891 24.4983C398.017 21.3903 424.621 28.0893 450.348 34.5693C473.05 40.2893 494.49 45.6893 513.042 43.0423L513.171 44.0843C511.317 44.3493 509.434 44.5343 507.526 44.6473Z" fill="#00B0C7"/>
</g>
<mask id="mask11_207:496" style="mask-type:alpha" maskUnits="userSpaceOnUse" x="235" y="34" width="264" height="20">
<path fill-rule="evenodd" clip-rule="evenodd" d="M235.201 34.5073H498.889V53.1702H235.201V34.5073Z" fill="white"/>
</mask>
<g mask="url(#mask11_207:496)">
<path fill-rule="evenodd" clip-rule="evenodd" d="M493.241 55.4381C475.896 56.4681 456.392 51.5551 435.861 46.3851C410.206 39.9251 383.682 33.2451 356.715 36.3361C329.806 39.4351 304.53 48.7981 282.229 57.0581C263.817 63.8781 247.91 69.7701 235.321 70.5171C235.301 70.5181 235.282 70.5191 235.262 70.5201L235.201 69.4711C247.684 68.7901 263.549 62.8671 281.927 56.0601C304.272 47.7831 329.599 38.4021 356.607 35.2911C383.715 32.1851 410.324 38.8811 436.051 45.3601C458.759 51.0781 480.206 56.4781 498.76 53.8331L498.889 54.8751C497.034 55.1391 495.149 55.3241 493.241 55.4381Z" fill="#00B0C7"/>
</g>
<mask id="mask12_207:496" style="mask-type:alpha" maskUnits="userSpaceOnUse" x="480" y="0" width="251" height="7">
<path fill-rule="evenodd" clip-rule="evenodd" d="M480.823 0.169922H730.583V6.22092H480.823V0.169922Z" fill="white"/>
</mask>
<g mask="url(#mask12_207:496)">
<path fill-rule="evenodd" clip-rule="evenodd" d="M738.817 -8.85909C721.475 -7.82909 701.98 -12.7421 681.459 -17.9131C655.816 -24.3751 629.296 -31.0561 602.337 -27.9651C575.429 -24.8651 550.153 -15.5031 527.853 -7.24209C509.438 -0.422087 493.531 5.46991 480.941 6.21691C480.922 6.21891 480.904 6.21991 480.884 6.22091L480.823 5.17191C480.841 5.17091 480.86 5.16991 480.879 5.16791C493.346 4.42891 509.198 -1.44309 527.55 -8.24009C549.895 -16.5171 575.222 -25.8981 602.229 -29.0101C629.342 -32.1151 655.935 -25.4191 681.649 -18.9381C704.346 -13.2181 725.785 -7.81409 744.333 -10.4631L744.462 -9.42209C742.608 -9.15709 740.725 -8.97209 738.817 -8.85909Z" fill="#00B0C7"/>
</g>
<mask id="mask13_207:496" style="mask-type:alpha" maskUnits="userSpaceOnUse" x="496" y="0" width="235" height="16">
<path fill-rule="evenodd" clip-rule="evenodd" d="M496.284 0.169922H730.583V15.2478H496.284V0.169922Z" fill="white"/>
</mask>
<g mask="url(#mask13_207:496)">
<path fill-rule="evenodd" clip-rule="evenodd" d="M754.276 0.169031C736.933 1.19803 717.438 -3.71397 696.917 -8.88597C671.275 -15.347 644.758 -22.032 617.797 -18.937C590.889 -15.838 565.612 -6.47497 543.312 1.78603C524.9 8.60603 508.994 14.497 496.403 15.244C496.383 15.246 496.364 15.247 496.344 15.248L496.284 14.199C496.303 14.198 496.322 14.197 496.341 14.195C508.808 13.456 524.66 7.58503 543.01 0.787031C565.355 -7.48997 590.682 -16.871 617.69 -19.982C644.8 -23.088 671.393 -16.39 697.107 -9.91097C719.806 -4.18997 741.241 1.20603 759.795 -1.43597L759.925 -0.394968C758.069 -0.129969 756.185 0.0560303 754.276 0.169031Z" fill="#00B0C7"/>
</g>
<mask id="mask14_207:496" style="mask-type:alpha" maskUnits="userSpaceOnUse" x="511" y="0" width="220" height="25">
<path fill-rule="evenodd" clip-rule="evenodd" d="M511.744 0.169922H730.583V24.2741H511.744V0.169922Z" fill="white"/>
</mask>
<g mask="url(#mask14_207:496)">
<path fill-rule="evenodd" clip-rule="evenodd" d="M769.733 9.19504C752.391 10.224 732.898 5.31204 712.378 0.140041C686.736 -6.32196 660.224 -13.005 633.257 -9.90996C606.349 -6.81096 581.073 2.55104 558.772 10.811C540.359 17.632 524.453 23.523 511.863 24.27C511.843 24.271 511.824 24.273 511.804 24.274L511.744 23.225C511.763 23.223 511.782 23.222 511.801 23.221C524.267 22.482 540.119 16.61 558.47 9.81304C580.815 1.53704 606.141 -7.84396 633.15 -10.955C660.259 -14.061 686.853 -7.36496 712.568 -0.884958C735.266 4.83604 756.71 10.233 775.253 7.58904L775.383 8.63104C773.527 8.89604 771.642 9.08104 769.733 9.19504Z" fill="#00B0C7"/>
</g>
<mask id="mask15_207:496" style="mask-type:alpha" maskUnits="userSpaceOnUse" x="527" y="0" width="204" height="34">
<path fill-rule="evenodd" clip-rule="evenodd" d="M527.204 0.169922H730.583V33.3039H527.204V0.169922Z" fill="white"/>
</mask>
<g mask="url(#mask15_207:496)">
<path fill-rule="evenodd" clip-rule="evenodd" d="M785.199 18.2251C767.853 19.2551 748.359 14.3411 727.836 9.17012C702.196 2.70812 675.693 -3.97088 648.72 -0.881884C621.807 2.21712 596.528 11.5801 574.225 19.8421C555.814 26.6621 539.907 32.5541 527.318 33.3011C527.3 33.3021 527.284 33.3031 527.265 33.3041L527.204 32.2551C527.221 32.2541 527.239 32.2531 527.256 32.2521C539.722 31.5121 555.573 25.6411 573.923 18.8441C596.27 10.5661 621.6 1.18312 648.612 -1.92688C675.724 -5.02988 702.314 1.66512 728.027 8.14412C750.726 13.8641 772.16 19.2641 790.718 16.6191L790.847 17.6611C788.992 17.9261 787.107 18.1111 785.199 18.2251Z" fill="#00B0C7"/>
</g>
<mask id="mask16_207:496" style="mask-type:alpha" maskUnits="userSpaceOnUse" x="512" y="8" width="219" height="37">
<path fill-rule="evenodd" clip-rule="evenodd" d="M512.92 8.08203H730.583V44.0973H512.92V8.08203Z" fill="white"/>
</mask>
<g mask="url(#mask16_207:496)">
<path fill-rule="evenodd" clip-rule="evenodd" d="M770.914 29.0173C753.571 30.0473 734.076 25.1343 713.555 19.9623C687.913 13.5003 661.4 6.81133 634.434 9.91033C607.525 13.0103 582.249 22.3733 559.947 30.6333C541.533 37.4543 525.626 43.3463 513.036 44.0933C513.018 44.0943 513 44.0963 512.981 44.0973L512.92 43.0483C512.937 43.0473 512.956 43.0453 512.974 43.0443C525.441 42.3053 541.292 36.4333 559.645 29.6353C581.991 21.3583 607.318 11.9773 634.326 8.86533C661.44 5.76033 688.031 12.4573 713.745 18.9373C736.443 24.6573 757.881 30.0593 776.43 27.4123L776.559 28.4543C774.704 28.7193 772.822 28.9043 770.914 29.0173Z" fill="#00B0C7"/>
</g>
<mask id="mask17_207:496" style="mask-type:alpha" maskUnits="userSpaceOnUse" x="498" y="18" width="233" height="36">
<path fill-rule="evenodd" clip-rule="evenodd" d="M498.636 18.875H730.583V53.17H498.636V18.875Z" fill="white"/>
</mask>
<g mask="url(#mask17_207:496)">
<path fill-rule="evenodd" clip-rule="evenodd" d="M756.63 39.808C739.286 40.838 719.793 35.925 699.271 30.754C673.628 24.291 647.107 17.612 620.15 20.704C593.242 23.803 567.966 33.165 545.665 41.425C527.252 48.245 511.346 54.137 498.755 54.884C498.736 54.885 498.717 54.886 498.697 54.887L498.636 53.838C498.655 53.837 498.674 53.836 498.693 53.835C511.16 53.095 527.012 47.224 545.362 40.427C567.708 32.15 593.034 22.769 620.042 19.658C647.151 16.554 673.747 23.249 699.461 29.729C722.159 35.448 743.599 40.851 762.148 38.203L762.277 39.244C760.422 39.509 758.538 39.694 756.63 39.808Z" fill="#00B0C7"/>
</g>
<mask id="mask18_207:496" style="mask-type:alpha" maskUnits="userSpaceOnUse" x="484" y="29" width="247" height="25">
<path fill-rule="evenodd" clip-rule="evenodd" d="M484.353 29.6675H730.583V53.1699H484.353V29.6675Z" fill="white"/>
</mask>
<g mask="url(#mask18_207:496)">
<path fill-rule="evenodd" clip-rule="evenodd" d="M742.343 50.6014C725.002 51.6304 705.508 46.7174 684.988 41.5464C659.344 35.0844 632.824 28.3994 605.866 31.4954C578.956 34.5944 553.679 43.9564 531.376 52.2184C512.963 59.0384 497.058 64.9304 484.469 65.6774C484.45 65.6784 484.432 65.6794 484.413 65.6804L484.353 64.6314C484.37 64.6304 484.389 64.6294 484.406 64.6284C496.873 63.8884 512.723 58.0174 531.074 51.2204C553.421 42.9424 578.749 33.5604 605.759 30.4504C632.871 27.3464 659.464 34.0424 685.178 40.5224C707.875 46.2414 729.311 51.6404 747.862 48.9964L747.992 50.0374C746.136 50.3024 744.253 50.4884 742.343 50.6014Z" fill="#00B0C7"/>
</g>
<path fill-rule="evenodd" clip-rule="evenodd" d="M31 26L17 33V19L31 26Z" fill="white"/>
<path d="M50.387 22.996C50.079 22.604 49.673 22.296 49.169 22.072C48.679 21.834 48.203 21.715 47.741 21.715C47.503 21.715 47.258 21.736 47.006 21.778C46.768 21.82 46.551 21.904 46.355 22.03C46.159 22.142 45.991 22.296 45.851 22.492C45.725 22.674 45.662 22.912 45.662 23.206C45.662 23.458 45.711 23.668 45.809 23.836C45.921 24.004 46.075 24.151 46.271 24.277C46.481 24.403 46.726 24.522 47.006 24.634C47.286 24.732 47.601 24.837 47.951 24.949C48.455 25.117 48.98 25.306 49.526 25.516C50.072 25.712 50.569 25.978 51.017 26.314C51.465 26.65 51.836 27.07 52.13 27.574C52.424 28.064 52.571 28.68 52.571 29.422C52.571 30.276 52.41 31.018 52.088 31.648C51.78 32.264 51.36 32.775 50.828 33.181C50.296 33.587 49.687 33.888 49.001 34.084C48.315 34.28 47.608 34.378 46.88 34.378C45.816 34.378 44.787 34.196 43.793 33.832C42.799 33.454 41.973 32.922 41.315 32.236L43.667 29.842C44.031 30.29 44.507 30.668 45.095 30.976C45.697 31.27 46.292 31.417 46.88 31.417C47.146 31.417 47.405 31.389 47.657 31.333C47.909 31.277 48.126 31.186 48.308 31.06C48.504 30.934 48.658 30.766 48.77 30.556C48.882 30.346 48.938 30.094 48.938 29.8C48.938 29.52 48.868 29.282 48.728 29.086C48.588 28.89 48.385 28.715 48.119 28.561C47.867 28.393 47.545 28.246 47.153 28.12C46.775 27.98 46.341 27.833 45.851 27.679C45.375 27.525 44.906 27.343 44.444 27.133C43.996 26.923 43.59 26.657 43.226 26.335C42.876 25.999 42.589 25.6 42.365 25.138C42.155 24.662 42.05 24.088 42.05 23.416C42.05 22.59 42.218 21.883 42.554 21.295C42.89 20.707 43.331 20.224 43.877 19.846C44.423 19.468 45.039 19.195 45.725 19.027C46.411 18.845 47.104 18.754 47.804 18.754C48.644 18.754 49.498 18.908 50.366 19.216C51.248 19.524 52.018 19.979 52.676 20.581L50.387 22.996ZM54.9402 34V19.132H58.5522V34H54.9402ZM67.9888 22.198V34H64.3978V22.198H60.1978V19.132H72.1888V22.198H67.9888ZM73.8279 34V19.132H83.8239V22.177H77.2929V24.97H83.4669V27.847H77.2929V30.934H84.2019V34H73.8279Z" fill="white"/>
</svg>
