<svg width="731" height="54" viewBox="0 0 731 54" fill="none" xmlns="http://www.w3.org/2000/svg">
<rect width="731" height="53" fill="#242424"/>
<mask id="mask0_204:502" style="mask-type:alpha" maskUnits="userSpaceOnUse" x="0" y="0" width="233" height="27">
<path fill-rule="evenodd" clip-rule="evenodd" d="M0.582031 0.169922H232.926V26.6901H0.582031V0.169922Z" fill="white"/>
</mask>
<g mask="url(#mask0_204:502)">
<path fill-rule="evenodd" clip-rule="evenodd" d="M227.278 11.611C209.934 12.641 190.44 7.72799 169.918 2.55599C144.276 -3.906 117.763 -10.591 90.7992 -7.496C63.8892 -4.395 38.6122 4.967 16.3102 13.228C-2.10284 20.048 -18.0108 25.94 -30.6008 26.687C-30.6188 26.688 -30.6348 26.689 -30.6538 26.69L-30.7148 25.641C-30.6978 25.64 -30.6798 25.639 -30.6628 25.638C-18.1958 24.898 -2.34384 19.027 16.0082 12.229C38.3542 3.95199 63.6822 -5.429 90.6912 -8.541C117.806 -11.654 144.394 -4.949 170.108 1.531C192.807 7.252 214.252 12.651 232.796 10.006L232.926 11.047C231.071 11.312 229.186 11.497 227.278 11.611Z" fill="#00B0C7"/>
</g>
<mask id="mask1_204:502" style="mask-type:alpha" maskUnits="userSpaceOnUse" x="0" y="1" width="219" height="37">
<path fill-rule="evenodd" clip-rule="evenodd" d="M0.582031 1.46875H218.639V37.4838H0.582031V1.46875Z" fill="white"/>
</mask>
<g mask="url(#mask1_204:502)">
<path fill-rule="evenodd" clip-rule="evenodd" d="M212.994 22.4038C195.652 23.4338 176.157 18.5208 155.636 13.3498C129.994 6.88783 103.485 0.203832 76.514 3.29783C49.606 6.39783 24.33 15.7598 2.029 24.0208C-16.385 30.8408 -32.292 36.7328 -44.882 37.4798C-44.901 37.4818 -44.92 37.4828 -44.939 37.4838L-45 36.4348C-44.982 36.4338 -44.963 36.4328 -44.944 36.4308C-32.477 35.6918 -16.625 29.8198 1.727 23.0228C24.072 14.7458 49.399 5.36483 76.407 2.25283C103.514 -0.854168 130.111 5.84383 155.827 12.3248C178.523 18.0438 199.961 23.4458 218.509 20.7988L218.639 21.8408C216.785 22.1058 214.902 22.2908 212.994 22.4038Z" fill="#00B0C7"/>
</g>
<mask id="mask2_204:502" style="mask-type:alpha" maskUnits="userSpaceOnUse" x="0" y="10" width="235" height="37">
<path fill-rule="evenodd" clip-rule="evenodd" d="M0.582031 10.4971H234.102V46.5104H0.582031V10.4971Z" fill="white"/>
</mask>
<g mask="url(#mask2_204:502)">
<path fill-rule="evenodd" clip-rule="evenodd" d="M228.453 31.4314C211.109 32.4604 191.614 27.5484 171.094 22.3764C145.452 15.9154 118.94 9.23245 91.9749 12.3254C65.0659 15.4244 39.7899 24.7874 17.4889 33.0484C-0.923063 39.8684 -16.8301 45.7594 -29.4191 46.5064C-29.4391 46.5084 -29.4581 46.5094 -29.4781 46.5104L-29.5391 45.4614C-29.5201 45.4604 -29.5001 45.4594 -29.4811 45.4574C-17.0151 44.7184 -1.16306 38.8474 17.1869 32.0494C39.5329 23.7724 64.8589 14.3914 91.8679 11.2804C118.979 8.17545 145.57 14.8714 171.284 21.3514C193.982 27.0724 215.423 32.4704 233.972 29.8264L234.102 30.8674C232.246 31.1324 230.363 31.3184 228.453 31.4314Z" fill="#00B0C7"/>
</g>
<mask id="mask3_204:502" style="mask-type:alpha" maskUnits="userSpaceOnUse" x="0" y="19" width="250" height="35">
<path fill-rule="evenodd" clip-rule="evenodd" d="M0.582031 19.5239H249.56V53.17H0.582031V19.5239Z" fill="white"/>
</mask>
<g mask="url(#mask3_204:502)">
<path fill-rule="evenodd" clip-rule="evenodd" d="M243.91 40.4574C226.568 41.4874 207.075 36.5744 186.555 31.4034C160.914 24.9404 134.399 18.2554 107.436 21.3524C80.5279 24.4514 55.2509 33.8144 32.9509 42.0744C14.5379 48.8944 -1.3691 54.7864 -13.9591 55.5334C-13.9791 55.5344 -13.9981 55.5354 -14.0171 55.5364L-14.0791 54.4874C-14.0601 54.4864 -14.0401 54.4854 -14.0211 54.4844C-1.5541 53.7444 14.2979 47.8734 32.6489 41.0754C54.9939 32.7994 80.3209 23.4184 107.328 20.3074C134.432 17.2024 161.031 23.8974 186.746 30.3784C209.444 36.0984 230.884 41.4954 249.43 38.8524L249.56 39.8934C247.704 40.1594 245.82 40.3444 243.91 40.4574Z" fill="#00B0C7"/>
</g>
<mask id="mask4_204:502" style="mask-type:alpha" maskUnits="userSpaceOnUse" x="1" y="28" width="265" height="26">
<path fill-rule="evenodd" clip-rule="evenodd" d="M1.38184 28.5488H265.024V53.1698H1.38184V28.5488Z" fill="white"/>
</mask>
<g mask="url(#mask4_204:502)">
<path fill-rule="evenodd" clip-rule="evenodd" d="M259.376 49.487C242.031 50.517 222.536 45.603 202.013 40.432C176.373 33.97 149.854 27.287 122.897 30.381C95.9848 33.479 70.7058 42.843 48.4028 51.104C29.9918 57.924 14.0858 63.816 1.49684 64.563C1.47784 64.564 1.46184 64.565 1.44284 64.566L1.38184 63.517C1.39984 63.516 1.41684 63.515 1.43484 63.514C13.9008 62.775 29.7518 56.904 48.1008 50.106C70.4488 41.828 95.7768 32.446 122.789 29.335C149.903 26.222 176.491 32.927 202.204 39.407C224.903 45.127 246.341 50.53 264.894 47.882L265.024 48.924C263.169 49.188 261.285 49.373 259.376 49.487Z" fill="#00B0C7"/>
</g>
<mask id="mask5_204:502" style="mask-type:alpha" maskUnits="userSpaceOnUse" x="0" y="39" width="251" height="15">
<path fill-rule="evenodd" clip-rule="evenodd" d="M0.582031 39.3442H250.737V53.17H0.582031V39.3442Z" fill="white"/>
</mask>
<g mask="url(#mask5_204:502)">
<path fill-rule="evenodd" clip-rule="evenodd" d="M245.091 60.2802C227.748 61.3102 208.253 56.3972 187.732 51.2252C162.09 44.7632 135.574 38.0772 108.612 41.1732C81.7027 44.2732 56.4267 53.6352 34.1257 61.8962C15.7117 68.7172 -0.195344 74.6092 -12.7863 75.3562C-12.8043 75.3572 -12.8223 75.3592 -12.8413 75.3602L-12.9023 74.3112C-12.8853 74.3102 -12.8663 74.3082 -12.8483 74.3072C-0.381344 73.5682 15.4707 67.6962 33.8237 60.8982C56.1697 52.6212 81.4967 43.2392 108.504 40.1282C135.613 37.0212 162.208 43.7202 187.923 50.2002C210.62 55.9202 232.058 61.3222 250.607 58.6752L250.737 59.7172C248.882 59.9822 246.999 60.1672 245.091 60.2802Z" fill="#00B0C7"/>
</g>
<mask id="mask6_204:502" style="mask-type:alpha" maskUnits="userSpaceOnUse" x="218" y="0" width="265" height="22">
<path fill-rule="evenodd" clip-rule="evenodd" d="M218.389 0.169922H482.075V21.8538H218.389V0.169922Z" fill="white"/>
</mask>
<g mask="url(#mask6_204:502)">
<path fill-rule="evenodd" clip-rule="evenodd" d="M476.429 6.77079C459.085 7.80079 439.581 2.88779 419.05 -2.28221C393.395 -8.74321 366.87 -15.4262 339.903 -12.3322C312.995 -9.23221 287.719 0.129787 265.418 8.39079C247.004 15.2108 231.097 21.1028 218.507 21.8498C218.487 21.8518 218.469 21.8528 218.45 21.8538L218.389 20.8048C218.407 20.8038 218.426 20.8018 218.445 20.8008C230.912 20.0618 246.764 14.1888 265.116 7.39279C287.461 -0.884214 312.788 -10.2652 339.796 -13.3772C366.91 -16.4892 393.513 -9.78621 419.241 -3.30721C441.949 2.41179 463.396 7.81479 481.946 5.16679L482.075 6.20779C480.221 6.47279 478.337 6.65779 476.429 6.77079Z" fill="#00B0C7"/>
</g>
<mask id="mask7_204:502" style="mask-type:alpha" maskUnits="userSpaceOnUse" x="233" y="0" width="265" height="31">
<path fill-rule="evenodd" clip-rule="evenodd" d="M233.849 0.169922H497.537V30.8806H233.849V0.169922Z" fill="white"/>
</mask>
<g mask="url(#mask7_204:502)">
<path fill-rule="evenodd" clip-rule="evenodd" d="M491.888 15.7986C474.542 16.8276 455.037 11.9156 434.507 6.7446C408.853 0.283602 382.331 -6.3954 355.363 -3.3044C328.454 -0.205398 303.178 9.1576 280.877 17.4186C262.465 24.2376 246.558 30.1296 233.969 30.8766C233.949 30.8786 233.93 30.8796 233.91 30.8806L233.849 29.8316C233.868 29.8306 233.887 29.8296 233.906 29.8276C246.373 29.0886 262.225 23.2166 280.575 16.4196C302.92 8.1426 328.247 -1.2384 355.255 -4.3494C382.368 -7.4584 408.97 -0.759398 434.697 5.7206C457.407 11.4406 478.851 16.8426 497.407 14.1936L497.537 15.2346C495.681 15.4996 493.797 15.6856 491.888 15.7986Z" fill="#00B0C7"/>
</g>
<path fill-rule="evenodd" clip-rule="evenodd" d="M506.365 24.9246C489.068 25.9531 469.621 21.0442 449.15 15.8765C423.562 9.4163 397.106 2.73821 370.198 5.82986C343.36 8.92852 318.15 18.2864 295.907 26.5429C277.543 33.3599 261.677 39.2493 249.119 39.996C249.099 39.997 249.081 39.998 249.061 40L249 38.9515C249.019 38.9495 249.038 38.9485 249.057 38.9475C261.491 38.2078 277.302 32.3393 295.605 25.5453C317.892 17.2719 343.153 7.89497 370.09 4.78632C397.149 1.67367 423.679 8.37476 449.339 14.8519C471.984 20.5675 493.375 25.9621 511.87 23.3193L512 24.3608C510.149 24.6257 508.269 24.8116 506.365 24.9246Z" fill="#00B0C7"/>
<path fill-rule="evenodd" clip-rule="evenodd" d="M522.368 33.9239C505.07 34.9534 485.629 30.0447 465.162 24.8771C439.576 18.417 413.112 11.7381 386.197 14.8297C359.356 17.9272 334.143 27.286 311.898 35.5442C293.535 42.36 277.671 48.2503 265.115 48.997C265.096 48.998 265.08 48.999 265.062 49L265 47.9515C265.018 47.9505 265.035 47.9495 265.053 47.9485C277.486 47.2088 293.296 41.3395 311.597 34.5466C333.887 26.2724 359.149 16.8937 386.09 13.7851C413.157 10.6756 439.692 17.3745 465.352 23.8525C487.989 29.5679 509.369 34.9654 527.871 32.3196L528 33.3612C526.151 33.626 524.27 33.811 522.368 33.9239Z" fill="#00B0C7"/>
<mask id="mask8_204:502" style="mask-type:alpha" maskUnits="userSpaceOnUse" x="249" y="23" width="265" height="31">
<path fill-rule="evenodd" clip-rule="evenodd" d="M249.485 23.7139H513.171V53.1699H249.485V23.7139Z" fill="white"/>
</mask>
<g mask="url(#mask8_204:502)">
<path fill-rule="evenodd" clip-rule="evenodd" d="M507.526 44.6473C490.183 45.6773 470.683 40.7643 450.158 35.5943C424.503 29.1323 397.971 22.4503 370.999 25.5433C344.091 28.6433 318.814 38.0053 296.513 46.2663C278.099 53.0873 262.192 58.9793 249.602 59.7263C249.583 59.7273 249.565 59.7283 249.546 59.7303L249.485 58.6813C249.503 58.6793 249.522 58.6783 249.539 58.6773C262.007 57.9383 277.859 52.0653 296.211 45.2683C318.557 36.9913 343.883 27.6093 370.891 24.4983C398.017 21.3903 424.621 28.0893 450.348 34.5693C473.05 40.2893 494.49 45.6893 513.042 43.0423L513.171 44.0843C511.317 44.3493 509.434 44.5343 507.526 44.6473Z" fill="#00B0C7"/>
</g>
<mask id="mask9_204:502" style="mask-type:alpha" maskUnits="userSpaceOnUse" x="235" y="34" width="264" height="20">
<path fill-rule="evenodd" clip-rule="evenodd" d="M235.201 34.5073H498.889V53.1702H235.201V34.5073Z" fill="white"/>
</mask>
<g mask="url(#mask9_204:502)">
<path fill-rule="evenodd" clip-rule="evenodd" d="M493.241 55.4381C475.896 56.4681 456.392 51.5551 435.861 46.3851C410.206 39.9251 383.682 33.2451 356.715 36.3361C329.806 39.4351 304.53 48.7981 282.229 57.0581C263.817 63.8781 247.91 69.7701 235.321 70.5171C235.301 70.5181 235.282 70.5191 235.262 70.5201L235.201 69.4711C247.684 68.7901 263.549 62.8671 281.927 56.0601C304.272 47.7831 329.599 38.4021 356.607 35.2911C383.715 32.1851 410.324 38.8811 436.051 45.3601C458.759 51.0781 480.206 56.4781 498.76 53.8331L498.889 54.8751C497.034 55.1391 495.149 55.3241 493.241 55.4381Z" fill="#00B0C7"/>
</g>
<mask id="mask10_204:502" style="mask-type:alpha" maskUnits="userSpaceOnUse" x="221" y="45" width="265" height="9">
<path fill-rule="evenodd" clip-rule="evenodd" d="M221.916 45.3008H485.603V53.1701H221.916V45.3008Z" fill="white"/>
</mask>
<g mask="url(#mask10_204:502)">
<path fill-rule="evenodd" clip-rule="evenodd" d="M479.954 66.2315C462.611 67.2605 443.107 62.3485 422.576 57.1785C396.922 50.7165 370.391 44.0375 343.431 47.1285C316.52 50.2275 291.242 59.5895 268.94 67.8515C250.527 74.6715 234.622 80.5625 222.033 81.3095C222.014 81.3115 221.996 81.3125 221.977 81.3135L221.916 80.2645C221.934 80.2635 221.953 80.2625 221.971 80.2605C234.437 79.5215 250.287 73.6495 268.638 66.8535C290.985 58.5755 316.313 49.1935 343.323 46.0835C370.443 42.9805 397.04 49.6745 422.767 56.1525C445.475 61.8725 466.918 67.2715 485.474 64.6265L485.603 65.6675C483.747 65.9325 481.864 66.1185 479.954 66.2315Z" fill="#00B0C7"/>
</g>
<mask id="mask11_204:502" style="mask-type:alpha" maskUnits="userSpaceOnUse" x="511" y="0" width="220" height="25">
<path fill-rule="evenodd" clip-rule="evenodd" d="M511.744 0.169922H730.583V24.2741H511.744V0.169922Z" fill="white"/>
</mask>
<g mask="url(#mask11_204:502)">
<path fill-rule="evenodd" clip-rule="evenodd" d="M769.733 9.19504C752.391 10.224 732.898 5.31204 712.378 0.140041C686.736 -6.32196 660.224 -13.005 633.257 -9.90996C606.349 -6.81096 581.073 2.55104 558.772 10.811C540.359 17.632 524.453 23.523 511.863 24.27C511.843 24.271 511.824 24.273 511.804 24.274L511.744 23.225C511.763 23.223 511.782 23.222 511.801 23.221C524.267 22.482 540.119 16.61 558.47 9.81304C580.815 1.53704 606.141 -7.84396 633.15 -10.955C660.259 -14.061 686.853 -7.36496 712.568 -0.884958C735.266 4.83604 756.71 10.233 775.253 7.58904L775.383 8.63104C773.527 8.89604 771.642 9.08104 769.733 9.19504Z" fill="#00B0C7"/>
</g>
<mask id="mask12_204:502" style="mask-type:alpha" maskUnits="userSpaceOnUse" x="527" y="0" width="204" height="34">
<path fill-rule="evenodd" clip-rule="evenodd" d="M527.204 0.169922H730.583V33.3039H527.204V0.169922Z" fill="white"/>
</mask>
<g mask="url(#mask12_204:502)">
<path fill-rule="evenodd" clip-rule="evenodd" d="M785.199 18.2251C767.853 19.2551 748.359 14.3411 727.836 9.17012C702.196 2.70812 675.693 -3.97088 648.72 -0.881884C621.807 2.21712 596.528 11.5801 574.225 19.8421C555.814 26.6621 539.907 32.5541 527.318 33.3011C527.3 33.3021 527.284 33.3031 527.265 33.3041L527.204 32.2551C527.221 32.2541 527.239 32.2531 527.256 32.2521C539.722 31.5121 555.573 25.6411 573.923 18.8441C596.27 10.5661 621.6 1.18312 648.612 -1.92688C675.724 -5.02988 702.314 1.66512 728.027 8.14412C750.726 13.8641 772.16 19.2641 790.718 16.6191L790.847 17.6611C788.992 17.9261 787.107 18.1111 785.199 18.2251Z" fill="#00B0C7"/>
</g>
<mask id="mask13_204:502" style="mask-type:alpha" maskUnits="userSpaceOnUse" x="512" y="8" width="219" height="37">
<path fill-rule="evenodd" clip-rule="evenodd" d="M512.92 8.08203H730.583V44.0973H512.92V8.08203Z" fill="white"/>
</mask>
<g mask="url(#mask13_204:502)">
<path fill-rule="evenodd" clip-rule="evenodd" d="M770.914 29.0173C753.571 30.0473 734.076 25.1343 713.555 19.9623C687.913 13.5003 661.4 6.81133 634.434 9.91033C607.525 13.0103 582.249 22.3733 559.947 30.6333C541.533 37.4543 525.626 43.3463 513.036 44.0933C513.018 44.0943 513 44.0963 512.981 44.0973L512.92 43.0483C512.937 43.0473 512.956 43.0453 512.974 43.0443C525.441 42.3053 541.292 36.4333 559.645 29.6353C581.991 21.3583 607.318 11.9773 634.326 8.86533C661.44 5.76033 688.031 12.4573 713.745 18.9373C736.443 24.6573 757.881 30.0593 776.43 27.4123L776.559 28.4543C774.704 28.7193 772.822 28.9043 770.914 29.0173Z" fill="#00B0C7"/>
</g>
<mask id="mask14_204:502" style="mask-type:alpha" maskUnits="userSpaceOnUse" x="498" y="18" width="233" height="36">
<path fill-rule="evenodd" clip-rule="evenodd" d="M498.636 18.875H730.583V53.17H498.636V18.875Z" fill="white"/>
</mask>
<g mask="url(#mask14_204:502)">
<path fill-rule="evenodd" clip-rule="evenodd" d="M756.63 39.808C739.286 40.838 719.793 35.925 699.271 30.754C673.628 24.291 647.107 17.612 620.15 20.704C593.242 23.803 567.966 33.165 545.665 41.425C527.252 48.245 511.346 54.137 498.755 54.884C498.736 54.885 498.717 54.886 498.697 54.887L498.636 53.838C498.655 53.837 498.674 53.836 498.693 53.835C511.16 53.095 527.012 47.224 545.362 40.427C567.708 32.15 593.034 22.769 620.042 19.658C647.151 16.554 673.747 23.249 699.461 29.729C722.159 35.448 743.599 40.851 762.148 38.203L762.277 39.244C760.422 39.509 758.538 39.694 756.63 39.808Z" fill="#00B0C7"/>
</g>
<mask id="mask15_204:502" style="mask-type:alpha" maskUnits="userSpaceOnUse" x="484" y="29" width="247" height="25">
<path fill-rule="evenodd" clip-rule="evenodd" d="M484.353 29.6675H730.583V53.1699H484.353V29.6675Z" fill="white"/>
</mask>
<g mask="url(#mask15_204:502)">
<path fill-rule="evenodd" clip-rule="evenodd" d="M742.343 50.6014C725.002 51.6304 705.508 46.7174 684.988 41.5464C659.344 35.0844 632.824 28.3994 605.866 31.4954C578.956 34.5944 553.679 43.9564 531.376 52.2184C512.963 59.0384 497.058 64.9304 484.469 65.6774C484.45 65.6784 484.432 65.6794 484.413 65.6804L484.353 64.6314C484.37 64.6304 484.389 64.6294 484.406 64.6284C496.873 63.8884 512.723 58.0174 531.074 51.2204C553.421 42.9424 578.749 33.5604 605.759 30.4504C632.871 27.3464 659.464 34.0424 685.178 40.5224C707.875 46.2414 729.311 51.6404 747.862 48.9964L747.992 50.0374C746.136 50.3024 744.253 50.4884 742.343 50.6014Z" fill="#00B0C7"/>
</g>
<mask id="mask16_204:502" style="mask-type:alpha" maskUnits="userSpaceOnUse" x="499" y="38" width="232" height="16">
<path fill-rule="evenodd" clip-rule="evenodd" d="M499.812 38.6943H730.583V53.1701H499.812V38.6943Z" fill="white"/>
</mask>
<g mask="url(#mask16_204:502)">
<path fill-rule="evenodd" clip-rule="evenodd" d="M757.805 59.6284C740.462 60.6574 720.967 55.7454 700.447 50.5744C674.805 44.1114 648.284 37.4324 621.326 40.5244C594.417 43.6224 569.14 52.9854 546.838 61.2454C528.426 68.0654 512.519 73.9574 499.929 74.7044C499.91 74.7054 499.892 74.7064 499.872 74.7074L499.812 73.6584C499.83 73.6574 499.85 73.6564 499.867 73.6554C512.335 72.9154 528.184 67.0444 546.535 60.2474C568.882 51.9704 594.209 42.5894 621.218 39.4784C648.34 36.3714 674.924 43.0694 700.637 49.5494C723.335 55.2694 744.779 60.6684 763.323 58.0234L763.453 59.0644C761.598 59.3294 759.714 59.5154 757.805 59.6284Z" fill="#00B0C7"/>
</g>
<path fill-rule="evenodd" clip-rule="evenodd" d="M31 26L17 33V19L31 26Z" fill="white"/>
<path d="M55.133 28.393C55.133 29.289 54.979 30.108 54.671 30.85C54.377 31.578 53.95 32.208 53.39 32.74C52.83 33.258 52.151 33.664 51.353 33.958C50.569 34.252 49.694 34.399 48.728 34.399C47.748 34.399 46.866 34.252 46.082 33.958C45.298 33.664 44.633 33.258 44.087 32.74C43.541 32.208 43.121 31.578 42.827 30.85C42.533 30.108 42.386 29.289 42.386 28.393V19.132H45.956V28.099C45.956 28.505 46.005 28.89 46.103 29.254C46.215 29.618 46.376 29.947 46.586 30.241C46.81 30.521 47.097 30.745 47.447 30.913C47.811 31.081 48.245 31.165 48.749 31.165C49.253 31.165 49.68 31.081 50.03 30.913C50.394 30.745 50.688 30.521 50.912 30.241C51.136 29.947 51.297 29.618 51.395 29.254C51.493 28.89 51.542 28.505 51.542 28.099V19.132H55.133V28.393ZM67.4869 34L61.5019 24.277H61.4389L61.5229 34H58.0369V19.132H62.1319L68.0959 28.834H68.1589L68.0749 19.132H71.5609V34H67.4869ZM88.5087 26.524C88.5087 27.826 88.2637 28.953 87.7737 29.905C87.2977 30.843 86.6607 31.62 85.8627 32.236C85.0787 32.838 84.1897 33.286 83.1957 33.58C82.2017 33.86 81.1937 34 80.1717 34H74.6277V19.132H80.0037C81.0537 19.132 82.0897 19.258 83.1117 19.51C84.1337 19.748 85.0437 20.154 85.8417 20.728C86.6397 21.288 87.2837 22.044 87.7737 22.996C88.2637 23.948 88.5087 25.124 88.5087 26.524ZM84.7707 26.524C84.7707 25.684 84.6307 24.991 84.3507 24.445C84.0847 23.885 83.7207 23.444 83.2587 23.122C82.8107 22.786 82.2927 22.548 81.7047 22.408C81.1307 22.268 80.5357 22.198 79.9197 22.198H78.1347V30.892H79.8357C80.4797 30.892 81.0957 30.822 81.6837 30.682C82.2857 30.528 82.8107 30.283 83.2587 29.947C83.7207 29.611 84.0847 29.163 84.3507 28.603C84.6307 28.043 84.7707 27.35 84.7707 26.524ZM90.8904 34V19.132H100.886V22.177H94.3554V24.97H100.529V27.847H94.3554V30.934H101.264V34H90.8904ZM111.605 34L108.392 28.099H107.174V34H103.646V19.132H109.316C110.03 19.132 110.723 19.209 111.395 19.363C112.081 19.503 112.69 19.748 113.222 20.098C113.768 20.448 114.202 20.91 114.524 21.484C114.846 22.058 115.007 22.772 115.007 23.626C115.007 24.634 114.734 25.481 114.188 26.167C113.642 26.853 112.886 27.343 111.92 27.637L115.805 34H111.605ZM111.458 23.689C111.458 23.339 111.381 23.059 111.227 22.849C111.087 22.625 110.898 22.457 110.66 22.345C110.436 22.219 110.177 22.135 109.883 22.093C109.603 22.051 109.33 22.03 109.064 22.03H107.153V25.495H108.854C109.148 25.495 109.449 25.474 109.757 25.432C110.065 25.376 110.345 25.285 110.597 25.159C110.849 25.033 111.052 24.851 111.206 24.613C111.374 24.375 111.458 24.067 111.458 23.689ZM133.321 34H129.772L126.832 23.941H126.769L123.829 34H120.259L116.038 19.132H119.902L122.254 29.023H122.317L124.963 19.132H128.701L131.368 29.023H131.431L133.825 19.132H137.563L133.321 34ZM147.063 34L143.85 28.099H142.632V34H139.104V19.132H144.774C145.488 19.132 146.181 19.209 146.853 19.363C147.539 19.503 148.148 19.748 148.68 20.098C149.226 20.448 149.66 20.91 149.982 21.484C150.304 22.058 150.465 22.772 150.465 23.626C150.465 24.634 150.192 25.481 149.646 26.167C149.1 26.853 148.344 27.343 147.378 27.637L151.263 34H147.063ZM146.916 23.689C146.916 23.339 146.839 23.059 146.685 22.849C146.545 22.625 146.356 22.457 146.118 22.345C145.894 22.219 145.635 22.135 145.341 22.093C145.061 22.051 144.788 22.03 144.522 22.03H142.611V25.495H144.312C144.606 25.495 144.907 25.474 145.215 25.432C145.523 25.376 145.803 25.285 146.055 25.159C146.307 25.033 146.51 24.851 146.664 24.613C146.832 24.375 146.916 24.067 146.916 23.689ZM153.029 34V19.132H156.641V34H153.029ZM166.078 22.198V34H162.487V22.198H158.287V19.132H170.278V22.198H166.078ZM171.917 34V19.132H175.529V34H171.917ZM188.052 34L182.067 24.277H182.004L182.088 34H178.602V19.132H182.697L188.661 28.834H188.724L188.64 19.132H192.126V34H188.052ZM208.402 33.097C207.674 33.475 206.82 33.783 205.84 34.021C204.874 34.259 203.817 34.378 202.669 34.378C201.479 34.378 200.38 34.189 199.372 33.811C198.378 33.433 197.517 32.901 196.789 32.215C196.075 31.529 195.515 30.71 195.109 29.758C194.703 28.792 194.5 27.721 194.5 26.545C194.5 25.355 194.703 24.277 195.109 23.311C195.529 22.345 196.103 21.526 196.831 20.854C197.559 20.168 198.413 19.643 199.393 19.279C200.373 18.915 201.43 18.733 202.564 18.733C203.74 18.733 204.832 18.915 205.84 19.279C206.848 19.629 207.667 20.105 208.297 20.707L206.029 23.29C205.679 22.884 205.217 22.555 204.643 22.303C204.069 22.037 203.418 21.904 202.69 21.904C202.06 21.904 201.479 22.023 200.947 22.261C200.415 22.485 199.953 22.807 199.561 23.227C199.169 23.633 198.861 24.123 198.637 24.697C198.427 25.257 198.322 25.873 198.322 26.545C198.322 27.231 198.42 27.861 198.616 28.435C198.812 29.009 199.099 29.506 199.477 29.926C199.869 30.332 200.345 30.654 200.905 30.892C201.479 31.116 202.13 31.228 202.858 31.228C203.278 31.228 203.677 31.2 204.055 31.144C204.433 31.074 204.783 30.969 205.105 30.829V28.12H202.27V25.222H208.402V33.097Z" fill="white"/>
<path d="M420.465 28.597C420.465 28.981 420.399 29.332 420.267 29.65C420.141 29.962 419.958 30.232 419.718 30.46C419.478 30.682 419.187 30.856 418.845 30.982C418.509 31.108 418.134 31.171 417.72 31.171C417.3 31.171 416.922 31.108 416.586 30.982C416.25 30.856 415.965 30.682 415.731 30.46C415.497 30.232 415.317 29.962 415.191 29.65C415.065 29.332 415.002 28.981 415.002 28.597V24.628H416.532V28.471C416.532 28.645 416.553 28.81 416.595 28.966C416.643 29.122 416.712 29.263 416.802 29.389C416.898 29.509 417.021 29.605 417.171 29.677C417.327 29.749 417.513 29.785 417.729 29.785C417.945 29.785 418.128 29.749 418.278 29.677C418.434 29.605 418.56 29.509 418.656 29.389C418.752 29.263 418.821 29.122 418.863 28.966C418.905 28.81 418.926 28.645 418.926 28.471V24.628H420.465V28.597ZM424.572 31V28.552C424.572 28.426 424.56 28.306 424.536 28.192C424.518 28.078 424.485 27.979 424.437 27.895C424.389 27.805 424.32 27.736 424.23 27.688C424.146 27.634 424.038 27.607 423.906 27.607C423.774 27.607 423.657 27.634 423.555 27.688C423.459 27.736 423.378 27.805 423.312 27.895C423.246 27.985 423.195 28.09 423.159 28.21C423.129 28.324 423.114 28.444 423.114 28.57V31H421.629V26.518H423.06V27.139H423.078C423.132 27.043 423.201 26.95 423.285 26.86C423.375 26.764 423.477 26.683 423.591 26.617C423.711 26.551 423.84 26.497 423.978 26.455C424.116 26.413 424.263 26.392 424.419 26.392C424.719 26.392 424.974 26.446 425.184 26.554C425.394 26.662 425.562 26.803 425.688 26.977C425.82 27.145 425.913 27.34 425.967 27.562C426.027 27.784 426.057 28.006 426.057 28.228V31H424.572ZM430.568 31V30.415H430.55C430.406 30.643 430.199 30.82 429.929 30.946C429.665 31.066 429.383 31.126 429.083 31.126C428.747 31.126 428.447 31.06 428.183 30.928C427.919 30.796 427.694 30.622 427.508 30.406C427.328 30.184 427.19 29.929 427.094 29.641C426.998 29.353 426.95 29.053 426.95 28.741C426.95 28.429 426.998 28.132 427.094 27.85C427.196 27.562 427.337 27.31 427.517 27.094C427.703 26.878 427.925 26.707 428.183 26.581C428.447 26.455 428.741 26.392 429.065 26.392C429.395 26.392 429.674 26.455 429.902 26.581C430.13 26.707 430.307 26.845 430.433 26.995H430.451V24.196H431.927V31H430.568ZM430.514 28.75C430.514 28.606 430.487 28.465 430.433 28.327C430.385 28.189 430.313 28.066 430.217 27.958C430.127 27.85 430.016 27.763 429.884 27.697C429.752 27.631 429.602 27.598 429.434 27.598C429.26 27.598 429.107 27.631 428.975 27.697C428.843 27.763 428.732 27.85 428.642 27.958C428.552 28.06 428.483 28.18 428.435 28.318C428.393 28.456 428.372 28.597 428.372 28.741C428.372 28.885 428.393 29.029 428.435 29.173C428.483 29.311 428.552 29.434 428.642 29.542C428.732 29.65 428.843 29.737 428.975 29.803C429.107 29.869 429.26 29.902 429.434 29.902C429.602 29.902 429.752 29.869 429.884 29.803C430.016 29.737 430.127 29.65 430.217 29.542C430.313 29.434 430.385 29.311 430.433 29.173C430.487 29.035 430.514 28.894 430.514 28.75ZM436.185 28.246C436.185 28.012 436.11 27.811 435.96 27.643C435.816 27.475 435.597 27.391 435.303 27.391C435.159 27.391 435.027 27.415 434.907 27.463C434.787 27.505 434.682 27.565 434.592 27.643C434.502 27.721 434.43 27.814 434.376 27.922C434.322 28.024 434.292 28.132 434.286 28.246H436.185ZM437.544 28.813C437.544 28.873 437.544 28.933 437.544 28.993C437.544 29.053 437.541 29.11 437.535 29.164H434.286C434.298 29.29 434.334 29.404 434.394 29.506C434.46 29.608 434.541 29.698 434.637 29.776C434.739 29.848 434.85 29.905 434.97 29.947C435.096 29.989 435.225 30.01 435.357 30.01C435.591 30.01 435.789 29.968 435.951 29.884C436.113 29.794 436.245 29.68 436.347 29.542L437.373 30.19C437.163 30.496 436.884 30.733 436.536 30.901C436.194 31.063 435.795 31.144 435.339 31.144C435.003 31.144 434.685 31.093 434.385 30.991C434.085 30.883 433.821 30.73 433.593 30.532C433.371 30.328 433.194 30.079 433.062 29.785C432.936 29.491 432.873 29.155 432.873 28.777C432.873 28.411 432.936 28.081 433.062 27.787C433.188 27.487 433.359 27.235 433.575 27.031C433.791 26.821 434.046 26.659 434.34 26.545C434.634 26.431 434.952 26.374 435.294 26.374C435.624 26.374 435.927 26.431 436.203 26.545C436.479 26.653 436.716 26.812 436.914 27.022C437.112 27.232 437.265 27.487 437.373 27.787C437.487 28.087 437.544 28.429 437.544 28.813ZM441.367 27.724C441.301 27.706 441.235 27.694 441.169 27.688C441.109 27.682 441.049 27.679 440.989 27.679C440.791 27.679 440.623 27.715 440.485 27.787C440.353 27.859 440.245 27.946 440.161 28.048C440.083 28.15 440.026 28.261 439.99 28.381C439.954 28.501 439.936 28.606 439.936 28.696V31H438.46V26.518H439.882V27.166H439.9C440.014 26.938 440.176 26.752 440.386 26.608C440.596 26.464 440.839 26.392 441.115 26.392C441.175 26.392 441.232 26.395 441.286 26.401C441.346 26.407 441.394 26.416 441.43 26.428L441.367 27.724ZM447.734 31H446.249L445.367 28.21H445.349L444.485 31H443L441.452 26.518H443.045L443.819 29.353H443.846L444.647 26.518H446.132L446.96 29.353H446.978L447.761 26.518H449.291L447.734 31ZM452.775 27.724C452.709 27.706 452.643 27.694 452.577 27.688C452.517 27.682 452.457 27.679 452.397 27.679C452.199 27.679 452.031 27.715 451.893 27.787C451.761 27.859 451.653 27.946 451.569 28.048C451.491 28.15 451.434 28.261 451.398 28.381C451.362 28.501 451.344 28.606 451.344 28.696V31H449.868V26.518H451.29V27.166H451.308C451.422 26.938 451.584 26.752 451.794 26.608C452.004 26.464 452.247 26.392 452.523 26.392C452.583 26.392 452.64 26.395 452.694 26.401C452.754 26.407 452.802 26.416 452.838 26.428L452.775 27.724ZM455.038 25.087C455.038 25.201 455.014 25.309 454.966 25.411C454.924 25.507 454.864 25.591 454.786 25.663C454.714 25.735 454.624 25.792 454.516 25.834C454.414 25.876 454.306 25.897 454.192 25.897C453.952 25.897 453.751 25.819 453.589 25.663C453.427 25.501 453.346 25.309 453.346 25.087C453.346 24.979 453.367 24.877 453.409 24.781C453.451 24.679 453.511 24.592 453.589 24.52C453.667 24.448 453.757 24.391 453.859 24.349C453.961 24.301 454.072 24.277 454.192 24.277C454.306 24.277 454.414 24.298 454.516 24.34C454.624 24.382 454.714 24.439 454.786 24.511C454.864 24.583 454.924 24.67 454.966 24.772C455.014 24.868 455.038 24.973 455.038 25.087ZM453.454 31V26.518H454.93V31H453.454ZM457.701 27.625V29.335C457.701 29.545 457.74 29.704 457.818 29.812C457.902 29.914 458.049 29.965 458.259 29.965C458.331 29.965 458.406 29.959 458.484 29.947C458.568 29.935 458.637 29.917 458.691 29.893L458.709 30.973C458.607 31.009 458.478 31.039 458.322 31.063C458.166 31.093 458.01 31.108 457.854 31.108C457.554 31.108 457.302 31.072 457.098 31C456.894 30.922 456.729 30.814 456.603 30.676C456.483 30.532 456.396 30.364 456.342 30.172C456.288 29.974 456.261 29.755 456.261 29.515V27.625H455.541V26.518H456.252V25.339H457.701V26.518H458.754V27.625H457.701ZM461.05 25.087C461.05 25.201 461.026 25.309 460.978 25.411C460.936 25.507 460.876 25.591 460.798 25.663C460.726 25.735 460.636 25.792 460.528 25.834C460.426 25.876 460.318 25.897 460.204 25.897C459.964 25.897 459.763 25.819 459.601 25.663C459.439 25.501 459.358 25.309 459.358 25.087C459.358 24.979 459.379 24.877 459.421 24.781C459.463 24.679 459.523 24.592 459.601 24.52C459.679 24.448 459.769 24.391 459.871 24.349C459.973 24.301 460.084 24.277 460.204 24.277C460.318 24.277 460.426 24.298 460.528 24.34C460.636 24.382 460.726 24.439 460.798 24.511C460.876 24.583 460.936 24.67 460.978 24.772C461.026 24.868 461.05 24.973 461.05 25.087ZM459.466 31V26.518H460.942V31H459.466ZM465.054 31V28.552C465.054 28.426 465.042 28.306 465.018 28.192C465 28.078 464.967 27.979 464.919 27.895C464.871 27.805 464.802 27.736 464.712 27.688C464.628 27.634 464.52 27.607 464.388 27.607C464.256 27.607 464.139 27.634 464.037 27.688C463.941 27.736 463.86 27.805 463.794 27.895C463.728 27.985 463.677 28.09 463.641 28.21C463.611 28.324 463.596 28.444 463.596 28.57V31H462.111V26.518H463.542V27.139H463.56C463.614 27.043 463.683 26.95 463.767 26.86C463.857 26.764 463.959 26.683 464.073 26.617C464.193 26.551 464.322 26.497 464.46 26.455C464.598 26.413 464.745 26.392 464.901 26.392C465.201 26.392 465.456 26.446 465.666 26.554C465.876 26.662 466.044 26.803 466.17 26.977C466.302 27.145 466.395 27.34 466.449 27.562C466.509 27.784 466.539 28.006 466.539 28.228V31H465.054ZM472.409 30.577C472.409 31.015 472.346 31.396 472.22 31.72C472.094 32.044 471.917 32.311 471.689 32.521C471.461 32.737 471.182 32.896 470.852 32.998C470.528 33.106 470.168 33.16 469.772 33.16C469.376 33.16 468.968 33.1 468.548 32.98C468.134 32.86 467.774 32.686 467.468 32.458L468.206 31.405C468.422 31.597 468.659 31.738 468.917 31.828C469.181 31.924 469.439 31.972 469.691 31.972C470.123 31.972 470.441 31.858 470.645 31.63C470.855 31.402 470.96 31.099 470.96 30.721V30.451H470.933C470.795 30.631 470.609 30.775 470.375 30.883C470.141 30.991 469.874 31.045 469.574 31.045C469.232 31.045 468.929 30.985 468.665 30.865C468.401 30.739 468.176 30.571 467.99 30.361C467.81 30.151 467.672 29.908 467.576 29.632C467.48 29.35 467.432 29.053 467.432 28.741C467.432 28.429 467.48 28.132 467.576 27.85C467.672 27.568 467.81 27.319 467.99 27.103C468.176 26.887 468.401 26.716 468.665 26.59C468.929 26.458 469.229 26.392 469.565 26.392C469.847 26.392 470.117 26.449 470.375 26.563C470.633 26.677 470.84 26.854 470.996 27.094H471.014V26.518H472.409V30.577ZM471.005 28.732C471.005 28.582 470.978 28.438 470.924 28.3C470.876 28.162 470.804 28.042 470.708 27.94C470.612 27.832 470.498 27.748 470.366 27.688C470.234 27.628 470.084 27.598 469.916 27.598C469.748 27.598 469.598 27.628 469.466 27.688C469.34 27.748 469.232 27.829 469.142 27.931C469.052 28.033 468.983 28.153 468.935 28.291C468.887 28.429 468.863 28.576 468.863 28.732C468.863 28.882 468.887 29.026 468.935 29.164C468.983 29.302 469.052 29.425 469.142 29.533C469.232 29.635 469.34 29.719 469.466 29.785C469.598 29.845 469.748 29.875 469.916 29.875C470.084 29.875 470.234 29.845 470.366 29.785C470.504 29.719 470.618 29.635 470.708 29.533C470.804 29.431 470.876 29.311 470.924 29.173C470.978 29.035 471.005 28.888 471.005 28.732ZM479.278 26.284C479.146 26.116 478.972 25.984 478.756 25.888C478.546 25.786 478.342 25.735 478.144 25.735C478.042 25.735 477.937 25.744 477.829 25.762C477.727 25.78 477.634 25.816 477.55 25.87C477.466 25.918 477.394 25.984 477.334 26.068C477.28 26.146 477.253 26.248 477.253 26.374C477.253 26.482 477.274 26.572 477.316 26.644C477.364 26.716 477.43 26.779 477.514 26.833C477.604 26.887 477.709 26.938 477.829 26.986C477.949 27.028 478.084 27.073 478.234 27.121C478.45 27.193 478.675 27.274 478.909 27.364C479.143 27.448 479.356 27.562 479.548 27.706C479.74 27.85 479.899 28.03 480.025 28.246C480.151 28.456 480.214 28.72 480.214 29.038C480.214 29.404 480.145 29.722 480.007 29.992C479.875 30.256 479.695 30.475 479.467 30.649C479.239 30.823 478.978 30.952 478.684 31.036C478.39 31.12 478.087 31.162 477.775 31.162C477.319 31.162 476.878 31.084 476.452 30.928C476.026 30.766 475.672 30.538 475.39 30.244L476.398 29.218C476.554 29.41 476.758 29.572 477.01 29.704C477.268 29.83 477.523 29.893 477.775 29.893C477.889 29.893 478 29.881 478.108 29.857C478.216 29.833 478.309 29.794 478.387 29.74C478.471 29.686 478.537 29.614 478.585 29.524C478.633 29.434 478.657 29.326 478.657 29.2C478.657 29.08 478.627 28.978 478.567 28.894C478.507 28.81 478.42 28.735 478.306 28.669C478.198 28.597 478.06 28.534 477.892 28.48C477.73 28.42 477.544 28.357 477.334 28.291C477.13 28.225 476.929 28.147 476.731 28.057C476.539 27.967 476.365 27.853 476.209 27.715C476.059 27.571 475.936 27.4 475.84 27.202C475.75 26.998 475.705 26.752 475.705 26.464C475.705 26.11 475.777 25.807 475.921 25.555C476.065 25.303 476.254 25.096 476.488 24.934C476.722 24.772 476.986 24.655 477.28 24.583C477.574 24.505 477.871 24.466 478.171 24.466C478.531 24.466 478.897 24.532 479.269 24.664C479.647 24.796 479.977 24.991 480.259 25.249L479.278 26.284ZM482.698 27.625V29.335C482.698 29.545 482.737 29.704 482.815 29.812C482.899 29.914 483.046 29.965 483.256 29.965C483.328 29.965 483.403 29.959 483.481 29.947C483.565 29.935 483.634 29.917 483.688 29.893L483.706 30.973C483.604 31.009 483.475 31.039 483.319 31.063C483.163 31.093 483.007 31.108 482.851 31.108C482.551 31.108 482.299 31.072 482.095 31C481.891 30.922 481.726 30.814 481.6 30.676C481.48 30.532 481.393 30.364 481.339 30.172C481.285 29.974 481.258 29.755 481.258 29.515V27.625H480.538V26.518H481.249V25.339H482.698V26.518H483.751V27.625H482.698ZM487.09 29.047H486.901C486.739 29.047 486.574 29.056 486.406 29.074C486.244 29.086 486.097 29.113 485.965 29.155C485.839 29.197 485.734 29.26 485.65 29.344C485.566 29.422 485.524 29.527 485.524 29.659C485.524 29.743 485.542 29.815 485.578 29.875C485.62 29.935 485.671 29.983 485.731 30.019C485.791 30.055 485.86 30.082 485.938 30.1C486.016 30.112 486.091 30.118 486.163 30.118C486.463 30.118 486.691 30.037 486.847 29.875C487.009 29.707 487.09 29.482 487.09 29.2V29.047ZM484.381 27.13C484.645 26.878 484.951 26.689 485.299 26.563C485.653 26.437 486.013 26.374 486.379 26.374C486.757 26.374 487.075 26.422 487.333 26.518C487.597 26.608 487.81 26.752 487.972 26.95C488.134 27.142 488.251 27.388 488.323 27.688C488.401 27.982 488.44 28.333 488.44 28.741V31H487.09V30.523H487.063C486.949 30.709 486.775 30.853 486.541 30.955C486.313 31.057 486.064 31.108 485.794 31.108C485.614 31.108 485.428 31.084 485.236 31.036C485.044 30.988 484.867 30.91 484.705 30.802C484.549 30.694 484.42 30.55 484.318 30.37C484.216 30.19 484.165 29.968 484.165 29.704C484.165 29.38 484.252 29.119 484.426 28.921C484.606 28.723 484.834 28.57 485.11 28.462C485.392 28.354 485.704 28.282 486.046 28.246C486.388 28.21 486.721 28.192 487.045 28.192V28.12C487.045 27.898 486.967 27.736 486.811 27.634C486.655 27.526 486.463 27.472 486.235 27.472C486.025 27.472 485.821 27.517 485.623 27.607C485.431 27.697 485.266 27.805 485.128 27.931L484.381 27.13ZM491.056 27.625V29.335C491.056 29.545 491.095 29.704 491.173 29.812C491.257 29.914 491.404 29.965 491.614 29.965C491.686 29.965 491.761 29.959 491.839 29.947C491.923 29.935 491.992 29.917 492.046 29.893L492.064 30.973C491.962 31.009 491.833 31.039 491.677 31.063C491.521 31.093 491.365 31.108 491.209 31.108C490.909 31.108 490.657 31.072 490.453 31C490.249 30.922 490.084 30.814 489.958 30.676C489.838 30.532 489.751 30.364 489.697 30.172C489.643 29.974 489.616 29.755 489.616 29.515V27.625H488.896V26.518H489.607V25.339H491.056V26.518H492.109V27.625H491.056ZM495.755 31V30.379H495.737C495.683 30.481 495.611 30.577 495.521 30.667C495.437 30.757 495.335 30.835 495.215 30.901C495.101 30.967 494.972 31.021 494.828 31.063C494.69 31.105 494.543 31.126 494.387 31.126C494.087 31.126 493.832 31.072 493.622 30.964C493.418 30.856 493.25 30.718 493.118 30.55C492.992 30.376 492.899 30.181 492.839 29.965C492.785 29.743 492.758 29.518 492.758 29.29V26.518H494.243V28.948C494.243 29.074 494.252 29.194 494.27 29.308C494.288 29.422 494.321 29.524 494.369 29.614C494.423 29.704 494.492 29.776 494.576 29.83C494.66 29.878 494.771 29.902 494.909 29.902C495.167 29.902 495.362 29.806 495.494 29.614C495.632 29.422 495.701 29.197 495.701 28.939V26.518H497.177V31H495.755ZM500.968 27.841C500.848 27.727 500.707 27.631 500.545 27.553C500.383 27.475 500.212 27.436 500.032 27.436C499.894 27.436 499.765 27.463 499.645 27.517C499.531 27.571 499.474 27.664 499.474 27.796C499.474 27.922 499.537 28.012 499.663 28.066C499.795 28.12 500.005 28.18 500.293 28.246C500.461 28.282 500.629 28.333 500.797 28.399C500.971 28.465 501.127 28.552 501.265 28.66C501.403 28.768 501.514 28.9 501.598 29.056C501.682 29.212 501.724 29.398 501.724 29.614C501.724 29.896 501.667 30.136 501.553 30.334C501.439 30.526 501.289 30.682 501.103 30.802C500.923 30.922 500.719 31.009 500.491 31.063C500.263 31.117 500.035 31.144 499.807 31.144C499.441 31.144 499.081 31.087 498.727 30.973C498.379 30.853 498.088 30.679 497.854 30.451L498.682 29.578C498.814 29.722 498.976 29.842 499.168 29.938C499.36 30.034 499.564 30.082 499.78 30.082C499.9 30.082 500.017 30.055 500.131 30.001C500.251 29.941 500.311 29.839 500.311 29.695C500.311 29.557 500.239 29.455 500.095 29.389C499.951 29.323 499.726 29.254 499.42 29.182C499.264 29.146 499.108 29.098 498.952 29.038C498.796 28.978 498.655 28.897 498.529 28.795C498.409 28.693 498.31 28.567 498.232 28.417C498.154 28.267 498.115 28.087 498.115 27.877C498.115 27.607 498.172 27.379 498.286 27.193C498.4 27.001 498.547 26.845 498.727 26.725C498.907 26.605 499.105 26.518 499.321 26.464C499.543 26.404 499.762 26.374 499.978 26.374C500.314 26.374 500.641 26.428 500.959 26.536C501.283 26.638 501.556 26.794 501.778 27.004L500.968 27.841Z" fill="white"/>
<rect x="510" y="19" width="203" height="15" rx="7.5" fill="#676767" fill-opacity="0.692367"/>
<mask id="mask17_204:502" style="mask-type:alpha" maskUnits="userSpaceOnUse" x="510" y="19" width="203" height="15">
<rect x="510" y="19" width="203" height="15" rx="7.5" fill="white"/>
</mask>
<g mask="url(#mask17_204:502)">
</g>
<path d="M611.5 12.5V41.5" stroke="white" stroke-dasharray="5 3"/>
</svg>
