<svg width="299" height="50" viewBox="0 0 299 50" fill="none" xmlns="http://www.w3.org/2000/svg">
<g clip-path="url(#clip0_486_120)">
<path fill-rule="evenodd" clip-rule="evenodd" d="M0 19.1537C0 30.2106 7.26931 38.3071 17.9693 38.3071C28.6698 38.3071 35.9969 30.2106 35.9969 19.1537C35.9969 8.03603 28.6698 0 17.9693 0C7.26931 0 0 8.03603 0 19.1537ZM11.3401 19.1537C11.3401 13.5949 14.015 10.2111 17.9693 10.2111C21.924 10.2111 24.6572 13.5949 24.6572 19.1537C24.6572 24.7123 21.924 28.096 17.9693 28.096C14.015 28.096 11.3401 24.7123 11.3401 19.1537Z" fill="#232323"/>
<path fill-rule="evenodd" clip-rule="evenodd" d="M68.2282 13.3991C68.2282 18.381 65.9022 22.0457 62.1222 23.9924L69.5775 35.8424C65.7067 35.8989 61.8091 35.9775 57.8847 36.0784C57.7014 36.083 57.5183 36.0878 57.3352 36.0926L51.1314 25.653H48.5144L48.5143 36.3604C44.7829 36.4895 41.0805 36.6371 37.4071 36.8033V0.57262H54.795C62.6455 0.57262 68.2282 5.26816 68.2282 13.3991ZM48.5144 16.9492H53.2831C56.1905 16.9492 57.2956 15.5178 57.2956 13.3991C57.2956 11.2232 56.1905 9.79174 53.2831 9.79174H48.5144V16.9492Z" fill="#232323"/>
<path fill-rule="evenodd" clip-rule="evenodd" d="M126.867 0.572461H115.12L102.77 32.7561L92.6178 15.6896L104.016 0.572461H91.1056L81.5103 13.6279V0.572461H70.2287L70.228 35.8329L79.7831 35.7508L79.8114 35.749C80.2616 35.749 80.6934 35.5729 81.0117 35.2595C81.3301 34.9461 81.509 34.521 81.5091 34.0777L81.509 29.3828C81.506 28.7254 81.5083 23.1354 81.509 21.729L81.5109 21.7042C81.5102 21.6197 81.539 21.5376 81.5925 21.4715C81.646 21.4055 81.721 21.3596 81.8048 21.3416C84.1852 21.0126 86.4465 25.8731 88.1862 29.6125C88.7865 30.9029 89.3247 32.0598 89.7843 32.8239C91.5362 35.7366 94.6588 35.776 96.5833 35.8003L96.5844 35.8003C96.6879 35.8016 96.788 35.8029 96.8842 35.8046L96.9182 35.805C102.2 35.8695 107.405 35.9752 112.533 36.1221L113.933 32.3739H127.746L129.335 36.7585C133.284 36.946 137.172 37.158 141 37.3946L126.867 0.572461ZM117.248 23.3838L120.819 13.571L124.431 23.3838H117.248Z" fill="#232323"/>
<path d="M119.513 44.837C113.275 44.4777 110.097 44.8982 109.632 45.915C109.119 47.0388 112.711 47.7316 114.756 48.1259C114.928 48.159 115.089 48.19 115.235 48.219C116.082 48.3865 116.746 48.6972 117.421 49.0133C118.255 49.4034 119.106 49.8018 120.34 49.9492C122.572 50.216 127.513 49.3915 128.978 48.447C129.43 48.1557 129.88 47.9659 130.249 47.8099C131.079 47.4598 131.506 47.2796 130.65 46.5055C129.436 45.4079 125.892 45.204 119.873 44.8578L119.513 44.837Z" fill="#232323"/>
</g>
<path d="M154.365 0.38H158.055C158.515 0.38 158.94 0.435 159.33 0.545C159.73 0.654999 160.07 0.819999 160.35 1.04C160.64 1.25 160.865 1.525 161.025 1.865C161.195 2.195 161.28 2.585 161.28 3.035C161.28 3.645 161.11 4.145 160.77 4.535C160.43 4.915 159.99 5.195 159.45 5.375V5.405C159.77 5.425 160.07 5.51 160.35 5.66C160.63 5.8 160.87 5.99 161.07 6.23C161.28 6.46 161.445 6.73 161.565 7.04C161.685 7.35 161.745 7.685 161.745 8.045C161.745 8.525 161.645 8.95 161.445 9.32C161.255 9.68 160.99 9.985 160.65 10.235C160.31 10.485 159.915 10.675 159.465 10.805C159.015 10.935 158.53 11 158.01 11H154.365V0.38ZM155.805 4.79H157.77C158.04 4.79 158.295 4.765 158.535 4.715C158.775 4.655 158.985 4.56 159.165 4.43C159.345 4.3 159.485 4.135 159.585 3.935C159.695 3.735 159.75 3.49 159.75 3.2C159.75 2.78 159.615 2.415 159.345 2.105C159.075 1.795 158.65 1.64 158.07 1.64H155.805V4.79ZM155.805 9.74H157.92C158.14 9.74 158.38 9.72 158.64 9.68C158.91 9.63 159.16 9.54 159.39 9.41C159.62 9.27 159.815 9.085 159.975 8.855C160.135 8.625 160.215 8.32 160.215 7.94C160.215 7.31 160.01 6.84 159.6 6.53C159.19 6.21 158.635 6.05 157.935 6.05H155.805V9.74ZM168.688 11.27C167.878 11.27 167.133 11.13 166.453 10.85C165.773 10.56 165.188 10.165 164.698 9.665C164.218 9.165 163.838 8.575 163.558 7.895C163.288 7.215 163.153 6.48 163.153 5.69C163.153 4.9 163.288 4.165 163.558 3.485C163.838 2.805 164.218 2.215 164.698 1.715C165.188 1.215 165.773 0.825 166.453 0.545C167.133 0.255 167.878 0.11 168.688 0.11C169.498 0.11 170.243 0.255 170.923 0.545C171.603 0.825 172.183 1.215 172.663 1.715C173.153 2.215 173.533 2.805 173.803 3.485C174.083 4.165 174.223 4.9 174.223 5.69C174.223 6.48 174.083 7.215 173.803 7.895C173.533 8.575 173.153 9.165 172.663 9.665C172.183 10.165 171.603 10.56 170.923 10.85C170.243 11.13 169.498 11.27 168.688 11.27ZM168.688 9.92C169.298 9.92 169.848 9.81 170.338 9.59C170.828 9.36 171.248 9.055 171.598 8.675C171.948 8.295 172.218 7.85 172.408 7.34C172.598 6.82 172.693 6.27 172.693 5.69C172.693 5.11 172.598 4.565 172.408 4.055C172.218 3.535 171.948 3.085 171.598 2.705C171.248 2.325 170.828 2.025 170.338 1.805C169.848 1.575 169.298 1.46 168.688 1.46C168.078 1.46 167.528 1.575 167.038 1.805C166.548 2.025 166.128 2.325 165.778 2.705C165.428 3.085 165.158 3.535 164.968 4.055C164.778 4.565 164.683 5.11 164.683 5.69C164.683 6.27 164.778 6.82 164.968 7.34C165.158 7.85 165.428 8.295 165.778 8.675C166.128 9.055 166.548 9.36 167.038 9.59C167.528 9.81 168.078 9.92 168.688 9.92ZM176.294 0.38H180.029C180.709 0.38 181.269 0.475 181.709 0.665C182.149 0.845 182.494 1.08 182.744 1.37C183.004 1.65 183.184 1.97 183.284 2.33C183.384 2.68 183.434 3.02 183.434 3.35C183.434 3.69 183.374 4.02 183.254 4.34C183.134 4.65 182.959 4.935 182.729 5.195C182.509 5.445 182.234 5.66 181.904 5.84C181.584 6.01 181.224 6.115 180.824 6.155L183.839 11H182.039L179.339 6.32H177.734V11H176.294V0.38ZM177.734 5.06H179.624C179.904 5.06 180.179 5.04 180.449 5C180.729 4.95 180.974 4.865 181.184 4.745C181.404 4.625 181.579 4.455 181.709 4.235C181.839 4.005 181.904 3.71 181.904 3.35C181.904 2.99 181.839 2.7 181.709 2.48C181.579 2.25 181.404 2.075 181.184 1.955C180.974 1.835 180.729 1.755 180.449 1.715C180.179 1.665 179.904 1.64 179.624 1.64H177.734V5.06ZM185.464 0.38H189.199C189.879 0.38 190.439 0.475 190.879 0.665C191.319 0.845 191.664 1.08 191.914 1.37C192.174 1.65 192.354 1.97 192.454 2.33C192.554 2.68 192.604 3.02 192.604 3.35C192.604 3.69 192.544 4.02 192.424 4.34C192.304 4.65 192.129 4.935 191.899 5.195C191.679 5.445 191.404 5.66 191.074 5.84C190.754 6.01 190.394 6.115 189.994 6.155L193.009 11H191.209L188.509 6.32H186.904V11H185.464V0.38ZM186.904 5.06H188.794C189.074 5.06 189.349 5.04 189.619 5C189.899 4.95 190.144 4.865 190.354 4.745C190.574 4.625 190.749 4.455 190.879 4.235C191.009 4.005 191.074 3.71 191.074 3.35C191.074 2.99 191.009 2.7 190.879 2.48C190.749 2.25 190.574 2.075 190.354 1.955C190.144 1.835 189.899 1.755 189.619 1.715C189.349 1.665 189.074 1.64 188.794 1.64H186.904V5.06ZM199.509 11.27C198.699 11.27 197.954 11.13 197.274 10.85C196.594 10.56 196.009 10.165 195.519 9.665C195.039 9.165 194.659 8.575 194.379 7.895C194.109 7.215 193.974 6.48 193.974 5.69C193.974 4.9 194.109 4.165 194.379 3.485C194.659 2.805 195.039 2.215 195.519 1.715C196.009 1.215 196.594 0.825 197.274 0.545C197.954 0.255 198.699 0.11 199.509 0.11C200.319 0.11 201.064 0.255 201.744 0.545C202.424 0.825 203.004 1.215 203.484 1.715C203.974 2.215 204.354 2.805 204.624 3.485C204.904 4.165 205.044 4.9 205.044 5.69C205.044 6.48 204.904 7.215 204.624 7.895C204.354 8.575 203.974 9.165 203.484 9.665C203.004 10.165 202.424 10.56 201.744 10.85C201.064 11.13 200.319 11.27 199.509 11.27ZM199.509 9.92C200.119 9.92 200.669 9.81 201.159 9.59C201.649 9.36 202.069 9.055 202.419 8.675C202.769 8.295 203.039 7.85 203.229 7.34C203.419 6.82 203.514 6.27 203.514 5.69C203.514 5.11 203.419 4.565 203.229 4.055C203.039 3.535 202.769 3.085 202.419 2.705C202.069 2.325 201.649 2.025 201.159 1.805C200.669 1.575 200.119 1.46 199.509 1.46C198.899 1.46 198.349 1.575 197.859 1.805C197.369 2.025 196.949 2.325 196.599 2.705C196.249 3.085 195.979 3.535 195.789 4.055C195.599 4.565 195.504 5.11 195.504 5.69C195.504 6.27 195.599 6.82 195.789 7.34C195.979 7.85 196.249 8.295 196.599 8.675C196.949 9.055 197.369 9.36 197.859 9.59C198.349 9.81 198.899 9.92 199.509 9.92ZM205.764 0.38H207.264L209.604 8.87H209.634L212.139 0.38H213.789L216.294 8.87H216.324L218.664 0.38H220.164L217.074 11H215.559L212.979 2.33H212.949L210.384 11H208.869L205.764 0.38ZM221.543 0.38H228.398V1.73H222.983V4.895H228.023V6.245H222.983V9.65H228.668V11H221.543V0.38ZM230.713 0.38H234.448C235.128 0.38 235.688 0.475 236.128 0.665C236.568 0.845 236.913 1.08 237.163 1.37C237.423 1.65 237.603 1.97 237.703 2.33C237.803 2.68 237.853 3.02 237.853 3.35C237.853 3.69 237.793 4.02 237.673 4.34C237.553 4.65 237.378 4.935 237.148 5.195C236.928 5.445 236.653 5.66 236.323 5.84C236.003 6.01 235.643 6.115 235.243 6.155L238.258 11H236.458L233.758 6.32H232.153V11H230.713V0.38ZM232.153 5.06H234.043C234.323 5.06 234.598 5.04 234.868 5C235.148 4.95 235.393 4.865 235.603 4.745C235.823 4.625 235.998 4.455 236.128 4.235C236.258 4.005 236.323 3.71 236.323 3.35C236.323 2.99 236.258 2.7 236.128 2.48C235.998 2.25 235.823 2.075 235.603 1.955C235.393 1.835 235.148 1.755 234.868 1.715C234.598 1.665 234.323 1.64 234.043 1.64H232.153V5.06ZM244.057 0.38H247.792C248.472 0.38 249.032 0.475 249.472 0.665C249.912 0.845 250.257 1.08 250.507 1.37C250.767 1.65 250.947 1.97 251.047 2.33C251.147 2.68 251.197 3.02 251.197 3.35C251.197 3.68 251.147 4.025 251.047 4.385C250.947 4.735 250.767 5.055 250.507 5.345C250.257 5.625 249.912 5.86 249.472 6.05C249.032 6.23 248.472 6.32 247.792 6.32H245.497V11H244.057V0.38ZM245.497 5.06H247.387C247.667 5.06 247.942 5.04 248.212 5C248.492 4.95 248.737 4.865 248.947 4.745C249.167 4.625 249.342 4.455 249.472 4.235C249.602 4.005 249.667 3.71 249.667 3.35C249.667 2.99 249.602 2.7 249.472 2.48C249.342 2.25 249.167 2.075 248.947 1.955C248.737 1.835 248.492 1.755 248.212 1.715C247.942 1.665 247.667 1.64 247.387 1.64H245.497V5.06ZM257.824 11.27C257.014 11.27 256.269 11.13 255.589 10.85C254.909 10.56 254.324 10.165 253.834 9.665C253.354 9.165 252.974 8.575 252.694 7.895C252.424 7.215 252.289 6.48 252.289 5.69C252.289 4.9 252.424 4.165 252.694 3.485C252.974 2.805 253.354 2.215 253.834 1.715C254.324 1.215 254.909 0.825 255.589 0.545C256.269 0.255 257.014 0.11 257.824 0.11C258.634 0.11 259.379 0.255 260.059 0.545C260.739 0.825 261.319 1.215 261.799 1.715C262.289 2.215 262.669 2.805 262.939 3.485C263.219 4.165 263.359 4.9 263.359 5.69C263.359 6.48 263.219 7.215 262.939 7.895C262.669 8.575 262.289 9.165 261.799 9.665C261.319 10.165 260.739 10.56 260.059 10.85C259.379 11.13 258.634 11.27 257.824 11.27ZM257.824 9.92C258.434 9.92 258.984 9.81 259.474 9.59C259.964 9.36 260.384 9.055 260.734 8.675C261.084 8.295 261.354 7.85 261.544 7.34C261.734 6.82 261.829 6.27 261.829 5.69C261.829 5.11 261.734 4.565 261.544 4.055C261.354 3.535 261.084 3.085 260.734 2.705C260.384 2.325 259.964 2.025 259.474 1.805C258.984 1.575 258.434 1.46 257.824 1.46C257.214 1.46 256.664 1.575 256.174 1.805C255.684 2.025 255.264 2.325 254.914 2.705C254.564 3.085 254.294 3.535 254.104 4.055C253.914 4.565 253.819 5.11 253.819 5.69C253.819 6.27 253.914 6.82 254.104 7.34C254.294 7.85 254.564 8.295 254.914 8.675C255.264 9.055 255.684 9.36 256.174 9.59C256.664 9.81 257.214 9.92 257.824 9.92ZM265.429 0.38H269.164C269.844 0.38 270.404 0.475 270.844 0.665C271.284 0.845 271.629 1.08 271.879 1.37C272.139 1.65 272.319 1.97 272.419 2.33C272.519 2.68 272.569 3.02 272.569 3.35C272.569 3.69 272.509 4.02 272.389 4.34C272.269 4.65 272.094 4.935 271.864 5.195C271.644 5.445 271.369 5.66 271.039 5.84C270.719 6.01 270.359 6.115 269.959 6.155L272.974 11H271.174L268.474 6.32H266.869V11H265.429V0.38ZM266.869 5.06H268.759C269.039 5.06 269.314 5.04 269.584 5C269.864 4.95 270.109 4.865 270.319 4.745C270.539 4.625 270.714 4.455 270.844 4.235C270.974 4.005 271.039 3.71 271.039 3.35C271.039 2.99 270.974 2.7 270.844 2.48C270.714 2.25 270.539 2.075 270.319 1.955C270.109 1.835 269.864 1.755 269.584 1.715C269.314 1.665 269.039 1.64 268.759 1.64H266.869V5.06ZM276.556 1.73H273.136V0.38H281.416V1.73H277.996V11H276.556V1.73ZM284.902 0.38H286.207L290.752 11H289.072L288.007 8.375H282.952L281.902 11H280.222L284.902 0.38ZM287.482 7.115L285.502 2.24H285.472L283.462 7.115H287.482ZM292.134 0.38H293.574V9.65H298.449V11H292.134V0.38Z" fill="#232323"/>
<defs>
<clipPath id="clip0_486_120">
<rect width="141" height="50" fill="white"/>
</clipPath>
</defs>
</svg>
