<svg width="429" height="53" viewBox="0 0 429 53" fill="none" xmlns="http://www.w3.org/2000/svg">
<rect width="429" height="53" rx="26.5" fill="#00B0C7"/>
<mask id="mask0_229:526" style="mask-type:alpha" maskUnits="userSpaceOnUse" x="68" y="12" width="29" height="23">
<path fill-rule="evenodd" clip-rule="evenodd" d="M68 12.4077H96.7623V34.9483H68V12.4077Z" fill="white"/>
</mask>
<g mask="url(#mask0_229:526)">
<path fill-rule="evenodd" clip-rule="evenodd" d="M91.0689 25.6915H78.126L70.1209 33.4223H69.503L70.7935 17.9577H90.1281L89.4516 20.7976H74.3298L71.48 28.5061L71.9195 28.6079L75.2857 22.3237H93.1012L91.0689 25.6915ZM92.8697 25.6915L96.0993 20.7976H90.9914L92.0917 16.4317H88.1606V14.5968H78.5772L76.5243 12.4072H68V33.3648C68 34.2394 68.6876 34.9484 69.5364 34.9484H73.0599L79.8236 28.3779L86.5461 34.9484C87.0385 34.9484 87.5086 34.7368 87.8438 34.3642L96.7624 25.6915H92.8697Z" fill="white"/>
</g>
<path d="M119.114 28.194C119.114 28.962 118.982 29.664 118.718 30.3C118.466 30.924 118.1 31.464 117.62 31.92C117.14 32.364 116.558 32.712 115.874 32.964C115.202 33.216 114.452 33.342 113.624 33.342C112.784 33.342 112.028 33.216 111.356 32.964C110.684 32.712 110.114 32.364 109.646 31.92C109.178 31.464 108.818 30.924 108.566 30.3C108.314 29.664 108.188 28.962 108.188 28.194V20.256H111.248V27.942C111.248 28.29 111.29 28.62 111.374 28.932C111.47 29.244 111.608 29.526 111.788 29.778C111.98 30.018 112.226 30.21 112.526 30.354C112.838 30.498 113.21 30.57 113.642 30.57C114.074 30.57 114.44 30.498 114.74 30.354C115.052 30.21 115.304 30.018 115.496 29.778C115.688 29.526 115.826 29.244 115.91 28.932C115.994 28.62 116.036 28.29 116.036 27.942V20.256H119.114V28.194ZM131.213 28.482C131.213 29.106 131.117 29.706 130.925 30.282C130.733 30.858 130.451 31.368 130.079 31.812C129.719 32.244 129.275 32.592 128.747 32.856C128.219 33.12 127.619 33.252 126.947 33.252C126.395 33.252 125.873 33.144 125.381 32.928C124.889 32.7 124.505 32.394 124.229 32.01H124.193V37.32H121.241V24.036H124.049V25.134H124.103C124.379 24.774 124.757 24.462 125.237 24.198C125.729 23.922 126.305 23.784 126.965 23.784C127.613 23.784 128.201 23.91 128.729 24.162C129.257 24.414 129.701 24.756 130.061 25.188C130.433 25.62 130.715 26.124 130.907 26.7C131.111 27.264 131.213 27.858 131.213 28.482ZM128.351 28.482C128.351 28.194 128.303 27.912 128.207 27.636C128.123 27.36 127.991 27.12 127.811 26.916C127.643 26.7 127.427 26.526 127.163 26.394C126.899 26.262 126.593 26.196 126.245 26.196C125.909 26.196 125.609 26.262 125.345 26.394C125.081 26.526 124.853 26.7 124.661 26.916C124.481 27.132 124.337 27.378 124.229 27.654C124.133 27.93 124.085 28.212 124.085 28.5C124.085 28.788 124.133 29.07 124.229 29.346C124.337 29.622 124.481 29.868 124.661 30.084C124.853 30.3 125.081 30.474 125.345 30.606C125.609 30.738 125.909 30.804 126.245 30.804C126.593 30.804 126.899 30.738 127.163 30.606C127.427 30.474 127.643 30.3 127.811 30.084C127.991 29.868 128.123 29.622 128.207 29.346C128.303 29.058 128.351 28.77 128.351 28.482ZM132.907 33V19.392H135.895V33H132.907ZM147.536 28.482C147.536 29.214 147.404 29.88 147.14 30.48C146.876 31.068 146.516 31.572 146.06 31.992C145.604 32.4 145.076 32.718 144.476 32.946C143.876 33.174 143.234 33.288 142.55 33.288C141.878 33.288 141.236 33.174 140.624 32.946C140.024 32.718 139.496 32.4 139.04 31.992C138.596 31.572 138.242 31.068 137.978 30.48C137.714 29.88 137.582 29.214 137.582 28.482C137.582 27.75 137.714 27.09 137.978 26.502C138.242 25.914 138.596 25.416 139.04 25.008C139.496 24.6 140.024 24.288 140.624 24.072C141.236 23.856 141.878 23.748 142.55 23.748C143.234 23.748 143.876 23.856 144.476 24.072C145.076 24.288 145.604 24.6 146.06 25.008C146.516 25.416 146.876 25.914 147.14 26.502C147.404 27.09 147.536 27.75 147.536 28.482ZM144.692 28.482C144.692 28.194 144.644 27.912 144.548 27.636C144.452 27.36 144.314 27.12 144.134 26.916C143.954 26.7 143.732 26.526 143.468 26.394C143.204 26.262 142.898 26.196 142.55 26.196C142.202 26.196 141.896 26.262 141.632 26.394C141.368 26.526 141.146 26.7 140.966 26.916C140.798 27.12 140.666 27.36 140.57 27.636C140.486 27.912 140.444 28.194 140.444 28.482C140.444 28.77 140.486 29.052 140.57 29.328C140.666 29.604 140.804 29.856 140.984 30.084C141.164 30.3 141.386 30.474 141.65 30.606C141.914 30.738 142.22 30.804 142.568 30.804C142.916 30.804 143.222 30.738 143.486 30.606C143.75 30.474 143.972 30.3 144.152 30.084C144.332 29.856 144.464 29.604 144.548 29.328C144.644 29.052 144.692 28.77 144.692 28.482ZM154.498 29.094H154.12C153.796 29.094 153.466 29.112 153.13 29.148C152.806 29.172 152.512 29.226 152.248 29.31C151.996 29.394 151.786 29.52 151.618 29.688C151.45 29.844 151.366 30.054 151.366 30.318C151.366 30.486 151.402 30.63 151.474 30.75C151.558 30.87 151.66 30.966 151.78 31.038C151.9 31.11 152.038 31.164 152.194 31.2C152.35 31.224 152.5 31.236 152.644 31.236C153.244 31.236 153.7 31.074 154.012 30.75C154.336 30.414 154.498 29.964 154.498 29.4V29.094ZM149.08 25.26C149.608 24.756 150.22 24.378 150.916 24.126C151.624 23.874 152.344 23.748 153.076 23.748C153.832 23.748 154.468 23.844 154.984 24.036C155.512 24.216 155.938 24.504 156.262 24.9C156.586 25.284 156.82 25.776 156.964 26.376C157.12 26.964 157.198 27.666 157.198 28.482V33H154.498V32.046H154.444C154.216 32.418 153.868 32.706 153.4 32.91C152.944 33.114 152.446 33.216 151.906 33.216C151.546 33.216 151.174 33.168 150.79 33.072C150.406 32.976 150.052 32.82 149.728 32.604C149.416 32.388 149.158 32.1 148.954 31.74C148.75 31.38 148.648 30.936 148.648 30.408C148.648 29.76 148.822 29.238 149.17 28.842C149.53 28.446 149.986 28.14 150.538 27.924C151.102 27.708 151.726 27.564 152.41 27.492C153.094 27.42 153.76 27.384 154.408 27.384V27.24C154.408 26.796 154.252 26.472 153.94 26.268C153.628 26.052 153.244 25.944 152.788 25.944C152.368 25.944 151.96 26.034 151.564 26.214C151.18 26.394 150.85 26.61 150.574 26.862L149.08 25.26ZM165.987 33V31.83H165.951C165.663 32.286 165.249 32.64 164.709 32.892C164.181 33.132 163.617 33.252 163.017 33.252C162.345 33.252 161.745 33.12 161.217 32.856C160.689 32.592 160.239 32.244 159.867 31.812C159.507 31.368 159.231 30.858 159.039 30.282C158.847 29.706 158.751 29.106 158.751 28.482C158.751 27.858 158.847 27.264 159.039 26.7C159.243 26.124 159.525 25.62 159.885 25.188C160.257 24.756 160.701 24.414 161.217 24.162C161.745 23.91 162.333 23.784 162.981 23.784C163.641 23.784 164.199 23.91 164.655 24.162C165.111 24.414 165.465 24.69 165.717 24.99H165.753V19.392H168.705V33H165.987ZM165.879 28.5C165.879 28.212 165.825 27.93 165.717 27.654C165.621 27.378 165.477 27.132 165.285 26.916C165.105 26.7 164.883 26.526 164.619 26.394C164.355 26.262 164.055 26.196 163.719 26.196C163.371 26.196 163.065 26.262 162.801 26.394C162.537 26.526 162.315 26.7 162.135 26.916C161.955 27.12 161.817 27.36 161.721 27.636C161.637 27.912 161.595 28.194 161.595 28.482C161.595 28.77 161.637 29.058 161.721 29.346C161.817 29.622 161.955 29.868 162.135 30.084C162.315 30.3 162.537 30.474 162.801 30.606C163.065 30.738 163.371 30.804 163.719 30.804C164.055 30.804 164.355 30.738 164.619 30.606C164.883 30.474 165.105 30.3 165.285 30.084C165.477 29.868 165.621 29.622 165.717 29.346C165.825 29.07 165.879 28.788 165.879 28.5ZM185.12 28.482C185.12 29.106 185.024 29.706 184.832 30.282C184.64 30.858 184.358 31.368 183.986 31.812C183.626 32.244 183.182 32.592 182.654 32.856C182.126 33.12 181.526 33.252 180.854 33.252C180.302 33.252 179.78 33.144 179.288 32.928C178.796 32.7 178.412 32.394 178.136 32.01H178.1V37.32H175.148V24.036H177.956V25.134H178.01C178.286 24.774 178.664 24.462 179.144 24.198C179.636 23.922 180.212 23.784 180.872 23.784C181.52 23.784 182.108 23.91 182.636 24.162C183.164 24.414 183.608 24.756 183.968 25.188C184.34 25.62 184.622 26.124 184.814 26.7C185.018 27.264 185.12 27.858 185.12 28.482ZM182.258 28.482C182.258 28.194 182.21 27.912 182.114 27.636C182.03 27.36 181.898 27.12 181.718 26.916C181.55 26.7 181.334 26.526 181.07 26.394C180.806 26.262 180.5 26.196 180.152 26.196C179.816 26.196 179.516 26.262 179.252 26.394C178.988 26.526 178.76 26.7 178.568 26.916C178.388 27.132 178.244 27.378 178.136 27.654C178.04 27.93 177.992 28.212 177.992 28.5C177.992 28.788 178.04 29.07 178.136 29.346C178.244 29.622 178.388 29.868 178.568 30.084C178.76 30.3 178.988 30.474 179.252 30.606C179.516 30.738 179.816 30.804 180.152 30.804C180.5 30.804 180.806 30.738 181.07 30.606C181.334 30.474 181.55 30.3 181.718 30.084C181.898 29.868 182.03 29.622 182.114 29.346C182.21 29.058 182.258 28.77 182.258 28.482ZM192.593 26.448C192.461 26.412 192.329 26.388 192.197 26.376C192.077 26.364 191.957 26.358 191.837 26.358C191.441 26.358 191.105 26.43 190.829 26.574C190.565 26.718 190.349 26.892 190.181 27.096C190.025 27.3 189.911 27.522 189.839 27.762C189.767 28.002 189.731 28.212 189.731 28.392V33H186.779V24.036H189.623V25.332H189.659C189.887 24.876 190.211 24.504 190.631 24.216C191.051 23.928 191.537 23.784 192.089 23.784C192.209 23.784 192.323 23.79 192.431 23.802C192.551 23.814 192.647 23.832 192.719 23.856L192.593 26.448ZM202.903 28.482C202.903 29.214 202.771 29.88 202.507 30.48C202.243 31.068 201.883 31.572 201.427 31.992C200.971 32.4 200.443 32.718 199.843 32.946C199.243 33.174 198.601 33.288 197.917 33.288C197.245 33.288 196.603 33.174 195.991 32.946C195.391 32.718 194.863 32.4 194.407 31.992C193.963 31.572 193.609 31.068 193.345 30.48C193.081 29.88 192.949 29.214 192.949 28.482C192.949 27.75 193.081 27.09 193.345 26.502C193.609 25.914 193.963 25.416 194.407 25.008C194.863 24.6 195.391 24.288 195.991 24.072C196.603 23.856 197.245 23.748 197.917 23.748C198.601 23.748 199.243 23.856 199.843 24.072C200.443 24.288 200.971 24.6 201.427 25.008C201.883 25.416 202.243 25.914 202.507 26.502C202.771 27.09 202.903 27.75 202.903 28.482ZM200.059 28.482C200.059 28.194 200.011 27.912 199.915 27.636C199.819 27.36 199.681 27.12 199.501 26.916C199.321 26.7 199.099 26.526 198.835 26.394C198.571 26.262 198.265 26.196 197.917 26.196C197.569 26.196 197.263 26.262 196.999 26.394C196.735 26.526 196.513 26.7 196.333 26.916C196.165 27.12 196.033 27.36 195.937 27.636C195.853 27.912 195.811 28.194 195.811 28.482C195.811 28.77 195.853 29.052 195.937 29.328C196.033 29.604 196.171 29.856 196.351 30.084C196.531 30.3 196.753 30.474 197.017 30.606C197.281 30.738 197.587 30.804 197.935 30.804C198.283 30.804 198.589 30.738 198.853 30.606C199.117 30.474 199.339 30.3 199.519 30.084C199.699 29.856 199.831 29.604 199.915 29.328C200.011 29.052 200.059 28.77 200.059 28.482ZM207.83 21.174C207.83 21.402 207.782 21.618 207.686 21.822C207.602 22.014 207.482 22.182 207.326 22.326C207.182 22.47 207.002 22.584 206.786 22.668C206.582 22.752 206.366 22.794 206.138 22.794C205.658 22.794 205.256 22.638 204.932 22.326C204.608 22.002 204.446 21.618 204.446 21.174C204.446 20.958 204.488 20.754 204.572 20.562C204.656 20.358 204.776 20.184 204.932 20.04C205.088 19.896 205.268 19.782 205.472 19.698C205.676 19.602 205.898 19.554 206.138 19.554C206.366 19.554 206.582 19.596 206.786 19.68C207.002 19.764 207.182 19.878 207.326 20.022C207.482 20.166 207.602 20.34 207.686 20.544C207.782 20.736 207.83 20.946 207.83 21.174ZM207.614 33.234C207.614 33.786 207.56 34.308 207.452 34.8C207.356 35.304 207.176 35.742 206.912 36.114C206.648 36.486 206.282 36.78 205.814 36.996C205.346 37.212 204.752 37.32 204.032 37.32C203.828 37.32 203.606 37.308 203.366 37.284C203.126 37.26 202.922 37.224 202.754 37.176L202.952 34.71C203.06 34.746 203.174 34.77 203.294 34.782C203.402 34.794 203.498 34.8 203.582 34.8C204.014 34.8 204.302 34.65 204.446 34.35C204.59 34.062 204.662 33.69 204.662 33.234V24.036H207.614V33.234ZM215.925 27.492C215.925 27.024 215.775 26.622 215.475 26.286C215.187 25.95 214.749 25.782 214.161 25.782C213.873 25.782 213.609 25.83 213.369 25.926C213.129 26.01 212.919 26.13 212.739 26.286C212.559 26.442 212.415 26.628 212.307 26.844C212.199 27.048 212.139 27.264 212.127 27.492H215.925ZM218.643 28.626C218.643 28.746 218.643 28.866 218.643 28.986C218.643 29.106 218.637 29.22 218.625 29.328H212.127C212.151 29.58 212.223 29.808 212.343 30.012C212.475 30.216 212.637 30.396 212.829 30.552C213.033 30.696 213.255 30.81 213.495 30.894C213.747 30.978 214.005 31.02 214.269 31.02C214.737 31.02 215.133 30.936 215.457 30.768C215.781 30.588 216.045 30.36 216.249 30.084L218.301 31.38C217.881 31.992 217.323 32.466 216.627 32.802C215.943 33.126 215.145 33.288 214.233 33.288C213.561 33.288 212.925 33.186 212.325 32.982C211.725 32.766 211.197 32.46 210.741 32.064C210.297 31.656 209.943 31.158 209.679 30.57C209.427 29.982 209.301 29.31 209.301 28.554C209.301 27.822 209.427 27.162 209.679 26.574C209.931 25.974 210.273 25.47 210.705 25.062C211.137 24.642 211.647 24.318 212.235 24.09C212.823 23.862 213.459 23.748 214.143 23.748C214.803 23.748 215.409 23.862 215.961 24.09C216.513 24.306 216.987 24.624 217.383 25.044C217.779 25.464 218.085 25.974 218.301 26.574C218.529 27.174 218.643 27.858 218.643 28.626ZM226.447 26.934C226.279 26.718 226.051 26.544 225.763 26.412C225.475 26.28 225.181 26.214 224.881 26.214C224.569 26.214 224.287 26.28 224.035 26.412C223.783 26.532 223.567 26.7 223.387 26.916C223.207 27.12 223.063 27.36 222.955 27.636C222.859 27.912 222.811 28.206 222.811 28.518C222.811 28.83 222.859 29.124 222.955 29.4C223.051 29.676 223.189 29.922 223.369 30.138C223.561 30.342 223.783 30.504 224.035 30.624C224.299 30.744 224.593 30.804 224.917 30.804C225.217 30.804 225.511 30.75 225.799 30.642C226.099 30.522 226.339 30.354 226.519 30.138L228.157 32.136C227.785 32.496 227.305 32.778 226.717 32.982C226.129 33.186 225.505 33.288 224.845 33.288C224.137 33.288 223.477 33.18 222.865 32.964C222.253 32.748 221.719 32.436 221.263 32.028C220.819 31.608 220.465 31.104 220.201 30.516C219.949 29.928 219.823 29.262 219.823 28.518C219.823 27.786 219.949 27.126 220.201 26.538C220.465 25.95 220.819 25.452 221.263 25.044C221.719 24.624 222.253 24.306 222.865 24.09C223.477 23.862 224.131 23.748 224.827 23.748C225.151 23.748 225.469 23.778 225.781 23.838C226.105 23.898 226.411 23.982 226.699 24.09C226.999 24.186 227.269 24.312 227.509 24.468C227.761 24.612 227.977 24.774 228.157 24.954L226.447 26.934ZM232.33 26.25V29.67C232.33 30.09 232.408 30.408 232.564 30.624C232.732 30.828 233.026 30.93 233.446 30.93C233.59 30.93 233.74 30.918 233.896 30.894C234.064 30.87 234.202 30.834 234.31 30.786L234.346 32.946C234.142 33.018 233.884 33.078 233.572 33.126C233.26 33.186 232.948 33.216 232.636 33.216C232.036 33.216 231.532 33.144 231.124 33C230.716 32.844 230.386 32.628 230.134 32.352C229.894 32.064 229.72 31.728 229.612 31.344C229.504 30.948 229.45 30.51 229.45 30.03V26.25H228.01V24.036H229.432V21.678H232.33V24.036H234.436V26.25H232.33ZM246.709 33V31.83H246.673C246.385 32.286 245.971 32.64 245.431 32.892C244.903 33.132 244.339 33.252 243.739 33.252C243.067 33.252 242.467 33.12 241.939 32.856C241.411 32.592 240.961 32.244 240.589 31.812C240.229 31.368 239.953 30.858 239.761 30.282C239.569 29.706 239.473 29.106 239.473 28.482C239.473 27.858 239.569 27.264 239.761 26.7C239.965 26.124 240.247 25.62 240.607 25.188C240.979 24.756 241.423 24.414 241.939 24.162C242.467 23.91 243.055 23.784 243.703 23.784C244.363 23.784 244.921 23.91 245.377 24.162C245.833 24.414 246.187 24.69 246.439 24.99H246.475V19.392H249.427V33H246.709ZM246.601 28.5C246.601 28.212 246.547 27.93 246.439 27.654C246.343 27.378 246.199 27.132 246.007 26.916C245.827 26.7 245.605 26.526 245.341 26.394C245.077 26.262 244.777 26.196 244.441 26.196C244.093 26.196 243.787 26.262 243.523 26.394C243.259 26.526 243.037 26.7 242.857 26.916C242.677 27.12 242.539 27.36 242.443 27.636C242.359 27.912 242.317 28.194 242.317 28.482C242.317 28.77 242.359 29.058 242.443 29.346C242.539 29.622 242.677 29.868 242.857 30.084C243.037 30.3 243.259 30.474 243.523 30.606C243.787 30.738 244.093 30.804 244.441 30.804C244.777 30.804 245.077 30.738 245.341 30.606C245.605 30.474 245.827 30.3 246.007 30.084C246.199 29.868 246.343 29.622 246.439 29.346C246.547 29.07 246.601 28.788 246.601 28.5ZM261.075 28.482C261.075 29.214 260.943 29.88 260.679 30.48C260.415 31.068 260.055 31.572 259.599 31.992C259.143 32.4 258.615 32.718 258.015 32.946C257.415 33.174 256.773 33.288 256.089 33.288C255.417 33.288 254.775 33.174 254.163 32.946C253.563 32.718 253.035 32.4 252.579 31.992C252.135 31.572 251.781 31.068 251.517 30.48C251.253 29.88 251.121 29.214 251.121 28.482C251.121 27.75 251.253 27.09 251.517 26.502C251.781 25.914 252.135 25.416 252.579 25.008C253.035 24.6 253.563 24.288 254.163 24.072C254.775 23.856 255.417 23.748 256.089 23.748C256.773 23.748 257.415 23.856 258.015 24.072C258.615 24.288 259.143 24.6 259.599 25.008C260.055 25.416 260.415 25.914 260.679 26.502C260.943 27.09 261.075 27.75 261.075 28.482ZM258.231 28.482C258.231 28.194 258.183 27.912 258.087 27.636C257.991 27.36 257.853 27.12 257.673 26.916C257.493 26.7 257.271 26.526 257.007 26.394C256.743 26.262 256.437 26.196 256.089 26.196C255.741 26.196 255.435 26.262 255.171 26.394C254.907 26.526 254.685 26.7 254.505 26.916C254.337 27.12 254.205 27.36 254.109 27.636C254.025 27.912 253.983 28.194 253.983 28.482C253.983 28.77 254.025 29.052 254.109 29.328C254.205 29.604 254.343 29.856 254.523 30.084C254.703 30.3 254.925 30.474 255.189 30.606C255.453 30.738 255.759 30.804 256.107 30.804C256.455 30.804 256.761 30.738 257.025 30.606C257.289 30.474 257.511 30.3 257.691 30.084C257.871 29.856 258.003 29.604 258.087 29.328C258.183 29.052 258.231 28.77 258.231 28.482ZM268.918 26.934C268.75 26.718 268.522 26.544 268.234 26.412C267.946 26.28 267.652 26.214 267.352 26.214C267.04 26.214 266.758 26.28 266.506 26.412C266.254 26.532 266.038 26.7 265.858 26.916C265.678 27.12 265.534 27.36 265.426 27.636C265.33 27.912 265.282 28.206 265.282 28.518C265.282 28.83 265.33 29.124 265.426 29.4C265.522 29.676 265.66 29.922 265.84 30.138C266.032 30.342 266.254 30.504 266.506 30.624C266.77 30.744 267.064 30.804 267.388 30.804C267.688 30.804 267.982 30.75 268.27 30.642C268.57 30.522 268.81 30.354 268.99 30.138L270.628 32.136C270.256 32.496 269.776 32.778 269.188 32.982C268.6 33.186 267.976 33.288 267.316 33.288C266.608 33.288 265.948 33.18 265.336 32.964C264.724 32.748 264.19 32.436 263.734 32.028C263.29 31.608 262.936 31.104 262.672 30.516C262.42 29.928 262.294 29.262 262.294 28.518C262.294 27.786 262.42 27.126 262.672 26.538C262.936 25.95 263.29 25.452 263.734 25.044C264.19 24.624 264.724 24.306 265.336 24.09C265.948 23.862 266.602 23.748 267.298 23.748C267.622 23.748 267.94 23.778 268.252 23.838C268.576 23.898 268.882 23.982 269.17 24.09C269.47 24.186 269.74 24.312 269.98 24.468C270.232 24.612 270.448 24.774 270.628 24.954L268.918 26.934ZM277.501 33V31.758H277.465C277.357 31.962 277.213 32.154 277.033 32.334C276.865 32.514 276.661 32.67 276.421 32.802C276.193 32.934 275.935 33.042 275.647 33.126C275.371 33.21 275.077 33.252 274.765 33.252C274.165 33.252 273.655 33.144 273.235 32.928C272.827 32.712 272.491 32.436 272.227 32.1C271.975 31.752 271.789 31.362 271.669 30.93C271.561 30.486 271.507 30.036 271.507 29.58V24.036H274.477V28.896C274.477 29.148 274.495 29.388 274.531 29.616C274.567 29.844 274.633 30.048 274.729 30.228C274.837 30.408 274.975 30.552 275.143 30.66C275.311 30.756 275.533 30.804 275.809 30.804C276.325 30.804 276.715 30.612 276.979 30.228C277.255 29.844 277.393 29.394 277.393 28.878V24.036H280.345V33H277.501ZM293.902 33V28.104C293.902 27.852 293.884 27.612 293.848 27.384C293.812 27.144 293.746 26.94 293.65 26.772C293.554 26.604 293.422 26.472 293.254 26.376C293.098 26.268 292.888 26.214 292.624 26.214C292.372 26.214 292.15 26.268 291.958 26.376C291.778 26.484 291.622 26.628 291.49 26.808C291.37 26.988 291.28 27.198 291.22 27.438C291.16 27.666 291.13 27.906 291.13 28.158V33H288.178V27.888C288.178 27.372 288.076 26.964 287.872 26.664C287.668 26.364 287.344 26.214 286.9 26.214C286.432 26.214 286.066 26.4 285.802 26.772C285.55 27.144 285.424 27.6 285.424 28.14V33H282.454V24.036H285.316V25.278H285.352C285.46 25.086 285.592 24.9 285.748 24.72C285.916 24.54 286.114 24.384 286.342 24.252C286.57 24.108 286.822 23.994 287.098 23.91C287.386 23.826 287.698 23.784 288.034 23.784C288.682 23.784 289.228 23.916 289.672 24.18C290.128 24.444 290.482 24.822 290.734 25.314C291.034 24.846 291.418 24.474 291.886 24.198C292.354 23.922 292.924 23.784 293.596 23.784C294.208 23.784 294.718 23.898 295.126 24.126C295.546 24.342 295.882 24.63 296.134 24.99C296.386 25.338 296.566 25.734 296.674 26.178C296.794 26.61 296.854 27.036 296.854 27.456V33H293.902ZM305.056 27.492C305.056 27.024 304.906 26.622 304.606 26.286C304.318 25.95 303.88 25.782 303.292 25.782C303.004 25.782 302.74 25.83 302.5 25.926C302.26 26.01 302.05 26.13 301.87 26.286C301.69 26.442 301.546 26.628 301.438 26.844C301.33 27.048 301.27 27.264 301.258 27.492H305.056ZM307.774 28.626C307.774 28.746 307.774 28.866 307.774 28.986C307.774 29.106 307.768 29.22 307.756 29.328H301.258C301.282 29.58 301.354 29.808 301.474 30.012C301.606 30.216 301.768 30.396 301.96 30.552C302.164 30.696 302.386 30.81 302.626 30.894C302.878 30.978 303.136 31.02 303.4 31.02C303.868 31.02 304.264 30.936 304.588 30.768C304.912 30.588 305.176 30.36 305.38 30.084L307.432 31.38C307.012 31.992 306.454 32.466 305.758 32.802C305.074 33.126 304.276 33.288 303.364 33.288C302.692 33.288 302.056 33.186 301.456 32.982C300.856 32.766 300.328 32.46 299.872 32.064C299.428 31.656 299.074 31.158 298.81 30.57C298.558 29.982 298.432 29.31 298.432 28.554C298.432 27.822 298.558 27.162 298.81 26.574C299.062 25.974 299.404 25.47 299.836 25.062C300.268 24.642 300.778 24.318 301.366 24.09C301.954 23.862 302.59 23.748 303.274 23.748C303.934 23.748 304.54 23.862 305.092 24.09C305.644 24.306 306.118 24.624 306.514 25.044C306.91 25.464 307.216 25.974 307.432 26.574C307.66 27.174 307.774 27.858 307.774 28.626ZM315.291 33V28.104C315.291 27.852 315.267 27.612 315.219 27.384C315.183 27.156 315.117 26.958 315.021 26.79C314.925 26.61 314.787 26.472 314.607 26.376C314.439 26.268 314.223 26.214 313.959 26.214C313.695 26.214 313.461 26.268 313.257 26.376C313.065 26.472 312.903 26.61 312.771 26.79C312.639 26.97 312.537 27.18 312.465 27.42C312.405 27.648 312.375 27.888 312.375 28.14V33H309.405V24.036H312.267V25.278H312.303C312.411 25.086 312.549 24.9 312.717 24.72C312.897 24.528 313.101 24.366 313.329 24.234C313.569 24.102 313.827 23.994 314.103 23.91C314.379 23.826 314.673 23.784 314.985 23.784C315.585 23.784 316.095 23.892 316.515 24.108C316.935 24.324 317.271 24.606 317.523 24.954C317.787 25.29 317.973 25.68 318.081 26.124C318.201 26.568 318.261 27.012 318.261 27.456V33H315.291ZM323.501 26.25V29.67C323.501 30.09 323.579 30.408 323.735 30.624C323.903 30.828 324.197 30.93 324.617 30.93C324.761 30.93 324.911 30.918 325.067 30.894C325.235 30.87 325.373 30.834 325.481 30.786L325.517 32.946C325.313 33.018 325.055 33.078 324.743 33.126C324.431 33.186 324.119 33.216 323.807 33.216C323.207 33.216 322.703 33.144 322.295 33C321.887 32.844 321.557 32.628 321.305 32.352C321.065 32.064 320.891 31.728 320.783 31.344C320.675 30.948 320.621 30.51 320.621 30.03V26.25H319.181V24.036H320.603V21.678H323.501V24.036H325.607V26.25H323.501ZM332.086 29.094H331.708C331.384 29.094 331.054 29.112 330.718 29.148C330.394 29.172 330.1 29.226 329.836 29.31C329.584 29.394 329.374 29.52 329.206 29.688C329.038 29.844 328.954 30.054 328.954 30.318C328.954 30.486 328.99 30.63 329.062 30.75C329.146 30.87 329.248 30.966 329.368 31.038C329.488 31.11 329.626 31.164 329.782 31.2C329.938 31.224 330.088 31.236 330.232 31.236C330.832 31.236 331.288 31.074 331.6 30.75C331.924 30.414 332.086 29.964 332.086 29.4V29.094ZM326.668 25.26C327.196 24.756 327.808 24.378 328.504 24.126C329.212 23.874 329.932 23.748 330.664 23.748C331.42 23.748 332.056 23.844 332.572 24.036C333.1 24.216 333.526 24.504 333.85 24.9C334.174 25.284 334.408 25.776 334.552 26.376C334.708 26.964 334.786 27.666 334.786 28.482V33H332.086V32.046H332.032C331.804 32.418 331.456 32.706 330.988 32.91C330.532 33.114 330.034 33.216 329.494 33.216C329.134 33.216 328.762 33.168 328.378 33.072C327.994 32.976 327.64 32.82 327.316 32.604C327.004 32.388 326.746 32.1 326.542 31.74C326.338 31.38 326.236 30.936 326.236 30.408C326.236 29.76 326.41 29.238 326.758 28.842C327.118 28.446 327.574 28.14 328.126 27.924C328.69 27.708 329.314 27.564 329.998 27.492C330.682 27.42 331.348 27.384 331.996 27.384V27.24C331.996 26.796 331.84 26.472 331.528 26.268C331.216 26.052 330.832 25.944 330.376 25.944C329.956 25.944 329.548 26.034 329.152 26.214C328.768 26.394 328.438 26.61 328.162 26.862L326.668 25.26ZM339.818 26.25V29.67C339.818 30.09 339.896 30.408 340.052 30.624C340.22 30.828 340.514 30.93 340.934 30.93C341.078 30.93 341.228 30.918 341.384 30.894C341.552 30.87 341.69 30.834 341.798 30.786L341.834 32.946C341.63 33.018 341.372 33.078 341.06 33.126C340.748 33.186 340.436 33.216 340.124 33.216C339.524 33.216 339.02 33.144 338.612 33C338.204 32.844 337.874 32.628 337.622 32.352C337.382 32.064 337.208 31.728 337.1 31.344C336.992 30.948 336.938 30.51 336.938 30.03V26.25H335.498V24.036H336.92V21.678H339.818V24.036H341.924V26.25H339.818ZM346.315 21.174C346.315 21.402 346.267 21.618 346.171 21.822C346.087 22.014 345.967 22.182 345.811 22.326C345.667 22.47 345.487 22.584 345.271 22.668C345.067 22.752 344.851 22.794 344.623 22.794C344.143 22.794 343.741 22.638 343.417 22.326C343.093 22.002 342.931 21.618 342.931 21.174C342.931 20.958 342.973 20.754 343.057 20.562C343.141 20.358 343.261 20.184 343.417 20.04C343.573 19.896 343.753 19.782 343.957 19.698C344.161 19.602 344.383 19.554 344.623 19.554C344.851 19.554 345.067 19.596 345.271 19.68C345.487 19.764 345.667 19.878 345.811 20.022C345.967 20.166 346.087 20.34 346.171 20.544C346.267 20.736 346.315 20.946 346.315 21.174ZM343.147 33V24.036H346.099V33H343.147ZM357.741 28.482C357.741 29.214 357.609 29.88 357.345 30.48C357.081 31.068 356.721 31.572 356.265 31.992C355.809 32.4 355.281 32.718 354.681 32.946C354.081 33.174 353.439 33.288 352.755 33.288C352.083 33.288 351.441 33.174 350.829 32.946C350.229 32.718 349.701 32.4 349.245 31.992C348.801 31.572 348.447 31.068 348.183 30.48C347.919 29.88 347.787 29.214 347.787 28.482C347.787 27.75 347.919 27.09 348.183 26.502C348.447 25.914 348.801 25.416 349.245 25.008C349.701 24.6 350.229 24.288 350.829 24.072C351.441 23.856 352.083 23.748 352.755 23.748C353.439 23.748 354.081 23.856 354.681 24.072C355.281 24.288 355.809 24.6 356.265 25.008C356.721 25.416 357.081 25.914 357.345 26.502C357.609 27.09 357.741 27.75 357.741 28.482ZM354.897 28.482C354.897 28.194 354.849 27.912 354.753 27.636C354.657 27.36 354.519 27.12 354.339 26.916C354.159 26.7 353.937 26.526 353.673 26.394C353.409 26.262 353.103 26.196 352.755 26.196C352.407 26.196 352.101 26.262 351.837 26.394C351.573 26.526 351.351 26.7 351.171 26.916C351.003 27.12 350.871 27.36 350.775 27.636C350.691 27.912 350.649 28.194 350.649 28.482C350.649 28.77 350.691 29.052 350.775 29.328C350.871 29.604 351.009 29.856 351.189 30.084C351.369 30.3 351.591 30.474 351.855 30.606C352.119 30.738 352.425 30.804 352.773 30.804C353.121 30.804 353.427 30.738 353.691 30.606C353.955 30.474 354.177 30.3 354.357 30.084C354.537 29.856 354.669 29.604 354.753 29.328C354.849 29.052 354.897 28.77 354.897 28.482ZM365.296 33V28.104C365.296 27.852 365.272 27.612 365.224 27.384C365.188 27.156 365.122 26.958 365.026 26.79C364.93 26.61 364.792 26.472 364.612 26.376C364.444 26.268 364.228 26.214 363.964 26.214C363.7 26.214 363.466 26.268 363.262 26.376C363.07 26.472 362.908 26.61 362.776 26.79C362.644 26.97 362.542 27.18 362.47 27.42C362.41 27.648 362.38 27.888 362.38 28.14V33H359.41V24.036H362.272V25.278H362.308C362.416 25.086 362.554 24.9 362.722 24.72C362.902 24.528 363.106 24.366 363.334 24.234C363.574 24.102 363.832 23.994 364.108 23.91C364.384 23.826 364.678 23.784 364.99 23.784C365.59 23.784 366.1 23.892 366.52 24.108C366.94 24.324 367.276 24.606 367.528 24.954C367.792 25.29 367.978 25.68 368.086 26.124C368.206 26.568 368.266 27.012 368.266 27.456V33H365.296Z" fill="white"/>
</svg>
