<svg width="731" height="54" viewBox="0 0 731 54" fill="none" xmlns="http://www.w3.org/2000/svg">
<rect width="731" height="53" fill="#242424"/>
<mask id="mask0_205:498" style="mask-type:alpha" maskUnits="userSpaceOnUse" x="0" y="0" width="248" height="16">
<path fill-rule="evenodd" clip-rule="evenodd" d="M0.582031 0.169922H247.208V15.8977H0.582031V0.169922Z" fill="white"/>
</mask>
<g mask="url(#mask0_205:498)">
<path fill-rule="evenodd" clip-rule="evenodd" d="M241.562 0.818653C224.219 1.84865 204.724 -3.06535 184.203 -8.23635C158.561 -14.6973 132.045 -21.3823 105.083 -18.2873C78.1723 -15.1893 52.8943 -5.82535 30.5913 2.43565C12.1793 9.25565 -3.72766 15.1477 -16.3167 15.8947C-16.3347 15.8957 -16.3507 15.8967 -16.3697 15.8977L-16.4307 14.8487C-16.4137 14.8477 -16.3957 14.8467 -16.3787 14.8457C-3.91166 14.1067 11.9393 8.23465 30.2893 1.43765C52.6363 -6.84035 77.9653 -16.2223 104.975 -19.3323C132.088 -22.4373 158.679 -15.7413 184.394 -9.26135C207.091 -3.54135 228.529 1.85965 247.078 -0.786348L247.208 0.255653C245.353 0.519653 243.47 0.705652 241.562 0.818653Z" fill="#00B0C7"/>
</g>
<mask id="mask1_205:498" style="mask-type:alpha" maskUnits="userSpaceOnUse" x="0" y="0" width="233" height="27">
<path fill-rule="evenodd" clip-rule="evenodd" d="M0.582031 0.169922H232.926V26.6901H0.582031V0.169922Z" fill="white"/>
</mask>
<g mask="url(#mask1_205:498)">
<path fill-rule="evenodd" clip-rule="evenodd" d="M227.278 11.611C209.934 12.641 190.44 7.72799 169.918 2.55599C144.276 -3.906 117.763 -10.591 90.7992 -7.496C63.8892 -4.395 38.6122 4.967 16.3102 13.228C-2.10284 20.048 -18.0108 25.94 -30.6008 26.687C-30.6188 26.688 -30.6348 26.689 -30.6538 26.69L-30.7148 25.641C-30.6978 25.64 -30.6798 25.639 -30.6628 25.638C-18.1958 24.898 -2.34384 19.027 16.0082 12.229C38.3542 3.95199 63.6822 -5.429 90.6912 -8.541C117.806 -11.654 144.394 -4.949 170.108 1.531C192.807 7.252 214.252 12.651 232.796 10.006L232.926 11.047C231.071 11.312 229.186 11.497 227.278 11.611Z" fill="#00B0C7"/>
</g>
<mask id="mask2_205:498" style="mask-type:alpha" maskUnits="userSpaceOnUse" x="0" y="1" width="219" height="37">
<path fill-rule="evenodd" clip-rule="evenodd" d="M0.582031 1.46875H218.639V37.4838H0.582031V1.46875Z" fill="white"/>
</mask>
<g mask="url(#mask2_205:498)">
<path fill-rule="evenodd" clip-rule="evenodd" d="M212.994 22.4038C195.652 23.4338 176.157 18.5208 155.636 13.3498C129.994 6.88783 103.485 0.203832 76.514 3.29783C49.606 6.39783 24.33 15.7598 2.029 24.0208C-16.385 30.8408 -32.292 36.7328 -44.882 37.4798C-44.901 37.4818 -44.92 37.4828 -44.939 37.4838L-45 36.4348C-44.982 36.4338 -44.963 36.4328 -44.944 36.4308C-32.477 35.6918 -16.625 29.8198 1.727 23.0228C24.072 14.7458 49.399 5.36483 76.407 2.25283C103.514 -0.854168 130.111 5.84383 155.827 12.3248C178.523 18.0438 199.961 23.4458 218.509 20.7988L218.639 21.8408C216.785 22.1058 214.902 22.2908 212.994 22.4038Z" fill="#00B0C7"/>
</g>
<mask id="mask3_205:498" style="mask-type:alpha" maskUnits="userSpaceOnUse" x="0" y="10" width="235" height="37">
<path fill-rule="evenodd" clip-rule="evenodd" d="M0.582031 10.4971H234.102V46.5104H0.582031V10.4971Z" fill="white"/>
</mask>
<g mask="url(#mask3_205:498)">
<path fill-rule="evenodd" clip-rule="evenodd" d="M228.453 31.4314C211.109 32.4604 191.614 27.5484 171.094 22.3764C145.452 15.9154 118.94 9.23245 91.9749 12.3254C65.0659 15.4244 39.7899 24.7874 17.4889 33.0484C-0.923063 39.8684 -16.8301 45.7594 -29.4191 46.5064C-29.4391 46.5084 -29.4581 46.5094 -29.4781 46.5104L-29.5391 45.4614C-29.5201 45.4604 -29.5001 45.4594 -29.4811 45.4574C-17.0151 44.7184 -1.16306 38.8474 17.1869 32.0494C39.5329 23.7724 64.8589 14.3914 91.8679 11.2804C118.979 8.17545 145.57 14.8714 171.284 21.3514C193.982 27.0724 215.423 32.4704 233.972 29.8264L234.102 30.8674C232.246 31.1324 230.363 31.3184 228.453 31.4314Z" fill="#00B0C7"/>
</g>
<mask id="mask4_205:498" style="mask-type:alpha" maskUnits="userSpaceOnUse" x="0" y="19" width="250" height="35">
<path fill-rule="evenodd" clip-rule="evenodd" d="M0.582031 19.5239H249.56V53.17H0.582031V19.5239Z" fill="white"/>
</mask>
<g mask="url(#mask4_205:498)">
<path fill-rule="evenodd" clip-rule="evenodd" d="M243.91 40.4574C226.568 41.4874 207.075 36.5744 186.555 31.4034C160.914 24.9404 134.399 18.2554 107.436 21.3524C80.5279 24.4514 55.2509 33.8144 32.9509 42.0744C14.5379 48.8944 -1.3691 54.7864 -13.9591 55.5334C-13.9791 55.5344 -13.9981 55.5354 -14.0171 55.5364L-14.0791 54.4874C-14.0601 54.4864 -14.0401 54.4854 -14.0211 54.4844C-1.5541 53.7444 14.2979 47.8734 32.6489 41.0754C54.9939 32.7994 80.3209 23.4184 107.328 20.3074C134.432 17.2024 161.031 23.8974 186.746 30.3784C209.444 36.0984 230.884 41.4954 249.43 38.8524L249.56 39.8934C247.704 40.1594 245.82 40.3444 243.91 40.4574Z" fill="#00B0C7"/>
</g>
<mask id="mask5_205:498" style="mask-type:alpha" maskUnits="userSpaceOnUse" x="1" y="28" width="265" height="26">
<path fill-rule="evenodd" clip-rule="evenodd" d="M1.38184 28.5488H265.024V53.1698H1.38184V28.5488Z" fill="white"/>
</mask>
<g mask="url(#mask5_205:498)">
<path fill-rule="evenodd" clip-rule="evenodd" d="M259.376 49.487C242.031 50.517 222.536 45.603 202.013 40.432C176.373 33.97 149.854 27.287 122.897 30.381C95.9848 33.479 70.7058 42.843 48.4028 51.104C29.9918 57.924 14.0858 63.816 1.49684 64.563C1.47784 64.564 1.46184 64.565 1.44284 64.566L1.38184 63.517C1.39984 63.516 1.41684 63.515 1.43484 63.514C13.9008 62.775 29.7518 56.904 48.1008 50.106C70.4488 41.828 95.7768 32.446 122.789 29.335C149.903 26.222 176.491 32.927 202.204 39.407C224.903 45.127 246.341 50.53 264.894 47.882L265.024 48.924C263.169 49.188 261.285 49.373 259.376 49.487Z" fill="#00B0C7"/>
</g>
<mask id="mask6_205:498" style="mask-type:alpha" maskUnits="userSpaceOnUse" x="0" y="39" width="251" height="15">
<path fill-rule="evenodd" clip-rule="evenodd" d="M0.582031 39.3442H250.737V53.17H0.582031V39.3442Z" fill="white"/>
</mask>
<g mask="url(#mask6_205:498)">
<path fill-rule="evenodd" clip-rule="evenodd" d="M245.091 60.2802C227.748 61.3102 208.253 56.3972 187.732 51.2252C162.09 44.7632 135.574 38.0772 108.612 41.1732C81.7027 44.2732 56.4267 53.6352 34.1257 61.8962C15.7117 68.7172 -0.195344 74.6092 -12.7863 75.3562C-12.8043 75.3572 -12.8223 75.3592 -12.8413 75.3602L-12.9023 74.3112C-12.8853 74.3102 -12.8663 74.3082 -12.8483 74.3072C-0.381344 73.5682 15.4707 67.6962 33.8237 60.8982C56.1697 52.6212 81.4967 43.2392 108.504 40.1282C135.613 37.0212 162.208 43.7202 187.923 50.2002C210.62 55.9202 232.058 61.3222 250.607 58.6752L250.737 59.7172C248.882 59.9822 246.999 60.1672 245.091 60.2802Z" fill="#00B0C7"/>
</g>
<mask id="mask7_205:498" style="mask-type:alpha" maskUnits="userSpaceOnUse" x="232" y="0" width="265" height="12">
<path fill-rule="evenodd" clip-rule="evenodd" d="M232.673 0.169922H496.361V11.0603H232.673V0.169922Z" fill="white"/>
</mask>
<g mask="url(#mask7_205:498)">
<path fill-rule="evenodd" clip-rule="evenodd" d="M490.713 -4.02185C473.367 -2.99185 453.863 -7.90485 433.331 -13.0759C407.677 -19.5359 381.147 -26.2189 354.187 -23.1259C327.277 -20.0249 302 -10.6629 279.698 -2.40285C261.285 4.41715 245.377 10.3101 232.788 11.0571C232.769 11.0581 232.753 11.0591 232.734 11.0601L232.673 10.0111C232.691 10.0101 232.708 10.0091 232.726 10.0081C245.192 9.26815 261.045 3.39614 279.396 -3.40085C301.742 -11.6779 327.07 -21.0589 354.079 -24.1709C381.193 -27.2769 407.795 -20.5799 433.521 -14.1009C456.23 -8.38186 477.674 -2.98285 496.232 -5.62685L496.361 -4.58585C494.506 -4.32085 492.622 -4.13585 490.713 -4.02185Z" fill="#00B0C7"/>
</g>
<mask id="mask8_205:498" style="mask-type:alpha" maskUnits="userSpaceOnUse" x="218" y="0" width="265" height="22">
<path fill-rule="evenodd" clip-rule="evenodd" d="M218.389 0.169922H482.075V21.8538H218.389V0.169922Z" fill="white"/>
</mask>
<g mask="url(#mask8_205:498)">
<path fill-rule="evenodd" clip-rule="evenodd" d="M476.429 6.77079C459.085 7.80079 439.581 2.88779 419.05 -2.28221C393.395 -8.74321 366.87 -15.4262 339.903 -12.3322C312.995 -9.23221 287.719 0.129787 265.418 8.39079C247.004 15.2108 231.097 21.1028 218.507 21.8498C218.487 21.8518 218.469 21.8528 218.45 21.8538L218.389 20.8048C218.407 20.8038 218.426 20.8018 218.445 20.8008C230.912 20.0618 246.764 14.1888 265.116 7.39279C287.461 -0.884214 312.788 -10.2652 339.796 -13.3772C366.91 -16.4892 393.513 -9.78621 419.241 -3.30721C441.949 2.41179 463.396 7.81479 481.946 5.16679L482.075 6.20779C480.221 6.47279 478.337 6.65779 476.429 6.77079Z" fill="#00B0C7"/>
</g>
<mask id="mask9_205:498" style="mask-type:alpha" maskUnits="userSpaceOnUse" x="233" y="0" width="265" height="31">
<path fill-rule="evenodd" clip-rule="evenodd" d="M233.849 0.169922H497.537V30.8806H233.849V0.169922Z" fill="white"/>
</mask>
<g mask="url(#mask9_205:498)">
<path fill-rule="evenodd" clip-rule="evenodd" d="M491.888 15.7986C474.542 16.8276 455.037 11.9156 434.507 6.7446C408.853 0.283602 382.331 -6.3954 355.363 -3.3044C328.454 -0.205398 303.178 9.1576 280.877 17.4186C262.465 24.2376 246.558 30.1296 233.969 30.8766C233.949 30.8786 233.93 30.8796 233.91 30.8806L233.849 29.8316C233.868 29.8306 233.887 29.8296 233.906 29.8276C246.373 29.0886 262.225 23.2166 280.575 16.4196C302.92 8.1426 328.247 -1.2384 355.255 -4.3494C382.368 -7.4584 408.97 -0.759398 434.697 5.7206C457.407 11.4406 478.851 16.8426 497.407 14.1936L497.537 15.2346C495.681 15.4996 493.797 15.6856 491.888 15.7986Z" fill="#00B0C7"/>
</g>
<path fill-rule="evenodd" clip-rule="evenodd" d="M506.365 24.9246C489.068 25.9531 469.621 21.0442 449.15 15.8765C423.562 9.4163 397.106 2.73821 370.198 5.82986C343.36 8.92852 318.15 18.2864 295.907 26.5429C277.543 33.3599 261.677 39.2493 249.119 39.996C249.099 39.997 249.081 39.998 249.061 40L249 38.9515C249.019 38.9495 249.038 38.9485 249.057 38.9475C261.491 38.2078 277.302 32.3393 295.605 25.5453C317.892 17.2719 343.153 7.89497 370.09 4.78632C397.149 1.67367 423.679 8.37476 449.339 14.8519C471.984 20.5675 493.375 25.9621 511.87 23.3193L512 24.3608C510.149 24.6257 508.269 24.8116 506.365 24.9246Z" fill="#00B0C7"/>
<path fill-rule="evenodd" clip-rule="evenodd" d="M522.368 33.9239C505.07 34.9534 485.629 30.0447 465.162 24.8771C439.576 18.417 413.112 11.7381 386.197 14.8297C359.356 17.9272 334.143 27.286 311.898 35.5442C293.535 42.36 277.671 48.2503 265.115 48.997C265.096 48.998 265.08 48.999 265.062 49L265 47.9515C265.018 47.9505 265.035 47.9495 265.053 47.9485C277.486 47.2088 293.296 41.3395 311.597 34.5466C333.887 26.2724 359.149 16.8937 386.09 13.7851C413.157 10.6756 439.692 17.3745 465.352 23.8525C487.989 29.5679 509.369 34.9654 527.871 32.3196L528 33.3612C526.151 33.626 524.27 33.811 522.368 33.9239Z" fill="#00B0C7"/>
<mask id="mask10_205:498" style="mask-type:alpha" maskUnits="userSpaceOnUse" x="249" y="23" width="265" height="31">
<path fill-rule="evenodd" clip-rule="evenodd" d="M249.485 23.7139H513.171V53.1699H249.485V23.7139Z" fill="white"/>
</mask>
<g mask="url(#mask10_205:498)">
<path fill-rule="evenodd" clip-rule="evenodd" d="M507.526 44.6473C490.183 45.6773 470.683 40.7643 450.158 35.5943C424.503 29.1323 397.971 22.4503 370.999 25.5433C344.091 28.6433 318.814 38.0053 296.513 46.2663C278.099 53.0873 262.192 58.9793 249.602 59.7263C249.583 59.7273 249.565 59.7283 249.546 59.7303L249.485 58.6813C249.503 58.6793 249.522 58.6783 249.539 58.6773C262.007 57.9383 277.859 52.0653 296.211 45.2683C318.557 36.9913 343.883 27.6093 370.891 24.4983C398.017 21.3903 424.621 28.0893 450.348 34.5693C473.05 40.2893 494.49 45.6893 513.042 43.0423L513.171 44.0843C511.317 44.3493 509.434 44.5343 507.526 44.6473Z" fill="#00B0C7"/>
</g>
<mask id="mask11_205:498" style="mask-type:alpha" maskUnits="userSpaceOnUse" x="235" y="34" width="264" height="20">
<path fill-rule="evenodd" clip-rule="evenodd" d="M235.201 34.5073H498.889V53.1702H235.201V34.5073Z" fill="white"/>
</mask>
<g mask="url(#mask11_205:498)">
<path fill-rule="evenodd" clip-rule="evenodd" d="M493.241 55.4381C475.896 56.4681 456.392 51.5551 435.861 46.3851C410.206 39.9251 383.682 33.2451 356.715 36.3361C329.806 39.4351 304.53 48.7981 282.229 57.0581C263.817 63.8781 247.91 69.7701 235.321 70.5171C235.301 70.5181 235.282 70.5191 235.262 70.5201L235.201 69.4711C247.684 68.7901 263.549 62.8671 281.927 56.0601C304.272 47.7831 329.599 38.4021 356.607 35.2911C383.715 32.1851 410.324 38.8811 436.051 45.3601C458.759 51.0781 480.206 56.4781 498.76 53.8331L498.889 54.8751C497.034 55.1391 495.149 55.3241 493.241 55.4381Z" fill="#00B0C7"/>
</g>
<mask id="mask12_205:498" style="mask-type:alpha" maskUnits="userSpaceOnUse" x="221" y="45" width="265" height="9">
<path fill-rule="evenodd" clip-rule="evenodd" d="M221.916 45.3008H485.603V53.1701H221.916V45.3008Z" fill="white"/>
</mask>
<g mask="url(#mask12_205:498)">
<path fill-rule="evenodd" clip-rule="evenodd" d="M479.954 66.2315C462.611 67.2605 443.107 62.3485 422.576 57.1785C396.922 50.7165 370.391 44.0375 343.431 47.1285C316.52 50.2275 291.242 59.5895 268.94 67.8515C250.527 74.6715 234.622 80.5625 222.033 81.3095C222.014 81.3115 221.996 81.3125 221.977 81.3135L221.916 80.2645C221.934 80.2635 221.953 80.2625 221.971 80.2605C234.437 79.5215 250.287 73.6495 268.638 66.8535C290.985 58.5755 316.313 49.1935 343.323 46.0835C370.443 42.9805 397.04 49.6745 422.767 56.1525C445.475 61.8725 466.918 67.2715 485.474 64.6265L485.603 65.6675C483.747 65.9325 481.864 66.1185 479.954 66.2315Z" fill="#00B0C7"/>
</g>
<mask id="mask13_205:498" style="mask-type:alpha" maskUnits="userSpaceOnUse" x="496" y="0" width="235" height="16">
<path fill-rule="evenodd" clip-rule="evenodd" d="M496.284 0.169922H730.583V15.2478H496.284V0.169922Z" fill="white"/>
</mask>
<g mask="url(#mask13_205:498)">
<path fill-rule="evenodd" clip-rule="evenodd" d="M754.276 0.169031C736.933 1.19803 717.438 -3.71397 696.917 -8.88597C671.275 -15.347 644.758 -22.032 617.797 -18.937C590.889 -15.838 565.612 -6.47497 543.312 1.78603C524.9 8.60603 508.994 14.497 496.403 15.244C496.383 15.246 496.364 15.247 496.344 15.248L496.284 14.199C496.303 14.198 496.322 14.197 496.341 14.195C508.808 13.456 524.66 7.58503 543.01 0.787031C565.355 -7.48997 590.682 -16.871 617.69 -19.982C644.8 -23.088 671.393 -16.39 697.107 -9.91097C719.806 -4.18997 741.241 1.20603 759.795 -1.43597L759.925 -0.394968C758.069 -0.129969 756.185 0.0560303 754.276 0.169031Z" fill="#00B0C7"/>
</g>
<mask id="mask14_205:498" style="mask-type:alpha" maskUnits="userSpaceOnUse" x="511" y="0" width="220" height="25">
<path fill-rule="evenodd" clip-rule="evenodd" d="M511.744 0.169922H730.583V24.2741H511.744V0.169922Z" fill="white"/>
</mask>
<g mask="url(#mask14_205:498)">
<path fill-rule="evenodd" clip-rule="evenodd" d="M769.733 9.19504C752.391 10.224 732.898 5.31204 712.378 0.140041C686.736 -6.32196 660.224 -13.005 633.257 -9.90996C606.349 -6.81096 581.073 2.55104 558.772 10.811C540.359 17.632 524.453 23.523 511.863 24.27C511.843 24.271 511.824 24.273 511.804 24.274L511.744 23.225C511.763 23.223 511.782 23.222 511.801 23.221C524.267 22.482 540.119 16.61 558.47 9.81304C580.815 1.53704 606.141 -7.84396 633.15 -10.955C660.259 -14.061 686.853 -7.36496 712.568 -0.884958C735.266 4.83604 756.71 10.233 775.253 7.58904L775.383 8.63104C773.527 8.89604 771.642 9.08104 769.733 9.19504Z" fill="#00B0C7"/>
</g>
<mask id="mask15_205:498" style="mask-type:alpha" maskUnits="userSpaceOnUse" x="527" y="0" width="204" height="34">
<path fill-rule="evenodd" clip-rule="evenodd" d="M527.204 0.169922H730.583V33.3039H527.204V0.169922Z" fill="white"/>
</mask>
<g mask="url(#mask15_205:498)">
<path fill-rule="evenodd" clip-rule="evenodd" d="M785.199 18.2251C767.853 19.2551 748.359 14.3411 727.836 9.17012C702.196 2.70812 675.693 -3.97088 648.72 -0.881884C621.807 2.21712 596.528 11.5801 574.225 19.8421C555.814 26.6621 539.907 32.5541 527.318 33.3011C527.3 33.3021 527.284 33.3031 527.265 33.3041L527.204 32.2551C527.221 32.2541 527.239 32.2531 527.256 32.2521C539.722 31.5121 555.573 25.6411 573.923 18.8441C596.27 10.5661 621.6 1.18312 648.612 -1.92688C675.724 -5.02988 702.314 1.66512 728.027 8.14412C750.726 13.8641 772.16 19.2641 790.718 16.6191L790.847 17.6611C788.992 17.9261 787.107 18.1111 785.199 18.2251Z" fill="#00B0C7"/>
</g>
<mask id="mask16_205:498" style="mask-type:alpha" maskUnits="userSpaceOnUse" x="512" y="8" width="219" height="37">
<path fill-rule="evenodd" clip-rule="evenodd" d="M512.92 8.08203H730.583V44.0973H512.92V8.08203Z" fill="white"/>
</mask>
<g mask="url(#mask16_205:498)">
<path fill-rule="evenodd" clip-rule="evenodd" d="M770.914 29.0173C753.571 30.0473 734.076 25.1343 713.555 19.9623C687.913 13.5003 661.4 6.81133 634.434 9.91033C607.525 13.0103 582.249 22.3733 559.947 30.6333C541.533 37.4543 525.626 43.3463 513.036 44.0933C513.018 44.0943 513 44.0963 512.981 44.0973L512.92 43.0483C512.937 43.0473 512.956 43.0453 512.974 43.0443C525.441 42.3053 541.292 36.4333 559.645 29.6353C581.991 21.3583 607.318 11.9773 634.326 8.86533C661.44 5.76033 688.031 12.4573 713.745 18.9373C736.443 24.6573 757.881 30.0593 776.43 27.4123L776.559 28.4543C774.704 28.7193 772.822 28.9043 770.914 29.0173Z" fill="#00B0C7"/>
</g>
<mask id="mask17_205:498" style="mask-type:alpha" maskUnits="userSpaceOnUse" x="498" y="18" width="233" height="36">
<path fill-rule="evenodd" clip-rule="evenodd" d="M498.636 18.875H730.583V53.17H498.636V18.875Z" fill="white"/>
</mask>
<g mask="url(#mask17_205:498)">
<path fill-rule="evenodd" clip-rule="evenodd" d="M756.63 39.808C739.286 40.838 719.793 35.925 699.271 30.754C673.628 24.291 647.107 17.612 620.15 20.704C593.242 23.803 567.966 33.165 545.665 41.425C527.252 48.245 511.346 54.137 498.755 54.884C498.736 54.885 498.717 54.886 498.697 54.887L498.636 53.838C498.655 53.837 498.674 53.836 498.693 53.835C511.16 53.095 527.012 47.224 545.362 40.427C567.708 32.15 593.034 22.769 620.042 19.658C647.151 16.554 673.747 23.249 699.461 29.729C722.159 35.448 743.599 40.851 762.148 38.203L762.277 39.244C760.422 39.509 758.538 39.694 756.63 39.808Z" fill="#00B0C7"/>
</g>
<mask id="mask18_205:498" style="mask-type:alpha" maskUnits="userSpaceOnUse" x="484" y="29" width="247" height="25">
<path fill-rule="evenodd" clip-rule="evenodd" d="M484.353 29.6675H730.583V53.1699H484.353V29.6675Z" fill="white"/>
</mask>
<g mask="url(#mask18_205:498)">
<path fill-rule="evenodd" clip-rule="evenodd" d="M742.343 50.6014C725.002 51.6304 705.508 46.7174 684.988 41.5464C659.344 35.0844 632.824 28.3994 605.866 31.4954C578.956 34.5944 553.679 43.9564 531.376 52.2184C512.963 59.0384 497.058 64.9304 484.469 65.6774C484.45 65.6784 484.432 65.6794 484.413 65.6804L484.353 64.6314C484.37 64.6304 484.389 64.6294 484.406 64.6284C496.873 63.8884 512.723 58.0174 531.074 51.2204C553.421 42.9424 578.749 33.5604 605.759 30.4504C632.871 27.3464 659.464 34.0424 685.178 40.5224C707.875 46.2414 729.311 51.6404 747.862 48.9964L747.992 50.0374C746.136 50.3024 744.253 50.4884 742.343 50.6014Z" fill="#00B0C7"/>
</g>
<mask id="mask19_205:498" style="mask-type:alpha" maskUnits="userSpaceOnUse" x="499" y="38" width="232" height="16">
<path fill-rule="evenodd" clip-rule="evenodd" d="M499.812 38.6943H730.583V53.1701H499.812V38.6943Z" fill="white"/>
</mask>
<g mask="url(#mask19_205:498)">
<path fill-rule="evenodd" clip-rule="evenodd" d="M757.805 59.6284C740.462 60.6574 720.967 55.7454 700.447 50.5744C674.805 44.1114 648.284 37.4324 621.326 40.5244C594.417 43.6224 569.14 52.9854 546.838 61.2454C528.426 68.0654 512.519 73.9574 499.929 74.7044C499.91 74.7054 499.892 74.7064 499.872 74.7074L499.812 73.6584C499.83 73.6574 499.85 73.6564 499.867 73.6554C512.335 72.9154 528.184 67.0444 546.535 60.2474C568.882 51.9704 594.209 42.5894 621.218 39.4784C648.34 36.3714 674.924 43.0694 700.637 49.5494C723.335 55.2694 744.779 60.6684 763.323 58.0234L763.453 59.0644C761.598 59.3294 759.714 59.5154 757.805 59.6284Z" fill="#00B0C7"/>
</g>
<mask id="mask20_205:498" style="mask-type:alpha" maskUnits="userSpaceOnUse" x="515" y="47" width="216" height="7">
<path fill-rule="evenodd" clip-rule="evenodd" d="M515.272 47.7231H730.583V53.1702H515.272V47.7231Z" fill="white"/>
</mask>
<g mask="url(#mask20_205:498)">
<path fill-rule="evenodd" clip-rule="evenodd" d="M773.267 68.6573C755.924 69.6873 736.43 64.7753 715.908 59.6033C690.265 53.1403 663.749 46.4603 636.786 49.5513C609.874 52.6493 584.595 62.0133 562.292 70.2753C543.881 77.0953 527.975 82.9873 515.386 83.7343C515.368 83.7353 515.352 83.7363 515.334 83.7373L515.272 82.6883C515.29 82.6873 515.307 82.6863 515.324 82.6853C527.79 81.9463 543.641 76.0743 561.99 69.2773C584.337 60.9983 609.667 51.6153 636.678 48.5053C663.793 45.4033 690.383 52.0983 716.098 58.5773C738.795 64.2973 760.228 69.7023 778.782 67.0523L778.911 68.0953C777.058 68.3593 775.174 68.5443 773.267 68.6573Z" fill="#00B0C7"/>
</g>
<path fill-rule="evenodd" clip-rule="evenodd" d="M31 26L17 33V19L31 26Z" fill="white"/>
<path d="M53.81 23.71C53.81 24.578 53.649 25.313 53.327 25.915C53.005 26.503 52.571 26.979 52.025 27.343C51.479 27.707 50.849 27.973 50.135 28.141C49.421 28.309 48.679 28.393 47.909 28.393H46.124V34H42.533V19.132H47.993C48.805 19.132 49.561 19.216 50.261 19.384C50.975 19.538 51.591 19.797 52.109 20.161C52.641 20.511 53.054 20.98 53.348 21.568C53.656 22.142 53.81 22.856 53.81 23.71ZM50.219 23.731C50.219 23.381 50.149 23.094 50.009 22.87C49.869 22.646 49.68 22.471 49.442 22.345C49.204 22.219 48.931 22.135 48.623 22.093C48.329 22.051 48.021 22.03 47.699 22.03H46.124V25.537H47.636C47.972 25.537 48.294 25.509 48.602 25.453C48.91 25.397 49.183 25.299 49.421 25.159C49.673 25.019 49.869 24.837 50.009 24.613C50.149 24.375 50.219 24.081 50.219 23.731ZM63.9246 34L60.7116 28.099H59.4936V34H55.9656V19.132H61.6356C62.3496 19.132 63.0426 19.209 63.7146 19.363C64.4006 19.503 65.0096 19.748 65.5416 20.098C66.0876 20.448 66.5216 20.91 66.8436 21.484C67.1656 22.058 67.3266 22.772 67.3266 23.626C67.3266 24.634 67.0536 25.481 66.5076 26.167C65.9616 26.853 65.2056 27.343 64.2396 27.637L68.1246 34H63.9246ZM63.7776 23.689C63.7776 23.339 63.7006 23.059 63.5466 22.849C63.4066 22.625 63.2176 22.457 62.9796 22.345C62.7556 22.219 62.4966 22.135 62.2026 22.093C61.9226 22.051 61.6496 22.03 61.3836 22.03H59.4726V25.495H61.1736C61.4676 25.495 61.7686 25.474 62.0766 25.432C62.3846 25.376 62.6646 25.285 62.9166 25.159C63.1686 25.033 63.3716 24.851 63.5256 24.613C63.6936 24.375 63.7776 24.067 63.7776 23.689ZM85.3884 26.503C85.3884 27.679 85.1854 28.757 84.7794 29.737C84.3734 30.703 83.8064 31.536 83.0784 32.236C82.3644 32.922 81.5104 33.454 80.5164 33.832C79.5224 34.21 78.4444 34.399 77.2824 34.399C76.1204 34.399 75.0424 34.21 74.0484 33.832C73.0684 33.454 72.2144 32.922 71.4864 32.236C70.7724 31.536 70.2124 30.703 69.8064 29.737C69.4004 28.757 69.1974 27.679 69.1974 26.503C69.1974 25.313 69.4004 24.242 69.8064 23.29C70.2124 22.324 70.7724 21.505 71.4864 20.833C72.2144 20.161 73.0684 19.643 74.0484 19.279C75.0424 18.915 76.1204 18.733 77.2824 18.733C78.4444 18.733 79.5224 18.915 80.5164 19.279C81.5104 19.643 82.3644 20.161 83.0784 20.833C83.8064 21.505 84.3734 22.324 84.7794 23.29C85.1854 24.242 85.3884 25.313 85.3884 26.503ZM81.5454 26.503C81.5454 25.859 81.4404 25.257 81.2304 24.697C81.0204 24.137 80.7264 23.661 80.3484 23.269C79.9844 22.863 79.5364 22.548 79.0044 22.324C78.4864 22.086 77.9124 21.967 77.2824 21.967C76.6524 21.967 76.0784 22.086 75.5604 22.324C75.0424 22.548 74.5944 22.863 74.2164 23.269C73.8384 23.661 73.5444 24.137 73.3344 24.697C73.1384 25.257 73.0404 25.859 73.0404 26.503C73.0404 27.175 73.1454 27.798 73.3554 28.372C73.5654 28.932 73.8524 29.415 74.2164 29.821C74.5944 30.227 75.0424 30.549 75.5604 30.787C76.0784 31.011 76.6524 31.123 77.2824 31.123C77.9124 31.123 78.4864 31.011 79.0044 30.787C79.5224 30.549 79.9704 30.227 80.3484 29.821C80.7264 29.415 81.0204 28.932 81.2304 28.372C81.4404 27.798 81.5454 27.175 81.5454 26.503ZM95.1209 28.918C95.1209 29.506 95.0509 30.122 94.9109 30.766C94.7849 31.41 94.5399 32.005 94.1759 32.551C93.8259 33.083 93.3289 33.524 92.6849 33.874C92.0549 34.224 91.2359 34.399 90.2279 34.399C88.9679 34.399 87.9179 34.077 87.0779 33.433C86.2379 32.775 85.6779 31.935 85.3979 30.913L88.5689 29.842C88.6669 30.234 88.8419 30.549 89.0939 30.787C89.3599 31.025 89.6819 31.144 90.0599 31.144C90.6479 31.144 91.0329 30.941 91.2149 30.535C91.4109 30.129 91.5089 29.597 91.5089 28.939V19.132H95.1209V28.918ZM98.1092 34V19.132H108.105V22.177H101.574V24.97H107.748V27.847H101.574V30.934H108.483V34H98.1092ZM123.948 31.942C123.29 32.698 122.478 33.3 121.512 33.748C120.546 34.182 119.433 34.399 118.173 34.399C117.025 34.399 115.961 34.21 114.981 33.832C114.015 33.454 113.175 32.922 112.461 32.236C111.747 31.536 111.187 30.703 110.781 29.737C110.375 28.771 110.172 27.707 110.172 26.545C110.172 25.355 110.375 24.277 110.781 23.311C111.201 22.345 111.775 21.526 112.503 20.854C113.231 20.168 114.085 19.643 115.065 19.279C116.045 18.915 117.102 18.733 118.236 18.733C119.286 18.733 120.315 18.922 121.323 19.3C122.345 19.664 123.171 20.203 123.801 20.917L121.365 23.353C121.029 22.891 120.588 22.548 120.042 22.324C119.496 22.1 118.936 21.988 118.362 21.988C117.732 21.988 117.151 22.107 116.619 22.345C116.101 22.569 115.653 22.884 115.275 23.29C114.897 23.696 114.603 24.179 114.393 24.739C114.183 25.285 114.078 25.887 114.078 26.545C114.078 27.217 114.183 27.833 114.393 28.393C114.603 28.953 114.89 29.436 115.254 29.842C115.632 30.234 116.08 30.542 116.598 30.766C117.116 30.99 117.683 31.102 118.299 31.102C119.013 31.102 119.636 30.962 120.168 30.682C120.7 30.402 121.127 30.038 121.449 29.59L123.948 31.942ZM131.727 22.198V34H128.136V22.198H123.936V19.132H135.927V22.198H131.727ZM150.158 22.996C149.85 22.604 149.444 22.296 148.94 22.072C148.45 21.834 147.974 21.715 147.512 21.715C147.274 21.715 147.029 21.736 146.777 21.778C146.539 21.82 146.322 21.904 146.126 22.03C145.93 22.142 145.762 22.296 145.622 22.492C145.496 22.674 145.433 22.912 145.433 23.206C145.433 23.458 145.482 23.668 145.58 23.836C145.692 24.004 145.846 24.151 146.042 24.277C146.252 24.403 146.497 24.522 146.777 24.634C147.057 24.732 147.372 24.837 147.722 24.949C148.226 25.117 148.751 25.306 149.297 25.516C149.843 25.712 150.34 25.978 150.788 26.314C151.236 26.65 151.607 27.07 151.901 27.574C152.195 28.064 152.342 28.68 152.342 29.422C152.342 30.276 152.181 31.018 151.859 31.648C151.551 32.264 151.131 32.775 150.599 33.181C150.067 33.587 149.458 33.888 148.772 34.084C148.086 34.28 147.379 34.378 146.651 34.378C145.587 34.378 144.558 34.196 143.564 33.832C142.57 33.454 141.744 32.922 141.086 32.236L143.438 29.842C143.802 30.29 144.278 30.668 144.866 30.976C145.468 31.27 146.063 31.417 146.651 31.417C146.917 31.417 147.176 31.389 147.428 31.333C147.68 31.277 147.897 31.186 148.079 31.06C148.275 30.934 148.429 30.766 148.541 30.556C148.653 30.346 148.709 30.094 148.709 29.8C148.709 29.52 148.639 29.282 148.499 29.086C148.359 28.89 148.156 28.715 147.89 28.561C147.638 28.393 147.316 28.246 146.924 28.12C146.546 27.98 146.112 27.833 145.622 27.679C145.146 27.525 144.677 27.343 144.215 27.133C143.767 26.923 143.361 26.657 142.997 26.335C142.647 25.999 142.36 25.6 142.136 25.138C141.926 24.662 141.821 24.088 141.821 23.416C141.821 22.59 141.989 21.883 142.325 21.295C142.661 20.707 143.102 20.224 143.648 19.846C144.194 19.468 144.81 19.195 145.496 19.027C146.182 18.845 146.875 18.754 147.575 18.754C148.415 18.754 149.269 18.908 150.137 19.216C151.019 19.524 151.789 19.979 152.447 20.581L150.158 22.996ZM154.711 34V19.132H164.707V22.177H158.176V24.97H164.35V27.847H158.176V30.934H165.085V34H154.711ZM173.83 22.198V34H170.239V22.198H166.039V19.132H178.03V22.198H173.83ZM192.269 28.393C192.269 29.289 192.115 30.108 191.807 30.85C191.513 31.578 191.086 32.208 190.526 32.74C189.966 33.258 189.287 33.664 188.489 33.958C187.705 34.252 186.83 34.399 185.864 34.399C184.884 34.399 184.002 34.252 183.218 33.958C182.434 33.664 181.769 33.258 181.223 32.74C180.677 32.208 180.257 31.578 179.963 30.85C179.669 30.108 179.522 29.289 179.522 28.393V19.132H183.092V28.099C183.092 28.505 183.141 28.89 183.239 29.254C183.351 29.618 183.512 29.947 183.722 30.241C183.946 30.521 184.233 30.745 184.583 30.913C184.947 31.081 185.381 31.165 185.885 31.165C186.389 31.165 186.816 31.081 187.166 30.913C187.53 30.745 187.824 30.521 188.048 30.241C188.272 29.947 188.433 29.618 188.531 29.254C188.629 28.89 188.678 28.505 188.678 28.099V19.132H192.269V28.393ZM206.45 23.71C206.45 24.578 206.289 25.313 205.967 25.915C205.645 26.503 205.211 26.979 204.665 27.343C204.119 27.707 203.489 27.973 202.775 28.141C202.061 28.309 201.319 28.393 200.549 28.393H198.764V34H195.173V19.132H200.633C201.445 19.132 202.201 19.216 202.901 19.384C203.615 19.538 204.231 19.797 204.749 20.161C205.281 20.511 205.694 20.98 205.988 21.568C206.296 22.142 206.45 22.856 206.45 23.71ZM202.859 23.731C202.859 23.381 202.789 23.094 202.649 22.87C202.509 22.646 202.32 22.471 202.082 22.345C201.844 22.219 201.571 22.135 201.263 22.093C200.969 22.051 200.661 22.03 200.339 22.03H198.764V25.537H200.276C200.612 25.537 200.934 25.509 201.242 25.453C201.55 25.397 201.823 25.299 202.061 25.159C202.313 25.019 202.509 24.837 202.649 24.613C202.789 24.375 202.859 24.081 202.859 23.731Z" fill="white"/>
</svg>
