<svg width="731" height="55" viewBox="0 0 731 55" fill="none" xmlns="http://www.w3.org/2000/svg">
<rect y="1" width="731" height="53" fill="#242424"/>
<g opacity="0.456408">
<mask id="mask0_227:519" style="mask-type:alpha" maskUnits="userSpaceOnUse" x="0" y="1" width="262" height="6">
<path fill-rule="evenodd" clip-rule="evenodd" d="M0.582031 1.16992H261.495V6.10422H0.582031V1.16992Z" fill="white"/>
</mask>
<g mask="url(#mask0_227:519)">
<path fill-rule="evenodd" clip-rule="evenodd" d="M255.848 -8.9759C238.503 -7.9459 219.009 -12.8589 198.488 -18.0309C172.846 -24.4919 146.329 -31.1749 119.369 -28.0809C92.4575 -24.9819 67.1805 -15.6199 44.8785 -7.3589C26.4665 -0.537895 10.5615 5.3531 -2.02848 6.1001C-2.04748 6.1011 -2.06548 6.1031 -2.08448 6.1041L-2.14648 5.0551C-2.12848 5.0541 -2.10848 5.0521 -2.09048 5.0511C10.3765 4.3121 26.2265 -1.5589 44.5765 -8.3569C66.9235 -16.6339 92.2505 -26.0159 119.261 -29.1259C146.37 -32.2359 172.964 -25.5359 198.678 -19.0559C221.375 -13.3349 242.816 -7.9379 261.366 -10.5809L261.496 -9.5389C259.641 -9.2739 257.757 -9.0889 255.848 -8.9759Z" fill="#00B0C7"/>
</g>
<mask id="mask1_227:519" style="mask-type:alpha" maskUnits="userSpaceOnUse" x="0" y="1" width="248" height="16">
<path fill-rule="evenodd" clip-rule="evenodd" d="M0.582031 1.16992H247.208V16.8977H0.582031V1.16992Z" fill="white"/>
</mask>
<g mask="url(#mask1_227:519)">
<path fill-rule="evenodd" clip-rule="evenodd" d="M241.561 1.81865C224.218 2.84865 204.723 -2.06535 184.202 -7.23635C158.56 -13.6973 132.044 -20.3823 105.082 -17.2873C78.1714 -14.1893 52.8934 -4.82535 30.5904 3.43565C12.1784 10.2557 -3.72864 16.1477 -16.3176 16.8947C-16.3356 16.8957 -16.3516 16.8967 -16.3706 16.8977L-16.4316 15.8487C-16.4146 15.8477 -16.3966 15.8467 -16.3796 15.8457C-3.91264 15.1067 11.9384 9.23465 30.2884 2.43765C52.6354 -5.84035 77.9644 -15.2223 104.974 -18.3323C132.087 -21.4373 158.678 -14.7413 184.393 -8.26135C207.09 -2.54135 228.528 2.85965 247.077 0.213652L247.207 1.25565C245.352 1.51965 243.469 1.70565 241.561 1.81865Z" fill="#00B0C7"/>
</g>
<mask id="mask2_227:519" style="mask-type:alpha" maskUnits="userSpaceOnUse" x="0" y="1" width="233" height="27">
<path fill-rule="evenodd" clip-rule="evenodd" d="M0.582031 1.16992H232.926V27.6901H0.582031V1.16992Z" fill="white"/>
</mask>
<g mask="url(#mask2_227:519)">
<path fill-rule="evenodd" clip-rule="evenodd" d="M227.278 12.611C209.934 13.641 190.44 8.72799 169.918 3.55599C144.276 -2.906 117.763 -9.591 90.7992 -6.496C63.8892 -3.395 38.6122 5.967 16.3102 14.228C-2.10284 21.048 -18.0108 26.94 -30.6008 27.687C-30.6188 27.688 -30.6348 27.689 -30.6538 27.69L-30.7148 26.641C-30.6978 26.64 -30.6798 26.639 -30.6628 26.638C-18.1958 25.898 -2.34384 20.027 16.0082 13.229C38.3542 4.95199 63.6822 -4.429 90.6912 -7.541C117.806 -10.654 144.394 -3.949 170.108 2.531C192.807 8.252 214.252 13.651 232.796 11.006L232.926 12.047C231.071 12.312 229.186 12.497 227.278 12.611Z" fill="#00B0C7"/>
</g>
<mask id="mask3_227:519" style="mask-type:alpha" maskUnits="userSpaceOnUse" x="0" y="2" width="219" height="37">
<path fill-rule="evenodd" clip-rule="evenodd" d="M0.582031 2.46875H218.639V38.4838H0.582031V2.46875Z" fill="white"/>
</mask>
<g mask="url(#mask3_227:519)">
<path fill-rule="evenodd" clip-rule="evenodd" d="M212.994 23.4038C195.652 24.4338 176.157 19.5208 155.636 14.3498C129.994 7.88783 103.485 1.20383 76.514 4.29783C49.606 7.39783 24.33 16.7598 2.029 25.0208C-16.385 31.8408 -32.292 37.7328 -44.882 38.4798C-44.901 38.4818 -44.92 38.4828 -44.939 38.4838L-45 37.4348C-44.982 37.4338 -44.963 37.4328 -44.944 37.4308C-32.477 36.6918 -16.625 30.8198 1.727 24.0228C24.072 15.7458 49.399 6.36483 76.407 3.25283C103.514 0.145832 130.111 6.84383 155.827 13.3248C178.523 19.0438 199.961 24.4458 218.509 21.7988L218.639 22.8408C216.785 23.1058 214.902 23.2908 212.994 23.4038Z" fill="#00B0C7"/>
</g>
<mask id="mask4_227:519" style="mask-type:alpha" maskUnits="userSpaceOnUse" x="0" y="11" width="235" height="37">
<path fill-rule="evenodd" clip-rule="evenodd" d="M0.582031 11.4971H234.102V47.5104H0.582031V11.4971Z" fill="white"/>
</mask>
<g mask="url(#mask4_227:519)">
<path fill-rule="evenodd" clip-rule="evenodd" d="M228.453 32.4314C211.109 33.4604 191.614 28.5484 171.094 23.3764C145.452 16.9154 118.94 10.2324 91.9749 13.3254C65.0659 16.4244 39.7899 25.7874 17.4889 34.0484C-0.923063 40.8684 -16.8301 46.7594 -29.4191 47.5064C-29.4391 47.5084 -29.4581 47.5094 -29.4781 47.5104L-29.5391 46.4614C-29.5201 46.4604 -29.5001 46.4594 -29.4811 46.4574C-17.0151 45.7184 -1.16306 39.8474 17.1869 33.0494C39.5329 24.7724 64.8589 15.3914 91.8679 12.2804C118.979 9.17545 145.57 15.8714 171.284 22.3514C193.982 28.0724 215.423 33.4704 233.972 30.8264L234.102 31.8674C232.246 32.1324 230.363 32.3184 228.453 32.4314Z" fill="#00B0C7"/>
</g>
<mask id="mask5_227:519" style="mask-type:alpha" maskUnits="userSpaceOnUse" x="0" y="20" width="250" height="35">
<path fill-rule="evenodd" clip-rule="evenodd" d="M0.582031 20.5239H249.56V54.17H0.582031V20.5239Z" fill="white"/>
</mask>
<g mask="url(#mask5_227:519)">
<path fill-rule="evenodd" clip-rule="evenodd" d="M243.909 41.4574C226.567 42.4874 207.074 37.5744 186.554 32.4034C160.913 25.9404 134.398 19.2554 107.435 22.3524C80.5269 25.4514 55.2499 34.8144 32.9499 43.0744C14.5369 49.8944 -1.37008 55.7864 -13.9601 56.5334C-13.9801 56.5344 -13.9991 56.5354 -14.0181 56.5364L-14.0801 55.4874C-14.0611 55.4864 -14.0411 55.4854 -14.0221 55.4844C-1.55508 54.7444 14.2969 48.8734 32.6479 42.0754C54.9929 33.7994 80.3199 24.4184 107.327 21.3074C134.431 18.2024 161.03 24.8974 186.745 31.3784C209.443 37.0984 230.883 42.4954 249.429 39.8524L249.559 40.8934C247.703 41.1594 245.819 41.3444 243.909 41.4574Z" fill="#00B0C7"/>
</g>
<mask id="mask6_227:519" style="mask-type:alpha" maskUnits="userSpaceOnUse" x="1" y="29" width="265" height="26">
<path fill-rule="evenodd" clip-rule="evenodd" d="M1.38281 29.5488H265.025V54.1698H1.38281V29.5488Z" fill="white"/>
</mask>
<g mask="url(#mask6_227:519)">
<path fill-rule="evenodd" clip-rule="evenodd" d="M259.377 50.487C242.032 51.517 222.537 46.603 202.014 41.432C176.374 34.97 149.855 28.287 122.898 31.381C95.9858 34.479 70.7068 43.843 48.4038 52.104C29.9928 58.924 14.0868 64.816 1.49781 65.563C1.47881 65.564 1.46281 65.565 1.44381 65.566L1.38281 64.517C1.40081 64.516 1.41781 64.515 1.43581 64.514C13.9018 63.775 29.7528 57.904 48.1018 51.106C70.4498 42.828 95.7778 33.446 122.79 30.335C149.904 27.222 176.492 33.927 202.205 40.407C224.904 46.127 246.342 51.53 264.895 48.882L265.025 49.924C263.17 50.188 261.286 50.373 259.377 50.487Z" fill="#00B0C7"/>
</g>
<mask id="mask7_227:519" style="mask-type:alpha" maskUnits="userSpaceOnUse" x="0" y="40" width="251" height="15">
<path fill-rule="evenodd" clip-rule="evenodd" d="M0.582031 40.3442H250.737V54.17H0.582031V40.3442Z" fill="white"/>
</mask>
<g mask="url(#mask7_227:519)">
<path fill-rule="evenodd" clip-rule="evenodd" d="M245.091 61.2802C227.748 62.3102 208.253 57.3972 187.732 52.2252C162.09 45.7632 135.574 39.0772 108.612 42.1732C81.7027 45.2732 56.4267 54.6352 34.1257 62.8962C15.7117 69.7172 -0.195344 75.6092 -12.7863 76.3562C-12.8043 76.3572 -12.8223 76.3592 -12.8413 76.3602L-12.9023 75.3112C-12.8853 75.3102 -12.8663 75.3082 -12.8483 75.3072C-0.381344 74.5682 15.4707 68.6962 33.8237 61.8982C56.1697 53.6212 81.4967 44.2392 108.504 41.1282C135.613 38.0212 162.208 44.7202 187.923 51.2002C210.62 56.9202 232.058 62.3222 250.607 59.6752L250.737 60.7172C248.882 60.9822 246.999 61.1672 245.091 61.2802Z" fill="#00B0C7"/>
</g>
<mask id="mask8_227:519" style="mask-type:alpha" maskUnits="userSpaceOnUse" x="0" y="51" width="237" height="4">
<path fill-rule="evenodd" clip-rule="evenodd" d="M0.582031 51.1357H236.454V54.1698H0.582031V51.1357Z" fill="white"/>
</mask>
<g mask="url(#mask8_227:519)">
<path fill-rule="evenodd" clip-rule="evenodd" d="M230.806 72.0705C213.462 73.1005 193.968 68.1875 173.447 63.0165C147.805 56.5545 121.292 49.8725 94.3265 52.9655C67.4175 56.0645 42.1415 65.4275 19.8405 73.6875C1.4285 80.5075 -14.4785 86.3995 -27.0675 87.1465C-27.0875 87.1475 -27.1065 87.1485 -27.1265 87.1495L-27.1875 86.1005C-14.7065 85.4195 1.1605 79.4965 19.5385 72.6895C41.8835 64.4125 67.2105 55.0315 94.2185 51.9205C121.324 48.8115 147.923 55.5115 173.637 61.9915C196.335 67.7105 217.778 73.1125 236.323 70.4655L236.453 71.5065C234.598 71.7715 232.714 71.9565 230.806 72.0705Z" fill="#00B0C7"/>
</g>
<mask id="mask9_227:519" style="mask-type:alpha" maskUnits="userSpaceOnUse" x="245" y="1" width="265" height="1">
<path fill-rule="evenodd" clip-rule="evenodd" d="M245.957 1.1698H509.643V1.2677H245.957V1.1698Z" fill="white"/>
</mask>
<g mask="url(#mask9_227:519)">
<path fill-rule="evenodd" clip-rule="evenodd" d="M503.997 -13.8141C486.655 -12.7841 467.155 -17.6961 446.63 -22.8661C420.975 -29.3281 394.444 -36.0101 367.471 -32.9181C340.56 -29.8191 315.282 -20.4551 292.98 -12.1941C274.568 -5.3741 258.661 0.517899 246.072 1.2649C246.053 1.2659 246.037 1.2669 246.018 1.2679L245.957 0.218903C245.975 0.217903 245.992 0.2169 246.009 0.2159C258.476 -0.523098 274.327 -6.3951 292.677 -13.1921C315.024 -21.4701 340.353 -30.8521 367.363 -33.9621C394.493 -37.0661 421.093 -30.3711 446.82 -23.8911C469.522 -18.1731 490.962 -12.7731 509.514 -15.4191L509.643 -14.3771C507.789 -14.1131 505.905 -13.9271 503.997 -13.8141Z" fill="#00B0C7"/>
</g>
<mask id="mask10_227:519" style="mask-type:alpha" maskUnits="userSpaceOnUse" x="232" y="1" width="265" height="12">
<path fill-rule="evenodd" clip-rule="evenodd" d="M232.672 1.16992H496.36V12.0603H232.672V1.16992Z" fill="white"/>
</mask>
<g mask="url(#mask10_227:519)">
<path fill-rule="evenodd" clip-rule="evenodd" d="M490.712 -3.02137C473.366 -1.99137 453.862 -6.90437 433.33 -12.0754C407.676 -18.5354 381.146 -25.2184 354.186 -22.1254C327.276 -19.0244 301.999 -9.66236 279.697 -1.40236C261.284 5.41763 245.376 11.3106 232.787 12.0576C232.768 12.0586 232.752 12.0596 232.733 12.0606L232.672 11.0116C232.69 11.0106 232.707 11.0096 232.725 11.0086C245.191 10.2686 261.044 4.39663 279.395 -2.40037C301.741 -10.6774 327.069 -20.0584 354.078 -23.1704C381.192 -26.2764 407.794 -19.5794 433.52 -13.1004C456.229 -7.38137 477.673 -1.98236 496.231 -4.62637L496.36 -3.58537C494.505 -3.32037 492.621 -3.13537 490.712 -3.02137Z" fill="#00B0C7"/>
</g>
<mask id="mask11_227:519" style="mask-type:alpha" maskUnits="userSpaceOnUse" x="218" y="1" width="265" height="22">
<path fill-rule="evenodd" clip-rule="evenodd" d="M218.389 1.16992H482.075V22.8538H218.389V1.16992Z" fill="white"/>
</mask>
<g mask="url(#mask11_227:519)">
<path fill-rule="evenodd" clip-rule="evenodd" d="M476.429 7.77079C459.085 8.80079 439.581 3.88779 419.05 -1.28221C393.395 -7.74321 366.87 -14.4262 339.903 -11.3322C312.995 -8.23221 287.719 1.12979 265.418 9.39079C247.004 16.2108 231.097 22.1028 218.507 22.8498C218.487 22.8518 218.469 22.8528 218.45 22.8538L218.389 21.8048C218.407 21.8038 218.426 21.8018 218.445 21.8008C230.912 21.0618 246.764 15.1888 265.116 8.39279C287.461 0.115786 312.788 -9.26521 339.796 -12.3772C366.91 -15.4892 393.513 -8.78621 419.241 -2.30721C441.949 3.41179 463.396 8.81479 481.946 6.16679L482.075 7.20779C480.221 7.47279 478.337 7.65779 476.429 7.77079Z" fill="#00B0C7"/>
</g>
<mask id="mask12_227:519" style="mask-type:alpha" maskUnits="userSpaceOnUse" x="233" y="1" width="265" height="31">
<path fill-rule="evenodd" clip-rule="evenodd" d="M233.85 1.16992H497.538V31.8806H233.85V1.16992Z" fill="white"/>
</mask>
<g mask="url(#mask12_227:519)">
<path fill-rule="evenodd" clip-rule="evenodd" d="M491.889 16.7986C474.543 17.8276 455.038 12.9156 434.508 7.7446C408.854 1.2836 382.332 -5.3954 355.364 -2.3044C328.455 0.794602 303.179 10.1576 280.878 18.4186C262.466 25.2376 246.559 31.1296 233.97 31.8766C233.95 31.8786 233.931 31.8796 233.911 31.8806L233.85 30.8316C233.869 30.8306 233.888 30.8296 233.907 30.8276C246.374 30.0886 262.226 24.2166 280.576 17.4196C302.921 9.1426 328.248 -0.238398 355.256 -3.3494C382.369 -6.4584 408.971 0.240602 434.698 6.7206C457.408 12.4406 478.852 17.8426 497.408 15.1936L497.538 16.2346C495.682 16.4996 493.798 16.6856 491.889 16.7986Z" fill="#00B0C7"/>
</g>
<path fill-rule="evenodd" clip-rule="evenodd" d="M506.365 25.9246C489.068 26.9531 469.621 22.0442 449.15 16.8765C423.562 10.4163 397.106 3.73821 370.198 6.82986C343.36 9.92852 318.15 19.2864 295.907 27.5429C277.543 34.3599 261.677 40.2493 249.119 40.996C249.099 40.997 249.081 40.998 249.061 41L249 39.9515C249.019 39.9495 249.038 39.9485 249.057 39.9475C261.491 39.2078 277.302 33.3393 295.605 26.5453C317.892 18.2719 343.153 8.89497 370.09 5.78632C397.149 2.67367 423.679 9.37476 449.339 15.8519C471.984 21.5675 493.375 26.9621 511.87 24.3193L512 25.3608C510.149 25.6257 508.269 25.8116 506.365 25.9246Z" fill="#00B0C7"/>
<path fill-rule="evenodd" clip-rule="evenodd" d="M522.368 34.9239C505.07 35.9534 485.629 31.0447 465.162 25.8771C439.576 19.417 413.112 12.7381 386.197 15.8297C359.356 18.9272 334.143 28.286 311.898 36.5442C293.535 43.36 277.671 49.2503 265.115 49.997C265.096 49.998 265.08 49.999 265.062 50L265 48.9515C265.018 48.9505 265.035 48.9495 265.053 48.9485C277.486 48.2088 293.296 42.3395 311.597 35.5466C333.887 27.2724 359.149 17.8937 386.09 14.7851C413.157 11.6756 439.692 18.3745 465.352 24.8525C487.989 30.5679 509.369 35.9654 527.871 33.3196L528 34.3612C526.151 34.626 524.27 34.811 522.368 34.9239Z" fill="#00B0C7"/>
<mask id="mask13_227:519" style="mask-type:alpha" maskUnits="userSpaceOnUse" x="249" y="24" width="265" height="31">
<path fill-rule="evenodd" clip-rule="evenodd" d="M249.484 24.7139H513.17V54.1699H249.484V24.7139Z" fill="white"/>
</mask>
<g mask="url(#mask13_227:519)">
<path fill-rule="evenodd" clip-rule="evenodd" d="M507.525 45.6473C490.182 46.6773 470.682 41.7643 450.157 36.5943C424.502 30.1323 397.97 23.4503 370.998 26.5433C344.09 29.6433 318.813 39.0053 296.512 47.2663C278.098 54.0873 262.191 59.9793 249.601 60.7263C249.582 60.7273 249.564 60.7283 249.545 60.7303L249.484 59.6813C249.502 59.6793 249.521 59.6783 249.538 59.6773C262.006 58.9383 277.858 53.0653 296.21 46.2683C318.556 37.9913 343.882 28.6093 370.89 25.4983C398.016 22.3903 424.62 29.0893 450.347 35.5693C473.049 41.2893 494.489 46.6893 513.041 44.0423L513.17 45.0843C511.316 45.3493 509.433 45.5343 507.525 45.6473Z" fill="#00B0C7"/>
</g>
<mask id="mask14_227:519" style="mask-type:alpha" maskUnits="userSpaceOnUse" x="235" y="35" width="264" height="20">
<path fill-rule="evenodd" clip-rule="evenodd" d="M235.201 35.5073H498.889V54.1702H235.201V35.5073Z" fill="white"/>
</mask>
<g mask="url(#mask14_227:519)">
<path fill-rule="evenodd" clip-rule="evenodd" d="M493.241 56.4381C475.896 57.4681 456.392 52.5551 435.861 47.3851C410.206 40.9251 383.682 34.2451 356.715 37.3361C329.806 40.4351 304.53 49.7981 282.229 58.0581C263.817 64.8781 247.91 70.7701 235.321 71.5171C235.301 71.5181 235.282 71.5191 235.262 71.5201L235.201 70.4711C247.684 69.7901 263.549 63.8671 281.927 57.0601C304.272 48.7831 329.599 39.4021 356.607 36.2911C383.715 33.1851 410.324 39.8811 436.051 46.3601C458.759 52.0781 480.206 57.4781 498.76 54.8331L498.889 55.8751C497.034 56.1391 495.149 56.3241 493.241 56.4381Z" fill="#00B0C7"/>
</g>
<mask id="mask15_227:519" style="mask-type:alpha" maskUnits="userSpaceOnUse" x="221" y="46" width="265" height="9">
<path fill-rule="evenodd" clip-rule="evenodd" d="M221.916 46.3008H485.603V54.1701H221.916V46.3008Z" fill="white"/>
</mask>
<g mask="url(#mask15_227:519)">
<path fill-rule="evenodd" clip-rule="evenodd" d="M479.954 67.2315C462.611 68.2605 443.107 63.3485 422.576 58.1785C396.922 51.7165 370.391 45.0375 343.431 48.1285C316.52 51.2275 291.242 60.5895 268.94 68.8515C250.527 75.6715 234.622 81.5625 222.033 82.3095C222.014 82.3115 221.996 82.3125 221.977 82.3135L221.916 81.2645C221.934 81.2635 221.953 81.2625 221.971 81.2605C234.437 80.5215 250.287 74.6495 268.638 67.8535C290.985 59.5755 316.313 50.1935 343.323 47.0835C370.443 43.9805 397.04 50.6745 422.767 57.1525C445.475 62.8725 466.918 68.2715 485.474 65.6265L485.603 66.6675C483.747 66.9325 481.864 67.1185 479.954 67.2315Z" fill="#00B0C7"/>
</g>
<mask id="mask16_227:519" style="mask-type:alpha" maskUnits="userSpaceOnUse" x="480" y="1" width="251" height="7">
<path fill-rule="evenodd" clip-rule="evenodd" d="M480.824 1.16992H730.584V7.22092H480.824V1.16992Z" fill="white"/>
</mask>
<g mask="url(#mask16_227:519)">
<path fill-rule="evenodd" clip-rule="evenodd" d="M738.818 -7.85909C721.476 -6.82909 701.981 -11.7421 681.46 -16.9131C655.817 -23.3751 629.297 -30.0561 602.338 -26.9651C575.43 -23.8651 550.154 -14.5031 527.854 -6.24209C509.439 0.577913 493.532 6.46991 480.942 7.21691C480.923 7.21891 480.905 7.21991 480.885 7.22091L480.824 6.17191C480.842 6.17091 480.861 6.16991 480.88 6.16791C493.347 5.42891 509.199 -0.443089 527.551 -7.24009C549.896 -15.5171 575.223 -24.8981 602.23 -28.0101C629.343 -31.1151 655.936 -24.4191 681.65 -17.9381C704.347 -12.2181 725.786 -6.81409 744.334 -9.46309L744.463 -8.42209C742.609 -8.15709 740.726 -7.97209 738.818 -7.85909Z" fill="#00B0C7"/>
</g>
<mask id="mask17_227:519" style="mask-type:alpha" maskUnits="userSpaceOnUse" x="496" y="1" width="235" height="16">
<path fill-rule="evenodd" clip-rule="evenodd" d="M496.283 1.16992H730.582V16.2478H496.283V1.16992Z" fill="white"/>
</mask>
<g mask="url(#mask17_227:519)">
<path fill-rule="evenodd" clip-rule="evenodd" d="M754.275 1.16903C736.932 2.19803 717.437 -2.71397 696.916 -7.88597C671.274 -14.347 644.757 -21.032 617.796 -17.937C590.888 -14.838 565.611 -5.47497 543.311 2.78603C524.899 9.60603 508.993 15.497 496.402 16.244C496.382 16.246 496.363 16.247 496.343 16.248L496.283 15.199C496.302 15.198 496.321 15.197 496.34 15.195C508.807 14.456 524.659 8.58503 543.009 1.78703C565.354 -6.48997 590.681 -15.871 617.689 -18.982C644.799 -22.088 671.392 -15.39 697.106 -8.91097C719.805 -3.18997 741.24 2.20603 759.794 -0.435968L759.924 0.605032C758.068 0.870031 756.184 1.05603 754.275 1.16903Z" fill="#00B0C7"/>
</g>
<mask id="mask18_227:519" style="mask-type:alpha" maskUnits="userSpaceOnUse" x="511" y="1" width="220" height="25">
<path fill-rule="evenodd" clip-rule="evenodd" d="M511.744 1.16992H730.583V25.2741H511.744V1.16992Z" fill="white"/>
</mask>
<g mask="url(#mask18_227:519)">
<path fill-rule="evenodd" clip-rule="evenodd" d="M769.733 10.195C752.391 11.224 732.898 6.31204 712.378 1.14004C686.736 -5.32196 660.224 -12.005 633.257 -8.90996C606.349 -5.81096 581.073 3.55104 558.772 11.811C540.359 18.632 524.453 24.523 511.863 25.27C511.843 25.271 511.824 25.273 511.804 25.274L511.744 24.225C511.763 24.223 511.782 24.222 511.801 24.221C524.267 23.482 540.119 17.61 558.47 10.813C580.815 2.53704 606.141 -6.84396 633.15 -9.95496C660.259 -13.061 686.853 -6.36496 712.568 0.115042C735.266 5.83604 756.71 11.233 775.253 8.58904L775.383 9.63104C773.527 9.89604 771.642 10.081 769.733 10.195Z" fill="#00B0C7"/>
</g>
<mask id="mask19_227:519" style="mask-type:alpha" maskUnits="userSpaceOnUse" x="527" y="1" width="204" height="34">
<path fill-rule="evenodd" clip-rule="evenodd" d="M527.205 1.16992H730.584V34.3039H527.205V1.16992Z" fill="white"/>
</mask>
<g mask="url(#mask19_227:519)">
<path fill-rule="evenodd" clip-rule="evenodd" d="M785.2 19.2251C767.854 20.2551 748.36 15.3411 727.837 10.1701C702.197 3.70812 675.694 -2.97088 648.721 0.118116C621.808 3.21712 596.529 12.5801 574.226 20.8421C555.815 27.6621 539.908 33.5541 527.319 34.3011C527.301 34.3021 527.285 34.3031 527.266 34.3041L527.205 33.2551C527.222 33.2541 527.24 33.2531 527.257 33.2521C539.723 32.5121 555.574 26.6411 573.924 19.8441C596.271 11.5661 621.601 2.18312 648.613 -0.926884C675.725 -4.02988 702.315 2.66512 728.028 9.14412C750.727 14.8641 772.161 20.2641 790.719 17.6191L790.848 18.6611C788.993 18.9261 787.108 19.1111 785.2 19.2251Z" fill="#00B0C7"/>
</g>
<mask id="mask20_227:519" style="mask-type:alpha" maskUnits="userSpaceOnUse" x="512" y="9" width="219" height="37">
<path fill-rule="evenodd" clip-rule="evenodd" d="M512.92 9.08203H730.583V45.0973H512.92V9.08203Z" fill="white"/>
</mask>
<g mask="url(#mask20_227:519)">
<path fill-rule="evenodd" clip-rule="evenodd" d="M770.914 30.0173C753.571 31.0473 734.076 26.1343 713.555 20.9623C687.913 14.5003 661.4 7.81133 634.434 10.9103C607.525 14.0103 582.249 23.3733 559.947 31.6333C541.533 38.4543 525.626 44.3463 513.036 45.0933C513.018 45.0943 513 45.0963 512.981 45.0973L512.92 44.0483C512.937 44.0473 512.956 44.0453 512.974 44.0443C525.441 43.3053 541.292 37.4333 559.645 30.6353C581.991 22.3583 607.318 12.9773 634.326 9.86533C661.44 6.76033 688.031 13.4573 713.745 19.9373C736.443 25.6573 757.881 31.0593 776.43 28.4123L776.559 29.4543C774.704 29.7193 772.822 29.9043 770.914 30.0173Z" fill="#00B0C7"/>
</g>
<mask id="mask21_227:519" style="mask-type:alpha" maskUnits="userSpaceOnUse" x="498" y="19" width="233" height="36">
<path fill-rule="evenodd" clip-rule="evenodd" d="M498.637 19.875H730.584V54.17H498.637V19.875Z" fill="white"/>
</mask>
<g mask="url(#mask21_227:519)">
<path fill-rule="evenodd" clip-rule="evenodd" d="M756.631 40.808C739.287 41.838 719.794 36.925 699.272 31.754C673.629 25.291 647.108 18.612 620.151 21.704C593.243 24.803 567.967 34.165 545.666 42.425C527.253 49.245 511.347 55.137 498.756 55.884C498.737 55.885 498.718 55.886 498.698 55.887L498.637 54.838C498.656 54.837 498.675 54.836 498.694 54.835C511.161 54.095 527.013 48.224 545.363 41.427C567.709 33.15 593.035 23.769 620.043 20.658C647.152 17.554 673.748 24.249 699.462 30.729C722.16 36.448 743.6 41.851 762.149 39.203L762.278 40.244C760.423 40.509 758.539 40.694 756.631 40.808Z" fill="#00B0C7"/>
</g>
<mask id="mask22_227:519" style="mask-type:alpha" maskUnits="userSpaceOnUse" x="484" y="30" width="247" height="25">
<path fill-rule="evenodd" clip-rule="evenodd" d="M484.352 30.6675H730.582V54.1699H484.352V30.6675Z" fill="white"/>
</mask>
<g mask="url(#mask22_227:519)">
<path fill-rule="evenodd" clip-rule="evenodd" d="M742.342 51.6014C725.001 52.6304 705.507 47.7174 684.987 42.5464C659.343 36.0844 632.823 29.3994 605.865 32.4954C578.955 35.5944 553.678 44.9564 531.375 53.2184C512.962 60.0384 497.057 65.9304 484.468 66.6774C484.449 66.6784 484.431 66.6794 484.412 66.6804L484.352 65.6314C484.369 65.6304 484.388 65.6294 484.405 65.6284C496.872 64.8884 512.722 59.0174 531.073 52.2204C553.42 43.9424 578.748 34.5604 605.758 31.4504C632.87 28.3464 659.463 35.0424 685.177 41.5224C707.874 47.2414 729.31 52.6404 747.861 49.9964L747.991 51.0374C746.135 51.3024 744.252 51.4884 742.342 51.6014Z" fill="#00B0C7"/>
</g>
<mask id="mask23_227:519" style="mask-type:alpha" maskUnits="userSpaceOnUse" x="499" y="39" width="232" height="16">
<path fill-rule="evenodd" clip-rule="evenodd" d="M499.812 39.6943H730.583V54.1701H499.812V39.6943Z" fill="white"/>
</mask>
<g mask="url(#mask23_227:519)">
<path fill-rule="evenodd" clip-rule="evenodd" d="M757.805 60.6284C740.462 61.6574 720.967 56.7454 700.447 51.5744C674.805 45.1114 648.284 38.4324 621.326 41.5244C594.417 44.6224 569.14 53.9854 546.838 62.2454C528.426 69.0654 512.519 74.9574 499.929 75.7044C499.91 75.7054 499.892 75.7064 499.872 75.7074L499.812 74.6584C499.83 74.6574 499.85 74.6564 499.867 74.6554C512.335 73.9154 528.184 68.0444 546.535 61.2474C568.882 52.9704 594.209 43.5894 621.218 40.4784C648.34 37.3714 674.924 44.0694 700.637 50.5494C723.335 56.2694 744.779 61.6684 763.323 59.0234L763.453 60.0644C761.598 60.3294 759.714 60.5154 757.805 60.6284Z" fill="#00B0C7"/>
</g>
<mask id="mask24_227:519" style="mask-type:alpha" maskUnits="userSpaceOnUse" x="515" y="48" width="216" height="7">
<path fill-rule="evenodd" clip-rule="evenodd" d="M515.271 48.7231H730.582V54.1702H515.271V48.7231Z" fill="white"/>
</mask>
<g mask="url(#mask24_227:519)">
<path fill-rule="evenodd" clip-rule="evenodd" d="M773.266 69.6573C755.923 70.6873 736.429 65.7753 715.907 60.6033C690.264 54.1403 663.748 47.4603 636.785 50.5513C609.873 53.6493 584.594 63.0133 562.291 71.2753C543.88 78.0953 527.974 83.9873 515.385 84.7343C515.367 84.7353 515.351 84.7363 515.333 84.7373L515.271 83.6883C515.289 83.6873 515.306 83.6863 515.323 83.6853C527.789 82.9463 543.64 77.0743 561.989 70.2773C584.336 61.9983 609.666 52.6153 636.677 49.5053C663.792 46.4033 690.382 53.0983 716.097 59.5773C738.794 65.2973 760.227 70.7023 778.781 68.0523L778.91 69.0953C777.057 69.3593 775.173 69.5443 773.266 69.6573Z" fill="#00B0C7"/>
</g>
</g>
<path fill-rule="evenodd" clip-rule="evenodd" d="M31 27L17 34V20L31 27Z" fill="white"/>
<path d="M55.133 29.393C55.133 30.289 54.979 31.108 54.671 31.85C54.377 32.578 53.95 33.208 53.39 33.74C52.83 34.258 52.151 34.664 51.353 34.958C50.569 35.252 49.694 35.399 48.728 35.399C47.748 35.399 46.866 35.252 46.082 34.958C45.298 34.664 44.633 34.258 44.087 33.74C43.541 33.208 43.121 32.578 42.827 31.85C42.533 31.108 42.386 30.289 42.386 29.393V20.132H45.956V29.099C45.956 29.505 46.005 29.89 46.103 30.254C46.215 30.618 46.376 30.947 46.586 31.241C46.81 31.521 47.097 31.745 47.447 31.913C47.811 32.081 48.245 32.165 48.749 32.165C49.253 32.165 49.68 32.081 50.03 31.913C50.394 31.745 50.688 31.521 50.912 31.241C51.136 30.947 51.297 30.618 51.395 30.254C51.493 29.89 51.542 29.505 51.542 29.099V20.132H55.133V29.393ZM67.4869 35L61.5019 25.277H61.4389L61.5229 35H58.0369V20.132H62.1319L68.0959 29.834H68.1589L68.0749 20.132H71.5609V35H67.4869ZM88.5087 27.524C88.5087 28.826 88.2637 29.953 87.7737 30.905C87.2977 31.843 86.6607 32.62 85.8627 33.236C85.0787 33.838 84.1897 34.286 83.1957 34.58C82.2017 34.86 81.1937 35 80.1717 35H74.6277V20.132H80.0037C81.0537 20.132 82.0897 20.258 83.1117 20.51C84.1337 20.748 85.0437 21.154 85.8417 21.728C86.6397 22.288 87.2837 23.044 87.7737 23.996C88.2637 24.948 88.5087 26.124 88.5087 27.524ZM84.7707 27.524C84.7707 26.684 84.6307 25.991 84.3507 25.445C84.0847 24.885 83.7207 24.444 83.2587 24.122C82.8107 23.786 82.2927 23.548 81.7047 23.408C81.1307 23.268 80.5357 23.198 79.9197 23.198H78.1347V31.892H79.8357C80.4797 31.892 81.0957 31.822 81.6837 31.682C82.2857 31.528 82.8107 31.283 83.2587 30.947C83.7207 30.611 84.0847 30.163 84.3507 29.603C84.6307 29.043 84.7707 28.35 84.7707 27.524ZM90.8904 35V20.132H100.886V23.177H94.3554V25.97H100.529V28.847H94.3554V31.934H101.264V35H90.8904ZM111.605 35L108.392 29.099H107.174V35H103.646V20.132H109.316C110.03 20.132 110.723 20.209 111.395 20.363C112.081 20.503 112.69 20.748 113.222 21.098C113.768 21.448 114.202 21.91 114.524 22.484C114.846 23.058 115.007 23.772 115.007 24.626C115.007 25.634 114.734 26.481 114.188 27.167C113.642 27.853 112.886 28.343 111.92 28.637L115.805 35H111.605ZM111.458 24.689C111.458 24.339 111.381 24.059 111.227 23.849C111.087 23.625 110.898 23.457 110.66 23.345C110.436 23.219 110.177 23.135 109.883 23.093C109.603 23.051 109.33 23.03 109.064 23.03H107.153V26.495H108.854C109.148 26.495 109.449 26.474 109.757 26.432C110.065 26.376 110.345 26.285 110.597 26.159C110.849 26.033 111.052 25.851 111.206 25.613C111.374 25.375 111.458 25.067 111.458 24.689ZM133.321 35H129.772L126.832 24.941H126.769L123.829 35H120.259L116.038 20.132H119.902L122.254 30.023H122.317L124.963 20.132H128.701L131.368 30.023H131.431L133.825 20.132H137.563L133.321 35ZM147.063 35L143.85 29.099H142.632V35H139.104V20.132H144.774C145.488 20.132 146.181 20.209 146.853 20.363C147.539 20.503 148.148 20.748 148.68 21.098C149.226 21.448 149.66 21.91 149.982 22.484C150.304 23.058 150.465 23.772 150.465 24.626C150.465 25.634 150.192 26.481 149.646 27.167C149.1 27.853 148.344 28.343 147.378 28.637L151.263 35H147.063ZM146.916 24.689C146.916 24.339 146.839 24.059 146.685 23.849C146.545 23.625 146.356 23.457 146.118 23.345C145.894 23.219 145.635 23.135 145.341 23.093C145.061 23.051 144.788 23.03 144.522 23.03H142.611V26.495H144.312C144.606 26.495 144.907 26.474 145.215 26.432C145.523 26.376 145.803 26.285 146.055 26.159C146.307 26.033 146.51 25.851 146.664 25.613C146.832 25.375 146.916 25.067 146.916 24.689ZM153.029 35V20.132H156.641V35H153.029ZM166.078 23.198V35H162.487V23.198H158.287V20.132H170.278V23.198H166.078ZM171.917 35V20.132H175.529V35H171.917ZM188.052 35L182.067 25.277H182.004L182.088 35H178.602V20.132H182.697L188.661 29.834H188.724L188.64 20.132H192.126V35H188.052ZM208.402 34.097C207.674 34.475 206.82 34.783 205.84 35.021C204.874 35.259 203.817 35.378 202.669 35.378C201.479 35.378 200.38 35.189 199.372 34.811C198.378 34.433 197.517 33.901 196.789 33.215C196.075 32.529 195.515 31.71 195.109 30.758C194.703 29.792 194.5 28.721 194.5 27.545C194.5 26.355 194.703 25.277 195.109 24.311C195.529 23.345 196.103 22.526 196.831 21.854C197.559 21.168 198.413 20.643 199.393 20.279C200.373 19.915 201.43 19.733 202.564 19.733C203.74 19.733 204.832 19.915 205.84 20.279C206.848 20.629 207.667 21.105 208.297 21.707L206.029 24.29C205.679 23.884 205.217 23.555 204.643 23.303C204.069 23.037 203.418 22.904 202.69 22.904C202.06 22.904 201.479 23.023 200.947 23.261C200.415 23.485 199.953 23.807 199.561 24.227C199.169 24.633 198.861 25.123 198.637 25.697C198.427 26.257 198.322 26.873 198.322 27.545C198.322 28.231 198.42 28.861 198.616 29.435C198.812 30.009 199.099 30.506 199.477 30.926C199.869 31.332 200.345 31.654 200.905 31.892C201.479 32.116 202.13 32.228 202.858 32.228C203.278 32.228 203.677 32.2 204.055 32.144C204.433 32.074 204.783 31.969 205.105 31.829V29.12H202.27V26.222H208.402V34.097Z" fill="white"/>
<path d="M656.407 31V24.628H657.955V29.659H660.421V31H656.407ZM665.657 28.741C665.657 29.107 665.591 29.44 665.459 29.74C665.327 30.034 665.147 30.286 664.919 30.496C664.691 30.7 664.427 30.859 664.127 30.973C663.827 31.087 663.506 31.144 663.164 31.144C662.828 31.144 662.507 31.087 662.201 30.973C661.901 30.859 661.637 30.7 661.409 30.496C661.187 30.286 661.01 30.034 660.878 29.74C660.746 29.44 660.68 29.107 660.68 28.741C660.68 28.375 660.746 28.045 660.878 27.751C661.01 27.457 661.187 27.208 661.409 27.004C661.637 26.8 661.901 26.644 662.201 26.536C662.507 26.428 662.828 26.374 663.164 26.374C663.506 26.374 663.827 26.428 664.127 26.536C664.427 26.644 664.691 26.8 664.919 27.004C665.147 27.208 665.327 27.457 665.459 27.751C665.591 28.045 665.657 28.375 665.657 28.741ZM664.235 28.741C664.235 28.597 664.211 28.456 664.163 28.318C664.115 28.18 664.046 28.06 663.956 27.958C663.866 27.85 663.755 27.763 663.623 27.697C663.491 27.631 663.338 27.598 663.164 27.598C662.99 27.598 662.837 27.631 662.705 27.697C662.573 27.763 662.462 27.85 662.372 27.958C662.288 28.06 662.222 28.18 662.174 28.318C662.132 28.456 662.111 28.597 662.111 28.741C662.111 28.885 662.132 29.026 662.174 29.164C662.222 29.302 662.291 29.428 662.381 29.542C662.471 29.65 662.582 29.737 662.714 29.803C662.846 29.869 662.999 29.902 663.173 29.902C663.347 29.902 663.5 29.869 663.632 29.803C663.764 29.737 663.875 29.65 663.965 29.542C664.055 29.428 664.121 29.302 664.163 29.164C664.211 29.026 664.235 28.885 664.235 28.741ZM669.238 29.047H669.049C668.887 29.047 668.722 29.056 668.554 29.074C668.392 29.086 668.245 29.113 668.113 29.155C667.987 29.197 667.882 29.26 667.798 29.344C667.714 29.422 667.672 29.527 667.672 29.659C667.672 29.743 667.69 29.815 667.726 29.875C667.768 29.935 667.819 29.983 667.879 30.019C667.939 30.055 668.008 30.082 668.086 30.1C668.164 30.112 668.239 30.118 668.311 30.118C668.611 30.118 668.839 30.037 668.995 29.875C669.157 29.707 669.238 29.482 669.238 29.2V29.047ZM666.529 27.13C666.793 26.878 667.099 26.689 667.447 26.563C667.801 26.437 668.161 26.374 668.527 26.374C668.905 26.374 669.223 26.422 669.481 26.518C669.745 26.608 669.958 26.752 670.12 26.95C670.282 27.142 670.399 27.388 670.471 27.688C670.549 27.982 670.588 28.333 670.588 28.741V31H669.238V30.523H669.211C669.097 30.709 668.923 30.853 668.689 30.955C668.461 31.057 668.212 31.108 667.942 31.108C667.762 31.108 667.576 31.084 667.384 31.036C667.192 30.988 667.015 30.91 666.853 30.802C666.697 30.694 666.568 30.55 666.466 30.37C666.364 30.19 666.313 29.968 666.313 29.704C666.313 29.38 666.4 29.119 666.574 28.921C666.754 28.723 666.982 28.57 667.258 28.462C667.54 28.354 667.852 28.282 668.194 28.246C668.536 28.21 668.869 28.192 669.193 28.192V28.12C669.193 27.898 669.115 27.736 668.959 27.634C668.803 27.526 668.611 27.472 668.383 27.472C668.173 27.472 667.969 27.517 667.771 27.607C667.579 27.697 667.414 27.805 667.276 27.931L666.529 27.13ZM674.632 31V28.552C674.632 28.426 674.62 28.306 674.596 28.192C674.578 28.078 674.545 27.979 674.497 27.895C674.449 27.805 674.38 27.736 674.29 27.688C674.206 27.634 674.098 27.607 673.966 27.607C673.834 27.607 673.717 27.634 673.615 27.688C673.519 27.736 673.438 27.805 673.372 27.895C673.306 27.985 673.255 28.09 673.219 28.21C673.189 28.324 673.174 28.444 673.174 28.57V31H671.689V26.518H673.12V27.139H673.138C673.192 27.043 673.261 26.95 673.345 26.86C673.435 26.764 673.537 26.683 673.651 26.617C673.771 26.551 673.9 26.497 674.038 26.455C674.176 26.413 674.323 26.392 674.479 26.392C674.779 26.392 675.034 26.446 675.244 26.554C675.454 26.662 675.622 26.803 675.748 26.977C675.88 27.145 675.973 27.34 676.027 27.562C676.087 27.784 676.117 28.006 676.117 28.228V31H674.632ZM681.087 25.942V27.256H683.553V28.525H681.087V31H679.566V24.628H683.76V25.942H681.087ZM687.245 31V30.379H687.227C687.173 30.481 687.101 30.577 687.011 30.667C686.927 30.757 686.825 30.835 686.705 30.901C686.591 30.967 686.462 31.021 686.318 31.063C686.18 31.105 686.033 31.126 685.877 31.126C685.577 31.126 685.322 31.072 685.112 30.964C684.908 30.856 684.74 30.718 684.608 30.55C684.482 30.376 684.389 30.181 684.329 29.965C684.275 29.743 684.248 29.518 684.248 29.29V26.518H685.733V28.948C685.733 29.074 685.742 29.194 685.76 29.308C685.778 29.422 685.811 29.524 685.859 29.614C685.913 29.704 685.982 29.776 686.066 29.83C686.15 29.878 686.261 29.902 686.399 29.902C686.657 29.902 686.852 29.806 686.984 29.614C687.122 29.422 687.191 29.197 687.191 28.939V26.518H688.667V31H687.245ZM692.764 31V28.552C692.764 28.426 692.752 28.306 692.728 28.192C692.71 28.078 692.677 27.979 692.629 27.895C692.581 27.805 692.512 27.736 692.422 27.688C692.338 27.634 692.23 27.607 692.098 27.607C691.966 27.607 691.849 27.634 691.747 27.688C691.651 27.736 691.57 27.805 691.504 27.895C691.438 27.985 691.387 28.09 691.351 28.21C691.321 28.324 691.306 28.444 691.306 28.57V31H689.821V26.518H691.252V27.139H691.27C691.324 27.043 691.393 26.95 691.477 26.86C691.567 26.764 691.669 26.683 691.783 26.617C691.903 26.551 692.032 26.497 692.17 26.455C692.308 26.413 692.455 26.392 692.611 26.392C692.911 26.392 693.166 26.446 693.376 26.554C693.586 26.662 693.754 26.803 693.88 26.977C694.012 27.145 694.105 27.34 694.159 27.562C694.219 27.784 694.249 28.006 694.249 28.228V31H692.764ZM698.76 31V30.415H698.742C698.598 30.643 698.391 30.82 698.121 30.946C697.857 31.066 697.575 31.126 697.275 31.126C696.939 31.126 696.639 31.06 696.375 30.928C696.111 30.796 695.886 30.622 695.7 30.406C695.52 30.184 695.382 29.929 695.286 29.641C695.19 29.353 695.142 29.053 695.142 28.741C695.142 28.429 695.19 28.132 695.286 27.85C695.388 27.562 695.529 27.31 695.709 27.094C695.895 26.878 696.117 26.707 696.375 26.581C696.639 26.455 696.933 26.392 697.257 26.392C697.587 26.392 697.866 26.455 698.094 26.581C698.322 26.707 698.499 26.845 698.625 26.995H698.643V24.196H700.119V31H698.76ZM698.706 28.75C698.706 28.606 698.679 28.465 698.625 28.327C698.577 28.189 698.505 28.066 698.409 27.958C698.319 27.85 698.208 27.763 698.076 27.697C697.944 27.631 697.794 27.598 697.626 27.598C697.452 27.598 697.299 27.631 697.167 27.697C697.035 27.763 696.924 27.85 696.834 27.958C696.744 28.06 696.675 28.18 696.627 28.318C696.585 28.456 696.564 28.597 696.564 28.741C696.564 28.885 696.585 29.029 696.627 29.173C696.675 29.311 696.744 29.434 696.834 29.542C696.924 29.65 697.035 29.737 697.167 29.803C697.299 29.869 697.452 29.902 697.626 29.902C697.794 29.902 697.944 29.869 698.076 29.803C698.208 29.737 698.319 29.65 698.409 29.542C698.505 29.434 698.577 29.311 698.625 29.173C698.679 29.035 698.706 28.894 698.706 28.75ZM704.378 28.246C704.378 28.012 704.303 27.811 704.153 27.643C704.009 27.475 703.79 27.391 703.496 27.391C703.352 27.391 703.22 27.415 703.1 27.463C702.98 27.505 702.875 27.565 702.785 27.643C702.695 27.721 702.623 27.814 702.569 27.922C702.515 28.024 702.485 28.132 702.479 28.246H704.378ZM705.737 28.813C705.737 28.873 705.737 28.933 705.737 28.993C705.737 29.053 705.734 29.11 705.728 29.164H702.479C702.491 29.29 702.527 29.404 702.587 29.506C702.653 29.608 702.734 29.698 702.83 29.776C702.932 29.848 703.043 29.905 703.163 29.947C703.289 29.989 703.418 30.01 703.55 30.01C703.784 30.01 703.982 29.968 704.144 29.884C704.306 29.794 704.438 29.68 704.54 29.542L705.566 30.19C705.356 30.496 705.077 30.733 704.729 30.901C704.387 31.063 703.988 31.144 703.532 31.144C703.196 31.144 702.878 31.093 702.578 30.991C702.278 30.883 702.014 30.73 701.786 30.532C701.564 30.328 701.387 30.079 701.255 29.785C701.129 29.491 701.066 29.155 701.066 28.777C701.066 28.411 701.129 28.081 701.255 27.787C701.381 27.487 701.552 27.235 701.768 27.031C701.984 26.821 702.239 26.659 702.533 26.545C702.827 26.431 703.145 26.374 703.487 26.374C703.817 26.374 704.12 26.431 704.396 26.545C704.672 26.653 704.909 26.812 705.107 27.022C705.305 27.232 705.458 27.487 705.566 27.787C705.68 28.087 705.737 28.429 705.737 28.813ZM710.045 31V30.415H710.027C709.883 30.643 709.676 30.82 709.406 30.946C709.142 31.066 708.86 31.126 708.56 31.126C708.224 31.126 707.924 31.06 707.66 30.928C707.396 30.796 707.171 30.622 706.985 30.406C706.805 30.184 706.667 29.929 706.571 29.641C706.475 29.353 706.427 29.053 706.427 28.741C706.427 28.429 706.475 28.132 706.571 27.85C706.673 27.562 706.814 27.31 706.994 27.094C707.18 26.878 707.402 26.707 707.66 26.581C707.924 26.455 708.218 26.392 708.542 26.392C708.872 26.392 709.151 26.455 709.379 26.581C709.607 26.707 709.784 26.845 709.91 26.995H709.928V24.196H711.404V31H710.045ZM709.991 28.75C709.991 28.606 709.964 28.465 709.91 28.327C709.862 28.189 709.79 28.066 709.694 27.958C709.604 27.85 709.493 27.763 709.361 27.697C709.229 27.631 709.079 27.598 708.911 27.598C708.737 27.598 708.584 27.631 708.452 27.697C708.32 27.763 708.209 27.85 708.119 27.958C708.029 28.06 707.96 28.18 707.912 28.318C707.87 28.456 707.849 28.597 707.849 28.741C707.849 28.885 707.87 29.029 707.912 29.173C707.96 29.311 708.029 29.434 708.119 29.542C708.209 29.65 708.32 29.737 708.452 29.803C708.584 29.869 708.737 29.902 708.911 29.902C709.079 29.902 709.229 29.869 709.361 29.803C709.493 29.737 709.604 29.65 709.694 29.542C709.79 29.434 709.862 29.311 709.91 29.173C709.964 29.035 709.991 28.894 709.991 28.75Z" fill="white"/>
<path fill-rule="evenodd" clip-rule="evenodd" d="M625.746 16L616 21.57L619.101 22.883L616 24.655L619.101 25.969L616 27.741L619.101 29.055L616 30.827L635.897 39.255L645.81 33.419L642.71 32.158L645.81 30.332L642.71 29.072L645.81 27.247L642.71 25.986L645.81 24.161L625.746 16ZM618.202 21.44L625.818 17.087L631.389 19.352L624.338 24.038L618.202 21.44ZM624.878 33.525V24.854L632.487 19.799L635.35 20.964L627.92 25.9V34.813L624.878 33.525ZM629.317 26.147L636.447 21.41L643.607 24.322L635.825 28.904L629.317 26.147ZM618.202 24.525L620.234 23.364L623.899 24.916V26.939L618.202 24.525ZM618.202 27.611L620.234 26.449L623.899 28.001V30.024L618.202 27.611ZM641.648 26.612L643.607 27.408L635.825 31.989L628.9 29.056V27.034L635.897 29.998L641.648 26.612ZM618.202 30.696L620.234 29.535L623.899 31.088V33.11L618.202 30.696ZM641.648 29.697L643.607 30.494L635.825 35.076L628.9 32.142V30.12L635.897 33.084L641.648 29.697ZM641.648 32.783L643.607 33.58L635.825 38.162L628.9 35.228V33.205L635.897 36.169L641.648 32.783Z" fill="white"/>
</svg>
