<svg width="731" height="92" viewBox="0 0 731 92" fill="none" xmlns="http://www.w3.org/2000/svg">
<mask id="mask0_206:499" style="mask-type:alpha" maskUnits="userSpaceOnUse" x="0" y="0" width="731" height="92">
<path fill-rule="evenodd" clip-rule="evenodd" d="M0 0H731V92H0V0Z" fill="white"/>
</mask>
<g mask="url(#mask0_206:499)">
<path fill-rule="evenodd" clip-rule="evenodd" d="M0.0126427 89.0204V0H731V55.7038V60.5376C714.527 60.8839 696.144 56.2311 676.851 51.3448C651.136 44.8322 624.544 38.1036 597.431 41.2229C570.421 44.3494 545.094 53.778 522.747 62.0965C504.396 68.9275 488.545 74.8279 476.079 75.572C476.062 75.5728 476.043 75.5736 476.026 75.5751L476.027 75.5855C457.498 78.2029 436.1 72.7894 413.441 67.0542C387.714 60.5432 361.117 53.8146 333.997 56.9339C306.987 60.0604 281.659 69.489 259.312 77.8074C240.961 84.6385 225.111 90.5396 212.645 91.2829C212.626 91.2837 212.607 91.2853 212.59 91.2861L212.591 91.2964C194.069 93.9138 172.676 88.5003 150.028 82.7643C124.312 76.2509 97.7233 69.5168 70.6095 72.6417C45.2285 75.5799 21.333 84.0818 0 92L0.0126427 89.0204Z" fill="#242424"/>
</g>
<mask id="mask1_206:499" style="mask-type:alpha" maskUnits="userSpaceOnUse" x="0" y="0" width="731" height="92">
<path fill-rule="evenodd" clip-rule="evenodd" d="M0.337157 0.432129V89.0101L0.326172 91.9751C21.629 84.0961 45.4914 75.6361 70.8377 72.7131C97.9157 69.6031 124.468 76.3041 150.148 82.7851C172.765 88.4921 194.129 93.8791 212.626 91.2741V91.2641C212.643 91.2631 212.662 91.2621 212.68 91.2611C225.129 90.5211 240.957 84.6501 259.283 77.8531C281.598 69.5751 306.893 60.1941 333.867 57.0831C360.949 53.9791 387.509 60.6741 413.201 67.1531C435.829 72.8591 457.199 78.2461 475.702 75.6411L475.701 75.6321C475.718 75.6301 475.737 75.6291 475.755 75.6281C488.204 74.8881 504.033 69.0171 522.359 62.2201C544.674 53.9421 569.968 44.5611 596.941 41.4501C624.017 38.3461 650.573 45.0421 676.252 51.5221C695.518 56.3841 713.876 61.0141 730.327 60.6691V55.8591V0.432129" fill="white"/>
</mask>
<g mask="url(#mask1_206:499)">
<path fill-rule="evenodd" clip-rule="evenodd" d="M246.51 1.02459C229.188 2.05459 209.721 -2.85941 189.228 -8.03041C163.621 -14.4914 137.14 -21.1744 110.217 -18.0804C83.3429 -14.9824 58.1005 -5.61941 35.8289 2.64159C17.4421 9.46259 1.55781 15.3536 -11.014 16.1006C-11.033 16.1016 -11.0509 16.1026 -11.0699 16.1036L-11.1318 15.0546C-11.1139 15.0536 -11.0939 15.0526 -11.0759 15.0516C1.37406 14.3116 17.2024 8.44059 35.5273 1.64359C57.8438 -6.63441 83.1362 -16.0154 110.109 -19.1254C137.181 -22.2354 163.739 -15.5354 189.418 -9.05541C212.084 -3.33541 233.496 2.06259 252.02 -0.580408L252.15 0.461592C250.298 0.725592 248.416 0.911591 246.51 1.02459Z" fill="#00B0C7"/>
</g>
<mask id="mask2_206:499" style="mask-type:alpha" maskUnits="userSpaceOnUse" x="0" y="0" width="731" height="92">
<path fill-rule="evenodd" clip-rule="evenodd" d="M0.337157 0.432129V89.0101L0.326172 91.9751C21.629 84.0961 45.4914 75.6361 70.8377 72.7131C97.9157 69.6031 124.468 76.3041 150.148 82.7851C172.765 88.4921 194.129 93.8791 212.626 91.2741V91.2641C212.643 91.2631 212.662 91.2621 212.68 91.2611C225.129 90.5211 240.957 84.6501 259.283 77.8531C281.598 69.5751 306.893 60.1941 333.867 57.0831C360.949 53.9791 387.509 60.6741 413.201 67.1531C435.829 72.8591 457.199 78.2461 475.702 75.6411L475.701 75.6321C475.718 75.6301 475.737 75.6291 475.755 75.6281C488.204 74.8881 504.033 69.0171 522.359 62.2201C544.674 53.9421 569.968 44.5611 596.941 41.4501C624.017 38.3461 650.573 45.0421 676.252 51.5221C695.518 56.3841 713.876 61.0141 730.327 60.6691V55.8591V0.432129" fill="white"/>
</mask>
<g mask="url(#mask2_206:499)">
<path fill-rule="evenodd" clip-rule="evenodd" d="M232.244 11.8187C214.925 12.8487 195.456 7.93565 174.963 2.76465C149.356 -3.69735 122.877 -10.3823 95.9515 -7.28735C69.0773 -4.18835 43.8338 5.17465 21.5613 13.4367C3.17443 20.2567 -12.7108 26.1477 -25.2816 26.8947C-25.3006 26.8967 -25.3166 26.8977 -25.3356 26.8987L-25.3965 25.8497C-25.3795 25.8487 -25.3615 25.8477 -25.3446 25.8457C-12.8946 25.1067 2.93476 19.2347 21.2597 12.4377C43.5762 4.15965 68.8706 -5.22235 95.8437 -8.33235C122.92 -11.4373 149.474 -4.74135 175.154 1.73865C197.82 7.45865 219.229 12.8597 237.753 10.2137L237.882 11.2557C236.03 11.5207 234.149 11.7057 232.244 11.8187Z" fill="#00B0C7"/>
</g>
<mask id="mask3_206:499" style="mask-type:alpha" maskUnits="userSpaceOnUse" x="0" y="0" width="731" height="92">
<path fill-rule="evenodd" clip-rule="evenodd" d="M0.337157 0.432129V89.0101L0.326172 91.9751C21.629 84.0961 45.4914 75.6361 70.8377 72.7131C97.9157 69.6031 124.468 76.3041 150.148 82.7851C172.765 88.4921 194.129 93.8791 212.626 91.2741V91.2641C212.643 91.2631 212.662 91.2621 212.68 91.2611C225.129 90.5211 240.957 84.6501 259.283 77.8531C281.598 69.5751 306.893 60.1941 333.867 57.0831C360.949 53.9791 387.509 60.6741 413.201 67.1531C435.829 72.8591 457.199 78.2461 475.702 75.6411L475.701 75.6321C475.718 75.6301 475.737 75.6291 475.755 75.6281C488.204 74.8881 504.033 69.0171 522.359 62.2201C544.674 53.9421 569.968 44.5611 596.941 41.4501C624.017 38.3461 650.573 45.0421 676.252 51.5221C695.518 56.3841 713.876 61.0141 730.327 60.6691V55.8591V0.432129" fill="white"/>
</mask>
<g mask="url(#mask3_206:499)">
<path fill-rule="evenodd" clip-rule="evenodd" d="M217.979 22.611C200.659 23.641 181.192 18.728 160.698 13.556C135.091 7.095 108.614 0.409995 81.6869 3.50499C54.8136 6.60499 29.5712 15.967 7.29963 24.228C-11.0882 31.048 -26.9745 36.94 -39.5473 37.687C-39.5653 37.688 -39.5812 37.689 -39.6002 37.69L-39.6611 36.641C-39.6442 36.64 -39.6262 36.639 -39.6092 36.638C-27.1592 35.899 -11.3289 30.027 6.99804 23.23C29.3135 14.952 54.6069 5.571 81.579 2.459C108.657 -0.654005 135.209 6.051 160.889 12.531C183.556 18.252 204.971 23.652 223.49 21.006L223.62 22.048C221.767 22.312 219.885 22.497 217.979 22.611Z" fill="#00B0C7"/>
</g>
<mask id="mask4_206:499" style="mask-type:alpha" maskUnits="userSpaceOnUse" x="0" y="0" width="731" height="92">
<path fill-rule="evenodd" clip-rule="evenodd" d="M0.337157 0.432129V89.0101L0.326172 91.9751C21.629 84.0961 45.4914 75.6361 70.8377 72.7131C97.9157 69.6031 124.468 76.3041 150.148 82.7851C172.765 88.4921 194.129 93.8791 212.626 91.2741V91.2641C212.643 91.2631 212.662 91.2621 212.68 91.2611C225.129 90.5211 240.957 84.6501 259.283 77.8531C281.598 69.5751 306.893 60.1941 333.867 57.0831C360.949 53.9791 387.509 60.6741 413.201 67.1531C435.829 72.8591 457.199 78.2461 475.702 75.6411L475.701 75.6321C475.718 75.6301 475.737 75.6291 475.755 75.6281C488.204 74.8881 504.033 69.0171 522.359 62.2201C544.674 53.9421 569.968 44.5611 596.941 41.4501C624.017 38.3461 650.573 45.0421 676.252 51.5221C695.518 56.3841 713.876 61.0141 730.327 60.6691V55.8591V0.432129" fill="white"/>
</mask>
<g mask="url(#mask4_206:499)">
<path fill-rule="evenodd" clip-rule="evenodd" d="M203.715 33.4043C186.396 34.4333 166.928 29.5203 146.435 24.3493C120.828 17.8883 94.3554 11.2043 67.4222 14.2983C40.55 17.3983 15.3085 26.7603 -6.96201 35.0203C-25.3499 41.8413 -41.2361 47.7333 -53.8089 48.4803C-53.8279 48.4813 -53.8469 48.4823 -53.8658 48.4843L-53.9268 47.4353C-53.9088 47.4333 -53.8898 47.4323 -53.8708 47.4313C-41.4209 46.6923 -25.5905 40.8203 -7.26359 34.0223C15.0509 25.7453 40.3433 16.3643 67.3144 13.2533C94.3844 10.1463 120.945 16.8443 146.626 23.3253C169.291 29.0443 190.7 34.4453 209.222 31.7993L209.352 32.8413C207.501 33.1053 205.62 33.2913 203.715 33.4043Z" fill="#00B0C7"/>
</g>
<mask id="mask5_206:499" style="mask-type:alpha" maskUnits="userSpaceOnUse" x="0" y="0" width="731" height="92">
<path fill-rule="evenodd" clip-rule="evenodd" d="M0.337157 0.432129V89.0101L0.326172 91.9751C21.629 84.0961 45.4914 75.6361 70.8377 72.7131C97.9157 69.6031 124.468 76.3041 150.148 82.7851C172.765 88.4921 194.129 93.8791 212.626 91.2741V91.2641C212.643 91.2631 212.662 91.2621 212.68 91.2611C225.129 90.5211 240.957 84.6501 259.283 77.8531C281.598 69.5751 306.893 60.1941 333.867 57.0831C360.949 53.9791 387.509 60.6741 413.201 67.1531C435.829 72.8591 457.199 78.2461 475.702 75.6411L475.701 75.6321C475.718 75.6301 475.737 75.6291 475.755 75.6281C488.204 74.8881 504.033 69.0171 522.359 62.2201C544.674 53.9421 569.968 44.5611 596.941 41.4501C624.017 38.3461 650.573 45.0421 676.252 51.5221C695.518 56.3841 713.876 61.0141 730.327 60.6691V55.8591V0.432129" fill="white"/>
</mask>
<g mask="url(#mask5_206:499)">
<path fill-rule="evenodd" clip-rule="evenodd" d="M219.152 42.4314C201.832 43.4604 182.364 38.5484 161.872 33.3764C136.266 26.9164 109.789 20.2334 82.8607 23.3264C55.9885 26.4244 30.747 35.7874 8.47645 44.0484C-9.9104 50.8684 -25.7957 56.7604 -38.3675 57.5074C-38.3874 57.5084 -38.4064 57.5094 -38.4264 57.5104L-38.4873 56.4614C-38.4683 56.4604 -38.4484 56.4594 -38.4294 56.4584C-25.9804 55.7184 -10.1501 49.8474 8.17486 43.0494C30.4903 34.7724 55.7817 25.3914 82.7538 22.2804C109.828 19.1754 136.382 25.8714 162.061 32.3514C184.728 38.0724 206.14 43.4704 224.664 40.8264L224.794 41.8674C222.94 42.1334 221.06 42.3184 219.152 42.4314Z" fill="#00B0C7"/>
</g>
<mask id="mask6_206:499" style="mask-type:alpha" maskUnits="userSpaceOnUse" x="0" y="0" width="731" height="92">
<path fill-rule="evenodd" clip-rule="evenodd" d="M0.337157 0.432129V89.0101L0.326172 91.9751C21.629 84.0961 45.4914 75.6361 70.8377 72.7131C97.9157 69.6031 124.468 76.3041 150.148 82.7851C172.765 88.4921 194.129 93.8791 212.626 91.2741V91.2641C212.643 91.2631 212.662 91.2621 212.68 91.2611C225.129 90.5211 240.957 84.6501 259.283 77.8531C281.598 69.5751 306.893 60.1941 333.867 57.0831C360.949 53.9791 387.509 60.6741 413.201 67.1531C435.829 72.8591 457.199 78.2461 475.702 75.6411L475.701 75.6321C475.718 75.6301 475.737 75.6291 475.755 75.6281C488.204 74.8881 504.033 69.0171 522.359 62.2201C544.674 53.9421 569.968 44.5611 596.941 41.4501C624.017 38.3461 650.573 45.0421 676.252 51.5221C695.518 56.3841 713.876 61.0141 730.327 60.6691V55.8591V0.432129" fill="white"/>
</mask>
<g mask="url(#mask6_206:499)">
<path fill-rule="evenodd" clip-rule="evenodd" d="M234.589 51.4577C217.27 52.4877 197.804 47.5747 177.312 42.4027C151.706 35.9407 125.227 29.2547 98.3011 32.3527C71.4299 35.4517 46.1884 44.8137 23.9179 53.0737C5.53005 59.8937 -10.3552 65.7857 -22.928 66.5327C-22.948 66.5347 -22.966 66.5357 -22.9859 66.5367L-23.0479 65.4877C-23.0289 65.4867 -23.0089 65.4847 -22.9899 65.4837C-10.54 64.7447 5.29038 58.8727 23.6163 52.0757C45.9308 43.7987 71.2232 34.4187 98.1933 31.3077C125.26 28.2017 151.824 34.8977 177.503 41.3787C200.17 47.0987 221.581 52.4947 240.101 49.8527L240.231 50.8937C238.378 51.1587 236.496 51.3447 234.589 51.4577Z" fill="#00B0C7"/>
</g>
<mask id="mask7_206:499" style="mask-type:alpha" maskUnits="userSpaceOnUse" x="0" y="0" width="731" height="92">
<path fill-rule="evenodd" clip-rule="evenodd" d="M0.337157 0.432129V89.0101L0.326172 91.9751C21.629 84.0961 45.4914 75.6361 70.8377 72.7131C97.9157 69.6031 124.468 76.3041 150.148 82.7851C172.765 88.4921 194.129 93.8791 212.626 91.2741V91.2641C212.643 91.2631 212.662 91.2621 212.68 91.2611C225.129 90.5211 240.957 84.6501 259.283 77.8531C281.598 69.5751 306.893 60.1941 333.867 57.0831C360.949 53.9791 387.509 60.6741 413.201 67.1531C435.829 72.8591 457.199 78.2461 475.702 75.6411L475.701 75.6321C475.718 75.6301 475.737 75.6291 475.755 75.6281C488.204 74.8881 504.033 69.0171 522.359 62.2201C544.674 53.9421 569.968 44.5611 596.941 41.4501C624.017 38.3461 650.573 45.0421 676.252 51.5221C695.518 56.3841 713.876 61.0141 730.327 60.6691V55.8591V0.432129" fill="white"/>
</mask>
<g mask="url(#mask7_206:499)">
<path fill-rule="evenodd" clip-rule="evenodd" d="M250.034 60.4875C232.713 61.5175 213.244 56.6035 192.749 51.4325C167.145 44.9705 140.662 38.2865 113.742 41.3805C86.8663 44.4795 61.6219 53.8425 39.3493 62.1045C20.9635 68.9245 5.07922 74.8165 -7.49258 75.5635C-7.51155 75.5645 -7.52753 75.5655 -7.54551 75.5665L-7.60742 74.5175C-7.58945 74.5165 -7.57247 74.5155 -7.55449 74.5145C4.89448 73.7745 20.7238 67.9035 39.0478 61.1065C61.3652 52.8285 86.6586 43.4465 113.634 40.3355C140.711 37.2225 167.262 43.9275 192.94 50.4065C215.608 56.1275 237.017 61.5305 255.545 58.8825L255.674 59.9235C253.822 60.1885 251.941 60.3735 250.034 60.4875Z" fill="#00B0C7"/>
</g>
<mask id="mask8_206:499" style="mask-type:alpha" maskUnits="userSpaceOnUse" x="0" y="0" width="731" height="92">
<path fill-rule="evenodd" clip-rule="evenodd" d="M0.337157 0.432129V89.0101L0.326172 91.9751C21.629 84.0961 45.4914 75.6361 70.8377 72.7131C97.9157 69.6031 124.468 76.3041 150.148 82.7851C172.765 88.4921 194.129 93.8791 212.626 91.2741V91.2641C212.643 91.2631 212.662 91.2621 212.68 91.2611C225.129 90.5211 240.957 84.6501 259.283 77.8531C281.598 69.5751 306.893 60.1941 333.867 57.0831C360.949 53.9791 387.509 60.6741 413.201 67.1531C435.829 72.8591 457.199 78.2461 475.702 75.6411L475.701 75.6321C475.718 75.6301 475.737 75.6291 475.755 75.6281C488.204 74.8881 504.033 69.0171 522.359 62.2201C544.674 53.9421 569.968 44.5611 596.941 41.4501C624.017 38.3461 650.573 45.0421 676.252 51.5221C695.518 56.3841 713.876 61.0141 730.327 60.6691V55.8591V0.432129" fill="white"/>
</mask>
<g mask="url(#mask8_206:499)">
<path fill-rule="evenodd" clip-rule="evenodd" d="M235.768 71.2799C218.448 72.3099 198.98 67.3969 178.487 62.2249C152.88 55.7629 126.4 49.0769 99.475 52.1729C72.6027 55.2729 47.3612 64.6359 25.0907 72.8959C6.70186 79.7169 -9.1844 85.6089 -21.7572 86.3569C-21.7752 86.3579 -21.7932 86.3589 -21.8121 86.3599L-21.873 85.3109C-21.8561 85.3099 -21.8371 85.3089 -21.8191 85.3079C-9.36915 84.5679 6.46119 78.6959 24.7891 71.8979C47.1046 63.6209 72.396 54.2399 99.3671 51.1279C126.439 48.0219 152.998 54.7199 178.678 61.1999C201.344 66.9199 222.752 72.3219 241.276 69.6759L241.406 70.7169C239.553 70.9819 237.673 71.1669 235.768 71.2799Z" fill="#00B0C7"/>
</g>
<mask id="mask9_206:499" style="mask-type:alpha" maskUnits="userSpaceOnUse" x="0" y="0" width="731" height="92">
<path fill-rule="evenodd" clip-rule="evenodd" d="M0.337157 0.432129V89.0101L0.326172 91.9751C21.629 84.0961 45.4914 75.6361 70.8377 72.7131C97.9157 69.6031 124.468 76.3041 150.148 82.7851C172.765 88.4921 194.129 93.8791 212.626 91.2741V91.2641C212.643 91.2631 212.662 91.2621 212.68 91.2611C225.129 90.5211 240.957 84.6501 259.283 77.8531C281.598 69.5751 306.893 60.1941 333.867 57.0831C360.949 53.9791 387.509 60.6741 413.201 67.1531C435.829 72.8591 457.199 78.2461 475.702 75.6411L475.701 75.6321C475.718 75.6301 475.737 75.6291 475.755 75.6281C488.204 74.8881 504.033 69.0171 522.359 62.2201C544.674 53.9421 569.968 44.5611 596.941 41.4501C624.017 38.3461 650.573 45.0421 676.252 51.5221C695.518 56.3841 713.876 61.0141 730.327 60.6691V55.8591V0.432129" fill="white"/>
</mask>
<g mask="url(#mask9_206:499)">
<path fill-rule="evenodd" clip-rule="evenodd" d="M221.503 82.0711C204.184 83.1001 184.716 78.1871 164.223 73.0161C138.616 66.5551 112.139 59.8721 85.2103 62.9661C58.3381 66.0651 33.0966 75.4271 10.8261 83.6881C-7.56079 90.5081 -23.4461 96.3991 -36.0179 97.1461C-36.0378 97.1481 -36.0568 97.1491 -36.0768 97.1501L-36.1377 96.1011C-23.6737 95.4201 -7.82842 89.4971 10.5245 82.6891C32.8389 74.4131 58.1313 65.0321 85.1034 61.9211C112.17 58.8121 138.733 65.5111 164.413 71.9921C187.08 77.7111 208.495 83.1131 227.013 80.4651L227.143 81.5071C225.291 81.7721 223.408 81.9571 221.503 82.0711Z" fill="#00B0C7"/>
</g>
<mask id="mask10_206:499" style="mask-type:alpha" maskUnits="userSpaceOnUse" x="0" y="0" width="731" height="92">
<path fill-rule="evenodd" clip-rule="evenodd" d="M0.337157 0.432129V89.0101L0.326172 91.9751C21.629 84.0961 45.4914 75.6361 70.8377 72.7131C97.9157 69.6031 124.468 76.3041 150.148 82.7851C172.765 88.4921 194.129 93.8791 212.626 91.2741V91.2641C212.643 91.2631 212.662 91.2621 212.68 91.2611C225.129 90.5211 240.957 84.6501 259.283 77.8531C281.598 69.5751 306.893 60.1941 333.867 57.0831C360.949 53.9791 387.509 60.6741 413.201 67.1531C435.829 72.8591 457.199 78.2461 475.702 75.6411L475.701 75.6321C475.718 75.6301 475.737 75.6291 475.755 75.6281C488.204 74.8881 504.033 69.0171 522.359 62.2201C544.674 53.9421 569.968 44.5611 596.941 41.4501C624.017 38.3461 650.573 45.0421 676.252 51.5221C695.518 56.3841 713.876 61.0141 730.327 60.6691V55.8591V0.432129" fill="white"/>
</mask>
<g mask="url(#mask10_206:499)">
<path fill-rule="evenodd" clip-rule="evenodd" d="M207.235 92.8639C189.917 93.8929 170.45 88.9809 149.958 83.8099C124.351 77.3479 97.8718 70.6679 70.9457 73.7579C44.0714 76.8569 18.828 86.2199 -3.44356 94.4809C-21.8584 101.312 -37.7566 107.259 -50.3424 107.943L-50.4033 106.894C-50.3853 106.893 -50.3664 106.892 -50.3494 106.891C-37.8994 106.151 -22.0711 100.28 -3.74615 93.4829C18.5703 85.2049 43.8647 75.8239 70.8378 72.7129C97.9148 69.6029 124.467 76.3039 150.148 82.7849C172.814 88.5049 194.222 93.9039 212.747 91.2589L212.877 92.2999C211.023 92.5659 209.142 92.7509 207.235 92.8639Z" fill="#00B0C7"/>
</g>
<mask id="mask11_206:499" style="mask-type:alpha" maskUnits="userSpaceOnUse" x="0" y="0" width="731" height="92">
<path fill-rule="evenodd" clip-rule="evenodd" d="M0.337157 0.432129V89.0101L0.326172 91.9751C21.629 84.0961 45.4914 75.6361 70.8377 72.7131C97.9157 69.6031 124.468 76.3041 150.148 82.7851C172.765 88.4921 194.129 93.8791 212.626 91.2741V91.2641C212.643 91.2631 212.662 91.2621 212.68 91.2611C225.129 90.5211 240.957 84.6501 259.283 77.8531C281.598 69.5751 306.893 60.1941 333.867 57.0831C360.949 53.9791 387.509 60.6741 413.201 67.1531C435.829 72.8591 457.199 78.2461 475.702 75.6411L475.701 75.6321C475.718 75.6301 475.737 75.6291 475.755 75.6281C488.204 74.8881 504.033 69.0171 522.359 62.2201C544.674 53.9421 569.968 44.5611 596.941 41.4501C624.017 38.3461 650.573 45.0421 676.252 51.5221C695.518 56.3841 713.876 61.0141 730.327 60.6691V55.8591V0.432129" fill="white"/>
</mask>
<g mask="url(#mask11_206:499)">
<path fill-rule="evenodd" clip-rule="evenodd" d="M481.054 6.97899C463.731 8.00899 444.254 3.09599 423.75 -2.07501C398.13 -8.53601 371.637 -15.218 344.714 -12.125C317.841 -9.02401 292.599 0.33699 270.327 8.59799C251.939 15.418 236.053 21.311 223.481 22.058C223.462 22.059 223.446 22.06 223.427 22.061L223.366 21.012C223.384 21.011 223.401 21.01 223.418 21.009C235.868 20.269 251.699 14.397 270.025 7.59999C292.341 -0.67701 317.634 -10.058 344.606 -13.17C371.682 -16.277 398.249 -9.57901 423.94 -3.10001C446.618 2.61899 468.033 8.01699 486.564 5.37299L486.694 6.41499C484.841 6.67999 482.96 6.86499 481.054 6.97899Z" fill="#00B0C7"/>
</g>
<mask id="mask12_206:499" style="mask-type:alpha" maskUnits="userSpaceOnUse" x="0" y="0" width="731" height="92">
<path fill-rule="evenodd" clip-rule="evenodd" d="M0.337157 0.432129V89.0101L0.326172 91.9751C21.629 84.0961 45.4914 75.6361 70.8377 72.7131C97.9157 69.6031 124.468 76.3041 150.148 82.7851C172.765 88.4921 194.129 93.8791 212.626 91.2741V91.2641C212.643 91.2631 212.662 91.2621 212.68 91.2611C225.129 90.5211 240.957 84.6501 259.283 77.8531C281.598 69.5751 306.893 60.1941 333.867 57.0831C360.949 53.9791 387.509 60.6741 413.201 67.1531C435.829 72.8591 457.199 78.2461 475.702 75.6411L475.701 75.6321C475.718 75.6301 475.737 75.6291 475.755 75.6281C488.204 74.8881 504.033 69.0171 522.359 62.2201C544.674 53.9421 569.968 44.5611 596.941 41.4501C624.017 38.3461 650.573 45.0421 676.252 51.5221C695.518 56.3841 713.876 61.0141 730.327 60.6691V55.8591V0.432129" fill="white"/>
</mask>
<g mask="url(#mask12_206:499)">
<path fill-rule="evenodd" clip-rule="evenodd" d="M466.79 17.7714C449.47 18.8014 429.992 13.8884 409.489 8.71836C383.869 2.25736 357.381 -4.42564 330.451 -1.33264C303.579 1.76836 278.338 11.1304 256.067 19.3904C237.678 26.2114 221.793 32.1034 209.22 32.8504C209.2 32.8514 209.182 32.8524 209.163 32.8544L209.102 31.8044C209.121 31.8034 209.14 31.8024 209.158 31.8014C221.608 31.0614 237.439 25.1894 255.766 18.3924C278.08 10.1154 303.373 0.734356 330.344 -2.37664C357.421 -5.48864 383.987 1.21336 409.679 7.69236C432.356 13.4124 453.775 18.8154 472.299 16.1664L472.428 17.2084C470.577 17.4734 468.695 17.6584 466.79 17.7714Z" fill="#00B0C7"/>
</g>
<mask id="mask13_206:499" style="mask-type:alpha" maskUnits="userSpaceOnUse" x="0" y="0" width="731" height="92">
<path fill-rule="evenodd" clip-rule="evenodd" d="M0.337157 0.432129V89.0101L0.326172 91.9751C21.629 84.0961 45.4914 75.6361 70.8377 72.7131C97.9157 69.6031 124.468 76.3041 150.148 82.7851C172.765 88.4921 194.129 93.8791 212.626 91.2741V91.2641C212.643 91.2631 212.662 91.2621 212.68 91.2611C225.129 90.5211 240.957 84.6501 259.283 77.8531C281.598 69.5751 306.893 60.1941 333.867 57.0831C360.949 53.9791 387.509 60.6741 413.201 67.1531C435.829 72.8591 457.199 78.2461 475.702 75.6411L475.701 75.6321C475.718 75.6301 475.737 75.6291 475.755 75.6281C488.204 74.8881 504.033 69.0171 522.359 62.2201C544.674 53.9421 569.968 44.5611 596.941 41.4501C624.017 38.3461 650.573 45.0421 676.252 51.5221C695.518 56.3841 713.876 61.0141 730.327 60.6691V55.8591V0.432129" fill="white"/>
</mask>
<g mask="url(#mask13_206:499)">
<path fill-rule="evenodd" clip-rule="evenodd" d="M482.228 26.7991C464.905 27.8281 445.427 22.9161 424.925 17.7451C399.306 11.2841 372.82 4.6051 345.889 7.6961C319.017 10.7951 293.775 20.1581 271.505 28.4181C253.118 35.2381 237.233 41.1301 224.661 41.8771C224.641 41.8781 224.622 41.8791 224.602 41.8811L224.541 40.8321C224.56 40.8301 224.579 40.8291 224.598 40.8281C237.048 40.0891 252.878 34.2171 271.203 27.4201C293.518 19.1431 318.81 9.7621 345.781 6.6511C372.857 3.5421 399.423 10.2411 425.115 16.7201C447.794 22.4411 469.208 27.8431 487.74 25.1931L487.869 26.2351C486.015 26.5001 484.134 26.6861 482.228 26.7991Z" fill="#00B0C7"/>
</g>
<mask id="mask14_206:499" style="mask-type:alpha" maskUnits="userSpaceOnUse" x="0" y="0" width="731" height="92">
<path fill-rule="evenodd" clip-rule="evenodd" d="M0.337157 0.432129V89.0101L0.326172 91.9751C21.629 84.0961 45.4914 75.6361 70.8377 72.7131C97.9157 69.6031 124.468 76.3041 150.148 82.7851C172.765 88.4921 194.129 93.8791 212.626 91.2741V91.2641C212.643 91.2631 212.662 91.2621 212.68 91.2611C225.129 90.5211 240.957 84.6501 259.283 77.8531C281.598 69.5751 306.893 60.1941 333.867 57.0831C360.949 53.9791 387.509 60.6741 413.201 67.1531C435.829 72.8591 457.199 78.2461 475.702 75.6411L475.701 75.6321C475.718 75.6301 475.737 75.6291 475.755 75.6281C488.204 74.8881 504.033 69.0171 522.359 62.2201C544.674 53.9421 569.968 44.5611 596.941 41.4501C624.017 38.3461 650.573 45.0421 676.252 51.5221C695.518 56.3841 713.876 61.0141 730.327 60.6691V55.8591V0.432129" fill="white"/>
</mask>
<g mask="url(#mask14_206:499)">
<path fill-rule="evenodd" clip-rule="evenodd" d="M497.664 35.8253C480.346 36.8553 460.874 31.9433 440.378 26.7733C414.758 20.3113 388.27 13.6303 361.328 16.7233C334.457 19.8223 309.216 29.1843 286.945 37.4443C268.558 44.2643 252.672 50.1563 240.099 50.9033C240.079 50.9043 240.061 50.9063 240.041 50.9073L239.979 49.8583C239.999 49.8573 240.018 49.8553 240.037 49.8543C252.487 49.1153 268.318 43.2433 286.644 36.4463C308.958 28.1693 334.25 18.7893 361.221 15.6783C388.313 12.5643 414.876 19.2683 440.568 25.7483C463.241 31.4663 484.658 36.8633 503.176 34.2203L503.306 35.2613C501.453 35.5273 499.57 35.7123 497.664 35.8253Z" fill="#00B0C7"/>
</g>
<mask id="mask15_206:499" style="mask-type:alpha" maskUnits="userSpaceOnUse" x="0" y="0" width="731" height="92">
<path fill-rule="evenodd" clip-rule="evenodd" d="M0.337157 0.432129V89.0101L0.326172 91.9751C21.629 84.0961 45.4914 75.6361 70.8377 72.7131C97.9157 69.6031 124.468 76.3041 150.148 82.7851C172.765 88.4921 194.129 93.8791 212.626 91.2741V91.2641C212.643 91.2631 212.662 91.2621 212.68 91.2611C225.129 90.5211 240.957 84.6501 259.283 77.8531C281.598 69.5751 306.893 60.1941 333.867 57.0831C360.949 53.9791 387.509 60.6741 413.201 67.1531C435.829 72.8591 457.199 78.2461 475.702 75.6411L475.701 75.6321C475.718 75.6301 475.737 75.6291 475.755 75.6281C488.204 74.8881 504.033 69.0171 522.359 62.2201C544.674 53.9421 569.968 44.5611 596.941 41.4501C624.017 38.3461 650.573 45.0421 676.252 51.5221C695.518 56.3841 713.876 61.0141 730.327 60.6691V55.8591V0.432129" fill="white"/>
</mask>
<g mask="url(#mask15_206:499)">
<path fill-rule="evenodd" clip-rule="evenodd" d="M513.109 44.8544C495.79 45.8844 476.325 40.9734 455.832 35.8034C430.213 29.3404 403.717 22.6584 376.769 25.7504C349.894 28.8494 324.649 38.2134 302.377 46.4754C283.991 53.2944 268.107 59.1864 255.535 59.9334C255.516 59.9344 255.5 59.9354 255.481 59.9374L255.42 58.8884C255.438 58.8864 255.455 58.8854 255.473 58.8844C267.921 58.1454 283.75 52.2734 302.075 45.4774C324.393 37.1984 349.687 27.8164 376.661 24.7064C403.762 21.5954 430.331 28.2974 456.023 34.7784C478.688 40.4964 500.094 45.8964 518.62 43.2494L518.749 44.2914C516.897 44.5554 515.014 44.7414 513.109 44.8544Z" fill="#00B0C7"/>
</g>
<mask id="mask16_206:499" style="mask-type:alpha" maskUnits="userSpaceOnUse" x="0" y="0" width="731" height="92">
<path fill-rule="evenodd" clip-rule="evenodd" d="M0.337157 0.432129V89.0101L0.326172 91.9751C21.629 84.0961 45.4914 75.6361 70.8377 72.7131C97.9157 69.6031 124.468 76.3041 150.148 82.7851C172.765 88.4921 194.129 93.8791 212.626 91.2741V91.2641C212.643 91.2631 212.662 91.2621 212.68 91.2611C225.129 90.5211 240.957 84.6501 259.283 77.8531C281.598 69.5751 306.893 60.1941 333.867 57.0831C360.949 53.9791 387.509 60.6741 413.201 67.1531C435.829 72.8591 457.199 78.2461 475.702 75.6411L475.701 75.6321C475.718 75.6301 475.737 75.6291 475.755 75.6281C488.204 74.8881 504.033 69.0171 522.359 62.2201C544.674 53.9421 569.968 44.5611 596.941 41.4501C624.017 38.3461 650.573 45.0421 676.252 51.5221C695.518 56.3841 713.876 61.0141 730.327 60.6691V55.8591V0.432129" fill="white"/>
</mask>
<g mask="url(#mask16_206:499)">
<path fill-rule="evenodd" clip-rule="evenodd" d="M498.844 55.6473C481.524 56.6773 462.051 51.7653 441.554 46.5953C415.934 40.1323 389.438 33.4503 362.503 36.5433C335.632 39.6433 310.39 49.0063 288.119 57.2663C269.73 64.0873 253.845 69.9793 241.272 70.7263C241.253 70.7283 241.235 70.7293 241.216 70.7303L241.155 69.6813C241.173 69.6803 241.192 69.6793 241.209 69.6773C253.66 68.9383 269.49 63.0663 287.817 56.2683C310.133 47.9913 335.424 38.6103 362.395 35.4983C389.484 32.3903 416.052 39.0893 441.744 45.5703C464.415 51.2893 485.826 56.6893 504.352 54.0433L504.481 55.0843C502.63 55.3493 500.749 55.5343 498.844 55.6473Z" fill="#00B0C7"/>
</g>
<mask id="mask17_206:499" style="mask-type:alpha" maskUnits="userSpaceOnUse" x="0" y="0" width="731" height="92">
<path fill-rule="evenodd" clip-rule="evenodd" d="M0.337157 0.432129V89.0101L0.326172 91.9751C21.629 84.0961 45.4914 75.6361 70.8377 72.7131C97.9157 69.6031 124.468 76.3041 150.148 82.7851C172.765 88.4921 194.129 93.8791 212.626 91.2741V91.2641C212.643 91.2631 212.662 91.2621 212.68 91.2611C225.129 90.5211 240.957 84.6501 259.283 77.8531C281.598 69.5751 306.893 60.1941 333.867 57.0831C360.949 53.9791 387.509 60.6741 413.201 67.1531C435.829 72.8591 457.199 78.2461 475.702 75.6411L475.701 75.6321C475.718 75.6301 475.737 75.6291 475.755 75.6281C488.204 74.8881 504.033 69.0171 522.359 62.2201C544.674 53.9421 569.968 44.5611 596.941 41.4501C624.017 38.3461 650.573 45.0421 676.252 51.5221C695.518 56.3841 713.876 61.0141 730.327 60.6691V55.8591V0.432129" fill="white"/>
</mask>
<g mask="url(#mask17_206:499)">
<path fill-rule="evenodd" clip-rule="evenodd" d="M484.578 66.4382C467.257 67.4682 447.779 62.5552 427.275 57.3852C401.657 50.9242 375.169 44.2442 348.239 47.3362C321.366 50.4352 296.125 59.7972 273.854 68.0582C255.468 74.8772 239.582 80.7692 227.01 81.5162C226.99 81.5182 226.972 81.5192 226.952 81.5202L226.891 80.4712C239.357 79.7902 255.2 73.8672 273.553 67.0592C295.867 58.7832 321.16 49.4022 348.131 46.2912C375.202 43.1852 401.774 49.8802 427.466 56.3592C450.143 62.0782 471.561 67.4782 490.089 64.8332L490.218 65.8742C488.366 66.1392 486.484 66.3242 484.578 66.4382Z" fill="#00B0C7"/>
</g>
<mask id="mask18_206:499" style="mask-type:alpha" maskUnits="userSpaceOnUse" x="0" y="0" width="731" height="92">
<path fill-rule="evenodd" clip-rule="evenodd" d="M0.337157 0.432129V89.0101L0.326172 91.9751C21.629 84.0961 45.4914 75.6361 70.8377 72.7131C97.9157 69.6031 124.468 76.3041 150.148 82.7851C172.765 88.4921 194.129 93.8791 212.626 91.2741V91.2641C212.643 91.2631 212.662 91.2621 212.68 91.2611C225.129 90.5211 240.957 84.6501 259.283 77.8531C281.598 69.5751 306.893 60.1941 333.867 57.0831C360.949 53.9791 387.509 60.6741 413.201 67.1531C435.829 72.8591 457.199 78.2461 475.702 75.6411L475.701 75.6321C475.718 75.6301 475.737 75.6291 475.755 75.6281C488.204 74.8881 504.033 69.0171 522.359 62.2201C544.674 53.9421 569.968 44.5611 596.941 41.4501C624.017 38.3461 650.573 45.0421 676.252 51.5221C695.518 56.3841 713.876 61.0141 730.327 60.6691V55.8591V0.432129" fill="white"/>
</mask>
<g mask="url(#mask18_206:499)">
<path fill-rule="evenodd" clip-rule="evenodd" d="M470.31 77.2314C452.991 78.2604 433.514 73.3484 413.011 68.1784C387.392 61.7174 360.897 55.0374 333.974 58.1284C307.1 61.2274 281.856 70.5905 259.585 78.8514C241.197 85.6714 225.314 91.5634 212.742 92.3105C212.723 92.3115 212.705 92.3125 212.686 92.3134L212.625 91.2645C212.643 91.2635 212.662 91.2624 212.68 91.2614C225.129 90.5214 240.957 84.6504 259.283 77.8534C281.599 69.5754 306.893 60.1944 333.866 57.0834C360.948 53.9804 387.51 60.6744 413.202 67.1535C435.879 72.8724 457.292 78.2724 475.822 75.6264L475.952 76.6684C474.098 76.9334 472.218 77.1184 470.31 77.2314Z" fill="#00B0C7"/>
</g>
<mask id="mask19_206:499" style="mask-type:alpha" maskUnits="userSpaceOnUse" x="0" y="0" width="731" height="92">
<path fill-rule="evenodd" clip-rule="evenodd" d="M0.337157 0.432129V89.0101L0.326172 91.9751C21.629 84.0961 45.4914 75.6361 70.8377 72.7131C97.9157 69.6031 124.468 76.3041 150.148 82.7851C172.765 88.4921 194.129 93.8791 212.626 91.2741V91.2641C212.643 91.2631 212.662 91.2621 212.68 91.2611C225.129 90.5211 240.957 84.6501 259.283 77.8531C281.598 69.5751 306.893 60.1941 333.867 57.0831C360.949 53.9791 387.509 60.6741 413.201 67.1531C435.829 72.8591 457.199 78.2461 475.702 75.6411L475.701 75.6321C475.718 75.6301 475.737 75.6291 475.755 75.6281C488.204 74.8881 504.033 69.0171 522.359 62.2201C544.674 53.9421 569.968 44.5611 596.941 41.4501C624.017 38.3461 650.573 45.0421 676.252 51.5221C695.518 56.3841 713.876 61.0141 730.327 60.6691V55.8591V0.432129" fill="white"/>
</mask>
<!-- <g mask="url(#mask19_206:499)">
<path fill-rule="evenodd" clip-rule="evenodd" d="M485.751 86.2587C468.43 87.2877 448.952 82.3757 428.449 77.2057C402.831 70.7447 376.342 64.0647 349.413 67.1567C322.54 70.2547 297.297 79.6177 275.026 87.8787C256.639 94.6977 240.755 100.59 228.183 101.337C228.164 101.338 228.145 101.34 228.126 101.341L228.065 100.292C228.083 100.291 228.102 100.289 228.121 100.288C240.57 99.5487 256.4 93.6767 274.725 86.8807C297.04 78.6027 322.332 69.2217 349.306 66.1117C376.377 63.0067 402.948 69.7007 428.64 76.1797C451.318 81.9007 472.733 87.3007 491.263 84.6527L491.393 85.6947C489.54 85.9597 487.658 86.1457 485.751 86.2587Z" fill="#00B0C7"/>
</g> -->
<mask id="mask20_206:499" style="mask-type:alpha" maskUnits="userSpaceOnUse" x="0" y="0" width="731" height="92">
<path fill-rule="evenodd" clip-rule="evenodd" d="M0.337157 0.432129V89.0101L0.326172 91.9751C21.629 84.0961 45.4914 75.6361 70.8377 72.7131C97.9157 69.6031 124.468 76.3041 150.148 82.7851C172.765 88.4921 194.129 93.8791 212.626 91.2741V91.2641C212.643 91.2631 212.662 91.2621 212.68 91.2611C225.129 90.5211 240.957 84.6501 259.283 77.8531C281.598 69.5751 306.893 60.1941 333.867 57.0831C360.949 53.9791 387.509 60.6741 413.201 67.1531C435.829 72.8591 457.199 78.2461 475.702 75.6411L475.701 75.6321C475.718 75.6301 475.737 75.6291 475.755 75.6281C488.204 74.8881 504.033 69.0171 522.359 62.2201C544.674 53.9421 569.968 44.5611 596.941 41.4501C624.017 38.3461 650.573 45.0421 676.252 51.5221C695.518 56.3841 713.876 61.0141 730.327 60.6691V55.8591V0.432129" fill="white"/>
</mask>
<!-- <g mask="url(#mask20_206:499)">
<path fill-rule="evenodd" clip-rule="evenodd" d="M501.194 95.2876C483.874 96.3176 464.403 91.4056 443.904 86.2356C418.284 79.7736 391.79 73.0896 364.852 76.1836C337.978 79.2816 312.733 88.6456 290.461 96.9086C272.075 103.728 256.191 109.621 243.619 110.368C243.6 110.369 243.584 110.37 243.565 110.371L243.504 109.322C243.522 109.321 243.539 109.32 243.557 109.319C256.006 108.579 271.835 102.708 290.159 95.9096C312.477 87.6316 337.771 78.2486 364.744 75.1386C391.833 72.0316 418.402 78.7296 444.094 85.2106C466.765 90.9286 488.172 96.3316 506.701 93.6826L506.83 94.7256C504.979 94.9896 503.098 95.1746 501.194 95.2876Z" fill="#00B0C7"/>
</g> -->
<mask id="mask21_206:499" style="mask-type:alpha" maskUnits="userSpaceOnUse" x="0" y="0" width="731" height="92">
<path fill-rule="evenodd" clip-rule="evenodd" d="M0.337157 0.432129V89.0101L0.326172 91.9751C21.629 84.0961 45.4914 75.6361 70.8377 72.7131C97.9157 69.6031 124.468 76.3041 150.148 82.7851C172.765 88.4921 194.129 93.8791 212.626 91.2741V91.2641C212.643 91.2631 212.662 91.2621 212.68 91.2611C225.129 90.5211 240.957 84.6501 259.283 77.8531C281.598 69.5751 306.893 60.1941 333.867 57.0831C360.949 53.9791 387.509 60.6741 413.201 67.1531C435.829 72.8591 457.199 78.2461 475.702 75.6411L475.701 75.6321C475.718 75.6301 475.737 75.6291 475.755 75.6281C488.204 74.8881 504.033 69.0171 522.359 62.2201C544.674 53.9421 569.968 44.5611 596.941 41.4501C624.017 38.3461 650.573 45.0421 676.252 51.5221C695.518 56.3841 713.876 61.0141 730.327 60.6691V55.8591V0.432129" fill="white"/>
</mask>
<g mask="url(#mask21_206:499)">
<path fill-rule="evenodd" clip-rule="evenodd" d="M729.818 2.14127C712.5 3.17027 693.032 -1.74273 672.539 -6.91273C646.931 -13.3757 620.447 -20.0557 593.525 -16.9647C566.654 -13.8647 541.412 -4.50273 519.143 3.75827C500.753 10.5783 484.867 16.4703 472.295 17.2173C472.276 17.2183 472.258 17.2193 472.238 17.2213L472.177 16.1723C472.195 16.1703 472.214 16.1693 472.233 16.1683C484.683 15.4293 500.513 9.55727 518.84 2.76027C541.154 -5.51673 566.447 -14.8987 593.417 -18.0097C620.493 -21.1157 647.05 -14.4187 672.728 -7.93773C695.395 -2.21773 716.804 3.18627 735.327 0.536268L735.456 1.57827C733.604 1.84327 731.724 2.02827 729.818 2.14127Z" fill="#00B0C7"/>
</g>
<mask id="mask22_206:499" style="mask-type:alpha" maskUnits="userSpaceOnUse" x="0" y="0" width="731" height="92">
<path fill-rule="evenodd" clip-rule="evenodd" d="M0.337157 0.432129V89.0101L0.326172 91.9751C21.629 84.0961 45.4914 75.6361 70.8377 72.7131C97.9157 69.6031 124.468 76.3041 150.148 82.7851C172.765 88.4921 194.129 93.8791 212.626 91.2741V91.2641C212.643 91.2631 212.662 91.2621 212.68 91.2611C225.129 90.5211 240.957 84.6501 259.283 77.8531C281.598 69.5751 306.893 60.1941 333.867 57.0831C360.949 53.9791 387.509 60.6741 413.201 67.1531C435.829 72.8591 457.199 78.2461 475.702 75.6411L475.701 75.6321C475.718 75.6301 475.737 75.6291 475.755 75.6281C488.204 74.8881 504.033 69.0171 522.359 62.2201C544.674 53.9421 569.968 44.5611 596.941 41.4501C624.017 38.3461 650.573 45.0421 676.252 51.5221C695.518 56.3841 713.876 61.0141 730.327 60.6691V55.8591V0.432129" fill="white"/>
</mask>
<g mask="url(#mask22_206:499)">
<path fill-rule="evenodd" clip-rule="evenodd" d="M745.256 11.1691C727.936 12.1981 708.468 7.28511 687.975 2.11411C662.368 -4.34689 635.888 -11.0329 608.963 -7.93689C582.093 -4.83789 556.85 4.52411 534.58 12.7851C516.193 19.6051 500.309 25.4971 487.735 26.2441C487.715 26.2451 487.696 26.2471 487.676 26.2481L487.616 25.1991C487.635 25.1981 487.654 25.1961 487.673 25.1951C500.123 24.4561 515.953 18.5851 534.278 11.7871C556.594 3.51011 581.885 -5.87089 608.856 -8.98189C635.929 -12.0879 662.486 -5.39089 688.165 1.08911C710.834 6.80911 732.239 12.2061 750.767 9.56311L750.897 10.6051C749.044 10.8701 747.162 11.0561 745.256 11.1691Z" fill="#00B0C7"/>
</g>
<mask id="mask23_206:499" style="mask-type:alpha" maskUnits="userSpaceOnUse" x="0" y="0" width="731" height="92">
<path fill-rule="evenodd" clip-rule="evenodd" d="M0.337157 0.432129V89.0101L0.326172 91.9751C21.629 84.0961 45.4914 75.6361 70.8377 72.7131C97.9157 69.6031 124.468 76.3041 150.148 82.7851C172.765 88.4921 194.129 93.8791 212.626 91.2741V91.2641C212.643 91.2631 212.662 91.2621 212.68 91.2611C225.129 90.5211 240.957 84.6501 259.283 77.8531C281.598 69.5751 306.893 60.1941 333.867 57.0831C360.949 53.9791 387.509 60.6741 413.201 67.1531C435.829 72.8591 457.199 78.2461 475.702 75.6411L475.701 75.6321C475.718 75.6301 475.737 75.6291 475.755 75.6281C488.204 74.8881 504.033 69.0171 522.359 62.2201C544.674 53.9421 569.968 44.5611 596.941 41.4501C624.017 38.3461 650.573 45.0421 676.252 51.5221C695.518 56.3841 713.876 61.0141 730.327 60.6691V55.8591V0.432129" fill="white"/>
</mask>
<g mask="url(#mask23_206:499)">
<path fill-rule="evenodd" clip-rule="evenodd" d="M760.692 20.195C743.374 21.225 723.908 16.312 703.415 11.14C677.809 4.67904 651.333 -2.00496 624.403 1.09004C597.531 4.18904 572.29 13.551 550.019 21.811C531.632 28.632 515.747 34.523 503.175 35.27C503.155 35.272 503.136 35.273 503.116 35.274L503.056 34.225C503.075 34.224 503.094 34.223 503.113 34.221C515.562 33.482 531.392 27.611 549.718 20.813C572.032 12.537 597.324 3.15604 624.296 0.0450365C651.368 -3.06096 677.925 3.63504 703.605 10.116C726.272 15.836 747.687 21.233 766.205 18.59L766.333 19.631C764.481 19.896 762.599 20.082 760.692 20.195Z" fill="#00B0C7"/>
</g>
<mask id="mask24_206:499" style="mask-type:alpha" maskUnits="userSpaceOnUse" x="0" y="0" width="731" height="92">
<path fill-rule="evenodd" clip-rule="evenodd" d="M0.337157 0.432129V89.0101L0.326172 91.9751C21.629 84.0961 45.4914 75.6361 70.8377 72.7131C97.9157 69.6031 124.468 76.3041 150.148 82.7851C172.765 88.4921 194.129 93.8791 212.626 91.2741V91.2641C212.643 91.2631 212.662 91.2621 212.68 91.2611C225.129 90.5211 240.957 84.6501 259.283 77.8531C281.598 69.5751 306.893 60.1941 333.867 57.0831C360.949 53.9791 387.509 60.6741 413.201 67.1531C435.829 72.8591 457.199 78.2461 475.702 75.6411L475.701 75.6321C475.718 75.6301 475.737 75.6291 475.755 75.6281C488.204 74.8881 504.033 69.0171 522.359 62.2201C544.674 53.9421 569.968 44.5611 596.941 41.4501C624.017 38.3461 650.573 45.0421 676.252 51.5221C695.518 56.3841 713.876 61.0141 730.327 60.6691V55.8591V0.432129" fill="white"/>
</mask>
<g mask="url(#mask24_206:499)">
<path fill-rule="evenodd" clip-rule="evenodd" d="M776.137 29.2251C758.814 30.2551 739.347 25.3411 718.852 20.1701C693.247 13.7081 666.78 7.02912 639.843 10.1181C612.968 13.2171 587.723 22.5801 565.451 30.8421C547.065 37.6621 531.18 43.5541 518.608 44.3011C518.59 44.3021 518.574 44.3031 518.555 44.3041L518.494 43.2551C518.511 43.2541 518.529 43.2531 518.546 43.2521C530.995 42.5131 546.824 36.6411 565.149 29.8441C587.466 21.5661 612.761 12.1841 639.736 9.07312C666.811 5.97012 693.365 12.6651 719.043 19.1441C741.711 24.8641 763.116 30.2651 781.647 27.6201L781.777 28.6611C779.924 28.9261 778.042 29.1111 776.137 29.2251Z" fill="#00B0C7"/>
</g>
<mask id="mask25_206:499" style="mask-type:alpha" maskUnits="userSpaceOnUse" x="0" y="0" width="731" height="92">
<path fill-rule="evenodd" clip-rule="evenodd" d="M0.337157 0.432129V89.0101L0.326172 91.9751C21.629 84.0961 45.4914 75.6361 70.8377 72.7131C97.9157 69.6031 124.468 76.3041 150.148 82.7851C172.765 88.4921 194.129 93.8791 212.626 91.2741V91.2641C212.643 91.2631 212.662 91.2621 212.68 91.2611C225.129 90.5211 240.957 84.6501 259.283 77.8531C281.598 69.5751 306.893 60.1941 333.867 57.0831C360.949 53.9791 387.509 60.6741 413.201 67.1531C435.829 72.8591 457.199 78.2461 475.702 75.6411L475.701 75.6321C475.718 75.6301 475.737 75.6291 475.755 75.6281C488.204 74.8881 504.033 69.0171 522.359 62.2201C544.674 53.9421 569.968 44.5611 596.941 41.4501C624.017 38.3461 650.573 45.0421 676.252 51.5221C695.518 56.3841 713.876 61.0141 730.327 60.6691V55.8591V0.432129" fill="white"/>
</mask>
<g mask="url(#mask25_206:499)">
<path fill-rule="evenodd" clip-rule="evenodd" d="M761.872 40.0173C744.553 41.0473 725.084 36.1343 704.591 30.9623C678.984 24.5003 652.508 17.8113 625.578 20.9103C598.706 24.0103 573.465 33.3733 551.193 41.6333C532.804 48.4553 516.919 54.3473 504.346 55.0943C504.328 55.0953 504.31 55.0963 504.291 55.0973L504.23 54.0483C504.247 54.0473 504.266 54.0463 504.284 54.0453C516.734 53.3053 532.564 47.4333 550.892 40.6353C573.207 32.3583 598.5 22.9773 625.471 19.8653C652.548 16.7603 679.102 23.4573 704.781 29.9373C727.447 35.6573 748.857 41.0593 767.38 38.4133L767.509 39.4543C765.657 39.7193 763.777 39.9043 761.872 40.0173Z" fill="#00B0C7"/>
</g>
<mask id="mask26_206:499" style="mask-type:alpha" maskUnits="userSpaceOnUse" x="0" y="0" width="731" height="92">
<path fill-rule="evenodd" clip-rule="evenodd" d="M0.337157 0.432129V89.0101L0.326172 91.9751C21.629 84.0961 45.4914 75.6361 70.8377 72.7131C97.9157 69.6031 124.468 76.3041 150.148 82.7851C172.765 88.4921 194.129 93.8791 212.626 91.2741V91.2641C212.643 91.2631 212.662 91.2621 212.68 91.2611C225.129 90.5211 240.957 84.6501 259.283 77.8531C281.598 69.5751 306.893 60.1941 333.867 57.0831C360.949 53.9791 387.509 60.6741 413.201 67.1531C435.829 72.8591 457.199 78.2461 475.702 75.6411L475.701 75.6321C475.718 75.6301 475.737 75.6291 475.755 75.6281C488.204 74.8881 504.033 69.0171 522.359 62.2201C544.674 53.9421 569.968 44.5611 596.941 41.4501C624.017 38.3461 650.573 45.0421 676.252 51.5221C695.518 56.3841 713.876 61.0141 730.327 60.6691V55.8591V0.432129" fill="white"/>
</mask>
<g mask="url(#mask26_206:499)">
<path fill-rule="evenodd" clip-rule="evenodd" d="M747.606 50.8084C730.286 51.8374 710.82 46.9244 690.326 41.7534C664.719 35.2914 638.233 28.6124 611.313 31.7034C584.442 34.8024 559.2 44.1644 536.93 52.4244C518.542 59.2454 502.657 65.1364 490.085 65.8834C490.065 65.8854 490.046 65.8864 490.026 65.8874L489.965 64.8384C489.984 64.8374 490.003 64.8364 490.022 64.8344C502.472 64.0954 518.302 58.2244 536.627 51.4264C558.942 43.1504 584.234 33.7694 611.205 30.6584C638.277 27.5534 664.837 34.2494 690.515 40.7294C713.183 46.4484 734.593 51.8514 753.117 49.2034L753.246 50.2444C751.393 50.5094 749.512 50.6944 747.606 50.8084Z" fill="#00B0C7"/>
</g>
<mask id="mask27_206:499" style="mask-type:alpha" maskUnits="userSpaceOnUse" x="0" y="0" width="731" height="92">
<path fill-rule="evenodd" clip-rule="evenodd" d="M0.337157 0.432129V89.0101L0.326172 91.9751C21.629 84.0961 45.4914 75.6361 70.8377 72.7131C97.9157 69.6031 124.468 76.3041 150.148 82.7851C172.765 88.4921 194.129 93.8791 212.626 91.2741V91.2641C212.643 91.2631 212.662 91.2621 212.68 91.2611C225.129 90.5211 240.957 84.6501 259.283 77.8531C281.598 69.5751 306.893 60.1941 333.867 57.0831C360.949 53.9791 387.509 60.6741 413.201 67.1531C435.829 72.8591 457.199 78.2461 475.702 75.6411L475.701 75.6321C475.718 75.6301 475.737 75.6291 475.755 75.6281C488.204 74.8881 504.033 69.0171 522.359 62.2201C544.674 53.9421 569.968 44.5611 596.941 41.4501C624.017 38.3461 650.573 45.0421 676.252 51.5221C695.518 56.3841 713.876 61.0141 730.327 60.6691V55.8591V0.432129" fill="white"/>
</mask>
<g mask="url(#mask27_206:499)">
<path fill-rule="evenodd" clip-rule="evenodd" d="M733.339 61.6014C716.021 62.6304 696.554 57.7184 676.062 52.5474C650.453 46.0844 623.969 39.3994 597.048 42.4964C570.175 45.5944 544.932 54.9574 522.66 63.2184C504.272 70.0394 488.389 75.9304 475.816 76.6774C475.798 76.6784 475.78 76.6794 475.761 76.6804L475.701 75.6314C475.718 75.6304 475.737 75.6294 475.754 75.6284C488.204 74.8884 504.032 69.0174 522.358 62.2204C544.675 53.9424 569.968 44.5614 596.941 41.4504C624.016 38.3464 650.573 45.0424 676.252 51.5224C698.918 57.2424 720.325 62.6404 738.85 59.9964L738.98 61.0374C737.127 61.3034 735.246 61.4884 733.339 61.6014Z" fill="#00B0C7"/>
</g>
<!-- <mask id="mask28_206:499" style="mask-type:alpha" maskUnits="userSpaceOnUse" x="0" y="0" width="731" height="92">
<path fill-rule="evenodd" clip-rule="evenodd" d="M0.337157 0.432129V89.0101L0.326172 91.9751C21.629 84.0961 45.4914 75.6361 70.8377 72.7131C97.9157 69.6031 124.468 76.3041 150.148 82.7851C172.765 88.4921 194.129 93.8791 212.626 91.2741V91.2641C212.643 91.2631 212.662 91.2621 212.68 91.2611C225.129 90.5211 240.957 84.6501 259.283 77.8531C281.598 69.5751 306.893 60.1941 333.867 57.0831C360.949 53.9791 387.509 60.6741 413.201 67.1531C435.829 72.8591 457.199 78.2461 475.702 75.6411L475.701 75.6321C475.718 75.6301 475.737 75.6291 475.755 75.6281C488.204 74.8881 504.033 69.0171 522.359 62.2201C544.674 53.9421 569.968 44.5611 596.941 41.4501C624.017 38.3461 650.573 45.0421 676.252 51.5221C695.518 56.3841 713.876 61.0141 730.327 60.6691V55.8591V0.432129" fill="white"/>
</mask>
<g mask="url(#mask28_206:499)">
<path fill-rule="evenodd" clip-rule="evenodd" d="M748.779 70.6285C731.46 71.6575 711.992 66.7445 691.5 61.5735C665.893 55.1115 639.408 48.4325 612.487 51.5235C585.614 54.6225 560.372 63.9845 538.1 72.2455C519.714 79.0655 503.829 84.9565 491.257 85.7035C491.239 85.7055 491.22 85.7065 491.2 85.7075L491.14 84.6585C491.158 84.6575 491.177 84.6555 491.195 84.6545C503.645 83.9155 519.473 78.0445 537.799 71.2465C560.114 62.9695 585.408 53.5885 612.38 50.4785C639.465 47.3715 666.011 54.0685 691.689 60.5495C714.356 66.2685 735.772 71.6685 754.291 69.0225L754.42 70.0645C752.567 70.3295 750.686 70.5155 748.779 70.6285Z" fill="#00B0C7"/>
</g> -->
<!-- <mask id="mask29_206:499" style="mask-type:alpha" maskUnits="userSpaceOnUse" x="0" y="0" width="731" height="92">
<path fill-rule="evenodd" clip-rule="evenodd" d="M0.337157 0.432129V89.0101L0.326172 91.9751C21.629 84.0961 45.4914 75.6361 70.8377 72.7131C97.9157 69.6031 124.468 76.3041 150.148 82.7851C172.765 88.4921 194.129 93.8791 212.626 91.2741V91.2641C212.643 91.2631 212.662 91.2621 212.68 91.2611C225.129 90.5211 240.957 84.6501 259.283 77.8531C281.598 69.5751 306.893 60.1941 333.867 57.0831C360.949 53.9791 387.509 60.6741 413.201 67.1531C435.829 72.8591 457.199 78.2461 475.702 75.6411L475.701 75.6321C475.718 75.6301 475.737 75.6291 475.755 75.6281C488.204 74.8881 504.033 69.0171 522.359 62.2201C544.674 53.9421 569.968 44.5611 596.941 41.4501C624.017 38.3461 650.573 45.0421 676.252 51.5221C695.518 56.3841 713.876 61.0141 730.327 60.6691V55.8591V0.432129" fill="white"/>
</mask>
<g mask="url(#mask29_206:499)">
<path fill-rule="evenodd" clip-rule="evenodd" d="M764.222 79.6577C746.902 80.6877 727.435 75.7747 706.941 70.6027C681.333 64.1407 654.853 57.4597 627.927 60.5507C601.052 63.6487 575.807 73.0127 553.535 81.2757C535.149 88.0957 519.265 93.9877 506.693 94.7347C506.675 94.7357 506.659 94.7367 506.641 94.7377L506.579 93.6887C506.597 93.6877 506.614 93.6867 506.631 93.6857C519.08 92.9457 534.909 87.0747 553.233 80.2777C575.55 71.9987 600.845 62.6157 627.819 59.5057C654.897 56.4027 681.451 63.0987 707.131 69.5777C729.797 75.2977 751.2 80.7027 769.729 78.0527L769.858 79.0957C768.007 79.3597 766.126 79.5447 764.222 79.6577Z" fill="#00B0C7"/>
</g> -->
<path fill-rule="evenodd" clip-rule="evenodd" d="M31 26L17 33V19L31 26Z" fill="white"/>
<path d="M52.613 34L51.458 31.081H45.704L44.612 34H40.706L46.943 19.132H50.429L56.603 34H52.613ZM48.623 23.101L46.733 28.204H50.471L48.623 23.101ZM70.5457 31.942C69.8877 32.698 69.0757 33.3 68.1097 33.748C67.1437 34.182 66.0307 34.399 64.7707 34.399C63.6227 34.399 62.5587 34.21 61.5787 33.832C60.6127 33.454 59.7727 32.922 59.0587 32.236C58.3447 31.536 57.7847 30.703 57.3787 29.737C56.9727 28.771 56.7697 27.707 56.7697 26.545C56.7697 25.355 56.9727 24.277 57.3787 23.311C57.7987 22.345 58.3727 21.526 59.1007 20.854C59.8287 20.168 60.6827 19.643 61.6627 19.279C62.6427 18.915 63.6997 18.733 64.8337 18.733C65.8837 18.733 66.9127 18.922 67.9207 19.3C68.9427 19.664 69.7687 20.203 70.3987 20.917L67.9627 23.353C67.6267 22.891 67.1857 22.548 66.6397 22.324C66.0937 22.1 65.5337 21.988 64.9597 21.988C64.3297 21.988 63.7487 22.107 63.2167 22.345C62.6987 22.569 62.2507 22.884 61.8727 23.29C61.4947 23.696 61.2007 24.179 60.9907 24.739C60.7807 25.285 60.6757 25.887 60.6757 26.545C60.6757 27.217 60.7807 27.833 60.9907 28.393C61.2007 28.953 61.4877 29.436 61.8517 29.842C62.2297 30.234 62.6777 30.542 63.1957 30.766C63.7137 30.99 64.2807 31.102 64.8967 31.102C65.6107 31.102 66.2337 30.962 66.7657 30.682C67.2977 30.402 67.7247 30.038 68.0467 29.59L70.5457 31.942ZM78.3247 22.198V34H74.7337V22.198H70.5337V19.132H82.5247V22.198H78.3247ZM84.1639 34V19.132H87.7759V34H84.1639ZM98.2204 34H94.6294L89.0014 19.132H93.0334L96.4774 29.674H96.5614L99.9844 19.132H103.953L98.2204 34ZM105.164 34V19.132H108.776V34H105.164ZM118.212 22.198V34H114.621V22.198H110.421V19.132H122.412V22.198H118.212ZM131.029 27.7V34H127.438V27.7L121.852 19.132H126.199L129.37 24.634L132.541 19.132H136.741L131.029 27.7ZM142.591 34V19.132H146.203V30.871H151.957V34H142.591ZM168.507 26.503C168.507 27.679 168.304 28.757 167.898 29.737C167.492 30.703 166.925 31.536 166.197 32.236C165.483 32.922 164.629 33.454 163.635 33.832C162.641 34.21 161.563 34.399 160.401 34.399C159.239 34.399 158.161 34.21 157.167 33.832C156.187 33.454 155.333 32.922 154.605 32.236C153.891 31.536 153.331 30.703 152.925 29.737C152.519 28.757 152.316 27.679 152.316 26.503C152.316 25.313 152.519 24.242 152.925 23.29C153.331 22.324 153.891 21.505 154.605 20.833C155.333 20.161 156.187 19.643 157.167 19.279C158.161 18.915 159.239 18.733 160.401 18.733C161.563 18.733 162.641 18.915 163.635 19.279C164.629 19.643 165.483 20.161 166.197 20.833C166.925 21.505 167.492 22.324 167.898 23.29C168.304 24.242 168.507 25.313 168.507 26.503ZM164.664 26.503C164.664 25.859 164.559 25.257 164.349 24.697C164.139 24.137 163.845 23.661 163.467 23.269C163.103 22.863 162.655 22.548 162.123 22.324C161.605 22.086 161.031 21.967 160.401 21.967C159.771 21.967 159.197 22.086 158.679 22.324C158.161 22.548 157.713 22.863 157.335 23.269C156.957 23.661 156.663 24.137 156.453 24.697C156.257 25.257 156.159 25.859 156.159 26.503C156.159 27.175 156.264 27.798 156.474 28.372C156.684 28.932 156.971 29.415 157.335 29.821C157.713 30.227 158.161 30.549 158.679 30.787C159.197 31.011 159.771 31.123 160.401 31.123C161.031 31.123 161.605 31.011 162.123 30.787C162.641 30.549 163.089 30.227 163.467 29.821C163.845 29.415 164.139 28.932 164.349 28.372C164.559 27.798 164.664 27.175 164.664 26.503ZM184.08 33.097C183.352 33.475 182.498 33.783 181.518 34.021C180.552 34.259 179.495 34.378 178.347 34.378C177.157 34.378 176.058 34.189 175.05 33.811C174.056 33.433 173.195 32.901 172.467 32.215C171.753 31.529 171.193 30.71 170.787 29.758C170.381 28.792 170.178 27.721 170.178 26.545C170.178 25.355 170.381 24.277 170.787 23.311C171.207 22.345 171.781 21.526 172.509 20.854C173.237 20.168 174.091 19.643 175.071 19.279C176.051 18.915 177.108 18.733 178.242 18.733C179.418 18.733 180.51 18.915 181.518 19.279C182.526 19.629 183.345 20.105 183.975 20.707L181.707 23.29C181.357 22.884 180.895 22.555 180.321 22.303C179.747 22.037 179.096 21.904 178.368 21.904C177.738 21.904 177.157 22.023 176.625 22.261C176.093 22.485 175.631 22.807 175.239 23.227C174.847 23.633 174.539 24.123 174.315 24.697C174.105 25.257 174 25.873 174 26.545C174 27.231 174.098 27.861 174.294 28.435C174.49 29.009 174.777 29.506 175.155 29.926C175.547 30.332 176.023 30.654 176.583 30.892C177.157 31.116 177.808 31.228 178.536 31.228C178.956 31.228 179.355 31.2 179.733 31.144C180.111 31.074 180.461 30.969 180.783 30.829V28.12H177.948V25.222H184.08V33.097Z" fill="white"/>
</svg>
