<svg width="429" height="53" viewBox="0 0 429 53" fill="none" xmlns="http://www.w3.org/2000/svg">
<rect width="429" height="53" rx="26.5" fill="#00B0C7"/>
<path d="M116.114 28.194C116.114 28.962 115.982 29.664 115.718 30.3C115.466 30.924 115.1 31.464 114.62 31.92C114.14 32.364 113.558 32.712 112.874 32.964C112.202 33.216 111.452 33.342 110.624 33.342C109.784 33.342 109.028 33.216 108.356 32.964C107.684 32.712 107.114 32.364 106.646 31.92C106.178 31.464 105.818 30.924 105.566 30.3C105.314 29.664 105.188 28.962 105.188 28.194V20.256H108.248V27.942C108.248 28.29 108.29 28.62 108.374 28.932C108.47 29.244 108.608 29.526 108.788 29.778C108.98 30.018 109.226 30.21 109.526 30.354C109.838 30.498 110.21 30.57 110.642 30.57C111.074 30.57 111.44 30.498 111.74 30.354C112.052 30.21 112.304 30.018 112.496 29.778C112.688 29.526 112.826 29.244 112.91 28.932C112.994 28.62 113.036 28.29 113.036 27.942V20.256H116.114V28.194ZM128.213 28.482C128.213 29.106 128.117 29.706 127.925 30.282C127.733 30.858 127.451 31.368 127.079 31.812C126.719 32.244 126.275 32.592 125.747 32.856C125.219 33.12 124.619 33.252 123.947 33.252C123.395 33.252 122.873 33.144 122.381 32.928C121.889 32.7 121.505 32.394 121.229 32.01H121.193V37.32H118.241V24.036H121.049V25.134H121.103C121.379 24.774 121.757 24.462 122.237 24.198C122.729 23.922 123.305 23.784 123.965 23.784C124.613 23.784 125.201 23.91 125.729 24.162C126.257 24.414 126.701 24.756 127.061 25.188C127.433 25.62 127.715 26.124 127.907 26.7C128.111 27.264 128.213 27.858 128.213 28.482ZM125.351 28.482C125.351 28.194 125.303 27.912 125.207 27.636C125.123 27.36 124.991 27.12 124.811 26.916C124.643 26.7 124.427 26.526 124.163 26.394C123.899 26.262 123.593 26.196 123.245 26.196C122.909 26.196 122.609 26.262 122.345 26.394C122.081 26.526 121.853 26.7 121.661 26.916C121.481 27.132 121.337 27.378 121.229 27.654C121.133 27.93 121.085 28.212 121.085 28.5C121.085 28.788 121.133 29.07 121.229 29.346C121.337 29.622 121.481 29.868 121.661 30.084C121.853 30.3 122.081 30.474 122.345 30.606C122.609 30.738 122.909 30.804 123.245 30.804C123.593 30.804 123.899 30.738 124.163 30.606C124.427 30.474 124.643 30.3 124.811 30.084C124.991 29.868 125.123 29.622 125.207 29.346C125.303 29.058 125.351 28.77 125.351 28.482ZM129.907 33V19.392H132.895V33H129.907ZM144.536 28.482C144.536 29.214 144.404 29.88 144.14 30.48C143.876 31.068 143.516 31.572 143.06 31.992C142.604 32.4 142.076 32.718 141.476 32.946C140.876 33.174 140.234 33.288 139.55 33.288C138.878 33.288 138.236 33.174 137.624 32.946C137.024 32.718 136.496 32.4 136.04 31.992C135.596 31.572 135.242 31.068 134.978 30.48C134.714 29.88 134.582 29.214 134.582 28.482C134.582 27.75 134.714 27.09 134.978 26.502C135.242 25.914 135.596 25.416 136.04 25.008C136.496 24.6 137.024 24.288 137.624 24.072C138.236 23.856 138.878 23.748 139.55 23.748C140.234 23.748 140.876 23.856 141.476 24.072C142.076 24.288 142.604 24.6 143.06 25.008C143.516 25.416 143.876 25.914 144.14 26.502C144.404 27.09 144.536 27.75 144.536 28.482ZM141.692 28.482C141.692 28.194 141.644 27.912 141.548 27.636C141.452 27.36 141.314 27.12 141.134 26.916C140.954 26.7 140.732 26.526 140.468 26.394C140.204 26.262 139.898 26.196 139.55 26.196C139.202 26.196 138.896 26.262 138.632 26.394C138.368 26.526 138.146 26.7 137.966 26.916C137.798 27.12 137.666 27.36 137.57 27.636C137.486 27.912 137.444 28.194 137.444 28.482C137.444 28.77 137.486 29.052 137.57 29.328C137.666 29.604 137.804 29.856 137.984 30.084C138.164 30.3 138.386 30.474 138.65 30.606C138.914 30.738 139.22 30.804 139.568 30.804C139.916 30.804 140.222 30.738 140.486 30.606C140.75 30.474 140.972 30.3 141.152 30.084C141.332 29.856 141.464 29.604 141.548 29.328C141.644 29.052 141.692 28.77 141.692 28.482ZM151.498 29.094H151.12C150.796 29.094 150.466 29.112 150.13 29.148C149.806 29.172 149.512 29.226 149.248 29.31C148.996 29.394 148.786 29.52 148.618 29.688C148.45 29.844 148.366 30.054 148.366 30.318C148.366 30.486 148.402 30.63 148.474 30.75C148.558 30.87 148.66 30.966 148.78 31.038C148.9 31.11 149.038 31.164 149.194 31.2C149.35 31.224 149.5 31.236 149.644 31.236C150.244 31.236 150.7 31.074 151.012 30.75C151.336 30.414 151.498 29.964 151.498 29.4V29.094ZM146.08 25.26C146.608 24.756 147.22 24.378 147.916 24.126C148.624 23.874 149.344 23.748 150.076 23.748C150.832 23.748 151.468 23.844 151.984 24.036C152.512 24.216 152.938 24.504 153.262 24.9C153.586 25.284 153.82 25.776 153.964 26.376C154.12 26.964 154.198 27.666 154.198 28.482V33H151.498V32.046H151.444C151.216 32.418 150.868 32.706 150.4 32.91C149.944 33.114 149.446 33.216 148.906 33.216C148.546 33.216 148.174 33.168 147.79 33.072C147.406 32.976 147.052 32.82 146.728 32.604C146.416 32.388 146.158 32.1 145.954 31.74C145.75 31.38 145.648 30.936 145.648 30.408C145.648 29.76 145.822 29.238 146.17 28.842C146.53 28.446 146.986 28.14 147.538 27.924C148.102 27.708 148.726 27.564 149.41 27.492C150.094 27.42 150.76 27.384 151.408 27.384V27.24C151.408 26.796 151.252 26.472 150.94 26.268C150.628 26.052 150.244 25.944 149.788 25.944C149.368 25.944 148.96 26.034 148.564 26.214C148.18 26.394 147.85 26.61 147.574 26.862L146.08 25.26ZM162.987 33V31.83H162.951C162.663 32.286 162.249 32.64 161.709 32.892C161.181 33.132 160.617 33.252 160.017 33.252C159.345 33.252 158.745 33.12 158.217 32.856C157.689 32.592 157.239 32.244 156.867 31.812C156.507 31.368 156.231 30.858 156.039 30.282C155.847 29.706 155.751 29.106 155.751 28.482C155.751 27.858 155.847 27.264 156.039 26.7C156.243 26.124 156.525 25.62 156.885 25.188C157.257 24.756 157.701 24.414 158.217 24.162C158.745 23.91 159.333 23.784 159.981 23.784C160.641 23.784 161.199 23.91 161.655 24.162C162.111 24.414 162.465 24.69 162.717 24.99H162.753V19.392H165.705V33H162.987ZM162.879 28.5C162.879 28.212 162.825 27.93 162.717 27.654C162.621 27.378 162.477 27.132 162.285 26.916C162.105 26.7 161.883 26.526 161.619 26.394C161.355 26.262 161.055 26.196 160.719 26.196C160.371 26.196 160.065 26.262 159.801 26.394C159.537 26.526 159.315 26.7 159.135 26.916C158.955 27.12 158.817 27.36 158.721 27.636C158.637 27.912 158.595 28.194 158.595 28.482C158.595 28.77 158.637 29.058 158.721 29.346C158.817 29.622 158.955 29.868 159.135 30.084C159.315 30.3 159.537 30.474 159.801 30.606C160.065 30.738 160.371 30.804 160.719 30.804C161.055 30.804 161.355 30.738 161.619 30.606C161.883 30.474 162.105 30.3 162.285 30.084C162.477 29.868 162.621 29.622 162.717 29.346C162.825 29.07 162.879 28.788 162.879 28.5ZM177.422 26.682C177.182 26.454 176.9 26.262 176.576 26.106C176.252 25.95 175.91 25.872 175.55 25.872C175.274 25.872 175.016 25.926 174.776 26.034C174.548 26.142 174.434 26.328 174.434 26.592C174.434 26.844 174.56 27.024 174.812 27.132C175.076 27.24 175.496 27.36 176.072 27.492C176.408 27.564 176.744 27.666 177.08 27.798C177.428 27.93 177.74 28.104 178.016 28.32C178.292 28.536 178.514 28.8 178.682 29.112C178.85 29.424 178.934 29.796 178.934 30.228C178.934 30.792 178.82 31.272 178.592 31.668C178.364 32.052 178.064 32.364 177.692 32.604C177.332 32.844 176.924 33.018 176.468 33.126C176.012 33.234 175.556 33.288 175.1 33.288C174.368 33.288 173.648 33.174 172.94 32.946C172.244 32.706 171.662 32.358 171.194 31.902L172.85 30.156C173.114 30.444 173.438 30.684 173.822 30.876C174.206 31.068 174.614 31.164 175.046 31.164C175.286 31.164 175.52 31.11 175.748 31.002C175.988 30.882 176.108 30.678 176.108 30.39C176.108 30.114 175.964 29.91 175.676 29.778C175.388 29.646 174.938 29.508 174.326 29.364C174.014 29.292 173.702 29.196 173.39 29.076C173.078 28.956 172.796 28.794 172.544 28.59C172.304 28.386 172.106 28.134 171.95 27.834C171.794 27.534 171.716 27.174 171.716 26.754C171.716 26.214 171.83 25.758 172.058 25.386C172.286 25.002 172.58 24.69 172.94 24.45C173.3 24.21 173.696 24.036 174.128 23.928C174.572 23.808 175.01 23.748 175.442 23.748C176.114 23.748 176.768 23.856 177.404 24.072C178.052 24.276 178.598 24.588 179.042 25.008L177.422 26.682ZM185.731 29.094H185.353C185.029 29.094 184.699 29.112 184.363 29.148C184.039 29.172 183.745 29.226 183.481 29.31C183.229 29.394 183.019 29.52 182.851 29.688C182.683 29.844 182.599 30.054 182.599 30.318C182.599 30.486 182.635 30.63 182.707 30.75C182.791 30.87 182.893 30.966 183.013 31.038C183.133 31.11 183.271 31.164 183.427 31.2C183.583 31.224 183.733 31.236 183.877 31.236C184.477 31.236 184.933 31.074 185.245 30.75C185.569 30.414 185.731 29.964 185.731 29.4V29.094ZM180.313 25.26C180.841 24.756 181.453 24.378 182.149 24.126C182.857 23.874 183.577 23.748 184.309 23.748C185.065 23.748 185.701 23.844 186.217 24.036C186.745 24.216 187.171 24.504 187.495 24.9C187.819 25.284 188.053 25.776 188.197 26.376C188.353 26.964 188.431 27.666 188.431 28.482V33H185.731V32.046H185.677C185.449 32.418 185.101 32.706 184.633 32.91C184.177 33.114 183.679 33.216 183.139 33.216C182.779 33.216 182.407 33.168 182.023 33.072C181.639 32.976 181.285 32.82 180.961 32.604C180.649 32.388 180.391 32.1 180.187 31.74C179.983 31.38 179.881 30.936 179.881 30.408C179.881 29.76 180.055 29.238 180.403 28.842C180.763 28.446 181.219 28.14 181.771 27.924C182.335 27.708 182.959 27.564 183.643 27.492C184.327 27.42 184.993 27.384 185.641 27.384V27.24C185.641 26.796 185.485 26.472 185.173 26.268C184.861 26.052 184.477 25.944 184.021 25.944C183.601 25.944 183.193 26.034 182.797 26.214C182.413 26.394 182.083 26.61 181.807 26.862L180.313 25.26ZM190.47 33V19.392H193.458V33H190.47ZM201.769 27.492C201.769 27.024 201.619 26.622 201.319 26.286C201.031 25.95 200.593 25.782 200.005 25.782C199.717 25.782 199.453 25.83 199.213 25.926C198.973 26.01 198.763 26.13 198.583 26.286C198.403 26.442 198.259 26.628 198.151 26.844C198.043 27.048 197.983 27.264 197.971 27.492H201.769ZM204.487 28.626C204.487 28.746 204.487 28.866 204.487 28.986C204.487 29.106 204.481 29.22 204.469 29.328H197.971C197.995 29.58 198.067 29.808 198.187 30.012C198.319 30.216 198.481 30.396 198.673 30.552C198.877 30.696 199.099 30.81 199.339 30.894C199.591 30.978 199.849 31.02 200.113 31.02C200.581 31.02 200.977 30.936 201.301 30.768C201.625 30.588 201.889 30.36 202.093 30.084L204.145 31.38C203.725 31.992 203.167 32.466 202.471 32.802C201.787 33.126 200.989 33.288 200.077 33.288C199.405 33.288 198.769 33.186 198.169 32.982C197.569 32.766 197.041 32.46 196.585 32.064C196.141 31.656 195.787 31.158 195.523 30.57C195.271 29.982 195.145 29.31 195.145 28.554C195.145 27.822 195.271 27.162 195.523 26.574C195.775 25.974 196.117 25.47 196.549 25.062C196.981 24.642 197.491 24.318 198.079 24.09C198.667 23.862 199.303 23.748 199.987 23.748C200.647 23.748 201.253 23.862 201.805 24.09C202.357 24.306 202.831 24.624 203.227 25.044C203.623 25.464 203.929 25.974 204.145 26.574C204.373 27.174 204.487 27.858 204.487 28.626ZM211.392 26.682C211.152 26.454 210.87 26.262 210.546 26.106C210.222 25.95 209.88 25.872 209.52 25.872C209.244 25.872 208.986 25.926 208.746 26.034C208.518 26.142 208.404 26.328 208.404 26.592C208.404 26.844 208.53 27.024 208.782 27.132C209.046 27.24 209.466 27.36 210.042 27.492C210.378 27.564 210.714 27.666 211.05 27.798C211.398 27.93 211.71 28.104 211.986 28.32C212.262 28.536 212.484 28.8 212.652 29.112C212.82 29.424 212.904 29.796 212.904 30.228C212.904 30.792 212.79 31.272 212.562 31.668C212.334 32.052 212.034 32.364 211.662 32.604C211.302 32.844 210.894 33.018 210.438 33.126C209.982 33.234 209.526 33.288 209.07 33.288C208.338 33.288 207.618 33.174 206.91 32.946C206.214 32.706 205.632 32.358 205.164 31.902L206.82 30.156C207.084 30.444 207.408 30.684 207.792 30.876C208.176 31.068 208.584 31.164 209.016 31.164C209.256 31.164 209.49 31.11 209.718 31.002C209.958 30.882 210.078 30.678 210.078 30.39C210.078 30.114 209.934 29.91 209.646 29.778C209.358 29.646 208.908 29.508 208.296 29.364C207.984 29.292 207.672 29.196 207.36 29.076C207.048 28.956 206.766 28.794 206.514 28.59C206.274 28.386 206.076 28.134 205.92 27.834C205.764 27.534 205.686 27.174 205.686 26.754C205.686 26.214 205.8 25.758 206.028 25.386C206.256 25.002 206.55 24.69 206.91 24.45C207.27 24.21 207.666 24.036 208.098 23.928C208.542 23.808 208.98 23.748 209.412 23.748C210.084 23.748 210.738 23.856 211.374 24.072C212.022 24.276 212.568 24.588 213.012 25.008L211.392 26.682ZM224.882 26.934C224.714 26.718 224.486 26.544 224.198 26.412C223.91 26.28 223.616 26.214 223.316 26.214C223.004 26.214 222.722 26.28 222.47 26.412C222.218 26.532 222.002 26.7 221.822 26.916C221.642 27.12 221.498 27.36 221.39 27.636C221.294 27.912 221.246 28.206 221.246 28.518C221.246 28.83 221.294 29.124 221.39 29.4C221.486 29.676 221.624 29.922 221.804 30.138C221.996 30.342 222.218 30.504 222.47 30.624C222.734 30.744 223.028 30.804 223.352 30.804C223.652 30.804 223.946 30.75 224.234 30.642C224.534 30.522 224.774 30.354 224.954 30.138L226.592 32.136C226.22 32.496 225.74 32.778 225.152 32.982C224.564 33.186 223.94 33.288 223.28 33.288C222.572 33.288 221.912 33.18 221.3 32.964C220.688 32.748 220.154 32.436 219.698 32.028C219.254 31.608 218.9 31.104 218.636 30.516C218.384 29.928 218.258 29.262 218.258 28.518C218.258 27.786 218.384 27.126 218.636 26.538C218.9 25.95 219.254 25.452 219.698 25.044C220.154 24.624 220.688 24.306 221.3 24.09C221.912 23.862 222.566 23.748 223.262 23.748C223.586 23.748 223.904 23.778 224.216 23.838C224.54 23.898 224.846 23.982 225.134 24.09C225.434 24.186 225.704 24.312 225.944 24.468C226.196 24.612 226.412 24.774 226.592 24.954L224.882 26.934ZM237.065 28.482C237.065 29.214 236.933 29.88 236.669 30.48C236.405 31.068 236.045 31.572 235.589 31.992C235.133 32.4 234.605 32.718 234.005 32.946C233.405 33.174 232.763 33.288 232.079 33.288C231.407 33.288 230.765 33.174 230.153 32.946C229.553 32.718 229.025 32.4 228.569 31.992C228.125 31.572 227.771 31.068 227.507 30.48C227.243 29.88 227.111 29.214 227.111 28.482C227.111 27.75 227.243 27.09 227.507 26.502C227.771 25.914 228.125 25.416 228.569 25.008C229.025 24.6 229.553 24.288 230.153 24.072C230.765 23.856 231.407 23.748 232.079 23.748C232.763 23.748 233.405 23.856 234.005 24.072C234.605 24.288 235.133 24.6 235.589 25.008C236.045 25.416 236.405 25.914 236.669 26.502C236.933 27.09 237.065 27.75 237.065 28.482ZM234.221 28.482C234.221 28.194 234.173 27.912 234.077 27.636C233.981 27.36 233.843 27.12 233.663 26.916C233.483 26.7 233.261 26.526 232.997 26.394C232.733 26.262 232.427 26.196 232.079 26.196C231.731 26.196 231.425 26.262 231.161 26.394C230.897 26.526 230.675 26.7 230.495 26.916C230.327 27.12 230.195 27.36 230.099 27.636C230.015 27.912 229.973 28.194 229.973 28.482C229.973 28.77 230.015 29.052 230.099 29.328C230.195 29.604 230.333 29.856 230.513 30.084C230.693 30.3 230.915 30.474 231.179 30.606C231.443 30.738 231.749 30.804 232.097 30.804C232.445 30.804 232.751 30.738 233.015 30.606C233.279 30.474 233.501 30.3 233.681 30.084C233.861 29.856 233.993 29.604 234.077 29.328C234.173 29.052 234.221 28.77 234.221 28.482ZM244.62 33V28.104C244.62 27.852 244.596 27.612 244.548 27.384C244.512 27.156 244.446 26.958 244.35 26.79C244.254 26.61 244.116 26.472 243.936 26.376C243.768 26.268 243.552 26.214 243.288 26.214C243.024 26.214 242.79 26.268 242.586 26.376C242.394 26.472 242.232 26.61 242.1 26.79C241.968 26.97 241.866 27.18 241.794 27.42C241.734 27.648 241.704 27.888 241.704 28.14V33H238.734V24.036H241.596V25.278H241.632C241.74 25.086 241.878 24.9 242.046 24.72C242.226 24.528 242.43 24.366 242.658 24.234C242.898 24.102 243.156 23.994 243.432 23.91C243.708 23.826 244.002 23.784 244.314 23.784C244.914 23.784 245.424 23.892 245.844 24.108C246.264 24.324 246.6 24.606 246.852 24.954C247.116 25.29 247.302 25.68 247.41 26.124C247.53 26.568 247.59 27.012 247.59 27.456V33H244.62ZM252.83 26.25V29.67C252.83 30.09 252.908 30.408 253.064 30.624C253.232 30.828 253.526 30.93 253.946 30.93C254.09 30.93 254.24 30.918 254.396 30.894C254.564 30.87 254.702 30.834 254.81 30.786L254.846 32.946C254.642 33.018 254.384 33.078 254.072 33.126C253.76 33.186 253.448 33.216 253.136 33.216C252.536 33.216 252.032 33.144 251.624 33C251.216 32.844 250.886 32.628 250.634 32.352C250.394 32.064 250.22 31.728 250.112 31.344C250.004 30.948 249.95 30.51 249.95 30.03V26.25H248.51V24.036H249.932V21.678H252.83V24.036H254.936V26.25H252.83ZM261.937 26.448C261.805 26.412 261.673 26.388 261.541 26.376C261.421 26.364 261.301 26.358 261.181 26.358C260.785 26.358 260.449 26.43 260.173 26.574C259.909 26.718 259.693 26.892 259.525 27.096C259.369 27.3 259.255 27.522 259.183 27.762C259.111 28.002 259.075 28.212 259.075 28.392V33H256.123V24.036H258.967V25.332H259.003C259.231 24.876 259.555 24.504 259.975 24.216C260.395 23.928 260.881 23.784 261.433 23.784C261.553 23.784 261.667 23.79 261.775 23.802C261.895 23.814 261.991 23.832 262.063 23.856L261.937 26.448ZM268.071 29.094H267.693C267.369 29.094 267.039 29.112 266.703 29.148C266.379 29.172 266.085 29.226 265.821 29.31C265.569 29.394 265.359 29.52 265.191 29.688C265.023 29.844 264.939 30.054 264.939 30.318C264.939 30.486 264.975 30.63 265.047 30.75C265.131 30.87 265.233 30.966 265.353 31.038C265.473 31.11 265.611 31.164 265.767 31.2C265.923 31.224 266.073 31.236 266.217 31.236C266.817 31.236 267.273 31.074 267.585 30.75C267.909 30.414 268.071 29.964 268.071 29.4V29.094ZM262.653 25.26C263.181 24.756 263.793 24.378 264.489 24.126C265.197 23.874 265.917 23.748 266.649 23.748C267.405 23.748 268.041 23.844 268.557 24.036C269.085 24.216 269.511 24.504 269.835 24.9C270.159 25.284 270.393 25.776 270.537 26.376C270.693 26.964 270.771 27.666 270.771 28.482V33H268.071V32.046H268.017C267.789 32.418 267.441 32.706 266.973 32.91C266.517 33.114 266.019 33.216 265.479 33.216C265.119 33.216 264.747 33.168 264.363 33.072C263.979 32.976 263.625 32.82 263.301 32.604C262.989 32.388 262.731 32.1 262.527 31.74C262.323 31.38 262.221 30.936 262.221 30.408C262.221 29.76 262.395 29.238 262.743 28.842C263.103 28.446 263.559 28.14 264.111 27.924C264.675 27.708 265.299 27.564 265.983 27.492C266.667 27.42 267.333 27.384 267.981 27.384V27.24C267.981 26.796 267.825 26.472 267.513 26.268C267.201 26.052 266.817 25.944 266.361 25.944C265.941 25.944 265.533 26.034 265.137 26.214C264.753 26.394 264.423 26.61 264.147 26.862L262.653 25.26ZM278.948 26.934C278.78 26.718 278.552 26.544 278.264 26.412C277.976 26.28 277.682 26.214 277.382 26.214C277.07 26.214 276.788 26.28 276.536 26.412C276.284 26.532 276.068 26.7 275.888 26.916C275.708 27.12 275.564 27.36 275.456 27.636C275.36 27.912 275.312 28.206 275.312 28.518C275.312 28.83 275.36 29.124 275.456 29.4C275.552 29.676 275.69 29.922 275.87 30.138C276.062 30.342 276.284 30.504 276.536 30.624C276.8 30.744 277.094 30.804 277.418 30.804C277.718 30.804 278.012 30.75 278.3 30.642C278.6 30.522 278.84 30.354 279.02 30.138L280.658 32.136C280.286 32.496 279.806 32.778 279.218 32.982C278.63 33.186 278.006 33.288 277.346 33.288C276.638 33.288 275.978 33.18 275.366 32.964C274.754 32.748 274.22 32.436 273.764 32.028C273.32 31.608 272.966 31.104 272.702 30.516C272.45 29.928 272.324 29.262 272.324 28.518C272.324 27.786 272.45 27.126 272.702 26.538C272.966 25.95 273.32 25.452 273.764 25.044C274.22 24.624 274.754 24.306 275.366 24.09C275.978 23.862 276.632 23.748 277.328 23.748C277.652 23.748 277.97 23.778 278.282 23.838C278.606 23.898 278.912 23.982 279.2 24.09C279.5 24.186 279.77 24.312 280.01 24.468C280.262 24.612 280.478 24.774 280.658 24.954L278.948 26.934ZM284.831 26.25V29.67C284.831 30.09 284.909 30.408 285.065 30.624C285.233 30.828 285.527 30.93 285.947 30.93C286.091 30.93 286.241 30.918 286.397 30.894C286.565 30.87 286.703 30.834 286.811 30.786L286.847 32.946C286.643 33.018 286.385 33.078 286.073 33.126C285.761 33.186 285.449 33.216 285.137 33.216C284.537 33.216 284.033 33.144 283.625 33C283.217 32.844 282.887 32.628 282.635 32.352C282.395 32.064 282.221 31.728 282.113 31.344C282.005 30.948 281.951 30.51 281.951 30.03V26.25H280.511V24.036H281.933V21.678H284.831V24.036H286.937V26.25H284.831Z" fill="white"/>
<path fill-rule="evenodd" clip-rule="evenodd" d="M83.1184 14V15.871H89.7614L82.3184 23.313L83.6434 24.638L91.0854 17.195V23.966H92.9564V14H83.1184Z" fill="#FEFEFE"/>
<path fill-rule="evenodd" clip-rule="evenodd" d="M68 14V39.554H92.956V26.776H91.085V37.683H69.871V15.871H80.479V14H68Z" fill="#FEFEFE"/>
<path fill-rule="evenodd" clip-rule="evenodd" d="M73.2598 34.3788H87.7848V32.5078H73.2598V34.3788Z" fill="#FEFEFE"/>
<path fill-rule="evenodd" clip-rule="evenodd" d="M73.2598 30.2856H87.7848V28.4146H73.2598V30.2856Z" fill="#FEFEFE"/>
<path fill-rule="evenodd" clip-rule="evenodd" d="M73.2598 26.1928H80.5228V24.3218H73.2598V26.1928Z" fill="#FEFEFE"/>
</svg>
