<svg width="14" height="14" viewBox="0 0 14 14" fill="none" xmlns="http://www.w3.org/2000/svg">
<path d="M7.00011 8.34286C6.63192 8.34286 6.33345 8.04438 6.33345 7.67619V5.67619C6.33345 5.308 6.63192 5.00952 7.00011 5.00952C7.3683 5.00952 7.66678 5.308 7.66678 5.67619V7.67619C7.66678 8.04438 7.3683 8.34286 7.00011 8.34286Z" fill="#FFB54D"/>
<path d="M6.00011 10.0095C6.00011 9.45724 6.44783 9.00952 7.00011 9.00952C7.5524 9.00952 8.00011 9.45724 8.00011 10.0095C8.00011 10.5618 7.5524 11.0095 7.00011 11.0095C6.44783 11.0095 6.00011 10.5618 6.00011 10.0095Z" fill="#FFB54D"/>
<path d="M5.82022 1.15326C6.32011 0.203475 7.68012 0.203469 8.18 1.15326L13.7424 11.7219C14.2097 12.6097 13.5659 13.6762 12.5625 13.6762H1.43769C0.434343 13.6762 -0.209507 12.6097 0.257798 11.7219L5.82022 1.15326ZM12.5625 12.3429L7.00011 1.77425L1.43769 12.3429L12.5625 12.3429Z" fill="#FFB54D"/>
</svg>
