<svg width="69" height="40" viewBox="0 0 69 40" fill="none" xmlns="http://www.w3.org/2000/svg">
<rect y="12" width="69" height="23" rx="11.5" fill="#242424"/>
<path d="M14.328 28L12.186 24.066H11.374V28H9.022V18.088H12.802C13.278 18.088 13.74 18.1393 14.188 18.242C14.6453 18.3353 15.0513 18.4987 15.406 18.732C15.77 18.9653 16.0593 19.2733 16.274 19.656C16.4887 20.0387 16.596 20.5147 16.596 21.084C16.596 21.756 16.414 22.3207 16.05 22.778C15.686 23.2353 15.182 23.562 14.538 23.758L17.128 28H14.328ZM14.23 21.126C14.23 20.8927 14.1787 20.706 14.076 20.566C13.9827 20.4167 13.8567 20.3047 13.698 20.23C13.5487 20.146 13.376 20.09 13.18 20.062C12.9933 20.034 12.8113 20.02 12.634 20.02H11.36V22.33H12.494C12.69 22.33 12.8907 22.316 13.096 22.288C13.3013 22.2507 13.488 22.19 13.656 22.106C13.824 22.022 13.9593 21.9007 14.062 21.742C14.174 21.5833 14.23 21.378 14.23 21.126ZM22.6616 23.716C22.6616 23.352 22.5449 23.0393 22.3116 22.778C22.0876 22.5167 21.7469 22.386 21.2896 22.386C21.0656 22.386 20.8603 22.4233 20.6736 22.498C20.4869 22.5633 20.3236 22.6567 20.1836 22.778C20.0436 22.8993 19.9316 23.044 19.8476 23.212C19.7636 23.3707 19.7169 23.5387 19.7076 23.716H22.6616ZM24.7756 24.598C24.7756 24.6913 24.7756 24.7847 24.7756 24.878C24.7756 24.9713 24.7709 25.06 24.7616 25.144H19.7076C19.7263 25.34 19.7823 25.5173 19.8756 25.676C19.9783 25.8347 20.1043 25.9747 20.2536 26.096C20.4123 26.208 20.5849 26.2967 20.7716 26.362C20.9676 26.4273 21.1683 26.46 21.3736 26.46C21.7376 26.46 22.0456 26.3947 22.2976 26.264C22.5496 26.124 22.7549 25.9467 22.9136 25.732L24.5096 26.74C24.1829 27.216 23.7489 27.5847 23.2076 27.846C22.6756 28.098 22.0549 28.224 21.3456 28.224C20.8229 28.224 20.3283 28.1447 19.8616 27.986C19.3949 27.818 18.9843 27.58 18.6296 27.272C18.2843 26.9547 18.0089 26.5673 17.8036 26.11C17.6076 25.6527 17.5096 25.13 17.5096 24.542C17.5096 23.9727 17.6076 23.4593 17.8036 23.002C17.9996 22.5353 18.2656 22.1433 18.6016 21.826C18.9376 21.4993 19.3343 21.2473 19.7916 21.07C20.2489 20.8927 20.7436 20.804 21.2756 20.804C21.7889 20.804 22.2603 20.8927 22.6896 21.07C23.1189 21.238 23.4876 21.4853 23.7956 21.812C24.1036 22.1387 24.3416 22.5353 24.5096 23.002C24.6869 23.4687 24.7756 24.0007 24.7756 24.598ZM33.7999 24.486C33.7999 24.9713 33.7252 25.438 33.5759 25.886C33.4265 26.334 33.2072 26.7307 32.9179 27.076C32.6379 27.412 32.2925 27.6827 31.8819 27.888C31.4712 28.0933 31.0045 28.196 30.4819 28.196C30.0525 28.196 29.6465 28.112 29.2639 27.944C28.8812 27.7667 28.5825 27.5287 28.3679 27.23H28.3399V31.36H26.0439V21.028H28.2279V21.882H28.2699C28.4845 21.602 28.7785 21.3593 29.1519 21.154C29.5345 20.9393 29.9825 20.832 30.4959 20.832C30.9999 20.832 31.4572 20.93 31.8679 21.126C32.2785 21.322 32.6239 21.588 32.9039 21.924C33.1932 22.26 33.4125 22.652 33.5619 23.1C33.7205 23.5387 33.7999 24.0007 33.7999 24.486ZM31.5739 24.486C31.5739 24.262 31.5365 24.0427 31.4619 23.828C31.3965 23.6133 31.2939 23.4267 31.1539 23.268C31.0232 23.1 30.8552 22.9647 30.6499 22.862C30.4445 22.7593 30.2065 22.708 29.9359 22.708C29.6745 22.708 29.4412 22.7593 29.2359 22.862C29.0305 22.9647 28.8532 23.1 28.7039 23.268C28.5639 23.436 28.4519 23.6273 28.3679 23.842C28.2932 24.0567 28.2559 24.276 28.2559 24.5C28.2559 24.724 28.2932 24.9433 28.3679 25.158C28.4519 25.3727 28.5639 25.564 28.7039 25.732C28.8532 25.9 29.0305 26.0353 29.2359 26.138C29.4412 26.2407 29.6745 26.292 29.9359 26.292C30.2065 26.292 30.4445 26.2407 30.6499 26.138C30.8552 26.0353 31.0232 25.9 31.1539 25.732C31.2939 25.564 31.3965 25.3727 31.4619 25.158C31.5365 24.934 31.5739 24.71 31.5739 24.486ZM35.1175 28V17.416H37.4415V28H35.1175ZM43.2199 24.962H42.9259C42.6739 24.962 42.4172 24.976 42.1559 25.004C41.9039 25.0227 41.6752 25.0647 41.4699 25.13C41.2739 25.1953 41.1105 25.2933 40.9799 25.424C40.8492 25.5453 40.7839 25.7087 40.7839 25.914C40.7839 26.0447 40.8119 26.1567 40.8679 26.25C40.9332 26.3433 41.0125 26.418 41.1059 26.474C41.1992 26.53 41.3065 26.572 41.4279 26.6C41.5492 26.6187 41.6659 26.628 41.7779 26.628C42.2445 26.628 42.5992 26.502 42.8419 26.25C43.0939 25.9887 43.2199 25.6387 43.2199 25.2V24.962ZM39.0059 21.98C39.4165 21.588 39.8925 21.294 40.4339 21.098C40.9845 20.902 41.5445 20.804 42.1139 20.804C42.7019 20.804 43.1965 20.8787 43.5979 21.028C44.0085 21.168 44.3399 21.392 44.5919 21.7C44.8439 21.9987 45.0259 22.3813 45.1379 22.848C45.2592 23.3053 45.3199 23.8513 45.3199 24.486V28H43.2199V27.258H43.1779C43.0005 27.5473 42.7299 27.7713 42.3659 27.93C42.0112 28.0887 41.6239 28.168 41.2039 28.168C40.9239 28.168 40.6345 28.1307 40.3359 28.056C40.0372 27.9813 39.7619 27.86 39.5099 27.692C39.2672 27.524 39.0665 27.3 38.9079 27.02C38.7492 26.74 38.6699 26.3947 38.6699 25.984C38.6699 25.48 38.8052 25.074 39.0759 24.766C39.3559 24.458 39.7105 24.22 40.1399 24.052C40.5785 23.884 41.0639 23.772 41.5959 23.716C42.1279 23.66 42.6459 23.632 43.1499 23.632V23.52C43.1499 23.1747 43.0285 22.9227 42.7859 22.764C42.5432 22.596 42.2445 22.512 41.8899 22.512C41.5632 22.512 41.2459 22.582 40.9379 22.722C40.6392 22.862 40.3825 23.03 40.1679 23.226L39.0059 21.98ZM51.68 23.282C51.5493 23.114 51.372 22.9787 51.148 22.876C50.924 22.7733 50.6953 22.722 50.462 22.722C50.2193 22.722 50 22.7733 49.804 22.876C49.608 22.9693 49.44 23.1 49.3 23.268C49.16 23.4267 49.048 23.6133 48.964 23.828C48.8893 24.0427 48.852 24.2713 48.852 24.514C48.852 24.7567 48.8893 24.9853 48.964 25.2C49.0387 25.4147 49.146 25.606 49.286 25.774C49.4353 25.9327 49.608 26.0587 49.804 26.152C50.0093 26.2453 50.238 26.292 50.49 26.292C50.7233 26.292 50.952 26.25 51.176 26.166C51.4093 26.0727 51.596 25.942 51.736 25.774L53.01 27.328C52.7207 27.608 52.3473 27.8273 51.89 27.986C51.4327 28.1447 50.9473 28.224 50.434 28.224C49.8833 28.224 49.37 28.14 48.894 27.972C48.418 27.804 48.0027 27.5613 47.648 27.244C47.3027 26.9173 47.0273 26.5253 46.822 26.068C46.626 25.6107 46.528 25.0927 46.528 24.514C46.528 23.9447 46.626 23.4313 46.822 22.974C47.0273 22.5167 47.3027 22.1293 47.648 21.812C48.0027 21.4853 48.418 21.238 48.894 21.07C49.37 20.8927 49.8787 20.804 50.42 20.804C50.672 20.804 50.9193 20.8273 51.162 20.874C51.414 20.9207 51.652 20.986 51.876 21.07C52.1093 21.1447 52.3193 21.2427 52.506 21.364C52.702 21.476 52.87 21.602 53.01 21.742L51.68 23.282ZM58.5654 23.716C58.5654 23.352 58.4488 23.0393 58.2154 22.778C57.9914 22.5167 57.6508 22.386 57.1934 22.386C56.9694 22.386 56.7641 22.4233 56.5774 22.498C56.3908 22.5633 56.2274 22.6567 56.0874 22.778C55.9474 22.8993 55.8354 23.044 55.7514 23.212C55.6674 23.3707 55.6208 23.5387 55.6114 23.716H58.5654ZM60.6794 24.598C60.6794 24.6913 60.6794 24.7847 60.6794 24.878C60.6794 24.9713 60.6748 25.06 60.6654 25.144H55.6114C55.6301 25.34 55.6861 25.5173 55.7794 25.676C55.8821 25.8347 56.0081 25.9747 56.1574 26.096C56.3161 26.208 56.4888 26.2967 56.6754 26.362C56.8714 26.4273 57.0721 26.46 57.2774 26.46C57.6414 26.46 57.9494 26.3947 58.2014 26.264C58.4534 26.124 58.6588 25.9467 58.8174 25.732L60.4134 26.74C60.0868 27.216 59.6528 27.5847 59.1114 27.846C58.5794 28.098 57.9588 28.224 57.2494 28.224C56.7268 28.224 56.2321 28.1447 55.7654 27.986C55.2988 27.818 54.8881 27.58 54.5334 27.272C54.1881 26.9547 53.9128 26.5673 53.7074 26.11C53.5114 25.6527 53.4134 25.13 53.4134 24.542C53.4134 23.9727 53.5114 23.4593 53.7074 23.002C53.9034 22.5353 54.1694 22.1433 54.5054 21.826C54.8414 21.4993 55.2381 21.2473 55.6954 21.07C56.1528 20.8927 56.6474 20.804 57.1794 20.804C57.6928 20.804 58.1641 20.8927 58.5934 21.07C59.0228 21.238 59.3914 21.4853 59.6994 21.812C60.0074 22.1387 60.2454 22.5353 60.4134 23.002C60.5908 23.4687 60.6794 24.0007 60.6794 24.598Z" fill="white"/>
</svg>
