<svg width="18" height="26" viewBox="0 0 18 26" fill="none" xmlns="http://www.w3.org/2000/svg">
<path fill-rule="evenodd" clip-rule="evenodd" d="M8.61216 13.0222C6.22616 13.0222 4.28516 11.0812 4.28516 8.69419C4.28516 6.30819 6.22616 4.36719 8.61216 4.36719C10.9982 4.36719 12.9392 6.30819 12.9392 8.69419C12.9392 11.0812 10.9982 13.0222 8.61216 13.0222ZM8.61216 3.36719C5.67416 3.36719 3.28516 5.75619 3.28516 8.69419C3.28516 11.6312 5.67416 14.0222 8.61216 14.0222C11.5502 14.0222 13.9392 11.6312 13.9392 8.69419C13.9392 5.75619 11.5502 3.36719 8.61216 3.36719Z" fill="#FEFEFE"/>
<mask id="mask0_0:3291" style="mask-type:alpha" maskUnits="userSpaceOnUse" x="0" y="0" width="18" height="26">
<path fill-rule="evenodd" clip-rule="evenodd" d="M0 0H17.2256V25.5797H0V0Z" fill="white"/>
</mask>
<g mask="url(#mask0_0:3291)">
<path fill-rule="evenodd" clip-rule="evenodd" d="M16.1128 8.34176C15.7398 8.98476 15.6098 10.0488 15.8188 10.7658C15.9278 11.1418 15.7338 11.6548 15.4018 11.8638C14.7718 12.2608 14.1628 13.1428 14.0148 13.8728C13.9378 14.2568 13.5268 14.6208 13.1358 14.6528C12.3948 14.7098 11.4448 15.2078 10.9728 15.7858C10.7308 16.0858 10.1868 16.2198 9.83381 16.0678C9.14781 15.7748 8.07681 15.7748 7.39281 16.0678C7.03081 16.2238 6.49781 16.0908 6.25081 15.7858C5.78081 15.2078 4.83181 14.7098 4.08981 14.6528C3.69881 14.6208 3.28781 14.2568 3.21081 13.8718C3.06181 13.1418 2.45281 12.2598 1.82381 11.8638C1.49081 11.6548 1.29681 11.1418 1.40581 10.7658C1.61481 10.0508 1.48581 8.98676 1.11281 8.34176C0.915814 8.00276 0.981814 7.45676 1.25481 7.17476C1.77081 6.63776 2.15081 5.63476 2.11981 4.89376C2.10281 4.50076 2.41481 4.04876 2.78681 3.92576C3.49381 3.69076 4.29681 2.98076 4.61481 2.30676C4.76381 1.98876 5.17081 1.75076 5.53181 1.75076C5.57281 1.75076 5.61481 1.75376 5.65481 1.76076C6.38881 1.88176 7.43081 1.62376 8.02481 1.17676L8.02581 1.17576C8.33781 0.942762 8.88481 0.939762 9.20081 1.17676C9.79481 1.62476 10.8378 1.88376 11.5698 1.76076C11.9548 1.69476 12.4438 1.95176 12.6108 2.30776C12.9288 2.97976 13.7308 3.69076 14.4378 3.92576C14.8108 4.04876 15.1228 4.50076 15.1048 4.89376C15.0748 5.63776 15.4548 6.63976 15.9708 7.17476C16.2438 7.45676 16.3098 8.00276 16.1128 8.34176ZM8.61281 21.0878L4.31881 23.7758V15.7148C4.74881 15.8378 5.23281 16.1188 5.47481 16.4168C6.00181 17.0648 7.01481 17.3158 7.78681 16.9878C8.22581 16.7978 8.99981 16.7978 9.43881 16.9878C9.66881 17.0848 9.91981 17.1318 10.1738 17.1318C10.7698 17.1318 11.3808 16.8728 11.7498 16.4168C11.9918 16.1188 12.4768 15.8378 12.9068 15.7148V23.7758L8.61281 21.0878ZM16.6918 6.48176C16.3588 6.13676 16.0848 5.41376 16.1048 4.93576C16.1398 4.09976 15.5468 3.23876 14.7538 2.97676C14.2988 2.82476 13.7188 2.31276 13.5148 1.88076C13.1598 1.12476 12.2318 0.635762 11.4078 0.774762C10.9338 0.848762 10.1858 0.667762 9.80181 0.377762C9.13381 -0.127238 8.08981 -0.126238 7.42281 0.378762C7.04081 0.666762 6.29181 0.849762 5.81681 0.774762C4.99481 0.636762 4.06581 1.12476 3.71081 1.87976C3.50681 2.31376 2.92681 2.82476 2.47181 2.97676C1.67881 3.23876 1.08581 4.09976 1.11981 4.93576C1.14081 5.41276 0.866814 6.13576 0.533814 6.48176C-0.0461856 7.08276 -0.172186 8.11976 0.247814 8.84376C0.487814 9.25776 0.580814 10.0258 0.446814 10.4848C0.211814 11.2868 0.582814 12.2648 1.29081 12.7098C1.69581 12.9648 2.13381 13.6008 2.22981 14.0708C2.34781 14.6538 2.77981 15.1688 3.31881 15.4438V25.5798L8.61281 22.2678L13.9068 25.5798V15.4438C14.4458 15.1688 14.8778 14.6538 14.9958 14.0708C15.0908 13.6018 15.5288 12.9658 15.9348 12.7098C16.6418 12.2658 17.0128 11.2868 16.7788 10.4858C16.6438 10.0248 16.7378 9.25676 16.9778 8.84376C17.3978 8.11976 17.2718 7.08276 16.6918 6.48176Z" fill="#FEFEFE"/>
</g>
</svg>
