<?xml version="1.0" encoding="UTF-8" standalone="no"?>
<svg
   xmlns:dc="http://purl.org/dc/elements/1.1/"
   xmlns:cc="http://creativecommons.org/ns#"
   xmlns:rdf="http://www.w3.org/1999/02/22-rdf-syntax-ns#"
   xmlns:svg="http://www.w3.org/2000/svg"
   xmlns="http://www.w3.org/2000/svg"
   xmlns:sodipodi="http://sodipodi.sourceforge.net/DTD/sodipodi-0.dtd"
   xmlns:inkscape="http://www.inkscape.org/namespaces/inkscape"
   inkscape:version="1.0 (4035a4fb49, 2020-05-01)"
   height="18"
   width="18"
   sodipodi:docname="footerwave.svg"
   id="svg4"
   version="1.1"
   class="svg-inline--fa fa-check-circle fa-w-16 fa-3x"
   viewBox="0 0 18 18"
   role="img"
   data-icon="check-circle"
   data-prefix="far"
   focusable="false"
   aria-hidden="true">
  <metadata
     id="metadata10">
    <rdf:RDF>
      <cc:Work
         rdf:about="">
        <dc:format>image/svg+xml</dc:format>
        <dc:type
           rdf:resource="http://purl.org/dc/dcmitype/StillImage" />
        <dc:title></dc:title>
      </cc:Work>
    </rdf:RDF>
  </metadata>
  <defs
     id="defs8" />
  <sodipodi:namedview
     inkscape:current-layer="svg4"
     inkscape:window-maximized="1"
     inkscape:window-y="-8"
     inkscape:window-x="-8"
     inkscape:cy="17.351484"
     inkscape:cx="43.380931"
     inkscape:zoom="5.0160387"
     showgrid="false"
     id="namedview6"
     inkscape:window-height="706"
     inkscape:window-width="1366"
     inkscape:pageshadow="2"
     inkscape:pageopacity="0"
     guidetolerance="10"
     gridtolerance="10"
     objecttolerance="10"
     borderopacity="1"
     bordercolor="#666666"
     pagecolor="#ffffff" />
  <path
     style="fill:#3eb94a;fill-opacity:1;stroke-width:1"
     id="path2"
     class=""
     d="m 9.0255799,0.0255799 c -4.9705765,0 -9,4.0294235 -9,9 0,4.9705761 4.0294235,9.0000001 9,9.0000001 4.9705761,0 9.0000001,-4.029424 9.0000001,-9.0000001 0,-4.9705765 -4.029424,-9 -9.0000001,-9 z m 0,1.7419355 c 4.0112421,0 7.2580641,3.2462054 7.2580641,7.2580645 0,4.0112421 -3.246205,7.2580641 -7.2580641,7.2580641 -4.0112421,0 -7.2580645,-3.246205 -7.2580645,-7.2580641 0,-4.0112421 3.2462054,-7.2580645 7.2580645,-7.2580645 m 5.0880491,4.7274318 -0.81784,-0.8244439 c -0.169367,-0.1707459 -0.4451,-0.1718712 -0.615846,-0.00245 L 7.5502331,10.756539 5.380362,8.5690669 C 5.210995,8.398321 4.9352616,8.3971964 4.7645151,8.5665469 L 3.9400353,9.3843854 C 3.7692894,9.5537525 3.7681648,9.8294858 3.9375873,10.000268 l 3.2944721,3.321146 c 0.169367,0.170745 0.4451003,0.171871 0.6158462,0.0024 L 14.111217,7.1108135 c 0.170709,-0.169403 0.171797,-0.445137 0.0024,-0.6158829 z"
     fill="currentColor" />
</svg>
