<svg width="19" height="19" viewBox="0 0 19 19" fill="none" xmlns="http://www.w3.org/2000/svg">
<path fill-rule="evenodd" clip-rule="evenodd" d="M12.1124 11.8293C9.39788 11.8293 7.18914 9.61715 7.18914 6.89839C7.18914 4.17931 9.39788 1.96712 12.1124 1.96712C14.8269 1.96712 17.0356 4.17931 17.0356 6.89839C17.0356 9.61715 14.8269 11.8293 12.1124 11.8293M12.1124 0C8.31485 0 5.22479 3.09459 5.22479 6.89839C5.22479 8.21393 5.59508 9.44427 6.23573 10.4915L0.466108 16.2702C-0.155369 16.8926 -0.155369 17.911 0.466108 18.5332C1.08697 19.1556 2.10379 19.1556 2.72527 18.5332L8.4884 12.761C9.54203 13.4166 10.7834 13.7965 12.1124 13.7965C15.9099 13.7965 19 10.7019 19 6.89839C19 3.09459 15.9099 0 12.1124 0" fill="white"/>
</svg>
