<svg width="333" height="48" viewBox="0 0 333 48" fill="none" xmlns="http://www.w3.org/2000/svg">
<rect y="7" width="333" height="35" rx="17.5" fill="#00B0C7"/>
<path d="M21.046 20.568C20.782 20.232 20.434 19.968 20.002 19.776C19.582 19.572 19.174 19.47 18.778 19.47C18.574 19.47 18.364 19.488 18.148 19.524C17.944 19.56 17.758 19.632 17.59 19.74C17.422 19.836 17.278 19.968 17.158 20.136C17.05 20.292 16.996 20.496 16.996 20.748C16.996 20.964 17.038 21.144 17.122 21.288C17.218 21.432 17.35 21.558 17.518 21.666C17.698 21.774 17.908 21.876 18.148 21.972C18.388 22.056 18.658 22.146 18.958 22.242C19.39 22.386 19.84 22.548 20.308 22.728C20.776 22.896 21.202 23.124 21.586 23.412C21.97 23.7 22.288 24.06 22.54 24.492C22.792 24.912 22.918 25.44 22.918 26.076C22.918 26.808 22.78 27.444 22.504 27.984C22.24 28.512 21.88 28.95 21.424 29.298C20.968 29.646 20.446 29.904 19.858 30.072C19.27 30.24 18.664 30.324 18.04 30.324C17.128 30.324 16.246 30.168 15.394 29.856C14.542 29.532 13.834 29.076 13.27 28.488L15.286 26.436C15.598 26.82 16.006 27.144 16.51 27.408C17.026 27.66 17.536 27.786 18.04 27.786C18.268 27.786 18.49 27.762 18.706 27.714C18.922 27.666 19.108 27.588 19.264 27.48C19.432 27.372 19.564 27.228 19.66 27.048C19.756 26.868 19.804 26.652 19.804 26.4C19.804 26.16 19.744 25.956 19.624 25.788C19.504 25.62 19.33 25.47 19.102 25.338C18.886 25.194 18.61 25.068 18.274 24.96C17.95 24.84 17.578 24.714 17.158 24.582C16.75 24.45 16.348 24.294 15.952 24.114C15.568 23.934 15.22 23.706 14.908 23.43C14.608 23.142 14.362 22.8 14.17 22.404C13.99 21.996 13.9 21.504 13.9 20.928C13.9 20.22 14.044 19.614 14.332 19.11C14.62 18.606 14.998 18.192 15.466 17.868C15.934 17.544 16.462 17.31 17.05 17.166C17.638 17.01 18.232 16.932 18.832 16.932C19.552 16.932 20.284 17.064 21.028 17.328C21.784 17.592 22.444 17.982 23.008 18.498L21.046 20.568ZM30.7608 24.492C30.7608 24.024 30.6108 23.622 30.3108 23.286C30.0228 22.95 29.5848 22.782 28.9968 22.782C28.7088 22.782 28.4448 22.83 28.2048 22.926C27.9648 23.01 27.7548 23.13 27.5748 23.286C27.3948 23.442 27.2508 23.628 27.1428 23.844C27.0348 24.048 26.9748 24.264 26.9628 24.492H30.7608ZM33.4788 25.626C33.4788 25.746 33.4788 25.866 33.4788 25.986C33.4788 26.106 33.4728 26.22 33.4608 26.328H26.9628C26.9868 26.58 27.0588 26.808 27.1788 27.012C27.3108 27.216 27.4728 27.396 27.6648 27.552C27.8688 27.696 28.0908 27.81 28.3308 27.894C28.5828 27.978 28.8408 28.02 29.1048 28.02C29.5728 28.02 29.9688 27.936 30.2928 27.768C30.6168 27.588 30.8808 27.36 31.0848 27.084L33.1368 28.38C32.7168 28.992 32.1588 29.466 31.4628 29.802C30.7788 30.126 29.9808 30.288 29.0688 30.288C28.3968 30.288 27.7608 30.186 27.1608 29.982C26.5608 29.766 26.0328 29.46 25.5768 29.064C25.1328 28.656 24.7788 28.158 24.5148 27.57C24.2628 26.982 24.1368 26.31 24.1368 25.554C24.1368 24.822 24.2628 24.162 24.5148 23.574C24.7668 22.974 25.1088 22.47 25.5408 22.062C25.9728 21.642 26.4828 21.318 27.0708 21.09C27.6588 20.862 28.2948 20.748 28.9788 20.748C29.6388 20.748 30.2448 20.862 30.7968 21.09C31.3488 21.306 31.8228 21.624 32.2188 22.044C32.6148 22.464 32.9208 22.974 33.1368 23.574C33.3648 24.174 33.4788 24.858 33.4788 25.626ZM40.9954 30V25.104C40.9954 24.852 40.9714 24.612 40.9234 24.384C40.8874 24.156 40.8214 23.958 40.7254 23.79C40.6294 23.61 40.4914 23.472 40.3114 23.376C40.1434 23.268 39.9274 23.214 39.6634 23.214C39.3994 23.214 39.1654 23.268 38.9614 23.376C38.7694 23.472 38.6074 23.61 38.4754 23.79C38.3434 23.97 38.2414 24.18 38.1694 24.42C38.1094 24.648 38.0794 24.888 38.0794 25.14V30H35.1094V21.036H37.9714V22.278H38.0074C38.1154 22.086 38.2534 21.9 38.4214 21.72C38.6014 21.528 38.8054 21.366 39.0334 21.234C39.2734 21.102 39.5314 20.994 39.8074 20.91C40.0834 20.826 40.3774 20.784 40.6894 20.784C41.2894 20.784 41.7994 20.892 42.2194 21.108C42.6394 21.324 42.9754 21.606 43.2274 21.954C43.4914 22.29 43.6774 22.68 43.7854 23.124C43.9054 23.568 43.9654 24.012 43.9654 24.456V30H40.9954ZM52.7872 30V28.83H52.7512C52.4632 29.286 52.0492 29.64 51.5092 29.892C50.9812 30.132 50.4172 30.252 49.8172 30.252C49.1452 30.252 48.5452 30.12 48.0172 29.856C47.4892 29.592 47.0392 29.244 46.6672 28.812C46.3072 28.368 46.0312 27.858 45.8392 27.282C45.6472 26.706 45.5512 26.106 45.5512 25.482C45.5512 24.858 45.6472 24.264 45.8392 23.7C46.0432 23.124 46.3252 22.62 46.6852 22.188C47.0572 21.756 47.5012 21.414 48.0172 21.162C48.5452 20.91 49.1332 20.784 49.7812 20.784C50.4412 20.784 50.9992 20.91 51.4552 21.162C51.9112 21.414 52.2652 21.69 52.5172 21.99H52.5532V16.392H55.5052V30H52.7872ZM52.6792 25.5C52.6792 25.212 52.6252 24.93 52.5172 24.654C52.4212 24.378 52.2772 24.132 52.0852 23.916C51.9052 23.7 51.6832 23.526 51.4192 23.394C51.1552 23.262 50.8552 23.196 50.5192 23.196C50.1712 23.196 49.8652 23.262 49.6012 23.394C49.3372 23.526 49.1152 23.7 48.9352 23.916C48.7552 24.12 48.6172 24.36 48.5212 24.636C48.4372 24.912 48.3952 25.194 48.3952 25.482C48.3952 25.77 48.4372 26.058 48.5212 26.346C48.6172 26.622 48.7552 26.868 48.9352 27.084C49.1152 27.3 49.3372 27.474 49.6012 27.606C49.8652 27.738 50.1712 27.804 50.5192 27.804C50.8552 27.804 51.1552 27.738 51.4192 27.606C51.6832 27.474 51.9052 27.3 52.0852 27.084C52.2772 26.868 52.4212 26.622 52.5172 26.346C52.6252 26.07 52.6792 25.788 52.6792 25.5ZM71.7949 18.174C71.7949 18.402 71.7469 18.618 71.6509 18.822C71.5669 19.014 71.4469 19.182 71.2909 19.326C71.1349 19.47 70.9549 19.584 70.7509 19.668C70.5469 19.752 70.3309 19.794 70.1029 19.794C69.6229 19.794 69.2209 19.638 68.8969 19.326C68.5729 19.002 68.4109 18.618 68.4109 18.174C68.4109 17.958 68.4529 17.754 68.5369 17.562C68.6209 17.358 68.7409 17.184 68.8969 17.04C69.0529 16.896 69.2329 16.782 69.4369 16.698C69.6409 16.602 69.8629 16.554 70.1029 16.554C70.3309 16.554 70.5469 16.596 70.7509 16.68C70.9549 16.764 71.1349 16.878 71.2909 17.022C71.4469 17.166 71.5669 17.34 71.6509 17.544C71.7469 17.736 71.7949 17.946 71.7949 18.174ZM68.6089 30V21.036H71.5789V30H68.6089ZM67.5109 18.57C67.4029 18.534 67.2769 18.504 67.1329 18.48C66.9889 18.456 66.8449 18.444 66.7009 18.444C66.4249 18.444 66.2029 18.492 66.0349 18.588C65.8669 18.684 65.7349 18.816 65.6389 18.984C65.5429 19.14 65.4769 19.32 65.4409 19.524C65.4049 19.728 65.3869 19.932 65.3869 20.136V21.036H67.3849V23.25H65.3869V30H62.4349V23.25H60.7969V21.036H62.4349V20.172C62.4349 19.62 62.4949 19.098 62.6149 18.606C62.7349 18.102 62.9389 17.664 63.2269 17.292C63.5269 16.908 63.9229 16.608 64.4149 16.392C64.9189 16.164 65.5429 16.05 66.2869 16.05C66.5389 16.05 66.7849 16.068 67.0249 16.104C67.2769 16.128 67.5049 16.17 67.7089 16.23L67.5109 18.57ZM79.6056 30V25.104C79.6056 24.852 79.5816 24.612 79.5336 24.384C79.4976 24.156 79.4316 23.958 79.3356 23.79C79.2396 23.61 79.1016 23.472 78.9216 23.376C78.7536 23.268 78.5376 23.214 78.2736 23.214C78.0096 23.214 77.7756 23.268 77.5716 23.376C77.3796 23.472 77.2176 23.61 77.0856 23.79C76.9536 23.97 76.8516 24.18 76.7796 24.42C76.7196 24.648 76.6896 24.888 76.6896 25.14V30H73.7196V21.036H76.5816V22.278H76.6176C76.7256 22.086 76.8636 21.9 77.0316 21.72C77.2116 21.528 77.4156 21.366 77.6436 21.234C77.8836 21.102 78.1416 20.994 78.4176 20.91C78.6936 20.826 78.9876 20.784 79.2996 20.784C79.8996 20.784 80.4096 20.892 80.8296 21.108C81.2496 21.324 81.5856 21.606 81.8376 21.954C82.1016 22.29 82.2876 22.68 82.3956 23.124C82.5156 23.568 82.5756 24.012 82.5756 24.456V30H79.6056ZM89.9034 26.094H89.5254C89.2014 26.094 88.8714 26.112 88.5354 26.148C88.2114 26.172 87.9174 26.226 87.6534 26.31C87.4014 26.394 87.1914 26.52 87.0234 26.688C86.8554 26.844 86.7714 27.054 86.7714 27.318C86.7714 27.486 86.8074 27.63 86.8794 27.75C86.9634 27.87 87.0654 27.966 87.1854 28.038C87.3054 28.11 87.4434 28.164 87.5994 28.2C87.7554 28.224 87.9054 28.236 88.0494 28.236C88.6494 28.236 89.1054 28.074 89.4174 27.75C89.7414 27.414 89.9034 26.964 89.9034 26.4V26.094ZM84.4854 22.26C85.0134 21.756 85.6254 21.378 86.3214 21.126C87.0294 20.874 87.7494 20.748 88.4814 20.748C89.2374 20.748 89.8734 20.844 90.3894 21.036C90.9174 21.216 91.3434 21.504 91.6674 21.9C91.9914 22.284 92.2254 22.776 92.3694 23.376C92.5254 23.964 92.6034 24.666 92.6034 25.482V30H89.9034V29.046H89.8494C89.6214 29.418 89.2734 29.706 88.8054 29.91C88.3494 30.114 87.8514 30.216 87.3114 30.216C86.9514 30.216 86.5794 30.168 86.1954 30.072C85.8114 29.976 85.4574 29.82 85.1334 29.604C84.8214 29.388 84.5634 29.1 84.3594 28.74C84.1554 28.38 84.0534 27.936 84.0534 27.408C84.0534 26.76 84.2274 26.238 84.5754 25.842C84.9354 25.446 85.3914 25.14 85.9434 24.924C86.5074 24.708 87.1314 24.564 87.8154 24.492C88.4994 24.42 89.1654 24.384 89.8134 24.384V24.24C89.8134 23.796 89.6574 23.472 89.3454 23.268C89.0334 23.052 88.6494 22.944 88.1934 22.944C87.7734 22.944 87.3654 23.034 86.9694 23.214C86.5854 23.394 86.2554 23.61 85.9794 23.862L84.4854 22.26ZM100.493 30V25.104C100.493 24.852 100.469 24.612 100.421 24.384C100.385 24.156 100.319 23.958 100.223 23.79C100.127 23.61 99.9887 23.472 99.8087 23.376C99.6407 23.268 99.4247 23.214 99.1607 23.214C98.8967 23.214 98.6627 23.268 98.4587 23.376C98.2667 23.472 98.1047 23.61 97.9727 23.79C97.8407 23.97 97.7387 24.18 97.6667 24.42C97.6067 24.648 97.5767 24.888 97.5767 25.14V30H94.6067V21.036H97.4687V22.278H97.5047C97.6127 22.086 97.7507 21.9 97.9187 21.72C98.0987 21.528 98.3027 21.366 98.5307 21.234C98.7707 21.102 99.0287 20.994 99.3047 20.91C99.5807 20.826 99.8747 20.784 100.187 20.784C100.787 20.784 101.297 20.892 101.717 21.108C102.137 21.324 102.473 21.606 102.725 21.954C102.989 22.29 103.175 22.68 103.283 23.124C103.403 23.568 103.463 24.012 103.463 24.456V30H100.493ZM111.672 23.934C111.504 23.718 111.276 23.544 110.988 23.412C110.7 23.28 110.406 23.214 110.106 23.214C109.794 23.214 109.512 23.28 109.26 23.412C109.008 23.532 108.792 23.7 108.612 23.916C108.432 24.12 108.288 24.36 108.18 24.636C108.084 24.912 108.036 25.206 108.036 25.518C108.036 25.83 108.084 26.124 108.18 26.4C108.276 26.676 108.414 26.922 108.594 27.138C108.786 27.342 109.008 27.504 109.26 27.624C109.524 27.744 109.818 27.804 110.142 27.804C110.442 27.804 110.736 27.75 111.024 27.642C111.324 27.522 111.564 27.354 111.744 27.138L113.382 29.136C113.01 29.496 112.53 29.778 111.942 29.982C111.354 30.186 110.73 30.288 110.07 30.288C109.362 30.288 108.702 30.18 108.09 29.964C107.478 29.748 106.944 29.436 106.488 29.028C106.044 28.608 105.69 28.104 105.426 27.516C105.174 26.928 105.048 26.262 105.048 25.518C105.048 24.786 105.174 24.126 105.426 23.538C105.69 22.95 106.044 22.452 106.488 22.044C106.944 21.624 107.478 21.306 108.09 21.09C108.702 20.862 109.356 20.748 110.052 20.748C110.376 20.748 110.694 20.778 111.006 20.838C111.33 20.898 111.636 20.982 111.924 21.09C112.224 21.186 112.494 21.312 112.734 21.468C112.986 21.612 113.202 21.774 113.382 21.954L111.672 23.934ZM117.555 18.174C117.555 18.402 117.507 18.618 117.411 18.822C117.327 19.014 117.207 19.182 117.051 19.326C116.907 19.47 116.727 19.584 116.511 19.668C116.307 19.752 116.091 19.794 115.863 19.794C115.383 19.794 114.981 19.638 114.657 19.326C114.333 19.002 114.171 18.618 114.171 18.174C114.171 17.958 114.213 17.754 114.297 17.562C114.381 17.358 114.501 17.184 114.657 17.04C114.813 16.896 114.993 16.782 115.197 16.698C115.401 16.602 115.623 16.554 115.863 16.554C116.091 16.554 116.307 16.596 116.511 16.68C116.727 16.764 116.907 16.878 117.051 17.022C117.207 17.166 117.327 17.34 117.411 17.544C117.507 17.736 117.555 17.946 117.555 18.174ZM114.387 30V21.036H117.339V30H114.387ZM125.363 30V25.104C125.363 24.852 125.339 24.612 125.291 24.384C125.255 24.156 125.189 23.958 125.093 23.79C124.997 23.61 124.859 23.472 124.679 23.376C124.511 23.268 124.295 23.214 124.031 23.214C123.767 23.214 123.533 23.268 123.329 23.376C123.137 23.472 122.975 23.61 122.843 23.79C122.711 23.97 122.609 24.18 122.537 24.42C122.477 24.648 122.447 24.888 122.447 25.14V30H119.477V21.036H122.339V22.278H122.375C122.483 22.086 122.621 21.9 122.789 21.72C122.969 21.528 123.173 21.366 123.401 21.234C123.641 21.102 123.899 20.994 124.175 20.91C124.451 20.826 124.745 20.784 125.057 20.784C125.657 20.784 126.167 20.892 126.587 21.108C127.007 21.324 127.343 21.606 127.595 21.954C127.859 22.29 128.045 22.68 128.153 23.124C128.273 23.568 128.333 24.012 128.333 24.456V30H125.363ZM139.873 29.154C139.873 30.03 139.747 30.792 139.495 31.44C139.243 32.088 138.889 32.622 138.433 33.042C137.977 33.474 137.419 33.792 136.759 33.996C136.111 34.212 135.391 34.32 134.599 34.32C133.807 34.32 132.991 34.2 132.151 33.96C131.323 33.72 130.603 33.372 129.991 32.916L131.467 30.81C131.899 31.194 132.373 31.476 132.889 31.656C133.417 31.848 133.933 31.944 134.437 31.944C135.301 31.944 135.937 31.716 136.345 31.26C136.765 30.804 136.975 30.198 136.975 29.442V28.902H136.921C136.645 29.262 136.273 29.55 135.805 29.766C135.337 29.982 134.803 30.09 134.203 30.09C133.519 30.09 132.913 29.97 132.385 29.73C131.857 29.478 131.407 29.142 131.035 28.722C130.675 28.302 130.399 27.816 130.207 27.264C130.015 26.7 129.919 26.106 129.919 25.482C129.919 24.858 130.015 24.264 130.207 23.7C130.399 23.136 130.675 22.638 131.035 22.206C131.407 21.774 131.857 21.432 132.385 21.18C132.913 20.916 133.513 20.784 134.185 20.784C134.749 20.784 135.289 20.898 135.805 21.126C136.321 21.354 136.735 21.708 137.047 22.188H137.083V21.036H139.873V29.154ZM137.065 25.464C137.065 25.164 137.011 24.876 136.903 24.6C136.807 24.324 136.663 24.084 136.471 23.88C136.279 23.664 136.051 23.496 135.787 23.376C135.523 23.256 135.223 23.196 134.887 23.196C134.551 23.196 134.251 23.256 133.987 23.376C133.735 23.496 133.519 23.658 133.339 23.862C133.159 24.066 133.021 24.306 132.925 24.582C132.829 24.858 132.781 25.152 132.781 25.464C132.781 25.764 132.829 26.052 132.925 26.328C133.021 26.604 133.159 26.85 133.339 27.066C133.519 27.27 133.735 27.438 133.987 27.57C134.251 27.69 134.551 27.75 134.887 27.75C135.223 27.75 135.523 27.69 135.787 27.57C136.063 27.438 136.291 27.27 136.471 27.066C136.663 26.862 136.807 26.622 136.903 26.346C137.011 26.07 137.065 25.776 137.065 25.464ZM152.491 23.934C152.323 23.718 152.095 23.544 151.807 23.412C151.519 23.28 151.225 23.214 150.925 23.214C150.613 23.214 150.331 23.28 150.079 23.412C149.827 23.532 149.611 23.7 149.431 23.916C149.251 24.12 149.107 24.36 148.999 24.636C148.903 24.912 148.855 25.206 148.855 25.518C148.855 25.83 148.903 26.124 148.999 26.4C149.095 26.676 149.233 26.922 149.413 27.138C149.605 27.342 149.827 27.504 150.079 27.624C150.343 27.744 150.637 27.804 150.961 27.804C151.261 27.804 151.555 27.75 151.843 27.642C152.143 27.522 152.383 27.354 152.563 27.138L154.201 29.136C153.829 29.496 153.349 29.778 152.761 29.982C152.173 30.186 151.549 30.288 150.889 30.288C150.181 30.288 149.521 30.18 148.909 29.964C148.297 29.748 147.763 29.436 147.307 29.028C146.863 28.608 146.509 28.104 146.245 27.516C145.993 26.928 145.867 26.262 145.867 25.518C145.867 24.786 145.993 24.126 146.245 23.538C146.509 22.95 146.863 22.452 147.307 22.044C147.763 21.624 148.297 21.306 148.909 21.09C149.521 20.862 150.175 20.748 150.871 20.748C151.195 20.748 151.513 20.778 151.825 20.838C152.149 20.898 152.455 20.982 152.743 21.09C153.043 21.186 153.313 21.312 153.553 21.468C153.805 21.612 154.021 21.774 154.201 21.954L152.491 23.934ZM164.674 25.482C164.674 26.214 164.542 26.88 164.278 27.48C164.014 28.068 163.654 28.572 163.198 28.992C162.742 29.4 162.214 29.718 161.614 29.946C161.014 30.174 160.372 30.288 159.688 30.288C159.016 30.288 158.374 30.174 157.762 29.946C157.162 29.718 156.634 29.4 156.178 28.992C155.734 28.572 155.38 28.068 155.116 27.48C154.852 26.88 154.72 26.214 154.72 25.482C154.72 24.75 154.852 24.09 155.116 23.502C155.38 22.914 155.734 22.416 156.178 22.008C156.634 21.6 157.162 21.288 157.762 21.072C158.374 20.856 159.016 20.748 159.688 20.748C160.372 20.748 161.014 20.856 161.614 21.072C162.214 21.288 162.742 21.6 163.198 22.008C163.654 22.416 164.014 22.914 164.278 23.502C164.542 24.09 164.674 24.75 164.674 25.482ZM161.83 25.482C161.83 25.194 161.782 24.912 161.686 24.636C161.59 24.36 161.452 24.12 161.272 23.916C161.092 23.7 160.87 23.526 160.606 23.394C160.342 23.262 160.036 23.196 159.688 23.196C159.34 23.196 159.034 23.262 158.77 23.394C158.506 23.526 158.284 23.7 158.104 23.916C157.936 24.12 157.804 24.36 157.708 24.636C157.624 24.912 157.582 25.194 157.582 25.482C157.582 25.77 157.624 26.052 157.708 26.328C157.804 26.604 157.942 26.856 158.122 27.084C158.302 27.3 158.524 27.474 158.788 27.606C159.052 27.738 159.358 27.804 159.706 27.804C160.054 27.804 160.36 27.738 160.624 27.606C160.888 27.474 161.11 27.3 161.29 27.084C161.47 26.856 161.602 26.604 161.686 26.328C161.782 26.052 161.83 25.77 161.83 25.482ZM172.229 30V25.104C172.229 24.852 172.205 24.612 172.157 24.384C172.121 24.156 172.055 23.958 171.959 23.79C171.863 23.61 171.725 23.472 171.545 23.376C171.377 23.268 171.161 23.214 170.897 23.214C170.633 23.214 170.399 23.268 170.195 23.376C170.003 23.472 169.841 23.61 169.709 23.79C169.577 23.97 169.475 24.18 169.403 24.42C169.343 24.648 169.313 24.888 169.313 25.14V30H166.343V21.036H169.205V22.278H169.241C169.349 22.086 169.487 21.9 169.655 21.72C169.835 21.528 170.039 21.366 170.267 21.234C170.507 21.102 170.765 20.994 171.041 20.91C171.317 20.826 171.611 20.784 171.923 20.784C172.523 20.784 173.033 20.892 173.453 21.108C173.873 21.324 174.209 21.606 174.461 21.954C174.725 22.29 174.911 22.68 175.019 23.124C175.139 23.568 175.199 24.012 175.199 24.456V30H172.229ZM180.438 23.25V26.67C180.438 27.09 180.516 27.408 180.672 27.624C180.84 27.828 181.134 27.93 181.554 27.93C181.698 27.93 181.848 27.918 182.004 27.894C182.172 27.87 182.31 27.834 182.418 27.786L182.454 29.946C182.25 30.018 181.992 30.078 181.68 30.126C181.368 30.186 181.056 30.216 180.744 30.216C180.144 30.216 179.64 30.144 179.232 30C178.824 29.844 178.494 29.628 178.242 29.352C178.002 29.064 177.828 28.728 177.72 28.344C177.612 27.948 177.558 27.51 177.558 27.03V23.25H176.118V21.036H177.54V18.678H180.438V21.036H182.544V23.25H180.438ZM189.546 23.448C189.414 23.412 189.282 23.388 189.15 23.376C189.03 23.364 188.91 23.358 188.79 23.358C188.394 23.358 188.058 23.43 187.782 23.574C187.518 23.718 187.302 23.892 187.134 24.096C186.978 24.3 186.864 24.522 186.792 24.762C186.72 25.002 186.684 25.212 186.684 25.392V30H183.732V21.036H186.576V22.332H186.612C186.84 21.876 187.164 21.504 187.584 21.216C188.004 20.928 188.49 20.784 189.042 20.784C189.162 20.784 189.276 20.79 189.384 20.802C189.504 20.814 189.6 20.832 189.672 20.856L189.546 23.448ZM195.679 26.094H195.301C194.977 26.094 194.647 26.112 194.311 26.148C193.987 26.172 193.693 26.226 193.429 26.31C193.177 26.394 192.967 26.52 192.799 26.688C192.631 26.844 192.547 27.054 192.547 27.318C192.547 27.486 192.583 27.63 192.655 27.75C192.739 27.87 192.841 27.966 192.961 28.038C193.081 28.11 193.219 28.164 193.375 28.2C193.531 28.224 193.681 28.236 193.825 28.236C194.425 28.236 194.881 28.074 195.193 27.75C195.517 27.414 195.679 26.964 195.679 26.4V26.094ZM190.261 22.26C190.789 21.756 191.401 21.378 192.097 21.126C192.805 20.874 193.525 20.748 194.257 20.748C195.013 20.748 195.649 20.844 196.165 21.036C196.693 21.216 197.119 21.504 197.443 21.9C197.767 22.284 198.001 22.776 198.145 23.376C198.301 23.964 198.379 24.666 198.379 25.482V30H195.679V29.046H195.625C195.397 29.418 195.049 29.706 194.581 29.91C194.125 30.114 193.627 30.216 193.087 30.216C192.727 30.216 192.355 30.168 191.971 30.072C191.587 29.976 191.233 29.82 190.909 29.604C190.597 29.388 190.339 29.1 190.135 28.74C189.931 28.38 189.829 27.936 189.829 27.408C189.829 26.76 190.003 26.238 190.351 25.842C190.711 25.446 191.167 25.14 191.719 24.924C192.283 24.708 192.907 24.564 193.591 24.492C194.275 24.42 194.941 24.384 195.589 24.384V24.24C195.589 23.796 195.433 23.472 195.121 23.268C194.809 23.052 194.425 22.944 193.969 22.944C193.549 22.944 193.141 23.034 192.745 23.214C192.361 23.394 192.031 23.61 191.755 23.862L190.261 22.26ZM206.556 23.934C206.388 23.718 206.16 23.544 205.872 23.412C205.584 23.28 205.29 23.214 204.99 23.214C204.678 23.214 204.396 23.28 204.144 23.412C203.892 23.532 203.676 23.7 203.496 23.916C203.316 24.12 203.172 24.36 203.064 24.636C202.968 24.912 202.92 25.206 202.92 25.518C202.92 25.83 202.968 26.124 203.064 26.4C203.16 26.676 203.298 26.922 203.478 27.138C203.67 27.342 203.892 27.504 204.144 27.624C204.408 27.744 204.702 27.804 205.026 27.804C205.326 27.804 205.62 27.75 205.908 27.642C206.208 27.522 206.448 27.354 206.628 27.138L208.266 29.136C207.894 29.496 207.414 29.778 206.826 29.982C206.238 30.186 205.614 30.288 204.954 30.288C204.246 30.288 203.586 30.18 202.974 29.964C202.362 29.748 201.828 29.436 201.372 29.028C200.928 28.608 200.574 28.104 200.31 27.516C200.058 26.928 199.932 26.262 199.932 25.518C199.932 24.786 200.058 24.126 200.31 23.538C200.574 22.95 200.928 22.452 201.372 22.044C201.828 21.624 202.362 21.306 202.974 21.09C203.586 20.862 204.24 20.748 204.936 20.748C205.26 20.748 205.578 20.778 205.89 20.838C206.214 20.898 206.52 20.982 206.808 21.09C207.108 21.186 207.378 21.312 207.618 21.468C207.87 21.612 208.086 21.774 208.266 21.954L206.556 23.934ZM212.439 23.25V26.67C212.439 27.09 212.517 27.408 212.673 27.624C212.841 27.828 213.135 27.93 213.555 27.93C213.699 27.93 213.849 27.918 214.005 27.894C214.173 27.87 214.311 27.834 214.419 27.786L214.455 29.946C214.251 30.018 213.993 30.078 213.681 30.126C213.369 30.186 213.057 30.216 212.745 30.216C212.145 30.216 211.641 30.144 211.233 30C210.825 29.844 210.495 29.628 210.243 29.352C210.003 29.064 209.829 28.728 209.721 28.344C209.613 27.948 209.559 27.51 209.559 27.03V23.25H208.119V21.036H209.541V18.678H212.439V21.036H214.545V23.25H212.439ZM223.236 23.25V26.67C223.236 27.09 223.314 27.408 223.47 27.624C223.638 27.828 223.932 27.93 224.352 27.93C224.496 27.93 224.646 27.918 224.802 27.894C224.97 27.87 225.108 27.834 225.216 27.786L225.252 29.946C225.048 30.018 224.79 30.078 224.478 30.126C224.166 30.186 223.854 30.216 223.542 30.216C222.942 30.216 222.438 30.144 222.03 30C221.622 29.844 221.292 29.628 221.04 29.352C220.8 29.064 220.626 28.728 220.518 28.344C220.41 27.948 220.356 27.51 220.356 27.03V23.25H218.916V21.036H220.338V18.678H223.236V21.036H225.342V23.25H223.236ZM236.034 25.482C236.034 26.214 235.902 26.88 235.638 27.48C235.374 28.068 235.014 28.572 234.558 28.992C234.102 29.4 233.574 29.718 232.974 29.946C232.374 30.174 231.732 30.288 231.048 30.288C230.376 30.288 229.734 30.174 229.122 29.946C228.522 29.718 227.994 29.4 227.538 28.992C227.094 28.572 226.74 28.068 226.476 27.48C226.212 26.88 226.08 26.214 226.08 25.482C226.08 24.75 226.212 24.09 226.476 23.502C226.74 22.914 227.094 22.416 227.538 22.008C227.994 21.6 228.522 21.288 229.122 21.072C229.734 20.856 230.376 20.748 231.048 20.748C231.732 20.748 232.374 20.856 232.974 21.072C233.574 21.288 234.102 21.6 234.558 22.008C235.014 22.416 235.374 22.914 235.638 23.502C235.902 24.09 236.034 24.75 236.034 25.482ZM233.19 25.482C233.19 25.194 233.142 24.912 233.046 24.636C232.95 24.36 232.812 24.12 232.632 23.916C232.452 23.7 232.23 23.526 231.966 23.394C231.702 23.262 231.396 23.196 231.048 23.196C230.7 23.196 230.394 23.262 230.13 23.394C229.866 23.526 229.644 23.7 229.464 23.916C229.296 24.12 229.164 24.36 229.068 24.636C228.984 24.912 228.942 25.194 228.942 25.482C228.942 25.77 228.984 26.052 229.068 26.328C229.164 26.604 229.302 26.856 229.482 27.084C229.662 27.3 229.884 27.474 230.148 27.606C230.412 27.738 230.718 27.804 231.066 27.804C231.414 27.804 231.72 27.738 231.984 27.606C232.248 27.474 232.47 27.3 232.65 27.084C232.83 26.856 232.962 26.604 233.046 26.328C233.142 26.052 233.19 25.77 233.19 25.482ZM248.177 23.934C248.009 23.718 247.781 23.544 247.493 23.412C247.205 23.28 246.911 23.214 246.611 23.214C246.299 23.214 246.017 23.28 245.765 23.412C245.513 23.532 245.297 23.7 245.117 23.916C244.937 24.12 244.793 24.36 244.685 24.636C244.589 24.912 244.541 25.206 244.541 25.518C244.541 25.83 244.589 26.124 244.685 26.4C244.781 26.676 244.919 26.922 245.099 27.138C245.291 27.342 245.513 27.504 245.765 27.624C246.029 27.744 246.323 27.804 246.647 27.804C246.947 27.804 247.241 27.75 247.529 27.642C247.829 27.522 248.069 27.354 248.249 27.138L249.887 29.136C249.515 29.496 249.035 29.778 248.447 29.982C247.859 30.186 247.235 30.288 246.575 30.288C245.867 30.288 245.207 30.18 244.595 29.964C243.983 29.748 243.449 29.436 242.993 29.028C242.549 28.608 242.195 28.104 241.931 27.516C241.679 26.928 241.553 26.262 241.553 25.518C241.553 24.786 241.679 24.126 241.931 23.538C242.195 22.95 242.549 22.452 242.993 22.044C243.449 21.624 243.983 21.306 244.595 21.09C245.207 20.862 245.861 20.748 246.557 20.748C246.881 20.748 247.199 20.778 247.511 20.838C247.835 20.898 248.141 20.982 248.429 21.09C248.729 21.186 248.999 21.312 249.239 21.468C249.491 21.612 249.707 21.774 249.887 21.954L248.177 23.934ZM256.76 30V28.758H256.724C256.616 28.962 256.472 29.154 256.292 29.334C256.124 29.514 255.92 29.67 255.68 29.802C255.452 29.934 255.194 30.042 254.906 30.126C254.63 30.21 254.336 30.252 254.024 30.252C253.424 30.252 252.914 30.144 252.494 29.928C252.086 29.712 251.75 29.436 251.486 29.1C251.234 28.752 251.048 28.362 250.928 27.93C250.82 27.486 250.766 27.036 250.766 26.58V21.036H253.736V25.896C253.736 26.148 253.754 26.388 253.79 26.616C253.826 26.844 253.892 27.048 253.988 27.228C254.096 27.408 254.234 27.552 254.402 27.66C254.57 27.756 254.792 27.804 255.068 27.804C255.584 27.804 255.974 27.612 256.238 27.228C256.514 26.844 256.652 26.394 256.652 25.878V21.036H259.604V30H256.76ZM266.986 23.682C266.746 23.454 266.464 23.262 266.14 23.106C265.816 22.95 265.474 22.872 265.114 22.872C264.838 22.872 264.58 22.926 264.34 23.034C264.112 23.142 263.998 23.328 263.998 23.592C263.998 23.844 264.124 24.024 264.376 24.132C264.64 24.24 265.06 24.36 265.636 24.492C265.972 24.564 266.308 24.666 266.644 24.798C266.992 24.93 267.304 25.104 267.58 25.32C267.856 25.536 268.078 25.8 268.246 26.112C268.414 26.424 268.498 26.796 268.498 27.228C268.498 27.792 268.384 28.272 268.156 28.668C267.928 29.052 267.628 29.364 267.256 29.604C266.896 29.844 266.488 30.018 266.032 30.126C265.576 30.234 265.12 30.288 264.664 30.288C263.932 30.288 263.212 30.174 262.504 29.946C261.808 29.706 261.226 29.358 260.758 28.902L262.414 27.156C262.678 27.444 263.002 27.684 263.386 27.876C263.77 28.068 264.178 28.164 264.61 28.164C264.85 28.164 265.084 28.11 265.312 28.002C265.552 27.882 265.672 27.678 265.672 27.39C265.672 27.114 265.528 26.91 265.24 26.778C264.952 26.646 264.502 26.508 263.89 26.364C263.578 26.292 263.266 26.196 262.954 26.076C262.642 25.956 262.36 25.794 262.108 25.59C261.868 25.386 261.67 25.134 261.514 24.834C261.358 24.534 261.28 24.174 261.28 23.754C261.28 23.214 261.394 22.758 261.622 22.386C261.85 22.002 262.144 21.69 262.504 21.45C262.864 21.21 263.26 21.036 263.692 20.928C264.136 20.808 264.574 20.748 265.006 20.748C265.678 20.748 266.332 20.856 266.968 21.072C267.616 21.276 268.162 21.588 268.606 22.008L266.986 23.682ZM273.206 23.25V26.67C273.206 27.09 273.284 27.408 273.44 27.624C273.608 27.828 273.902 27.93 274.322 27.93C274.466 27.93 274.616 27.918 274.772 27.894C274.94 27.87 275.078 27.834 275.186 27.786L275.222 29.946C275.018 30.018 274.76 30.078 274.448 30.126C274.136 30.186 273.824 30.216 273.512 30.216C272.912 30.216 272.408 30.144 272 30C271.592 29.844 271.262 29.628 271.01 29.352C270.77 29.064 270.596 28.728 270.488 28.344C270.38 27.948 270.326 27.51 270.326 27.03V23.25H268.886V21.036H270.308V18.678H273.206V21.036H275.312V23.25H273.206ZM286.004 25.482C286.004 26.214 285.872 26.88 285.608 27.48C285.344 28.068 284.984 28.572 284.528 28.992C284.072 29.4 283.544 29.718 282.944 29.946C282.344 30.174 281.702 30.288 281.018 30.288C280.346 30.288 279.704 30.174 279.092 29.946C278.492 29.718 277.964 29.4 277.508 28.992C277.064 28.572 276.71 28.068 276.446 27.48C276.182 26.88 276.05 26.214 276.05 25.482C276.05 24.75 276.182 24.09 276.446 23.502C276.71 22.914 277.064 22.416 277.508 22.008C277.964 21.6 278.492 21.288 279.092 21.072C279.704 20.856 280.346 20.748 281.018 20.748C281.702 20.748 282.344 20.856 282.944 21.072C283.544 21.288 284.072 21.6 284.528 22.008C284.984 22.416 285.344 22.914 285.608 23.502C285.872 24.09 286.004 24.75 286.004 25.482ZM283.16 25.482C283.16 25.194 283.112 24.912 283.016 24.636C282.92 24.36 282.782 24.12 282.602 23.916C282.422 23.7 282.2 23.526 281.936 23.394C281.672 23.262 281.366 23.196 281.018 23.196C280.67 23.196 280.364 23.262 280.1 23.394C279.836 23.526 279.614 23.7 279.434 23.916C279.266 24.12 279.134 24.36 279.038 24.636C278.954 24.912 278.912 25.194 278.912 25.482C278.912 25.77 278.954 26.052 279.038 26.328C279.134 26.604 279.272 26.856 279.452 27.084C279.632 27.3 279.854 27.474 280.118 27.606C280.382 27.738 280.688 27.804 281.036 27.804C281.384 27.804 281.69 27.738 281.954 27.606C282.218 27.474 282.44 27.3 282.62 27.084C282.8 26.856 282.932 26.604 283.016 26.328C283.112 26.052 283.16 25.77 283.16 25.482ZM299.121 30V25.104C299.121 24.852 299.103 24.612 299.067 24.384C299.031 24.144 298.965 23.94 298.869 23.772C298.773 23.604 298.641 23.472 298.473 23.376C298.317 23.268 298.107 23.214 297.843 23.214C297.591 23.214 297.369 23.268 297.177 23.376C296.997 23.484 296.841 23.628 296.709 23.808C296.589 23.988 296.499 24.198 296.439 24.438C296.379 24.666 296.349 24.906 296.349 25.158V30H293.397V24.888C293.397 24.372 293.295 23.964 293.091 23.664C292.887 23.364 292.563 23.214 292.119 23.214C291.651 23.214 291.285 23.4 291.021 23.772C290.769 24.144 290.643 24.6 290.643 25.14V30H287.673V21.036H290.535V22.278H290.571C290.679 22.086 290.811 21.9 290.967 21.72C291.135 21.54 291.333 21.384 291.561 21.252C291.789 21.108 292.041 20.994 292.317 20.91C292.605 20.826 292.917 20.784 293.253 20.784C293.901 20.784 294.447 20.916 294.891 21.18C295.347 21.444 295.701 21.822 295.953 22.314C296.253 21.846 296.637 21.474 297.105 21.198C297.573 20.922 298.143 20.784 298.815 20.784C299.427 20.784 299.937 20.898 300.345 21.126C300.765 21.342 301.101 21.63 301.353 21.99C301.605 22.338 301.785 22.734 301.893 23.178C302.013 23.61 302.073 24.036 302.073 24.456V30H299.121ZM310.276 24.492C310.276 24.024 310.126 23.622 309.826 23.286C309.538 22.95 309.1 22.782 308.512 22.782C308.224 22.782 307.96 22.83 307.72 22.926C307.48 23.01 307.27 23.13 307.09 23.286C306.91 23.442 306.766 23.628 306.658 23.844C306.55 24.048 306.49 24.264 306.478 24.492H310.276ZM312.994 25.626C312.994 25.746 312.994 25.866 312.994 25.986C312.994 26.106 312.988 26.22 312.976 26.328H306.478C306.502 26.58 306.574 26.808 306.694 27.012C306.826 27.216 306.988 27.396 307.18 27.552C307.384 27.696 307.606 27.81 307.846 27.894C308.098 27.978 308.356 28.02 308.62 28.02C309.088 28.02 309.484 27.936 309.808 27.768C310.132 27.588 310.396 27.36 310.6 27.084L312.652 28.38C312.232 28.992 311.674 29.466 310.978 29.802C310.294 30.126 309.496 30.288 308.584 30.288C307.912 30.288 307.276 30.186 306.676 29.982C306.076 29.766 305.548 29.46 305.092 29.064C304.648 28.656 304.294 28.158 304.03 27.57C303.778 26.982 303.652 26.31 303.652 25.554C303.652 24.822 303.778 24.162 304.03 23.574C304.282 22.974 304.624 22.47 305.056 22.062C305.488 21.642 305.998 21.318 306.586 21.09C307.174 20.862 307.81 20.748 308.494 20.748C309.154 20.748 309.76 20.862 310.312 21.09C310.864 21.306 311.338 21.624 311.734 22.044C312.13 22.464 312.436 22.974 312.652 23.574C312.88 24.174 312.994 24.858 312.994 25.626ZM320.438 23.448C320.306 23.412 320.174 23.388 320.042 23.376C319.922 23.364 319.802 23.358 319.682 23.358C319.286 23.358 318.95 23.43 318.674 23.574C318.41 23.718 318.194 23.892 318.026 24.096C317.87 24.3 317.756 24.522 317.684 24.762C317.612 25.002 317.576 25.212 317.576 25.392V30H314.624V21.036H317.468V22.332H317.504C317.732 21.876 318.056 21.504 318.476 21.216C318.896 20.928 319.382 20.784 319.934 20.784C320.054 20.784 320.168 20.79 320.276 20.802C320.396 20.814 320.492 20.832 320.564 20.856L320.438 23.448Z" fill="white"/>
</svg>
