<svg width="375" height="172" viewBox="0 0 375 172" fill="none" xmlns="http://www.w3.org/2000/svg">
<g opacity="0.140849">
<mask id="mask0_228:523" style="mask-type:alpha" maskUnits="userSpaceOnUse" x="0" y="0" width="373" height="149">
<path fill-rule="evenodd" clip-rule="evenodd" d="M0 0.660156H372.78V149H0V0.660156Z" fill="white"/>
</mask>
<g mask="url(#mask0_228:523)">
<path fill-rule="evenodd" clip-rule="evenodd" d="M332.12 80.5921C346.555 81.6039 345.065 78.2618 335.824 72.8094C332.289 71.3064 328.83 70.6723 325.449 70.8638C314.21 72.2403 313.556 74.937 321 78.6455C324.256 80.1182 327.96 80.7731 332.12 80.5921ZM204.609 0.683029C212.341 0.122547 221.755 9.80235 231.877 36.3755L236.485 45.5727C258.741 47.8641 269.285 46.4364 305.431 54.6522C336.566 64.4438 361.669 61.3693 368.448 80.5921C371.849 81.9851 373.88 84.1334 372.151 88.3739C347.391 101.588 345.465 98.7502 309.88 109.127C288.858 146.601 271.329 152.577 257.984 147.389C251.313 146.089 253.101 128.295 256.503 116.909C200.85 122.866 152.013 116.871 111.2 96.808L51.1522 74.1071C30.3943 79.2979 17.0496 95.5077 0 87.725C8.89648 87.725 20.757 66.9724 28.9136 66.3279C29.9562 63.6459 27.124 60.5784 25.9461 58.5435C31.875 57.977 37.8049 58.5141 43.739 59.8404C61.2449 51.8663 80.2496 47.903 101.563 50.1129C128.991 52.1218 160.131 50.5902 194.231 46.2216C205.35 25.4707 206.826 15.9434 204.609 0.683029Z" fill="black"/>
</g>
</g>
<path d="M63.377 152V142.12L60.869 144.058L59.216 141.797L63.643 138.548H66.569V152H63.377Z" fill="#242424"/>
<path d="M131.292 152V149.34L136.536 144.59C136.865 144.273 137.131 143.95 137.334 143.621C137.537 143.292 137.638 142.924 137.638 142.519C137.638 142.038 137.486 141.651 137.182 141.36C136.878 141.056 136.473 140.904 135.966 140.904C135.434 140.904 134.997 141.094 134.655 141.474C134.326 141.841 134.129 142.329 134.066 142.937L131.007 142.519C131.083 141.835 131.267 141.227 131.558 140.695C131.862 140.163 132.242 139.713 132.698 139.346C133.154 138.966 133.673 138.681 134.256 138.491C134.851 138.288 135.478 138.187 136.137 138.187C136.758 138.187 137.359 138.269 137.942 138.434C138.525 138.599 139.044 138.852 139.5 139.194C139.956 139.536 140.317 139.967 140.583 140.486C140.862 141.005 141.001 141.613 141.001 142.31C141.001 142.791 140.938 143.228 140.811 143.621C140.684 144.001 140.507 144.356 140.279 144.685C140.064 145.014 139.81 145.325 139.519 145.616C139.24 145.895 138.949 146.173 138.645 146.452L135.529 149.226H141.02V152H131.292Z" fill="#242424"/>
<path d="M216.077 148.086C216.077 148.821 215.925 149.46 215.621 150.005C215.33 150.537 214.943 150.98 214.462 151.335C213.981 151.677 213.436 151.93 212.828 152.095C212.233 152.272 211.625 152.361 211.004 152.361C210.396 152.361 209.801 152.291 209.218 152.152C208.648 152.013 208.122 151.804 207.641 151.525C207.172 151.234 206.761 150.866 206.406 150.423C206.051 149.967 205.785 149.422 205.608 148.789L208.572 148.01C208.699 148.453 208.958 148.846 209.351 149.188C209.744 149.517 210.244 149.682 210.852 149.682C211.08 149.682 211.308 149.65 211.536 149.587C211.777 149.524 211.986 149.429 212.163 149.302C212.353 149.163 212.505 148.985 212.619 148.77C212.746 148.555 212.809 148.289 212.809 147.972C212.809 147.63 212.727 147.345 212.562 147.117C212.41 146.889 212.201 146.712 211.935 146.585C211.682 146.446 211.39 146.351 211.061 146.3C210.732 146.237 210.402 146.205 210.073 146.205H209.218V143.868H210.149C210.453 143.868 210.744 143.849 211.023 143.811C211.302 143.76 211.549 143.678 211.764 143.564C211.992 143.437 212.169 143.273 212.296 143.07C212.435 142.867 212.505 142.601 212.505 142.272C212.505 141.791 212.334 141.423 211.992 141.17C211.65 140.917 211.257 140.79 210.814 140.79C210.358 140.79 209.959 140.929 209.617 141.208C209.288 141.474 209.072 141.835 208.971 142.291L206.007 141.607C206.172 141.037 206.419 140.543 206.748 140.125C207.077 139.694 207.464 139.34 207.907 139.061C208.363 138.77 208.857 138.554 209.389 138.415C209.921 138.263 210.466 138.187 211.023 138.187C211.618 138.187 212.195 138.263 212.752 138.415C213.322 138.567 213.829 138.801 214.272 139.118C214.715 139.435 215.07 139.834 215.336 140.315C215.615 140.784 215.754 141.341 215.754 141.987C215.754 142.734 215.539 143.368 215.108 143.887C214.69 144.394 214.152 144.736 213.493 144.913V144.97C213.873 145.059 214.221 145.204 214.538 145.407C214.855 145.597 215.127 145.831 215.355 146.11C215.583 146.376 215.76 146.68 215.887 147.022C216.014 147.351 216.077 147.706 216.077 148.086Z" fill="#242424"/>
<path d="M365.058 147.554C365.058 148.377 364.912 149.093 364.621 149.701C364.33 150.296 363.937 150.79 363.443 151.183C362.962 151.576 362.411 151.867 361.79 152.057C361.169 152.26 360.53 152.361 359.871 152.361C359.263 152.361 358.68 152.279 358.123 152.114C357.578 151.962 357.078 151.74 356.622 151.449C356.179 151.158 355.792 150.803 355.463 150.385C355.146 149.954 354.912 149.473 354.76 148.941L357.667 148.048C357.806 148.517 358.066 148.903 358.446 149.207C358.839 149.511 359.301 149.663 359.833 149.663C360.378 149.663 360.846 149.498 361.239 149.169C361.644 148.84 361.847 148.352 361.847 147.706C361.847 147.313 361.765 146.984 361.6 146.718C361.435 146.452 361.22 146.243 360.954 146.091C360.701 145.926 360.409 145.812 360.08 145.749C359.751 145.686 359.421 145.654 359.092 145.654C358.611 145.654 358.06 145.711 357.439 145.825C356.831 145.926 356.286 146.066 355.805 146.243L356.128 138.548H364.374V141.284H358.959L358.845 143.412C359.048 143.361 359.269 143.33 359.51 143.317C359.763 143.292 359.991 143.279 360.194 143.279C360.865 143.279 361.499 143.368 362.094 143.545C362.689 143.722 363.202 143.995 363.633 144.362C364.076 144.717 364.425 145.16 364.678 145.692C364.931 146.224 365.058 146.845 365.058 147.554Z" fill="#242424"/>
<mask id="mask1_228:523" style="mask-type:alpha" maskUnits="userSpaceOnUse" x="0" y="0" width="299" height="149">
<path fill-rule="evenodd" clip-rule="evenodd" d="M0 0H299V149H0V0Z" fill="white"/>
</mask>
<g mask="url(#mask1_228:523)">
<path fill-rule="evenodd" clip-rule="evenodd" d="M333.207 80.2876C347.69 81.3048 346.194 77.9469 336.923 72.4712C333.377 70.9606 329.906 70.3237 326.514 70.516C315.238 71.8986 314.582 74.6074 322.051 78.3324C325.317 79.8116 329.033 80.4695 333.207 80.2876ZM205.278 0.022908C213.036 -0.539199 222.48 9.18282 232.636 35.8742L237.259 45.1124C259.588 47.4139 270.167 45.9799 306.431 54.2323C337.667 64.0674 362.853 60.9793 369.654 80.2876C373.066 81.6868 375.103 83.8447 373.369 88.104C348.528 101.377 346.596 98.5265 310.894 108.95C289.804 146.59 272.217 152.593 258.829 147.382C252.135 146.076 253.93 128.202 257.342 116.766C201.508 122.749 152.511 116.729 111.564 96.5757L51.3196 73.7738C30.4938 78.9876 17.1054 95.2696 0 87.4532C8.9256 87.4532 20.8241 66.6073 29.0082 65.96C30.0543 63.266 27.2128 60.1849 26.031 58.1409C31.9794 57.5719 37.9286 58.1114 43.8822 59.4444C61.4453 51.4339 80.5123 47.4531 101.895 49.6728C129.413 51.6906 160.655 50.1522 194.866 45.7641C206.023 24.9209 207.503 15.3512 205.278 0.022908Z" fill="#00B0C7"/>
</g>
<path d="M289.785 149.378V152H286.802V149.378H280.475V146.699L285.947 138.548H289.766V146.794H291.628V149.378H289.785ZM286.821 141.816H286.764L283.572 146.794H286.821V141.816Z" fill="#242424"/>
<mask id="mask2_228:523" style="mask-type:alpha" maskUnits="userSpaceOnUse" x="149" y="0" width="2" height="155">
<path fill-rule="evenodd" clip-rule="evenodd" d="M149.398 0.470215H150.398V155H149.398V0.470215Z" fill="white"/>
</mask>
<g mask="url(#mask2_228:523)">
<path d="M149.898 0.469727V155" stroke="#303030" stroke-width="1.3" stroke-dasharray="17 10"/>
</g>
<mask id="mask3_228:523" style="mask-type:alpha" maskUnits="userSpaceOnUse" x="224" y="0" width="2" height="155">
<path fill-rule="evenodd" clip-rule="evenodd" d="M224.023 0.470215H225.023V155H224.023V0.470215Z" fill="white"/>
</mask>
<g mask="url(#mask3_228:523)">
<path d="M224.523 0.469727V155" stroke="#303030" stroke-width="1.3" stroke-dasharray="17 10"/>
</g>
<mask id="mask4_228:523" style="mask-type:alpha" maskUnits="userSpaceOnUse" x="298" y="0" width="2" height="155">
<path fill-rule="evenodd" clip-rule="evenodd" d="M298.648 0.470215H299.648V155H298.648V0.470215Z" fill="white"/>
</mask>
<g mask="url(#mask4_228:523)">
<path d="M299.148 0.469727V155" stroke="#303030" stroke-width="1.3" stroke-dasharray="17 10"/>
</g>
<mask id="mask5_228:523" style="mask-type:alpha" maskUnits="userSpaceOnUse" x="373" y="0" width="2" height="155">
<path fill-rule="evenodd" clip-rule="evenodd" d="M373.271 0.470215H374.271V155H373.271V0.470215Z" fill="white"/>
</mask>
<g mask="url(#mask5_228:523)">
<path d="M373.771 0.469727V155" stroke="#303030" stroke-width="1.3" stroke-dasharray="17 10"/>
</g>
<mask id="mask6_228:523" style="mask-type:alpha" maskUnits="userSpaceOnUse" x="74" y="0" width="2" height="155">
<path fill-rule="evenodd" clip-rule="evenodd" d="M74.7734 0.470215H75.7734V155H74.7734V0.470215Z" fill="white"/>
</mask>
<g mask="url(#mask6_228:523)">
<path d="M75.2734 0.469727V155" stroke="black" stroke-width="1.3" stroke-dasharray="17 10"/>
</g>
<mask id="mask7_228:523" style="mask-type:alpha" maskUnits="userSpaceOnUse" x="0" y="0" width="2" height="155">
<path fill-rule="evenodd" clip-rule="evenodd" d="M0.150391 0.470215H1.15039V155H0.150391V0.470215Z" fill="white"/>
</mask>
<g mask="url(#mask7_228:523)">
<path d="M0.650391 0.469727V155" stroke="black" stroke-width="1.3" stroke-dasharray="17 10"/>
</g>
</svg>
