<svg width="54" height="26" viewBox="0 0 54 26" fill="none" xmlns="http://www.w3.org/2000/svg">
<path d="M27.4455 6.0029C28.4821 5.93105 29.7455 7.18507 31.102 10.6283L31.7209 11.8205C34.705 12.1181 36.1197 11.9328 40.9675 12.9971C45.1429 14.2668 48.5098 13.8683 49.4195 16.3595C49.8756 16.5391 50.1478 16.8175 49.9151 17.3699C46.5948 19.0819 46.3366 18.7171 41.5643 20.0643C38.7443 24.9198 36.3943 25.6944 34.6038 25.022C33.7092 24.8536 33.9488 22.5521 34.4049 21.0724C26.9417 21.8448 20.3919 21.0724 14.9181 18.4678L6.86399 15.5186C4.08 16.1922 2.29071 18.2916 0 17.2834C1.19364 17.2834 2.78398 14.589 3.87873 14.5105C4.01834 14.1624 3.63791 13.765 3.47969 13.5001C4.27967 13.4341 5.08542 13.491 5.86696 13.6685C8.21468 12.6356 10.7637 12.1214 13.6221 12.4077C17.3007 12.6682 21.4761 12.4694 26.0506 11.9036C27.5444 9.21597 27.7433 7.98104 27.4455 6.0029ZM44.5473 16.3595C46.4832 16.4908 46.2831 16.0575 45.044 15.3491C44.6052 15.1618 44.1273 15.0757 43.648 15.0976C42.1356 15.2761 42.053 15.6253 43.0512 16.108C43.522 16.3056 44.0349 16.3918 44.5473 16.3595V16.3595Z" fill="#232323"/>
</svg>
