<?xml version="1.0" encoding="utf-8"?>
<!-- Generator: Adobe Illustrator 25.3.1, SVG Export Plug-In . SVG Version: 6.00 Build 0)  -->
<svg version="1.1" id="Layer_1" xmlns="http://www.w3.org/2000/svg" xmlns:xlink="http://www.w3.org/1999/xlink" x="0px" y="0px"
	 viewBox="0 0 592.9 114.9" style="enable-background:new 0 0 592.9 114.9;" xml:space="preserve">
<style type="text/css">
	.st0{fill-rule:evenodd;clip-rule:evenodd;fill:#073265;}
	.st1{fill-rule:evenodd;clip-rule:evenodd;fill:#FF932B;}
	.st2{fill:#FFFFFF;}
	.st3{fill-rule:evenodd;clip-rule:evenodd;fill:#FFFFFF;}
</style>
<g>
	<path id="Ellipse_13_copy" class="st0" d="M390.4,72.9c0.2-0.1,0.3-0.2,0.4-0.4l0.4-0.4c2-1.9,3.6-4.3,4.7-6.9
		c2.2-5.5,2.2-11.6,0-17.1c-1.1-2.6-2.7-4.9-4.7-6.9c-2.2-2.1-4.8-3.7-7.7-4.7c-3.2-1.1-6.5-1.7-9.8-1.6h1.1c-3.3,0-6.7,0.5-9.8,1.6
		c-2.9,1-5.5,2.6-7.7,4.7c-2,1.9-3.6,4.3-4.7,6.9c-2.2,5.5-2.2,11.6,0,17.1c1.1,2.6,2.7,4.9,4.7,6.9c2.2,2.1,4.8,3.7,7.7,4.7
		c3.2,1.1,6.5,1.7,9.8,1.6h-1.8l18.2,4.7c0.4,0.1,0.9,0.2,1.3,0.2c1.1,0,2.1-0.4,3-1c0.9-0.6,1.5-1.6,1.8-2.6
		c0.3-1.2,0.1-2.6-0.5-3.7c-0.6-1.1-1.7-1.9-3-2.2L390.4,72.9z M384,48c2.5,2.2,3.9,5.5,3.7,8.8c0.2,3.4-1.2,6.6-3.7,8.8
		c-2.5,2.1-5.9,3.2-10.3,3.2h1.1c-4.4,0-7.8-1.1-10.3-3.2c-2.5-2.2-3.9-5.5-3.7-8.8c-0.2-3.4,1.2-6.6,3.7-8.8
		c2.5-2.1,5.9-3.2,10.3-3.2C374.9,44.8,380.8,44.8,384,48z M436.7,36.5c-0.9,0.9-1.5,2.1-1.4,3.4v16.9c0,0.6,0,1.3-0.1,1.9
		c-0.1,0.8-0.3,1.7-0.5,2.5c-0.3,0.9-0.7,1.8-1.2,2.7c-0.5,0.9-1.2,1.8-2.1,2.5c-1,0.8-2.1,1.4-3.3,1.8c-1.5,0.5-3.1,0.7-4.7,0.7
		h1.5c-1.6,0-3.2-0.2-4.7-0.7c-1.2-0.4-2.3-1-3.3-1.8c-0.8-0.7-1.6-1.5-2.1-2.5c-0.5-0.8-0.9-1.7-1.2-2.7c-0.3-0.8-0.4-1.6-0.5-2.5
		c-0.1-0.6-0.1-1.3-0.1-1.9V39.9c0-1.3-0.5-2.5-1.4-3.4c-1.9-1.9-5-1.9-7,0c-0.9,0.9-1.5,2.1-1.4,3.4v16.9c0,1.4,0.1,2.8,0.3,4.2
		c0.2,1.4,0.6,2.7,1,4c1,2.6,2.4,5,4.2,7c1.9,2.1,4.3,3.8,7,4.8c2.9,1.2,6,1.8,9.1,1.7h-1.5c3.1,0.1,6.2-0.5,9.1-1.7
		c2.7-1,5.1-2.7,7-4.8c1.8-2,3.3-4.4,4.2-7c0.9-2.6,1.4-5.4,1.4-8.2V39.9c0-1.3-0.5-2.5-1.4-3.4C441.7,34.6,438.6,34.6,436.7,36.5
		L436.7,36.5z M484.1,36.7c-3.2-1.1-6.5-1.7-9.8-1.6h0.2c-3.4,0-6.7,0.5-9.8,1.6c-2.9,1-5.5,2.6-7.7,4.7c-2,1.9-3.6,4.3-4.7,6.9
		c-2.1,5.5-2.1,11.6,0,17.1c1,2.6,2.6,5,4.7,6.9c2.2,2.1,4.8,3.7,7.7,4.7c3.2,1.1,6.5,1.7,9.8,1.6h-0.2c3.4,0,6.7-0.5,9.8-1.6
		c2.9-1,5.5-2.6,7.7-4.7c2-1.9,3.6-4.3,4.7-6.9c2.1-5.5,2.1-11.6,0-17.1c-1-2.6-2.6-5-4.7-6.9C489.6,39.3,487,37.7,484.1,36.7
		L484.1,36.7z M474.4,68.8c-4.4,0-7.8-1.1-10.3-3.2c-2.5-2.2-3.9-5.5-3.7-8.8c-0.2-3.4,1.2-6.6,3.7-8.8c2.5-2.1,5.9-3.2,10.3-3.2
		h-0.2c4.4,0,7.8,1.1,10.3,3.2c2.5,2.2,3.9,5.5,3.7,8.8c0.2,3.4-1.2,6.6-3.7,8.8c-2.5,2.1-5.9,3.2-10.3,3.2H474.4z M533.1,35.1h-27
		c-1.3,0-2.6,0.5-3.5,1.4c-1.9,1.9-1.9,5,0,6.9c0,0,0,0,0,0c0.9,0.9,2.2,1.4,3.5,1.4h8.1v28.9c0,2.7,2.2,4.9,4.8,4.9c0,0,0,0,0.1,0
		c1.3,0,2.6-0.5,3.5-1.4c0.9-0.9,1.5-2.1,1.4-3.4V44.8h9.1c1.3,0,2.6-0.5,3.5-1.4c1.9-1.9,1.9-5,0-6.9c0,0,0,0,0,0
		C535.7,35.6,534.4,35,533.1,35.1L533.1,35.1L533.1,35.1z M546,35.1c-1.3,0-2.6,0.5-3.5,1.4c-1.9,1.9-1.9,5-0.1,6.9c0,0,0,0,0.1,0.1
		c0.9,0.9,2.2,1.4,3.5,1.4h26c1.3,0,2.6-0.5,3.5-1.4c1.9-1.9,1.9-5,0.1-6.9c0,0,0,0-0.1-0.1c-0.9-0.9-2.2-1.5-3.5-1.4L546,35.1z
		 M546,68.8c-1.3,0-2.6,0.5-3.5,1.4c-1.9,1.9-1.9,4.9-0.1,6.8c0,0,0,0,0.1,0.1c0.9,0.9,2.2,1.5,3.5,1.4h26c1.3,0,2.6-0.5,3.5-1.4
		c1.9-1.9,1.9-4.9,0.1-6.8c0,0,0,0-0.1-0.1c-0.9-0.9-2.2-1.5-3.5-1.4C572,68.8,546,68.8,546,68.8z M546,51.9c-1.3,0-2.6,0.5-3.5,1.4
		c-1.9,1.9-1.9,4.9-0.1,6.8c0,0,0,0,0.1,0.1c0.9,0.9,2.2,1.5,3.5,1.4h26c1.3,0,2.6-0.5,3.5-1.4c1.9-1.9,1.9-4.9,0.1-6.8
		c0,0,0,0-0.1-0.1c-0.9-0.9-2.2-1.5-3.5-1.4H546z"/>
	<path id="Solar_quote" class="st1" d="M146.8,52.3h-13.3c-0.9,0-1.8-0.4-2.4-1c-0.6-0.7-1-1.6-1-2.5c0-0.9,0.3-1.8,1-2.5
		c0.6-0.7,1.5-1.1,2.4-1.1h19c1.2,0,2.4-0.5,3.3-1.4c1.8-2,1.8-5,0-6.9c-0.8-0.9-2-1.4-3.3-1.4h-19c-1.7,0-3.3,0.3-4.8,1
		c-1.5,0.7-2.9,1.7-4.1,2.9c-1.2,1.3-2.1,2.7-2.8,4.3c-1.3,3.3-1.3,6.9,0,10.2c0.6,1.6,1.6,3.1,2.8,4.3c1.2,1.2,2.5,2.2,4.1,2.9
		c1.5,0.7,3.2,1,4.8,1h13.3c0.9,0,1.8,0.4,2.4,1c0.7,0.7,1,1.6,1,2.6c0,0.9-0.3,1.8-1,2.5c-0.6,0.7-1.5,1.1-2.4,1h-18.9
		c-1.2,0-2.4,0.5-3.3,1.4c-1.8,1.9-1.8,5,0,6.9c0.8,0.9,2,1.4,3.3,1.4h18.9c1.7,0,3.4-0.3,4.9-1c1.5-0.7,2.9-1.7,4.1-2.9
		c1.2-1.2,2.1-2.7,2.8-4.3c0.6-1.6,1-3.4,1-5.1c0-1.8-0.3-3.5-1-5.2c-0.6-1.6-1.6-3.1-2.8-4.3c-1.2-1.2-2.5-2.2-4.1-2.9
		C150.2,52.7,148.5,52.3,146.8,52.3L146.8,52.3L146.8,52.3z M195.3,37.1c-3-1.1-6.1-1.7-9.3-1.6h1.1c-3.2,0-6.3,0.5-9.3,1.6
		c-2.7,1-5.2,2.7-7.3,4.7c-1.9,2-3.4,4.3-4.4,6.9c-2,5.5-2,11.6,0,17.1c1,2.6,2.5,4.9,4.4,6.9c2.1,2.1,4.5,3.7,7.3,4.7
		c3,1.1,6.1,1.7,9.3,1.6h-1.1c3.2,0,6.3-0.5,9.3-1.6c2.7-1,5.2-2.7,7.2-4.7c1.9-2,3.4-4.3,4.4-6.9c2-5.5,2-11.6,0-17.1
		c-1-2.6-2.5-4.9-4.4-6.9C200.5,39.7,198.1,38.1,195.3,37.1z M187.2,69.3c-4.1,0-7.4-1.1-9.7-3.2c-2.3-2.1-3.5-5.1-3.5-8.9
		c0-3.8,1.2-6.7,3.5-8.9s5.5-3.2,9.7-3.2h-1.1c4.1,0,7.4,1.1,9.7,3.2c2.3,2.1,3.5,5.1,3.5,8.8c0,3.8-1.2,6.7-3.5,8.8
		c-2.3,2.1-5.5,3.2-9.7,3.2C186.1,69.3,187.2,69.3,187.2,69.3z M240.1,69.3H223V40.3c0-1.3-0.5-2.5-1.4-3.4
		c-1.7-1.8-4.5-1.9-6.3-0.2c-0.1,0.1-0.2,0.2-0.2,0.2c-0.9,0.9-1.4,2.2-1.4,3.4v33.8c0,1.3,0.5,2.5,1.4,3.4c0.8,0.9,2,1.4,3.3,1.4
		h21.7c1.2,0,2.4-0.5,3.3-1.4c1.8-1.9,1.8-5,0-6.9C242.5,69.8,241.3,69.2,240.1,69.3L240.1,69.3L240.1,69.3z M282.4,44
		c-1.1-2.5-2.8-4.7-5.1-6.2c-2.2-1.5-4.8-2.3-7.5-2.3c-2.7,0-5.3,0.8-7.5,2.3c-1.1,0.8-2.1,1.7-3,2.7c-0.9,1.1-1.6,2.2-2.1,3.5
		L249,72.1c-1.1,2.4,0,5.3,2.3,6.5c1.1,0.6,2.4,0.6,3.5,0.1c1.2-0.5,2.1-1.4,2.6-2.6l8.2-28.1c0.4-0.8,0.9-1.5,1.7-2
		c0.7-0.5,1.6-0.8,2.4-0.8c0.9,0,1.7,0.3,2.5,0.8c0.7,0.5,1.3,1.2,1.7,2l9.2,28.1c0.3,0.9,0.9,1.6,1.7,2.1c1.3,0.9,3,1,4.4,0.3
		c1.1-0.5,2-1.5,2.4-2.7c0.4-1.2,0.4-2.6-0.1-3.7L282.4,44z M334.9,69.3h-3.5l-4-4.6c1.8-0.8,3.5-1.9,4.9-3.4
		c1.3-1.4,2.4-3.1,3.1-4.9c0.7-1.9,1.1-3.9,1.1-5.9c0-4-1.5-7.8-4.2-10.7c-1.3-1.4-2.9-2.5-4.6-3.3c-1.8-0.8-3.7-1.2-5.6-1.2h-20.5
		c-1.2,0-2.4,0.5-3.3,1.4c-1.8,2-1.8,5,0,6.9c0.8,0.9,2,1.4,3.3,1.4H322c0.7,0,1.4,0.1,2,0.4c0.6,0.3,1.2,0.7,1.7,1.2
		c0.5,0.5,0.8,1.1,1.1,1.7c0.8,2,0.4,4.3-1.1,5.9c-0.9,1-2.3,1.6-3.7,1.6h-20.5c-1.2,0-2.4,0.5-3.3,1.4c-0.9,0.9-1.4,2.2-1.4,3.5
		v13.3c0,1.3,0.5,2.5,1.4,3.4c1.7,1.8,4.5,1.9,6.3,0.3c0.1-0.1,0.2-0.2,0.3-0.3c0.9-0.9,1.4-2.2,1.4-3.4v-8.4h9.5l10.3,11.7
		c0.8,1,2.1,1.6,3.4,1.6h5.6c1.2,0,2.4-0.5,3.3-1.4c1.8-1.9,1.8-5,0-6.9C337.4,69.8,336.2,69.2,334.9,69.3L334.9,69.3z"/>
	<circle class="st2" cx="58" cy="57.6" r="51.6"/>
	<path class="st1" d="M11.9,84.2c-4.4-8-6.7-17.1-6.6-26.3C5.5,28.7,29.1,5.2,58,5.4C74.9,5.6,90.7,14,100.3,28L11.9,84.2z"/>
	<path class="st0" d="M106.9,40.6l-0.6,0.4l-13-2.2l9.8-6.3C104.6,35,105.8,37.8,106.9,40.6z M74.3,99.1l9.2,3.6
		c-5.7,3.2-11.9,5.3-18.4,6.2L74.3,99.1z M78.7,94.2l19.5-19.9l8.2,2.3c-3.4,8.6-9,16.1-16.2,21.7L78.7,94.2z M109.8,61.9
		c-0.3,3.8-1,7.6-2.2,11.3l-6.7-2.1L109.8,61.9z M107.7,43.2c1.1,3.6,1.8,7.3,2,11l-14.3-2.5l11.4-8.6L107.7,43.2z M104.1,42.6
		l-11.9,8.6l-14.6-2.7L90,40.4L104.1,42.6z M89.5,52.8L73.2,64.6l-15.7-3.8l16.3-10.2L89.5,52.8z M31.5,77.5l22.2-14L70,67.3
		L48.3,83.5L31.5,77.5z M52.1,84.5l21.7-16.7l19.5,5.4l-19,19.4L52.1,84.5z M77.6,65.2l15.2-11.3l17.1,2.5c0,0.5,0,0.9,0,1.4
		L97.1,70L77.6,65.2z M46.7,88.8l22.8,8.6l-11.1,12c-0.2,0-0.4,0-0.6,0c-9.4,0-18.7-2.5-26.8-7.3L46.7,88.8z M26.1,80.8l16.8,6.5
		L27.2,99.7c-4.8-3.4-8.9-7.6-12.3-12.3L26.1,80.8z"/>
	<path class="st3" d="M67,39.4c3,1.2,5.8,3.2,7.9,5.6L39.5,67.4c-1.2-2.7-1.8-5.6-1.8-8.6c0-0.6,0-1.3,0.1-1.9L10.5,49l28.2,3.6
		c0.8-2.4,2-4.7,3.5-6.7l-17.8-21l20.8,17.9c1.9-1.6,4.2-2.9,6.6-3.8L49,12.4L55.9,38c2.3-0.3,4.6-0.3,6.8,0.1L76.5,14L67,39.4z"/>
</g>
</svg>
