<svg width="449" height="179" viewBox="0 0 449 179" fill="none" xmlns="http://www.w3.org/2000/svg">
<path d="M246.46 0.027024C255.769 -0.64176 267.115 11.0306 279.296 43.08L284.854 54.1777C311.651 56.9469 324.355 55.2226 367.888 65.129C405.383 76.9477 435.618 73.238 443.787 96.426C447.883 98.098 450.327 100.69 448.238 105.831C418.422 121.767 416.102 118.371 373.248 130.91C347.924 176.105 326.82 183.316 310.742 177.056C302.708 175.489 304.86 154.067 308.956 140.294C241.937 147.484 183.119 140.294 133.965 116.051L61.6386 88.5992C36.6384 94.869 20.5706 114.41 0 105.026C10.7188 105.026 25.0002 79.9468 34.831 79.2153C36.0847 75.9759 32.6684 72.2766 31.2476 69.8105C38.4314 69.1968 45.6671 69.7258 52.6853 71.378C73.7678 61.7642 96.6577 56.9782 122.326 59.6429C155.361 62.0672 192.856 60.2176 233.934 54.951C247.348 29.9342 249.135 18.4395 246.46 0.027024ZM400.035 96.426C417.419 97.6487 415.622 93.615 404.495 87.0213C400.555 85.2776 396.263 84.4762 391.959 84.6805C378.377 86.342 377.636 89.5919 386.599 94.0853C390.828 95.9242 395.434 96.7267 400.035 96.426V96.426Z" fill="#232323"/>
</svg>
