<svg width="179" height="177" viewBox="0 0 179 177" fill="none" xmlns="http://www.w3.org/2000/svg">
<path d="M243.716 0.026722C252.921 -0.63459 264.14 10.9074 276.186 42.5987L281.682 53.5723C308.181 56.3106 320.743 54.6056 363.792 64.4013C400.869 76.0879 430.767 72.4197 438.846 95.3486C442.895 97.0019 445.313 99.5645 443.246 104.648C413.762 120.406 411.469 117.048 369.091 129.448C344.049 174.138 323.181 181.268 307.282 175.078C299.337 173.528 301.465 152.345 305.515 138.727C239.243 145.836 181.08 138.727 132.473 114.754L60.9522 87.6092C36.2304 93.809 20.3415 113.132 0 103.853C10.5995 103.853 24.7218 79.0535 34.4431 78.3302C35.6828 75.127 32.3046 71.4691 30.8996 69.0305C38.0035 68.4236 45.1586 68.9468 52.0986 70.5804C72.9464 61.0741 95.5813 56.3416 120.964 58.9765C153.631 61.3737 190.708 59.5448 231.329 54.337C244.594 29.5998 246.361 18.2335 243.716 0.026722ZM395.58 95.3486C412.77 96.5576 410.993 92.5691 399.991 86.0489C396.095 84.3248 391.85 83.5323 387.594 83.7344C374.164 85.3773 373.43 88.5909 382.294 93.0341C386.475 94.8524 391.03 95.6459 395.58 95.3486Z" fill="#232323"/>
</svg>
