<svg width="359" height="180" viewBox="0 0 359 180" fill="none" xmlns="http://www.w3.org/2000/svg">
<g clip-path="url(#clip0_12_191)">
<path d="M246.46 1.02702C255.769 0.35824 267.115 12.0306 279.296 44.08L284.854 55.1777C311.651 57.9469 324.355 56.2226 367.888 66.129C405.383 77.9477 435.618 74.238 443.787 97.426C447.883 99.098 450.327 101.69 448.238 106.831C418.422 122.767 416.102 119.371 373.248 131.91C347.924 177.105 326.82 184.316 310.742 178.056C302.708 176.489 304.86 155.067 308.956 141.294C241.937 148.484 183.119 141.294 133.965 117.051L61.6386 89.5992C36.6384 95.869 20.5706 115.41 0 106.026C10.7188 106.026 25.0002 80.9468 34.831 80.2153C36.0847 76.9759 32.6684 73.2766 31.2476 70.8105C38.4314 70.1968 45.6671 70.7258 52.6853 72.378C73.7678 62.7642 96.6577 57.9782 122.326 60.6429C155.361 63.0672 192.856 61.2176 233.934 55.951C247.348 30.9342 249.135 19.4395 246.46 1.02702ZM400.035 97.426C417.419 98.6487 415.622 94.615 404.495 88.0213C400.555 86.2776 396.263 85.4762 391.959 85.6805C378.377 87.342 377.636 90.5919 386.599 95.0853C390.828 96.9242 395.434 97.7267 400.035 97.426V97.426Z" fill="#232323"/>
</g>
<defs>
<clipPath id="clip0_12_191">
<rect width="359" height="179" fill="white" transform="translate(0 0.781006)"/>
</clipPath>
</defs>
</svg>
