<svg width="66" height="40" viewBox="0 0 66 40" fill="none" xmlns="http://www.w3.org/2000/svg">
<rect y="12" width="66" height="23" rx="11.5" fill="#242424"/>
<path d="M14.258 20.664C14.0527 20.4027 13.782 20.1973 13.446 20.048C13.1193 19.8893 12.802 19.81 12.494 19.81C12.3353 19.81 12.172 19.824 12.004 19.852C11.8453 19.88 11.7007 19.936 11.57 20.02C11.4393 20.0947 11.3273 20.1973 11.234 20.328C11.15 20.4493 11.108 20.608 11.108 20.804C11.108 20.972 11.1407 21.112 11.206 21.224C11.2807 21.336 11.3833 21.434 11.514 21.518C11.654 21.602 11.8173 21.6813 12.004 21.756C12.1907 21.8213 12.4007 21.8913 12.634 21.966C12.97 22.078 13.32 22.204 13.684 22.344C14.048 22.4747 14.3793 22.652 14.678 22.876C14.9767 23.1 15.224 23.38 15.42 23.716C15.616 24.0427 15.714 24.4533 15.714 24.948C15.714 25.5173 15.6067 26.012 15.392 26.432C15.1867 26.8427 14.9067 27.1833 14.552 27.454C14.1973 27.7247 13.7913 27.9253 13.334 28.056C12.8767 28.1867 12.4053 28.252 11.92 28.252C11.2107 28.252 10.5247 28.1307 9.862 27.888C9.19933 27.636 8.64867 27.2813 8.21 26.824L9.778 25.228C10.0207 25.5267 10.338 25.7787 10.73 25.984C11.1313 26.18 11.528 26.278 11.92 26.278C12.0973 26.278 12.27 26.2593 12.438 26.222C12.606 26.1847 12.7507 26.124 12.872 26.04C13.0027 25.956 13.1053 25.844 13.18 25.704C13.2547 25.564 13.292 25.396 13.292 25.2C13.292 25.0133 13.2453 24.8547 13.152 24.724C13.0587 24.5933 12.9233 24.4767 12.746 24.374C12.578 24.262 12.3633 24.164 12.102 24.08C11.85 23.9867 11.5607 23.8887 11.234 23.786C10.9167 23.6833 10.604 23.562 10.296 23.422C9.99733 23.282 9.72667 23.1047 9.484 22.89C9.25067 22.666 9.05933 22.4 8.91 22.092C8.77 21.7747 8.7 21.392 8.7 20.944C8.7 20.3933 8.812 19.922 9.036 19.53C9.26 19.138 9.554 18.816 9.918 18.564C10.282 18.312 10.6927 18.13 11.15 18.018C11.6073 17.8967 12.0693 17.836 12.536 17.836C13.096 17.836 13.6653 17.9387 14.244 18.144C14.832 18.3493 15.3453 18.6527 15.784 19.054L14.258 20.664ZM21.6039 28V27.034H21.5759C21.4919 27.1927 21.3799 27.342 21.2399 27.482C21.1093 27.622 20.9506 27.7433 20.7639 27.846C20.5866 27.9487 20.3859 28.0327 20.1619 28.098C19.9473 28.1633 19.7186 28.196 19.4759 28.196C19.0093 28.196 18.6126 28.112 18.2859 27.944C17.9686 27.776 17.7073 27.5613 17.5019 27.3C17.3059 27.0293 17.1613 26.726 17.0679 26.39C16.9839 26.0447 16.9419 25.6947 16.9419 25.34V21.028H19.2519V24.808C19.2519 25.004 19.2659 25.1907 19.2939 25.368C19.3219 25.5453 19.3733 25.704 19.4479 25.844C19.5319 25.984 19.6393 26.096 19.7699 26.18C19.9006 26.2547 20.0733 26.292 20.2879 26.292C20.6893 26.292 20.9926 26.1427 21.1979 25.844C21.4126 25.5453 21.5199 25.1953 21.5199 24.794V21.028H23.8159V28H21.6039ZM33.226 24.486C33.226 24.9713 33.1513 25.438 33.002 25.886C32.8526 26.334 32.6333 26.7307 32.344 27.076C32.064 27.412 31.7186 27.6827 31.308 27.888C30.8973 28.0933 30.4306 28.196 29.908 28.196C29.4413 28.196 28.998 28.1027 28.578 27.916C28.1673 27.72 27.85 27.4447 27.626 27.09H27.598V28H25.484V17.416H27.78V21.77H27.808C28.004 21.5367 28.2793 21.322 28.634 21.126C28.9886 20.93 29.4226 20.832 29.936 20.832C30.44 20.832 30.8926 20.93 31.294 21.126C31.7046 21.322 32.05 21.588 32.33 21.924C32.6193 22.26 32.8386 22.652 32.988 23.1C33.1466 23.5387 33.226 24.0007 33.226 24.486ZM31.014 24.486C31.014 24.262 30.9766 24.0427 30.902 23.828C30.8366 23.6133 30.734 23.4267 30.594 23.268C30.454 23.1 30.2813 22.9647 30.076 22.862C29.8706 22.7593 29.6326 22.708 29.362 22.708C29.1006 22.708 28.8673 22.7593 28.662 22.862C28.4566 22.9647 28.2793 23.1 28.13 23.268C27.99 23.436 27.878 23.6273 27.794 23.842C27.7193 24.0567 27.682 24.276 27.682 24.5C27.682 24.724 27.7193 24.9433 27.794 25.158C27.878 25.3727 27.99 25.564 28.13 25.732C28.2793 25.9 28.4566 26.0353 28.662 26.138C28.8673 26.2407 29.1006 26.292 29.362 26.292C29.6326 26.292 29.8706 26.2407 30.076 26.138C30.2813 26.0353 30.454 25.9 30.594 25.732C30.734 25.564 30.8366 25.3727 30.902 25.158C30.9766 24.934 31.014 24.71 31.014 24.486ZM43.4329 28V24.192C43.4329 23.996 43.4189 23.8093 43.3909 23.632C43.3629 23.4453 43.3116 23.2867 43.2369 23.156C43.1623 23.0253 43.0596 22.9227 42.9289 22.848C42.8076 22.764 42.6443 22.722 42.4389 22.722C42.2429 22.722 42.0703 22.764 41.9209 22.848C41.7809 22.932 41.6596 23.044 41.5569 23.184C41.4636 23.324 41.3936 23.4873 41.3469 23.674C41.3003 23.8513 41.2769 24.038 41.2769 24.234V28H38.9809V24.024C38.9809 23.6227 38.9016 23.3053 38.7429 23.072C38.5843 22.8387 38.3323 22.722 37.9869 22.722C37.6229 22.722 37.3383 22.8667 37.1329 23.156C36.9369 23.4453 36.8389 23.8 36.8389 24.22V28H34.5289V21.028H36.7549V21.994H36.7829C36.8669 21.8447 36.9696 21.7 37.0909 21.56C37.2216 21.42 37.3756 21.2987 37.5529 21.196C37.7303 21.084 37.9263 20.9953 38.1409 20.93C38.3649 20.8647 38.6076 20.832 38.8689 20.832C39.3729 20.832 39.7976 20.9347 40.1429 21.14C40.4976 21.3453 40.7729 21.6393 40.9689 22.022C41.2023 21.658 41.5009 21.3687 41.8649 21.154C42.2289 20.9393 42.6723 20.832 43.1949 20.832C43.6709 20.832 44.0676 20.9207 44.3849 21.098C44.7116 21.266 44.9729 21.49 45.1689 21.77C45.3649 22.0407 45.5049 22.3487 45.5889 22.694C45.6823 23.03 45.7289 23.3613 45.7289 23.688V28H43.4329ZM49.799 18.802C49.799 18.9793 49.7616 19.1473 49.687 19.306C49.6216 19.4553 49.5283 19.586 49.407 19.698C49.295 19.81 49.155 19.8987 48.987 19.964C48.8283 20.0293 48.6603 20.062 48.483 20.062C48.1096 20.062 47.797 19.9407 47.545 19.698C47.293 19.446 47.167 19.1473 47.167 18.802C47.167 18.634 47.1996 18.4753 47.265 18.326C47.3303 18.1673 47.4236 18.032 47.545 17.92C47.6663 17.808 47.8063 17.7193 47.965 17.654C48.1236 17.5793 48.2963 17.542 48.483 17.542C48.6603 17.542 48.8283 17.5747 48.987 17.64C49.155 17.7053 49.295 17.794 49.407 17.906C49.5283 18.018 49.6216 18.1533 49.687 18.312C49.7616 18.4613 49.799 18.6247 49.799 18.802ZM47.335 28V21.028H49.631V28H47.335ZM53.786 22.75V25.41C53.786 25.7367 53.8467 25.984 53.968 26.152C54.0987 26.3107 54.3273 26.39 54.654 26.39C54.766 26.39 54.8827 26.3807 55.004 26.362C55.1347 26.3433 55.242 26.3153 55.326 26.278L55.354 27.958C55.1953 28.014 54.9947 28.0607 54.752 28.098C54.5093 28.1447 54.2667 28.168 54.024 28.168C53.5573 28.168 53.1653 28.112 52.848 28C52.5307 27.8787 52.274 27.7107 52.078 27.496C51.8913 27.272 51.756 27.0107 51.672 26.712C51.588 26.404 51.546 26.0633 51.546 25.69V22.75H50.426V21.028H51.532V19.194H53.786V21.028H55.424V22.75H53.786Z" fill="white"/>
</svg>
