<svg width="210" height="48" viewBox="0 0 210 48" fill="none" xmlns="http://www.w3.org/2000/svg">
<rect y="6" width="210" height="35" rx="17.5" fill="#00B0C7"/>
<path d="M25.114 25.194C25.114 25.962 24.982 26.664 24.718 27.3C24.466 27.924 24.1 28.464 23.62 28.92C23.14 29.364 22.558 29.712 21.874 29.964C21.202 30.216 20.452 30.342 19.624 30.342C18.784 30.342 18.028 30.216 17.356 29.964C16.684 29.712 16.114 29.364 15.646 28.92C15.178 28.464 14.818 27.924 14.566 27.3C14.314 26.664 14.188 25.962 14.188 25.194V17.256H17.248V24.942C17.248 25.29 17.29 25.62 17.374 25.932C17.47 26.244 17.608 26.526 17.788 26.778C17.98 27.018 18.226 27.21 18.526 27.354C18.838 27.498 19.21 27.57 19.642 27.57C20.074 27.57 20.44 27.498 20.74 27.354C21.052 27.21 21.304 27.018 21.496 26.778C21.688 26.526 21.826 26.244 21.91 25.932C21.994 25.62 22.036 25.29 22.036 24.942V17.256H25.114V25.194ZM37.2131 25.482C37.2131 26.106 37.1171 26.706 36.9251 27.282C36.7331 27.858 36.4511 28.368 36.0791 28.812C35.7191 29.244 35.2751 29.592 34.7471 29.856C34.2191 30.12 33.6191 30.252 32.9471 30.252C32.3951 30.252 31.8731 30.144 31.3811 29.928C30.8891 29.7 30.5051 29.394 30.2291 29.01H30.1931V34.32H27.2411V21.036H30.0491V22.134H30.1031C30.3791 21.774 30.7571 21.462 31.2371 21.198C31.7291 20.922 32.3051 20.784 32.9651 20.784C33.6131 20.784 34.2011 20.91 34.7291 21.162C35.2571 21.414 35.7011 21.756 36.0611 22.188C36.4331 22.62 36.7151 23.124 36.9071 23.7C37.1111 24.264 37.2131 24.858 37.2131 25.482ZM34.3511 25.482C34.3511 25.194 34.3031 24.912 34.2071 24.636C34.1231 24.36 33.9911 24.12 33.8111 23.916C33.6431 23.7 33.4271 23.526 33.1631 23.394C32.8991 23.262 32.5931 23.196 32.2451 23.196C31.9091 23.196 31.6091 23.262 31.3451 23.394C31.0811 23.526 30.8531 23.7 30.6611 23.916C30.4811 24.132 30.3371 24.378 30.2291 24.654C30.1331 24.93 30.0851 25.212 30.0851 25.5C30.0851 25.788 30.1331 26.07 30.2291 26.346C30.3371 26.622 30.4811 26.868 30.6611 27.084C30.8531 27.3 31.0811 27.474 31.3451 27.606C31.6091 27.738 31.9091 27.804 32.2451 27.804C32.5931 27.804 32.8991 27.738 33.1631 27.606C33.4271 27.474 33.6431 27.3 33.8111 27.084C33.9911 26.868 34.1231 26.622 34.2071 26.346C34.3031 26.058 34.3511 25.77 34.3511 25.482ZM38.9071 30V16.392H41.8951V30H38.9071ZM53.5365 25.482C53.5365 26.214 53.4045 26.88 53.1405 27.48C52.8765 28.068 52.5165 28.572 52.0605 28.992C51.6045 29.4 51.0765 29.718 50.4765 29.946C49.8765 30.174 49.2345 30.288 48.5505 30.288C47.8785 30.288 47.2365 30.174 46.6245 29.946C46.0245 29.718 45.4965 29.4 45.0405 28.992C44.5965 28.572 44.2425 28.068 43.9785 27.48C43.7145 26.88 43.5825 26.214 43.5825 25.482C43.5825 24.75 43.7145 24.09 43.9785 23.502C44.2425 22.914 44.5965 22.416 45.0405 22.008C45.4965 21.6 46.0245 21.288 46.6245 21.072C47.2365 20.856 47.8785 20.748 48.5505 20.748C49.2345 20.748 49.8765 20.856 50.4765 21.072C51.0765 21.288 51.6045 21.6 52.0605 22.008C52.5165 22.416 52.8765 22.914 53.1405 23.502C53.4045 24.09 53.5365 24.75 53.5365 25.482ZM50.6925 25.482C50.6925 25.194 50.6445 24.912 50.5485 24.636C50.4525 24.36 50.3145 24.12 50.1345 23.916C49.9545 23.7 49.7325 23.526 49.4685 23.394C49.2045 23.262 48.8985 23.196 48.5505 23.196C48.2025 23.196 47.8965 23.262 47.6325 23.394C47.3685 23.526 47.1465 23.7 46.9665 23.916C46.7985 24.12 46.6665 24.36 46.5705 24.636C46.4865 24.912 46.4445 25.194 46.4445 25.482C46.4445 25.77 46.4865 26.052 46.5705 26.328C46.6665 26.604 46.8045 26.856 46.9845 27.084C47.1645 27.3 47.3865 27.474 47.6505 27.606C47.9145 27.738 48.2205 27.804 48.5685 27.804C48.9165 27.804 49.2225 27.738 49.4865 27.606C49.7505 27.474 49.9725 27.3 50.1525 27.084C50.3325 26.856 50.4645 26.604 50.5485 26.328C50.6445 26.052 50.6925 25.77 50.6925 25.482ZM60.4975 26.094H60.1195C59.7955 26.094 59.4655 26.112 59.1295 26.148C58.8055 26.172 58.5115 26.226 58.2475 26.31C57.9955 26.394 57.7855 26.52 57.6175 26.688C57.4495 26.844 57.3655 27.054 57.3655 27.318C57.3655 27.486 57.4015 27.63 57.4735 27.75C57.5575 27.87 57.6595 27.966 57.7795 28.038C57.8995 28.11 58.0375 28.164 58.1935 28.2C58.3495 28.224 58.4995 28.236 58.6435 28.236C59.2435 28.236 59.6995 28.074 60.0115 27.75C60.3355 27.414 60.4975 26.964 60.4975 26.4V26.094ZM55.0795 22.26C55.6075 21.756 56.2195 21.378 56.9155 21.126C57.6235 20.874 58.3435 20.748 59.0755 20.748C59.8315 20.748 60.4675 20.844 60.9835 21.036C61.5115 21.216 61.9375 21.504 62.2615 21.9C62.5855 22.284 62.8195 22.776 62.9635 23.376C63.1195 23.964 63.1975 24.666 63.1975 25.482V30H60.4975V29.046H60.4435C60.2155 29.418 59.8675 29.706 59.3995 29.91C58.9435 30.114 58.4455 30.216 57.9055 30.216C57.5455 30.216 57.1735 30.168 56.7895 30.072C56.4055 29.976 56.0515 29.82 55.7275 29.604C55.4155 29.388 55.1575 29.1 54.9535 28.74C54.7495 28.38 54.6475 27.936 54.6475 27.408C54.6475 26.76 54.8215 26.238 55.1695 25.842C55.5295 25.446 55.9855 25.14 56.5375 24.924C57.1015 24.708 57.7255 24.564 58.4095 24.492C59.0935 24.42 59.7595 24.384 60.4075 24.384V24.24C60.4075 23.796 60.2515 23.472 59.9395 23.268C59.6275 23.052 59.2435 22.944 58.7875 22.944C58.3675 22.944 57.9595 23.034 57.5635 23.214C57.1795 23.394 56.8495 23.61 56.5735 23.862L55.0795 22.26ZM71.9868 30V28.83H71.9508C71.6628 29.286 71.2488 29.64 70.7088 29.892C70.1808 30.132 69.6168 30.252 69.0168 30.252C68.3448 30.252 67.7448 30.12 67.2168 29.856C66.6888 29.592 66.2388 29.244 65.8668 28.812C65.5068 28.368 65.2308 27.858 65.0388 27.282C64.8468 26.706 64.7508 26.106 64.7508 25.482C64.7508 24.858 64.8468 24.264 65.0388 23.7C65.2428 23.124 65.5248 22.62 65.8848 22.188C66.2568 21.756 66.7008 21.414 67.2168 21.162C67.7448 20.91 68.3328 20.784 68.9808 20.784C69.6408 20.784 70.1988 20.91 70.6548 21.162C71.1108 21.414 71.4648 21.69 71.7168 21.99H71.7528V16.392H74.7048V30H71.9868ZM71.8788 25.5C71.8788 25.212 71.8248 24.93 71.7168 24.654C71.6208 24.378 71.4768 24.132 71.2848 23.916C71.1048 23.7 70.8828 23.526 70.6188 23.394C70.3548 23.262 70.0548 23.196 69.7188 23.196C69.3708 23.196 69.0648 23.262 68.8008 23.394C68.5368 23.526 68.3148 23.7 68.1348 23.916C67.9548 24.12 67.8168 24.36 67.7208 24.636C67.6368 24.912 67.5948 25.194 67.5948 25.482C67.5948 25.77 67.6368 26.058 67.7208 26.346C67.8168 26.622 67.9548 26.868 68.1348 27.084C68.3148 27.3 68.5368 27.474 68.8008 27.606C69.0648 27.738 69.3708 27.804 69.7188 27.804C70.0548 27.804 70.3548 27.738 70.6188 27.606C70.8828 27.474 71.1048 27.3 71.2848 27.084C71.4768 26.868 71.6208 26.622 71.7168 26.346C71.8248 26.07 71.8788 25.788 71.8788 25.5ZM86.4225 23.682C86.1825 23.454 85.9005 23.262 85.5765 23.106C85.2525 22.95 84.9105 22.872 84.5505 22.872C84.2745 22.872 84.0165 22.926 83.7765 23.034C83.5485 23.142 83.4345 23.328 83.4345 23.592C83.4345 23.844 83.5605 24.024 83.8125 24.132C84.0765 24.24 84.4965 24.36 85.0725 24.492C85.4085 24.564 85.7445 24.666 86.0805 24.798C86.4285 24.93 86.7405 25.104 87.0165 25.32C87.2925 25.536 87.5145 25.8 87.6825 26.112C87.8505 26.424 87.9345 26.796 87.9345 27.228C87.9345 27.792 87.8205 28.272 87.5925 28.668C87.3645 29.052 87.0645 29.364 86.6925 29.604C86.3325 29.844 85.9245 30.018 85.4685 30.126C85.0125 30.234 84.5565 30.288 84.1005 30.288C83.3685 30.288 82.6485 30.174 81.9405 29.946C81.2445 29.706 80.6625 29.358 80.1945 28.902L81.8505 27.156C82.1145 27.444 82.4385 27.684 82.8225 27.876C83.2065 28.068 83.6145 28.164 84.0465 28.164C84.2865 28.164 84.5205 28.11 84.7485 28.002C84.9885 27.882 85.1085 27.678 85.1085 27.39C85.1085 27.114 84.9645 26.91 84.6765 26.778C84.3885 26.646 83.9385 26.508 83.3265 26.364C83.0145 26.292 82.7025 26.196 82.3905 26.076C82.0785 25.956 81.7965 25.794 81.5445 25.59C81.3045 25.386 81.1065 25.134 80.9505 24.834C80.7945 24.534 80.7165 24.174 80.7165 23.754C80.7165 23.214 80.8305 22.758 81.0585 22.386C81.2865 22.002 81.5805 21.69 81.9405 21.45C82.3005 21.21 82.6965 21.036 83.1285 20.928C83.5725 20.808 84.0105 20.748 84.4425 20.748C85.1145 20.748 85.7685 20.856 86.4045 21.072C87.0525 21.276 87.5985 21.588 88.0425 22.008L86.4225 23.682ZM94.7307 26.094H94.3527C94.0287 26.094 93.6987 26.112 93.3627 26.148C93.0387 26.172 92.7447 26.226 92.4807 26.31C92.2287 26.394 92.0187 26.52 91.8507 26.688C91.6827 26.844 91.5987 27.054 91.5987 27.318C91.5987 27.486 91.6347 27.63 91.7067 27.75C91.7907 27.87 91.8927 27.966 92.0127 28.038C92.1327 28.11 92.2707 28.164 92.4267 28.2C92.5827 28.224 92.7327 28.236 92.8767 28.236C93.4767 28.236 93.9327 28.074 94.2447 27.75C94.5687 27.414 94.7307 26.964 94.7307 26.4V26.094ZM89.3127 22.26C89.8407 21.756 90.4527 21.378 91.1487 21.126C91.8567 20.874 92.5767 20.748 93.3087 20.748C94.0647 20.748 94.7007 20.844 95.2167 21.036C95.7447 21.216 96.1707 21.504 96.4947 21.9C96.8187 22.284 97.0527 22.776 97.1967 23.376C97.3527 23.964 97.4307 24.666 97.4307 25.482V30H94.7307V29.046H94.6767C94.4487 29.418 94.1007 29.706 93.6327 29.91C93.1767 30.114 92.6787 30.216 92.1387 30.216C91.7787 30.216 91.4067 30.168 91.0227 30.072C90.6387 29.976 90.2847 29.82 89.9607 29.604C89.6487 29.388 89.3907 29.1 89.1867 28.74C88.9827 28.38 88.8807 27.936 88.8807 27.408C88.8807 26.76 89.0547 26.238 89.4027 25.842C89.7627 25.446 90.2187 25.14 90.7707 24.924C91.3347 24.708 91.9587 24.564 92.6427 24.492C93.3267 24.42 93.9927 24.384 94.6407 24.384V24.24C94.6407 23.796 94.4847 23.472 94.1727 23.268C93.8607 23.052 93.4767 22.944 93.0207 22.944C92.6007 22.944 92.1927 23.034 91.7967 23.214C91.4127 23.394 91.0827 23.61 90.8067 23.862L89.3127 22.26ZM99.47 30V16.392H102.458V30H99.47ZM110.769 24.492C110.769 24.024 110.619 23.622 110.319 23.286C110.031 22.95 109.593 22.782 109.005 22.782C108.717 22.782 108.453 22.83 108.213 22.926C107.973 23.01 107.763 23.13 107.583 23.286C107.403 23.442 107.259 23.628 107.151 23.844C107.043 24.048 106.983 24.264 106.971 24.492H110.769ZM113.487 25.626C113.487 25.746 113.487 25.866 113.487 25.986C113.487 26.106 113.481 26.22 113.469 26.328H106.971C106.995 26.58 107.067 26.808 107.187 27.012C107.319 27.216 107.481 27.396 107.673 27.552C107.877 27.696 108.099 27.81 108.339 27.894C108.591 27.978 108.849 28.02 109.113 28.02C109.581 28.02 109.977 27.936 110.301 27.768C110.625 27.588 110.889 27.36 111.093 27.084L113.145 28.38C112.725 28.992 112.167 29.466 111.471 29.802C110.787 30.126 109.989 30.288 109.077 30.288C108.405 30.288 107.769 30.186 107.169 29.982C106.569 29.766 106.041 29.46 105.585 29.064C105.141 28.656 104.787 28.158 104.523 27.57C104.271 26.982 104.145 26.31 104.145 25.554C104.145 24.822 104.271 24.162 104.523 23.574C104.775 22.974 105.117 22.47 105.549 22.062C105.981 21.642 106.491 21.318 107.079 21.09C107.667 20.862 108.303 20.748 108.987 20.748C109.647 20.748 110.253 20.862 110.805 21.09C111.357 21.306 111.831 21.624 112.227 22.044C112.623 22.464 112.929 22.974 113.145 23.574C113.373 24.174 113.487 24.858 113.487 25.626ZM120.392 23.682C120.152 23.454 119.87 23.262 119.546 23.106C119.222 22.95 118.88 22.872 118.52 22.872C118.244 22.872 117.986 22.926 117.746 23.034C117.518 23.142 117.404 23.328 117.404 23.592C117.404 23.844 117.53 24.024 117.782 24.132C118.046 24.24 118.466 24.36 119.042 24.492C119.378 24.564 119.714 24.666 120.05 24.798C120.398 24.93 120.71 25.104 120.986 25.32C121.262 25.536 121.484 25.8 121.652 26.112C121.82 26.424 121.904 26.796 121.904 27.228C121.904 27.792 121.79 28.272 121.562 28.668C121.334 29.052 121.034 29.364 120.662 29.604C120.302 29.844 119.894 30.018 119.438 30.126C118.982 30.234 118.526 30.288 118.07 30.288C117.338 30.288 116.618 30.174 115.91 29.946C115.214 29.706 114.632 29.358 114.164 28.902L115.82 27.156C116.084 27.444 116.408 27.684 116.792 27.876C117.176 28.068 117.584 28.164 118.016 28.164C118.256 28.164 118.49 28.11 118.718 28.002C118.958 27.882 119.078 27.678 119.078 27.39C119.078 27.114 118.934 26.91 118.646 26.778C118.358 26.646 117.908 26.508 117.296 26.364C116.984 26.292 116.672 26.196 116.36 26.076C116.048 25.956 115.766 25.794 115.514 25.59C115.274 25.386 115.076 25.134 114.92 24.834C114.764 24.534 114.686 24.174 114.686 23.754C114.686 23.214 114.8 22.758 115.028 22.386C115.256 22.002 115.55 21.69 115.91 21.45C116.27 21.21 116.666 21.036 117.098 20.928C117.542 20.808 117.98 20.748 118.412 20.748C119.084 20.748 119.738 20.856 120.374 21.072C121.022 21.276 121.568 21.588 122.012 22.008L120.392 23.682ZM133.882 23.934C133.714 23.718 133.486 23.544 133.198 23.412C132.91 23.28 132.616 23.214 132.316 23.214C132.004 23.214 131.722 23.28 131.47 23.412C131.218 23.532 131.002 23.7 130.822 23.916C130.642 24.12 130.498 24.36 130.39 24.636C130.294 24.912 130.246 25.206 130.246 25.518C130.246 25.83 130.294 26.124 130.39 26.4C130.486 26.676 130.624 26.922 130.804 27.138C130.996 27.342 131.218 27.504 131.47 27.624C131.734 27.744 132.028 27.804 132.352 27.804C132.652 27.804 132.946 27.75 133.234 27.642C133.534 27.522 133.774 27.354 133.954 27.138L135.592 29.136C135.22 29.496 134.74 29.778 134.152 29.982C133.564 30.186 132.94 30.288 132.28 30.288C131.572 30.288 130.912 30.18 130.3 29.964C129.688 29.748 129.154 29.436 128.698 29.028C128.254 28.608 127.9 28.104 127.636 27.516C127.384 26.928 127.258 26.262 127.258 25.518C127.258 24.786 127.384 24.126 127.636 23.538C127.9 22.95 128.254 22.452 128.698 22.044C129.154 21.624 129.688 21.306 130.3 21.09C130.912 20.862 131.566 20.748 132.262 20.748C132.586 20.748 132.904 20.778 133.216 20.838C133.54 20.898 133.846 20.982 134.134 21.09C134.434 21.186 134.704 21.312 134.944 21.468C135.196 21.612 135.412 21.774 135.592 21.954L133.882 23.934ZM146.065 25.482C146.065 26.214 145.933 26.88 145.669 27.48C145.405 28.068 145.045 28.572 144.589 28.992C144.133 29.4 143.605 29.718 143.005 29.946C142.405 30.174 141.763 30.288 141.079 30.288C140.407 30.288 139.765 30.174 139.153 29.946C138.553 29.718 138.025 29.4 137.569 28.992C137.125 28.572 136.771 28.068 136.507 27.48C136.243 26.88 136.111 26.214 136.111 25.482C136.111 24.75 136.243 24.09 136.507 23.502C136.771 22.914 137.125 22.416 137.569 22.008C138.025 21.6 138.553 21.288 139.153 21.072C139.765 20.856 140.407 20.748 141.079 20.748C141.763 20.748 142.405 20.856 143.005 21.072C143.605 21.288 144.133 21.6 144.589 22.008C145.045 22.416 145.405 22.914 145.669 23.502C145.933 24.09 146.065 24.75 146.065 25.482ZM143.221 25.482C143.221 25.194 143.173 24.912 143.077 24.636C142.981 24.36 142.843 24.12 142.663 23.916C142.483 23.7 142.261 23.526 141.997 23.394C141.733 23.262 141.427 23.196 141.079 23.196C140.731 23.196 140.425 23.262 140.161 23.394C139.897 23.526 139.675 23.7 139.495 23.916C139.327 24.12 139.195 24.36 139.099 24.636C139.015 24.912 138.973 25.194 138.973 25.482C138.973 25.77 139.015 26.052 139.099 26.328C139.195 26.604 139.333 26.856 139.513 27.084C139.693 27.3 139.915 27.474 140.179 27.606C140.443 27.738 140.749 27.804 141.097 27.804C141.445 27.804 141.751 27.738 142.015 27.606C142.279 27.474 142.501 27.3 142.681 27.084C142.861 26.856 142.993 26.604 143.077 26.328C143.173 26.052 143.221 25.77 143.221 25.482ZM153.62 30V25.104C153.62 24.852 153.596 24.612 153.548 24.384C153.512 24.156 153.446 23.958 153.35 23.79C153.254 23.61 153.116 23.472 152.936 23.376C152.768 23.268 152.552 23.214 152.288 23.214C152.024 23.214 151.79 23.268 151.586 23.376C151.394 23.472 151.232 23.61 151.1 23.79C150.968 23.97 150.866 24.18 150.794 24.42C150.734 24.648 150.704 24.888 150.704 25.14V30H147.734V21.036H150.596V22.278H150.632C150.74 22.086 150.878 21.9 151.046 21.72C151.226 21.528 151.43 21.366 151.658 21.234C151.898 21.102 152.156 20.994 152.432 20.91C152.708 20.826 153.002 20.784 153.314 20.784C153.914 20.784 154.424 20.892 154.844 21.108C155.264 21.324 155.6 21.606 155.852 21.954C156.116 22.29 156.302 22.68 156.41 23.124C156.53 23.568 156.59 24.012 156.59 24.456V30H153.62ZM161.83 23.25V26.67C161.83 27.09 161.908 27.408 162.064 27.624C162.232 27.828 162.526 27.93 162.946 27.93C163.09 27.93 163.24 27.918 163.396 27.894C163.564 27.87 163.702 27.834 163.81 27.786L163.846 29.946C163.642 30.018 163.384 30.078 163.072 30.126C162.76 30.186 162.448 30.216 162.136 30.216C161.536 30.216 161.032 30.144 160.624 30C160.216 29.844 159.886 29.628 159.634 29.352C159.394 29.064 159.22 28.728 159.112 28.344C159.004 27.948 158.95 27.51 158.95 27.03V23.25H157.51V21.036H158.932V18.678H161.83V21.036H163.936V23.25H161.83ZM170.937 23.448C170.805 23.412 170.673 23.388 170.541 23.376C170.421 23.364 170.301 23.358 170.181 23.358C169.785 23.358 169.449 23.43 169.173 23.574C168.909 23.718 168.693 23.892 168.525 24.096C168.369 24.3 168.255 24.522 168.183 24.762C168.111 25.002 168.075 25.212 168.075 25.392V30H165.123V21.036H167.967V22.332H168.003C168.231 21.876 168.555 21.504 168.975 21.216C169.395 20.928 169.881 20.784 170.433 20.784C170.553 20.784 170.667 20.79 170.775 20.802C170.895 20.814 170.991 20.832 171.063 20.856L170.937 23.448ZM177.071 26.094H176.693C176.369 26.094 176.039 26.112 175.703 26.148C175.379 26.172 175.085 26.226 174.821 26.31C174.569 26.394 174.359 26.52 174.191 26.688C174.023 26.844 173.939 27.054 173.939 27.318C173.939 27.486 173.975 27.63 174.047 27.75C174.131 27.87 174.233 27.966 174.353 28.038C174.473 28.11 174.611 28.164 174.767 28.2C174.923 28.224 175.073 28.236 175.217 28.236C175.817 28.236 176.273 28.074 176.585 27.75C176.909 27.414 177.071 26.964 177.071 26.4V26.094ZM171.653 22.26C172.181 21.756 172.793 21.378 173.489 21.126C174.197 20.874 174.917 20.748 175.649 20.748C176.405 20.748 177.041 20.844 177.557 21.036C178.085 21.216 178.511 21.504 178.835 21.9C179.159 22.284 179.393 22.776 179.537 23.376C179.693 23.964 179.771 24.666 179.771 25.482V30H177.071V29.046H177.017C176.789 29.418 176.441 29.706 175.973 29.91C175.517 30.114 175.019 30.216 174.479 30.216C174.119 30.216 173.747 30.168 173.363 30.072C172.979 29.976 172.625 29.82 172.301 29.604C171.989 29.388 171.731 29.1 171.527 28.74C171.323 28.38 171.221 27.936 171.221 27.408C171.221 26.76 171.395 26.238 171.743 25.842C172.103 25.446 172.559 25.14 173.111 24.924C173.675 24.708 174.299 24.564 174.983 24.492C175.667 24.42 176.333 24.384 176.981 24.384V24.24C176.981 23.796 176.825 23.472 176.513 23.268C176.201 23.052 175.817 22.944 175.361 22.944C174.941 22.944 174.533 23.034 174.137 23.214C173.753 23.394 173.423 23.61 173.147 23.862L171.653 22.26ZM187.948 23.934C187.78 23.718 187.552 23.544 187.264 23.412C186.976 23.28 186.682 23.214 186.382 23.214C186.07 23.214 185.788 23.28 185.536 23.412C185.284 23.532 185.068 23.7 184.888 23.916C184.708 24.12 184.564 24.36 184.456 24.636C184.36 24.912 184.312 25.206 184.312 25.518C184.312 25.83 184.36 26.124 184.456 26.4C184.552 26.676 184.69 26.922 184.87 27.138C185.062 27.342 185.284 27.504 185.536 27.624C185.8 27.744 186.094 27.804 186.418 27.804C186.718 27.804 187.012 27.75 187.3 27.642C187.6 27.522 187.84 27.354 188.02 27.138L189.658 29.136C189.286 29.496 188.806 29.778 188.218 29.982C187.63 30.186 187.006 30.288 186.346 30.288C185.638 30.288 184.978 30.18 184.366 29.964C183.754 29.748 183.22 29.436 182.764 29.028C182.32 28.608 181.966 28.104 181.702 27.516C181.45 26.928 181.324 26.262 181.324 25.518C181.324 24.786 181.45 24.126 181.702 23.538C181.966 22.95 182.32 22.452 182.764 22.044C183.22 21.624 183.754 21.306 184.366 21.09C184.978 20.862 185.632 20.748 186.328 20.748C186.652 20.748 186.97 20.778 187.282 20.838C187.606 20.898 187.912 20.982 188.2 21.09C188.5 21.186 188.77 21.312 189.01 21.468C189.262 21.612 189.478 21.774 189.658 21.954L187.948 23.934ZM193.831 23.25V26.67C193.831 27.09 193.909 27.408 194.065 27.624C194.233 27.828 194.527 27.93 194.947 27.93C195.091 27.93 195.241 27.918 195.397 27.894C195.565 27.87 195.703 27.834 195.811 27.786L195.847 29.946C195.643 30.018 195.385 30.078 195.073 30.126C194.761 30.186 194.449 30.216 194.137 30.216C193.537 30.216 193.033 30.144 192.625 30C192.217 29.844 191.887 29.628 191.635 29.352C191.395 29.064 191.221 28.728 191.113 28.344C191.005 27.948 190.951 27.51 190.951 27.03V23.25H189.511V21.036H190.933V18.678H193.831V21.036H195.937V23.25H193.831Z" fill="white"/>
</svg>
