<svg width="61" height="60" viewBox="0 0 61 60" fill="none" xmlns="http://www.w3.org/2000/svg">
<path d="M49.4001 27.3L55.2001 18.8H46.0001L48.0001 11.2H41.0001V7.99995H23.8L20.1001 4.19995H4.80005V40.6C4.80005 42.1 6.00007 43.4 7.60007 43.4H13.9001L26.0001 32L38.1001 43.4C39.0001 43.4 39.8001 43 40.4001 42.4L56.4001 27.3H49.4001ZM46.2001 27.3H23.0001L8.60007 40.7H7.50006L9.80005 13.8H44.5001L43.3 18.7H16.2001L11.1001 32.1L11.9001 32.3L17.9001 21.4H49.8L46.2001 27.3Z" fill="#969696"/>
<path d="M16.3 48.7001L26 39.5001L35.8 48.7001M26 40.2001V56.4001" stroke="#969696" stroke-width="2.1136" stroke-miterlimit="10" stroke-linecap="round"/>
</svg>
