<svg width="34" height="34" viewBox="0 0 34 34" fill="none" xmlns="http://www.w3.org/2000/svg">
<path fill-rule="evenodd" clip-rule="evenodd" d="M28.9993 29C29.0535 23.6756 25.7648 19.1535 21.162 17.4307C23.0458 16.0967 24.2826 13.8778 24.2826 11.3744C24.2826 7.31262 21.0266 4 17.0343 4C13.042 4 9.78601 7.31262 9.78601 11.3744C9.78601 13.8774 11.0224 16.0959 12.9056 17.4301C8.30044 19.1503 5 23.6603 5 28.9295L7.46228 29C7.53155 23.5761 11.7724 19.2614 17.0343 19.2614C22.2962 19.2614 26.5371 23.5761 26.5371 28.9295L28.9993 29ZM12.5 11.197C12.5 8.46538 14.6707 6.27273 17.375 6.27273C20.0793 6.27273 22.25 8.46538 22.25 11.197C22.25 13.9286 20.0793 16.1212 17.375 16.1212C14.6707 16.1212 12.5 13.9286 12.5 11.197Z" fill="#242424"/>
<circle cx="17" cy="17" r="16" stroke="#242424" stroke-width="2"/>
</svg>
